<?xml version="1.0" encoding="UTF-8"?>
<svg width="20px" height="20px" viewBox="0 0 20 20" version="1.1" xmlns="http://www.w3.org/2000/svg" xmlns:xlink="http://www.w3.org/1999/xlink">
    <title>Amount-icon</title>
    <g id="最新" stroke="none" stroke-width="1" fill="none" fill-rule="evenodd">
        <g id="Add-Liquidity01" transform="translate(-603.000000, -719.000000)" fill="#0155FF" fill-rule="nonzero">
            <g id="数量-(1)" transform="translate(603.000000, 719.000000)">
                <path d="M9.97425426,9.82111151 C9.46821733,9.82111151 8.98215554,9.72345526 8.6381392,9.55033736 L0.532670455,5.49760298 C0.210848722,5.34002131 0.028852983,5.12917259 0.028852983,4.92054332 C0.028852983,4.71191406 0.213068182,4.50106534 0.532670455,4.34570312 L8.62482244,0.29074929 C8.96883878,0.119850852 9.45490057,0.019975142 9.9609375,0.019975142 C10.4669744,0.019975142 10.9530362,0.117631392 11.2970526,0.29074929 L19.4180575,4.34348366 C19.7376598,4.50106534 19.921875,4.71191406 19.921875,4.92054332 C19.921875,5.12917259 19.7376598,5.34002131 19.4180575,5.49538352 L11.3103693,9.55033736 C10.966353,9.7212358 10.4802912,9.82111151 9.97425426,9.82111151 Z M9.20410156,8.36736506 C9.34614702,8.45392401 9.63689631,8.50719105 9.9609375,8.50719105 C10.2916371,8.50719105 10.5779474,8.43838778 10.7133345,8.37180398 L17.6669034,4.90056818 L10.7177734,1.43377131 C10.5712891,1.3449929 10.296076,1.29394531 9.9609375,1.29394531 C9.66131037,1.29394531 9.37943892,1.34943182 9.20632102,1.44486861 L2.25275213,4.91388494 L9.20410156,8.36736506 Z" id="Shape"></path>
                <path d="M10.0497159,14.7549716 L9.9609375,14.7549716 C9.32839134,14.7549716 8.73357599,14.6262429 8.28968395,14.3909801 L0.357333097,10.4314631 C0.204190341,10.353782 0.0887784091,10.2228338 0.0355113636,10.0608132 C-0.0177556818,9.89879261 -0.00221946023,9.72567472 0.077681108,9.57253196 C0.186434659,9.35502486 0.403941761,9.21963778 0.643643466,9.21963778 C0.745738636,9.21963778 0.845614347,9.24405185 0.938831676,9.29287997 L8.86896307,13.2501776 C9.1463956,13.3877841 9.54589844,13.4676847 9.96759588,13.4676847 C10.3892933,13.4676847 10.7932351,13.3877841 11.077326,13.2501776 L19.0096768,9.27734375 C19.1006747,9.23295455 19.1961115,9.20854048 19.2982067,9.20854048 C19.5445668,9.20854048 19.7642933,9.3417081 19.8708274,9.55477628 C20.0284091,9.86772017 19.8996804,10.2627841 19.5933949,10.4159268 L11.6632635,14.3887607 C11.1527876,14.6329013 10.6090199,14.7549716 10.0497159,14.7549716 Z" id="Path"></path>
                <path d="M9.9609375,19.5800781 C9.32839134,19.5800781 8.73357599,19.4513494 8.28968395,19.2160866 L0.357333097,15.2565696 C0.204190341,15.1788885 0.0887784091,15.0479403 0.0355113636,14.8859197 C-0.0177556818,14.7261186 -0.00221946023,14.5507812 0.077681108,14.3976385 C0.19309304,14.1801314 0.412819602,14.0447443 0.645862926,14.0447443 C0.745738636,14.0447443 0.845614347,14.0691584 0.938831676,14.1179865 L8.87118253,18.0908203 C9.14861506,18.2284268 9.5481179,18.3083274 9.9720348,18.3083274 C10.3937322,18.3083274 10.797674,18.2284268 11.0817649,18.0908203 L19.0141158,14.1179865 C19.1051136,14.0735973 19.2005504,14.0491832 19.3026456,14.0491832 C19.5490057,14.0491832 19.7687322,14.1823509 19.8752663,14.395419 C19.950728,14.5485618 19.9640447,14.7216797 19.9107777,14.8859197 C19.8575107,15.0501598 19.7465376,15.181108 19.5956143,15.2565696 L11.6632635,19.2294034 C11.1838601,19.4557884 10.5779474,19.5800781 9.9609375,19.5800781 L9.9609375,19.5800781 Z" id="Path"></path>
            </g>
        </g>
    </g>
</svg>