<?xml version="1.0" encoding="UTF-8"?>
<svg width="24px" height="20px" viewBox="0 0 24 20" version="1.1" xmlns="http://www.w3.org/2000/svg" xmlns:xlink="http://www.w3.org/1999/xlink">
    <title>Receive-icon</title>
    <g id="最新" stroke="none" stroke-width="1" fill="none" fill-rule="evenodd">
        <g id="Add-Liquidity02" transform="translate(-603.000000, -430.000000)" fill-rule="nonzero">
            <g id="Group" transform="translate(603.000000, 430.000000)">
                <g id="取款" fill="#0155FF">
                    <path d="M18.2494602,12.785983 C18.0512113,12.786272 17.861199,12.8653128 17.7212332,13.0057134 C17.5812674,13.1461139 17.5028163,13.3363704 17.503142,13.5346193 L17.503142,17.3245739 C17.503142,17.9274375 17.053142,18.4178011 16.4997784,18.4178011 L2.51036932,18.4178011 C1.95700568,18.4178011 1.50686932,17.926892 1.50686932,17.3245739 L1.50686932,2.59730114 C1.50686932,1.9944375 1.95686932,1.50407386 2.51036932,1.50407386 L16.4997784,1.50407386 C17.053142,1.50407386 17.503142,1.99498295 17.503142,2.59730114 L17.503142,6.44098295 C17.4995055,6.70999642 17.6409392,6.96014598 17.8733245,7.09571345 C18.1057098,7.23128092 18.3930743,7.23128092 18.6254596,7.09571345 C18.8578449,6.96014598 18.9992786,6.70999642 18.9957105,6.44098295 L18.9957105,2.59730114 C18.9957105,1.16889205 17.8759602,0.00639204545 16.5001875,0.00639204545 L2.51036932,0.00639204545 C1.13459659,0.00639204545 0.0149147727,1.16889205 0.0149147727,2.59730114 L0.0149147727,17.3245739 C0.0149147727,18.752983 1.13459659,19.915483 2.51036932,19.915483 L16.4997784,19.915483 C17.8759602,19.915483 18.995233,18.7532557 18.995233,17.3245739 L18.995233,13.5346193 C18.9959115,13.1219959 18.6620832,12.7868858 18.2494602,12.785983 Z M12.4671246,10.1275343 C12.4676618,10.2924064 12.5229684,10.4524263 12.6243519,10.5824434 C12.6611643,10.6628555 12.7091873,10.7376447 12.7669883,10.8045798 L15.3010337,13.6579889 C15.4768912,13.864395 15.7507628,13.9593394 16.0166424,13.9060725 C16.282522,13.8528056 16.4986825,13.6596871 16.5814556,13.4014664 C16.6642288,13.1432457 16.6006242,12.860448 16.415261,12.6625343 L14.8296246,10.8768525 L21.8489428,10.8768525 C22.2624409,10.8768525 22.5976474,10.5416461 22.5976474,10.128148 C22.5976474,9.71464987 22.2624409,9.37944343 21.8489428,9.37944343 L14.9695337,9.37944343 L16.4059883,7.82012525 C16.6860503,7.51640901 16.667759,7.04339791 16.3650792,6.76221616 C16.2200199,6.6273895 16.0272225,6.55590989 15.8293299,6.56358709 C15.6314372,6.57126429 15.4447571,6.65746564 15.3105792,6.80312525 L12.8423974,9.48130707 C12.6106421,9.61400518 12.4675121,9.86047788 12.4671246,10.1275343 L12.4671246,10.1275343 Z" id="Shape"></path>
                </g>
                <path d="M4,13.9162802 L4,12.9912131 L5.174,12.991 L5.174,7.001 L4,7.00146448 L4,6.07639735 L5.284,6.076 L5.28464843,5 L6.19470779,5 L6.194,6.076 L7.582,6.076 L7.58260832,5 L8.49266766,5 L8.49298033,6.08783936 C8.83267803,6.11728267 9.16730143,6.19540796 9.48676945,6.32047839 C9.83407291,6.46926137 10.1264479,6.72546529 10.3223912,7.05272149 C10.5191001,7.36104767 10.6249155,7.72014713 10.6273451,8.08762508 C10.6268393,8.4222721 10.5327346,8.74987479 10.3560082,9.03221869 C10.1588688,9.34475037 9.87816292,9.59367762 9.54679974,9.74981694 C9.9721516,9.86061113 10.3500338,10.1101136 10.6225427,10.4600927 C10.8761222,10.8019564 11.0089354,11.220725 10.999533,11.6487674 C11.0016042,12.0037152 10.9235655,12.354418 10.7714179,12.6739077 C10.6415084,12.9597099 10.4474058,13.2105196 10.2047318,13.4061508 C9.95104264,13.5905912 9.66368641,13.7217021 9.35950521,13.7917989 C9.07431668,13.8588164 8.78419689,13.9006162 8.49239135,13.9168542 L8.49266766,14.9975592 L7.58260832,14.9975592 L7.582,13.922 L6.194,13.918 L6.19470779,15 L5.28464843,15 L5.284,13.916 L4,13.9162802 Z M7.9812095,10.2965584 L6.19951021,10.2965584 L6.19710899,12.9912131 L8.11807859,12.9912131 C8.35077572,12.9971604 8.58357839,12.9849203 8.81443009,12.9546009 C9.02201647,12.9210249 9.22156552,12.8481681 9.40272702,12.7398096 C9.56802734,12.6326471 9.70228864,12.4826927 9.79172337,12.3053454 C9.89643492,12.1013438 9.94926516,11.8739517 9.94540094,11.6438858 C9.95101257,11.3721669 9.87385311,11.105328 9.72448943,10.8799121 C9.57435828,10.6639034 9.3582738,10.5043155 9.10977916,10.4259214 C8.74186047,10.3268054 8.36160369,10.2832182 7.9812095,10.2965584 Z M7.7362859,7.00146448 L6.19710899,7.00146448 L6.19710899,9.37149133 L7.86355012,9.37149133 C8.19096955,9.38363324 8.51857577,9.35328515 8.8384422,9.28118134 C9.07072729,9.21876394 9.27651254,9.08074019 9.42433793,8.88821089 C9.56055707,8.68784885 9.62960492,8.44818757 9.62123732,8.20478399 C9.62522294,7.96324656 9.56196014,7.72548336 9.43874521,7.51891627 C9.31746985,7.32208876 9.12958915,7.1771183 8.91047857,7.11130095 C8.5257177,7.02120299 8.13076121,6.98425793 7.7362859,7.00146448 Z" id="Combined-Shape" fill="#FA9D3B"></path>
            </g>
        </g>
    </g>
</svg>