<svg viewBox="0 0 24 24" fill="none" xmlns="http://www.w3.org/2000/svg">
    <rect width="24" height="24" rx="4" fill="#2C374B" />
    <rect width="24" height="24" rx="12" fill="#2C374B" />
    <path
        d="M14.1409 11.2056L15.5362 8.83788L19.2973 14.6957L19.299 15.82L19.2868 8.08403C19.2779 7.89487 19.1775 7.72184 19.0173 7.61978L12.246 3.72498C12.0877 3.64712 11.8867 3.64806 11.7287 3.72744C11.7073 3.73819 11.6873 3.74977 11.6681 3.76251L11.6445 3.77736L5.07184 7.58611L5.04635 7.5978C5.0135 7.61276 4.98042 7.63205 4.9492 7.65427C4.82457 7.74359 4.7418 7.87581 4.71503 8.02394C4.71105 8.04639 4.70801 8.0693 4.70673 8.09245L4.71701 14.3964L8.22027 8.96672C8.66126 8.24677 9.62227 8.01471 10.5144 8.02745L11.5614 8.05504L5.3923 17.9485L6.11949 18.3671L12.3624 8.06509L15.1219 8.05504L8.89508 18.6171L11.4899 20.1097L11.8 20.2879C11.9312 20.3412 12.0857 20.3439 12.2179 20.296L19.0844 16.3168L17.7716 17.0776L14.1409 11.2056ZM14.6732 18.8732L12.0524 14.7597L13.6523 12.0448L17.0943 17.4701L14.6732 18.8732Z"
        fill="#2D374B" />
    <path d="M12.0518 14.7599L14.6727 18.8733L17.0937 17.4702L13.6517 12.0449L12.0518 14.7599Z"
        fill="#28A0F0" />
    <path
        d="M19.2986 15.8202L19.2969 14.696L15.5358 8.83813L14.1405 11.2058L17.7713 17.0778L19.0841 16.3171C19.2128 16.2126 19.2908 16.0591 19.299 15.8935L19.2986 15.8202Z"
        fill="#28A0F0" />
    <path
        d="M3.53827 16.8804L5.39213 17.9486L11.5612 8.05518L10.5143 8.02758C9.62223 8.01496 8.66121 8.24691 8.22011 8.96685L4.71685 14.3966L3.53827 16.2074V16.8804V16.8804Z"
        fill="white" />
    <path
        d="M15.1217 8.05518L12.3623 8.06523L6.11932 18.3672L8.30148 19.6236L8.8948 18.6172L15.1217 8.05518Z"
        fill="white" />
    <path
        d="M20.4617 8.04091C20.4387 7.46383 20.1262 6.93562 19.6368 6.62803L12.7768 2.68297C12.2926 2.43921 11.6878 2.43886 11.2028 2.68285C11.1455 2.71173 4.53158 6.54759 4.53158 6.54759C4.44004 6.59144 4.35189 6.6437 4.269 6.70309C3.8321 7.01629 3.56577 7.50288 3.5383 8.0374V16.2075L4.71688 14.3967L4.7066 8.09258C4.708 8.06955 4.71092 8.04675 4.7149 8.02442C4.74155 7.87606 4.82444 7.74383 4.94907 7.6544C4.98029 7.63218 11.707 3.73833 11.7284 3.72757C11.8866 3.64819 12.0875 3.64725 12.2458 3.72512L19.017 7.61991C19.1772 7.72197 19.2776 7.895 19.2865 8.08416V15.8933C19.2783 16.0588 19.2129 16.2123 19.0841 16.3168L17.7713 17.0776L17.094 17.4702L14.673 18.8732L12.2177 20.296C12.0855 20.3439 11.9308 20.3412 11.7997 20.2879L8.89483 18.6171L8.30139 19.6235L10.912 21.1265C10.9983 21.1756 11.0752 21.2191 11.1384 21.2546C11.2361 21.3094 11.3027 21.346 11.3262 21.3575C11.5118 21.4476 11.7787 21.5 12.0193 21.5C12.2398 21.5 12.4549 21.4595 12.6584 21.3798L19.7899 17.2499C20.1992 16.9327 20.4401 16.4544 20.4617 15.9364V8.04091Z"
        fill="#96BEDC" />
</svg>