<svg viewBox="0 0 40 40" fill="none" xmlns="http://www.w3.org/2000/svg">
  <path
    d="M39.9491 18.6438C39.2005 7.62253 29.6604 -0.701379 18.6423 0.04728C13.1536 0.421276 8.33358 2.97792 4.96955 6.80788L4.95955 6.80121C4.93555 6.83188 4.91489 6.86254 4.89422 6.89321C1.55353 10.7472 -0.326484 15.8678 0.0468516 21.3577C0.0815186 21.8817 0.142852 22.395 0.218186 22.9044C0.218186 22.929 0.224853 22.949 0.228186 22.973C0.27952 23.3084 0.338187 23.6444 0.402854 23.973C0.464152 24.2768 0.532616 24.5791 0.608189 24.8797C2.91887 34.0903 11.5476 40.6135 21.357 39.9462C32.3751 39.1969 40.7025 29.6576 39.9531 18.6371L39.9491 18.6438ZM35.5958 18.9411C35.6884 20.2971 35.6024 21.6251 35.3598 22.905C35.3598 22.8984 35.3531 22.8917 35.3531 22.8844C33.9011 19.3417 31.0331 16.7818 28.5137 15.3678C29.0237 9.36452 26.987 6.83187 24.6804 6.42121C24.2334 6.33725 23.774 6.34554 23.3304 6.44557C22.8867 6.54561 22.4682 6.73527 22.1006 7.00292C21.7329 7.27057 21.4238 7.61055 21.1923 8.00199C20.9608 8.39343 20.8118 8.82805 20.7543 9.27918C20.6982 9.71437 20.7284 10.1564 20.8432 10.5798C20.9581 11.0033 21.1554 11.4 21.4238 11.7472C21.6922 12.0943 22.0264 12.3851 22.4073 12.6029C22.7882 12.8207 23.2084 12.9613 23.6437 13.0165C23.8044 13.0371 23.9617 13.0438 24.1157 13.0405C24.1269 13.2547 24.1327 13.4692 24.133 13.6838C22.0003 13.1571 20.0083 13.0505 18.191 13.2151C17.5076 13.26 16.8275 13.3457 16.1543 13.4718C16.381 11.4452 17.1436 9.16585 18.619 7.50253C20.0457 5.89055 22.1683 4.96989 24.4817 5.20589C24.9204 5.25056 25.389 5.35989 25.8097 5.50056C25.8304 5.50722 25.851 5.51389 25.8684 5.51722C31.2284 7.7012 35.1751 12.7905 35.5924 18.9411H35.5958ZM21.655 21.9944C21.655 21.9944 21.655 21.9977 21.6517 22.001C21.146 22.7277 20.573 23.4051 19.9403 24.0244C18.9821 23.0122 18.1708 21.8703 17.5303 20.6324C17.4996 20.5671 17.4656 20.5091 17.4343 20.4437V20.4371C17.059 19.6348 16.7588 18.7994 16.5376 17.9418C17.9576 17.6064 19.351 17.4831 20.683 17.5484L20.895 17.5584H20.9017C21.737 17.6271 22.6063 17.7811 23.5064 18.0278C23.0885 19.4325 22.4658 20.768 21.6583 21.991L21.655 21.9944ZM14.823 5.24723L14.813 5.26056C12.4683 8.28653 11.6876 12.0478 11.7223 14.9365C6.26623 17.4964 5.09555 20.5257 5.88956 22.7297C5.90956 22.7917 5.93423 22.8497 5.95823 22.9084C6.30031 23.7255 6.95283 24.3734 7.77239 24.7097C8.59194 25.0459 9.51148 25.0431 10.3289 24.7017C11.1461 24.3596 11.794 23.7071 12.1303 22.8876C12.4665 22.068 12.4637 21.1485 12.1223 20.3311C12.0601 20.1859 11.9882 20.0451 11.9069 19.9097C12.0783 19.7964 12.2629 19.6844 12.4616 19.5677C13.0703 21.6797 13.971 23.463 15.0216 24.955C15.4016 25.5197 15.8123 26.0637 16.2603 26.5877C14.3916 27.4057 12.0369 27.885 9.85626 27.4397C7.74824 27.009 5.88956 25.633 4.93489 23.5104C4.752 23.0941 4.61432 22.6594 4.52422 22.2137C4.46793 21.8309 4.42568 21.4463 4.39755 21.0604C3.91088 13.8965 8.35424 7.51987 14.823 5.24723ZM21.059 35.5962C16.805 35.8869 12.8276 34.4363 9.82226 31.8549C13.615 32.3723 17.2636 31.167 19.749 29.6923C24.6944 33.1389 27.9051 32.6389 29.4177 30.849C29.7141 30.5035 29.9367 30.1011 30.0719 29.6665C30.2072 29.2318 30.2521 28.7742 30.204 28.3215C30.156 27.8689 30.0159 27.4309 29.7924 27.0344C29.5689 26.6378 29.2667 26.2912 28.9044 26.0157C28.5554 25.7496 28.1574 25.555 27.7331 25.4428C27.3089 25.3306 26.8667 25.3032 26.4318 25.362C25.9969 25.4208 25.5779 25.5648 25.1987 25.7856C24.8195 26.0064 24.4875 26.2998 24.2217 26.649C24.1264 26.7757 24.0404 26.913 23.965 27.0497C23.7837 26.957 23.5917 26.8543 23.397 26.7417C24.7905 25.3041 25.9324 23.6425 26.775 21.8264C27.0767 21.2117 27.3419 20.5797 27.5691 19.9337C29.2124 21.1457 30.8071 22.9424 31.5124 25.0537C32.1938 27.0937 31.9331 29.3936 30.5711 31.2803C30.302 31.6463 29.9945 31.9825 29.6537 32.2829L29.6404 32.2963C27.1791 34.2349 24.1892 35.3841 21.063 35.5929L21.059 35.5962Z"
    fill="url(#paint0_linear_257_1835)" />
  <path style="mix-blend-mode:overlay" opacity="0.9"
    d="M24.6806 6.41834C24.3055 6.3471 23.9207 6.34259 23.544 6.40501C25.4579 7.445 26.8506 10.3443 26.1186 16.0669C25.8762 17.928 25.3294 19.7366 24.4999 21.4202C23.7851 22.9565 22.8549 24.3831 21.7373 25.6568C22.2671 26.0553 22.8216 26.4201 23.3973 26.7488C24.7909 25.3115 25.933 23.6501 26.7759 21.8342C27.6073 20.1514 28.1543 18.3425 28.3946 16.4809C29.2679 9.66964 27.1252 6.85634 24.6813 6.42101L24.6806 6.41834Z"
    fill="url(#paint1_radial_257_1835)" />
  <g style="mix-blend-mode:overlay" opacity="0.8">
    <path
      d="M26.1173 16.0634C26.85 10.3435 25.4566 7.44153 23.5433 6.40088C23.468 6.41088 23.3967 6.42821 23.3207 6.44554C25.1933 7.52353 26.5413 10.4188 25.8193 16.0634C25.5769 17.9245 25.0301 19.7331 24.2007 21.4167C23.5117 22.8987 22.6213 24.2784 21.5547 25.5167C21.616 25.5647 21.6747 25.6093 21.736 25.6533C22.8527 24.3788 23.7826 22.9521 24.498 21.4161C25.3296 19.7333 25.8768 17.925 26.1173 16.0634Z"
      fill="white" />
  </g>
  <path style="mix-blend-mode:overlay" opacity="0.5"
    d="M18.8438 29.0384C18.6625 28.9018 18.4911 28.7578 18.3171 28.6138C15.4931 29.7918 11.5804 30.5304 7.69238 29.6271C8.32557 30.4381 9.03749 31.1844 9.81773 31.8551C13.6104 32.3724 17.2591 31.1671 19.7445 29.6924C19.439 29.479 19.1376 29.2599 18.8405 29.0351L18.8438 29.0384Z"
    fill="url(#paint2_radial_257_1835)" />
  <path style="mix-blend-mode:overlay" opacity="0.6"
    d="M18.3194 28.6138C18.2341 28.5418 18.1454 28.4704 18.0634 28.3984C15.2188 29.5344 11.2862 30.2158 7.4082 29.2471C7.5042 29.3738 7.6002 29.5038 7.69553 29.6271C11.5808 30.5304 15.4955 29.7918 18.3194 28.6138Z"
    fill="url(#paint3_linear_257_1835)" />
  <path style="mix-blend-mode:overlay" opacity="0.9"
    d="M5.89252 22.7337C5.91252 22.795 5.93719 22.8537 5.96119 22.9117C6.08785 23.213 6.25186 23.483 6.45052 23.7263C6.39586 21.5497 8.20987 18.8897 13.5286 16.6651C15.2614 15.9443 17.1012 15.5141 18.9739 15.3917C20.6624 15.2412 22.3637 15.3335 24.026 15.6657C24.112 14.9471 24.146 14.2764 24.1393 13.6838C22.1979 13.195 20.188 13.0366 18.1939 13.2151C16.321 13.3378 14.4811 13.768 12.7479 14.4884C6.41319 17.1377 5.04718 20.3997 5.89319 22.737V22.7337H5.89252Z"
    fill="url(#paint4_radial_257_1835)" />
  <g style="mix-blend-mode:overlay" opacity="0.8">
    <path
      d="M13.5285 16.6684C8.20979 18.8937 6.39511 21.553 6.45044 23.7297C6.49844 23.7877 6.54978 23.843 6.60111 23.8977C6.59711 21.7377 8.43179 19.1231 13.6792 16.9251C15.412 16.2044 17.2518 15.7742 19.1245 15.6518C20.7525 15.5078 22.3926 15.5885 23.9986 15.8918C24.0094 15.8166 24.0185 15.7413 24.0259 15.6658C22.3634 15.3354 20.6623 15.2434 18.9739 15.3924C17.1012 15.5152 15.2614 15.9454 13.5285 16.6658V16.6684Z"
      fill="white" />
  </g>
  <path style="mix-blend-mode:overlay" opacity="0.4"
    d="M28.4015 16.4772C28.3748 16.7032 28.3368 16.9219 28.2988 17.1446C30.7288 18.9999 33.3268 22.0219 34.4908 25.8378C34.8755 24.883 35.1655 23.8927 35.3568 22.8812C33.9088 19.3385 31.0408 16.7812 28.5215 15.3679C28.4908 15.7279 28.4528 16.0939 28.4048 16.4772H28.4015Z"
    fill="url(#paint5_radial_257_1835)" />
  <path style="mix-blend-mode:overlay" opacity="0.5"
    d="M28.2989 17.1445C28.2782 17.2539 28.2609 17.3672 28.2402 17.4765C30.6469 19.3725 33.2035 22.4365 34.3022 26.2798C34.3668 26.1331 34.4288 25.9851 34.4868 25.8384C33.3235 22.0218 30.7289 19.0032 28.2949 17.1445H28.2989Z"
    fill="url(#paint6_linear_257_1835)" />
  <path style="mix-blend-mode:overlay" opacity="0.9"
    d="M29.418 30.8458C29.6653 30.5544 29.862 30.2236 30 29.8671C28.1413 31.0031 24.9333 30.7604 20.3439 27.2651C18.852 26.1256 17.559 24.7469 16.5172 23.1852C15.5425 21.7986 14.7713 20.2797 14.2272 18.6746C13.5632 18.9586 12.9645 19.2666 12.4512 19.5679C12.9998 21.4934 13.8674 23.3132 15.0179 24.9518C16.0445 26.4851 17.3245 27.8718 18.8446 29.0318C24.3073 33.1937 27.8159 32.7451 29.414 30.8451H29.418V30.8458Z"
    fill="url(#paint7_radial_257_1835)" />
  <g style="mix-blend-mode:overlay" opacity="0.8">
    <path
      d="M20.3468 27.2659C24.9328 30.7599 28.1435 31.0032 30.0015 29.8666C30.0288 29.7952 30.0528 29.7232 30.0735 29.6546C28.2048 30.7399 25.0215 30.4552 20.4968 27.0093C19.0049 25.8697 17.7119 24.4911 16.6701 22.9293C15.7314 21.592 14.9816 20.1316 14.4421 18.5894C14.3701 18.62 14.3021 18.6474 14.2334 18.678C14.7773 20.2833 15.5482 21.8025 16.5227 23.1893C17.5494 24.7226 18.8294 26.1093 20.3494 27.2693L20.3461 27.2659H20.3468Z"
      fill="white" />
  </g>
  <path style="mix-blend-mode:overlay" opacity="0.3"
    d="M12.7451 14.4816C12.9538 14.3956 13.1625 14.317 13.3745 14.2383C13.7651 11.2057 15.0824 7.44437 17.8077 4.53174C16.7877 4.6784 15.7844 4.9184 14.8124 5.25706C12.4671 8.28303 11.6871 12.0443 11.7218 14.9336C12.0465 14.7803 12.3858 14.629 12.7418 14.4823L12.7451 14.4816Z"
    fill="url(#paint8_radial_257_1835)" />
  <path style="mix-blend-mode:overlay" opacity="0.4"
    d="M13.374 14.2385C13.4807 14.2012 13.5834 14.1599 13.6894 14.1225C14.1273 11.0892 15.5033 7.34527 18.2793 4.46997C18.122 4.4873 17.964 4.50797 17.8066 4.52864C15.082 7.44461 13.7647 11.2026 13.3747 14.2352V14.2385H13.374Z"
    fill="url(#paint9_linear_257_1835)" />
  <path style="mix-blend-mode:multiply" opacity="0.4"
    d="M18.6423 0.0480893C13.1523 0.421419 8.33358 2.97806 4.96889 6.80802L4.89355 6.89335C5.54689 7.54401 7.68957 8.824 8.55558 9.35799C10.2813 7.49891 12.4337 6.08805 14.827 5.24737C14.995 5.02804 15.1723 4.81271 15.3576 4.60404C17.6163 2.05407 20.7003 0.708749 24.2804 0.708749C24.6777 0.708749 25.489 0.774082 25.5057 0.774082C23.2781 0.133273 20.9554 -0.112658 18.643 0.0474227L18.6423 0.0480893Z"
    fill="url(#paint10_linear_257_1835)" />
  <path style="mix-blend-mode:multiply" opacity="0.4"
    d="M21.0592 35.5999C16.8052 35.8906 12.8278 34.44 9.82247 31.8593C9.54022 31.8224 9.25937 31.7755 8.98046 31.7186C5.6431 31.0373 2.93242 29.0387 1.14574 25.9414C0.949001 25.5991 0.769661 25.2471 0.608398 24.8867C2.91908 34.0973 11.5478 40.6212 21.3539 39.9532C21.3986 38.9439 21.1005 36.5999 21.0559 35.5999H21.0592Z"
    fill="url(#paint11_linear_257_1835)" />
  <path style="mix-blend-mode:multiply" opacity="0.4"
    d="M39.9501 18.644C39.3341 18.582 36.3355 18.8186 35.5968 18.9413C35.6888 20.2973 35.6035 21.6253 35.3602 22.9052C35.4628 23.1586 35.5622 23.4186 35.6508 23.6819C36.7295 26.9132 36.3528 30.2572 34.5662 33.3578C34.3684 33.6994 34.1537 34.0309 33.9229 34.3511C33.9229 34.3511 33.9329 34.3438 33.9362 34.3371C37.9995 30.3838 40.3641 24.7432 39.9501 18.6473V18.644Z"
    fill="url(#paint12_linear_257_1835)" />
  <path style="mix-blend-mode:multiply" opacity="0.5"
    d="M24.4855 5.20245C24.9235 5.24711 25.3922 5.35645 25.8135 5.49711C25.8335 5.50378 25.8549 5.51044 25.8715 5.51378C27.5885 6.21454 29.1679 7.21347 30.5369 8.46441C30.5369 8.46441 30.5436 8.46775 30.5469 8.47108C31.2042 7.72175 32.4669 6.8971 32.4669 6.8971C32.4669 6.8971 30.5336 4.91845 27.5729 4.30246C25.5022 3.87113 20.8302 3.45713 17.8828 8.47108L17.9101 8.44441C18.1295 8.11508 18.3588 7.79375 18.6222 7.49909C20.0495 5.88711 22.1715 4.96578 24.4855 5.20245Z"
    fill="url(#paint13_linear_257_1835)" />
  <path style="mix-blend-mode:multiply" opacity="0.5"
    d="M30.5709 31.2837C30.3018 31.6498 29.9943 31.9859 29.6536 32.2864C29.6402 32.2997 29.6229 32.3137 29.6089 32.3277C28.1435 33.4634 26.489 34.3311 24.7216 34.891C24.7183 34.891 24.7149 34.891 24.7109 34.8944C25.0329 35.839 25.1149 37.345 25.1149 37.345C25.1149 37.345 27.7949 36.661 29.8082 34.405C31.2149 32.827 33.9115 28.9871 31.0429 23.9285C31.0429 23.9285 31.0469 23.9451 31.0535 23.9658C31.2315 24.3191 31.3922 24.6811 31.5155 25.0545C32.1969 27.0944 31.9362 29.3944 30.5742 31.2804L30.5709 31.2837Z"
    fill="url(#paint14_linear_257_1835)" />
  <path style="mix-blend-mode:multiply" opacity="0.5"
    d="M4.94191 23.5178C4.75875 23.1013 4.62085 22.6664 4.53058 22.2205C4.52725 22.2005 4.52058 22.1791 4.51725 22.1585C4.26392 20.3138 4.34592 18.4452 4.73991 16.6452V16.6345C3.76059 16.4425 2.41594 15.7585 2.41594 15.7585C2.41594 15.7585 1.66928 18.4252 2.61794 21.2932C3.28193 23.3018 5.25657 27.5564 11.0712 27.6011C11.0712 27.6011 11.0545 27.5971 11.0338 27.5904C10.6405 27.5664 10.2472 27.5258 9.86053 27.4471C7.75188 27.0158 5.89323 25.6398 4.93791 23.5178H4.94191Z"
    fill="url(#paint15_linear_257_1835)" />
  <path style="mix-blend-mode:multiply" opacity="0.6"
    d="M23.6437 13.0141C23.8044 13.0341 23.9617 13.0407 24.1157 13.0374C24.1157 13.0374 24.0097 10.9601 23.7564 9.8921C23.4997 8.82745 23.1231 8.11879 22.7124 7.71879C22.4151 7.43146 21.4804 7.0748 20.7551 9.27211C20.6988 9.70729 20.7289 10.1493 20.8437 10.5728C20.9585 10.9964 21.1557 11.3931 21.424 11.7403C21.6923 12.0875 22.0265 12.3784 22.4074 12.5963C22.7883 12.8142 23.2084 12.9548 23.6437 13.0101V13.0134V13.0141Z"
    fill="url(#paint16_linear_257_1835)" />
  <path style="mix-blend-mode:multiply" opacity="0.5"
    d="M12.1269 20.3377C12.0645 20.1927 11.9924 20.0522 11.9109 19.917C11.9109 19.917 10.1616 21.0463 9.36762 21.799C8.57363 22.5523 8.14896 23.2336 8.00897 23.791C7.90963 24.1916 8.06696 25.1776 10.3329 24.7083C11.1501 24.3662 11.798 23.7137 12.1342 22.8941C12.4705 22.0746 12.4676 21.1551 12.1263 20.3377H12.1269Z"
    fill="url(#paint17_linear_257_1835)" />
  <path style="mix-blend-mode:multiply" opacity="0.6"
    d="M24.2254 26.6458C24.1294 26.7725 24.0441 26.9098 23.9688 27.0458C23.9688 27.0458 25.8207 27.9945 26.8714 28.3058C27.922 28.6178 28.7227 28.6451 29.274 28.4871C29.6714 28.3745 30.4447 27.7411 28.9074 26.0165C28.5584 25.7505 28.1605 25.556 27.7363 25.4439C27.3121 25.3318 26.87 25.3043 26.4352 25.3632C26.0004 25.422 25.5814 25.5659 25.2023 25.7866C24.8231 26.0074 24.4912 26.3007 24.2254 26.6498V26.6458Z"
    fill="url(#paint18_linear_257_1835)" />
  <path style="mix-blend-mode:multiply" opacity="0.3"
    d="M23.507 18.0312C23.087 19.4279 22.4976 20.6979 21.7756 21.8165C21.7376 21.8745 21.7003 21.9332 21.659 21.9945C21.659 21.9945 21.659 21.9979 21.6557 22.0012C21.15 22.7279 20.577 23.4053 19.9443 24.0245C20.403 24.5105 20.8957 24.9825 21.4403 25.4312C22.0588 25.9177 22.7131 26.3569 23.3976 26.7452C24.7913 25.3078 25.9334 23.6465 26.7763 21.8305C27.0778 21.2156 27.3427 20.5834 27.5696 19.9372C26.8649 19.4206 26.1529 19.0066 25.4963 18.7259C24.8489 18.4485 24.1831 18.2164 23.5036 18.0312H23.5076H23.507Z"
    fill="url(#paint19_linear_257_1835)" />
  <path style="mix-blend-mode:multiply" opacity="0.3"
    d="M9.82255 31.8592C13.6146 32.3758 17.2633 31.1712 19.7486 29.6959C19.4432 29.4825 19.1418 29.2633 18.8446 29.0385C17.8994 28.3155 17.0324 27.4955 16.2579 26.5919C14.3886 27.4092 12.0339 27.8886 9.85321 27.4432C7.7452 27.0126 5.88652 25.6366 4.93118 23.5146C4.74825 23.0981 4.61057 22.6632 4.52051 22.2173C5.07185 26.0846 7.02253 29.4592 9.81921 31.8585L9.82255 31.8592Z"
    fill="url(#paint20_linear_257_1835)" />
  <path style="mix-blend-mode:multiply" opacity="0.3"
    d="M19.9434 24.0241C18.9855 23.012 18.1745 21.8704 17.5341 20.6328C17.5035 20.5674 17.4688 20.5094 17.4381 20.4441V20.4374C17.0628 19.6352 16.7626 18.7998 16.5415 17.9421C15.8908 18.0961 15.2375 18.2881 14.5802 18.5348C13.8504 18.8264 13.1434 19.1718 12.4648 19.5681C13.0742 21.6801 13.9742 23.4634 15.0248 24.9554C15.4048 25.5201 15.8161 26.0641 16.2648 26.588C17.0648 26.2387 17.7808 25.8247 18.3514 25.3967C18.9136 24.9745 19.4466 24.5148 19.9468 24.0207L19.9434 24.0241Z"
    fill="url(#paint21_linear_257_1835)" />
  <path style="mix-blend-mode:multiply" opacity="0.3"
    d="M14.8135 5.26071C12.4688 8.28668 11.6881 12.048 11.7228 14.9366C12.0607 14.778 12.4019 14.6264 12.7461 14.482C13.8433 14.0237 14.9859 13.6829 16.1548 13.4653C16.3815 11.4387 17.1442 9.15934 18.6195 7.49602C20.0462 5.88404 22.1689 4.96272 24.4829 5.19938C24.9209 5.24405 25.3895 5.35338 25.8109 5.49404C25.8309 5.50071 25.8515 5.50738 25.8689 5.51071C23.6726 4.61451 21.2999 4.2341 18.9335 4.39872C17.4962 4.49806 16.1201 4.78872 14.8195 5.24738C14.8161 5.25071 14.8128 5.25738 14.8095 5.26071H14.8135Z"
    fill="url(#paint22_linear_257_1835)" />
  <path style="mix-blend-mode:multiply" opacity="0.3"
    d="M35.3565 22.8779C33.9058 19.3353 31.0372 16.7746 28.5179 15.3613C28.4872 15.7213 28.4499 16.0907 28.3979 16.4773C28.2452 17.6564 27.9688 18.8161 27.5732 19.9373C29.2166 21.1493 30.8112 22.9459 31.5165 25.0579C32.1972 27.0979 31.9372 29.3978 30.5752 31.2838C30.3061 31.6499 29.9986 31.986 29.6579 32.2865L29.6446 32.2998C32.5812 29.9932 34.6578 26.6665 35.3705 22.9019C35.3705 22.8953 35.3638 22.8879 35.3638 22.8812L35.3565 22.8779Z"
    fill="url(#paint23_linear_257_1835)" />
  <path style="mix-blend-mode:multiply" opacity="0.3"
    d="M16.1439 15.8747C16.2277 16.5719 16.3591 17.2627 16.5373 17.942C17.9579 17.6066 19.3506 17.4833 20.6826 17.5486L20.8946 17.5586H20.9012C21.7366 17.6273 22.6059 17.7813 23.5065 18.028C23.6979 17.388 23.8592 16.7233 23.9752 16.032C24.1019 15.17 24.1392 14.372 24.1359 13.6774C22.0039 13.1507 20.0119 13.044 18.1946 13.2087C17.5112 13.2535 16.8311 13.3392 16.1579 13.4654C16.0619 14.3347 16.058 15.1593 16.1473 15.872L16.1439 15.8747Z"
    fill="url(#paint24_linear_257_1835)" />
  <defs>
    <linearGradient id="paint0_linear_257_1835" x1="6.35156" y1="33.6489" x2="31.8506" y2="8.14607"
      gradientUnits="userSpaceOnUse">
      <stop stop-color="#E6007A" />
      <stop offset="0.21" stop-color="#703AC2" />
      <stop offset="0.46" stop-color="#0070EB" />
      <stop offset="0.77" stop-color="#0297FB" />
      <stop offset="1" stop-color="#0AE2FF" />
    </linearGradient>
    <radialGradient id="paint1_radial_257_1835" cx="0" cy="0" r="1" gradientUnits="userSpaceOnUse"
      gradientTransform="translate(25.7006 15.9502) scale(7.60525)">
      <stop stop-color="white" />
      <stop offset="1" stop-color="white" stop-opacity="0" />
    </radialGradient>
    <radialGradient id="paint2_radial_257_1835" cx="0" cy="0" r="1" gradientUnits="userSpaceOnUse"
      gradientTransform="translate(14.4598 30.0584) scale(4.42562 4.42555)">
      <stop stop-color="white" />
      <stop offset="1" stop-color="white" stop-opacity="0" />
    </radialGradient>
    <linearGradient id="paint3_linear_257_1835" x1="7.81887" y1="29.3091" x2="12.0842" y2="29.2504"
      gradientUnits="userSpaceOnUse">
      <stop stop-color="white" stop-opacity="0" />
      <stop offset="1" stop-color="white" />
    </linearGradient>
    <radialGradient id="paint4_radial_257_1835" cx="0" cy="0" r="1" gradientUnits="userSpaceOnUse"
      gradientTransform="translate(13.6427 17.0851) rotate(-120) scale(7.60529 7.60535)">
      <stop stop-color="white" />
      <stop offset="1" stop-color="white" stop-opacity="0" />
    </radialGradient>
    <radialGradient id="paint5_radial_257_1835" cx="0" cy="0" r="1" gradientUnits="userSpaceOnUse"
      gradientTransform="translate(31.4826 19.7659) rotate(-120) scale(4.42554)">
      <stop stop-color="white" />
      <stop offset="1" stop-color="white" stop-opacity="0" />
    </radialGradient>
    <linearGradient id="paint6_linear_257_1835" x1="34.1522" y1="25.8884" x2="31.9689" y2="22.2245"
      gradientUnits="userSpaceOnUse">
      <stop stop-color="white" stop-opacity="0" />
      <stop offset="1" stop-color="white" />
    </linearGradient>
    <radialGradient id="paint7_radial_257_1835" cx="0" cy="0" r="1" gradientUnits="userSpaceOnUse"
      gradientTransform="translate(20.2943 26.6079) rotate(120) scale(7.60529 7.60535)">
      <stop stop-color="white" />
      <stop offset="1" stop-color="white" stop-opacity="0" />
    </radialGradient>
    <radialGradient id="paint8_radial_257_1835" cx="0" cy="0" r="1" gradientUnits="userSpaceOnUse"
      gradientTransform="translate(14.0554 10.1737) rotate(120) scale(4.42554)">
      <stop stop-color="white" />
      <stop offset="1" stop-color="white" stop-opacity="0" />
    </radialGradient>
    <linearGradient id="paint9_linear_257_1835" x1="18.022" y1="4.79597" x2="15.9427" y2="8.52059"
      gradientUnits="userSpaceOnUse">
      <stop stop-color="white" stop-opacity="0" />
      <stop offset="1" stop-color="white" />
    </linearGradient>
    <linearGradient id="paint10_linear_257_1835" x1="18.951" y1="2.90273" x2="12.4336" y2="4.79877"
      gradientUnits="userSpaceOnUse">
      <stop stop-color="#231F20" />
      <stop offset="1" stop-color="white" />
    </linearGradient>
    <linearGradient id="paint11_linear_257_1835" x1="6.63911" y1="27.752" x2="12.0884" y2="33.4401"
      gradientUnits="userSpaceOnUse">
      <stop stop-color="#231F20" />
      <stop offset="1" stop-color="white" />
    </linearGradient>
    <linearGradient id="paint12_linear_257_1835" x1="35.8842" y1="26.8959" x2="37.7801" y2="21.1319"
      gradientUnits="userSpaceOnUse">
      <stop stop-color="#231F20" />
      <stop offset="1" stop-color="white" />
    </linearGradient>
    <linearGradient id="paint13_linear_257_1835" x1="21.9182" y1="6.20177" x2="30.6536" y2="8.20115"
      gradientUnits="userSpaceOnUse">
      <stop stop-color="#231F20" />
      <stop offset="1" stop-color="white" />
    </linearGradient>
    <linearGradient id="paint14_linear_257_1835" x1="30.9909" y1="28.5604" x2="24.8876" y2="35.127"
      gradientUnits="userSpaceOnUse">
      <stop stop-color="#231F20" />
      <stop offset="1" stop-color="white" />
    </linearGradient>
    <linearGradient id="paint15_linear_257_1835" x1="7.08855" y1="25.2411" x2="4.45525" y2="16.6752"
      gradientUnits="userSpaceOnUse">
      <stop stop-color="#231F20" />
      <stop offset="1" stop-color="white" />
    </linearGradient>
    <linearGradient id="paint16_linear_257_1835" x1="23.8284" y1="9.42278" x2="21.0664" y2="12.1887"
      gradientUnits="userSpaceOnUse">
      <stop stop-color="#231F20" />
      <stop offset="1" stop-color="white" />
    </linearGradient>
    <linearGradient id="paint17_linear_257_1835" x1="8.92629" y1="21.9676" x2="12.7009" y2="22.9816"
      gradientUnits="userSpaceOnUse">
      <stop stop-color="#231F20" />
      <stop offset="1" stop-color="white" />
    </linearGradient>
    <linearGradient id="paint18_linear_257_1835" x1="27.2407" y1="28.6025" x2="26.2294" y2="24.8292"
      gradientUnits="userSpaceOnUse">
      <stop stop-color="#231F20" />
      <stop offset="1" stop-color="white" />
    </linearGradient>
    <linearGradient id="paint19_linear_257_1835" x1="21.495" y1="25.2458" x2="23.155" y2="22.9565"
      gradientUnits="userSpaceOnUse">
      <stop stop-color="#231F20" />
      <stop offset="1" stop-color="white" />
    </linearGradient>
    <linearGradient id="paint20_linear_257_1835" x1="15.7853" y1="24.2539" x2="12.4686" y2="25.8353"
      gradientUnits="userSpaceOnUse">
      <stop stop-color="#231F20" />
      <stop offset="1" stop-color="white" />
    </linearGradient>
    <linearGradient id="paint21_linear_257_1835" x1="14.5802" y1="18.7328" x2="15.6068" y2="20.8654"
      gradientUnits="userSpaceOnUse">
      <stop stop-color="#231F20" />
      <stop offset="1" stop-color="white" />
    </linearGradient>
    <linearGradient id="paint22_linear_257_1835" x1="19.3555" y1="12.1473" x2="18.6469" y2="9.69999"
      gradientUnits="userSpaceOnUse">
      <stop stop-color="#231F20" />
      <stop offset="1" stop-color="white" />
    </linearGradient>
    <linearGradient id="paint23_linear_257_1835" x1="27.0159" y1="23.3566" x2="29.0692" y2="23.8292"
      gradientUnits="userSpaceOnUse">
      <stop stop-color="#231F20" />
      <stop offset="1" stop-color="white" />
    </linearGradient>
    <linearGradient id="paint24_linear_257_1835" x1="23.7939" y1="16.4193" x2="21.1892" y2="15.9467"
      gradientUnits="userSpaceOnUse">
      <stop stop-color="#231F20" />
      <stop offset="1" stop-color="white" />
    </linearGradient>
  </defs>
</svg>
