<svg viewBox="0 0 24 24" fill="none" xmlns="http://www.w3.org/2000/svg">
  <rect width="24" height="24" rx="4" fill="#323653" />
  <g clip-path="url(#clip0_5598_161459)">
    <path
      d="M12 23.9967C18.6256 23.9967 23.9967 18.6256 23.9967 11.9999C23.9967 5.37431 18.6256 0.00317383 12 0.00317383C5.37434 0.00317383 0.00320435 5.37431 0.00320435 11.9999C0.00320435 18.6256 5.37434 23.9967 12 23.9967Z"
      fill="#323653"
    />
    <path
      opacity="0.1"
      d="M18.4708 7.7394L17.7172 8.21129L17.1117 7.60571L16.7941 7.86061L16.4501 7.51665L15.9015 7.96247L16.9097 8.97057L12.7167 6.91125L15.31 9.50466L7.69759 8.92843L2.71576 8.18386L7.75009 13.2182L7.46082 14.0011L9.6437 16.184L6.80635 15.0083L9.19754 17.3996L6.30873 18.2656L8.22671 20.1836L8.05782 20.4437L11.6068 23.9927C16.7615 24.1636 21.6352 20.9719 23.3679 15.8332C23.6554 14.9818 23.8467 14.1008 23.9381 13.2068L18.4708 7.7394Z"
      fill="black"
    />
    <path
      d="M8.6437 3.7709C8.52675 3.81459 8.39367 3.76185 8.34661 3.65319C8.29954 3.54459 8.35622 3.42112 8.47326 3.37743C8.59026 3.33374 8.72334 3.38638 8.77026 3.49494C8.81742 3.60365 8.76075 3.72716 8.6437 3.7709Z"
      fill="#E3DFF0"
    />
    <path
      d="M9.05562 3.38867L8.54028 3.53225L8.0614 3.75987L8.5767 3.6162L9.05562 3.38867Z"
      fill="#E3DFF0"
    />
    <path
      d="M8.35852 3.11267L8.51321 3.59112L8.75836 4.03569L8.60363 3.55733L8.35852 3.11267ZM12.3238 22.3087C12.2069 22.3524 12.0738 22.2997 12.0268 22.191C11.9797 22.0824 12.0364 21.9589 12.1534 21.9152C12.2704 21.8715 12.4036 21.9242 12.4505 22.0327C12.4975 22.1414 12.4408 22.265 12.3238 22.3087Z"
      fill="#E3DFF0"
    />
    <path
      d="M12.7358 21.9263L12.2205 22.0698L11.7415 22.2975L12.2568 22.1538L12.7358 21.9263Z"
      fill="#E3DFF0"
    />
    <path
      d="M12.0387 21.6503L12.1934 22.1287L12.4385 22.5733L12.2838 22.0949L12.0387 21.6503Z"
      fill="#E3DFF0"
    />
    <path
      d="M6.30871 11.4781C6.19176 11.5219 6.05872 11.4691 6.01162 11.3605C5.96455 11.2518 6.02123 11.1283 6.13827 11.0847C6.25527 11.041 6.38835 11.0937 6.43532 11.2022C6.48243 11.3108 6.42571 11.4344 6.30871 11.4781Z"
      fill="#E3DFF0"
    />
    <path
      d="M6.72063 11.0957L6.20533 11.2393L5.72641 11.4669L6.24171 11.3232L6.72063 11.0957Z"
      fill="#E3DFF0"
    />
    <path
      d="M6.02356 10.8197L6.17825 11.2981L6.42345 11.7427L6.26867 11.2644L6.02356 10.8197Z"
      fill="#E3DFF0"
    />
    <path
      d="M21.7031 11.9185C21.5276 11.9841 21.328 11.9049 21.2573 11.7419C21.1866 11.5789 21.2717 11.3936 21.4474 11.3281C21.6229 11.2626 21.8227 11.3416 21.8931 11.5044C21.9638 11.6675 21.8787 11.8529 21.7031 11.9185Z"
      fill="#E3DFF0"
    />
    <path
      d="M22.3213 11.3447L21.5479 11.5602L20.8293 11.9017L21.6025 11.6862L22.3213 11.3447Z"
      fill="#E3DFF0"
    />
    <path
      d="M21.2752 10.9308L21.5073 11.6486L21.8752 12.3157L21.643 11.598L21.2752 10.9308Z"
      fill="#E3DFF0"
    />
    <path
      d="M12.1782 1.78881C11.8907 1.89624 11.5635 1.76664 11.4478 1.49954C11.3321 1.23254 11.4715 0.928885 11.7592 0.821588C12.0469 0.714198 12.3741 0.84362 12.4895 1.11048C12.6052 1.37767 12.4659 1.68132 12.1782 1.78881Z"
      fill="#E3DFF0"
    />
    <path
      d="M13.1909 0.848877L11.924 1.20189L10.7466 1.76149L12.0135 1.40838L13.1909 0.848877Z"
      fill="#E3DFF0"
    />
    <path
      d="M11.4772 0.170532L11.8575 1.34672L12.4602 2.43975L12.0798 1.26366L11.4772 0.170532Z"
      fill="#E3DFF0"
    />
    <path
      d="M1.49464 16.0521C1.3851 16.093 1.26046 16.0436 1.21639 15.942C1.17233 15.8402 1.22544 15.7245 1.33499 15.6836C1.44458 15.6427 1.56918 15.692 1.61324 15.7937C1.65744 15.8955 1.60429 16.0112 1.49464 16.0521Z"
      fill="#E3DFF0"
    />
    <path
      d="M1.88042 15.6941L1.39784 15.8286L0.949249 16.0418L1.43187 15.9073L1.88042 15.6941Z"
      fill="#E3DFF0"
    />
    <path
      d="M1.2276 15.4357L1.37249 15.8837L1.60208 16.3001L1.45719 15.8521L1.2276 15.4357Z"
      fill="#E3DFF0"
    />
    <path
      d="M16.9131 7.18603C16.7497 7.24702 16.5637 7.17347 16.498 7.02169C16.4322 6.86995 16.5115 6.69741 16.6749 6.63638C16.8384 6.57525 17.0243 6.64889 17.09 6.80058C17.1557 6.95241 17.0766 7.12495 16.9131 7.18603Z"
      fill="#E3DFF0"
    />
    <path
      d="M17.4885 6.65198L16.7685 6.85265L16.0995 7.1706L16.8193 6.96993L17.4885 6.65198Z"
      fill="#E3DFF0"
    />
    <path
      d="M16.5147 6.26648L16.7308 6.93492L17.0733 7.55606L16.8571 6.88776L16.5147 6.26648Z"
      fill="#E3DFF0"
    />
    <path
      d="M13.0153 17.0682C12.7226 17.4633 12.1649 17.5463 11.7698 17.2536L7.66438 14.2122C7.26922 13.9195 7.18625 13.3618 7.47894 12.9667L11.6322 7.36043C11.925 6.96528 12.4826 6.88226 12.8777 7.17504L16.9831 10.2164C17.3782 10.5092 17.4612 11.0668 17.1685 11.4619L13.0153 17.0682Z"
      fill="#D0E6F0"
    />
    <path
      d="M11.6894 18.178C11.6601 18.2176 11.6233 18.251 11.581 18.2763C11.5388 18.3017 11.492 18.3185 11.4433 18.3257C11.3946 18.333 11.345 18.3305 11.2972 18.3186C11.2495 18.3067 11.2045 18.2854 11.165 18.2561L6.88153 15.0828C6.80164 15.0236 6.74853 14.9351 6.73389 14.8368C6.71924 14.7384 6.74426 14.6383 6.80344 14.5584L6.89644 14.4328C6.95563 14.3529 7.04413 14.2998 7.14247 14.2852C7.24081 14.2706 7.34094 14.2956 7.42083 14.3548L11.7043 17.5281C11.7841 17.5873 11.8373 17.6758 11.8519 17.7741C11.8665 17.8725 11.8415 17.9726 11.7824 18.0525L11.6894 18.178ZM17.7326 10.0207C17.7918 9.94075 17.8168 9.84061 17.8022 9.74227C17.7875 9.64393 17.7344 9.55544 17.6545 9.49626L13.3711 6.32292C13.2912 6.26373 13.1911 6.23871 13.0927 6.25336C12.9944 6.268 12.9059 6.32111 12.8467 6.40101L12.7538 6.52645C12.6946 6.60634 12.6695 6.70648 12.6842 6.80483C12.6988 6.90319 12.7519 6.99172 12.8318 7.05093L17.1152 10.2243C17.1951 10.2834 17.2953 10.3084 17.3936 10.2938C17.492 10.2791 17.5805 10.226 17.6397 10.1461L17.7326 10.0207Z"
      fill="#4FA690"
    />
    <path
      d="M18.1108 7.40223L17.3276 8.45931L16.7842 8.0567L17.1372 7.58008L16.9798 7.46359L16.6269 7.94003L16.3121 7.70697L16.4622 7.50437L16.3193 7.39844L16.1691 7.60103L16.0353 7.78178L15.9014 7.96244L17.0599 8.82072L17.4604 9.11734L17.7281 8.75594L18.5112 7.69886L18.1108 7.40223Z"
      fill="#D0E6F0"
    />
    <path
      opacity="0.2"
      d="M12.5236 13.8988C12.3841 14.0872 12.1183 14.1266 11.93 13.9872L10.7657 13.1246C10.7209 13.0915 10.6831 13.0498 10.6545 13.002C10.6258 12.9542 10.6068 12.9012 10.5986 12.8461C10.5904 12.791 10.5931 12.7348 10.6066 12.6807C10.6201 12.6267 10.6442 12.5758 10.6774 12.531L12.4456 10.1442C12.5126 10.0537 12.6128 9.99362 12.7241 9.97704C12.8355 9.96046 12.9488 9.98878 13.0393 10.0558L14.2036 10.9183C14.294 10.9853 14.3541 11.0855 14.3707 11.1968C14.3873 11.3081 14.3589 11.4215 14.2919 11.5119L12.5236 13.8988Z"
      fill="#52919D"
    />
    <path
      opacity="0.2"
      d="M12.5191 13.6799C12.4898 13.7195 12.453 13.7529 12.4108 13.7782C12.3686 13.8036 12.3218 13.8203 12.2731 13.8276C12.2244 13.8348 12.1747 13.8324 12.127 13.8205C12.0792 13.8085 12.0343 13.7873 11.9947 13.758L10.9661 12.996C10.8863 12.9368 10.8331 12.8483 10.8185 12.75C10.8038 12.6516 10.8288 12.5515 10.888 12.4716L12.4502 10.3629C12.5094 10.283 12.5979 10.2299 12.6963 10.2153C12.7946 10.2006 12.8947 10.2257 12.9746 10.2848L14.0032 11.0469C14.0831 11.1061 14.1362 11.1946 14.1509 11.2929C14.1655 11.3913 14.1405 11.4914 14.0813 11.5713L12.5191 13.6799Z"
      fill="#77CFE0"
    />
    <path
      opacity="0.1"
      d="M16.9832 10.2162L14.9803 8.73246L9.76693 15.7696L11.7699 17.2534C12.1649 17.5461 12.7226 17.463 13.0153 17.068L17.1686 11.4617C17.4614 11.0666 17.3783 10.509 16.9832 10.2162ZM17.6545 9.49619L15.5626 7.94641L15.0233 8.67438L17.1152 10.2242C17.1951 10.2834 17.2953 10.3084 17.3936 10.2937C17.4919 10.2791 17.5804 10.226 17.6396 10.1461L17.7326 10.0206C17.7619 9.98102 17.7831 9.93608 17.7951 9.88832C17.807 9.84055 17.8094 9.79091 17.8022 9.74221C17.7949 9.69352 17.7781 9.64673 17.7528 9.60451C17.7275 9.5623 17.6941 9.52549 17.6545 9.49619ZM11.7042 17.528L9.61229 15.9782L9.073 16.7061L11.165 18.256C11.2045 18.2853 11.2495 18.3065 11.2972 18.3184C11.345 18.3304 11.3947 18.3328 11.4434 18.3255C11.4921 18.3183 11.5388 18.3015 11.5811 18.2762C11.6233 18.2508 11.6601 18.2174 11.6894 18.1779L11.7823 18.0524C11.8116 18.0128 11.8329 17.9679 11.8448 17.9201C11.8567 17.8724 11.8591 17.8227 11.8519 17.774C11.8446 17.7253 11.8279 17.6785 11.8025 17.6363C11.7772 17.5941 11.7438 17.5573 11.7042 17.528Z"
      fill="black"
    />
    <path
      d="M10.3163 18.7605C10.0915 17.9307 9.38484 17.278 8.47884 17.1661C7.57293 17.0542 6.72872 17.5154 6.30872 18.2656L10.3163 18.7605Z"
      fill="#D0E6F0"
    />
    <path
      d="M7.76972 16.0655L8.03597 17.5219C8.04454 17.5688 8.06566 17.6126 8.09709 17.6486C8.12853 17.6846 8.1691 17.7114 8.21452 17.7261C8.25647 17.74 8.30121 17.743 8.34464 17.735L9.801 17.4688C9.83528 17.4625 9.86798 17.4495 9.89724 17.4306C9.9265 17.4117 9.95175 17.3872 9.97155 17.3585C9.99134 17.3299 10.0053 17.2976 10.0126 17.2635C10.0199 17.2294 10.0205 17.1943 10.0142 17.16C10.0079 17.1257 9.99497 17.093 9.97607 17.0638C9.95717 17.0345 9.93269 17.0093 9.90403 16.9895C9.87537 16.9697 9.84309 16.9557 9.80904 16.9484C9.77499 16.9411 9.73983 16.9406 9.70557 16.9468L8.51016 17.1653L8.29158 15.9699C8.27891 15.9007 8.23926 15.8394 8.18137 15.7994C8.12347 15.7594 8.05207 15.7441 7.98286 15.7568C7.91366 15.7695 7.85233 15.8091 7.81235 15.867C7.77238 15.9249 7.75705 15.9963 7.76972 16.0655Z"
      fill="#666666"
    />
    <path
      d="M8.33983 17.5251C8.39945 17.5251 8.44778 17.4768 8.44778 17.4172C8.44778 17.3575 8.39945 17.3092 8.33983 17.3092C8.2802 17.3092 8.23187 17.3575 8.23187 17.4172C8.23187 17.4768 8.2802 17.5251 8.33983 17.5251Z"
      fill="#4D4D4D"
    />
    <path
      d="M8.32301 17.3252C8.33708 17.3223 8.35159 17.3223 8.36567 17.3251C8.37975 17.3279 8.39314 17.3335 8.40504 17.3415C8.41693 17.3496 8.42711 17.3599 8.43496 17.3719C8.44281 17.3839 8.44819 17.3974 8.45077 17.4115C8.45335 17.4257 8.45309 17.4402 8.45 17.4542C8.44691 17.4682 8.44105 17.4815 8.43276 17.4932C8.42448 17.5049 8.41394 17.5149 8.40176 17.5225C8.38958 17.5301 8.376 17.5352 8.36182 17.5375C8.33394 17.542 8.30539 17.5354 8.28231 17.5191C8.25923 17.5028 8.24346 17.4782 8.23838 17.4504C8.2333 17.4226 8.23932 17.3939 8.25514 17.3705C8.27096 17.3471 8.29533 17.3308 8.32301 17.3252ZM8.01561 18.5662L8.13523 20.1197C8.11066 20.123 8.08703 20.1313 8.06587 20.1442C8.04472 20.1571 8.02649 20.1743 8.01237 20.1947C7.99225 20.2238 7.98122 20.2582 7.98067 20.2936C7.98013 20.329 7.99009 20.3638 8.00929 20.3935C8.0285 20.4232 8.05609 20.4466 8.08858 20.4606C8.12107 20.4747 8.15699 20.4788 8.1918 20.4724C8.22662 20.466 8.25876 20.4494 8.28416 20.4248C8.30956 20.4002 8.32708 20.3685 8.33451 20.3339C8.34194 20.2993 8.33894 20.2633 8.32588 20.2304C8.31283 20.1975 8.29032 20.1692 8.26118 20.1491C8.24881 20.1409 8.23548 20.1342 8.22148 20.1291L8.75496 18.6678L8.01561 18.5662Z"
      fill="#D0E6F0"
    />
    <path
      d="M15.6476 11.8724L21.6596 16.3266L18.8411 20.1308L12.8291 15.6766L15.6476 11.8724Z"
      fill="#52919D"
    />
    <path
      d="M15.6777 12.0804L21.4764 16.3765L18.8354 19.9411L13.0368 15.645L15.6777 12.0804Z"
      fill="#77CFE0"
    />
    <path
      opacity="0.7"
      d="M13.0883 15.5764L13.0984 15.6902L14.4859 16.7181L21.1374 16.1247L19.2013 14.6903L13.3585 15.2116L13.0883 15.5764ZM15.346 17.3553L21.1344 16.8388L21.3832 16.5031L14.9681 17.0753L15.346 17.3553Z"
      fill="#F2F2F2"
    />
    <path
      d="M14.4408 13.7496L20.2396 18.0458L20.1559 18.1587L14.3572 13.8626L14.4408 13.7496Z"
      fill="#52919D"
    />
    <path
      d="M18.6829 14.121L18.7654 14.182L15.9813 17.9427L15.8988 17.8817L18.6829 14.121Z"
      fill="#52919D"
    />
    <path
      d="M5.53386 4.37939L11.5459 8.8336L8.72746 12.6378L2.71536 8.18358L5.53386 4.37939Z"
      fill="#52919D"
    />
    <path
      d="M5.56382 4.58716L11.3625 8.88325L8.72155 12.4479L2.92288 8.15177L5.56382 4.58716Z"
      fill="#77CFE0"
    />
    <path
      opacity="0.7"
      d="M2.97415 8.0833L2.98437 8.19711L4.37178 9.22503L11.0233 8.63159L9.08717 7.19727L3.24439 7.71856L2.97415 8.0833ZM5.23189 9.86225L11.0203 9.34583L11.2691 9.01002L4.85407 9.58231L5.23189 9.86225Z"
      fill="#F2F2F2"
    />
    <path
      d="M4.32714 6.25647L10.1259 10.5527L10.0422 10.6656L4.24347 6.36944L4.32714 6.25647Z"
      fill="#52919D"
    />
    <path
      d="M8.57069 6.62866L8.65319 6.68979L5.86671 10.4486L5.78421 10.3875L8.57069 6.62866Z"
      fill="#52919D"
    />
  </g>
  <defs>
    <clipPath id="clip0_5598_161459">
      <rect width="24" height="24" fill="white" />
    </clipPath>
  </defs>
</svg>
