<svg viewBox="0 0 24 24" fill="none" xmlns="http://www.w3.org/2000/svg">
  <g clip-path="url(#clip0_9699_42537)">
    <rect width="24" height="24" rx="4" fill="#0052FF" />
    <path
      d="M12 24C18.6274 24 24 18.6274 24 12C24 5.37258 18.6274 0 12 0C5.37258 0 0 5.37258 0 12C0 18.6274 5.37258 24 12 24Z"
      fill="#0052FF"
    />
    <path
      d="M12.053 20.339C16.7041 20.339 20.4744 16.5751 20.4744 11.9322C20.4744 7.28923 16.7041 3.52539 12.053 3.52539C7.64037 3.52539 4.02041 6.91325 3.66089 11.2255H14.7921V12.6388H3.66089C4.02041 16.951 7.64037 20.339 12.053 20.339Z"
      fill="white"
    />
  </g>
  <defs>
    <clipPath id="clip0_9699_42537">
      <rect width="24" height="24" rx="4" fill="white" />
    </clipPath>
  </defs>
</svg>
