<svg width="24" height="24" viewBox="0 0 24 24" fill="none" xmlns="http://www.w3.org/2000/svg">
    <g>
        <path fill-rule="evenodd" clip-rule="evenodd" fill="#F0B90B"
            d="M12,0c6.627,0,12,5.373,12,12s-5.373,12-12,12S0,18.627,0,12 S5.373,0,12,0L12,0z" />
        <path fill="#FFFFFF"
            d="M6.6,12l0.009,3.173l2.696,1.586v1.857L5.029,16.116v-5.038L6.6,12L6.6,12z M6.6,8.827v1.849 l-1.571-0.929V7.897l1.571-0.929l1.578,0.929L6.6,8.827L6.6,8.827z M10.426,7.897l1.571-0.929l1.578,0.929L12,8.827L10.426,7.897 L10.426,7.897z" />
        <path fill="#FFFFFF"
            d="M7.731,14.519v-1.857l1.571,0.929v1.849L7.731,14.519L7.731,14.519z M10.426,17.425l1.571,0.929 l1.578-0.929v1.849l-1.578,0.929l-1.571-0.929V17.425L10.426,17.425z M15.829,7.897l1.571-0.929l1.578,0.929v1.849l-1.578,0.929 V8.827L15.829,7.897L15.829,7.897L15.829,7.897z M17.4,15.173l0.009-3.173l1.571-0.929v5.038l-4.274,2.507v-1.857L17.4,15.173 L17.4,15.173L17.4,15.173z" />
        <polygon fill="#FFFFFF"
            points="16.271,14.519 14.7,15.435 14.7,13.586 16.271,12.657 16.271,14.519" />
        <path fill="#FFFFFF"
            d="M16.271,9.481l0.009,1.857l-2.704,1.586v3.181L12,17.025l-1.571-0.92v-3.181L7.731,11.338V9.481 L9.308,8.556l2.688,1.594l2.704-1.594l1.578,0.929L16.271,9.481z M7.731,6.313l4.266-2.515l4.274,2.515l-1.571,0.929l-2.704-1.594 L9.3,7.241L7.731,6.313L7.731,6.313z" />
    </g>
</svg>