<svg viewBox="0 0 24 24" fill="none" xmlns="http://www.w3.org/2000/svg">
    <rect width="24" height="24" rx="4" fill="#F0B90B" />
    <path fill-rule="evenodd" clip-rule="evenodd"
        d="M12 0C18.6279 0 24 5.37212 24 12C24 18.6279 18.6279 24 12 24C5.37212 24 0 18.6279 0 12C0 5.37212 5.37212 0 12 0Z"
        fill="#F0B90B" />
    <path
        d="M16.279 11.3423L16.2703 9.48462H16.2771L14.6992 8.55577L11.9953 10.15L9.30784 8.55577L7.73092 9.48462V11.3423L10.4348 12.9289V16.1096L12.005 17.0298L13.5751 16.1096V12.9289L16.279 11.3423Z"
        fill="white" />
    <path
        d="M11.9963 3.79712L7.72995 6.3125L9.30015 7.24135L11.9963 5.64712L14.7001 7.24135L16.2703 6.3125L11.9963 3.79712Z"
        fill="white" />
    <path
        d="M6.60399 15.1731L6.59534 12L5.02611 11.0721V16.1106L9.30015 18.6173V16.7596L6.60399 15.1731Z"
        fill="white" />
    <path
        d="M6.59534 10.676V8.82693L8.17322 7.89808L6.59534 6.96924L5.02515 7.89808V9.74712L6.59534 10.676Z"
        fill="white" />
    <path d="M11.9963 6.96924L10.4261 7.89808L11.9963 8.82693L13.5742 7.89808L11.9963 6.96924Z"
        fill="white" />
    <path d="M9.30015 13.5865L7.72995 12.6577V14.5154L9.30015 15.4356V13.5865Z" fill="white" />
    <path
        d="M11.9963 18.3539L10.4261 17.425V19.274L11.9963 20.2029L13.5742 19.274V17.425L11.9963 18.3539Z"
        fill="white" />
    <path
        d="M17.3963 6.96924L15.8261 7.89808L17.3963 8.82693V10.676L18.9742 9.74712V7.89808L17.3963 6.96924Z"
        fill="white" />
    <path
        d="M18.9751 11.0712L17.405 12L17.3963 15.1731L14.7011 16.7587V18.6164L18.9751 16.1096V11.0712Z"
        fill="white" />
    <path d="M16.2703 14.5154L14.7001 15.4356V13.5865L16.2703 12.6577V14.5154Z" fill="white" />
</svg>