<svg
    viewBox="0 0 24 24"
    fill="none"
    xmlns="http://www.w3.org/2000/svg"
>
    <g clip-path="url(#clip0_4754_101045)">
        <rect width="24" height="24" rx="4" fill="#2E3148" />
        <g filter="url(#filter0_d_4754_101045)">
            <g clip-path="url(#clip1_4754_101045)">
                <path
                    d="M12 24C18.6274 24 24 18.6274 24 12C24 5.37258 18.6274 0 12 0C5.37258 0 0 5.37258 0 12C0 18.6274 5.37258 24 12 24Z"
                    fill="#2E3148"
                />
                <path
                    d="M12 18.9629C15.8455 18.9629 18.963 15.8455 18.963 12C18.963 8.15442 15.8455 5.03699 12 5.03699C8.15445 5.03699 5.03702 8.15442 5.03702 12C5.03702 15.8455 8.15445 18.9629 12 18.9629Z"
                    fill="#1B1E36"
                />
                <path
                    d="M12.0247 1.53088C10.7294 1.53088 9.67902 6.22912 9.67902 12.0247C9.67902 17.8204 10.7294 22.5186 12.0247 22.5186C13.32 22.5186 14.3703 17.8204 14.3703 12.0247C14.3703 6.22912 13.32 1.53088 12.0247 1.53088ZM12.1866 21.9264C12.0385 22.1239 11.8904 21.9757 11.8904 21.9757C11.2938 21.2845 10.9956 20.0004 10.9956 20.0004C9.95214 16.6424 10.2005 9.43255 10.2005 9.43255C10.6909 3.70864 11.5829 2.35648 11.8864 2.05629C11.9174 2.02565 11.9583 2.00693 12.0017 2.00342C12.0451 1.99991 12.0884 2.01183 12.1239 2.03709C12.5644 2.34919 12.9338 3.6544 12.9338 3.6544C14.0246 7.70378 13.9259 11.5062 13.9259 11.5062C14.0246 14.8149 13.3792 18.5186 13.3792 18.5186C12.8824 21.3333 12.1866 21.9264 12.1866 21.9264Z"
                    fill="#6F7390"
                />
                <path
                    d="M21.1269 6.80247C20.482 5.6785 15.8844 7.10564 10.8549 9.98967C5.82537 12.8737 2.2776 16.123 2.92205 17.2465C3.56649 18.37 8.16451 16.9433 13.194 14.0593C18.2236 11.1753 21.7714 7.92596 21.1269 6.80247V6.80247ZM3.51705 17.0923C3.27014 17.0612 3.32592 16.8583 3.32592 16.8583C3.6288 15.9971 4.59264 15.0993 4.59264 15.0993C6.98717 12.523 13.365 9.15063 13.365 9.15063C18.5734 6.7274 20.1912 6.82964 20.6016 6.94263C20.6437 6.95439 20.6803 6.98068 20.7049 7.01684C20.7295 7.053 20.7405 7.0967 20.736 7.1402C20.6867 7.6778 19.736 8.6474 19.736 8.6474C16.7684 11.6099 13.4208 13.4168 13.4208 13.4168C10.6 15.1496 7.06627 16.432 7.06627 16.432C4.37741 17.401 3.51715 17.0923 3.51715 17.0923H3.51705Z"
                    fill="#6F7390"
                />
                <path
                    d="M21.1042 17.284C21.7541 16.163 18.2152 12.8988 13.2034 9.99304C8.19148 7.08731 3.59452 5.64251 2.94518 6.76542C2.29583 7.88834 5.83411 11.1506 10.8489 14.0563C15.8636 16.9621 20.4548 18.407 21.1042 17.284ZM3.37583 7.19858C3.27983 6.97096 3.48249 6.91614 3.48249 6.91614C4.37971 6.7467 5.63999 7.13282 5.63999 7.13282C9.06863 7.91358 15.1824 11.7432 15.1824 11.7432C19.8896 15.0371 20.6115 16.4879 20.7197 16.8998C20.7307 16.942 20.7264 16.9868 20.7076 17.0262C20.6888 17.0656 20.6567 17.0971 20.617 17.1151C20.1261 17.3398 18.8115 17.005 18.8115 17.005C14.7596 15.9185 11.5191 13.928 11.5191 13.928C8.60755 12.3576 5.72851 9.9413 5.72851 9.9413C3.54086 8.09934 3.37651 7.20107 3.37651 7.20107L3.37583 7.19858Z"
                    fill="#6F7390"
                />
                <path
                    d="M12 13.2345C12.6818 13.2345 13.2346 12.6818 13.2346 11.9999C13.2346 11.3181 12.6818 10.7654 12 10.7654C11.3182 10.7654 10.7654 11.3181 10.7654 11.9999C10.7654 12.6818 11.3182 13.2345 12 13.2345Z"
                    fill="#B7B9C8"
                />
                <path
                    d="M17.0617 7.9999C17.4572 7.9999 17.7778 7.66827 17.7778 7.25917C17.7778 6.85007 17.4572 6.51843 17.0617 6.51843C16.6662 6.51843 16.3456 6.85007 16.3456 7.25917C16.3456 7.66827 16.6662 7.9999 17.0617 7.9999Z"
                    fill="#B7B9C8"
                />
                <path
                    d="M5.30862 10.5186C5.70409 10.5186 6.02469 10.1869 6.02469 9.77785C6.02469 9.36875 5.70409 9.03711 5.30862 9.03711C4.91315 9.03711 4.59256 9.36875 4.59256 9.77785C4.59256 10.1869 4.91315 10.5186 5.30862 10.5186Z"
                    fill="#B7B9C8"
                />
                <path
                    d="M10.5432 19.6049C10.9387 19.6049 11.2593 19.2732 11.2593 18.8641C11.2593 18.4551 10.9387 18.1234 10.5432 18.1234C10.1477 18.1234 9.82715 18.4551 9.82715 18.8641C9.82715 19.2732 10.1477 19.6049 10.5432 19.6049Z"
                    fill="#B7B9C8"
                />
            </g>
        </g>
    </g>
    <defs>
        <filter
            id="filter0_d_4754_101045"
            x="-4"
            y="0"
            width="32"
            height="32"
            filterUnits="userSpaceOnUse"
            color-interpolation-filters="sRGB"
        >
            <feFlood flood-opacity="0" result="BackgroundImageFix" />
            <feColorMatrix
                in="SourceAlpha"
                type="matrix"
                values="0 0 0 0 0 0 0 0 0 0 0 0 0 0 0 0 0 0 127 0"
                result="hardAlpha"
            />
            <feOffset dy="4" />
            <feGaussianBlur stdDeviation="2" />
            <feComposite in2="hardAlpha" operator="out" />
            <feColorMatrix
                type="matrix"
                values="0 0 0 0 0 0 0 0 0 0 0 0 0 0 0 0 0 0 0.25 0"
            />
            <feBlend
                mode="normal"
                in2="BackgroundImageFix"
                result="effect1_dropShadow_4754_101045"
            />
            <feBlend
                mode="normal"
                in="SourceGraphic"
                in2="effect1_dropShadow_4754_101045"
                result="shape"
            />
        </filter>
        <clipPath id="clip0_4754_101045">
            <rect width="24" height="24" rx="4" fill="white" />
        </clipPath>
        <clipPath id="clip1_4754_101045">
            <rect width="24" height="24" fill="white" />
        </clipPath>
    </defs>
</svg>