<svg width="24" height="24" viewBox="0 0 24 24" fill="none" xmlns="http://www.w3.org/2000/svg">
  <rect width="24" height="24" rx="4" fill="#D9780F" />
  <g clip-path="url(#clip0_4767_101784)">
    <path
      d="M19.8736 17.9674C20.1236 17.9674 20.2099 17.9091 20.3287 17.7063C20.4475 17.5034 20.3903 17.1739 20.3858 17.0842C20.3746 16.887 20.3085 16.6673 20.2995 16.5575C20.2995 16.4902 20.2995 16.0609 20.3096 15.885C20.4598 13.1009 21.6546 12.4385 21.9998 12.3634C22.22 12.2985 22.4561 12.3144 22.6656 12.4083V8.14921V8.08868V6.95892C22.6656 6.3436 22.2284 5.58706 21.6949 5.27771L12.9684 0.234109C12.4304 -0.0774737 11.5528 -0.0774737 11.0238 0.230747L2.3062 5.26763C1.77382 5.57585 1.33671 6.33239 1.33783 6.94883V8.04946C1.33738 8.05579 1.33738 8.06217 1.33783 8.06851V9.67574C1.38826 9.70376 1.4387 9.7329 1.48914 9.76428C1.65838 9.87636 1.82538 9.93801 1.99574 10.0557C2.48119 10.3515 2.93228 10.7004 3.3407 11.0958C3.42028 11.172 3.68591 11.506 3.74867 11.5845C3.94158 11.8503 4.15843 12.0979 4.39649 12.3242C4.52802 12.4441 4.67279 12.5487 4.828 12.6358C5.08467 12.7692 5.50833 12.7389 5.72464 12.6436C7.38567 11.9241 8.42802 12.285 8.90884 12.5741C10.098 13.2881 10.4948 14.2867 10.6214 15.4994C10.6381 15.6565 10.6433 15.8146 10.6371 15.9724C10.6371 16.2604 10.627 16.7233 10.9308 16.8007C11.3668 16.9128 11.4721 16.4465 11.5371 16.1372C11.6839 15.4367 12.6165 14.9771 13.299 15.3302C13.7698 15.5734 13.9625 15.7113 14.4277 15.5061C15.0094 15.2495 15.3097 14.5961 15.5126 14.2486C15.713 13.9103 16.0032 13.6341 16.351 13.4506C17.2588 12.8846 19.5408 13.0314 19.6237 15.5465C19.6237 15.6832 19.6237 16.0329 19.6237 16.2459C19.6237 16.4857 19.6315 16.72 19.6159 16.9677C19.6058 17.1324 19.5766 17.3039 19.5609 17.4732C19.5565 17.4732 19.4713 17.9652 19.8736 17.9674Z"
      fill="#E4A663" />
    <path
      d="M22.6633 12.4127C22.6017 12.3936 22.4223 12.276 21.9998 12.3679C21.6535 12.443 20.4598 13.1053 20.3096 15.8894C20.3007 16.0609 20.2951 16.4902 20.2995 16.5619C20.3085 16.674 20.3746 16.8914 20.3858 17.0887C20.3858 17.1783 20.4542 17.5034 20.3287 17.7107C20.2032 17.9181 20.1236 17.973 19.8736 17.9719C19.4713 17.9719 19.5565 17.4776 19.5565 17.4776C19.5721 17.3106 19.6013 17.1413 19.6114 16.9721C19.6271 16.7244 19.6192 16.4902 19.6192 16.2503C19.6192 16.0374 19.6192 15.6899 19.6192 15.5509C19.5363 13.0359 17.2543 12.889 16.3465 13.455C15.9987 13.6385 15.7085 13.9147 15.5081 14.253C15.3053 14.6005 15.0049 15.2539 14.4232 15.5106C13.958 15.7157 13.7653 15.5778 13.2945 15.3346C12.612 14.9816 11.6795 15.4411 11.5326 16.1416C11.4676 16.4509 11.3623 16.9161 10.9263 16.8051C10.6225 16.7278 10.6326 16.2649 10.6326 15.9768C10.6388 15.819 10.6336 15.6609 10.6169 15.5039C10.4903 14.2912 10.0935 13.2925 8.90436 12.5786C8.42353 12.2894 7.38119 11.9285 5.72016 12.6481C5.496 12.7433 5.07682 12.7736 4.82352 12.6402C4.66831 12.5531 4.52354 12.4486 4.39201 12.3286C4.15394 12.1023 3.93709 11.8547 3.74419 11.5889C3.68142 11.5104 3.41579 11.1764 3.33622 11.1002C2.9278 10.7048 2.47671 10.3559 1.99125 10.0601C1.82089 9.94805 1.65501 9.87632 1.48465 9.76872C1.43422 9.73734 1.38378 9.7082 1.33334 9.68018V17.0293C1.33334 17.6457 1.77046 18.4023 2.30396 18.7105L11.0305 23.7541C11.564 24.0634 12.4371 24.0634 12.9706 23.7541L21.6983 18.7172C22.2318 18.409 22.6678 17.6524 22.6667 17.036L22.6633 12.4127Z"
      fill="#5E464D" />
    <path
      d="M13.1085 11.1776C12.5055 11.5261 11.5181 11.5261 10.9151 11.1776L1.99124 6.47021C2.09211 6.56997 11.0406 11.7682 11.0406 11.7682C11.5741 12.0776 12.4472 12.0776 12.9807 11.7682C12.9807 11.7682 21.9168 6.58566 22.0177 6.48591L13.1085 11.1776Z"
      fill="white" />
    <path
      d="M10.9005 0.905483C11.5046 0.560276 12.4909 0.560276 13.095 0.906604L14.1766 1.35492C14.0757 1.25517 12.9684 0.53786 12.9684 0.53786C12.4349 0.22964 11.5629 0.228519 11.0294 0.53786C11.0294 0.53786 9.26076 1.57684 9.16101 1.67547L10.9005 0.905483Z"
      fill="white" />
  </g>
  <defs>
    <clipPath id="clip0_4767_101784">
      <rect width="21.3333" height="24" fill="white" transform="translate(1.33334)" />
    </clipPath>
  </defs>
</svg>