<svg
  xmlns="http://www.w3.org/2000/svg"
  viewBox="0 0 512 512"
  xml:space="preserve"
>
  <circle fill="#323653" cx="256" cy="256" r="255.931" />
  <path
    opacity=".1"
    d="m394.043 165.105-16.076 10.067-12.918-12.919-6.775 5.438-7.338-7.338-11.704 9.511 21.507 21.506-89.449-43.932 55.324 55.326-162.399-12.293-106.279-15.884 107.399 107.399-6.171 16.703 46.568 46.568-60.53-25.081 51.012 51.013-61.628 18.476 40.917 40.917-3.603 5.549 75.711 75.711c109.967 3.646 213.94-64.444 250.904-174.069a256.704 256.704 0 0 0 12.164-56.03L394.043 165.105z"
  />
  <g fill="#E3DFF0">
    <path
      d="M184.399 80.445c-2.495.932-5.334-.193-6.338-2.511-1.004-2.317.205-4.951 2.702-5.883 2.496-.932 5.335.191 6.336 2.507 1.006 2.319-.203 4.954-2.7 5.887z"
    />
    <path d="m193.187 72.289-10.994 3.063-10.216 4.856 10.993-3.065z" />
    <path
      d="m178.316 66.401 3.3 10.207 5.23 9.484-3.301-10.205zM262.909 475.916c-2.494.933-5.333-.192-6.337-2.51-1.004-2.318.205-4.952 2.702-5.884 2.496-.932 5.336.191 6.337 2.507 1.004 2.319-.206 4.954-2.702 5.887z"
    />
    <path d="m271.697 467.759-10.993 3.063-10.217 4.857 10.993-3.066z" />
    <path d="m256.826 461.872 3.3 10.206 5.23 9.485-3.301-10.206z" />
    <g>
      <path
        d="M134.587 244.866c-2.495.933-5.333-.192-6.338-2.51-1.004-2.318.205-4.952 2.702-5.883 2.496-.932 5.335.191 6.337 2.507 1.005 2.317-.205 4.954-2.701 5.886z"
      />
      <path d="m143.375 236.709-10.993 3.063-10.217 4.856 10.993-3.065z" />
      <path d="m128.504 230.822 3.3 10.206 5.231 9.485-3.302-10.205z" />
    </g>
    <g>
      <path
        d="M462.999 254.26c-3.743 1.399-8.002-.289-9.51-3.767-1.507-3.478.308-7.431 4.055-8.828 3.746-1.398 8.007.287 9.509 3.762 1.508 3.478-.308 7.434-4.054 8.833z"
      />
      <path d="m476.187 242.02-16.498 4.597-15.33 7.286 16.495-4.599z" />
      <path d="m453.872 233.187 4.951 15.313 7.849 14.232-4.954-15.312z" />
    </g>
    <g>
      <path
        d="M259.802 38.158c-6.133 2.292-13.114-.473-15.582-6.171-2.468-5.696.505-12.174 6.643-14.463 6.137-2.291 13.118.47 15.58 6.163 2.469 5.7-.503 12.178-6.641 14.471z"
      />
      <path d="m281.405 18.105-27.027 7.531-25.117 11.938 27.026-7.533z" />
      <path d="m244.847 3.632 8.113 25.092 12.858 23.318-8.115-25.09z" />
    </g>
    <g>
      <path
        d="M31.887 342.438c-2.337.874-4.996-.18-5.936-2.349-.94-2.171.193-4.638 2.53-5.512 2.338-.873 4.996.18 5.936 2.35.943 2.172-.191 4.639-2.53 5.511z"
      />
      <path d="m40.117 334.8-10.295 2.869-9.57 4.548 10.296-2.869z" />
      <path d="m26.19 329.287 3.091 9.559 4.898 8.883-3.091-9.558z" />
    </g>
    <g>
      <path
        d="M360.813 153.302c-3.486 1.301-7.453-.268-8.855-3.506-1.403-3.237.288-6.918 3.774-8.22 3.489-1.304 7.454.267 8.856 3.503 1.402 3.239-.287 6.92-3.775 8.223z"
      />
      <path d="m373.089 141.906-15.36 4.281-14.273 6.783 15.357-4.281z" />
      <path d="m352.314 133.681 4.61 14.26 7.307 13.251-4.612-14.257z" />
    </g>
  </g>
  <path
    fill="#D0E6F0"
    d="M277.659 364.119c-6.243 8.428-18.141 10.2-26.569 3.956l-87.583-64.885c-8.43-6.244-10.2-18.141-3.956-26.569l88.603-119.601c6.246-8.43 18.141-10.201 26.571-3.955l87.581 64.883c8.43 6.246 10.201 18.141 3.956 26.57l-88.603 119.601z"
  />
  <path
    fill="#4FA690"
    d="M249.373 387.798a7.996 7.996 0 0 1-11.187 1.666l-91.38-67.698a7.998 7.998 0 0 1-1.666-11.187l1.984-2.679a7.998 7.998 0 0 1 11.187-1.665l91.38 67.697a8 8 0 0 1 1.666 11.188l-1.984 2.678zM378.296 213.774a7.998 7.998 0 0 0-1.667-11.187l-91.378-67.698a8 8 0 0 0-11.189 1.666l-1.981 2.676a7.999 7.999 0 0 0 1.663 11.189l91.381 67.698a8 8 0 0 0 11.188-1.667l1.983-2.677z"
  />
  <path
    fill="#D0E6F0"
    d="m386.364 157.913-16.707 22.551-11.594-8.589 7.531-10.168-3.358-2.485-7.529 10.164-6.714-4.972 3.202-4.322-3.05-2.26-3.203 4.322-2.855 3.856-2.856 3.854 24.714 18.31 8.544 6.328 5.71-7.71 16.707-22.551z"
  />
  <path
    opacity=".2"
    fill="#52919D"
    d="M267.171 296.507c-2.976 4.019-8.646 4.861-12.663 1.886l-24.839-18.401a9.053 9.053 0 0 1-1.885-12.664l37.723-50.919a9.054 9.054 0 0 1 12.664-1.886l24.839 18.401a9.053 9.053 0 0 1 1.885 12.663l-37.724 50.92z"
  />
  <path
    opacity=".2"
    fill="#77CFE0"
    d="M267.074 291.838a7.996 7.996 0 0 1-11.187 1.666l-21.943-16.256a8 8 0 0 1-1.667-11.188l33.327-44.985a7.999 7.999 0 0 1 11.188-1.665l21.943 16.257a7.998 7.998 0 0 1 1.666 11.187l-33.327 44.984z"
  />
  <path
    opacity=".1"
    d="m362.308 217.949-42.729-31.654L208.361 336.42l42.729 31.655c8.428 6.244 20.326 4.472 26.569-3.956l88.604-119.601c6.246-8.429 4.474-20.323-3.955-26.569zM376.629 202.588l-44.627-33.062-11.505 15.53 44.627 33.063a8 8 0 0 0 11.188-1.667l1.983-2.677a7.997 7.997 0 0 0-1.666-11.187zM249.69 373.933l-44.628-33.062-11.505 15.529 44.629 33.063a7.996 7.996 0 0 0 11.187-1.666l1.983-2.677a7.997 7.997 0 0 0-1.666-11.187z"
  />
  <path
    fill="#D0E6F0"
    d="M220.082 400.223c-4.797-17.702-19.872-31.628-39.2-34.015-19.326-2.386-37.336 7.453-46.296 23.457l85.496 10.558z"
  />
  <path
    fill="#666"
    d="m165.754 342.732 5.68 31.069a5.649 5.649 0 0 0 3.809 4.358 5.62 5.62 0 0 0 2.776.189l31.069-5.68a5.66 5.66 0 0 0 4.548-6.587 5.657 5.657 0 0 0-6.584-4.547l-25.502 4.66-4.663-25.501a5.659 5.659 0 0 0-11.133 2.039z"
  />
  <circle fill="#4D4D4D" cx="177.916" cy="371.566" r="2.303" />
  <path
    fill="#D0E6F0"
    d="M177.558 369.604a2.303 2.303 0 1 1 .828 4.53 2.303 2.303 0 0 1-.828-4.53zM171 396.079l2.552 33.142a3.791 3.791 0 0 0-2.621 1.599 3.817 3.817 0 1 0 5.308-.972 3.888 3.888 0 0 0-.847-.426l11.381-31.176L171 396.079z"
  />
  <g>
    <path
      fill="#52919D"
      d="m333.815 253.278 128.256 95.023-60.127 81.156-128.256-95.023z"
    />
    <path
      fill="#77CFE0"
      d="m334.458 257.714 123.705 91.65-56.34 76.044-123.704-91.651z"
    />
    <path
      opacity=".7"
      fill="#F2F2F2"
      d="m279.217 332.294.217 2.427 29.6 21.929 141.899-12.658-41.305-30.601-124.646 11.12zM327.382 370.244l123.486-11.018 5.307-7.163-136.854 12.208z"
    />
    <path
      fill="#52919D"
      d="m308.072 293.325 123.706 91.652-1.785 2.408-123.705-91.65z"
    />
    <path
      fill="#52919D"
      d="m398.57 301.244 1.76 1.302-59.395 80.229-1.76-1.303z"
    />
  </g>
  <g>
    <path
      fill="#52919D"
      d="m118.056 93.427 128.257 95.023-60.127 81.157-128.258-95.024z"
    />
    <path
      fill="#77CFE0"
      d="m118.696 97.861 123.705 91.65-56.34 76.045-123.705-91.65z"
    />
    <path
      opacity=".7"
      fill="#F2F2F2"
      d="m63.449 172.444.218 2.428 29.598 21.929 141.9-12.66-41.305-30.599-124.646 11.121zM111.614 210.395l123.487-11.017 5.307-7.164-136.854 12.209z"
    />
    <path
      fill="#52919D"
      d="m92.313 133.474 123.706 91.652-1.785 2.41-123.706-91.652z"
    />
    <path
      fill="#52919D"
      d="m182.842 141.413 1.76 1.304-59.445 80.188-1.76-1.304z"
    />
  </g>
</svg>
