<svg viewBox="0 0 24 24" fill="none" xmlns="http://www.w3.org/2000/svg">
    <rect width="24" height="24" rx="4" fill="black" />
    <circle cx="12" cy="12" r="12" fill="black" />
    <path
        d="M18.8677 7.81489C18.6333 7.6301 18.3539 7.37771 17.8446 7.31461C17.3669 7.25151 16.8801 7.57151 16.5511 7.78334C16.2221 7.99517 15.6001 8.61715 15.3432 8.80644C15.0863 8.99574 14.4283 9.17151 13.3691 9.807C12.31 10.4425 8.15448 13.1107 8.15448 13.1107L9.23617 13.1242L4.41364 15.6076H4.8959L4.20181 16.1349C4.20181 16.1349 4.81477 16.2971 5.32857 15.9726V16.1214C5.32857 16.1214 11.0705 13.8588 12.1793 14.4447L11.5032 14.6431C11.5618 14.6431 12.6525 14.7152 12.6525 14.7152C12.7061 15.1724 12.9605 15.5821 13.3466 15.8329C14.0046 16.2656 14.0181 16.5045 14.0181 16.5045C14.0181 16.5045 13.6756 16.6442 13.6756 16.8199C13.6756 16.8199 14.1804 16.6667 14.6491 16.6802C14.9466 16.6915 15.2417 16.7384 15.528 16.8199C15.528 16.8199 15.4919 16.6307 15.0367 16.5045C14.5815 16.3783 14.1308 15.8825 13.91 15.6121C13.6348 15.2619 13.5645 14.7925 13.7252 14.3771C13.8829 13.967 14.4328 13.7416 15.5686 13.1557C16.9071 12.4616 17.2136 11.9478 17.4029 11.5467C17.5922 11.1456 17.8717 10.3478 18.0294 9.97376C18.2277 9.49151 18.4711 9.23461 18.6739 9.08137C18.8767 8.92813 19.7781 8.5901 19.7781 8.5901C19.7781 8.5901 19.0886 7.99067 18.8677 7.81489Z"
        fill="white" />
</svg>