<svg viewBox="0 0 24 24" fill="none" xmlns="http://www.w3.org/2000/svg">
  <circle cx="12" cy="12" r="12" fill="#1D1336" />
  <path
    d="M6.86441 11.6993C6.86441 11.5548 6.98206 11.4377 7.1272 11.4377H16.8504C16.9956 11.4377 17.1132 11.5548 17.1132 11.6993C17.1132 11.8437 16.9956 11.9608 16.8504 11.9608H7.1272C6.98206 11.9608 6.86441 11.8437 6.86441 11.6993Z"
    fill="#E1147B"
  />
  <path
    d="M4.89349 12.85C4.89349 12.7055 5.01114 12.5884 5.15628 12.5884H12.2516C12.3967 12.5884 12.5144 12.7055 12.5144 12.85C12.5144 12.9944 12.3967 13.1115 12.2516 13.1115H5.15628C5.01114 13.1115 4.89349 12.9944 4.89349 12.85Z"
    fill="#E1147B"
  />
  <path
    d="M11.4895 16.0406C11.3444 16.0406 11.2267 16.1576 11.2267 16.3021C11.2267 16.4465 11.3444 16.5636 11.4895 16.5636H15.8781C16.0232 16.5636 16.1409 16.4465 16.1409 16.3021C16.1409 16.1576 16.0232 16.0406 15.8781 16.0406H11.4895Z"
    fill="#E1147B"
  />
  <path
    d="M8.54627 17.4528C8.54627 17.3083 8.66392 17.1913 8.80906 17.1913H13.1714C13.3165 17.1913 13.4342 17.3083 13.4342 17.4528C13.4342 17.5972 13.3165 17.7143 13.1714 17.7143H8.80906C8.66392 17.7143 8.54627 17.5972 8.54627 17.4528Z"
    fill="#E1147B"
  />
  <path
    d="M7.1272 13.7392C6.98206 13.7392 6.86441 13.8562 6.86441 14.0007C6.86441 14.1451 6.98206 14.2622 7.1272 14.2622H15.6942C15.8393 14.2622 15.9569 14.1451 15.9569 14.0007C15.9569 13.8562 15.8393 13.7392 15.6942 13.7392H7.1272Z"
    fill="#E1147B"
  />
  <path
    d="M5.39279 15.1514C5.39279 15.0069 5.51044 14.8899 5.65558 14.8899H9.07185C9.21699 14.8899 9.33464 15.0069 9.33464 15.1514C9.33464 15.2958 9.21699 15.4129 9.07185 15.4129H5.65558C5.51044 15.4129 5.39279 15.2958 5.39279 15.1514Z"
    fill="#E1147B"
  />
  <path
    d="M10.0705 14.8899C9.92531 14.8899 9.80766 15.0069 9.80766 15.1514C9.80766 15.2958 9.92531 15.4129 10.0705 15.4129H17.1658C17.3109 15.4129 17.4286 15.2958 17.4286 15.1514C17.4286 15.0069 17.3109 14.8899 17.1658 14.8899H10.0705Z"
    fill="#E1147B"
  />
  <path
    d="M6.49651 11.6993C6.49651 11.8437 6.37885 11.9608 6.23372 11.9608C6.08858 11.9608 5.97093 11.8437 5.97093 11.6993C5.97093 11.5548 6.08858 11.4377 6.23372 11.4377C6.37885 11.4377 6.49651 11.5548 6.49651 11.6993Z"
    fill="#E1147B"
  />
  <path
    d="M4.26279 13.1115C4.40793 13.1115 4.52558 12.9944 4.52558 12.85C4.52558 12.7055 4.40793 12.5884 4.26279 12.5884C4.11765 12.5884 4 12.7055 4 12.85C4 12.9944 4.11765 13.1115 4.26279 13.1115Z"
    fill="#E1147B"
  />
  <path
    d="M10.8588 16.3021C10.8588 16.4465 10.7412 16.5636 10.596 16.5636C10.4509 16.5636 10.3332 16.4465 10.3332 16.3021C10.3332 16.1576 10.4509 16.0406 10.596 16.0406C10.7412 16.0406 10.8588 16.1576 10.8588 16.3021Z"
    fill="#E1147B"
  />
  <path
    d="M7.91557 17.7143C8.06071 17.7143 8.17836 17.5972 8.17836 17.4528C8.17836 17.3083 8.06071 17.1913 7.91557 17.1913C7.77043 17.1913 7.65278 17.3083 7.65278 17.4528C7.65278 17.5972 7.77043 17.7143 7.91557 17.7143Z"
    fill="#E1147B"
  />
  <path
    d="M6.49651 14.0007C6.49651 14.1451 6.37885 14.2622 6.23372 14.2622C6.08858 14.2622 5.97093 14.1451 5.97093 14.0007C5.97093 13.8562 6.08858 13.7392 6.23372 13.7392C6.37885 13.7392 6.49651 13.8562 6.49651 14.0007Z"
    fill="#E1147B"
  />
  <path
    d="M4.76209 15.4129C4.90723 15.4129 5.02488 15.2958 5.02488 15.1514C5.02488 15.0069 4.90723 14.8899 4.76209 14.8899C4.61695 14.8899 4.4993 15.0069 4.4993 15.1514C4.4993 15.2958 4.61695 15.4129 4.76209 15.4129Z"
    fill="#E1147B"
  />
  <path
    d="M15.8735 8.86873C16.0848 9.3764 16.1936 9.92052 16.1936 10.47C16.1936 10.5856 16.0995 10.6792 15.9834 10.6792H7.99453C7.87843 10.6792 7.7843 10.5856 7.7843 10.47C7.7843 9.92052 7.89306 9.3764 8.10436 8.86873C8.31566 8.36106 8.62538 7.89977 9.01581 7.51122C9.40625 7.12266 9.86977 6.81445 10.3799 6.60416C10.89 6.39388 11.4368 6.28564 11.9889 6.28564C12.5411 6.28564 13.0879 6.39388 13.598 6.60416C14.1081 6.81445 14.5716 7.12266 14.9621 7.51122C15.3525 7.89977 15.6622 8.36106 15.8735 8.86873Z"
    fill="#53CBC7"
  />
</svg>
