<svg width="24" height="24" viewBox="0 0 24 24" fill="none" xmlns="http://www.w3.org/2000/svg">
  <circle cx="12" cy="12" r="12" fill="#FF0420" />
  <path
    d="M8.5 15.19c-.715 0-1.3-.168-1.757-.504-.451-.341-.677-.83-.677-1.459 0-.134.014-.293.043-.485.077-.432.187-.95.331-1.56.408-1.651 1.464-2.476 3.164-2.476.461 0 .879.077 1.243.235.365.149.653.38.864.687.211.302.317.662.317 1.08 0 .125-.014.283-.043.475-.091.533-.197 1.056-.326 1.56-.211.82-.571 1.44-1.09 1.848-.514.405-1.208.599-2.069.599zm.13-1.296c.336 0 .62-.1.854-.297.24-.197.413-.499.514-.912.139-.566.245-1.056.317-1.478.024-.125.038-.254.038-.389 0-.547-.283-.821-.854-.821-.336 0-.624.1-.864.297-.235.197-.403.499-.504.912-.11.403-.216.893-.326 1.478-.024.12-.038.245-.038.379 0 .554.288.83.864.83z"
    fill="#fff" />
  <path
    d="M12.45 15.1c-.067 0-.115-.019-.154-.062-.029-.048-.038-.101-.029-.163l1.243-5.856c.01-.067.043-.12.101-.163.053-.043.11-.062.173-.062h2.4c.667 0 1.2.139 1.603.413.408.278.614.677.614 1.2 0 .149-.019.307-.053.47-.149.691-.451 1.2-.912 1.531-.451.331-1.07.494-1.858.494h-1.214l-.413 1.973c-.014.067-.043.12-.101.163-.053.043-.11.062-.173.062h-1.229z"
    fill="#fff" />
  <path
    d="M15.634 11.66c.254 0 .47-.067.658-.206.192-.139.317-.336.379-.595.019-.101.029-.192.029-.269 0-.173-.053-.307-.154-.398-.101-.096-.278-.144-.523-.144h-1.08l-.341 1.613h1.032z"
    fill="#fff" />
</svg>