<svg viewBox="0 0 24 24" fill="none" xmlns="http://www.w3.org/2000/svg">
  <rect width="24" height="24" rx="4" fill="white" />
  <g clip-path="url(#clip0_4754_101042)">
    <path
      d="M12.0949 6.74904C13.8749 6.74904 15.3179 5.90979 15.3179 4.87452C15.3179 3.83925 13.8749 3 12.0949 3C10.3148 3 8.87183 3.83925 8.87183 4.87452C8.87183 5.90979 10.3148 6.74904 12.0949 6.74904Z"
      fill="#E6007A"
    />
    <path
      d="M12.0949 20.8733C13.8749 20.8733 15.3179 20.0341 15.3179 18.9988C15.3179 17.9635 13.8749 17.1243 12.0949 17.1243C10.3148 17.1243 8.87183 17.9635 8.87183 18.9988C8.87183 20.0341 10.3148 20.8733 12.0949 20.8733Z"
      fill="#E6007A"
    />
    <path
      d="M7.60325 9.34353C8.49328 7.80201 8.4875 6.13245 7.59035 5.61447C6.6932 5.09648 5.24441 5.92622 4.35439 7.46774C3.46437 9.00926 3.47014 10.6788 4.36729 11.1968C5.26444 11.7148 6.71323 10.885 7.60325 9.34353Z"
      fill="#E6007A"
    />
    <path
      d="M19.8338 16.405C20.7239 14.8635 20.7186 13.1942 19.822 12.6766C18.9255 12.1589 17.4772 12.989 16.5872 14.5305C15.6972 16.072 15.7024 17.7413 16.599 18.2589C17.4955 18.7766 18.9438 17.9465 19.8338 16.405Z"
      fill="#E6007A"
    />
    <path
      d="M7.59087 18.2585C8.48802 17.7405 8.4938 16.0709 7.60377 14.5294C6.71375 12.9879 5.26496 12.1581 4.36781 12.6761C3.47066 13.1941 3.46488 14.8637 4.35491 16.4052C5.24493 17.9467 6.69372 18.7764 7.59087 18.2585Z"
      fill="#E6007A"
    />
    <path
      d="M19.8229 11.1977C20.7194 10.6801 20.7247 9.01078 19.8347 7.46926C18.9447 5.92774 17.4964 5.09772 16.5998 5.61535C15.7033 6.13299 15.698 7.80226 16.588 9.34378C17.4781 10.8853 18.9264 11.7153 19.8229 11.1977Z"
      fill="#E6007A"
    />
  </g>
  <defs>
    <clipPath id="clip0_4754_101042">
      <rect width="18" height="18" fill="#E6007A" transform="translate(3 3)" />
    </clipPath>
  </defs>
</svg>
