<svg viewBox="0 0 48 48" fill="none" xmlns="http://www.w3.org/2000/svg">
  <rect width="48" height="48" rx="24" fill="#FFF6EB" />
  <path
    d="M14.6809 13.5228C14.291 13.5029 13.8875 13.4823 13.5454 13.7656C13.3741 13.9076 13.1559 14.1296 13.2398 14.4178C13.248 14.4463 13.2588 14.4741 13.2719 14.5008C13.2755 14.5081 13.2805 14.5141 13.2844 14.5211C13.2939 14.5391 13.3047 14.5563 13.3167 14.5727C13.322 14.5796 13.3287 14.5854 13.3344 14.5919C13.3466 14.6067 13.3598 14.6205 13.3739 14.6334C13.3807 14.6394 13.3888 14.6441 13.396 14.6496C13.4112 14.6617 13.4271 14.6728 13.4437 14.6829C13.452 14.6877 13.4616 14.6914 13.4704 14.6958C13.4884 14.7053 13.5068 14.7137 13.5257 14.721C13.5359 14.7247 13.5473 14.7274 13.558 14.7307C13.5779 14.7369 13.5979 14.7431 13.6196 14.7477C13.6323 14.7504 13.6462 14.7519 13.6594 14.7541C13.6809 14.7575 13.7022 14.7611 13.7252 14.7631C13.7412 14.7645 13.7585 14.7648 13.7752 14.7655C13.7925 14.7662 13.8086 14.768 13.8267 14.768C13.8361 14.768 13.8457 14.768 13.8554 14.7677C14.2621 14.7592 14.6761 14.7613 15.0763 14.7635C15.1936 14.7641 15.311 14.7646 15.4283 14.7649C15.467 14.765 15.5057 14.7653 15.5445 14.7653C15.5418 14.7852 15.5387 14.8046 15.5357 14.8241C15.532 14.8477 15.5285 14.8716 15.5243 14.8946C15.5199 14.9182 15.5149 14.941 15.51 14.964C15.5053 14.9864 15.5009 15.009 15.4957 15.0308C15.4903 15.0535 15.4841 15.0752 15.4781 15.0972C15.4724 15.1183 15.4671 15.1397 15.4608 15.1603C15.4543 15.1818 15.447 15.2023 15.4399 15.2233C15.4333 15.2432 15.4268 15.2635 15.4196 15.283C15.412 15.3034 15.4035 15.323 15.3953 15.3429C15.3876 15.3616 15.3803 15.3806 15.3721 15.3988C15.3633 15.4182 15.3538 15.4366 15.3445 15.4553C15.3358 15.4729 15.3274 15.4909 15.3182 15.5079C15.3084 15.5262 15.2976 15.5436 15.2871 15.5613C15.2775 15.5776 15.2682 15.5944 15.2581 15.6102C15.247 15.6275 15.2351 15.6437 15.2235 15.6604C15.2128 15.6756 15.2026 15.6913 15.1915 15.706C15.1792 15.7222 15.166 15.7374 15.1532 15.753C15.1417 15.767 15.1305 15.7815 15.1185 15.795C15.1049 15.8102 15.0904 15.8244 15.0763 15.839C15.0639 15.8518 15.052 15.8651 15.039 15.8774C15.0241 15.8917 15.0083 15.9048 14.9928 15.9184C14.9795 15.93 14.9667 15.9422 14.953 15.9533C14.9366 15.9666 14.9192 15.9789 14.9021 15.9916C14.8882 16.0019 14.8748 16.0128 14.8605 16.0227C14.8424 16.0352 14.8232 16.0466 14.8045 16.0584C14.7901 16.0674 14.7762 16.077 14.7614 16.0856C14.7412 16.0974 14.7199 16.1081 14.6989 16.1191C14.6844 16.1267 14.6706 16.1349 14.6558 16.1421C14.6318 16.1538 14.6065 16.1645 14.5815 16.1752C14.5688 16.1808 14.5566 16.1869 14.5436 16.1921C14.5051 16.2077 14.4655 16.2223 14.4248 16.2358C14.3686 16.2545 14.3123 16.2704 14.2558 16.2838C14.2379 16.288 14.2199 16.2906 14.2019 16.2944C14.1634 16.3025 14.1249 16.311 14.0864 16.317C14.0604 16.3211 14.0345 16.3232 14.0085 16.3264C13.978 16.3301 13.9474 16.3347 13.9169 16.3373C13.886 16.34 13.855 16.3409 13.824 16.3425C13.7986 16.3438 13.7732 16.346 13.7478 16.3466C13.7145 16.3474 13.6814 16.3468 13.6481 16.3466C13.6253 16.3466 13.6022 16.3471 13.5794 16.3466C13.5445 16.3457 13.5099 16.3436 13.4751 16.3419C13.4542 16.3408 13.4331 16.3403 13.4123 16.3389C13.3774 16.3367 13.3429 16.3335 13.3084 16.3305C13.2879 16.3287 13.2672 16.3274 13.2468 16.3254C13.216 16.3224 13.1855 16.3189 13.155 16.3155C13.1322 16.3131 13.1092 16.3108 13.0866 16.3081C12.1913 15.5944 11.8888 14.5743 12.2773 13.5779C12.6788 12.5482 13.5396 12.0434 14.7649 12.1178C15.0409 12.2098 15.308 12.3266 15.563 12.4668L15.5639 12.4673C15.6056 12.4911 15.6467 12.5159 15.6872 12.5417L15.6882 12.5423C15.7285 12.5681 15.7682 12.5949 15.8072 12.6228L15.8086 12.6238C15.8473 12.6516 15.8851 12.6805 15.9222 12.7105L15.9252 12.7131C15.9616 12.7427 15.997 12.7735 16.0317 12.8054L16.0378 12.8113C16.0711 12.8423 16.1035 12.8745 16.1351 12.9079C16.1386 12.9116 16.1419 12.9157 16.1455 12.9195C16.1749 12.9512 16.2037 12.9838 16.2314 13.0178C16.2373 13.025 16.2428 13.0328 16.2486 13.0401C16.2732 13.0711 16.2972 13.1028 16.3203 13.1358C16.329 13.1482 16.3371 13.1614 16.3455 13.1741C16.3646 13.2027 16.3834 13.2316 16.4012 13.2616C16.4132 13.2819 16.4244 13.3032 16.4358 13.3242C16.4486 13.3476 16.4616 13.3709 16.4737 13.3952C16.4892 13.4266 16.5038 13.4593 16.518 13.4923C16.5231 13.5039 16.5283 13.5153 16.5332 13.5271L14.8807 13.5315C14.8144 13.5296 14.7476 13.5262 14.6809 13.5228Z"
    fill="#CBA68D" />
  <path
    d="M13.7108 16.4578C13.6976 16.4578 13.6843 16.4577 13.671 16.4576L13.6474 16.4574H13.6224L13.5766 16.4572C13.5478 16.4564 13.5191 16.4549 13.4906 16.4534L13.0422 16.4143L13.0175 16.3946C12.0826 15.6492 11.7674 14.5813 12.1743 13.5378C12.5948 12.459 13.493 11.9299 14.7716 12.0074L14.8016 12.0135C15.0841 12.1072 15.3574 12.2268 15.6179 12.3708C15.6621 12.396 15.7048 12.4216 15.7467 12.4485C15.7898 12.476 15.8312 12.5039 15.8717 12.5329C15.9137 12.5631 15.9533 12.5933 15.992 12.6247C16.0333 12.6585 16.0706 12.6907 16.107 12.7243C16.1484 12.7631 16.1826 12.7968 16.2157 12.832C16.2577 12.8777 16.2881 12.9121 16.3173 12.948L16.3354 12.9714C16.3614 13.0042 16.3868 13.0376 16.4111 13.0724L16.4292 13.0997C16.4579 13.143 16.4777 13.1734 16.4965 13.2051C16.5064 13.2219 16.5158 13.2392 16.5251 13.2565L16.4411 13.3332L16.538 13.2801C16.5499 13.3018 16.5618 13.3235 16.573 13.346C16.5894 13.3793 16.6048 13.4137 16.6198 13.4484L16.6992 13.6372L14.8813 13.6422C14.8125 13.6402 14.7467 13.6369 14.681 13.6336L14.6751 13.6333C14.2894 13.6136 13.9251 13.5951 13.6162 13.8508C13.3789 14.0474 13.2956 14.2128 13.3462 14.387C13.3527 14.4093 13.3611 14.431 13.3713 14.4518C13.3885 14.4802 13.3957 14.4937 13.4047 14.5055C13.4284 14.5312 13.4369 14.5413 13.4469 14.5501C13.4759 14.5712 13.4869 14.58 13.4995 14.5873L13.5204 14.5971C13.5347 14.6046 13.5493 14.6114 13.5643 14.6173L13.5584 14.7307L13.5911 14.6251C13.6087 14.6306 13.625 14.6358 13.6429 14.6396L13.6774 14.6449C13.6987 14.6484 13.7163 14.6513 13.7352 14.653L13.827 14.6574L13.8535 14.6571C14.27 14.6484 14.6988 14.6508 15.0772 14.6529L15.6715 14.655L15.6468 14.831L15.5445 14.8436L15.6422 14.8587L15.6216 14.9711L15.5064 14.9816L15.6148 15.004L15.5891 15.1109L15.4737 15.1143L15.5805 15.1427L15.55 15.2436L15.4345 15.2402L15.5395 15.2749L15.5037 15.3706L15.3887 15.3594L15.4913 15.4008L15.4506 15.4905L15.3369 15.4712L15.4364 15.5196L15.4157 15.5606C15.4077 15.5755 15.3991 15.5898 15.3906 15.6041L15.2786 15.5765L15.3743 15.6317L15.3513 15.67C15.3423 15.684 15.3328 15.6975 15.3233 15.711L15.2138 15.6747L15.305 15.7372L15.2798 15.7727C15.2698 15.786 15.2593 15.7986 15.2489 15.8112L15.1424 15.7666L15.2285 15.836L15.2013 15.8686C15.1902 15.881 15.1787 15.8929 15.167 15.9047L15.0644 15.8519L15.1447 15.9279L15.1157 15.9574C15.1036 15.969 15.0909 15.98 15.0782 15.991L14.9798 15.9304L15.0537 16.0126L15.023 16.0391C15.0097 16.05 14.9957 16.0603 14.9817 16.0706L14.8881 16.0025L14.9553 16.0903L14.9236 16.1137C14.9087 16.124 14.8932 16.1336 14.8777 16.1433L14.7893 16.0684L14.8496 16.161L14.8174 16.1812C14.8005 16.191 14.7829 16.2002 14.7653 16.2094L14.6828 16.128L14.736 16.2249L14.7047 16.2414C14.6828 16.2522 14.6599 16.262 14.637 16.2719L14.5663 16.1823L14.6125 16.2827L14.5855 16.2946C14.5448 16.3111 14.5029 16.3265 14.4599 16.3408C14.4007 16.3605 14.3413 16.3773 14.2817 16.3913L14.2445 16.3989L14.2022 16.2944L14.2097 16.4058C14.1744 16.4133 14.1391 16.4208 14.1037 16.4263C14.0852 16.4292 14.0666 16.4312 14.048 16.4333L13.9955 16.4396C13.9725 16.4426 13.9496 16.4456 13.9267 16.4475C13.903 16.4496 13.8794 16.4507 13.8559 16.4517L13.7509 16.4572C13.7373 16.4576 13.7241 16.4578 13.7108 16.4578ZM13.6487 16.2363L13.6731 16.2364C13.697 16.2367 13.7209 16.2369 13.7449 16.2363L13.8457 16.231C13.8663 16.2301 13.8869 16.2292 13.9075 16.2274C13.9272 16.2257 13.9468 16.223 13.9665 16.2205L14.0693 16.208C14.1008 16.2031 14.1322 16.1963 14.1636 16.1897L14.2303 16.1764C14.2837 16.1637 14.3369 16.1486 14.39 16.1311C14.4284 16.1184 14.4658 16.1046 14.5021 16.0899L14.5376 16.074C14.5689 16.0606 14.5885 16.0521 14.6073 16.0429L14.663 16.0133C14.6775 16.0058 14.6919 15.9984 14.7058 15.9903L15.0788 15.6696L15.2994 15.2856L15.4153 14.8755L15.0757 14.8742C14.6986 14.8721 14.2713 14.8698 13.8577 14.8783L13.8266 14.8786C13.8127 14.8786 13.7996 14.8779 13.7866 14.877L13.7605 14.7651L13.7567 14.8756C13.7427 14.8751 13.7286 14.8746 13.7153 14.8734C13.691 14.8712 13.6682 14.8677 13.6455 14.864C13.6187 14.86 13.6073 14.8583 13.5967 14.8561C13.5721 14.8509 13.5493 14.844 13.5266 14.8369C13.5063 14.8311 13.4965 14.8283 13.4874 14.8249C13.465 14.8163 13.443 14.8064 13.4217 14.7953C13.4054 14.7878 13.3966 14.7836 13.3884 14.7788C13.3681 14.7666 13.3486 14.7531 13.33 14.7384C13.3201 14.7319 13.3106 14.7247 13.3015 14.7171C13.2841 14.7015 13.2679 14.6846 13.2529 14.6667C13.2444 14.6583 13.2365 14.6495 13.2291 14.6402C13.2139 14.6196 13.2002 14.598 13.1881 14.5755C13.1825 14.5673 13.1774 14.5588 13.1729 14.55C13.1569 14.5175 13.1438 14.4836 13.1337 14.4489C13.0198 14.0575 13.3624 13.7738 13.4749 13.6805C13.85 13.3698 14.2941 13.3925 14.686 13.4124L14.6809 13.5228L14.6865 13.4124L14.6919 13.4127C14.756 13.416 14.8202 13.4193 14.8838 13.4211L16.3605 13.417C16.355 13.4068 16.3494 13.3966 16.3438 13.3864L16.306 13.3179C16.2893 13.2896 16.2715 13.2624 16.2535 13.2354L16.2297 13.1991C16.2079 13.168 16.1851 13.1381 16.1619 13.1088L16.2314 13.0179L16.1457 13.0877C16.1195 13.0556 16.0922 13.0247 16.0644 12.9947C16.0247 12.952 15.9939 12.9217 15.9624 12.8922C15.9237 12.8562 15.89 12.827 15.8554 12.7989C15.8172 12.7677 15.781 12.7402 15.7441 12.7137C15.7054 12.6859 15.6674 12.6602 15.6287 12.6355C15.5889 12.6101 15.5493 12.5863 15.5091 12.5634C15.2645 12.4282 15.008 12.3157 14.7429 12.2273C13.5777 12.1611 12.761 12.6418 12.3803 13.6181C12.0141 14.5574 12.2947 15.521 13.1306 16.2018L13.4808 16.2315C13.5289 16.234 13.5554 16.2354 13.5821 16.2361L13.6209 16.2362L13.6487 16.2363Z"
    fill="#2B2129" />
  <path
    d="M14.9328 13.6287C14.9439 13.6374 14.9547 13.6464 14.9657 13.6554C14.9761 13.6639 14.9866 13.6722 14.997 13.6808C15.0077 13.6898 15.0183 13.6991 15.0289 13.7083C15.0396 13.7174 15.0499 13.726 15.0602 13.7352C15.0696 13.7436 15.0787 13.7523 15.088 13.7608C15.0993 13.7712 15.1108 13.7814 15.122 13.7921L15.1235 13.7936C15.2246 13.8882 15.3128 13.9958 15.3857 14.1136L15.3864 14.1147C15.4004 14.1379 15.4136 14.1618 15.4262 14.1862L15.4277 14.189C15.4398 14.2126 15.4509 14.237 15.4615 14.2617L15.4638 14.267C15.4739 14.291 15.4829 14.3157 15.4913 14.3406L15.4944 14.3491C15.5022 14.3729 15.5089 14.3975 15.5152 14.4223C15.5163 14.4267 15.5177 14.431 15.5188 14.4356C15.5243 14.4589 15.5287 14.4829 15.5328 14.5071C15.5339 14.5137 15.5354 14.52 15.5364 14.5267C15.5397 14.5488 15.5419 14.5716 15.5439 14.5945C15.5448 14.604 15.546 14.6133 15.5466 14.6229C15.548 14.6432 15.5481 14.6642 15.5484 14.6851C15.5484 14.6953 15.5488 14.7053 15.5487 14.7157C15.3907 14.7155 15.2327 14.7148 15.0747 14.7138C14.963 14.7131 14.8486 14.7131 14.7353 14.7127C14.4427 14.7117 14.1476 14.7117 13.8545 14.718C13.5359 14.7231 13.3511 14.622 13.2877 14.404C13.212 14.1439 13.4167 13.937 13.5774 13.804C13.6038 13.7823 13.6313 13.7621 13.6598 13.7434C13.6669 13.7386 13.6741 13.734 13.6813 13.7295C13.7074 13.7131 13.7338 13.6978 13.7606 13.6843L13.7663 13.6812C13.795 13.667 13.824 13.6549 13.8533 13.6437C13.8609 13.6409 13.8685 13.6381 13.8762 13.6354C13.9023 13.6262 13.9286 13.6177 13.9552 13.6107C13.9589 13.6097 13.9625 13.6085 13.9661 13.6075C13.9958 13.5998 14.0258 13.5935 14.056 13.5881C14.0641 13.5866 14.0722 13.5853 14.0802 13.584C14.1062 13.5798 14.1323 13.5763 14.1586 13.5734C14.1636 13.5729 14.1685 13.5722 14.1735 13.5717C14.2039 13.5687 14.2345 13.5667 14.2651 13.5652C14.2736 13.5648 14.2822 13.5645 14.2906 13.5642C14.3161 13.5633 14.3416 13.5628 14.3671 13.5627C14.373 13.5627 14.379 13.5625 14.3849 13.5625C14.4317 13.5625 14.4787 13.5637 14.5256 13.5655L14.5324 13.5657C14.5812 13.5677 14.63 13.5702 14.6786 13.5726C14.743 13.5759 14.8074 13.5792 14.8716 13.5811C14.881 13.5883 14.8904 13.5957 14.8998 13.603C14.9107 13.6115 14.9218 13.62 14.9328 13.6287Z"
    fill="#2B2129" />
  <path
    d="M13.8329 14.8286C13.4764 14.8286 13.2575 14.6962 13.1815 14.4348C13.0767 14.0748 13.4004 13.8068 13.5068 13.7187C13.5361 13.6947 13.5667 13.6722 13.5984 13.6513L13.6223 13.6358C13.6515 13.6175 13.6809 13.6004 13.7108 13.5854C13.7443 13.5686 13.7787 13.5536 13.8138 13.5404L13.8391 13.5311C13.8679 13.5209 13.897 13.5117 13.9263 13.5038C13.9706 13.492 14.0034 13.4851 14.0363 13.4792L14.0609 13.4751C14.0903 13.4703 14.1184 13.4665 14.1466 13.4634C14.1948 13.4584 14.2272 13.4562 14.2597 13.4546L14.2818 13.4537C14.3153 13.4525 14.3438 13.4519 14.372 13.4519C14.4357 13.4519 14.4826 13.4531 14.5295 13.4548L14.684 13.462C14.7477 13.4653 14.8114 13.4685 14.8748 13.4704L14.9101 13.4715L14.9585 13.5085L14.909 13.6101L14.9765 13.5225L15.0258 13.5616L14.9755 13.6632L15.0449 13.5771L15.0912 13.6158L15.0389 13.7167L15.1106 13.6326L15.1531 13.6704L15.0974 13.7693L15.1718 13.6875L15.1983 13.7121C15.3073 13.8138 15.4022 13.9296 15.4805 14.0565C15.4965 14.083 15.5109 14.1091 15.5245 14.1357C15.5394 14.1647 15.5517 14.1913 15.5632 14.2185C15.5769 14.2506 15.5868 14.2777 15.5961 14.3052C15.6081 14.3409 15.6155 14.3679 15.6224 14.3953C15.6324 14.4355 15.6373 14.4619 15.6418 14.4885C15.6494 14.5343 15.6518 14.5593 15.6541 14.5845L15.657 14.6157C15.6583 14.6362 15.6586 14.6573 15.6589 14.6784L15.6592 14.717L15.6577 14.8263L14.7349 14.8232C14.4432 14.8222 14.1489 14.8223 13.8568 14.8285C13.8487 14.8286 13.8408 14.8286 13.8329 14.8286ZM14.0559 13.588L14.0755 13.6968C14.0481 13.7018 14.0208 13.7074 13.9937 13.7145C13.9601 13.7238 13.9364 13.7313 13.9129 13.7396C13.8797 13.7514 13.8471 13.765 13.8152 13.7803C13.7865 13.795 13.7632 13.8085 13.7401 13.8231L13.721 13.8352C13.6956 13.8519 13.6712 13.8698 13.6478 13.8889C13.4277 14.0712 13.3494 14.2204 13.3938 14.3729C13.4264 14.485 13.5079 14.6128 13.8526 14.6073C14.146 14.6011 14.4421 14.6011 14.7356 14.6021L15.5122 14.6048L15.5439 14.5943L15.4338 14.6042C15.4319 14.5836 15.43 14.5629 15.427 14.543C15.4201 14.5036 15.4161 14.482 15.4112 14.461C15.4023 14.4269 15.3963 14.4048 15.3893 14.3834C15.3789 14.3533 15.3708 14.3311 15.3618 14.3096C15.3501 14.2824 15.34 14.2605 15.3291 14.239C15.3164 14.2144 15.3044 14.1926 15.2917 14.1716C15.2237 14.0617 15.1415 13.9614 15.0471 13.8734L14.8321 13.6903C14.7791 13.6883 14.7259 13.6857 14.6729 13.6829L14.528 13.676C14.4757 13.6741 14.4301 13.673 14.3846 13.6729C14.3431 13.6732 14.3188 13.6737 14.2945 13.6746L14.265 13.565L14.2703 13.6755C14.2415 13.6768 14.2128 13.6788 14.1842 13.6815C14.146 13.6858 14.1218 13.6891 14.0978 13.693L14.0559 13.588Z"
    fill="#2B2129" />
  <path
    d="M15.8879 16.8036C15.2278 16.8451 14.5651 16.8113 13.9127 16.7027C13.6305 16.6633 13.3647 16.5464 13.145 16.365C13.1549 16.3661 13.1651 16.3669 13.175 16.368C13.2042 16.3711 13.2334 16.374 13.2628 16.3767C13.2849 16.3787 13.3069 16.3807 13.3291 16.3825C13.3588 16.3849 13.3886 16.3869 13.4185 16.3888C13.4408 16.3902 13.4631 16.3916 13.4854 16.3927C13.5153 16.3941 13.5451 16.3949 13.5752 16.3957C13.5978 16.3963 13.6203 16.397 13.643 16.3972C13.651 16.3972 13.6589 16.3977 13.667 16.3977C13.681 16.3977 13.6952 16.3966 13.7093 16.3964C13.7483 16.3959 13.7874 16.3948 13.8266 16.3928C13.8495 16.3916 13.8723 16.39 13.8952 16.3882C13.9336 16.3853 13.9719 16.3814 14.0104 16.3767C14.033 16.374 14.0555 16.3713 14.0782 16.3679C14.1193 16.3618 14.1603 16.3539 14.2014 16.3454C14.2209 16.3414 14.2404 16.3381 14.2599 16.3336C14.3202 16.3194 14.3804 16.3032 14.4405 16.2833C14.4827 16.2692 14.5238 16.2541 14.5637 16.2379C15.1566 15.9974 15.4943 15.514 15.5948 14.7656H15.5976L15.5984 14.7425L15.6018 14.7158H15.5982C15.5985 14.6897 15.5987 14.6636 15.5975 14.6384C15.5969 14.6272 15.5955 14.6165 15.5946 14.6054C15.5929 14.5835 15.5914 14.5615 15.5886 14.5402C15.5869 14.5272 15.5843 14.5147 15.5822 14.502C15.5791 14.4833 15.5762 14.4645 15.5723 14.4464C15.5694 14.4333 15.5658 14.4206 15.5626 14.4078C15.5582 14.3907 15.554 14.3735 15.549 14.3569C15.5451 14.344 15.5406 14.3316 15.5363 14.319C15.5308 14.3031 15.5254 14.2872 15.5194 14.2718C15.5145 14.2592 15.5091 14.247 15.5037 14.2347C15.4973 14.2198 15.4909 14.205 15.4838 14.1905C15.478 14.1783 15.4718 14.1665 15.4656 14.1546C15.4582 14.1406 15.4508 14.1267 15.443 14.1131C15.4364 14.1014 15.4294 14.0899 15.4224 14.0785C15.4142 14.0653 15.406 14.0522 15.3974 14.0393C15.39 14.0281 15.3824 14.017 15.3746 14.0061C15.3657 13.9936 15.3567 13.9813 15.3475 13.9691C15.3394 13.9583 15.3311 13.9476 15.3227 13.9371C15.3133 13.9252 15.3036 13.9135 15.2938 13.9019C15.2851 13.8917 15.2764 13.8815 15.2676 13.8715C15.2575 13.8602 15.2472 13.849 15.2368 13.8379C15.2277 13.8281 15.2185 13.8183 15.2092 13.8087C15.1986 13.7979 15.1879 13.7873 15.1772 13.7768C15.1676 13.7674 15.1582 13.7581 15.1484 13.7489C15.1374 13.7385 15.1263 13.7284 15.1152 13.7182C15.1054 13.7094 15.0957 13.7004 15.0858 13.6917C15.0745 13.6817 15.063 13.672 15.0515 13.6622C15.0416 13.6538 15.0316 13.6453 15.0218 13.637C15.0099 13.6272 14.998 13.6177 14.9862 13.6081C14.9764 13.6002 14.9667 13.5923 14.9569 13.5846L14.9529 13.5813L16.5571 13.5769C16.5717 13.5979 16.5841 13.6194 16.5972 13.6408C16.6091 13.6603 16.6223 13.6795 16.6331 13.6992C16.6457 13.7225 16.656 13.7462 16.6671 13.7698C16.6765 13.7898 16.6871 13.8097 16.6955 13.8299C16.7054 13.8538 16.713 13.8779 16.7215 13.9019C16.7287 13.9222 16.737 13.9424 16.7432 13.9628C16.7507 13.9873 16.7562 14.0119 16.7625 14.0365C16.7676 14.0566 16.7737 14.0766 16.778 14.0967C16.7835 14.1221 16.7873 14.1473 16.7917 14.1726C16.7951 14.1919 16.7993 14.2113 16.8021 14.2305C16.806 14.2579 16.8087 14.2851 16.8115 14.3123C16.8133 14.3291 16.8159 14.346 16.8172 14.3627C16.82 14.3947 16.8217 14.4262 16.8233 14.4576C16.824 14.4692 16.8251 14.4811 16.8256 14.4926C16.8274 14.5353 16.8284 14.5775 16.8289 14.6188C16.8354 15.1378 16.8352 15.6656 16.835 16.176C16.8349 16.3827 16.8349 16.5894 16.8351 16.7961C16.5193 16.7877 16.1985 16.7957 15.8879 16.8036Z"
    fill="#BB9168" />
  <path
    d="M15.2327 16.9251C14.7826 16.9326 14.3329 16.8943 13.8905 16.811C13.5883 16.7683 13.304 16.6419 13.0699 16.4461L12.8239 16.2184L13.1571 16.255L13.1702 16.3377L13.1793 16.3279L13.1867 16.2579L13.6437 16.2865L13.6669 16.3976L13.6686 16.287L13.7078 16.2858C13.7454 16.2853 13.7831 16.2843 13.8209 16.2823L13.8868 16.2779C13.9235 16.2751 13.9603 16.2713 13.9971 16.2669L14.0618 16.2585C14.1009 16.2526 14.14 16.2451 14.1791 16.237L14.2347 16.2258C14.2918 16.2124 14.3488 16.197 14.4057 16.1782C14.4456 16.1649 14.4844 16.1507 14.5221 16.1354C15.0752 15.911 15.3902 15.4581 15.4852 14.7507L15.4879 14.7308L15.4876 14.7144C15.4879 14.6905 15.4881 14.6667 15.4869 14.6437L15.5945 14.6053L15.4843 14.6137C15.4825 14.5906 15.4812 14.5722 15.4789 14.5545L15.4047 14.2842L15.2363 14.006L14.8884 13.6713L14.6388 13.4747L14.9525 13.4706L16.6147 13.4661L16.6479 13.5136C16.6603 13.5313 16.6713 13.5496 16.6823 13.5677L16.7029 13.601C16.7124 13.616 16.7219 13.631 16.7302 13.6462C16.7407 13.6656 16.7499 13.6851 16.759 13.7048L16.7764 13.7414C16.7839 13.7567 16.7914 13.772 16.7978 13.7875C16.8059 13.8071 16.8128 13.8269 16.8196 13.8467L16.833 13.8844C16.8387 13.8997 16.8443 13.915 16.849 13.9304C16.8551 13.9503 16.8601 13.9702 16.865 13.9902L16.875 14.0289C16.879 14.0436 16.883 14.0584 16.8861 14.0731C16.8905 14.0938 16.8941 14.1145 16.8976 14.1352L16.9115 14.2145C16.9149 14.2378 16.9174 14.2609 16.9198 14.284L16.814 14.3325L16.9237 14.3189L16.9275 14.353C16.9302 14.3849 16.9319 14.4163 16.9336 14.4476L16.9361 14.4878C16.938 14.5316 16.939 14.5749 16.9396 14.6174C16.946 15.1336 16.9458 15.6584 16.9456 16.1663L16.9459 16.9095L16.8322 16.9065C16.5171 16.8982 16.1987 16.9062 15.8907 16.914L15.8879 16.8035L15.8891 16.914C15.6723 16.9196 15.4531 16.9251 15.2327 16.9251ZM15.8834 16.693L15.8879 16.8035L15.885 16.693C16.1592 16.6861 16.4415 16.6789 16.7245 16.6832V16.1759C16.7247 15.6593 16.7249 15.1354 16.7185 14.6202C16.7179 14.58 16.717 14.5389 16.7152 14.4973L16.8235 14.4576L16.7131 14.4635C16.7114 14.4306 16.7098 14.4016 16.7073 14.3722L16.7017 14.324C16.6978 14.2868 16.6958 14.2666 16.6929 14.2462L16.6831 14.1915C16.6768 14.1547 16.674 14.1374 16.6702 14.1201L16.6556 14.0638C16.6465 14.0273 16.6426 14.0112 16.6377 13.9952L16.6175 13.9388C16.6052 13.9032 16.5999 13.8877 16.5935 13.8723C16.589 13.8612 16.5835 13.8501 16.5781 13.8393L16.5672 13.8169C16.5512 13.7823 16.5443 13.7671 16.5363 13.7521C16.5304 13.7414 16.5235 13.7308 16.5167 13.7202L16.5032 13.6987L16.4966 13.6876L15.2479 13.691L15.4898 13.9781L15.6226 14.2312C15.6289 14.2473 15.6345 14.2637 15.6402 14.2802L15.6551 14.3248C15.66 14.341 15.6642 14.3576 15.6684 14.3742L15.6805 14.4229C15.6843 14.4403 15.6871 14.4583 15.6902 14.4761L15.6984 14.5256C15.7012 14.5473 15.703 14.5697 15.7047 14.5921L15.7058 14.6054H15.7239L15.7082 14.7564V14.769L15.7048 14.876H15.6903C15.5682 15.6145 15.2126 16.094 14.6055 16.3403C14.5633 16.3574 14.52 16.3733 14.4755 16.3881C14.4122 16.4091 14.3488 16.4262 14.2853 16.4412L14.2434 16.4499C14.1808 16.4626 14.1377 16.4708 14.0947 16.4772L14.0263 16.4861C13.9837 16.4912 13.9437 16.4953 13.9037 16.4984L13.8324 16.5031C13.7918 16.5052 13.7513 16.5063 13.7108 16.5068L13.6667 16.5081L13.6059 16.5069C13.7135 16.5436 13.8235 16.5728 13.9352 16.5943C14.5788 16.7009 15.2323 16.734 15.8834 16.693Z"
    fill="#2B2129" />
  <path
    d="M20.3926 35.7447C20.3865 35.754 20.3811 35.7644 20.3754 35.7744C20.3701 35.7839 20.364 35.7925 20.3591 35.8026H19.3421C19.2018 35.7964 19.0628 35.7725 18.9286 35.7313L18.889 35.7211C17.6189 35.4137 16.837 34.3546 16.8486 32.9566C16.881 29.0537 16.8757 25.0852 16.8706 21.2473C16.8686 19.7876 16.8673 18.3278 16.8667 16.868V16.8424C16.8663 16.6274 16.8663 16.4125 16.8665 16.1975C16.8667 15.6875 16.8669 15.1601 16.8606 14.6415C16.8724 14.3144 16.803 13.9894 16.6585 13.6958C16.634 13.6507 16.6069 13.607 16.5774 13.565C16.5574 13.5139 16.536 13.4646 16.5132 13.4171C16.5055 13.4009 16.4968 13.3858 16.4888 13.37C16.4728 13.3386 16.457 13.3071 16.4398 13.2773C16.4295 13.2593 16.4184 13.2425 16.4076 13.225C16.3916 13.1988 16.3756 13.1724 16.3586 13.1473C16.3466 13.1296 16.3338 13.1128 16.3213 13.0956C16.3045 13.0724 16.2878 13.0491 16.2702 13.0268C16.2567 13.0097 16.2425 12.9935 16.2286 12.977C16.2109 12.9561 16.1932 12.9351 16.175 12.9151C16.1602 12.8989 16.1449 12.8834 16.1297 12.8678C16.1112 12.8488 16.0928 12.8299 16.0737 12.8117C16.0578 12.7965 16.0414 12.7818 16.025 12.7672C16.0057 12.7499 15.9864 12.7326 15.9666 12.716C15.9497 12.7018 15.9325 12.6881 15.9152 12.6744C15.8951 12.6585 15.8749 12.6428 15.8544 12.6276C15.8366 12.6143 15.8186 12.6014 15.8004 12.5887C15.7797 12.5742 15.7588 12.5599 15.7376 12.5459C15.719 12.5336 15.7002 12.5215 15.6813 12.5096C15.66 12.4963 15.6385 12.4832 15.6169 12.4704C15.5975 12.4589 15.578 12.4475 15.5583 12.4364C15.5366 12.4241 15.5147 12.4122 15.4927 12.4005C15.4725 12.3898 15.4524 12.379 15.4321 12.3687C15.4101 12.3575 15.3878 12.3466 15.3657 12.3359C15.3448 12.3257 15.3239 12.3155 15.3027 12.3057C15.281 12.2956 15.2591 12.2858 15.2371 12.2761C15.2152 12.2664 15.1932 12.2565 15.1711 12.247C15.15 12.238 15.1288 12.2294 15.1075 12.2207C15.0842 12.2111 15.061 12.2014 15.0376 12.1921C15.0184 12.1846 14.9992 12.1773 14.9801 12.17C14.9542 12.1601 14.9284 12.1501 14.9024 12.1404L14.8973 12.1384L14.9432 12.1361C15.0634 12.13 15.1878 12.1237 15.3097 12.1236C16.7868 12.1233 18.2635 12.1242 19.7398 12.1262C23.3192 12.1295 27.0205 12.1332 30.6607 12.1106H30.6763C31.0208 12.1127 31.3614 12.1836 31.6781 12.3191C31.9948 12.4546 32.2812 12.6521 32.5206 12.8998C33.0281 13.4053 33.315 14.0911 33.3185 14.8074C33.2853 18.756 33.2934 22.771 33.3012 26.6538C33.3041 28.1178 33.3064 29.5818 33.3079 31.0458C33.2429 31.0469 33.178 31.0481 33.1131 31.0495C32.9607 31.0526 32.8032 31.0558 32.6483 31.0558C29.0959 31.0569 25.5435 31.0577 21.9912 31.058L20.5701 31.0583C20.5495 31.0572 20.529 31.0567 20.5084 31.0561C20.4648 31.0557 20.4212 31.0529 20.3779 31.0478C20.0183 30.9833 19.6479 31.0174 19.3059 31.1463C18.964 31.2752 18.6634 31.4941 18.4357 31.78C18.4263 31.7921 18.4171 31.8043 18.408 31.8168C18.3594 31.883 18.3148 31.9522 18.2744 32.0237C18.2331 32.0953 18.1958 32.1691 18.1629 32.2449C17.9686 32.6717 17.9232 33.1514 18.0341 33.6071C18.1449 34.0628 18.4055 34.4681 18.7741 34.7581L18.838 34.8178L18.8441 34.8235L18.8443 34.8237L18.838 34.8178L18.9982 34.8635L18.8819 34.8613C19.1124 35.0803 19.4119 35.2123 19.7291 35.2347C19.8116 35.2437 19.8947 35.2506 19.978 35.2559C20.008 35.2578 20.038 35.2586 20.0681 35.2601C20.1216 35.2628 20.1751 35.2659 20.2286 35.2676L20.2387 35.2678C20.402 35.2728 20.565 35.2739 20.7253 35.2749C20.7402 35.2749 20.755 35.2753 20.7699 35.2754C20.8785 35.2761 20.9869 35.2772 21.0953 35.2794L21.0948 35.28C21.0759 35.3002 21.0553 35.3187 21.0333 35.3355C21.0296 35.3384 21.026 35.3414 21.0222 35.3442C21.0008 35.3599 20.9784 35.3745 20.9553 35.3877L20.9409 35.3959C20.9174 35.4089 20.8933 35.4213 20.8685 35.433L20.853 35.4402C20.8289 35.4513 20.8046 35.4623 20.7798 35.4734L20.7765 35.4748C20.7478 35.4876 20.719 35.5006 20.6903 35.514C20.6782 35.5197 20.6661 35.5253 20.6542 35.5312C20.6465 35.5351 20.6391 35.5394 20.6314 35.5434C20.6191 35.5498 20.6067 35.5562 20.5947 35.5631C20.5867 35.5678 20.5791 35.573 20.5712 35.5779C20.56 35.5848 20.5486 35.5916 20.5377 35.5992C20.5299 35.6046 20.5225 35.6109 20.5148 35.6167C20.5046 35.6245 20.4941 35.6321 20.4843 35.6406C20.4768 35.6472 20.4699 35.6546 20.4627 35.6615C20.4535 35.6704 20.4442 35.6791 20.4356 35.6887C20.4286 35.6966 20.4223 35.7054 20.4157 35.7138C20.408 35.7238 20.3999 35.7337 20.3926 35.7447Z"
    fill="#E5D1B8" />
  <path
    d="M20.3591 35.913H19.3421C19.1924 35.9071 19.0442 35.882 18.9009 35.8382L18.8613 35.828C17.5402 35.5084 16.726 34.4075 16.7381 32.9556C16.7704 29.0554 16.7651 25.0892 16.76 21.2536C16.7581 19.7876 16.7568 18.3257 16.7561 16.868L16.7559 16.1974C16.7561 15.6812 16.7563 15.1576 16.75 14.6428C16.7618 14.3338 16.6971 14.0268 16.5616 13.7489C16.5389 13.7073 16.514 13.6671 16.4868 13.6284L16.4744 13.6052C16.4554 13.5567 16.4351 13.5098 16.4134 13.4647L16.3902 13.42C16.3728 13.3858 16.3589 13.3583 16.3439 13.3322L16.3134 13.2828C16.2939 13.2511 16.2809 13.2297 16.2671 13.2093L16.226 13.1525C16.212 13.1331 16.1981 13.1138 16.1834 13.0953L16.1549 13.0608C16.1252 13.0258 16.1096 13.0072 16.0934 12.9895L16.0583 12.9528C16.033 12.9268 16.0155 12.9088 15.9974 12.8915L15.9526 12.8505C15.9329 12.8328 15.9145 12.8164 15.8956 12.8006L15.8467 12.7609C15.8275 12.7457 15.8082 12.7307 15.7886 12.7162L15.3819 12.467L14.8639 12.2439L14.3597 12.057L14.9376 12.0255C15.2051 12.0119 15.481 12.0129 15.7523 12.0129C17.0817 12.0129 18.4107 12.0137 19.7394 12.0155H19.8128C23.3684 12.0188 27.0448 12.0222 30.66 12C31.0218 12.0004 31.3798 12.0733 31.7129 12.2145C32.046 12.3557 32.3474 12.5622 32.5992 12.8219C33.1274 13.3484 33.4258 14.0625 33.4291 14.8082C33.3961 18.7537 33.4041 22.7659 33.4118 26.6459C33.4148 28.1175 33.4177 29.5816 33.4186 31.0457V31.1545L33.1161 31.1599C32.9581 31.1631 32.8019 31.1662 32.6484 31.1663L20.5701 31.1688L20.5087 31.1666C20.4599 31.1661 20.4112 31.163 20.3627 31.1571C20.0223 31.0956 19.6716 31.1273 19.3478 31.2489C19.0239 31.3704 18.7389 31.5773 18.5231 31.8476L18.4968 31.8824C18.4509 31.9451 18.4087 32.0105 18.3705 32.0783C18.3312 32.1462 18.2958 32.2163 18.2645 32.2882C18.0801 32.6932 18.037 33.1484 18.1422 33.5808C18.2474 34.0132 18.4948 34.3977 18.8446 34.6727L18.8938 34.7185L19.8454 34.99L19.2286 34.9782C19.3889 35.0582 19.5627 35.1077 19.7411 35.1245C19.822 35.1333 19.9034 35.1399 19.985 35.1453L20.1066 35.1511C20.1484 35.1533 20.1902 35.1555 20.232 35.1568C20.4044 35.162 20.5665 35.1631 20.7259 35.1641L20.7493 35.1643C20.8796 35.1653 20.9885 35.1664 21.0974 35.1686L21.3432 35.1735L21.1759 35.3547C21.1529 35.3793 21.1278 35.402 21.1011 35.4225C21.0723 35.4447 21.042 35.4649 21.0106 35.4832C20.969 35.5064 20.9428 35.5199 20.9158 35.5326L20.7037 35.6298L20.6315 35.543L20.6829 35.6409L20.65 35.6586L20.5713 35.5775L20.6295 35.6715L20.6008 35.6896L20.5149 35.6163L20.5818 35.7043L20.5568 35.7238L20.4628 35.6612L20.5397 35.7406L20.5182 35.762L20.4159 35.7134L20.5029 35.7816L20.4311 35.8949L20.3591 35.913ZM16.6755 13.5123C16.7044 13.5544 16.7312 13.598 16.7556 13.6428C16.9093 13.9521 16.9833 14.2949 16.9711 14.6401C16.9774 15.1559 16.9772 15.6804 16.977 16.1879L16.9773 16.8678C16.9773 18.3278 16.9786 19.7876 16.9811 21.2472C16.9862 25.0895 16.9915 29.0562 16.9592 32.9576C16.9481 34.3013 17.6975 35.3191 18.915 35.6137L18.9562 35.6243C19.0815 35.6628 19.2111 35.6856 19.3421 35.6921H20.2951L20.3004 35.6837C20.3082 35.6719 20.3166 35.6611 20.3251 35.6503C20.3401 35.6308 20.3464 35.6226 20.3532 35.615C20.3622 35.605 20.3717 35.5957 20.3813 35.5865L20.412 35.557C20.422 35.5484 20.4324 35.5404 20.4429 35.5325L20.6365 35.4172C20.6621 35.4052 20.6843 35.395 20.7055 35.3854C20.5388 35.3843 20.3871 35.3829 20.2353 35.3783C20.1818 35.3767 20.1385 35.3744 20.0952 35.3722L19.971 35.3662C19.886 35.3608 19.8013 35.3537 19.7171 35.3445C19.3748 35.3197 19.0518 35.1764 18.8037 34.9394L18.697 34.8375C18.6216 34.7751 18.5498 34.7083 18.4822 34.6375L18.4323 34.591L18.4411 34.5935C18.1491 34.2766 17.9572 33.8805 17.8896 33.4549C17.822 33.0293 17.8817 32.5932 18.0612 32.2014C18.0958 32.1219 18.1349 32.0444 18.1783 31.9693C18.2209 31.8938 18.2679 31.821 18.3191 31.7513L18.3484 31.7125C18.5877 31.411 18.9042 31.1799 19.2642 31.0436C19.6242 30.9074 20.0143 30.8711 20.3933 30.9385C20.4322 30.9431 20.4712 30.9455 20.5104 30.9458L20.5758 30.948L32.6482 30.9452C32.8003 30.9452 32.9551 30.942 33.1049 30.939L33.1972 30.9373C33.1963 29.5095 33.1941 28.0817 33.1906 26.6539C33.1828 22.7658 33.1748 18.753 33.2079 14.8063C33.2042 14.1194 32.9289 13.4619 32.4419 12.9774C32.2128 12.7401 31.9386 12.551 31.6354 12.4211C31.3322 12.2912 31.0061 12.2232 30.6763 12.221C27.0455 12.2434 23.3684 12.2399 19.8126 12.2366H19.7397C18.296 12.2351 16.8526 12.2343 15.4094 12.234L15.7986 12.4535C15.8206 12.468 15.8424 12.4829 15.864 12.4981L15.9202 12.5386C15.9417 12.5545 15.9629 12.571 15.9839 12.5876L16.0376 12.6311C16.0584 12.6485 16.0787 12.6665 16.099 12.6848L16.15 12.7315C16.17 12.7507 16.1895 12.7706 16.2089 12.7905L16.2566 12.8403C16.2747 12.8602 16.2923 12.8809 16.3098 12.9017L16.3569 12.958C16.3734 12.979 16.3893 13.0009 16.4051 13.0227L16.3328 13.1112L16.4218 13.0456L16.4501 13.0851C16.4658 13.1083 16.4807 13.1326 16.4956 13.1568L16.4191 13.2432L16.5125 13.1842L16.5357 13.2221C16.5525 13.2514 16.5682 13.2821 16.5838 13.3128L16.4987 13.3886L16.5961 13.3364L16.613 13.3692C16.635 13.4154 16.6559 13.4631 16.6755 13.5123Z"
    fill="#2B2129" />
  <path
    d="M20.9246 33.6075C20.9359 33.5274 20.9426 33.4467 20.9446 33.3658C20.9607 33.2444 20.9496 33.121 20.912 33.0044C20.8745 32.8879 20.8115 32.7811 20.7276 32.6919C20.7104 32.6676 20.6932 32.6428 20.6762 32.618C20.6715 32.6111 20.6671 32.604 20.6624 32.5971C20.6501 32.5786 20.6379 32.5601 20.6263 32.5413C20.6205 32.532 20.6153 32.5224 20.6098 32.513C20.6001 32.4963 20.5905 32.4794 20.5817 32.4623C20.5762 32.4517 20.5714 32.4408 20.5663 32.43C20.5613 32.4191 20.5569 32.4083 20.5525 32.3975L20.5599 32.3973L21.801 32.377C21.8152 32.4005 21.8272 32.4248 21.8404 32.4487C21.8586 32.4815 21.8777 32.514 21.8939 32.5473C21.9074 32.5752 21.9182 32.6037 21.9302 32.6319C21.9439 32.6637 21.9588 32.6952 21.9707 32.7273C21.9824 32.759 21.9913 32.7913 22.0014 32.8233C22.0106 32.8526 22.0213 32.8817 22.029 32.9113C22.0389 32.9489 22.0458 32.9869 22.0535 33.0248C22.0585 33.0492 22.065 33.0734 22.069 33.0981C22.0769 33.146 22.0815 33.1942 22.0859 33.2424C22.0873 33.2572 22.09 33.2719 22.091 33.2867C22.1062 33.586 22.062 33.8853 21.961 34.1675C21.86 34.4496 21.7042 34.7089 21.5025 34.9305C21.4846 34.9511 21.4645 34.9706 21.4457 34.9907C21.4166 35.0221 21.3881 35.0538 21.357 35.0842C21.306 35.134 21.2525 35.1824 21.1965 35.2294C21.0581 35.2261 20.9193 35.2253 20.7806 35.2244C20.6198 35.2234 20.4564 35.2223 20.2927 35.2174L20.2803 35.2171C20.2403 35.2159 20.2004 35.2134 20.1604 35.2116C20.0327 35.2059 19.9052 35.1981 19.7791 35.1844C19.7402 35.1802 19.7023 35.1748 19.6651 35.1685C19.653 35.1664 19.6413 35.1637 19.6293 35.1614C19.6047 35.1566 19.5801 35.1519 19.5562 35.1462C19.5425 35.1429 19.5293 35.139 19.5158 35.1354C19.4945 35.1297 19.4732 35.1241 19.4525 35.1176C19.4386 35.1132 19.4253 35.1084 19.4117 35.1037C19.3923 35.097 19.3729 35.0902 19.3542 35.0827C19.3407 35.0774 19.3275 35.0717 19.3144 35.0658C19.2964 35.058 19.2785 35.05 19.2612 35.0415C19.2483 35.0352 19.2357 35.0285 19.2232 35.0218C19.2063 35.0129 19.1897 35.0036 19.1735 34.9939C19.1614 34.9867 19.1495 34.9794 19.1377 34.9718C19.1219 34.9616 19.1064 34.951 19.0913 34.9401C19.0801 34.9321 19.0689 34.9239 19.0581 34.9155C19.0479 34.9076 19.038 34.8992 19.0281 34.8909L18.9984 34.8634C19.0542 34.8626 19.11 34.8625 19.1657 34.8625C19.4685 34.8817 19.772 34.8407 20.0588 34.7419C20.1372 34.7097 20.2128 34.6712 20.2849 34.6267C20.4622 34.5169 20.6121 34.3679 20.7229 34.1913C20.8338 34.0146 20.9028 33.8149 20.9246 33.6075Z"
    fill="#BB9168" />
  <path
    d="M21.2355 35.3409L21.1939 35.3399C21.0589 35.3367 20.9236 35.3359 20.7883 35.335C20.6183 35.334 20.4539 35.3328 20.2894 35.3279L20.1555 35.3221C20.0254 35.3162 19.8955 35.3083 19.7672 35.2944C19.7261 35.2899 19.6859 35.2842 19.6466 35.2775L19.6208 35.2725C19.5822 35.2649 19.556 35.2598 19.5306 35.2538L19.5 35.2457C19.4639 35.236 19.4414 35.23 19.4195 35.2231L19.3858 35.2117C19.3546 35.2009 19.3337 35.1935 19.3134 35.1855L19.2758 35.1697C19.2506 35.1587 19.2313 35.15 19.2124 35.1408L19.171 35.1194C19.1526 35.1096 19.1345 35.0995 19.1167 35.0889L19.0776 35.0646C19.0603 35.0534 19.0434 35.0419 19.0268 35.0299L18.923 34.9444L18.7205 34.7568L18.9965 34.7528C19.0528 34.752 19.1092 34.7519 19.1654 34.7518C19.4538 34.7703 19.743 34.7322 20.0167 34.6395C20.0895 34.6095 20.1598 34.5737 20.2268 34.5325C20.3905 34.4313 20.5287 34.2939 20.6307 34.1308C20.7327 33.9677 20.7959 33.7833 20.8152 33.5919C20.8259 33.516 20.8323 33.4394 20.8341 33.3629C20.8488 33.2534 20.8387 33.142 20.8046 33.0369C20.7706 32.9318 20.7134 32.8356 20.6373 32.7555L20.5706 32.6585C20.5575 32.639 20.5446 32.6194 20.5323 32.5995L20.5197 32.5779C20.5037 32.5504 20.4931 32.5319 20.4834 32.513L20.3897 32.2919L20.5507 32.2869L21.8627 32.2654L21.8956 32.3198C21.906 32.3369 21.9153 32.3543 21.9246 32.3718L21.9509 32.4196C21.9657 32.4459 21.9804 32.4723 21.9934 32.4992C22.0034 32.5199 22.0121 32.5409 22.0208 32.5618L22.0435 32.6149C22.0543 32.6395 22.0651 32.6641 22.0744 32.6891C22.0835 32.7136 22.0911 32.7384 22.0986 32.7632L22.1158 32.8178C22.123 32.8395 22.1301 32.8612 22.1359 32.8831C22.1444 32.915 22.1508 32.9471 22.1572 32.9792L22.1675 33.0285C22.1715 33.0457 22.1753 33.0629 22.1782 33.0803C22.1865 33.1308 22.1915 33.1817 22.1961 33.2326L22.2014 33.2793C22.2178 33.5931 22.1719 33.9071 22.0663 34.203C21.9606 34.4989 21.7974 34.771 21.5859 35.0034C21.5735 35.0175 21.5605 35.0311 21.5473 35.0447L21.5097 35.0845C21.4852 35.111 21.4606 35.1376 21.4344 35.1633C21.3813 35.2152 21.3256 35.2656 21.2675 35.3143L21.2355 35.3409ZM19.3746 34.9713L19.3949 34.98C19.4122 34.9868 19.43 34.993 19.4479 34.9992L19.4854 35.0121C19.5044 35.018 19.5239 35.0232 19.5434 35.0284L19.5818 35.0387C19.604 35.044 19.6271 35.0484 19.65 35.0528L19.665 35.1685L19.6836 35.0595C19.7186 35.0655 19.7544 35.0706 19.791 35.0745C19.9147 35.0879 20.0399 35.0955 20.1653 35.1011L20.2837 35.1065C20.4587 35.1117 20.6213 35.1128 20.7812 35.1138C20.9113 35.1146 21.0346 35.1153 21.157 35.1178C21.1995 35.0811 21.2404 35.0435 21.2797 35.005C21.3031 34.9821 21.3251 34.9582 21.3472 34.9343L21.3883 34.8906C21.3989 34.8797 21.4095 34.8688 21.4193 34.8574C21.6115 34.6469 21.7601 34.4003 21.8564 34.132C21.9528 33.8636 21.995 33.5789 21.9806 33.2941L21.9757 33.2523C21.9716 33.2066 21.9672 33.161 21.9598 33.1158C21.9576 33.1029 21.9547 33.0901 21.9518 33.0773L21.9401 33.0219C21.9346 32.9943 21.9292 32.9666 21.922 32.9393C21.9173 32.9216 21.9115 32.9043 21.9057 32.8869L21.8867 32.8268C21.8805 32.8063 21.8744 32.7858 21.8668 32.7655C21.8591 32.7448 21.85 32.7244 21.841 32.7039L21.8161 32.6459C21.8091 32.6289 21.8022 32.612 21.7942 32.5953C21.7831 32.5725 21.7705 32.5502 21.7579 32.5278L21.7361 32.4884L20.7342 32.5051C20.7408 32.5153 20.7475 32.5255 20.7543 32.5356L20.6762 32.618L20.7675 32.5557L20.818 32.6283C20.9113 32.7295 20.9808 32.8503 21.0214 32.9819C21.0621 33.1134 21.0728 33.2524 21.0528 33.3886C21.0519 33.4671 21.0456 33.5455 21.034 33.6232C21.0094 33.8465 20.9344 34.0614 20.8146 34.2516C20.6948 34.4417 20.5334 34.6022 20.3426 34.7208C20.2654 34.7684 20.1844 34.8096 20.1006 34.8441C19.8687 34.9316 19.6224 34.9747 19.3746 34.9713ZM20.6591 32.5063L20.6263 32.5413L20.6836 32.506L20.6591 32.5063Z"
    fill="#2B2129" />
  <path
    d="M20.8982 33.3393L20.544 33.3381C20.1945 33.337 19.845 33.3354 19.4956 33.3333L19.4645 33.3331C19.2952 33.3326 19.1353 33.3322 19.0786 33.1346C19.0556 33.0515 19.0562 32.9636 19.0804 32.8808C19.1046 32.798 19.1514 32.7237 19.2156 32.6661C19.2415 32.6385 19.2679 32.6136 19.2945 32.59C19.3029 32.5826 19.3113 32.5758 19.3198 32.5687C19.3388 32.5528 19.3581 32.5378 19.3775 32.5237C19.3868 32.5171 19.396 32.5103 19.4053 32.504C19.4272 32.4893 19.4493 32.4759 19.4716 32.4633C19.4778 32.4598 19.4839 32.4558 19.4901 32.4525C19.5178 32.4378 19.5459 32.4249 19.5744 32.4132C19.5848 32.4089 19.5954 32.4054 19.6059 32.4015C19.6251 32.3944 19.6444 32.3878 19.664 32.382C19.6762 32.3783 19.6886 32.3748 19.7011 32.3716C19.7204 32.3667 19.7399 32.3625 19.7596 32.3586C19.7713 32.3564 19.7828 32.3536 19.7946 32.3517C19.8239 32.347 19.8537 32.3433 19.8838 32.3407C19.8965 32.3396 19.9095 32.3392 19.9224 32.3385C19.9423 32.3374 19.9625 32.3364 19.9828 32.3363C19.9969 32.3361 20.0111 32.3363 20.0253 32.3364C20.0483 32.3367 20.0716 32.3375 20.0952 32.3388C20.1066 32.3395 20.1179 32.3399 20.1295 32.3407C20.1651 32.3433 20.2012 32.3468 20.238 32.3513L20.2501 32.353C20.2873 32.3578 20.3251 32.3634 20.3635 32.3698L20.3695 32.3709C20.4112 32.378 20.4534 32.386 20.4964 32.3948C20.5023 32.4106 20.5099 32.4257 20.5169 32.441C20.5222 32.4528 20.5267 32.4649 20.5326 32.4764C20.5418 32.4947 20.5521 32.5124 20.5623 32.5302C20.5682 32.5403 20.5734 32.5507 20.5796 32.5608C20.5915 32.5804 20.6043 32.5995 20.617 32.6186C20.6221 32.6264 20.627 32.6343 20.6322 32.642C20.6502 32.6686 20.6686 32.6947 20.6868 32.7206C20.7036 32.7444 20.7202 32.7681 20.7364 32.7918C20.74 32.7969 20.7431 32.8021 20.7467 32.8072C20.7594 32.826 20.772 32.8448 20.7839 32.8638C20.787 32.8688 20.7898 32.874 20.7929 32.8791C20.8046 32.8983 20.8162 32.9176 20.8267 32.9373C20.8289 32.9416 20.8308 32.946 20.833 32.9503C20.8436 32.9709 20.8538 32.9917 20.8626 33.0131C20.8642 33.017 20.8653 33.0211 20.8668 33.0251C20.8755 33.0469 20.883 33.0691 20.8893 33.0918C20.8905 33.0964 20.8911 33.1013 20.8923 33.106C20.8979 33.1284 20.9021 33.1511 20.9049 33.174C20.9057 33.1811 20.9056 33.1887 20.9061 33.1959C20.9079 33.2171 20.9084 33.2385 20.9077 33.2597C20.9072 33.2727 20.9051 33.2863 20.9035 33.2995C20.9022 33.3127 20.9005 33.3259 20.8982 33.3393Z"
    fill="#2B2129" />
  <path
    d="M20.9911 33.4503L20.5436 33.4487C20.194 33.4476 19.8444 33.446 19.4948 33.4439L19.464 33.4438C19.2902 33.4432 19.0519 33.4426 18.9724 33.1651C18.944 33.0637 18.9441 32.9563 18.9728 32.8549C19.0015 32.7535 19.0576 32.662 19.135 32.5905C19.1633 32.5604 19.1921 32.5332 19.2212 32.5073L19.2427 32.4891C19.2701 32.4663 19.2914 32.4497 19.3129 32.4342L19.3438 32.4124C19.3682 32.396 19.3928 32.381 19.4178 32.367L19.4385 32.355C19.4691 32.3388 19.5006 32.3241 19.5327 32.311L19.5592 32.301C19.5894 32.29 19.6109 32.2826 19.6327 32.2761L19.674 32.2646C19.6953 32.2591 19.7169 32.2545 19.7387 32.2502L19.7773 32.2427C19.8093 32.2375 19.8418 32.2335 19.8748 32.2307L19.9049 32.2289C19.9382 32.2271 19.9598 32.2261 19.9818 32.2258L20.0272 32.2259C20.0518 32.2263 20.0766 32.2272 20.1016 32.2286L20.1378 32.2305C20.1754 32.2333 20.2133 32.2369 20.2519 32.2416C20.3032 32.2482 20.3424 32.2541 20.3824 32.2608C20.4314 32.2692 20.4749 32.2774 20.519 32.2865L20.5789 32.2988L20.6248 32.4111C20.6391 32.4414 20.6473 32.4556 20.6555 32.4698L20.6666 32.4895C20.6855 32.5215 20.6973 32.5393 20.7092 32.5572L20.6326 32.6421L20.724 32.58L20.8279 32.7294C20.852 32.7653 20.8653 32.7852 20.8778 32.8052C20.9004 32.8428 20.913 32.8639 20.9245 32.8854C20.9437 32.9233 20.9552 32.9469 20.9651 32.9712C20.9771 33.0013 20.9876 33.032 20.9964 33.0632C21.0045 33.0956 21.0107 33.1284 21.015 33.1615L21.0166 33.188C21.0187 33.2135 21.0193 33.239 21.0185 33.2645C21.0179 33.2772 21.0164 33.29 21.0148 33.3028C21.012 33.3271 21.0101 33.3426 21.0074 33.3584L20.9911 33.4503ZM20.8985 33.2595V33.2622L20.9078 33.26L20.8985 33.2595ZM19.2945 32.59L19.3679 32.6727C19.3437 32.6942 19.3197 32.7168 19.2962 32.7418C19.2455 32.7856 19.2081 32.8429 19.1885 32.907C19.1688 32.971 19.1675 33.0394 19.1849 33.1041C19.2147 33.208 19.2682 33.222 19.4647 33.2226L19.4961 33.2227C19.8457 33.2253 20.1951 33.2269 20.5444 33.2275L20.7973 33.2284C20.797 33.2203 20.7965 33.2123 20.7959 33.2044C20.7944 33.18 20.7907 33.1559 20.7849 33.1322C20.7795 33.1095 20.7725 33.0871 20.7639 33.0654C20.7554 33.0434 20.7456 33.0219 20.7347 33.001C20.7197 32.9717 20.7091 32.9542 20.6985 32.9369L20.5247 32.6797C20.5113 32.6595 20.4979 32.6393 20.4852 32.6186L20.4723 32.5959C20.4533 32.5625 20.443 32.5446 20.4338 32.5263L20.4207 32.4975L20.4257 32.4937C20.4005 32.4888 20.3756 32.4843 20.3509 32.4801C20.3081 32.4728 20.2718 32.4675 20.2359 32.4629C20.1895 32.457 20.1551 32.4537 20.1213 32.4512L20.0891 32.4495C20.067 32.4483 20.0451 32.4475 20.0236 32.4473L19.9843 32.4472C19.9654 32.4474 19.9469 32.4483 19.9285 32.4494L19.8931 32.4513C19.8658 32.4536 19.8389 32.457 19.8123 32.4613L19.7808 32.4675C19.7633 32.471 19.7458 32.4747 19.7286 32.4791L19.6954 32.4884C19.6782 32.4935 19.6611 32.4994 19.6441 32.5056L19.5743 32.4136L19.6163 32.5159C19.5912 32.5262 19.5664 32.5376 19.542 32.5505C19.5058 32.5713 19.4862 32.5832 19.4668 32.5962L19.4453 32.6114C19.4247 32.6263 19.4075 32.6398 19.3904 32.654L19.2945 32.59ZM20.4875 32.4382L20.4858 32.4467L20.5106 32.4274L20.4875 32.4382Z"
    fill="#2B2129" />
  <path
    d="M20.5173 32.3484C20.0513 32.2513 19.567 32.2192 19.1794 32.632C19.1089 32.6957 19.0577 32.7777 19.0315 32.869C19.0052 32.9602 19.005 33.0569 19.0308 33.1482C19.0978 33.3818 19.2925 33.3823 19.4642 33.3828L19.4952 33.383C19.8353 33.3855 20.1754 33.3871 20.5154 33.3877L20.8936 33.3891C20.893 33.405 20.892 33.4206 20.891 33.4363C20.8898 33.4558 20.8888 33.4755 20.8872 33.4946C20.8855 33.5142 20.883 33.5334 20.8807 33.5526C20.8785 33.5713 20.8765 33.5902 20.8738 33.6084C20.871 33.6273 20.8674 33.6457 20.864 33.6642C20.8607 33.6821 20.8578 33.7002 20.854 33.7177C20.8501 33.7359 20.8454 33.7536 20.8409 33.7714C20.8367 33.7884 20.8327 33.8057 20.8279 33.8224C20.8229 33.84 20.8171 33.8569 20.8115 33.874C20.8063 33.8902 20.8013 33.9066 20.7956 33.9225C20.7895 33.9393 20.7826 33.9554 20.7759 33.9717C20.7697 33.9872 20.7637 34.0028 20.757 34.0179C20.7499 34.0338 20.7419 34.049 20.7342 34.0645C20.7269 34.0792 20.72 34.0942 20.7122 34.1085C20.704 34.1236 20.695 34.138 20.6863 34.1527C20.678 34.1666 20.6701 34.1808 20.6614 34.1943C20.6521 34.2086 20.6419 34.2222 20.6321 34.2361C20.6229 34.2491 20.6141 34.2624 20.6044 34.275C20.594 34.2886 20.5827 34.3015 20.5718 34.3145C20.5617 34.3266 20.552 34.339 20.5415 34.3507C20.5299 34.3636 20.5174 34.3757 20.5052 34.3881C20.4943 34.3991 20.4839 34.4107 20.4725 34.4214C20.4598 34.4335 20.446 34.4448 20.4327 34.4564C20.421 34.4665 20.4098 34.4771 20.3977 34.4869C20.3835 34.4984 20.3684 34.509 20.3536 34.5199C20.3414 34.529 20.3296 34.5385 20.3169 34.5472C20.3006 34.5584 20.2834 34.5687 20.2664 34.5793C20.2543 34.5869 20.2427 34.5948 20.2303 34.6021C20.2115 34.6132 20.1917 34.6232 20.1721 34.6335C20.1606 34.6395 20.1496 34.646 20.1378 34.6518C20.1061 34.6674 20.0734 34.6822 20.0397 34.696C19.7588 34.7921 19.4617 34.8318 19.1654 34.8129C19.0922 34.8129 19.0188 34.8131 18.9455 34.8149L18.9174 34.7888L18.9457 34.8151L18.8438 34.7206L18.8427 34.7196C18.4795 34.4379 18.2222 34.0417 18.1125 33.5954C18.0029 33.149 18.0474 32.6787 18.2388 32.2608C18.2607 32.2101 18.2844 32.1613 18.3096 32.1134C18.3177 32.0979 18.3267 32.0832 18.3351 32.0681C18.3528 32.0364 18.3706 32.0049 18.3897 31.9746C18.4005 31.9574 18.4119 31.941 18.4231 31.9243C18.4413 31.8972 18.4598 31.8703 18.4791 31.8444C18.4915 31.8277 18.5043 31.8115 18.5172 31.7953C18.5369 31.7706 18.5571 31.7464 18.5777 31.7228C18.5912 31.7075 18.6048 31.6924 18.6186 31.6775C18.6405 31.6542 18.663 31.6317 18.6858 31.6096C18.6997 31.5963 18.7134 31.5827 18.7277 31.5698C18.7529 31.5469 18.7791 31.5251 18.8055 31.5036C18.8183 31.4931 18.8308 31.4822 18.8439 31.4722C18.8776 31.4462 18.9125 31.4217 18.9478 31.3981C18.9545 31.3937 18.9607 31.3888 18.9673 31.3845C19.0104 31.3565 19.0547 31.3303 19.1001 31.306C19.1079 31.3018 19.116 31.2983 19.1238 31.2943C19.1611 31.2749 19.1988 31.2564 19.2374 31.2395C19.2521 31.2331 19.2672 31.2274 19.2821 31.2213C19.3148 31.2081 19.3476 31.1951 19.3812 31.1835C19.3984 31.1775 19.416 31.1721 19.4335 31.1665C19.4656 31.1564 19.498 31.1468 19.5309 31.1382C19.5495 31.1333 19.5683 31.1288 19.5871 31.1244C19.6201 31.1168 19.6534 31.11 19.687 31.1039C19.7061 31.1005 19.7251 31.097 19.7444 31.0941C19.7794 31.0887 19.8148 31.0846 19.8505 31.081C19.8689 31.0791 19.8871 31.0768 19.9057 31.0754C19.9455 31.0723 19.9858 31.0708 20.0263 31.0699C20.0411 31.0695 20.0557 31.0685 20.0706 31.0684C20.1117 31.0682 20.1533 31.0701 20.195 31.072C20.2117 31.0728 20.2282 31.0726 20.2449 31.0738C20.3035 31.0778 20.3625 31.0837 20.4222 31.0919C20.4677 31.0974 20.5134 31.1004 20.5592 31.1008C20.5729 31.1011 20.5871 31.1017 20.6011 31.1022C20.6024 31.1101 20.605 31.1166 20.6067 31.1241C20.6088 31.1329 20.6107 31.142 20.6135 31.1503C20.6169 31.16 20.6209 31.1696 20.6254 31.1789C20.6288 31.1863 20.632 31.1939 20.636 31.2008C20.6411 31.2092 20.6466 31.2173 20.6526 31.2251C20.657 31.2312 20.6612 31.2376 20.6661 31.2433C20.6726 31.2508 20.6798 31.2575 20.6869 31.2643C20.6921 31.2693 20.697 31.2746 20.7024 31.2792C20.7101 31.2858 20.7185 31.2916 20.7267 31.2976C20.7322 31.3015 20.7375 31.3058 20.7432 31.3096C20.7523 31.3155 20.7617 31.3208 20.7711 31.3262C20.7766 31.3293 20.7818 31.3327 20.7874 31.3357C20.7979 31.3413 20.8086 31.3466 20.8193 31.3518C20.8239 31.354 20.8285 31.3565 20.8331 31.3587C20.8483 31.3659 20.8635 31.3729 20.8784 31.3796L20.9083 31.3933C20.9604 31.4174 21.0105 31.4435 21.0585 31.4714C21.0739 31.4802 21.0879 31.4906 21.1029 31.4999C21.1347 31.5198 21.1669 31.5393 21.1969 31.5609C21.2127 31.5722 21.227 31.5849 21.2422 31.5967C21.2698 31.6181 21.2978 31.6391 21.3238 31.6621C21.3382 31.6748 21.3512 31.6889 21.3651 31.7021C21.3902 31.7261 21.4156 31.7497 21.4391 31.7753C21.452 31.7893 21.4636 31.8047 21.4761 31.8191C21.4988 31.8457 21.5218 31.8722 21.543 31.9005C21.555 31.9166 21.5659 31.9341 21.5775 31.9508C21.5971 31.9791 21.6169 32.0072 21.6349 32.0371C21.6474 32.0576 21.6585 32.0794 21.6703 32.1006C21.6856 32.1282 21.7012 32.1555 21.7153 32.1844C21.7295 32.2133 21.7421 32.2432 21.755 32.2732C21.7628 32.2913 21.7709 32.3091 21.7783 32.3277L20.5173 32.3484Z"
    fill="#CBA58C" />
  <path
    d="M18.9034 34.9264L18.8706 34.8961L18.7689 34.8017C18.3878 34.505 18.1181 34.0884 18.0035 33.6192C17.8889 33.15 17.9361 32.6559 18.1375 32.217C18.1605 32.1637 18.1855 32.1122 18.2119 32.062L18.2297 32.0301C18.2574 31.9809 18.2762 31.9478 18.2963 31.9158L18.3228 31.8755C18.3506 31.8341 18.3701 31.8058 18.3905 31.7784L18.4308 31.7266C18.4516 31.7004 18.4729 31.6748 18.4948 31.6499L18.5381 31.602C18.5612 31.5773 18.585 31.5535 18.6092 31.5301L18.6534 31.488C18.6801 31.4636 18.7078 31.4406 18.7357 31.4178L18.7765 31.3847C18.8122 31.3572 18.849 31.3312 18.8865 31.3062L18.9071 31.2919C18.9528 31.2623 18.9997 31.2346 19.0477 31.2087L19.0728 31.1963C19.1122 31.1758 19.1521 31.1563 19.193 31.1384L19.2251 31.1251C19.2747 31.105 19.3094 31.0914 19.3448 31.0791L19.3899 31.0644C19.434 31.0504 19.4682 31.0404 19.5029 31.0312L19.5621 31.0167C19.5968 31.0086 19.6319 31.0015 19.6673 30.9951L19.7276 30.9848C19.7644 30.9791 19.8017 30.9748 19.8391 30.971L19.897 30.9651C19.9387 30.9619 19.981 30.9603 20.0235 30.9593L20.0699 30.9578C20.1128 30.9576 20.1564 30.9595 20.2 30.9615L20.2522 30.9634C20.3133 30.9676 20.3749 30.9739 20.4371 30.9824C20.4782 30.9873 20.5196 30.9899 20.561 30.9902L20.688 30.9947L20.7409 31.1588L20.7889 31.2062L20.9544 31.2928C21.01 31.3186 21.0629 31.3462 21.1139 31.3757C21.1249 31.3821 21.1354 31.389 21.1458 31.3959L21.1128 31.5061L21.1711 31.4121C21.2018 31.4312 21.2325 31.4503 21.2614 31.4711C21.2728 31.4792 21.2835 31.488 21.2943 31.4968L21.2422 31.5967L21.3215 31.5182C21.3472 31.5382 21.3728 31.5581 21.397 31.5793C21.4075 31.5885 21.4174 31.5984 21.4272 31.6082L21.3651 31.7022L21.4503 31.6306C21.4742 31.6533 21.4981 31.6761 21.5205 31.7005C21.5299 31.7107 21.5387 31.7214 21.5476 31.7322L21.4817 31.8257L21.5657 31.7538C21.5882 31.78 21.6106 31.8063 21.6315 31.8343C21.6404 31.8461 21.6487 31.8584 21.657 31.8708L21.5775 31.9508L21.6733 31.8948C21.6925 31.9226 21.7117 31.9504 21.7296 31.9797C21.7391 31.9954 21.748 32.0118 21.7568 32.0282L21.6704 32.1006L21.7735 32.0586C21.7876 32.0839 21.8016 32.1092 21.8147 32.1357C21.8277 32.1623 21.8397 32.1903 21.8517 32.2181L21.7775 32.2744V32.2797L21.8622 32.2426L21.9408 32.4357L20.5069 32.4593L20.4949 32.4567C19.9933 32.3523 19.5913 32.355 19.26 32.7079C19.203 32.7577 19.1612 32.8226 19.1395 32.8952C19.1177 32.9677 19.1169 33.0449 19.1372 33.1179C19.1771 33.2572 19.2676 33.2719 19.4647 33.2724L19.4958 33.2726C19.836 33.275 20.176 33.2766 20.5159 33.2773L21.0085 33.2791L20.992 33.5538L20.8792 33.5663L20.9891 33.579L20.9752 33.6718L20.8617 33.6779L20.9705 33.6972L20.9513 33.7863L20.8377 33.785L20.9451 33.8113L20.9208 33.8961L20.8073 33.8876L20.9127 33.9211L20.8834 34.0015L20.7708 33.9849L20.8736 34.0258L20.8392 34.1022L20.7281 34.0773L20.8276 34.1257L20.7883 34.198L20.679 34.1651L20.7744 34.2209L20.7301 34.2892L20.6237 34.2482L20.7146 34.3112L20.6654 34.3751L20.5623 34.3261L20.6479 34.396L20.5939 34.4557L20.4947 34.399L20.5746 34.4755L20.5161 34.5305L20.4211 34.4668L20.4946 34.5493L20.4672 34.5729C20.4555 34.5823 20.4433 34.5913 20.4311 34.6002L20.3409 34.5295L20.408 34.6174L20.3797 34.6382C20.3659 34.6476 20.3516 34.6566 20.3372 34.6655L20.2532 34.5879L20.3134 34.6806L20.2863 34.6976C20.2697 34.7072 20.2524 34.7163 20.2351 34.7253L20.1586 34.6408L20.212 34.7376L20.1868 34.751C20.1529 34.7677 20.1179 34.7834 20.0819 34.7982C19.7154 34.9114 19.3309 34.9545 18.9484 34.9253L18.9034 34.9264ZM18.9476 31.3981L19.0089 31.4901C18.9756 31.5122 18.943 31.5353 18.9112 31.5597L18.8901 31.577C18.8503 31.6096 18.8256 31.63 18.8018 31.6516L18.7706 31.6812C18.741 31.71 18.7198 31.7311 18.6992 31.753L18.6607 31.7957C18.6412 31.818 18.6221 31.8408 18.6036 31.8641L18.5676 31.9104C18.5494 31.9349 18.532 31.9602 18.5148 31.9859L18.4832 32.0334C18.4652 32.0621 18.4483 32.0919 18.4316 32.1218L18.4072 32.1647C18.3835 32.21 18.3608 32.2565 18.3401 32.3045C18.1589 32.7005 18.1168 33.1461 18.2208 33.569C18.3248 33.9919 18.5686 34.3672 18.9128 34.634L18.9878 34.7033C19.3283 34.7299 19.6709 34.6927 19.9978 34.5936C20.0291 34.5807 20.0595 34.5671 20.089 34.5525L20.1207 34.5355C20.1468 34.5218 20.161 34.5145 20.1745 34.5066L20.5504 34.1602L20.7216 33.7921L20.7755 33.4992L20.5151 33.4983C20.1749 33.4972 19.8347 33.4956 19.4944 33.4935L19.4638 33.4934C19.285 33.4929 19.0145 33.4921 18.9246 33.1787C18.8934 33.069 18.8932 32.9528 18.924 32.843C18.9547 32.7332 19.0152 32.634 19.0988 32.5564C19.5217 32.106 20.0574 32.141 20.5277 32.2376L21.6093 32.2198C21.6 32.2016 21.59 32.1838 21.5801 32.166L21.5622 32.1333C21.5551 32.1201 21.548 32.107 21.5404 32.0945C21.5249 32.069 21.5082 32.045 21.4914 32.0209L21.4543 31.9667C21.4363 31.9427 21.417 31.9202 21.3976 31.8976L21.3578 31.8502C21.3387 31.8295 21.3183 31.8102 21.2981 31.7909L21.2506 31.7449C21.2302 31.7268 21.2084 31.7101 21.1865 31.6934L21.1324 31.6507C21.1075 31.6327 21.081 31.6164 21.0546 31.6L21.003 31.567C20.9578 31.5408 20.9108 31.5163 20.8618 31.4936L20.6621 31.3873C20.6502 31.3787 20.6404 31.3716 20.631 31.3637L20.6138 31.3477C20.5996 31.334 20.5906 31.3251 20.5822 31.3155L20.5661 31.2944C20.5567 31.2821 20.5481 31.2692 20.5401 31.256L20.527 31.2297C20.5237 31.2225 20.5207 31.2161 20.5181 31.21C20.4809 31.209 20.4437 31.2061 20.4068 31.2014C20.3498 31.1935 20.2933 31.1878 20.2373 31.184L20.1897 31.1824C20.1499 31.1805 20.1102 31.1787 20.071 31.1789L20.0287 31.1803C19.9902 31.1812 19.9519 31.1825 19.914 31.1856L19.8797 31.1889C19.8278 31.1944 19.7942 31.1982 19.761 31.2033L19.7094 31.2121C19.6748 31.2184 19.6432 31.2248 19.6121 31.232L19.5589 31.2451C19.5279 31.2532 19.4972 31.2623 19.4668 31.2719L19.4173 31.2878C19.3857 31.2989 19.3547 31.311 19.324 31.3236L19.2818 31.3407C19.2454 31.3566 19.2099 31.3741 19.1748 31.3923L19.1001 31.3059L19.1524 31.4032C19.1097 31.4262 19.068 31.4508 19.0274 31.4771L18.9476 31.3981Z"
    fill="#2B2129" />
  <path
    d="M35.8534 33.92C35.6847 35.0207 34.7454 35.5512 33.9854 35.8025H20.4672C20.4696 35.7981 20.4719 35.7934 20.4745 35.7891C20.4798 35.7804 20.4853 35.7719 20.491 35.7638C20.4977 35.7543 20.5046 35.7452 20.5118 35.7364C20.518 35.7289 20.5243 35.7215 20.5309 35.7145C20.5385 35.7062 20.5465 35.6984 20.5547 35.6909C20.5616 35.6844 20.5685 35.678 20.5758 35.672C20.5845 35.6647 20.5935 35.6579 20.6026 35.6513C20.6101 35.6458 20.6174 35.6402 20.6251 35.635C20.6348 35.6285 20.6449 35.6224 20.6549 35.6164C20.6626 35.6117 20.6702 35.6069 20.6781 35.6025C20.6891 35.5964 20.7004 35.5905 20.7117 35.5847C20.7192 35.5809 20.7264 35.5769 20.7338 35.5732C20.7472 35.5666 20.7609 35.5603 20.7747 35.554C20.7804 35.5514 20.786 35.5486 20.7918 35.546C20.8113 35.5372 20.831 35.5284 20.8509 35.5198C20.8758 35.5089 20.9006 35.4978 20.9255 35.4864C21.0225 35.4471 21.1109 35.3892 21.1858 35.316C21.199 35.302 21.2115 35.2872 21.2231 35.2717C21.2812 35.2233 21.3368 35.1734 21.3897 35.1219L21.3939 35.1175C22.1399 34.3878 22.3522 33.3683 21.9359 32.5196C21.9065 32.4595 21.8739 32.4003 21.8381 32.3419C21.7131 31.9953 21.4818 31.6971 21.1773 31.4897C21.0984 31.4359 21.0154 31.3885 20.9291 31.348L20.8989 31.3342C20.8842 31.3275 20.8696 31.3209 20.8552 31.314L20.8456 31.3093C20.8345 31.304 20.8237 31.2987 20.8132 31.2931C20.8084 31.2906 20.804 31.2878 20.7993 31.2852C20.7906 31.2803 20.7819 31.2754 20.7737 31.2702C20.7687 31.267 20.764 31.2634 20.7592 31.26C20.7519 31.255 20.7446 31.2498 20.7378 31.2442C20.733 31.2403 20.7286 31.236 20.7241 31.2318C20.718 31.2261 20.712 31.2203 20.7064 31.2141C20.7022 31.2094 20.6985 31.2042 20.6946 31.1991C20.6896 31.1926 20.685 31.1858 20.6807 31.1788C20.6773 31.1731 20.6743 31.167 20.6714 31.1609C20.6676 31.1531 20.6643 31.1452 20.6615 31.1371C20.6592 31.1303 20.6571 31.1232 20.6554 31.1159C20.6543 31.1117 20.6537 31.1071 20.6528 31.1027L22.0568 31.1024C25.6421 31.1019 29.2274 31.1012 32.8127 31.1002C32.9694 31.1002 33.1287 31.097 33.2828 31.0939C33.3562 31.0924 33.4296 31.0911 33.5031 31.0898C34.7755 31.1446 35.6513 31.8439 35.8459 32.9607C35.9012 33.2779 35.9038 33.602 35.8534 33.92Z"
    fill="#D7AF94" />
  <path
    d="M34.0032 35.9132H20.2783L20.3707 35.7485C20.3798 35.732 20.3898 35.7159 20.4005 35.7003C20.4088 35.6885 20.4174 35.6772 20.4264 35.6662C20.4341 35.6569 20.4419 35.6478 20.4501 35.639C20.4596 35.6289 20.4694 35.6192 20.4795 35.6099L20.5051 35.5871C20.5155 35.5784 20.5262 35.5702 20.5371 35.5622L20.7285 35.4537L20.8794 35.3861C20.9632 35.3524 21.0398 35.3031 21.105 35.2406C21.1155 35.2295 21.1254 35.2178 21.1347 35.2055L21.1523 35.1869C21.2083 35.1404 21.2617 35.0923 21.3125 35.0428C22.0275 34.3433 22.2316 33.3737 21.8366 32.5685C21.8086 32.5113 21.7777 32.4551 21.7438 32.3998C21.6706 32.192 21.5567 32.0009 21.4088 31.8375C21.2609 31.6742 21.082 31.5419 20.8825 31.4485L20.6957 31.3508C20.6862 31.3442 20.6767 31.3373 20.6677 31.33L20.6488 31.313C20.6402 31.305 20.6317 31.2967 20.6238 31.2878L20.608 31.2682C20.5999 31.2577 20.5925 31.2469 20.5857 31.2356L20.5717 31.209C20.5661 31.1975 20.5612 31.1857 20.557 31.1736L20.548 31.1431L20.5223 31.0113L20.6527 30.9923L32.8127 30.9899C32.9667 30.9899 33.123 30.9867 33.2745 30.9837L33.5014 30.9795C34.8359 31.0367 35.7507 31.7703 35.9549 32.9419C36.0123 33.2709 36.0149 33.607 35.9627 33.9368C35.7855 35.0933 34.8085 35.6468 34.0201 35.9076L34.0032 35.9132ZM20.7454 35.6921H33.9675C34.6942 35.4486 35.5851 34.9412 35.7442 33.9032C35.7927 33.5972 35.7903 33.2851 35.737 32.9798C35.552 31.918 34.7151 31.2529 33.4984 31.2004L33.29 31.2045C33.126 31.2077 32.9682 31.2109 32.8127 31.2109L20.9011 31.2133L20.9751 31.2475C21.067 31.2906 21.1553 31.3409 21.2392 31.3981C21.5626 31.6183 21.8084 31.9348 21.9416 32.3027C21.9762 32.3569 22.0075 32.4132 22.0353 32.4712C22.4731 33.3634 22.2517 34.4333 21.4713 35.1966C21.4152 35.2515 21.3604 35.301 21.3035 35.3488C21.2916 35.364 21.2791 35.3784 21.2661 35.3921C21.1816 35.4755 21.0816 35.5417 20.9718 35.5869L20.7826 35.6725L20.7119 35.5847L20.7624 35.6831L20.7454 35.6921ZM20.7005 35.6921H20.7256L20.6549 35.6165L20.7005 35.6921ZM20.6325 35.6921H20.648L20.6027 35.6514L20.6325 35.6921Z"
    fill="#2B2129" />
  <path
    d="M31.5657 23.1351C31.4272 23.2045 31.2716 23.2327 31.1175 23.2165C29.7311 23.2065 28.3212 23.208 26.9578 23.2096C26.4477 23.2102 25.9376 23.2106 25.4274 23.2108C24.9203 23.2104 24.4129 23.21 23.9052 23.2095C23.5717 23.209 23.2358 23.2087 22.8974 23.2083C21.8833 23.2076 20.8534 23.2087 19.8363 23.2169C19.6743 23.2342 19.5107 23.2049 19.3647 23.1325C19.3166 23.0939 19.2794 23.0434 19.2567 22.9859C19.2341 22.9285 19.2269 22.8662 19.2357 22.8051C19.229 22.7496 19.2367 22.6934 19.258 22.6418C19.2794 22.5902 19.3136 22.545 19.3576 22.5105C19.3687 22.503 19.3803 22.4963 19.3923 22.4903C19.5307 22.4382 19.6788 22.4168 19.8263 22.4276H19.8346C23.8368 22.4367 27.5268 22.4364 31.1156 22.4269C31.2712 22.4115 31.4279 22.4403 31.5678 22.51C31.6135 22.5467 31.6489 22.5946 31.6704 22.649C31.692 22.7035 31.6991 22.7626 31.6909 22.8206C31.6991 22.8794 31.6919 22.9393 31.67 22.9944C31.648 23.0496 31.6121 23.098 31.5657 23.1351Z"
    fill="#C2956D" />
  <path
    d="M19.8164 23.3275C19.6388 23.3443 19.4601 23.3083 19.3028 23.2242C19.2402 23.1749 19.1911 23.1107 19.1601 23.0374C19.129 22.9641 19.117 22.8841 19.1252 22.8049C19.118 22.7314 19.1299 22.6572 19.1598 22.5897C19.1896 22.5221 19.2363 22.4634 19.2954 22.4191C19.3106 22.4088 19.3265 22.3996 19.3429 22.3914C19.4964 22.3306 19.6616 22.3052 19.8263 22.3171C23.8241 22.3262 27.5141 22.326 31.1153 22.3164C31.2932 22.2988 31.4723 22.3344 31.63 22.4187C31.6844 22.471 31.7276 22.5339 31.7571 22.6034C31.7866 22.6729 31.8016 22.7477 31.8014 22.8232C31.8012 22.8988 31.7857 22.9735 31.7558 23.0428C31.7259 23.1122 31.6823 23.1748 31.6275 23.2268C31.471 23.3103 31.2932 23.3452 31.1167 23.3271C29.7244 23.317 28.318 23.3187 26.958 23.3202L25.4274 23.3214L22.8974 23.319C21.8835 23.3183 20.8539 23.3193 19.8371 23.3275L19.8164 23.3275ZM19.8343 22.5383C19.7013 22.5281 19.5676 22.5455 19.4416 22.5893C19.434 22.5931 19.4267 22.5973 19.4197 22.6021C19.3857 22.6251 19.3467 22.6691 19.3463 22.8055C19.3459 22.965 19.3867 23.0141 19.4266 23.041C19.5547 23.0988 19.6959 23.1214 19.8356 23.1065C20.8527 23.0983 21.8831 23.0972 22.8975 23.0979L25.4275 23.1003L26.9576 23.0992C28.3181 23.0976 29.7249 23.096 31.1182 23.106C31.25 23.1201 31.3832 23.0985 31.5039 23.0435C31.5416 23.0181 31.5801 22.9717 31.5803 22.8206C31.5804 22.6725 31.5427 22.6267 31.5056 22.6015C31.3833 22.5466 31.2487 22.5246 31.1153 22.5376C27.5144 22.547 23.8242 22.5473 19.8343 22.5383Z"
    fill="#2B2129" />
  <path
    d="M19.7936 26.8007H19.8006C23.597 26.8113 27.409 26.8112 31.1308 26.8005H31.1382C31.6021 26.8005 31.6836 26.9271 31.69 27.2094C31.6986 27.2657 31.6922 27.3233 31.6716 27.3764C31.651 27.4295 31.6169 27.4763 31.5725 27.5121C31.4269 27.5858 31.2628 27.615 31.1007 27.5961C29.7243 27.5866 28.3248 27.5881 26.9715 27.5895C25.9629 27.5906 24.9543 27.5906 23.9457 27.5895C23.6076 27.5891 23.267 27.5888 22.924 27.5885C21.8957 27.5878 20.8512 27.5889 19.8198 27.5962C19.6606 27.6137 19.4997 27.5848 19.3566 27.513C19.3113 27.4768 19.2765 27.4294 19.2554 27.3754C19.2343 27.3215 19.2278 27.2629 19.2366 27.2057C19.2404 26.9316 19.3249 26.8007 19.7936 26.8007Z"
    fill="#C2956D" />
  <path
    d="M19.7932 27.7068C19.6202 27.7232 19.4463 27.6874 19.2938 27.6041C19.234 27.5572 19.1873 27.4959 19.1579 27.4259C19.1285 27.3559 19.1175 27.2795 19.1259 27.204C19.1312 26.8294 19.3121 26.6901 19.7935 26.6901H19.8006C23.5931 26.7007 27.4049 26.7006 31.1305 26.6899C31.6186 26.6899 31.7919 26.8252 31.8005 27.2069C31.81 27.2816 31.7998 27.3575 31.7708 27.4269C31.7418 27.4964 31.6952 27.5571 31.6355 27.6029C31.4717 27.6917 31.2846 27.7278 31.0996 27.7066C29.7176 27.697 28.3216 27.6985 26.9716 27.6999C25.9629 27.701 24.9542 27.701 23.9455 27.6999L22.9238 27.6989C21.8957 27.6983 20.8516 27.6993 19.8205 27.7067C19.8113 27.7068 19.8022 27.7068 19.7932 27.7068ZM19.7935 26.8006V26.9112C19.3512 26.9112 19.3496 27.0226 19.347 27.2072C19.345 27.3512 19.3824 27.3966 19.4192 27.4219C19.5443 27.4783 19.6823 27.5002 19.8187 27.4856C20.8507 27.4783 21.8954 27.4772 22.9239 27.4779L23.9458 27.4789C24.9544 27.48 25.9629 27.48 26.9714 27.4789C28.3219 27.4774 29.7183 27.4759 31.1015 27.4855C31.2408 27.5013 31.3818 27.4791 31.5096 27.4212C31.5438 27.3975 31.5827 27.3523 31.5794 27.212C31.575 27.018 31.5727 26.9111 31.1382 26.9111C27.4052 26.9218 23.5929 26.9218 19.8002 26.9112L19.7935 26.8006Z"
    fill="#2B2129" />
  <path
    d="M19.7923 24.6147H19.7995C23.588 24.6252 27.4001 24.6252 31.1299 24.6147H31.1374C31.6029 24.6147 31.6843 24.7397 31.6901 25.0184C31.6985 25.0746 31.6919 25.132 31.671 25.1849C31.6502 25.2377 31.6157 25.2842 31.5712 25.3195C31.4259 25.3913 31.2632 25.4202 31.1021 25.4029C29.7117 25.3937 28.2981 25.3951 26.9311 25.3965C25.9244 25.3976 24.9176 25.3976 23.9108 25.3965C22.5703 25.3951 21.184 25.3936 19.8209 25.403C19.6616 25.4206 19.5005 25.3919 19.3571 25.3203C19.3122 25.2846 19.2775 25.2377 19.2564 25.1843C19.2352 25.131 19.2284 25.073 19.2367 25.0162C19.2407 24.7445 19.3251 24.6147 19.7923 24.6147Z"
    fill="#C2956D" />
  <path
    d="M19.7905 25.5136C19.6189 25.5288 19.4466 25.4933 19.2949 25.4115C19.2345 25.3658 19.1872 25.3051 19.1576 25.2355C19.1279 25.1658 19.1171 25.0896 19.1261 25.0144C19.1316 24.6425 19.3122 24.5042 19.7923 24.5042H19.7994C23.5888 24.5147 27.4007 24.5146 31.1296 24.5042C31.6193 24.5042 31.7928 24.6381 31.8006 25.0161C31.8099 25.0907 31.7994 25.1665 31.7701 25.2358C31.7408 25.305 31.6937 25.3654 31.6337 25.4107C31.4704 25.497 31.2851 25.5328 31.1015 25.5134C29.7011 25.5042 28.293 25.5056 26.9313 25.5071C25.9245 25.5081 24.9176 25.5081 23.9108 25.5071H23.8786C22.5486 25.5057 21.1735 25.5043 19.8217 25.5135C19.8111 25.5136 19.8007 25.5136 19.7905 25.5136ZM19.7923 24.6147V24.7253C19.3516 24.7253 19.3499 24.8353 19.3472 25.0177C19.3451 25.1598 19.3847 25.2051 19.4194 25.2287C19.5447 25.2851 19.6829 25.3071 19.8196 25.2923C21.1727 25.283 22.5483 25.2844 23.8787 25.2858H23.9109C24.9175 25.2868 25.9242 25.2868 26.9309 25.2858C28.293 25.2844 29.7016 25.2829 31.1027 25.2921C31.2413 25.3065 31.3813 25.2844 31.5087 25.228C31.5431 25.2044 31.5823 25.1595 31.5795 25.0204C31.5756 24.83 31.5734 24.7251 31.1374 24.7251C27.4008 24.7356 23.5885 24.7356 19.7991 24.7251L19.7923 24.6147Z"
    fill="#2B2129" />
  <path
    d="M31.5719 29.6991C31.4538 29.7617 31.3206 29.7903 31.1872 29.7817C31.1602 29.7823 31.1318 29.7825 31.102 29.7821C29.7248 29.7726 28.3245 29.7742 26.9705 29.7755C25.9639 29.7765 24.9573 29.7765 23.9508 29.7755C22.5973 29.7741 21.1975 29.7725 19.821 29.7821C19.6612 29.7995 19.4999 29.7708 19.3558 29.6996C19.3111 29.6639 19.2766 29.6171 19.2557 29.5638C19.2347 29.5106 19.2281 29.4528 19.2364 29.3962C19.2408 29.124 19.3252 28.994 19.792 28.994H19.7991C21.6904 28.9992 23.5891 29.0019 25.4819 29.0019C27.3747 29.0018 29.2616 28.9992 31.1293 28.9939H31.1366C31.6025 28.9939 31.6841 29.119 31.6899 29.3981C31.6984 29.4542 31.692 29.5116 31.6712 29.5644C31.6505 29.6173 31.6163 29.6637 31.5719 29.6991Z"
    fill="#C2956D" />
  <path
    d="M19.7958 29.8928C19.622 29.9086 19.4475 29.8732 19.2936 29.7909C19.2335 29.7452 19.1864 29.6846 19.1569 29.615C19.1275 29.5454 19.1168 29.4694 19.126 29.3944C19.132 29.0219 19.3126 28.8834 19.7921 28.8834C21.6908 28.8887 23.5874 28.8913 25.482 28.8913C27.3748 28.8913 29.2615 28.8886 31.1292 28.8833C31.619 28.8833 31.7927 29.0174 31.8006 29.3957C31.81 29.4703 31.7996 29.546 31.7704 29.6152C31.7412 29.6845 31.6943 29.7448 31.6345 29.7902C31.4991 29.8661 31.3448 29.9015 31.1898 29.8921C31.1617 29.8927 31.1321 29.8929 31.101 29.8926C29.7312 29.8831 28.3377 29.8846 26.99 29.886C25.964 29.887 24.9575 29.8871 23.9509 29.886C22.5932 29.8845 21.1958 29.883 19.8219 29.8926C19.8131 29.8928 19.8044 29.8928 19.7958 29.8928ZM19.7989 29.1045C19.3518 29.1045 19.3501 29.215 19.3471 29.398C19.3449 29.5397 19.3839 29.5848 19.4183 29.6083C19.5444 29.6644 19.683 29.6863 19.8202 29.6716C21.1952 29.6619 22.593 29.6634 23.9447 29.6649C24.9576 29.666 25.964 29.666 26.9705 29.6649C28.3379 29.6635 29.7318 29.662 31.1029 29.6716C31.1318 29.6718 31.159 29.6717 31.1848 29.6711C31.2967 29.6785 31.4086 29.6567 31.5095 29.6079C31.5437 29.5845 31.5825 29.5397 31.5796 29.4004C31.5756 29.2096 31.5734 29.1045 31.1368 29.1045C29.2564 29.1098 27.3659 29.1124 25.4653 29.1124C23.5778 29.1124 21.6848 29.1098 19.7989 29.1045Z"
    fill="#2B2129" />
  <path
    d="M31.5719 20.9459C31.4538 21.0085 31.3206 21.0371 31.1872 21.0285C31.1602 21.0291 31.1318 21.0293 31.102 21.029C29.7248 21.0194 28.3245 21.021 26.9705 21.0223C25.9639 21.0234 24.9573 21.0234 23.9508 21.0223C22.5973 21.0209 21.1975 21.0194 19.821 21.029C19.6612 21.0463 19.4999 21.0176 19.3558 20.9465C19.3111 20.9107 19.2766 20.8639 19.2557 20.8107C19.2347 20.7574 19.2281 20.6996 19.2364 20.643C19.2408 20.3708 19.3252 20.2408 19.792 20.2408H19.7991C21.6904 20.2461 23.5891 20.2487 25.4819 20.2487C27.3747 20.2486 29.2616 20.246 31.1293 20.2407H31.1366C31.6025 20.2407 31.6841 20.3658 31.6899 20.6449C31.6984 20.701 31.692 20.7584 31.6713 20.8112C31.6505 20.8641 31.6163 20.9105 31.5719 20.9459Z"
    fill="#C2956D" />
  <path
    d="M19.7958 21.1398C19.622 21.1557 19.4475 21.1202 19.2936 21.038C19.2335 20.9923 19.1864 20.9316 19.1569 20.8621C19.1275 20.7925 19.1168 20.7164 19.126 20.6414C19.132 20.2689 19.3126 20.1305 19.7921 20.1305C21.6908 20.1357 23.5874 20.1383 25.482 20.1383C27.3748 20.1383 29.2615 20.1357 31.1292 20.1304C31.619 20.1304 31.7927 20.2645 31.8006 20.6428C31.81 20.7173 31.7996 20.793 31.7704 20.8623C31.7412 20.9315 31.6943 20.9919 31.6345 21.0373C31.4991 21.1132 31.3448 21.1485 31.1898 21.1391C31.1617 21.1398 31.1321 21.14 31.101 21.1396C29.7312 21.1302 28.3377 21.1316 26.99 21.133C25.964 21.134 24.9575 21.1341 23.9509 21.133C22.5932 21.1315 21.1958 21.13 19.8219 21.1396C19.8131 21.1398 19.8044 21.1398 19.7958 21.1398ZM19.7989 20.3516C19.3518 20.3516 19.3501 20.462 19.3471 20.645C19.3449 20.7868 19.3839 20.8319 19.4183 20.8554C19.5444 20.9115 19.683 20.9333 19.8202 20.9186C21.1952 20.909 22.593 20.9105 23.9447 20.912C24.9576 20.9131 25.964 20.913 26.9705 20.912C28.3379 20.9105 29.7318 20.9091 31.1029 20.9186C31.1318 20.9189 31.159 20.9188 31.1848 20.9182C31.2967 20.9256 31.4086 20.9038 31.5095 20.8549C31.5436 20.8315 31.5824 20.7868 31.5796 20.6475C31.5756 20.4567 31.5734 20.3516 31.1368 20.3516C29.2557 20.3568 27.3644 20.3595 25.4629 20.3595C23.5762 20.3594 21.6841 20.3568 19.7989 20.3516Z"
    fill="#2B2129" />
  <path
    d="M31.5719 18.7601C31.4538 18.8228 31.3206 18.8513 31.1872 18.8427C31.1602 18.8433 31.1318 18.8435 31.102 18.8432C29.7248 18.8337 28.3245 18.8352 26.9705 18.8365C25.9639 18.8376 24.9573 18.8376 23.9508 18.8365C22.5973 18.8351 21.1975 18.8336 19.821 18.8432C19.6612 18.8605 19.4999 18.8319 19.3558 18.7607C19.3111 18.7249 19.2766 18.6781 19.2557 18.6249C19.2347 18.5716 19.2281 18.5139 19.2364 18.4573C19.2408 18.185 19.3252 18.055 19.792 18.055H19.7991C21.6904 18.0603 23.5891 18.0629 25.4819 18.0629C27.3747 18.0629 29.2616 18.0602 31.1293 18.0549H31.1366C31.6025 18.0549 31.6841 18.18 31.6899 18.4591C31.6984 18.5152 31.692 18.5726 31.6713 18.6254C31.6505 18.6783 31.6163 18.7247 31.5719 18.7601Z"
    fill="#C2956D" />
  <path
    d="M19.7958 18.9538C19.622 18.9696 19.4475 18.9342 19.2936 18.852C19.2335 18.8063 19.1864 18.7456 19.1569 18.676C19.1275 18.6065 19.1168 18.5304 19.126 18.4554C19.132 18.0829 19.3126 17.9444 19.7921 17.9444C21.6908 17.9497 23.5874 17.9523 25.482 17.9523C27.3748 17.9523 29.2615 17.9496 31.1292 17.9443C31.619 17.9443 31.7927 18.0784 31.8006 18.4568C31.81 18.5313 31.7996 18.607 31.7704 18.6763C31.7412 18.7455 31.6943 18.8059 31.6345 18.8513C31.4991 18.9272 31.3448 18.9625 31.1898 18.9532C31.1617 18.9538 31.1321 18.9539 31.101 18.9536C29.7312 18.9442 28.3377 18.9457 26.99 18.947C25.964 18.948 24.9575 18.9481 23.9509 18.947C22.5932 18.9455 21.1958 18.944 19.8219 18.9536C19.8131 18.9538 19.8044 18.9538 19.7958 18.9538ZM19.7989 18.1656C19.3518 18.1656 19.3501 18.2761 19.3471 18.459C19.3449 18.6007 19.3839 18.6459 19.4183 18.6694C19.5444 18.7255 19.683 18.7473 19.8202 18.7326C21.1952 18.723 22.593 18.7245 23.9447 18.726C24.9576 18.7271 25.964 18.727 26.9705 18.726C28.3379 18.7245 29.7318 18.7231 31.1029 18.7326C31.1318 18.7329 31.159 18.7327 31.1848 18.7322C31.2967 18.7396 31.4086 18.7178 31.5095 18.6689C31.5437 18.6455 31.5825 18.6008 31.5796 18.4614C31.5756 18.2706 31.5734 18.1655 31.1369 18.1655C29.2564 18.1708 27.3659 18.1735 25.4653 18.1735C23.5778 18.1734 21.6848 18.1708 19.7989 18.1656Z"
    fill="#2B2129" />
  <path
    d="M31.5719 16.5741C31.4538 16.6367 31.3206 16.6653 31.1872 16.6567C31.1602 16.6573 31.1318 16.6574 31.102 16.6571C29.7248 16.6476 28.3245 16.6492 26.9705 16.6505C25.9639 16.6515 24.9573 16.6515 23.9508 16.6505C22.5973 16.6491 21.1975 16.6475 19.821 16.6571C19.6612 16.6744 19.4999 16.6458 19.3558 16.5746C19.3111 16.5389 19.2766 16.4921 19.2557 16.4388C19.2347 16.3856 19.2281 16.3278 19.2364 16.2712C19.2408 15.999 19.3252 15.869 19.792 15.869H19.7991C21.6904 15.8742 23.5891 15.8769 25.4819 15.8769C27.3747 15.8769 29.2616 15.8742 31.1293 15.8689H31.1366C31.6025 15.8689 31.6841 15.994 31.6899 16.2731C31.6984 16.3292 31.692 16.3865 31.6713 16.4394C31.6505 16.4922 31.6163 16.5387 31.5719 16.5741Z"
    fill="#C2956D" />
  <path
    d="M19.7958 16.7678C19.6221 16.7836 19.4475 16.7482 19.2936 16.6659C19.2335 16.6202 19.1864 16.5596 19.1569 16.49C19.1275 16.4204 19.1168 16.3444 19.126 16.2694C19.132 15.8969 19.3126 15.7584 19.7921 15.7584C21.6908 15.7637 23.5874 15.7663 25.482 15.7663C27.3748 15.7663 29.2615 15.7636 31.1292 15.7583C31.619 15.7583 31.7927 15.8924 31.8006 16.2707C31.81 16.3453 31.7996 16.421 31.7704 16.4902C31.7412 16.5595 31.6943 16.6198 31.6345 16.6652C31.4991 16.7411 31.3448 16.7765 31.1898 16.7671C31.1617 16.7677 31.1321 16.7679 31.101 16.7676C29.7303 16.7581 28.336 16.7596 26.9875 16.761C25.9641 16.762 24.9575 16.7621 23.9509 16.761C22.5932 16.7595 21.1958 16.758 19.8219 16.7676C19.8131 16.7677 19.8044 16.7678 19.7958 16.7678ZM19.7989 15.9795C19.3518 15.9795 19.3501 16.0901 19.3471 16.273C19.3449 16.4147 19.3839 16.4598 19.4183 16.4833C19.5444 16.5394 19.683 16.5612 19.8202 16.5465C21.1952 16.5369 22.593 16.5384 23.9447 16.5399C24.9576 16.541 25.964 16.541 26.9705 16.5399C28.3362 16.5385 29.731 16.537 31.1029 16.5465C31.1318 16.5468 31.159 16.5467 31.1848 16.5461C31.2967 16.5535 31.4086 16.5317 31.5095 16.4829C31.5437 16.4595 31.5825 16.4147 31.5796 16.2754C31.5756 16.0846 31.5734 15.9795 31.1369 15.9795C29.2564 15.9848 27.3659 15.9874 25.4653 15.9874C23.5778 15.9874 21.6848 15.9847 19.7989 15.9795Z"
    fill="#2B2129" />
</svg>