<svg viewBox="0 0 24 24" fill="none" xmlns="http://www.w3.org/2000/svg">
  <rect width="24" height="24" rx="12" fill="#FFF6EB" />
  <path
    d="M7.35371 6.77356C7.1584 6.76359 6.9563 6.75325 6.78493 6.89518C6.6991 6.96627 6.58984 7.07747 6.63183 7.22186C6.63597 7.23616 6.64136 7.25006 6.64793 7.26341C6.64975 7.26706 6.65222 7.27011 6.65419 7.27362C6.65897 7.28259 6.66437 7.29122 6.67036 7.29944C6.67303 7.30292 6.67639 7.30578 6.67922 7.30907C6.68534 7.31646 6.69196 7.32341 6.69904 7.32987C6.70244 7.33283 6.70649 7.33519 6.71011 7.33796C6.7177 7.34403 6.72567 7.3496 6.73397 7.35464C6.73816 7.35707 6.74296 7.35891 6.74737 7.36112C6.75636 7.36584 6.7656 7.37005 6.77506 7.37372C6.78017 7.37561 6.78589 7.37694 6.79124 7.37859C6.80121 7.38169 6.81125 7.3848 6.82211 7.3871C6.82845 7.38845 6.8354 7.38922 6.84205 7.39029C6.85279 7.39202 6.86347 7.39379 6.87497 7.39481C6.883 7.39552 6.89166 7.39566 6.90006 7.39602C6.90868 7.39639 6.91678 7.39725 6.92581 7.39725C6.93055 7.39725 6.93537 7.39725 6.94021 7.39711C7.14394 7.39285 7.35132 7.39389 7.55176 7.39501C7.61054 7.39532 7.6693 7.39555 7.72807 7.3957C7.74747 7.39577 7.76683 7.39591 7.7863 7.39594C7.78494 7.40591 7.78336 7.4156 7.78187 7.42537C7.78001 7.43719 7.77829 7.44915 7.77617 7.46069C7.77395 7.47253 7.77146 7.48395 7.76903 7.49547C7.76667 7.50667 7.76445 7.51801 7.76184 7.52893C7.75912 7.54028 7.75601 7.55117 7.75303 7.56216C7.75017 7.57275 7.74749 7.58348 7.74435 7.59378C7.7411 7.60454 7.73744 7.61483 7.73391 7.62532C7.73059 7.63529 7.72735 7.64548 7.72372 7.65522C7.71991 7.66548 7.71567 7.67529 7.71154 7.68525C7.7077 7.69461 7.70402 7.70415 7.69991 7.71324C7.69555 7.72294 7.69074 7.73217 7.68609 7.74157C7.68174 7.75037 7.67756 7.75936 7.67295 7.7679C7.66801 7.77706 7.66262 7.78575 7.65738 7.79463C7.65255 7.80282 7.6479 7.81124 7.64281 7.81916C7.63728 7.8278 7.6313 7.83594 7.62548 7.84427C7.62015 7.8519 7.61502 7.85977 7.60945 7.86711C7.60332 7.87521 7.59672 7.88283 7.59029 7.89064C7.5845 7.89768 7.57892 7.90492 7.57288 7.91169C7.56611 7.91931 7.55885 7.92643 7.55177 7.93373C7.54554 7.94015 7.53959 7.94681 7.53308 7.953C7.52564 7.96012 7.51769 7.96672 7.50994 7.97354C7.50329 7.97935 7.49689 7.98542 7.49 7.99101C7.4818 7.99766 7.47307 8.00384 7.46452 8.01018C7.45756 8.01536 7.45084 8.0208 7.44367 8.02576C7.43461 8.03201 7.425 8.03773 7.4156 8.04364C7.4084 8.04816 7.40146 8.05295 7.39405 8.05727C7.38391 8.06319 7.37322 8.06854 7.3627 8.07406C7.35548 8.07786 7.34856 8.08194 7.34115 8.08556C7.3291 8.09144 7.31646 8.09677 7.30392 8.10217C7.29754 8.10493 7.29145 8.10799 7.28495 8.11062C7.26565 8.11844 7.2458 8.12574 7.2254 8.13252C7.19728 8.14185 7.16908 8.14985 7.14079 8.15652C7.1318 8.15866 7.12278 8.15993 7.11378 8.16184C7.0945 8.1659 7.07522 8.17016 7.05591 8.17317C7.0429 8.17521 7.0299 8.17628 7.01689 8.17788C7.0016 8.17975 6.9863 8.18205 6.97102 8.18336C6.95551 8.1847 6.94001 8.18513 6.9245 8.18593C6.91177 8.18658 6.89903 8.18768 6.88632 8.188C6.86963 8.18842 6.85303 8.18809 6.83639 8.188C6.82493 8.188 6.8134 8.18825 6.80197 8.188C6.78448 8.18757 6.76712 8.18652 6.74973 8.18563C6.73925 8.18509 6.72869 8.18484 6.71826 8.18416C6.7008 8.18305 6.6835 8.18142 6.66621 8.17993C6.65593 8.17904 6.64557 8.17837 6.63534 8.17738C6.61991 8.1759 6.60467 8.17412 6.58936 8.17245C6.57794 8.1712 6.56643 8.17007 6.55509 8.16874C6.10663 7.81124 5.95511 7.30024 6.14971 6.80113C6.35084 6.28536 6.782 6.03252 7.39579 6.06975C7.53404 6.11586 7.66784 6.17436 7.79555 6.24457L7.79602 6.24484C7.81691 6.25678 7.83749 6.26919 7.85776 6.28208L7.85825 6.28241C7.87848 6.29532 7.89835 6.30875 7.91785 6.32271L7.91859 6.32325C7.93795 6.33716 7.95692 6.35164 7.97549 6.36668L7.977 6.36795C7.99519 6.38279 8.01297 6.39821 8.03033 6.41421L8.03338 6.41717C8.05005 6.43267 8.0663 6.44879 8.08211 6.46551C8.08388 6.4674 8.08555 6.46942 8.08732 6.47133C8.10206 6.48722 8.11648 6.50356 8.13036 6.5206C8.13331 6.52422 8.13606 6.52809 8.13897 6.53176C8.15128 6.54726 8.16333 6.56315 8.17491 6.57967C8.17926 6.58591 8.1833 6.59252 8.18753 6.59889C8.19706 6.6132 8.20648 6.62769 8.21542 6.6427C8.22144 6.65285 8.22703 6.66353 8.23275 6.67404C8.23917 6.68578 8.24566 6.69744 8.25172 6.70963C8.25947 6.72538 8.26678 6.74175 8.27394 6.75828C8.27647 6.76409 8.2791 6.76977 8.28156 6.77567L7.45379 6.77789C7.42056 6.77694 7.38714 6.77526 7.35371 6.77356Z"
    fill="#CBA68D"
  />
  <path
    d="M6.86784 8.24391C6.86119 8.24391 6.85454 8.24386 6.8479 8.2438L6.83608 8.2437H6.82352L6.80058 8.2436C6.78618 8.24325 6.77178 8.2425 6.7575 8.24172L6.53289 8.22213L6.52052 8.21227C6.05226 7.83892 5.89437 7.30396 6.09817 6.78126C6.30881 6.24092 6.75874 5.97587 7.3992 6.01472L7.41419 6.01773C7.55572 6.06467 7.6926 6.12459 7.8231 6.19671C7.84525 6.20937 7.86661 6.22218 7.88762 6.23563C7.9092 6.24942 7.92992 6.26339 7.95022 6.27794C7.97126 6.29306 7.99109 6.30818 8.01049 6.32393C8.03116 6.34083 8.04985 6.35697 8.06809 6.37377C8.08882 6.39321 8.10595 6.41012 8.12255 6.42774C8.1436 6.45063 8.15879 6.46786 8.17342 6.48583L8.18251 6.49758C8.1955 6.51398 8.20825 6.53072 8.22043 6.54816L8.22948 6.56182C8.24388 6.58352 8.25376 6.59875 8.26318 6.61464C8.26816 6.62306 8.27284 6.63171 8.27752 6.64036L8.23543 6.67879L8.284 6.65221C8.28994 6.66306 8.29588 6.67392 8.3015 6.68521C8.30975 6.70191 8.31742 6.71913 8.32495 6.73652L8.36472 6.83108L7.45412 6.83356C7.41965 6.83259 7.38673 6.83092 7.3538 6.82925L7.35083 6.82911C7.15763 6.81926 6.97514 6.80997 6.82045 6.93807C6.70154 7.03656 6.65985 7.1194 6.6852 7.20664C6.68844 7.21781 6.69264 7.22867 6.69777 7.23911C6.70639 7.25333 6.70996 7.26007 6.71451 7.26599C6.72638 7.27886 6.7306 7.28396 6.73562 7.28834C6.75013 7.29891 6.75565 7.30331 6.76195 7.30696L6.77246 7.31188C6.77959 7.31567 6.78693 7.31905 6.79445 7.32201L6.79146 7.37883L6.80784 7.32593C6.8167 7.32867 6.82486 7.33128 6.83379 7.33316L6.85107 7.33586C6.86174 7.33758 6.87057 7.33906 6.88003 7.33989L6.926 7.3421L6.93929 7.34197C7.14792 7.33761 7.36273 7.33881 7.55227 7.33987L7.84995 7.34087L7.83755 7.42904L7.78635 7.43536L7.83528 7.44291L7.82496 7.49921L7.76726 7.50448L7.82154 7.5157L7.80869 7.56925L7.75086 7.57098L7.80438 7.5852L7.78907 7.63572L7.73122 7.63402L7.7838 7.65142L7.7659 7.69936L7.70831 7.69373L7.75966 7.71447L7.73931 7.75943L7.68232 7.74975L7.73216 7.77396L7.72181 7.7945C7.71779 7.80197 7.71351 7.80915 7.70922 7.81632L7.65312 7.80246L7.70105 7.83015L7.68956 7.84931C7.68506 7.85634 7.6803 7.8631 7.67551 7.86985L7.62068 7.85167L7.66637 7.88296L7.65375 7.90077C7.64874 7.90741 7.64347 7.91374 7.63824 7.92006L7.58492 7.89772L7.62804 7.93248L7.61442 7.94879C7.60888 7.95501 7.60307 7.96098 7.59725 7.96688L7.54582 7.94041L7.58605 7.97848L7.57152 7.9933C7.56546 7.9991 7.55911 8.00462 7.55276 8.01011L7.50344 7.97975L7.54049 8.02091L7.52512 8.0342C7.51842 8.03966 7.51142 8.04482 7.5044 8.04997L7.45752 8.01588L7.49122 8.05983L7.47532 8.07157C7.46787 8.07671 7.46009 8.08154 7.45231 8.08638L7.40806 8.04885L7.43824 8.09527L7.42214 8.10535C7.41366 8.11029 7.40485 8.1149 7.39602 8.11949L7.35472 8.07873L7.38135 8.12728L7.36567 8.13555C7.35467 8.14092 7.34322 8.14587 7.33177 8.15081L7.29632 8.10593L7.31946 8.15624L7.30595 8.16218C7.28555 8.17045 7.26458 8.17817 7.24303 8.18533C7.21337 8.19517 7.18363 8.2036 7.15381 8.21064L7.13514 8.21441L7.11397 8.16207L7.11773 8.21788C7.10001 8.22164 7.08236 8.22537 7.06465 8.22813C7.05535 8.22959 7.04605 8.23062 7.03675 8.23163L7.01041 8.23481C6.99891 8.23632 6.98741 8.2378 6.97594 8.23879C6.9641 8.2398 6.95229 8.24035 6.94049 8.24088L6.88788 8.2436C6.8811 8.24381 6.87447 8.24391 6.86784 8.24391ZM6.83672 8.13295L6.84891 8.13304C6.86089 8.13315 6.87288 8.13328 6.88491 8.13296L6.93539 8.13032C6.9457 8.12985 6.95602 8.12941 6.96635 8.12852C6.97619 8.12768 6.98603 8.12631 6.99587 8.12508L7.04741 8.11879C7.06316 8.11633 7.07889 8.11296 7.09461 8.10963L7.12802 8.10298C7.15476 8.09662 7.18143 8.08905 7.20802 8.08029C7.22728 8.07391 7.246 8.06702 7.26419 8.05963L7.28198 8.05169C7.29763 8.04494 7.30745 8.04072 7.31688 8.03612L7.3448 8.0213C7.35204 8.01753 7.35928 8.0138 7.36621 8.00976L7.55308 7.8491L7.66354 7.65676L7.72161 7.45135L7.55149 7.45068C7.36262 7.44963 7.14859 7.44847 6.94139 7.45276L6.92583 7.45292C6.91884 7.45292 6.91232 7.45253 6.90578 7.45211L6.89272 7.39603L6.8908 7.45141C6.88377 7.45116 6.87674 7.45089 6.87008 7.4503C6.8579 7.4492 6.84649 7.44744 6.83508 7.44559C6.82166 7.4436 6.81599 7.44274 6.81066 7.44161C6.79833 7.43901 6.78691 7.43554 6.77553 7.43202C6.76537 7.42913 6.76049 7.4277 6.75593 7.42601C6.74469 7.42169 6.73369 7.41672 6.72301 7.41115C6.71484 7.4074 6.71041 7.40529 6.70631 7.40292C6.69614 7.39681 6.68637 7.39005 6.67707 7.38269C6.67213 7.37939 6.66736 7.37583 6.6628 7.37202C6.6541 7.36417 6.64596 7.35573 6.63843 7.34675C6.63421 7.34256 6.63023 7.33812 6.62652 7.33346C6.61893 7.32316 6.61208 7.31233 6.60601 7.30107C6.60319 7.29698 6.60065 7.29271 6.59839 7.28828C6.59036 7.27201 6.58379 7.25506 6.57874 7.23763C6.52171 7.04158 6.69328 6.89947 6.74963 6.85276C6.93753 6.69713 7.16 6.70848 7.35629 6.71848L7.35373 6.77379L7.35654 6.71849L7.35926 6.71862C7.39138 6.72026 7.4235 6.72194 7.45539 6.72281L8.19505 6.72078C8.19231 6.71564 8.18952 6.71055 8.18671 6.70545L8.16779 6.67112C8.15939 6.65697 8.15046 6.64335 8.14147 6.62983L8.12953 6.61162C8.11864 6.59603 8.10722 6.58108 8.09559 6.56639L8.13039 6.52085L8.08746 6.55583C8.07434 6.53972 8.06069 6.52427 8.04675 6.50924C8.02689 6.48786 8.01146 6.47269 7.99566 6.45791C7.97629 6.43985 7.95937 6.42524 7.94206 6.41114C7.92293 6.39553 7.9048 6.38176 7.88632 6.36848C7.86694 6.35455 7.84789 6.3417 7.8285 6.32933C7.80857 6.31659 7.78871 6.30467 7.76859 6.29318C7.64607 6.22548 7.5176 6.16913 7.38481 6.12482C6.80115 6.09171 6.39203 6.33249 6.20137 6.82148C6.01793 7.29199 6.15846 7.77469 6.5772 8.11567L6.7526 8.13055C6.7767 8.13182 6.78999 8.13254 6.80337 8.13288L6.8228 8.13294L6.83672 8.13295Z"
    fill="#2B2129"
  />
  <path
    d="M7.48 6.82662C7.48554 6.83099 7.49098 6.83548 7.49646 6.83998C7.5017 6.84423 7.50695 6.84841 7.51214 6.85274C7.51753 6.85723 7.52281 6.8619 7.52815 6.86648C7.53349 6.87107 7.53865 6.87534 7.54382 6.87998C7.54852 6.88415 7.55308 6.88851 7.55772 6.89277C7.56341 6.89798 7.56917 6.90312 7.57478 6.90847L7.57551 6.9092C7.62618 6.95661 7.67034 7.01052 7.70686 7.06953L7.70718 7.07004C7.7142 7.0817 7.72085 7.09364 7.72712 7.10586L7.72788 7.10725C7.73393 7.11912 7.73953 7.1313 7.7448 7.1437L7.74599 7.14635C7.75101 7.15835 7.75553 7.17072 7.75975 7.18319L7.76129 7.18745C7.76521 7.19941 7.76859 7.2117 7.77171 7.22414C7.77227 7.22635 7.77297 7.22851 7.7735 7.23078C7.77628 7.24246 7.7785 7.25449 7.78055 7.2666C7.7811 7.26993 7.78183 7.27309 7.78233 7.27642C7.784 7.28749 7.78508 7.29893 7.78611 7.3104C7.78654 7.31516 7.78715 7.3198 7.78746 7.32464C7.78812 7.3348 7.7882 7.3453 7.78834 7.35577C7.78834 7.36087 7.78856 7.36591 7.78849 7.37108C7.70936 7.37098 7.63022 7.37067 7.55108 7.37016C7.49513 7.36982 7.4378 7.36982 7.38105 7.36961C7.2345 7.36912 7.08666 7.36912 6.93986 7.37225C6.78026 7.37483 6.68771 7.32414 6.65597 7.21497C6.61803 7.08467 6.72058 6.98103 6.80106 6.91441C6.81428 6.90358 6.82806 6.89345 6.84234 6.88406C6.84592 6.88168 6.84951 6.87936 6.85312 6.8771C6.8662 6.86887 6.87941 6.86121 6.89284 6.85446L6.8957 6.85291C6.91004 6.84581 6.92459 6.83974 6.93927 6.83415C6.94307 6.83271 6.94689 6.83134 6.95071 6.82999C6.9638 6.82536 6.97699 6.82113 6.99032 6.81758C6.99213 6.81708 6.99394 6.81647 6.99577 6.816C7.01065 6.81213 7.02567 6.80901 7.04081 6.80627C7.04483 6.80555 7.04889 6.8049 7.05293 6.80425C7.06595 6.80214 7.07903 6.80035 7.09217 6.79894C7.09468 6.79867 7.09717 6.7983 7.09967 6.79805C7.11489 6.79657 7.13021 6.79554 7.14556 6.79481C7.14981 6.79461 7.15408 6.79447 7.15833 6.79432C7.17108 6.79386 7.18385 6.79359 7.19663 6.79354C7.1996 6.79354 7.20257 6.79345 7.20555 6.79346C7.229 6.79346 7.25251 6.79408 7.276 6.79496L7.27942 6.79508C7.30388 6.79604 7.32833 6.79729 7.35266 6.79851C7.38492 6.80017 7.4172 6.80183 7.44932 6.8028C7.45404 6.80638 7.45875 6.81008 7.46346 6.81374C7.46892 6.81801 7.47447 6.82224 7.48 6.82662Z"
    fill="#2B2129"
  />
  <path
    d="M6.92902 7.42765C6.75045 7.42765 6.6408 7.36132 6.60273 7.23037C6.55024 7.05005 6.71238 6.91581 6.76566 6.87169C6.78036 6.85965 6.79567 6.84837 6.81154 6.83791L6.82355 6.83016C6.83815 6.82097 6.8529 6.81244 6.86785 6.80493C6.88465 6.79649 6.90189 6.78896 6.91948 6.78234L6.93214 6.77772C6.94654 6.77261 6.96114 6.768 6.9758 6.76404C6.99802 6.75812 7.01441 6.75468 7.03089 6.75172L7.04322 6.74963C7.05796 6.74725 7.07202 6.74534 7.08614 6.74381C7.11031 6.74129 7.12653 6.74021 7.14281 6.73938L7.15388 6.73893C7.17064 6.73834 7.18495 6.73803 7.19906 6.73804C7.23099 6.73804 7.25444 6.73862 7.27796 6.73951L7.35534 6.74309C7.38725 6.74473 7.41915 6.74633 7.4509 6.74732L7.46862 6.74787L7.49282 6.7664L7.46806 6.81728L7.50188 6.77341L7.52656 6.793L7.50136 6.84387L7.53614 6.80077L7.55931 6.82014L7.53309 6.87065L7.56903 6.82856L7.59033 6.84747L7.56241 6.89702L7.59967 6.85604L7.61296 6.86837C7.66755 6.91932 7.71508 6.97734 7.7543 7.04088C7.76232 7.05417 7.76954 7.06721 7.77638 7.08053C7.78384 7.09507 7.78999 7.10842 7.79576 7.12203C7.80258 7.13813 7.80757 7.15168 7.81221 7.16546C7.81821 7.18333 7.82195 7.19686 7.8254 7.21057C7.83042 7.23071 7.83288 7.24394 7.83514 7.25728C7.8389 7.28023 7.84012 7.29273 7.84125 7.30535L7.84271 7.321C7.84338 7.33124 7.84353 7.34181 7.84366 7.35239L7.84384 7.37175L7.8431 7.42646L7.38084 7.42494C7.23474 7.42444 7.08733 7.42445 6.941 7.42756C6.93696 7.42763 6.93296 7.42765 6.92902 7.42765ZM7.04073 6.80621L7.05056 6.86072C7.03681 6.8632 7.02313 6.86603 7.00958 6.86958C6.99271 6.87424 6.98086 6.87801 6.96911 6.88217C6.95245 6.88807 6.93611 6.89487 6.92018 6.90252C6.90578 6.90988 6.89409 6.91668 6.88252 6.92396L6.87295 6.93005C6.86027 6.93837 6.84804 6.94735 6.8363 6.95696C6.72607 7.04822 6.68684 7.12298 6.70908 7.19939C6.72539 7.25552 6.76624 7.31955 6.9389 7.31679C7.08587 7.31367 7.23417 7.31366 7.38117 7.31416L7.77022 7.31553L7.78606 7.31029L7.73091 7.31524C7.72998 7.3049 7.72903 7.29456 7.72752 7.28456C7.72405 7.26485 7.72208 7.25403 7.71958 7.24351C7.71515 7.22641 7.71212 7.21536 7.70861 7.20463C7.70342 7.18953 7.69937 7.17843 7.69485 7.16764C7.68901 7.15404 7.68396 7.14304 7.67849 7.13232C7.67211 7.11997 7.6661 7.10906 7.65972 7.09852C7.62571 7.0435 7.58451 6.99327 7.53721 6.94915L7.42951 6.85746C7.40298 6.85646 7.37634 6.85512 7.34976 6.85376L7.27718 6.8503C7.251 6.84934 7.22815 6.84876 7.20536 6.84873C7.18458 6.84886 7.1724 6.84912 7.16023 6.84956L7.14546 6.7947L7.14811 6.85003C7.13371 6.85071 7.11931 6.85167 7.10498 6.85306C7.08585 6.8552 7.07375 6.85686 7.0617 6.85881L7.04073 6.80621Z"
    fill="#2B2129"
  />
  <path
    d="M7.95839 8.41705C7.62775 8.43785 7.29581 8.4209 6.96901 8.36652C6.82765 8.34679 6.69454 8.28823 6.58447 8.19736C6.58945 8.19791 6.59452 8.19832 6.59951 8.19885C6.61411 8.2004 6.62876 8.20185 6.64345 8.2032C6.65453 8.20423 6.66555 8.2052 6.67668 8.20611C6.69156 8.20733 6.7065 8.20832 6.72146 8.20928C6.73264 8.20999 6.74378 8.21068 6.75499 8.21123C6.76993 8.21195 6.78489 8.21233 6.79995 8.21274C6.81125 8.21304 6.82254 8.21339 6.83389 8.21346C6.83791 8.21346 6.84189 8.21372 6.84592 8.21372C6.85296 8.21372 6.86006 8.21316 6.8671 8.21306C6.88667 8.21282 6.90625 8.21228 6.92589 8.21127C6.93734 8.21068 6.94877 8.20986 6.96023 8.209C6.97946 8.20754 6.99868 8.20557 7.01793 8.20324C7.02925 8.20187 7.04056 8.20051 7.05189 8.19881C7.07248 8.19573 7.09305 8.19179 7.11363 8.18756C7.1234 8.18555 7.13317 8.18389 7.14294 8.18161C7.17313 8.17452 7.2033 8.16639 7.23338 8.15641C7.25454 8.14939 7.27512 8.14182 7.29511 8.13372C7.59209 8.01324 7.76125 7.77108 7.81161 7.39618H7.813L7.81338 7.38465L7.81508 7.37127H7.8133C7.81346 7.35818 7.81354 7.34512 7.81292 7.33251C7.81265 7.32688 7.81192 7.32152 7.8115 7.31598C7.81066 7.30498 7.80987 7.29395 7.80846 7.2833C7.80761 7.27678 7.80633 7.27055 7.80527 7.26417C7.80372 7.25481 7.80226 7.24541 7.80029 7.23631C7.79887 7.22974 7.79708 7.22341 7.79545 7.21697C7.79323 7.20841 7.79116 7.19982 7.78865 7.1915C7.78669 7.18504 7.78443 7.17881 7.78227 7.17249C7.77954 7.16454 7.77684 7.15658 7.77381 7.14883C7.77135 7.14254 7.76864 7.13643 7.76598 7.13027C7.76276 7.12283 7.75954 7.11541 7.75601 7.10812C7.75308 7.10204 7.74996 7.09609 7.74685 7.09014C7.74318 7.08314 7.73947 7.07616 7.73556 7.06934C7.73224 7.0635 7.72874 7.05777 7.72522 7.05205C7.72114 7.04541 7.717 7.03885 7.71271 7.03239C7.70898 7.02679 7.70517 7.02125 7.70128 7.01578C7.69685 7.00952 7.69233 7.00334 7.68773 6.99723C7.68366 6.99183 7.67952 6.98649 7.67531 6.98121C7.67056 6.97527 7.66573 6.96939 7.66081 6.96359C7.65647 6.95846 7.65211 6.95338 7.64767 6.94836C7.64261 6.94267 7.63746 6.93707 7.63228 6.93151C7.62768 6.92661 7.62311 6.92171 7.61842 6.9169C7.61314 6.91149 7.60778 6.90618 7.60238 6.90089C7.59762 6.89621 7.59287 6.89153 7.58798 6.88694C7.58245 6.88175 7.57691 6.87666 7.57137 6.87158C7.56646 6.86715 7.56159 6.86264 7.55664 6.85829C7.55096 6.85329 7.54521 6.84842 7.53946 6.84352C7.53449 6.83929 7.52949 6.83502 7.52454 6.83086C7.51861 6.82596 7.51267 6.82119 7.50672 6.81641C7.50183 6.81247 7.49697 6.80848 7.49207 6.80461L7.49006 6.803L8.29359 6.80078C8.30091 6.8113 8.30711 6.82209 8.31367 6.83279C8.31966 6.84255 8.32628 6.85216 8.33166 6.86205C8.33801 6.87371 8.34313 6.88559 8.34869 6.89739C8.35341 6.90744 8.35873 6.91738 8.36293 6.92752C8.36787 6.93946 8.37171 6.95154 8.37597 6.96358C8.37955 6.97376 8.38372 6.98387 8.38681 6.99409C8.39056 7.00636 8.39336 7.01869 8.39649 7.03101C8.39906 7.04106 8.40209 7.0511 8.40424 7.06116C8.407 7.07385 8.40893 7.08651 8.41113 7.09918C8.41282 7.10884 8.41491 7.11853 8.4163 7.12816C8.41829 7.1419 8.41963 7.1555 8.42103 7.16914C8.42193 7.17754 8.42325 7.18604 8.42391 7.19439C8.42531 7.21042 8.42613 7.22619 8.42697 7.24195C8.42728 7.24775 8.42783 7.25369 8.42808 7.25945C8.429 7.28087 8.42951 7.30199 8.42976 7.3227C8.43301 7.58265 8.43289 7.847 8.43279 8.10268C8.43273 8.20622 8.43276 8.30975 8.43285 8.41329C8.27469 8.4091 8.11396 8.41311 7.95839 8.41705Z"
    fill="#BB9168"
  />
  <path
    d="M7.6302 8.47801C7.40473 8.48176 7.17947 8.46261 6.95788 8.42084C6.8065 8.39947 6.66411 8.33616 6.54683 8.23809L6.42358 8.12401L6.59049 8.14237L6.59708 8.18376L6.60162 8.17885L6.60534 8.14383L6.83423 8.15813L6.84588 8.21377L6.8467 8.15839L6.86635 8.15778C6.88518 8.15753 6.90408 8.15701 6.92301 8.15605L6.95602 8.15383C6.97442 8.15244 6.99283 8.15051 7.01126 8.1483L7.04368 8.14409C7.06328 8.14116 7.08285 8.13739 7.10243 8.13337L7.13027 8.12773C7.15887 8.12103 7.18743 8.11333 7.21592 8.10389C7.23592 8.09725 7.25537 8.0901 7.27427 8.08245C7.55128 7.97006 7.70909 7.74319 7.75668 7.38886L7.75802 7.37889L7.75787 7.37068C7.758 7.35871 7.7581 7.34678 7.75754 7.33524L7.81143 7.31602L7.75622 7.32023C7.75533 7.30863 7.75467 7.29945 7.75349 7.29056L7.71632 7.15517L7.63198 7.0158L7.45772 6.84816L7.3327 6.7497L7.48983 6.74765L8.32245 6.74536L8.33906 6.76919C8.34528 6.77805 8.35079 6.78718 8.35629 6.79628L8.36662 6.81295C8.3714 6.82045 8.37615 6.82797 8.38031 6.8356C8.38558 6.84529 8.39014 6.8551 8.39471 6.86493L8.40342 6.88329C8.4072 6.89096 8.41093 6.89862 8.41415 6.90638C8.41821 6.91621 8.42166 6.92611 8.42506 6.93604L8.4318 6.95493C8.43465 6.96258 8.43746 6.97024 8.43981 6.97794C8.44286 6.9879 8.44535 6.99787 8.44784 7.00792L8.45285 7.02729C8.45485 7.03467 8.45683 7.04205 8.45838 7.04944C8.4606 7.05982 8.4624 7.07017 8.46414 7.08051L8.47113 7.12025C8.47283 7.13194 8.47405 7.14351 8.47525 7.15507L8.42225 7.17934L8.47721 7.17256L8.47911 7.18965C8.48049 7.20561 8.48132 7.22133 8.48219 7.23704L8.48343 7.25714C8.48438 7.27912 8.4849 7.3008 8.48517 7.32206C8.48839 7.58062 8.48829 7.84353 8.48819 8.09793L8.48836 8.4702L8.43141 8.46869C8.27356 8.46452 8.11405 8.46856 7.9598 8.47247L7.9584 8.41709L7.959 8.47247C7.85038 8.47524 7.74058 8.47801 7.6302 8.47801ZM7.95613 8.36178L7.9584 8.41709L7.95694 8.36178C8.09428 8.3583 8.23568 8.35471 8.37743 8.35684V8.10273C8.37753 7.84398 8.37763 7.58156 8.37442 7.32347C8.37416 7.30332 8.37366 7.28276 8.37278 7.2619L8.42705 7.24203L8.37175 7.24499C8.37086 7.22849 8.3701 7.21398 8.36882 7.19927L8.36604 7.17511C8.36409 7.15649 8.36305 7.14637 8.36161 7.13616L8.3567 7.10875C8.35357 7.0903 8.35213 7.08164 8.35025 7.07297L8.34292 7.04477C8.33838 7.02648 8.3364 7.01842 8.33395 7.01043L8.32383 6.98213C8.31769 6.96433 8.31504 6.95654 8.31185 6.94883C8.30956 6.94329 8.30681 6.93775 8.3041 6.93232L8.29866 6.9211C8.29064 6.90375 8.28718 6.89614 8.28315 6.88866C8.2802 6.88326 8.27677 6.87796 8.27337 6.87265L8.26659 6.86187L8.26327 6.85633L7.63783 6.85804L7.75898 7.00183L7.82549 7.12865C7.82863 7.13669 7.83147 7.14492 7.83429 7.15316L7.84177 7.17549C7.84423 7.18361 7.84636 7.19194 7.84842 7.20028L7.8545 7.22464C7.85638 7.23335 7.85782 7.24237 7.85936 7.25129L7.86346 7.27611C7.86489 7.28697 7.86576 7.29819 7.86661 7.30942L7.86717 7.31607H7.87622L7.8684 7.39168V7.39803L7.86667 7.45162H7.85938C7.79824 7.82151 7.62014 8.0617 7.316 8.1851C7.2949 8.19365 7.27319 8.20163 7.25089 8.20903C7.21921 8.21954 7.18744 8.22812 7.15563 8.23561L7.13467 8.23996C7.10326 8.24633 7.08171 8.25045 7.06013 8.25367L7.02592 8.2581C7.00456 8.26068 6.98452 8.26274 6.96447 8.26427L6.92878 8.26663C6.90842 8.26767 6.88813 8.26824 6.86787 8.26849L6.84578 8.26915L6.8153 8.26853C6.86921 8.2869 6.92433 8.30154 6.98027 8.31232C7.30264 8.3657 7.63002 8.38229 7.95613 8.36178Z"
    fill="#2B2129"
  />
  <path
    d="M10.2148 17.9046C10.2117 17.9093 10.209 17.9145 10.2062 17.9195C10.2035 17.9243 10.2005 17.9286 10.198 17.9336H9.68855C9.61828 17.9305 9.54869 17.9185 9.48143 17.8979L9.46159 17.8928C8.82539 17.7389 8.43374 17.2083 8.43957 16.5081C8.45578 14.5531 8.45313 12.5652 8.45057 10.6428C8.44959 9.91161 8.44894 9.1804 8.44863 8.44918V8.43634C8.44843 8.32866 8.4484 8.22099 8.44853 8.11332C8.44863 7.85787 8.44874 7.59368 8.44554 7.33389C8.4515 7.17005 8.41673 7.00729 8.34435 6.86018C8.33204 6.8376 8.31847 6.81573 8.30369 6.79468C8.2937 6.76909 8.283 6.74439 8.27157 6.72058C8.2677 6.71246 8.26334 6.70493 8.25931 6.697C8.25133 6.68129 8.24338 6.66552 8.2348 6.65056C8.22965 6.64156 8.22405 6.63313 8.21867 6.62439C8.21062 6.61126 8.20264 6.59802 8.19412 6.58546C8.18808 6.5766 8.18167 6.56816 8.17542 6.55953C8.16699 6.54791 8.15863 6.53627 8.14982 6.52509C8.14306 6.51652 8.13597 6.50841 8.12899 6.50014C8.12013 6.48967 8.11127 6.47915 8.10215 6.46913C8.09474 6.46103 8.08708 6.45328 8.07946 6.44546C8.07021 6.43596 8.06095 6.42645 8.05139 6.41735C8.04342 6.40973 8.03523 6.4024 8.02702 6.39505C8.01737 6.38637 8.00766 6.37774 7.99774 6.36942C7.98928 6.36232 7.98066 6.35543 7.97201 6.34858C7.96195 6.34062 7.95183 6.33275 7.94154 6.32512C7.93262 6.31847 7.92362 6.31199 7.91453 6.30566C7.90414 6.29837 7.89365 6.29122 7.88307 6.28419C7.87374 6.27803 7.86433 6.27197 7.85484 6.26601C7.84418 6.25936 7.83343 6.25282 7.82259 6.24638C7.81286 6.24061 7.8031 6.23491 7.79323 6.22935C7.78236 6.22322 7.77138 6.21726 7.76036 6.21138C7.75027 6.206 7.74019 6.20063 7.73 6.19543C7.71899 6.18983 7.70785 6.18435 7.69677 6.17899C7.68628 6.1739 7.67581 6.1688 7.66523 6.16389C7.65433 6.15882 7.64335 6.15392 7.63235 6.14907C7.62135 6.14421 7.61038 6.13924 7.59929 6.13451C7.58872 6.13 7.57808 6.12565 7.56745 6.1213C7.55577 6.1165 7.54412 6.11166 7.53239 6.10701C7.5228 6.10322 7.51316 6.09959 7.50359 6.09593C7.49063 6.09096 7.4777 6.08597 7.46469 6.0811L7.46216 6.0801L7.48511 6.07893C7.54536 6.07588 7.60765 6.07271 7.66874 6.07269C8.40862 6.07252 9.1483 6.07295 9.8878 6.07397C11.6807 6.07565 13.5347 6.07747 15.3581 6.06616H15.3659C15.5385 6.06721 15.7091 6.10272 15.8677 6.17061C16.0264 6.23849 16.1699 6.33739 16.2897 6.46149C16.544 6.71468 16.6877 7.05821 16.6894 7.41702C16.6728 9.39489 16.6769 11.406 16.6808 13.3509C16.6822 14.0843 16.6834 14.8176 16.6841 15.5509C16.6516 15.5515 16.619 15.5521 16.5865 15.5528C16.5102 15.5543 16.4313 15.5559 16.3537 15.556C14.5743 15.5565 12.7949 15.5569 11.0155 15.5571L10.3037 15.5572C10.2934 15.5567 10.2831 15.5564 10.2728 15.5561C10.2509 15.5559 10.2291 15.5545 10.2074 15.5519C10.0273 15.5196 9.84172 15.5367 9.67046 15.6013C9.4992 15.6658 9.34858 15.7755 9.23457 15.9187C9.22986 15.9248 9.22524 15.9309 9.22066 15.9371C9.19631 15.9703 9.17397 16.0049 9.15375 16.0408C9.13304 16.0766 9.11439 16.1136 9.09788 16.1515C9.00057 16.3654 8.97785 16.6057 9.03337 16.8339C9.08889 17.0622 9.21943 17.2652 9.40406 17.4104L9.43605 17.4403L9.4391 17.4432L9.4392 17.4433L9.43605 17.4403L9.51631 17.4632L9.45803 17.4621C9.5735 17.5718 9.72354 17.638 9.88242 17.6492C9.92376 17.6537 9.96537 17.6571 10.0071 17.6598C10.0221 17.6608 10.0372 17.6611 10.0522 17.6619C10.079 17.6633 10.1058 17.6648 10.1326 17.6656L10.1377 17.6657C10.2195 17.6683 10.3011 17.6688 10.3814 17.6693C10.3889 17.6693 10.3963 17.6695 10.4038 17.6696C10.4581 17.6699 10.5125 17.6705 10.5668 17.6716L10.5665 17.6719C10.557 17.682 10.5467 17.6913 10.5357 17.6997C10.5338 17.7011 10.5321 17.7026 10.5302 17.704C10.5194 17.7119 10.5082 17.7192 10.4966 17.7258L10.4894 17.7299C10.4777 17.7364 10.4656 17.7426 10.4532 17.7485L10.4454 17.7521C10.4333 17.7577 10.4211 17.7632 10.4087 17.7687L10.4071 17.7695C10.3927 17.7758 10.3783 17.7824 10.3639 17.7891C10.3578 17.7919 10.3518 17.7947 10.3458 17.7977C10.342 17.7996 10.3382 17.8018 10.3344 17.8038C10.3282 17.807 10.322 17.8102 10.316 17.8137C10.312 17.816 10.3082 17.8186 10.3042 17.8211C10.2986 17.8246 10.2929 17.828 10.2875 17.8317C10.2835 17.8345 10.2798 17.8376 10.276 17.8405C10.2709 17.8444 10.2656 17.8483 10.2607 17.8525C10.257 17.8558 10.2535 17.8595 10.2499 17.863C10.2453 17.8674 10.2406 17.8718 10.2363 17.8766C10.2328 17.8805 10.2296 17.8849 10.2263 17.8892C10.2225 17.8941 10.2185 17.8991 10.2148 17.9046Z"
    fill="#E5D1B8"
  />
  <path
    d="M10.198 17.9892H9.68854C9.61359 17.9862 9.53933 17.9736 9.46759 17.9517L9.44773 17.9466C8.786 17.7865 8.37816 17.2351 8.3842 16.5078C8.40038 14.5541 8.39774 12.5675 8.39519 10.6462C8.3942 9.91185 8.39356 9.17957 8.39325 8.44938L8.39314 8.11351C8.39324 7.85491 8.39334 7.59267 8.39015 7.33477C8.39609 7.18002 8.36367 7.0262 8.29579 6.88701C8.28445 6.86621 8.27194 6.84606 8.25833 6.82666L8.25211 6.81503C8.2426 6.79073 8.23243 6.76727 8.22158 6.74464L8.20993 6.72228C8.20121 6.70513 8.19424 6.69138 8.18675 6.6783L8.17146 6.65355C8.16171 6.63765 8.15518 6.62697 8.14826 6.61671L8.12769 6.58826C8.12068 6.57858 8.1137 6.5689 8.10637 6.55964L8.09207 6.54236C8.07721 6.5248 8.0694 6.51552 8.06128 6.50664L8.04371 6.48825C8.03101 6.47521 8.02223 6.4662 8.01317 6.45756L7.99073 6.43699C7.98086 6.42813 7.97164 6.41991 7.9622 6.41201L7.93768 6.39215C7.92806 6.38454 7.9184 6.37702 7.90858 6.36973L7.70489 6.24491L7.4454 6.13313L7.19287 6.03953L7.48231 6.02377C7.61633 6.01696 7.75454 6.01743 7.89041 6.01743C8.5563 6.01743 9.22201 6.01787 9.88756 6.01874H9.92432C11.7053 6.02041 13.5469 6.02213 15.3578 6.01099C15.539 6.01118 15.7183 6.04772 15.8852 6.11844C16.052 6.18916 16.203 6.29262 16.3291 6.4227C16.5937 6.6864 16.7432 7.04411 16.7448 7.41765C16.7283 9.39396 16.7323 11.4037 16.7362 13.3472C16.7377 14.0844 16.7391 14.8177 16.7396 15.5511V15.6056L16.588 15.6083C16.5089 15.6099 16.4307 15.6115 16.3538 15.6115L10.3037 15.6127L10.2729 15.6116C10.2485 15.6114 10.2241 15.6098 10.1998 15.6069C10.0293 15.5761 9.85362 15.592 9.6914 15.6529C9.52918 15.7138 9.38644 15.8174 9.27831 15.9528L9.26517 15.9702C9.24214 16.0016 9.221 16.0344 9.20186 16.0683C9.18219 16.1023 9.16446 16.1374 9.14878 16.1735C9.05642 16.3763 9.03486 16.6043 9.08755 16.8209C9.14024 17.0375 9.26414 17.2301 9.43937 17.3679L9.46402 17.3908L9.94067 17.5268L9.63172 17.5209C9.71203 17.561 9.79906 17.5858 9.88841 17.5942C9.92894 17.5986 9.96971 17.6019 10.0106 17.6046L10.0715 17.6075C10.0925 17.6086 10.1134 17.6097 10.1343 17.6104C10.2207 17.613 10.3019 17.6135 10.3817 17.614L10.3935 17.6142C10.4587 17.6146 10.5133 17.6152 10.5678 17.6163L10.6909 17.6187L10.6071 17.7095C10.5956 17.7218 10.5831 17.7332 10.5696 17.7435C10.5552 17.7546 10.5401 17.7647 10.5243 17.7739C10.5035 17.7855 10.4904 17.7922 10.4768 17.7986L10.3706 17.8473L10.3344 17.8038L10.3602 17.8529L10.3437 17.8617L10.3043 17.8211L10.3334 17.8682L10.3191 17.8773L10.276 17.8406L10.3095 17.8846L10.297 17.8944L10.2499 17.863L10.2884 17.9028L10.2777 17.9135L10.2264 17.8892L10.27 17.9234L10.2341 17.9801L10.198 17.9892ZM8.35284 6.76853C8.36734 6.78961 8.38073 6.81142 8.39297 6.83388C8.46995 6.98882 8.50705 7.16051 8.50091 7.33341C8.50408 7.59178 8.504 7.85451 8.5039 8.10873L8.50402 8.44932C8.50402 9.18063 8.50466 9.91184 8.50595 10.643C8.5085 12.5676 8.51114 14.5546 8.49495 16.5088C8.48941 17.1819 8.86475 17.6917 9.47461 17.8392L9.49529 17.8446C9.55805 17.8638 9.62297 17.8752 9.68854 17.8785H10.1659L10.1686 17.8743C10.1725 17.8684 10.1767 17.863 10.181 17.8576C10.1885 17.8478 10.1917 17.8437 10.195 17.8399C10.1995 17.8349 10.2043 17.8302 10.2091 17.8256L10.2245 17.8108C10.2295 17.8065 10.2347 17.8025 10.24 17.7986L10.3369 17.7408C10.3497 17.7348 10.3609 17.7297 10.3715 17.7249C10.288 17.7243 10.212 17.7236 10.136 17.7213C10.1092 17.7205 10.0875 17.7194 10.0658 17.7183L10.0036 17.7153C9.96103 17.7126 9.91858 17.709 9.87641 17.7044C9.70495 17.692 9.54318 17.6202 9.41885 17.5015L9.36543 17.4505C9.32765 17.4192 9.29171 17.3857 9.25782 17.3502L9.23282 17.327L9.23725 17.3282C9.09098 17.1695 8.99488 16.9711 8.96101 16.7579C8.92715 16.5447 8.95704 16.3263 9.04693 16.13C9.06428 16.0902 9.08388 16.0513 9.10564 16.0137C9.12693 15.9759 9.15048 15.9395 9.17615 15.9045L9.19082 15.8851C9.3107 15.7341 9.46921 15.6183 9.64954 15.5501C9.82986 15.4818 10.0253 15.4636 10.2151 15.4974C10.2346 15.4997 10.2542 15.5009 10.2738 15.501L10.3065 15.5021L16.3537 15.5008C16.4299 15.5008 16.5074 15.4992 16.5824 15.4977L16.6287 15.4968C16.6282 14.7816 16.6271 14.0664 16.6254 13.3512C16.6215 11.4036 16.6175 9.39362 16.634 7.41669C16.6322 7.07263 16.4943 6.74327 16.2504 6.50058C16.1356 6.38173 15.9982 6.28699 15.8464 6.22193C15.6945 6.15687 15.5312 6.12279 15.3659 6.12169C13.5472 6.13289 11.7054 6.13117 9.92422 6.1295H9.88775C9.16459 6.12876 8.44156 6.12833 7.71867 6.1282L7.91361 6.23813C7.92464 6.24541 7.93556 6.25286 7.94637 6.26049L7.97454 6.28078C7.98531 6.28876 7.99589 6.29698 8.00641 6.30531L8.03334 6.32713C8.04374 6.33585 8.05392 6.34485 8.06406 6.35399L8.08961 6.37741C8.09965 6.387 8.1094 6.39698 8.11913 6.40698L8.143 6.4319C8.15211 6.44187 8.16088 6.45224 8.16966 6.46263L8.19325 6.49088C8.20153 6.50137 8.20948 6.51232 8.21742 6.52329L8.1812 6.56759L8.22578 6.53474L8.23995 6.55454C8.24782 6.56616 8.25527 6.5783 8.26272 6.59045L8.2244 6.63373L8.27122 6.60415L8.28283 6.62316C8.29124 6.63783 8.29909 6.65322 8.30692 6.66857L8.26428 6.70656L8.3131 6.68041L8.32154 6.69683C8.33259 6.71998 8.34302 6.74388 8.35284 6.76853Z"
    fill="#2B2129"
  />
  <path
    d="M10.4813 16.8341C10.487 16.794 10.4904 16.7536 10.4913 16.7131C10.4994 16.6523 10.4938 16.5905 10.475 16.5321C10.4562 16.4737 10.4247 16.4202 10.3826 16.3755C10.374 16.3634 10.3654 16.351 10.3569 16.3385C10.3545 16.335 10.3523 16.3315 10.35 16.328C10.3438 16.3188 10.3377 16.3095 10.3319 16.3001C10.329 16.2954 10.3264 16.2907 10.3237 16.2859C10.3187 16.2775 10.314 16.2691 10.3095 16.2605C10.3068 16.2552 10.3044 16.2497 10.3019 16.2443C10.2993 16.2389 10.2971 16.2335 10.2949 16.228L10.2986 16.228L10.9203 16.2178C10.9274 16.2296 10.9334 16.2417 10.9401 16.2537C10.9492 16.2701 10.9587 16.2864 10.9668 16.3031C10.9736 16.3171 10.979 16.3313 10.9851 16.3455C10.9919 16.3614 10.9993 16.3772 11.0053 16.3933C11.0112 16.4091 11.0156 16.4253 11.0207 16.4413C11.0253 16.456 11.0306 16.4706 11.0345 16.4854C11.0395 16.5042 11.0429 16.5233 11.0468 16.5423C11.0493 16.5545 11.0525 16.5666 11.0546 16.579C11.0585 16.603 11.0608 16.6271 11.063 16.6513C11.0637 16.6587 11.0651 16.6661 11.0656 16.6735C11.0732 16.8234 11.0511 16.9733 11.0005 17.1146C10.9499 17.256 10.8718 17.3859 10.7708 17.4969C10.7618 17.5072 10.7518 17.5169 10.7424 17.527C10.7278 17.5427 10.7135 17.5586 10.6979 17.5739C10.6724 17.5988 10.6456 17.623 10.6175 17.6466C10.5482 17.6449 10.4787 17.6445 10.4092 17.6441C10.3287 17.6436 10.2468 17.643 10.1648 17.6406L10.1586 17.6404C10.1386 17.6398 10.1186 17.6386 10.0985 17.6377C10.0346 17.6348 9.97067 17.6309 9.90755 17.6241C9.88807 17.6219 9.86906 17.6192 9.85044 17.6161C9.84434 17.615 9.83852 17.6137 9.8325 17.6125C9.82016 17.6101 9.80783 17.6078 9.79589 17.6049C9.78901 17.6033 9.78239 17.6013 9.77564 17.5995C9.76496 17.5967 9.75428 17.5938 9.74394 17.5906C9.73699 17.5884 9.73029 17.586 9.72349 17.5836C9.71377 17.5803 9.70409 17.5768 9.69469 17.5731C9.68791 17.5704 9.68134 17.5676 9.67476 17.5646C9.66574 17.5607 9.6568 17.5567 9.6481 17.5524C9.64165 17.5493 9.63535 17.546 9.62907 17.5426C9.62063 17.5381 9.6123 17.5335 9.60416 17.5286C9.5981 17.525 9.59214 17.5213 9.58626 17.5175C9.57833 17.5124 9.57058 17.5071 9.563 17.5017C9.55737 17.4977 9.55179 17.4936 9.54638 17.4894C9.54125 17.4854 9.53633 17.4812 9.53134 17.477L9.51648 17.4633C9.54442 17.4629 9.57237 17.4628 9.60029 17.4628C9.75194 17.4724 9.90399 17.4519 10.0477 17.4024C10.0869 17.3863 10.1248 17.367 10.1609 17.3447C10.2497 17.2897 10.3248 17.2151 10.3803 17.1266C10.4358 17.0381 10.4704 16.9381 10.4813 16.8341Z"
    fill="#BB9168"
  />
  <path
    d="M10.637 17.7024L10.6162 17.7019C10.5486 17.7003 10.4808 17.6999 10.413 17.6995C10.3278 17.699 10.2455 17.6984 10.1631 17.6959L10.096 17.693C10.0308 17.6901 9.9658 17.6861 9.90154 17.6791C9.88091 17.6769 9.8608 17.674 9.84109 17.6707L9.82819 17.6681C9.80886 17.6644 9.79573 17.6618 9.783 17.6588L9.76768 17.6547C9.74961 17.6499 9.7383 17.6469 9.72733 17.6434L9.71048 17.6377C9.69482 17.6323 9.68437 17.6286 9.67421 17.6246L9.65538 17.6166C9.64277 17.6112 9.63306 17.6068 9.62361 17.6022L9.60289 17.5915C9.59367 17.5866 9.58459 17.5815 9.57569 17.5762L9.55611 17.564C9.54743 17.5584 9.53894 17.5526 9.53063 17.5466L9.47868 17.5038L9.3772 17.4099L9.51549 17.4078C9.54369 17.4074 9.5719 17.4074 9.60008 17.4073C9.74453 17.4166 9.8894 17.3975 10.0265 17.3511C10.063 17.3361 10.0982 17.3181 10.1317 17.2975C10.2137 17.2468 10.2829 17.178 10.3341 17.0963C10.3852 17.0146 10.4168 16.9222 10.4265 16.8263C10.4318 16.7883 10.435 16.75 10.436 16.7116C10.4433 16.6567 10.4382 16.6009 10.4212 16.5483C10.4041 16.4957 10.3755 16.4475 10.3374 16.4074L10.3039 16.3588C10.2974 16.349 10.2909 16.3392 10.2848 16.3292L10.2784 16.3184C10.2704 16.3046 10.2651 16.2953 10.2603 16.2859L10.2133 16.1751L10.294 16.1727L10.9512 16.1619L10.9676 16.1891C10.9728 16.1977 10.9775 16.2064 10.9822 16.2152L10.9953 16.2391C11.0027 16.2523 11.0101 16.2655 11.0166 16.279C11.0217 16.2893 11.026 16.2999 11.0304 16.3104L11.0417 16.3369C11.0472 16.3493 11.0526 16.3616 11.0572 16.3741C11.0618 16.3864 11.0656 16.3988 11.0693 16.4112L11.078 16.4386C11.0816 16.4494 11.0851 16.4603 11.088 16.4713C11.0923 16.4873 11.0955 16.5033 11.0987 16.5194L11.1039 16.5441C11.1058 16.5527 11.1078 16.5614 11.1092 16.57C11.1134 16.5954 11.1158 16.6209 11.1182 16.6463L11.1208 16.6697C11.1291 16.8269 11.1061 16.9842 11.0531 17.1324C11.0002 17.2807 10.9184 17.4169 10.8125 17.5334C10.8063 17.5404 10.7998 17.5473 10.7932 17.554L10.7744 17.574C10.7621 17.5873 10.7498 17.6006 10.7366 17.6135C10.71 17.6395 10.6821 17.6647 10.653 17.6891L10.637 17.7024ZM9.70488 17.5173L9.71503 17.5216C9.72368 17.525 9.7326 17.5281 9.74155 17.5312L9.76038 17.5377C9.76985 17.5407 9.77963 17.5433 9.78941 17.5459L9.80863 17.551C9.81978 17.5537 9.83131 17.5559 9.84283 17.5581L9.85034 17.6161L9.85965 17.5615C9.87718 17.5645 9.89509 17.567 9.91342 17.569C9.97539 17.5757 10.0381 17.5795 10.1009 17.5823L10.1602 17.585C10.2479 17.5876 10.3293 17.5881 10.4094 17.5886C10.4746 17.589 10.5364 17.5894 10.5977 17.5907C10.6189 17.5723 10.6394 17.5535 10.6592 17.5342C10.6709 17.5227 10.6819 17.5107 10.6929 17.4987L10.7135 17.4769C10.7188 17.4714 10.7241 17.4659 10.729 17.4602C10.8253 17.3548 10.8998 17.2313 10.948 17.0968C10.9963 16.9624 11.0174 16.8198 11.0102 16.6772L11.0078 16.6562C11.0057 16.6333 11.0035 16.6105 10.9998 16.5878C10.9987 16.5814 10.9972 16.575 10.9958 16.5685L10.9899 16.5408C10.9872 16.527 10.9845 16.5131 10.9809 16.4995C10.9785 16.4906 10.9756 16.4819 10.9727 16.4732L10.9632 16.4431C10.9601 16.4328 10.957 16.4225 10.9532 16.4124C10.9494 16.402 10.9448 16.3918 10.9403 16.3815L10.9278 16.3525C10.9243 16.344 10.9209 16.3355 10.9168 16.3271C10.9113 16.3157 10.905 16.3045 10.8987 16.2933L10.8878 16.2736L10.3859 16.2819C10.3892 16.287 10.3925 16.2921 10.396 16.2972L10.3568 16.3385L10.4026 16.3073L10.4279 16.3436C10.4746 16.3943 10.5094 16.4549 10.5298 16.5208C10.5501 16.5867 10.5555 16.6563 10.5455 16.7245C10.545 16.7638 10.5419 16.8031 10.5361 16.842C10.5237 16.9539 10.4862 17.0615 10.4262 17.1568C10.3662 17.252 10.2853 17.3324 10.1897 17.3918C10.1511 17.4157 10.1105 17.4363 10.0685 17.4536C9.95234 17.4974 9.82901 17.519 9.70488 17.5173ZM10.3483 16.2825L10.3318 16.3001L10.3605 16.2824L10.3483 16.2825Z"
    fill="#2B2129"
  />
  <path
    d="M10.4681 16.7L10.2907 16.6994C10.1156 16.6988 9.94056 16.698 9.76552 16.697L9.74993 16.6969C9.66514 16.6966 9.58505 16.6964 9.55666 16.5974C9.54511 16.5558 9.54542 16.5118 9.55754 16.4703C9.56966 16.4289 9.59312 16.3916 9.62527 16.3628C9.63824 16.349 9.65145 16.3365 9.6648 16.3246C9.66898 16.3209 9.67323 16.3175 9.67745 16.314C9.68699 16.306 9.69664 16.2985 9.70638 16.2914C9.71101 16.2881 9.71561 16.2847 9.72029 16.2816C9.73124 16.2742 9.74233 16.2675 9.75352 16.2612C9.75662 16.2595 9.75965 16.2574 9.76278 16.2558C9.77663 16.2484 9.79073 16.242 9.805 16.2361C9.8102 16.234 9.81552 16.2322 9.82079 16.2302C9.83039 16.2267 9.84006 16.2234 9.84985 16.2205C9.85601 16.2186 9.86222 16.2169 9.86846 16.2153C9.87813 16.2128 9.88792 16.2107 9.89778 16.2087C9.90363 16.2076 9.9094 16.2063 9.9153 16.2053C9.92999 16.2029 9.94488 16.2011 9.95997 16.1998C9.96635 16.1992 9.97288 16.199 9.97932 16.1987C9.98929 16.1981 9.99939 16.1976 10.0096 16.1975C10.0166 16.1975 10.0237 16.1975 10.0308 16.1976C10.0424 16.1978 10.0541 16.1982 10.0658 16.1988C10.0716 16.1992 10.0772 16.1994 10.083 16.1998C10.1009 16.2011 10.119 16.2028 10.1374 16.2051L10.1435 16.2059C10.1621 16.2083 10.1811 16.2111 10.2003 16.2144L10.2033 16.2149C10.2241 16.2184 10.2453 16.2224 10.2668 16.2269C10.2698 16.2348 10.2736 16.2424 10.2771 16.25C10.2797 16.2559 10.282 16.262 10.2849 16.2678C10.2896 16.2769 10.2947 16.2858 10.2999 16.2947C10.3028 16.2998 10.3054 16.305 10.3085 16.31C10.3145 16.3198 10.3209 16.3294 10.3272 16.339C10.3298 16.3429 10.3322 16.3469 10.3349 16.3507C10.3439 16.364 10.3531 16.3771 10.3622 16.3901C10.3706 16.402 10.3789 16.4139 10.3871 16.4257C10.3888 16.4283 10.3904 16.4309 10.3922 16.4335C10.3986 16.4429 10.4049 16.4523 10.4108 16.4618C10.4124 16.4643 10.4138 16.4669 10.4153 16.4694C10.4212 16.4791 10.427 16.4888 10.4323 16.4986C10.4334 16.5007 10.4343 16.503 10.4354 16.5051C10.4408 16.5155 10.4459 16.5259 10.4503 16.5366C10.4511 16.5385 10.4516 16.5406 10.4524 16.5426C10.4567 16.5535 10.4605 16.5646 10.4636 16.576C10.4643 16.5783 10.4646 16.5808 10.4651 16.5831C10.4679 16.5943 10.4701 16.6057 10.4715 16.6172C10.4719 16.6208 10.4718 16.6245 10.4721 16.6282C10.4729 16.6388 10.4732 16.6495 10.4729 16.6601C10.4726 16.6666 10.4715 16.6734 10.4708 16.6801C10.4701 16.6867 10.4693 16.6932 10.4681 16.7Z"
    fill="#2B2129"
  />
  <path
    d="M10.5146 16.7554L10.2905 16.7546C10.1153 16.7541 9.94022 16.7533 9.76511 16.7522L9.74966 16.7522C9.6626 16.7519 9.54327 16.7516 9.50342 16.6126C9.48918 16.5618 9.48926 16.508 9.50363 16.4572C9.51801 16.4064 9.54612 16.3606 9.58488 16.3248C9.59905 16.3097 9.61346 16.296 9.62808 16.2831L9.63883 16.274C9.65254 16.2626 9.6632 16.2542 9.67398 16.2465L9.68948 16.2355C9.70167 16.2273 9.71403 16.2198 9.72653 16.2128L9.7369 16.2068C9.75225 16.1987 9.768 16.1913 9.78408 16.1848L9.79737 16.1798C9.81247 16.1742 9.82326 16.1705 9.83417 16.1673L9.85487 16.1615C9.86554 16.1588 9.87638 16.1564 9.88729 16.1543L9.90659 16.1505C9.92266 16.1479 9.93893 16.1459 9.95543 16.1445L9.97051 16.1436C9.9872 16.1427 9.99804 16.1422 10.009 16.1421L10.0318 16.1421C10.0441 16.1423 10.0565 16.1428 10.0691 16.1435L10.0872 16.1444C10.106 16.1458 10.125 16.1477 10.1444 16.15C10.1701 16.1533 10.1897 16.1562 10.2097 16.1596C10.2343 16.1638 10.256 16.1679 10.2782 16.1725L10.3081 16.1786L10.3311 16.2349C10.3383 16.2501 10.3424 16.2572 10.3465 16.2643L10.3521 16.2742C10.3615 16.2902 10.3675 16.2991 10.3734 16.3081L10.335 16.3506L10.3808 16.3195L10.4329 16.3943C10.4449 16.4123 10.4516 16.4223 10.4579 16.4323C10.4692 16.4511 10.4755 16.4617 10.4813 16.4725C10.4908 16.4915 10.4966 16.5033 10.5016 16.5154C10.5076 16.5305 10.5128 16.5459 10.5173 16.5616C10.5213 16.5778 10.5244 16.5942 10.5266 16.6108L10.5274 16.6241C10.5284 16.6368 10.5288 16.6496 10.5283 16.6624C10.528 16.6687 10.5273 16.6752 10.5265 16.6816C10.5251 16.6937 10.5241 16.7015 10.5228 16.7094L10.5146 16.7554ZM10.4682 16.6599V16.6612L10.4729 16.6601L10.4682 16.6599ZM9.66478 16.3245L9.70153 16.3659C9.68942 16.3767 9.6774 16.388 9.66562 16.4005C9.64022 16.4225 9.62151 16.4512 9.61165 16.4833C9.60179 16.5154 9.60118 16.5496 9.60988 16.582C9.62481 16.6341 9.65158 16.6411 9.75005 16.6414L9.76577 16.6414C9.94089 16.6427 10.1159 16.6435 10.2908 16.6439L10.4175 16.6443C10.4174 16.6402 10.4171 16.6362 10.4168 16.6322C10.4161 16.6201 10.4142 16.608 10.4113 16.5961C10.4086 16.5847 10.4051 16.5735 10.4008 16.5627C10.3965 16.5516 10.3917 16.5408 10.3862 16.5304C10.3786 16.5157 10.3734 16.5069 10.368 16.4983L10.281 16.3694C10.2743 16.3593 10.2676 16.3492 10.2612 16.3388L10.2547 16.3275C10.2452 16.3107 10.2401 16.3018 10.2355 16.2926L10.2289 16.2782L10.2314 16.2763C10.2188 16.2738 10.2063 16.2716 10.1939 16.2694C10.1725 16.2658 10.1543 16.2631 10.1363 16.2608C10.1131 16.2579 10.0959 16.2562 10.0789 16.255L10.0628 16.2541C10.0517 16.2535 10.0408 16.2531 10.03 16.253L10.0103 16.253C10.0009 16.2531 9.99158 16.2535 9.98236 16.2541L9.96463 16.255C9.95094 16.2562 9.93744 16.2579 9.92413 16.26L9.90837 16.2632C9.89958 16.2649 9.89083 16.2667 9.88219 16.269L9.86558 16.2736C9.85696 16.2762 9.8484 16.2791 9.8399 16.2822L9.80493 16.2362L9.82597 16.2874C9.8134 16.2926 9.80096 16.2982 9.78875 16.3047C9.77064 16.3151 9.76081 16.3211 9.75109 16.3276L9.7403 16.3352C9.72999 16.3427 9.72137 16.3494 9.71283 16.3566L9.66478 16.3245ZM10.2624 16.2485L10.2615 16.2527L10.2739 16.243L10.2624 16.2485Z"
    fill="#2B2129"
  />
  <path
    d="M10.2773 16.2034C10.0438 16.1548 9.80125 16.1387 9.60706 16.3455C9.57178 16.3774 9.54612 16.4185 9.53297 16.4642C9.51983 16.5099 9.51972 16.5583 9.53267 16.6041C9.56621 16.7211 9.66375 16.7213 9.74976 16.7216L9.76526 16.7217C9.93561 16.7229 10.106 16.7237 10.2763 16.7241L10.4657 16.7247C10.4654 16.7327 10.4649 16.7405 10.4644 16.7484C10.4638 16.7582 10.4633 16.768 10.4625 16.7776C10.4617 16.7874 10.4604 16.797 10.4593 16.8066C10.4582 16.816 10.4572 16.8255 10.4558 16.8346C10.4544 16.8441 10.4526 16.8533 10.4509 16.8625C10.4493 16.8715 10.4478 16.8806 10.4459 16.8893C10.4439 16.8985 10.4416 16.9073 10.4393 16.9162C10.4372 16.9248 10.4352 16.9334 10.4328 16.9418C10.4303 16.9506 10.4274 16.959 10.4246 16.9676C10.422 16.9757 10.4195 16.984 10.4166 16.9919C10.4136 17.0003 10.4101 17.0084 10.4068 17.0166C10.4037 17.0243 10.4007 17.0322 10.3973 17.0397C10.3937 17.0477 10.3897 17.0553 10.3859 17.063C10.3823 17.0704 10.3788 17.0779 10.3749 17.0851C10.3708 17.0926 10.3663 17.0998 10.3619 17.1072C10.3578 17.1142 10.3538 17.1213 10.3494 17.128C10.3448 17.1352 10.3397 17.142 10.3348 17.149C10.3302 17.1555 10.3257 17.1622 10.3209 17.1685C10.3157 17.1753 10.31 17.1818 10.3045 17.1883C10.2995 17.1944 10.2946 17.2006 10.2894 17.2064C10.2835 17.2129 10.2773 17.2189 10.2712 17.2251C10.2657 17.2307 10.2605 17.2364 10.2548 17.2418C10.2484 17.2479 10.2415 17.2535 10.2349 17.2593C10.229 17.2644 10.2234 17.2697 10.2173 17.2746C10.2102 17.2804 10.2026 17.2857 10.1952 17.2912C10.1891 17.2957 10.1832 17.3004 10.1769 17.3048C10.1687 17.3104 10.1601 17.3156 10.1516 17.3209C10.1455 17.3247 10.1397 17.3287 10.1335 17.3323C10.1241 17.3379 10.1141 17.3429 10.1043 17.348C10.0986 17.3511 10.0931 17.3543 10.0872 17.3572C10.0713 17.3651 10.0549 17.3724 10.038 17.3794C9.89732 17.4275 9.7485 17.4474 9.60009 17.4379C9.56338 17.4379 9.52664 17.438 9.48992 17.4389L9.47585 17.4259L9.49003 17.439L9.439 17.3917L9.43844 17.3912C9.2565 17.2501 9.1276 17.0516 9.07268 16.8281C9.01776 16.6045 9.04005 16.3689 9.13592 16.1595C9.14688 16.1342 9.15878 16.1097 9.17137 16.0857C9.17543 16.078 9.17994 16.0706 9.18417 16.063C9.19303 16.0472 9.20197 16.0314 9.2115 16.0162C9.2169 16.0076 9.22265 15.9994 9.22826 15.991C9.23737 15.9774 9.24662 15.964 9.25628 15.951C9.26251 15.9426 9.26893 15.9345 9.27538 15.9264C9.28524 15.914 9.29534 15.9019 9.3057 15.8901C9.31243 15.8824 9.31926 15.8748 9.32619 15.8674C9.33713 15.8557 9.3484 15.8444 9.35985 15.8334C9.36679 15.8267 9.37368 15.8199 9.3808 15.8134C9.39346 15.8019 9.40654 15.791 9.41977 15.7803C9.4262 15.775 9.43246 15.7696 9.43903 15.7645C9.45592 15.7515 9.47336 15.7392 9.49109 15.7274C9.49441 15.7252 9.49751 15.7228 9.50084 15.7206C9.52244 15.7066 9.54462 15.6935 9.56737 15.6813C9.57125 15.6792 9.57533 15.6775 9.57925 15.6754C9.59789 15.6657 9.6168 15.6565 9.63615 15.648C9.6435 15.6448 9.65108 15.6419 9.65853 15.6389C9.67488 15.6322 9.69134 15.6257 9.70814 15.6199C9.71679 15.6169 9.7256 15.6142 9.73436 15.6114C9.75045 15.6063 9.76669 15.6016 9.78316 15.5972C9.79249 15.5948 9.80188 15.5925 9.81132 15.5903C9.82782 15.5865 9.8445 15.5831 9.86135 15.5801C9.87088 15.5784 9.88043 15.5766 9.89008 15.5751C9.9076 15.5725 9.92536 15.5704 9.94324 15.5686C9.95245 15.5676 9.96157 15.5665 9.97087 15.5658C9.9908 15.5642 10.011 15.5635 10.0313 15.563C10.0387 15.5628 10.046 15.5623 10.0535 15.5623C10.0741 15.5622 10.0949 15.5631 10.1158 15.5641C10.1242 15.5645 10.1324 15.5644 10.1408 15.565C10.1701 15.567 10.1997 15.5699 10.2296 15.5741C10.2524 15.5768 10.2753 15.5783 10.2983 15.5785C10.3051 15.5787 10.3122 15.579 10.3192 15.5792C10.3199 15.5832 10.3212 15.5864 10.322 15.5902C10.3231 15.5946 10.324 15.5992 10.3254 15.6033C10.3271 15.6082 10.3291 15.613 10.3314 15.6176C10.3331 15.6213 10.3347 15.6252 10.3367 15.6286C10.3392 15.6328 10.342 15.6369 10.345 15.6408C10.3472 15.6438 10.3493 15.6471 10.3518 15.6499C10.355 15.6536 10.3586 15.657 10.3622 15.6604C10.3648 15.6629 10.3672 15.6655 10.3699 15.6679C10.3738 15.6712 10.378 15.6741 10.3821 15.6771C10.3849 15.6791 10.3875 15.6812 10.3904 15.6831C10.3949 15.686 10.3997 15.6887 10.4044 15.6914C10.4071 15.693 10.4097 15.6947 10.4125 15.6962C10.4178 15.699 10.4231 15.7016 10.4285 15.7042C10.4308 15.7053 10.4331 15.7066 10.4354 15.7077C10.443 15.7113 10.4506 15.7148 10.4581 15.7182L10.4731 15.725C10.4992 15.7371 10.5243 15.7501 10.5483 15.7641C10.5561 15.7686 10.563 15.7738 10.5706 15.7784C10.5865 15.7884 10.6026 15.7981 10.6177 15.809C10.6255 15.8146 10.6327 15.821 10.6404 15.8269C10.6542 15.8376 10.6682 15.8481 10.6812 15.8597C10.6884 15.866 10.6949 15.8731 10.7019 15.8797C10.7145 15.8917 10.7272 15.9036 10.739 15.9164C10.7454 15.9234 10.7513 15.9311 10.7575 15.9383C10.7689 15.9516 10.7804 15.9649 10.791 15.9791C10.797 15.9872 10.8025 15.9959 10.8083 16.0043C10.8181 16.0184 10.828 16.0325 10.8371 16.0475C10.8433 16.0578 10.8489 16.0687 10.8548 16.0793C10.8625 16.0931 10.8702 16.1068 10.8774 16.1213C10.8845 16.1358 10.8907 16.1508 10.8972 16.1658C10.9011 16.1748 10.9052 16.1838 10.9089 16.1931L10.2773 16.2034Z"
    fill="#CBA58C"
  />
  <path
    d="M9.46887 17.4947L9.45246 17.4796L9.40151 17.4323C9.21061 17.2837 9.0755 17.075 9.01809 16.84C8.96068 16.605 8.98434 16.3575 9.08524 16.1376C9.09676 16.1109 9.10927 16.0851 9.12247 16.06L9.13142 16.044C9.14526 16.0193 9.15468 16.0027 9.16475 15.9867L9.17804 15.9665C9.19199 15.9458 9.20176 15.9316 9.21197 15.9179L9.23213 15.8919C9.24256 15.8788 9.25325 15.866 9.26418 15.8535L9.28587 15.8295C9.29744 15.8171 9.30936 15.8052 9.32148 15.7935L9.34363 15.7724C9.35703 15.7602 9.37089 15.7487 9.38489 15.7373L9.4053 15.7207C9.42319 15.7069 9.44162 15.6939 9.46038 15.6814L9.47073 15.6742C9.49362 15.6594 9.51709 15.6455 9.54116 15.6326L9.55372 15.6263C9.57343 15.6161 9.59344 15.6063 9.61392 15.5973L9.63003 15.5907C9.65484 15.5806 9.67224 15.5738 9.68999 15.5676L9.71257 15.5602C9.73465 15.5533 9.75177 15.5482 9.76914 15.5436L9.79881 15.5363C9.8162 15.5323 9.83376 15.5287 9.8515 15.5255L9.88174 15.5204C9.90014 15.5175 9.91881 15.5154 9.93756 15.5134L9.96656 15.5105C9.98746 15.5089 10.0086 15.5081 10.0299 15.5076L10.0532 15.5068C10.0747 15.5067 10.0965 15.5077 10.1184 15.5087L10.1445 15.5097C10.1751 15.5118 10.206 15.5149 10.2371 15.5192C10.2577 15.5216 10.2784 15.5229 10.2992 15.5231L10.3628 15.5254L10.3893 15.6076L10.4133 15.6313L10.4962 15.6747C10.5241 15.6876 10.5506 15.7014 10.5761 15.7162C10.5817 15.7194 10.5869 15.7228 10.5921 15.7263L10.5756 15.7815L10.6048 15.7344C10.6201 15.744 10.6355 15.7536 10.65 15.764C10.6557 15.768 10.6611 15.7724 10.6665 15.7768L10.6404 15.8269L10.6801 15.7876C10.693 15.7976 10.7058 15.8075 10.7179 15.8182C10.7232 15.8228 10.7281 15.8277 10.7331 15.8327L10.7019 15.8797L10.7446 15.8439C10.7566 15.8553 10.7685 15.8667 10.7798 15.8789C10.7845 15.884 10.7889 15.8894 10.7934 15.8948L10.7603 15.9416L10.8024 15.9056C10.8137 15.9187 10.8249 15.9319 10.8354 15.9459C10.8398 15.9518 10.844 15.958 10.8481 15.9642L10.8083 16.0042L10.8563 15.9762C10.866 15.9901 10.8756 16.004 10.8845 16.0188C10.8893 16.0266 10.8937 16.0348 10.8982 16.043L10.8549 16.0793L10.9065 16.0582C10.9136 16.0709 10.9206 16.0836 10.9271 16.0969C10.9337 16.1102 10.9397 16.1242 10.9457 16.1382L10.9085 16.1664V16.169L10.951 16.1504L10.9903 16.2471L10.2721 16.2589L10.266 16.2577C10.0148 16.2054 9.81346 16.2067 9.64751 16.3835C9.61894 16.4084 9.598 16.4409 9.58711 16.4773C9.57622 16.5136 9.57582 16.5523 9.58596 16.5888C9.60596 16.6586 9.65131 16.666 9.75003 16.6663L9.7656 16.6663C9.93602 16.6676 10.1063 16.6684 10.2766 16.6687L10.5233 16.6696L10.5151 16.8072L10.4586 16.8135L10.5136 16.8198L10.5066 16.8663L10.4498 16.8694L10.5043 16.8791L10.4947 16.9237L10.4378 16.923L10.4916 16.9362L10.4794 16.9787L10.4226 16.9744L10.4753 16.9912L10.4606 17.0315L10.4043 17.0231L10.4557 17.0436L10.4385 17.0819L10.3829 17.0695L10.4327 17.0937L10.413 17.1299L10.3583 17.1134L10.4061 17.1414L10.3839 17.1756L10.3306 17.155L10.3761 17.1866L10.3514 17.2186L10.2998 17.1941L10.3427 17.2291L10.3157 17.259L10.266 17.2306L10.306 17.2689L10.2767 17.2964L10.2291 17.2645L10.2659 17.3058L10.2522 17.3177C10.2463 17.3224 10.2402 17.3269 10.2341 17.3314L10.1889 17.2959L10.2225 17.34L10.2083 17.3504C10.2015 17.3551 10.1943 17.3596 10.1871 17.3641L10.145 17.3252L10.1752 17.3716L10.1616 17.3801C10.1533 17.385 10.1446 17.3895 10.1359 17.394L10.0976 17.3517L10.1244 17.4002L10.1117 17.4069C10.0947 17.4152 10.0772 17.4231 10.0592 17.4305C9.8756 17.4872 9.68298 17.5088 9.49142 17.4942L9.46887 17.4947ZM9.49102 15.7274L9.52173 15.7735C9.50505 15.7846 9.48868 15.7961 9.47279 15.8084L9.46219 15.817C9.44225 15.8333 9.42991 15.8436 9.41799 15.8544L9.40237 15.8692C9.38751 15.8836 9.37689 15.8942 9.36659 15.9052L9.34728 15.9266C9.33751 15.9377 9.32798 15.9491 9.3187 15.9608L9.30069 15.984C9.29155 15.9963 9.28283 16.009 9.27423 16.0218L9.25838 16.0456C9.24935 16.06 9.2409 16.0749 9.23253 16.0899L9.22034 16.1114C9.20842 16.1341 9.19708 16.1574 9.18673 16.1814C9.09594 16.3798 9.07487 16.603 9.12695 16.8148C9.17902 17.0267 9.30119 17.2147 9.4736 17.3483L9.51112 17.383C9.68172 17.3963 9.8533 17.3777 10.0171 17.328C10.0327 17.3216 10.048 17.3148 10.0627 17.3075L10.0786 17.2989C10.0917 17.2921 10.0988 17.2884 10.1056 17.2845L10.2939 17.1109L10.3796 16.9266L10.4066 16.7799L10.2762 16.7794C10.1058 16.7788 9.93534 16.778 9.76491 16.777L9.74958 16.777C9.66 16.7767 9.5245 16.7763 9.47948 16.6193C9.46388 16.5644 9.46378 16.5062 9.47918 16.4512C9.49458 16.3961 9.52488 16.3465 9.56673 16.3076C9.77857 16.082 10.0469 16.0995 10.2825 16.1479L10.8243 16.139C10.8196 16.1299 10.8146 16.121 10.8097 16.112L10.8007 16.0956C10.7971 16.0891 10.7936 16.0825 10.7898 16.0762C10.782 16.0635 10.7736 16.0514 10.7652 16.0393L10.7467 16.0122C10.7376 16.0002 10.7279 15.9889 10.7182 15.9776L10.6983 15.9539C10.6887 15.9435 10.6785 15.9338 10.6684 15.9242L10.6446 15.9011C10.6344 15.8921 10.6234 15.8837 10.6125 15.8753L10.5854 15.8539C10.5729 15.8449 10.5596 15.8368 10.5464 15.8285L10.5206 15.812C10.498 15.7989 10.4744 15.7866 10.4499 15.7752L10.3498 15.722C10.3439 15.7177 10.3389 15.7141 10.3342 15.7102L10.3256 15.7021C10.3185 15.6953 10.314 15.6908 10.3098 15.686L10.3017 15.6755C10.297 15.6693 10.2927 15.6629 10.2887 15.6562L10.2821 15.6431C10.2805 15.6395 10.279 15.6362 10.2777 15.6332C10.259 15.6327 10.2404 15.6313 10.2219 15.6289C10.1934 15.6249 10.1651 15.6221 10.137 15.6202L10.1132 15.6193C10.0932 15.6184 10.0734 15.6175 10.0537 15.6176L10.0326 15.6183C10.0133 15.6188 9.99405 15.6194 9.9751 15.6209L9.9579 15.6226C9.93192 15.6253 9.91507 15.6273 9.89845 15.6298L9.87258 15.6343C9.85525 15.6374 9.83945 15.6406 9.82384 15.6442L9.7972 15.6508C9.7817 15.6548 9.76629 15.6594 9.75108 15.6642L9.72631 15.6722C9.71048 15.6777 9.69495 15.6838 9.67953 15.6901L9.65842 15.6986C9.64018 15.7066 9.62238 15.7154 9.60481 15.7245L9.56739 15.6812L9.5936 15.73C9.57219 15.7415 9.55132 15.7538 9.53099 15.767L9.49102 15.7274Z"
    fill="#2B2129"
  />
  <path
    d="M17.9591 16.9906C17.8746 17.542 17.4041 17.8077 17.0234 17.9336H10.2521C10.2533 17.9314 10.2544 17.929 10.2557 17.9269C10.2584 17.9225 10.2612 17.9183 10.264 17.9142C10.2674 17.9095 10.2708 17.9049 10.2744 17.9005C10.2775 17.8967 10.2807 17.893 10.284 17.8895C10.2878 17.8854 10.2918 17.8815 10.2959 17.8777C10.2994 17.8745 10.3029 17.8712 10.3065 17.8682C10.3108 17.8646 10.3154 17.8612 10.3199 17.8578C10.3236 17.8551 10.3273 17.8523 10.3312 17.8497C10.3361 17.8465 10.3411 17.8434 10.3461 17.8404C10.35 17.838 10.3538 17.8356 10.3577 17.8334C10.3633 17.8303 10.3689 17.8274 10.3746 17.8245C10.3783 17.8226 10.3819 17.8206 10.3857 17.8188C10.3924 17.8154 10.3992 17.8123 10.4061 17.8091C10.409 17.8078 10.4118 17.8064 10.4147 17.8051C10.4245 17.8007 10.4343 17.7963 10.4443 17.792C10.4567 17.7865 10.4692 17.781 10.4817 17.7753C10.5303 17.7556 10.5746 17.7266 10.612 17.6899C10.6187 17.6829 10.6249 17.6755 10.6307 17.6677C10.6599 17.6435 10.6877 17.6185 10.7142 17.5927L10.7163 17.5905C11.09 17.225 11.1963 16.7143 10.9878 16.2892C10.973 16.2591 10.9567 16.2294 10.9388 16.2002C10.8762 16.0266 10.7603 15.8772 10.6078 15.7733C10.5683 15.7464 10.5267 15.7226 10.4834 15.7023L10.4683 15.6954C10.461 15.6921 10.4536 15.6887 10.4464 15.6853L10.4416 15.6829C10.4361 15.6803 10.4307 15.6776 10.4254 15.6748C10.423 15.6735 10.4208 15.6722 10.4184 15.6709C10.4141 15.6684 10.4097 15.666 10.4056 15.6633C10.4031 15.6617 10.4008 15.6599 10.3984 15.6583C10.3947 15.6557 10.391 15.6531 10.3876 15.6503C10.3852 15.6484 10.383 15.6462 10.3808 15.6441C10.3777 15.6413 10.3747 15.6384 10.3719 15.6352C10.3698 15.6329 10.3679 15.6303 10.366 15.6277C10.3635 15.6245 10.3612 15.6211 10.359 15.6175C10.3573 15.6147 10.3558 15.6116 10.3544 15.6086C10.3525 15.6047 10.3508 15.6007 10.3494 15.5966C10.3482 15.5933 10.3472 15.5897 10.3463 15.5861C10.3458 15.584 10.3455 15.5816 10.3451 15.5794L11.0483 15.5793C12.8442 15.579 14.6401 15.5787 16.436 15.5782C16.5145 15.5782 16.5943 15.5766 16.6715 15.575C16.7083 15.5743 16.7451 15.5736 16.7818 15.573C17.4192 15.6004 17.8579 15.9507 17.9554 16.5101C17.9831 16.669 17.9844 16.8314 17.9591 16.9906Z"
    fill="#D7AF94"
  />
  <path
    d="M17.0325 17.9892H10.1576L10.2039 17.9067C10.2084 17.8984 10.2134 17.8903 10.2188 17.8825C10.223 17.8766 10.2273 17.8709 10.2318 17.8654C10.2356 17.8608 10.2395 17.8562 10.2436 17.8518C10.2484 17.8467 10.2533 17.8419 10.2584 17.8372L10.2712 17.8258C10.2764 17.8215 10.2818 17.8174 10.2872 17.8134L10.3831 17.759L10.4587 17.7251C10.5007 17.7083 10.539 17.6835 10.5717 17.6523C10.577 17.6467 10.5819 17.6408 10.5865 17.6347L10.5954 17.6253C10.6234 17.602 10.6502 17.578 10.6756 17.5532C11.0338 17.2028 11.136 16.7171 10.9381 16.3138C10.9241 16.2851 10.9086 16.2569 10.8917 16.2293C10.855 16.1252 10.7979 16.0294 10.7239 15.9476C10.6498 15.8658 10.5602 15.7996 10.4602 15.7527L10.3667 15.7038C10.3619 15.7005 10.3571 15.6971 10.3527 15.6934L10.3432 15.6849C10.3388 15.6809 10.3346 15.6767 10.3306 15.6723L10.3227 15.6624C10.3187 15.6572 10.315 15.6518 10.3115 15.6461L10.3045 15.6328C10.3017 15.627 10.2993 15.6211 10.2972 15.615L10.2927 15.5998L10.2798 15.5338L10.3451 15.5242L16.4361 15.523C16.5133 15.523 16.5916 15.5214 16.6675 15.5199L16.7811 15.5178C17.4496 15.5465 17.9078 15.9139 18.0101 16.5008C18.0388 16.6656 18.0402 16.834 18.014 16.9992C17.9252 17.5784 17.4358 17.8557 17.041 17.9863L17.0325 17.9892ZM10.3915 17.8784H17.0146C17.3786 17.7564 17.8248 17.5023 17.9045 16.9824C17.9288 16.829 17.9276 16.6727 17.901 16.5198C17.8083 15.9879 17.3891 15.6548 16.7796 15.6285L16.6752 15.6305C16.5931 15.6321 16.514 15.6337 16.4362 15.6337L10.4696 15.6349L10.5066 15.6521C10.5527 15.6736 10.5969 15.6989 10.6389 15.7275C10.8009 15.8378 10.924 15.9964 10.9907 16.1806C11.0081 16.2078 11.0238 16.236 11.0377 16.265C11.257 16.712 11.1461 17.2478 10.7552 17.6302C10.7271 17.6577 10.6996 17.6825 10.6711 17.7064C10.6651 17.714 10.6589 17.7213 10.6524 17.7281C10.61 17.7699 10.56 17.8031 10.5049 17.8257L10.4102 17.8686L10.3748 17.8246L10.4001 17.8739L10.3915 17.8784ZM10.3691 17.8784H10.3817L10.3462 17.8405L10.3691 17.8784ZM10.335 17.8784H10.3428L10.3201 17.858L10.335 17.8784Z"
    fill="#2B2129"
  />
  <path
    d="M15.8114 11.5884C15.742 11.6232 15.6641 11.6374 15.5869 11.6292C14.8924 11.6242 14.1863 11.625 13.5033 11.6258C13.2478 11.6261 12.9922 11.6263 12.7367 11.6264C12.4827 11.6262 12.2285 11.626 11.9742 11.6257C11.8072 11.6255 11.6389 11.6253 11.4694 11.6251C10.9615 11.6248 10.4455 11.6253 9.93608 11.6294C9.85493 11.6381 9.77299 11.6234 9.69988 11.5872C9.67576 11.5678 9.65712 11.5425 9.64579 11.5137C9.63445 11.485 9.63083 11.4537 9.63526 11.4231C9.63188 11.3954 9.63573 11.3672 9.64642 11.3414C9.65712 11.3155 9.67429 11.2929 9.6963 11.2756C9.70186 11.2718 9.70767 11.2685 9.71369 11.2655C9.78303 11.2394 9.85721 11.2287 9.9311 11.2341H9.93523C11.94 11.2386 13.7883 11.2385 15.586 11.2337C15.6639 11.226 15.7424 11.2404 15.8125 11.2753C15.8354 11.2937 15.8531 11.3177 15.8639 11.345C15.8747 11.3723 15.8782 11.4019 15.8741 11.4309C15.8783 11.4604 15.8746 11.4904 15.8637 11.518C15.8527 11.5456 15.8347 11.5699 15.8114 11.5884Z"
    fill="#C2956D"
  />
  <path
    d="M9.92622 11.685C9.83724 11.6933 9.74777 11.6753 9.66897 11.6332C9.63762 11.6085 9.61302 11.5763 9.59746 11.5396C9.58191 11.5029 9.57589 11.4628 9.57998 11.4231C9.5764 11.3863 9.58237 11.3492 9.59731 11.3154C9.61225 11.2815 9.63565 11.2521 9.66527 11.2299C9.67287 11.2248 9.68082 11.2201 9.68904 11.2161C9.76592 11.1856 9.84869 11.1728 9.93118 11.1788C11.9337 11.1834 13.7821 11.1833 15.5859 11.1785C15.675 11.1696 15.7647 11.1875 15.8437 11.2297C15.871 11.2559 15.8926 11.2874 15.9074 11.3222C15.9222 11.3571 15.9297 11.3945 15.9296 11.4323C15.9295 11.4702 15.9217 11.5076 15.9067 11.5423C15.8918 11.5771 15.8699 11.6084 15.8425 11.6345C15.7641 11.6763 15.675 11.6938 15.5866 11.6847C14.8892 11.6797 14.1847 11.6805 13.5035 11.6813L12.7368 11.6819L11.4695 11.6807C10.9617 11.6803 10.4459 11.6808 9.93657 11.6849L9.92622 11.685ZM9.93521 11.2896C9.86858 11.2845 9.80162 11.2932 9.7385 11.3152C9.7347 11.3171 9.73103 11.3192 9.7275 11.3216C9.71048 11.3331 9.69095 11.3551 9.69074 11.4235C9.69055 11.5034 9.71098 11.5279 9.73097 11.5414C9.79513 11.5704 9.86584 11.5817 9.93582 11.5742C10.4453 11.5701 10.9615 11.5696 11.4696 11.5699L12.7369 11.5711L13.5033 11.5706C14.1848 11.5698 14.8895 11.569 15.5874 11.574C15.6534 11.581 15.7201 11.5702 15.7805 11.5427C15.7994 11.5299 15.8188 11.5067 15.8188 11.431C15.8189 11.3568 15.8 11.3339 15.7814 11.3213C15.7201 11.2938 15.6527 11.2828 15.5859 11.2893C13.7822 11.294 11.9338 11.2941 9.93521 11.2896Z"
    fill="#2B2129"
  />
  <path
    d="M9.91469 13.4246H9.91823C11.8199 13.4299 13.7293 13.4299 15.5936 13.4246H15.5973C15.8297 13.4246 15.8705 13.4879 15.8737 13.6294C15.878 13.6576 15.8748 13.6864 15.8645 13.713C15.8542 13.7396 15.8371 13.7631 15.8149 13.781C15.7419 13.8179 15.6597 13.8325 15.5785 13.8231C14.8891 13.8183 14.1881 13.8191 13.5101 13.8198C13.0049 13.8203 12.4997 13.8203 11.9945 13.8198C11.8252 13.8196 11.6546 13.8194 11.4827 13.8192C10.9677 13.8189 10.4445 13.8194 9.92784 13.8231C9.84809 13.8319 9.7675 13.8174 9.69579 13.7815C9.67314 13.7633 9.65566 13.7396 9.64511 13.7125C9.63456 13.6855 9.6313 13.6562 9.63568 13.6275C9.63759 13.4902 9.67993 13.4246 9.91469 13.4246Z"
    fill="#C2956D"
  />
  <path
    d="M9.91462 13.8785C9.82796 13.8867 9.74082 13.8688 9.66444 13.827C9.63452 13.8036 9.61109 13.7728 9.59637 13.7378C9.58165 13.7027 9.57614 13.6645 9.58035 13.6267C9.58298 13.439 9.67362 13.3692 9.91476 13.3692H9.91828C11.818 13.3745 13.7273 13.3745 15.5935 13.3691C15.838 13.3691 15.9248 13.4369 15.9291 13.6281C15.9339 13.6655 15.9288 13.7035 15.9143 13.7383C15.8998 13.7731 15.8764 13.8035 15.8465 13.8265C15.7644 13.8709 15.6707 13.889 15.578 13.8784C14.8858 13.8736 14.1865 13.8744 13.5103 13.875C13.005 13.8756 12.4998 13.8756 11.9945 13.875L11.4827 13.8746C10.9678 13.8742 10.4448 13.8748 9.92826 13.8784C9.92366 13.8785 9.91912 13.8785 9.91462 13.8785ZM9.91476 13.4246V13.48C9.69319 13.48 9.6924 13.5358 9.6911 13.6282C9.69009 13.7004 9.70883 13.7231 9.72725 13.7358C9.78995 13.764 9.85903 13.775 9.9274 13.7677C10.4443 13.764 10.9676 13.7635 11.4828 13.7638L11.9947 13.7643C12.4999 13.7649 13.0051 13.7649 13.5102 13.7643C14.1867 13.7636 14.8862 13.7628 15.579 13.7676C15.6488 13.7755 15.7194 13.7644 15.7834 13.7354C15.8006 13.7236 15.82 13.7009 15.8184 13.6306C15.8162 13.5334 15.815 13.4799 15.5974 13.4799C13.7275 13.4853 11.8179 13.4853 9.91813 13.48L9.91476 13.4246Z"
    fill="#2B2129"
  />
  <path
    d="M9.91406 12.3296H9.91763C11.8153 12.3348 13.7249 12.3348 15.5931 12.3296H15.5969C15.83 12.3296 15.8708 12.3922 15.8737 12.5318C15.8779 12.5599 15.8746 12.5887 15.8642 12.6152C15.8537 12.6417 15.8365 12.6649 15.8142 12.6826C15.7414 12.7186 15.6599 12.7331 15.5792 12.7244C14.8828 12.7198 14.1746 12.7205 13.4899 12.7212C12.9857 12.7217 12.4814 12.7217 11.9771 12.7212C11.3056 12.7205 10.6112 12.7197 9.92837 12.7244C9.84856 12.7332 9.76791 12.7189 9.69607 12.683C9.67358 12.6651 9.65618 12.6416 9.64559 12.6149C9.63501 12.5882 9.63161 12.5591 9.63574 12.5307C9.63774 12.3946 9.68001 12.3296 9.91406 12.3296Z"
    fill="#C2956D"
  />
  <path
    d="M9.91321 12.7798C9.82723 12.7874 9.74091 12.7697 9.66495 12.7287C9.6347 12.7058 9.61098 12.6754 9.59615 12.6405C9.58131 12.6056 9.57588 12.5674 9.5804 12.5298C9.58316 12.3435 9.67361 12.2742 9.91409 12.2742H9.91767C11.8158 12.2794 13.7252 12.2794 15.593 12.2742C15.8383 12.2742 15.9252 12.3413 15.9291 12.5306C15.9338 12.568 15.9285 12.6059 15.9138 12.6406C15.8992 12.6753 15.8756 12.7056 15.8455 12.7283C15.7637 12.7715 15.6709 12.7894 15.5789 12.7797C14.8775 12.7751 14.1722 12.7758 13.4901 12.7765C12.9857 12.7771 12.4814 12.7771 11.9771 12.7765H11.9609C11.2948 12.7758 10.6059 12.7751 9.92881 12.7798C9.92352 12.7798 9.91832 12.7798 9.91321 12.7798ZM9.91409 12.3296V12.3849C9.69332 12.3849 9.6925 12.4401 9.69114 12.5314C9.69009 12.6026 9.7099 12.6253 9.72728 12.6371C9.79009 12.6654 9.85929 12.6764 9.92776 12.6689C10.6055 12.6643 11.2946 12.665 11.961 12.6657H11.9771C12.4814 12.6662 12.9856 12.6662 13.4899 12.6657C14.1722 12.665 14.8777 12.6642 15.5796 12.6689C15.649 12.6761 15.7191 12.665 15.7829 12.6368C15.8002 12.6249 15.8198 12.6024 15.8184 12.5328C15.8164 12.4374 15.8153 12.3848 15.5969 12.3848C13.7253 12.3901 11.8156 12.3901 9.91749 12.3848L9.91409 12.3296Z"
    fill="#2B2129"
  />
  <path
    d="M15.8146 14.8765C15.7554 14.9078 15.6887 14.9221 15.6219 14.9178C15.6084 14.9181 15.5941 14.9182 15.5792 14.918C14.8893 14.9133 14.188 14.914 13.5097 14.9147C13.0055 14.9152 12.5013 14.9152 11.9972 14.9147C11.3192 14.914 10.618 14.9132 9.92848 14.918C9.84846 14.9267 9.76763 14.9124 9.69546 14.8767C9.6731 14.8588 9.65581 14.8353 9.64531 14.8087C9.63482 14.782 9.63149 14.7531 9.63565 14.7247C9.63787 14.5884 9.68015 14.5232 9.91395 14.5232H9.91753C10.8649 14.5259 11.816 14.5272 12.7641 14.5272C13.7122 14.5272 14.6573 14.5258 15.5929 14.5232H15.5966C15.8299 14.5232 15.8708 14.5859 15.8737 14.7257C15.878 14.7538 15.8747 14.7825 15.8644 14.809C15.854 14.8354 15.8368 14.8587 15.8146 14.8765Z"
    fill="#C2956D"
  />
  <path
    d="M9.91582 14.9734C9.8288 14.9814 9.74136 14.9636 9.6643 14.9224C9.63417 14.8995 9.61057 14.8691 9.59584 14.8343C9.5811 14.7994 9.57575 14.7613 9.58032 14.7238C9.58335 14.5372 9.67379 14.4678 9.914 14.4678C10.8651 14.4705 11.8151 14.4718 12.7641 14.4718C13.7122 14.4718 14.6573 14.4704 15.5928 14.4678C15.8382 14.4678 15.9252 14.535 15.9291 14.7245C15.9338 14.7618 15.9286 14.7997 15.914 14.8344C15.8994 14.8691 15.8759 14.8993 15.8459 14.9221C15.7781 14.9601 15.7008 14.9778 15.6232 14.9731C15.6091 14.9734 15.5943 14.9735 15.5787 14.9733C14.8925 14.9686 14.1945 14.9693 13.5195 14.97C13.0056 14.9705 12.5014 14.9706 11.9972 14.97C11.3171 14.9693 10.6171 14.9685 9.92893 14.9733C9.92451 14.9734 9.92013 14.9734 9.91582 14.9734ZM9.91742 14.5786C9.69346 14.5786 9.69257 14.6339 9.69107 14.7256C9.68996 14.7966 9.70954 14.8192 9.72677 14.8309C9.7899 14.8591 9.85934 14.87 9.92805 14.8626C10.6168 14.8578 11.317 14.8585 11.9941 14.8593C12.5014 14.8599 13.0055 14.8598 13.5097 14.8593C14.1946 14.8586 14.8929 14.8578 15.5796 14.8626C15.5941 14.8628 15.6077 14.8627 15.6207 14.8624C15.6767 14.8661 15.7328 14.8552 15.7833 14.8307C15.8004 14.819 15.8199 14.7966 15.8184 14.7268C15.8164 14.6312 15.8153 14.5786 15.5966 14.5786C14.6547 14.5812 13.7078 14.5826 12.7557 14.5826C11.8103 14.5825 10.8621 14.5812 9.91742 14.5786Z"
    fill="#2B2129"
  />
  <path
    d="M15.8146 10.4919C15.7554 10.5233 15.6887 10.5376 15.6219 10.5333C15.6084 10.5336 15.5941 10.5337 15.5792 10.5335C14.8893 10.5287 14.188 10.5295 13.5097 10.5302C13.0055 10.5307 12.5013 10.5307 11.9972 10.5302C11.3192 10.5295 10.618 10.5287 9.92848 10.5335C9.84846 10.5422 9.76763 10.5278 9.69546 10.4922C9.6731 10.4743 9.65581 10.4508 9.64531 10.4242C9.63482 10.3975 9.63149 10.3685 9.63565 10.3402C9.63787 10.2038 9.68015 10.1387 9.91395 10.1387H9.91753C10.8649 10.1414 11.816 10.1427 12.7641 10.1426C13.7122 10.1426 14.6573 10.1413 15.5929 10.1387H15.5966C15.8299 10.1387 15.8708 10.2013 15.8737 10.3411C15.878 10.3692 15.8747 10.398 15.8644 10.4244C15.854 10.4509 15.8368 10.4742 15.8146 10.4919Z"
    fill="#C2956D"
  />
  <path
    d="M9.91584 10.5892C9.82881 10.5971 9.74136 10.5793 9.6643 10.5381C9.63417 10.5152 9.61057 10.4849 9.59583 10.45C9.5811 10.4152 9.57575 10.3771 9.58032 10.3395C9.58335 10.1529 9.67379 10.0835 9.914 10.0835C10.8651 10.0862 11.8151 10.0875 12.7641 10.0875C13.7122 10.0875 14.6573 10.0861 15.5928 10.0835C15.8382 10.0835 15.9252 10.1507 15.9291 10.3402C15.9338 10.3775 15.9286 10.4154 15.914 10.4501C15.8994 10.4848 15.8759 10.515 15.8459 10.5378C15.7781 10.5758 15.7008 10.5935 15.6232 10.5888C15.6091 10.5891 15.5943 10.5892 15.5787 10.589C14.8925 10.5843 14.1945 10.585 13.5195 10.5857C13.0056 10.5862 12.5014 10.5863 11.9972 10.5857C11.3171 10.585 10.6171 10.5842 9.92893 10.589C9.92452 10.5891 9.92013 10.5892 9.91584 10.5892ZM9.91742 10.1943C9.69346 10.1943 9.69258 10.2496 9.69107 10.3413C9.68996 10.4123 9.70954 10.4349 9.72677 10.4467C9.7899 10.4748 9.85934 10.4857 9.92805 10.4783C10.6168 10.4735 11.317 10.4743 11.9941 10.475C12.5014 10.4756 13.0055 10.4755 13.5097 10.475C14.1946 10.4743 14.8929 10.4736 15.5796 10.4783C15.5941 10.4785 15.6077 10.4784 15.6207 10.4781C15.6767 10.4818 15.7328 10.4709 15.7833 10.4464C15.8004 10.4347 15.8198 10.4123 15.8184 10.3425C15.8164 10.2469 15.8153 10.1943 15.5966 10.1943C14.6544 10.1969 13.707 10.1983 12.7545 10.1983C11.8095 10.1982 10.8617 10.1969 9.91742 10.1943Z"
    fill="#2B2129"
  />
  <path
    d="M15.8146 9.39719C15.7554 9.42856 15.6887 9.44288 15.6219 9.43855C15.6084 9.43886 15.5941 9.43894 15.5792 9.43878C14.8893 9.43402 14.188 9.43479 13.5097 9.43546C13.0055 9.43597 12.5013 9.43597 11.9972 9.43546C11.3192 9.43473 10.618 9.43397 9.92848 9.43878C9.84846 9.44745 9.76763 9.43312 9.69546 9.39746C9.6731 9.37955 9.65581 9.3561 9.64531 9.32943C9.63482 9.30277 9.63149 9.27382 9.63565 9.24547C9.63787 9.10912 9.68015 9.044 9.91395 9.044H9.91753C10.8649 9.04663 11.816 9.04794 12.7641 9.04793C13.7122 9.04792 14.6573 9.04659 15.5929 9.04395H15.5966C15.8299 9.04395 15.8708 9.1066 15.8737 9.24639C15.878 9.2745 15.8747 9.30324 15.8644 9.32971C15.854 9.35618 15.8368 9.37946 15.8146 9.39719Z"
    fill="#C2956D"
  />
  <path
    d="M9.91584 9.49419C9.82881 9.50211 9.74136 9.48437 9.6643 9.44316C9.63417 9.42027 9.61057 9.38989 9.59584 9.35504C9.5811 9.32019 9.57575 9.28209 9.58032 9.24453C9.58335 9.05795 9.67379 8.98858 9.914 8.98858C10.8651 8.99121 11.8151 8.99252 12.7641 8.99251C13.7122 8.99251 14.6573 8.99117 15.5928 8.98853C15.8382 8.98853 15.9252 9.05569 15.9291 9.2452C15.9338 9.28255 15.9286 9.32047 15.914 9.35515C15.8994 9.38984 15.8759 9.42007 15.8459 9.44281C15.7781 9.48083 15.7008 9.49855 15.6232 9.49385C15.6091 9.49417 15.5943 9.49425 15.5787 9.49409C14.8925 9.48935 14.1945 9.49009 13.5195 9.49077C13.0056 9.49129 12.5014 9.4913 11.9972 9.49077C11.3171 9.49004 10.6171 9.48928 9.92893 9.49409C9.92452 9.49417 9.92013 9.49419 9.91584 9.49419ZM9.91742 9.09934C9.69346 9.09934 9.69258 9.15472 9.69107 9.24633C9.68996 9.31732 9.70954 9.33993 9.72677 9.3517C9.7899 9.37979 9.85934 9.39072 9.92805 9.38338C10.6168 9.37855 11.317 9.3793 11.9941 9.38005C12.5014 9.38059 13.0055 9.38058 13.5097 9.38005C14.1946 9.37933 14.8929 9.37859 15.5796 9.38338C15.5941 9.38351 15.6077 9.38344 15.6207 9.38315C15.6767 9.38686 15.7328 9.37595 15.7833 9.35148C15.8004 9.33975 15.8199 9.31734 15.8184 9.24755C15.8164 9.15197 15.8153 9.09932 15.5967 9.09932C14.6547 9.10198 13.7078 9.10331 12.7557 9.10331C11.8103 9.10327 10.8621 9.10197 9.91742 9.09934Z"
    fill="#2B2129"
  />
  <path
    d="M15.8146 8.30198C15.7554 8.33334 15.6887 8.34766 15.6219 8.34334C15.6084 8.34364 15.5941 8.34372 15.5792 8.34357C14.8893 8.33881 14.188 8.33957 13.5097 8.34025C13.0055 8.34076 12.5013 8.34076 11.9972 8.34025C11.3192 8.33952 10.618 8.33875 9.92848 8.34357C9.84846 8.35223 9.76763 8.3379 9.69546 8.30224C9.6731 8.28433 9.65581 8.26088 9.64531 8.23421C9.63482 8.20755 9.63149 8.1786 9.63565 8.15025C9.63787 8.01389 9.68015 7.94877 9.91395 7.94877H9.91753C10.8649 7.95141 11.816 7.95272 12.7641 7.95272C13.7122 7.95272 14.6573 7.95138 15.5929 7.94873H15.5966C15.8299 7.94873 15.8708 8.01139 15.8737 8.15118C15.878 8.17929 15.8747 8.20802 15.8644 8.23449C15.854 8.26097 15.8368 8.28424 15.8146 8.30198Z"
    fill="#C2956D"
  />
  <path
    d="M9.91585 8.39921C9.82881 8.40713 9.74137 8.38939 9.6643 8.34818C9.63417 8.32529 9.61057 8.29491 9.59583 8.26006C9.5811 8.22521 9.57575 8.18711 9.58032 8.14956C9.58336 7.96297 9.67379 7.8936 9.914 7.8936C10.8651 7.89624 11.8151 7.89755 12.7641 7.89754C13.7122 7.89754 14.6573 7.8962 15.5928 7.89355C15.8382 7.89355 15.9252 7.96072 15.9291 8.15023C15.9338 8.18758 15.9286 8.2255 15.914 8.26018C15.8994 8.29487 15.8759 8.3251 15.8459 8.34784C15.7781 8.38585 15.7008 8.40357 15.6232 8.39888C15.6091 8.39919 15.5943 8.39927 15.5787 8.39912C14.8921 8.39438 14.1937 8.39511 13.5182 8.3958C13.0056 8.39633 12.5014 8.39634 11.9972 8.3958C11.3171 8.39507 10.6171 8.39431 9.92893 8.39912C9.92452 8.39919 9.92014 8.39921 9.91585 8.39921ZM9.91742 8.00436C9.69346 8.00436 9.69258 8.05974 9.69107 8.15135C9.68996 8.22235 9.70954 8.24495 9.72677 8.25673C9.7899 8.28482 9.85934 8.29574 9.92805 8.28839C10.6168 8.28356 11.317 8.28432 11.9941 8.28507C12.5014 8.28562 13.0055 8.28561 13.5097 8.28507C14.1938 8.28435 14.8924 8.28362 15.5796 8.28839C15.5941 8.28854 15.6077 8.28846 15.6207 8.28817C15.6767 8.29188 15.7328 8.28097 15.7833 8.25651C15.8004 8.24478 15.8199 8.22237 15.8184 8.15258C15.8164 8.05699 15.8153 8.00435 15.5967 8.00435C14.6547 8.00701 13.7078 8.00834 12.7557 8.00834C11.8103 8.0083 10.8621 8.00698 9.91742 8.00436Z"
    fill="#2B2129"
  />
</svg>
