<svg viewBox="0 0 24 24" fill="none" xmlns="http://www.w3.org/2000/svg">
    <rect width="24" height="24" rx="4" fill="#FFF6EB" />
    <rect width="24" height="24" rx="12" fill="#FFF6EB" />
    <path
        d="M7.35378 6.77356C7.15848 6.76359 6.95638 6.75325 6.78501 6.89518C6.69918 6.96627 6.58991 7.07747 6.6319 7.22186C6.63604 7.23616 6.64143 7.25006 6.64801 7.26341C6.64982 7.26706 6.65229 7.27011 6.65427 7.27362C6.65905 7.28259 6.66445 7.29122 6.67044 7.29944C6.67311 7.30292 6.67646 7.30578 6.6793 7.30907C6.68541 7.31646 6.69203 7.32341 6.69911 7.32987C6.70251 7.33283 6.70657 7.33519 6.71019 7.33796C6.71777 7.34403 6.72574 7.3496 6.73405 7.35464C6.73823 7.35707 6.74304 7.35891 6.74745 7.36112C6.75643 7.36584 6.76568 7.37005 6.77514 7.37372C6.78024 7.37561 6.78597 7.37694 6.79132 7.37859C6.80129 7.38169 6.81132 7.3848 6.82219 7.3871C6.82853 7.38845 6.83548 7.38922 6.84213 7.39029C6.85287 7.39202 6.86355 7.39379 6.87504 7.39481C6.88307 7.39552 6.89174 7.39566 6.90013 7.39602C6.90876 7.39639 6.91686 7.39725 6.92588 7.39725C6.93062 7.39725 6.93544 7.39725 6.94028 7.39711C7.14401 7.39285 7.35139 7.39389 7.55183 7.39501C7.61061 7.39532 7.66938 7.39555 7.72814 7.3957C7.74755 7.39577 7.76691 7.39591 7.78638 7.39594C7.78502 7.40591 7.78343 7.4156 7.78195 7.42537C7.78009 7.43719 7.77836 7.44915 7.77625 7.46069C7.77403 7.47253 7.77154 7.48395 7.7691 7.49547C7.76674 7.50667 7.76453 7.51801 7.76191 7.52893C7.7592 7.54028 7.75609 7.55117 7.75311 7.56216C7.75025 7.57275 7.74757 7.58348 7.74442 7.59378C7.74118 7.60454 7.73751 7.61483 7.73399 7.62532C7.73067 7.63529 7.72742 7.64548 7.7238 7.65522C7.71999 7.66548 7.71575 7.67529 7.71162 7.68525C7.70777 7.69461 7.7041 7.70415 7.69999 7.71324C7.69562 7.72294 7.69082 7.73217 7.68616 7.74157C7.68181 7.75037 7.67764 7.75936 7.67303 7.7679C7.66809 7.77706 7.66269 7.78575 7.65746 7.79463C7.65263 7.80282 7.64797 7.81124 7.64289 7.81916C7.63735 7.8278 7.63137 7.83594 7.62556 7.84427C7.62023 7.8519 7.6151 7.85977 7.60953 7.86711C7.60339 7.87521 7.59679 7.88283 7.59037 7.89064C7.58458 7.89768 7.57899 7.90492 7.57296 7.91169C7.56619 7.91931 7.55892 7.92643 7.55185 7.93373C7.54562 7.94015 7.53966 7.94681 7.53316 7.953C7.52572 7.96012 7.51776 7.96672 7.51001 7.97354C7.50337 7.97935 7.49696 7.98542 7.49007 7.99101C7.48188 7.99766 7.47315 8.00384 7.4646 8.01018C7.45763 8.01536 7.45092 8.0208 7.44374 8.02576C7.43468 8.03201 7.42508 8.03773 7.41568 8.04364C7.40848 8.04816 7.40153 8.05295 7.39412 8.05727C7.38399 8.06319 7.3733 8.06854 7.36278 8.07406C7.35556 8.07786 7.34863 8.08194 7.34122 8.08556C7.32917 8.09144 7.31654 8.09677 7.304 8.10217C7.29762 8.10493 7.29153 8.10799 7.28502 8.11062C7.26573 8.11844 7.24588 8.12574 7.22548 8.13252C7.19736 8.14185 7.16916 8.14985 7.14087 8.15652C7.13188 8.15866 7.12286 8.15993 7.11386 8.16184C7.09457 8.1659 7.0753 8.17016 7.05598 8.17317C7.04298 8.17521 7.02998 8.17628 7.01696 8.17788C7.00168 8.17975 6.98638 8.18205 6.9711 8.18336C6.95559 8.1847 6.94008 8.18513 6.92458 8.18593C6.91185 8.18658 6.8991 8.18768 6.8864 8.188C6.86971 8.18842 6.8531 8.18809 6.83647 8.188C6.825 8.188 6.81347 8.18825 6.80204 8.188C6.78455 8.18757 6.7672 8.18652 6.74981 8.18563C6.73933 8.18509 6.72876 8.18484 6.71834 8.18416C6.70087 8.18305 6.68357 8.18142 6.66628 8.17993C6.656 8.17904 6.64565 8.17837 6.63541 8.17738C6.61999 8.1759 6.60475 8.17412 6.58944 8.17245C6.57802 8.1712 6.56651 8.17007 6.55517 8.16874C6.10671 7.81124 5.95519 7.30024 6.14979 6.80113C6.35092 6.28536 6.78207 6.03252 7.39586 6.06975C7.53411 6.11586 7.66792 6.17436 7.79563 6.24457L7.79609 6.24484C7.81698 6.25678 7.83756 6.26919 7.85783 6.28208L7.85833 6.28241C7.87856 6.29532 7.89842 6.30875 7.91793 6.32271L7.91866 6.32325C7.93802 6.33716 7.95699 6.35164 7.97557 6.36668L7.97708 6.36795C7.99527 6.38279 8.01305 6.39821 8.03041 6.41421L8.03345 6.41717C8.05013 6.43267 8.06637 6.44879 8.08219 6.46551C8.08396 6.4674 8.08562 6.46942 8.08739 6.47133C8.10214 6.48722 8.11656 6.50356 8.13044 6.5206C8.13338 6.52422 8.13614 6.52809 8.13904 6.53176C8.15136 6.54726 8.16341 6.56315 8.17498 6.57967C8.17934 6.58591 8.18338 6.59252 8.18761 6.59889C8.19714 6.6132 8.20656 6.62769 8.2155 6.6427C8.22151 6.65285 8.22711 6.66353 8.23282 6.67404C8.23925 6.68578 8.24574 6.69744 8.2518 6.70963C8.25955 6.72538 8.26686 6.74175 8.27401 6.75828C8.27655 6.76409 8.27918 6.76977 8.28163 6.77567L7.45387 6.77789C7.42064 6.77694 7.38721 6.77526 7.35378 6.77356Z"
        fill="#CBA68D" />
    <path
        d="M6.86785 8.24379C6.86121 8.24379 6.85456 8.24374 6.84791 8.24368L6.8361 8.24358H6.82354L6.8006 8.24348C6.7862 8.24313 6.7718 8.24237 6.75751 8.2416L6.5329 8.222L6.52054 8.21215C6.05228 7.8388 5.89439 7.30383 6.09819 6.78113C6.30882 6.2408 6.75875 5.97575 7.39921 6.0146L7.41421 6.01761C7.55573 6.06455 7.69261 6.12446 7.82311 6.19659C7.84527 6.20925 7.86662 6.22206 7.88763 6.23551C7.90922 6.2493 7.92993 6.26326 7.95023 6.27782C7.97128 6.29294 7.9911 6.30806 8.01051 6.32381C8.03118 6.34071 8.04986 6.35684 8.06811 6.37365C8.08884 6.39309 8.10596 6.41 8.12257 6.42762C8.14361 6.4505 8.15881 6.46774 8.17344 6.4857L8.18252 6.49746C8.19551 6.51386 8.20826 6.53059 8.22045 6.54804L8.22949 6.5617C8.24389 6.58339 8.25377 6.59862 8.2632 6.61452C8.26817 6.62294 8.27286 6.63159 8.27753 6.64024L8.23544 6.67867L8.28401 6.65209C8.28996 6.66294 8.29589 6.6738 8.30151 6.68508C8.30976 6.70179 8.31744 6.71901 8.32497 6.7364L8.36473 6.83095L7.45414 6.83344C7.41967 6.83247 7.38674 6.8308 7.35381 6.82913L7.35084 6.82898C7.15764 6.81914 6.97516 6.80984 6.82047 6.93795C6.70156 7.03644 6.65987 7.11927 6.68522 7.20652C6.68845 7.21769 6.69266 7.22855 6.69779 7.23898C6.70641 7.25321 6.70997 7.25995 6.71453 7.26587C6.7264 7.27874 6.73062 7.28384 6.73564 7.28822C6.75015 7.29878 6.75566 7.30319 6.76196 7.30684L6.77248 7.31175C6.77961 7.31555 6.78695 7.31893 6.79446 7.32189L6.79147 7.37871L6.80785 7.32581C6.81671 7.32855 6.82488 7.33116 6.8338 7.33304L6.85108 7.33573C6.86176 7.33746 6.87059 7.33893 6.88005 7.33977L6.92601 7.34198L6.9393 7.34185C7.14793 7.33748 7.36275 7.33869 7.55228 7.33974L7.84996 7.34075L7.83757 7.42892L7.78636 7.43524L7.8353 7.44278L7.82498 7.49908L7.76728 7.50436L7.82155 7.51558L7.8087 7.56913L7.75088 7.57086L7.8044 7.58508L7.78909 7.6356L7.73124 7.6339L7.78382 7.6513L7.76592 7.69924L7.70832 7.69361L7.75967 7.71435L7.73932 7.7593L7.68234 7.74962L7.73218 7.77384L7.72182 7.79438C7.7178 7.80185 7.71353 7.80902 7.70923 7.8162L7.65313 7.80233L7.70107 7.83002L7.68957 7.84919C7.68507 7.85622 7.68031 7.86298 7.67553 7.86973L7.6207 7.85154L7.66639 7.88283L7.65376 7.90064C7.64876 7.90729 7.64348 7.91361 7.63826 7.91994L7.58494 7.8976L7.62805 7.93236L7.61443 7.94867C7.60889 7.95488 7.60309 7.96085 7.59726 7.96676L7.54584 7.94029L7.58607 7.97835L7.57153 7.99317C7.56547 7.99898 7.55913 8.00449 7.55277 8.00999L7.50346 7.97963L7.54051 8.02079L7.52514 8.03408C7.51843 8.03954 7.51143 8.0447 7.50441 8.04985L7.45754 8.01576L7.49123 8.05971L7.47534 8.07145C7.46788 8.07659 7.46011 8.08142 7.45232 8.08626L7.40807 8.04873L7.43826 8.09515L7.42215 8.10523C7.41368 8.11017 7.40486 8.11478 7.39603 8.11936L7.35473 8.0786L7.38137 8.12716L7.36569 8.13542C7.35469 8.1408 7.34323 8.14575 7.33178 8.15069L7.29634 8.10581L7.31948 8.15611L7.30596 8.16206C7.28557 8.17033 7.26459 8.17805 7.24304 8.18521C7.21339 8.19505 7.18365 8.20348 7.15382 8.21052L7.13516 8.21428L7.11398 8.16195L7.11775 8.21776C7.10003 8.22152 7.08237 8.22525 7.06466 8.22801C7.05537 8.22947 7.04606 8.2305 7.03676 8.23151L7.01042 8.23469C6.99892 8.23619 6.98743 8.23768 6.97595 8.23866C6.96411 8.23968 6.95231 8.24023 6.94051 8.24076L6.8879 8.24348C6.88112 8.24369 6.87449 8.24379 6.86785 8.24379ZM6.83674 8.13283L6.84892 8.13292C6.86091 8.13303 6.87289 8.13315 6.88493 8.13284L6.9354 8.1302C6.94572 8.12973 6.95604 8.12929 6.96636 8.1284C6.97621 8.12756 6.98604 8.12619 6.99589 8.12496L7.04743 8.11867C7.06318 8.11621 7.0789 8.11284 7.09462 8.10951L7.12804 8.10286C7.15478 8.09649 7.18144 8.08893 7.20804 8.08017C7.22729 8.07379 7.24601 8.0669 7.26421 8.05951L7.28199 8.05157C7.29765 8.04482 7.30747 8.0406 7.3169 8.03599L7.34482 8.02117C7.35205 8.01741 7.35929 8.01368 7.36623 8.00963L7.55309 7.84898L7.66355 7.65664L7.72162 7.45122L7.55151 7.45056C7.36264 7.44951 7.14861 7.44834 6.94141 7.45264L6.92584 7.4528C6.91886 7.4528 6.91233 7.45241 6.9058 7.45199L6.89274 7.39591L6.89081 7.45129C6.88379 7.45104 6.87676 7.45077 6.8701 7.45018C6.85792 7.44907 6.84651 7.44731 6.8351 7.44546C6.82167 7.44348 6.816 7.44262 6.81068 7.44149C6.79835 7.43888 6.78693 7.43542 6.77554 7.4319C6.76539 7.42901 6.7605 7.42758 6.75595 7.42589C6.7447 7.42156 6.73371 7.4166 6.72302 7.41103C6.71486 7.40727 6.71043 7.40517 6.70633 7.4028C6.69616 7.39669 6.68639 7.38993 6.67709 7.38256C6.67214 7.37927 6.66738 7.37571 6.66281 7.3719C6.65412 7.36405 6.64598 7.3556 6.63844 7.34663C6.63422 7.34244 6.63025 7.338 6.62654 7.33334C6.61895 7.32304 6.61209 7.31221 6.60602 7.30094C6.60321 7.29685 6.60066 7.29258 6.5984 7.28816C6.59038 7.27189 6.5838 7.25494 6.57876 7.23751C6.52172 7.04145 6.69329 6.89935 6.74965 6.85264C6.93754 6.69701 7.16001 6.70835 7.3563 6.71836L7.35375 6.77367L7.35656 6.71837L7.35927 6.7185C7.39139 6.72014 7.42351 6.72182 7.4554 6.72269L8.19507 6.72066C8.19232 6.71552 8.18953 6.71043 8.18673 6.70533L8.1678 6.67099C8.1594 6.65685 8.15048 6.64323 8.14148 6.6297L8.12954 6.61149C8.11866 6.59591 8.10724 6.58096 8.09561 6.56627L8.13041 6.52073L8.08748 6.5557C8.07435 6.5396 8.06071 6.52415 8.04676 6.50912C8.0269 6.48774 8.01147 6.47257 7.99568 6.45779C7.97631 6.43973 7.95938 6.42512 7.94207 6.41102C7.92294 6.39541 7.90481 6.38163 7.88634 6.36835C7.86695 6.35443 7.8479 6.34158 7.82852 6.32921C7.80858 6.31647 7.78872 6.30454 7.76861 6.29306C7.64608 6.22536 7.51762 6.169 7.38482 6.1247C6.80116 6.09159 6.39205 6.33237 6.20138 6.82136C6.01794 7.29187 6.15848 7.77457 6.57722 8.11555L6.75262 8.13043C6.77672 8.1317 6.79001 8.13242 6.80339 8.13275L6.82282 8.13282L6.83674 8.13283Z"
        fill="#2B2129" />
    <path
        d="M7.47995 6.82662C7.48549 6.83099 7.49093 6.83548 7.49641 6.83998C7.50165 6.84423 7.5069 6.84841 7.5121 6.85274C7.51748 6.85723 7.52276 6.8619 7.5281 6.86648C7.53344 6.87107 7.5386 6.87534 7.54377 6.87998C7.54847 6.88415 7.55303 6.88851 7.55768 6.89277C7.56337 6.89798 7.56913 6.90312 7.57473 6.90847L7.57546 6.9092C7.62613 6.95661 7.6703 7.01052 7.70681 7.06953L7.70714 7.07004C7.71416 7.0817 7.7208 7.09364 7.72707 7.10586L7.72784 7.10725C7.73388 7.11912 7.73949 7.1313 7.74475 7.1437L7.74595 7.14635C7.75096 7.15835 7.75548 7.17072 7.7597 7.18319L7.76124 7.18745C7.76516 7.19941 7.76854 7.2117 7.77166 7.22414C7.77223 7.22635 7.77293 7.22851 7.77346 7.23078C7.77624 7.24246 7.77845 7.25449 7.7805 7.2666C7.78106 7.26993 7.78179 7.27309 7.78229 7.27642C7.78396 7.28749 7.78503 7.29893 7.78606 7.3104C7.7865 7.31516 7.7871 7.3198 7.78741 7.32464C7.78808 7.3348 7.78816 7.3453 7.78829 7.35577C7.78829 7.36087 7.78851 7.36591 7.78844 7.37108C7.70932 7.37098 7.63018 7.37067 7.55103 7.37016C7.49508 7.36982 7.43776 7.36982 7.381 7.36961C7.23445 7.36912 7.08661 7.36912 6.93981 7.37225C6.78022 7.37483 6.68766 7.32414 6.65592 7.21497C6.61798 7.08467 6.72054 6.98103 6.80102 6.91441C6.81424 6.90358 6.82802 6.89345 6.8423 6.88406C6.84587 6.88168 6.84946 6.87936 6.85307 6.8771C6.86615 6.86887 6.87937 6.86121 6.89279 6.85446L6.89565 6.85291C6.90999 6.84581 6.92455 6.83974 6.93922 6.83415C6.94302 6.83271 6.94684 6.83134 6.95066 6.82999C6.96376 6.82536 6.97695 6.82113 6.99027 6.81758C6.99209 6.81708 6.99389 6.81647 6.99572 6.816C7.01061 6.81213 7.02563 6.80901 7.04077 6.80627C7.04479 6.80555 7.04884 6.8049 7.05289 6.80425C7.0659 6.80214 7.07898 6.80035 7.09213 6.79894C7.09463 6.79867 7.09712 6.7983 7.09963 6.79805C7.11484 6.79657 7.13016 6.79554 7.14551 6.79481C7.14977 6.79461 7.15403 6.79447 7.15828 6.79432C7.17104 6.79386 7.1838 6.79359 7.19659 6.79354C7.19955 6.79354 7.20252 6.79345 7.2055 6.79346C7.22895 6.79346 7.25246 6.79408 7.27596 6.79496L7.27938 6.79508C7.30383 6.79604 7.32828 6.79729 7.35261 6.79851C7.38488 6.80017 7.41715 6.80183 7.44927 6.8028C7.45399 6.80638 7.4587 6.81008 7.46342 6.81374C7.46888 6.81801 7.47443 6.82224 7.47995 6.82662Z"
        fill="#2B2129" />
    <path
        d="M6.929 7.42765C6.75043 7.42765 6.64078 7.36132 6.60271 7.23037C6.55022 7.05005 6.71236 6.91581 6.76564 6.87169C6.78034 6.85965 6.79566 6.84837 6.81153 6.83791L6.82353 6.83016C6.83813 6.82097 6.85289 6.81244 6.86784 6.80493C6.88464 6.79649 6.90187 6.78896 6.91946 6.78234L6.93212 6.77772C6.94652 6.77261 6.96112 6.768 6.97579 6.76404C6.998 6.75812 7.0144 6.75468 7.03088 6.75172L7.04321 6.74963C7.05795 6.74725 7.072 6.74534 7.08613 6.74381C7.11029 6.74129 7.12652 6.74021 7.14279 6.73938L7.15387 6.73893C7.17062 6.73834 7.18493 6.73803 7.19905 6.73804C7.23098 6.73804 7.25443 6.73862 7.27794 6.73951L7.35533 6.74309C7.38724 6.74473 7.41914 6.74633 7.45088 6.74732L7.4686 6.74787L7.4928 6.7664L7.46805 6.81728L7.50186 6.77341L7.52654 6.793L7.50134 6.84387L7.53612 6.80077L7.55929 6.82014L7.53308 6.87065L7.56902 6.82856L7.59032 6.84747L7.56239 6.89702L7.59965 6.85604L7.61295 6.86837C7.66753 6.91932 7.71507 6.97734 7.75429 7.04088C7.76231 7.05417 7.76953 7.06721 7.77636 7.08053C7.78383 7.09507 7.78997 7.10842 7.79574 7.12203C7.80257 7.13813 7.80755 7.15168 7.81219 7.16546C7.8182 7.18333 7.82194 7.19686 7.82538 7.21057C7.8304 7.23071 7.83286 7.24394 7.83512 7.25728C7.83889 7.28023 7.8401 7.29273 7.84123 7.30535L7.8427 7.321C7.84336 7.33124 7.84352 7.34181 7.84365 7.35239L7.84383 7.37175L7.84308 7.42646L7.38083 7.42494C7.23472 7.42444 7.08731 7.42445 6.94099 7.42756C6.93694 7.42763 6.93294 7.42765 6.929 7.42765ZM7.04071 6.80621L7.05055 6.86072C7.03679 6.8632 7.02311 6.86603 7.00957 6.86958C6.9927 6.87424 6.98085 6.87801 6.9691 6.88217C6.95243 6.88807 6.9361 6.89487 6.92016 6.90252C6.90576 6.90988 6.89408 6.91668 6.8825 6.92396L6.87293 6.93005C6.86026 6.93837 6.84802 6.94735 6.83628 6.95696C6.72605 7.04822 6.68682 7.12298 6.70906 7.19939C6.72538 7.25552 6.76623 7.31955 6.93888 7.31679C7.08586 7.31367 7.23416 7.31366 7.38116 7.31416L7.7702 7.31553L7.78604 7.31029L7.73089 7.31524C7.72996 7.3049 7.72901 7.29456 7.72751 7.28456C7.72404 7.26485 7.72207 7.25403 7.71956 7.24351C7.71513 7.22641 7.71211 7.21536 7.7086 7.20463C7.7034 7.18953 7.69935 7.17843 7.69483 7.16764C7.68899 7.15404 7.68394 7.14304 7.67847 7.13232C7.67209 7.11997 7.66609 7.10906 7.65971 7.09852C7.62569 7.0435 7.58449 6.99327 7.5372 6.94915L7.42949 6.85746C7.40297 6.85646 7.37633 6.85512 7.34975 6.85376L7.27716 6.8503C7.25098 6.84934 7.22813 6.84876 7.20535 6.84873C7.18457 6.84886 7.17239 6.84912 7.16021 6.84956L7.14545 6.7947L7.1481 6.85003C7.1337 6.85071 7.1193 6.85167 7.10497 6.85306C7.08584 6.8552 7.07373 6.85686 7.06168 6.85881L7.04071 6.80621Z"
        fill="#2B2129" />
    <path
        d="M7.95836 8.41693C7.62772 8.43773 7.29578 8.42077 6.96898 8.3664C6.82762 8.34667 6.69451 8.28811 6.58444 8.19724C6.58942 8.19779 6.59449 8.1982 6.59948 8.19873C6.61408 8.20028 6.62873 8.20173 6.64342 8.20307C6.6545 8.2041 6.66552 8.20508 6.67665 8.20599C6.69153 8.2072 6.70647 8.2082 6.72143 8.20915C6.73261 8.20986 6.74375 8.21056 6.75496 8.2111C6.7699 8.21182 6.78486 8.21221 6.79992 8.21262C6.81122 8.21292 6.82251 8.21326 6.83386 8.21334C6.83788 8.21334 6.84186 8.2136 6.84589 8.2136C6.85293 8.2136 6.86002 8.21304 6.86707 8.21294C6.88664 8.2127 6.90622 8.21216 6.92586 8.21115C6.93731 8.21056 6.94874 8.20974 6.9602 8.20888C6.97942 8.20742 6.99865 8.20544 7.0179 8.20312C7.02922 8.20174 7.04053 8.20039 7.05186 8.19869C7.07245 8.19561 7.09302 8.19167 7.1136 8.18743C7.12337 8.18543 7.13314 8.18377 7.14291 8.18149C7.1731 8.1744 7.20327 8.16627 7.23335 8.15629C7.25451 8.14927 7.27508 8.1417 7.29508 8.13359C7.59206 8.01312 7.76122 7.77095 7.81158 7.39606H7.81297L7.81335 7.38453L7.81504 7.37115H7.81327C7.81343 7.35806 7.81351 7.345 7.81289 7.33239C7.81262 7.32676 7.81189 7.3214 7.81147 7.31586C7.81063 7.30486 7.80984 7.29383 7.80843 7.28318C7.80758 7.27666 7.80629 7.27043 7.80524 7.26405C7.80369 7.25469 7.80223 7.24528 7.80026 7.23619C7.79884 7.22962 7.79705 7.22329 7.79542 7.21685C7.7932 7.20829 7.79113 7.1997 7.78862 7.19138C7.78666 7.18492 7.7844 7.17868 7.78224 7.17237C7.77951 7.16442 7.77681 7.15645 7.77378 7.14871C7.77132 7.14242 7.76861 7.13631 7.76594 7.13015C7.76273 7.12271 7.75951 7.11528 7.75598 7.108C7.75305 7.10192 7.74993 7.09597 7.74682 7.09002C7.74315 7.08302 7.73944 7.07604 7.73553 7.06922C7.73221 7.06338 7.72871 7.05765 7.72519 7.05193C7.72111 7.04528 7.71697 7.03873 7.71268 7.03227C7.70895 7.02667 7.70514 7.02113 7.70125 7.01566C7.69682 7.0094 7.6923 7.00322 7.6877 6.9971C7.68363 6.99171 7.67949 6.98637 7.67528 6.98109C7.67053 6.97514 7.6657 6.96927 7.66078 6.96347C7.65644 6.95834 7.65208 6.95325 7.64764 6.94824C7.64258 6.94254 7.63743 6.93695 7.63225 6.93139C7.62765 6.92648 7.62308 6.92159 7.61839 6.91678C7.61311 6.91136 7.60775 6.90606 7.60235 6.90076C7.59759 6.89609 7.59284 6.89141 7.58795 6.88682C7.58242 6.88162 7.57688 6.87654 7.57134 6.87146C7.56643 6.86703 7.56156 6.86252 7.55661 6.85817C7.55093 6.85317 7.54518 6.8483 7.53943 6.8434C7.53446 6.83917 7.52946 6.8349 7.52451 6.83074C7.51858 6.82583 7.51264 6.82107 7.50669 6.81629C7.5018 6.81234 7.49694 6.80836 7.49203 6.80449L7.49003 6.80287L8.29356 6.80066C8.30088 6.81118 8.30708 6.82197 8.31364 6.83267C8.31962 6.84243 8.32625 6.85204 8.33163 6.86193C8.33798 6.87358 8.34309 6.88547 8.34865 6.89726C8.35338 6.90732 8.3587 6.91726 8.3629 6.9274C8.36784 6.93934 8.37168 6.95142 8.37594 6.96345C8.37952 6.97363 8.38369 6.98375 8.38678 6.99397C8.39053 7.00624 8.39332 7.01857 8.39646 7.03089C8.39903 7.04094 8.40206 7.05098 8.40421 7.06103C8.40697 7.07373 8.4089 7.08639 8.4111 7.09906C8.41279 7.10872 8.41488 7.11841 8.41627 7.12803C8.41826 7.14178 8.4196 7.15538 8.421 7.16901C8.4219 7.17742 8.42322 7.18592 8.42388 7.19427C8.42528 7.2103 8.4261 7.22607 8.42694 7.24183C8.42725 7.24763 8.4278 7.25357 8.42805 7.25933C8.42897 7.28075 8.42948 7.30187 8.42973 7.32257C8.43298 7.58253 8.43286 7.84688 8.43276 8.10256C8.4327 8.2061 8.43273 8.30963 8.43282 8.41316C8.27466 8.40898 8.11393 8.41299 7.95836 8.41693Z"
        fill="#BB9168" />
    <path
        d="M7.63018 8.47776C7.40472 8.48152 7.17946 8.46237 6.95787 8.4206C6.80648 8.39922 6.6641 8.33592 6.54681 8.23785L6.42357 8.12376L6.59047 8.14213L6.59706 8.18352L6.6016 8.17861L6.60533 8.14359L6.83421 8.15789L6.84586 8.21352L6.84668 8.15814L6.86633 8.15753C6.88516 8.15729 6.90407 8.15677 6.923 8.15581L6.956 8.15359C6.9744 8.15219 6.99281 8.15027 7.01124 8.14805L7.04366 8.14384C7.06327 8.14092 7.08284 8.13714 7.10242 8.13312L7.13025 8.12748C7.15885 8.12078 7.18742 8.11308 7.2159 8.10365C7.23591 8.097 7.25536 8.08985 7.27425 8.0822C7.55126 7.96982 7.70908 7.74295 7.75667 7.38861L7.75801 7.37864L7.75785 7.37044C7.75799 7.35846 7.75809 7.34653 7.75752 7.33499L7.81142 7.31578L7.7562 7.31999C7.75532 7.30839 7.75465 7.29921 7.75348 7.29031L7.71631 7.15493L7.63196 7.01556L7.4577 6.84791L7.33269 6.74946L7.48981 6.74741L8.32243 6.74512L8.33905 6.76894C8.34526 6.7778 8.35078 6.78694 8.35627 6.79603L8.3666 6.8127C8.37139 6.8202 8.37613 6.82772 8.38029 6.83535C8.38557 6.84505 8.39013 6.85486 8.39469 6.86468L8.40341 6.88305C8.40719 6.89071 8.41092 6.89838 8.41413 6.90614C8.4182 6.91597 8.42164 6.92587 8.42504 6.93579L8.43179 6.95469C8.43463 6.96234 8.43745 6.96999 8.43979 6.97769C8.44284 6.98766 8.44533 6.99763 8.44782 7.00767L8.45283 7.02705C8.45484 7.03442 8.45682 7.04181 8.45837 7.0492C8.46058 7.05958 8.46239 7.06992 8.46413 7.08027L8.47112 7.12001C8.47281 7.13169 8.47403 7.14327 8.47524 7.15483L8.42224 7.1791L8.4772 7.17232L8.47909 7.18941C8.48048 7.20537 8.48131 7.22109 8.48217 7.23679L8.48341 7.2569C8.48436 7.27887 8.48488 7.30056 8.48515 7.32181C8.48837 7.58037 8.48827 7.84328 8.48817 8.09769L8.48834 8.46995L8.4314 8.46845C8.27354 8.46427 8.11404 8.46832 7.95978 8.47223L7.95839 8.41685L7.95898 8.47223C7.85036 8.47499 7.74056 8.47776 7.63018 8.47776ZM7.95612 8.36153L7.95839 8.41685L7.95692 8.36153C8.09427 8.35805 8.23566 8.35446 8.37741 8.35659V8.10249C8.37751 7.84374 8.37761 7.58131 8.3744 7.32323C8.37415 7.30307 8.37365 7.28252 8.37276 7.26166L8.42703 7.24179L8.37173 7.24475C8.37085 7.22824 8.37008 7.21373 8.36881 7.19902L8.36603 7.17487C8.36408 7.15625 8.36304 7.14613 8.3616 7.13591L8.35668 7.10851C8.35356 7.09006 8.35212 7.0814 8.35023 7.07272L8.3429 7.04452C8.33836 7.02624 8.33639 7.01817 8.33393 7.01019L8.32382 6.98189C8.31767 6.96409 8.31502 6.95629 8.31183 6.94858C8.30954 6.94305 8.30679 6.93751 8.30408 6.93208L8.29864 6.92086C8.29062 6.9035 8.28717 6.8959 8.28314 6.88842C8.28019 6.88301 8.27676 6.87772 8.27336 6.8724L8.26658 6.86163L8.26325 6.85609L7.63781 6.85779L7.75896 7.00158L7.82547 7.1284C7.82862 7.13644 7.83145 7.14467 7.83428 7.15291L7.84176 7.17524C7.84421 7.18336 7.84634 7.19169 7.8484 7.20003L7.85448 7.2244C7.85636 7.23311 7.8578 7.24212 7.85934 7.25105L7.86344 7.27587C7.86487 7.28672 7.86575 7.29794 7.8666 7.30918L7.86715 7.31582H7.8762L7.86838 7.39144V7.39778L7.86665 7.45138H7.85937C7.79823 7.82126 7.62012 8.06146 7.31599 8.18486C7.29488 8.19341 7.27318 8.20138 7.25087 8.20878C7.21919 8.21929 7.18743 8.22788 7.15562 8.23536L7.13465 8.23972C7.10325 8.24609 7.0817 8.25021 7.06012 8.25343L7.02591 8.25786C7.00454 8.26044 6.9845 8.2625 6.96446 8.26403L6.92877 8.26639C6.9084 8.26743 6.88812 8.26799 6.86785 8.26825L6.84576 8.2689L6.81528 8.26828C6.8692 8.28666 6.92432 8.30129 6.98025 8.31208C7.30262 8.36546 7.63 8.38205 7.95612 8.36153Z"
        fill="#2B2129" />
    <path
        d="M10.2148 17.9046C10.2117 17.9093 10.2091 17.9145 10.2062 17.9195C10.2035 17.9243 10.2005 17.9286 10.198 17.9336H9.68858C9.61831 17.9305 9.54872 17.9185 9.48146 17.8979L9.46162 17.8928C8.82542 17.7389 8.43377 17.2083 8.4396 16.5081C8.45581 14.5531 8.45316 12.5652 8.4506 10.6428C8.44962 9.91161 8.44897 9.1804 8.44866 8.44918V8.43634C8.44847 8.32866 8.44843 8.22099 8.44856 8.11332C8.44866 7.85787 8.44878 7.59368 8.44557 7.33389C8.45153 7.17005 8.41676 7.00729 8.34438 6.86018C8.33207 6.8376 8.3185 6.81573 8.30372 6.79468C8.29373 6.76909 8.28303 6.74439 8.2716 6.72058C8.26773 6.71246 8.26337 6.70493 8.25934 6.697C8.25136 6.68129 8.24341 6.66552 8.23483 6.65056C8.22968 6.64156 8.22408 6.63313 8.2187 6.62439C8.21065 6.61126 8.20267 6.59802 8.19415 6.58546C8.18811 6.5766 8.1817 6.56816 8.17545 6.55953C8.16702 6.54791 8.15866 6.53627 8.14986 6.52509C8.14309 6.51652 8.136 6.50841 8.12902 6.50014C8.12016 6.48967 8.1113 6.47915 8.10218 6.46913C8.09477 6.46103 8.08711 6.45328 8.07949 6.44546C8.07024 6.43596 8.06098 6.42645 8.05142 6.41735C8.04345 6.40973 8.03526 6.4024 8.02706 6.39505C8.0174 6.38637 8.00769 6.37774 7.99777 6.36942C7.98931 6.36232 7.98069 6.35543 7.97204 6.34858C7.96198 6.34062 7.95186 6.33275 7.94157 6.32512C7.93265 6.31847 7.92365 6.31199 7.91456 6.30566C7.90417 6.29837 7.89368 6.29122 7.8831 6.28419C7.87377 6.27803 7.86436 6.27197 7.85487 6.26601C7.84421 6.25936 7.83346 6.25282 7.82263 6.24638C7.81289 6.24061 7.80313 6.23491 7.79326 6.22935C7.78239 6.22322 7.77141 6.21726 7.76039 6.21138C7.7503 6.206 7.74022 6.20063 7.73003 6.19543C7.71902 6.18983 7.70788 6.18435 7.6968 6.17899C7.68631 6.1739 7.67585 6.1688 7.66526 6.16389C7.65436 6.15882 7.64338 6.15392 7.63238 6.14907C7.62138 6.14421 7.61041 6.13924 7.59932 6.13451C7.58875 6.13 7.57811 6.12565 7.56748 6.1213C7.5558 6.1165 7.54415 6.11166 7.53242 6.10701C7.52283 6.10322 7.51319 6.09959 7.50362 6.09593C7.49067 6.09096 7.47773 6.08597 7.46473 6.0811L7.46219 6.0801L7.48514 6.07893C7.54539 6.07588 7.60768 6.07271 7.66877 6.07269C8.40865 6.07252 9.14833 6.07295 9.88783 6.07397C11.6807 6.07565 13.5347 6.07747 15.3582 6.06616H15.366C15.5385 6.06721 15.7091 6.10272 15.8678 6.17061C16.0264 6.23849 16.1699 6.33739 16.2898 6.46149C16.544 6.71468 16.6877 7.05821 16.6894 7.41702C16.6728 9.39489 16.6769 11.406 16.6808 13.3509C16.6823 14.0843 16.6834 14.8176 16.6842 15.5509C16.6516 15.5515 16.6191 15.5521 16.5866 15.5528C16.5102 15.5543 16.4313 15.5559 16.3538 15.556C14.5743 15.5565 12.7949 15.5569 11.0155 15.5571L10.3037 15.5572C10.2934 15.5567 10.2831 15.5564 10.2728 15.5561C10.251 15.5559 10.2291 15.5545 10.2075 15.5519C10.0273 15.5196 9.84175 15.5367 9.67049 15.6013C9.49923 15.6658 9.34861 15.7755 9.2346 15.9187C9.22989 15.9248 9.22527 15.9309 9.22069 15.9371C9.19634 15.9703 9.174 16.0049 9.15378 16.0408C9.13307 16.0766 9.11442 16.1136 9.09791 16.1515C9.0006 16.3654 8.97788 16.6057 9.0334 16.8339C9.08892 17.0622 9.21946 17.2652 9.40409 17.4104L9.43608 17.4403L9.43913 17.4432L9.43923 17.4433L9.43608 17.4403L9.51634 17.4632L9.45806 17.4621C9.57353 17.5718 9.72357 17.638 9.88245 17.6492C9.92379 17.6537 9.96541 17.6571 10.0071 17.6598C10.0221 17.6608 10.0372 17.6611 10.0522 17.6619C10.079 17.6633 10.1058 17.6648 10.1327 17.6656L10.1377 17.6657C10.2195 17.6683 10.3012 17.6688 10.3815 17.6693C10.3889 17.6693 10.3964 17.6695 10.4038 17.6696C10.4582 17.6699 10.5125 17.6705 10.5668 17.6716L10.5665 17.6719C10.557 17.682 10.5467 17.6913 10.5357 17.6997C10.5339 17.7011 10.5321 17.7026 10.5302 17.704C10.5194 17.7119 10.5082 17.7192 10.4967 17.7258L10.4895 17.7299C10.4777 17.7364 10.4656 17.7426 10.4532 17.7485L10.4454 17.7521C10.4334 17.7577 10.4212 17.7632 10.4087 17.7687L10.4071 17.7695C10.3927 17.7758 10.3783 17.7824 10.3639 17.7891C10.3579 17.7919 10.3518 17.7947 10.3458 17.7977C10.342 17.7996 10.3383 17.8018 10.3344 17.8038C10.3283 17.807 10.3221 17.8102 10.316 17.8137C10.312 17.816 10.3082 17.8186 10.3043 17.8211C10.2986 17.8246 10.2929 17.828 10.2875 17.8317C10.2836 17.8345 10.2799 17.8376 10.276 17.8405C10.2709 17.8444 10.2657 17.8483 10.2607 17.8525C10.257 17.8558 10.2535 17.8595 10.2499 17.863C10.2453 17.8674 10.2406 17.8718 10.2363 17.8766C10.2328 17.8805 10.2297 17.8849 10.2264 17.8892C10.2225 17.8941 10.2185 17.8991 10.2148 17.9046Z"
        fill="#E5D1B8" />
    <path
        d="M10.198 17.9889H9.68858C9.61362 17.986 9.53936 17.9734 9.46762 17.9515L9.44776 17.9463C8.78603 17.7862 8.37819 17.2348 8.38423 16.5076C8.40041 14.5539 8.39777 12.5672 8.39522 10.646C8.39423 9.9116 8.39359 9.17933 8.39328 8.44913L8.39317 8.11326C8.39327 7.85467 8.39337 7.59242 8.39018 7.33453C8.39612 7.17978 8.3637 7.02596 8.29582 6.88677C8.28448 6.86596 8.27197 6.84581 8.25836 6.82641L8.25214 6.81478C8.24263 6.79048 8.23246 6.76702 8.22161 6.7444L8.20996 6.72203C8.20124 6.70489 8.19427 6.69113 8.18678 6.67805L8.17149 6.65331C8.16174 6.6374 8.15521 6.62672 8.14829 6.61647L8.12772 6.58801C8.12071 6.57833 8.11373 6.56865 8.1064 6.55939L8.0921 6.54211C8.07725 6.52456 8.06943 6.51528 8.06131 6.50639L8.04374 6.48801C8.03104 6.47496 8.02226 6.46596 8.0132 6.45732L7.99076 6.43675C7.98089 6.42789 7.97167 6.41967 7.96223 6.41176L7.93771 6.3919C7.9281 6.38429 7.91843 6.37677 7.90861 6.36948L7.70492 6.24467L7.44544 6.13289L7.1929 6.03929L7.48234 6.02352C7.61636 6.01671 7.75457 6.01719 7.89044 6.01719C8.55633 6.01719 9.22205 6.01762 9.88759 6.0185H9.92435C11.7054 6.02017 13.5469 6.02188 15.3578 6.01074C15.539 6.01094 15.7184 6.04748 15.8852 6.1182C16.052 6.18891 16.203 6.29238 16.3292 6.42246C16.5938 6.68616 16.7432 7.04386 16.7449 7.41741C16.7283 9.39372 16.7323 11.4034 16.7362 13.347C16.7377 14.0841 16.7391 14.8175 16.7396 15.5508V15.6053L16.5881 15.6081C16.509 15.6097 16.4307 15.6112 16.3538 15.6113L10.3037 15.6125L10.2729 15.6114C10.2485 15.6112 10.2241 15.6096 10.1998 15.6067C10.0293 15.5759 9.85365 15.5917 9.69143 15.6526C9.52921 15.7135 9.38647 15.8171 9.27834 15.9525L9.26521 15.97C9.24217 16.0014 9.22103 16.0342 9.20189 16.0681C9.18222 16.1021 9.16449 16.1372 9.14881 16.1732C9.05645 16.3761 9.03489 16.6041 9.08758 16.8207C9.14027 17.0373 9.26417 17.2299 9.4394 17.3677L9.46405 17.3906L9.9407 17.5266L9.63176 17.5207C9.71206 17.5607 9.79909 17.5856 9.88844 17.5939C9.92897 17.5984 9.96974 17.6017 10.0106 17.6044L10.0716 17.6073C10.0925 17.6084 10.1134 17.6095 10.1344 17.6101C10.2207 17.6127 10.3019 17.6133 10.3817 17.6138L10.3935 17.6139C10.4587 17.6144 10.5133 17.6149 10.5678 17.616L10.691 17.6185L10.6072 17.7093C10.5956 17.7216 10.5831 17.733 10.5697 17.7432C10.5552 17.7543 10.5401 17.7645 10.5244 17.7736C10.5035 17.7853 10.4904 17.792 10.4769 17.7984L10.3706 17.8471L10.3345 17.8036L10.3602 17.8526L10.3437 17.8615L10.3043 17.8209L10.3334 17.868L10.3191 17.877L10.2761 17.8403L10.3096 17.8844L10.2971 17.8941L10.25 17.8628L10.2885 17.9026L10.2777 17.9133L10.2264 17.889L10.27 17.9231L10.2341 17.9798L10.198 17.9889ZM8.35287 6.76829C8.36737 6.78936 8.38076 6.81117 8.393 6.83364C8.46998 6.98857 8.50708 7.16027 8.50094 7.33317C8.50412 7.59154 8.50403 7.85427 8.50393 8.10849L8.50405 8.44908C8.50405 9.18038 8.50469 9.9116 8.50598 10.6427C8.50853 12.5674 8.51117 14.5543 8.49498 16.5085C8.48944 17.1816 8.86478 17.6914 9.47464 17.839L9.49532 17.8443C9.55808 17.8636 9.623 17.875 9.68858 17.8783H10.166L10.1686 17.874C10.1725 17.8682 10.1767 17.8627 10.181 17.8573C10.1885 17.8476 10.1917 17.8435 10.1951 17.8397C10.1996 17.8346 10.2043 17.83 10.2091 17.8254L10.2245 17.8106C10.2295 17.8063 10.2347 17.8023 10.24 17.7983L10.337 17.7405C10.3498 17.7345 10.3609 17.7295 10.3715 17.7246C10.288 17.7241 10.212 17.7234 10.136 17.7211C10.1092 17.7203 10.0875 17.7191 10.0658 17.718L10.0036 17.715C9.96106 17.7123 9.91861 17.7088 9.87644 17.7042C9.70498 17.6917 9.54321 17.62 9.41889 17.5012L9.36547 17.4502C9.32768 17.4189 9.29174 17.3855 9.25785 17.35L9.23285 17.3267L9.23728 17.328C9.09101 17.1692 8.99491 16.9708 8.96105 16.7576C8.92718 16.5445 8.95707 16.326 9.04696 16.1298C9.06432 16.0899 9.08391 16.0511 9.10567 16.0135C9.12696 15.9757 9.15051 15.9392 9.17618 15.9043L9.19085 15.8848C9.31073 15.7338 9.46924 15.6181 9.64957 15.5498C9.82989 15.4816 10.0253 15.4634 10.2152 15.4972C10.2346 15.4995 10.2542 15.5007 10.2738 15.5008L10.3066 15.5019L16.3537 15.5005C16.4299 15.5005 16.5074 15.4989 16.5825 15.4974L16.6287 15.4965C16.6283 14.7814 16.6271 14.0662 16.6254 13.351C16.6215 11.4034 16.6175 9.39337 16.634 7.41645C16.6322 7.07238 16.4943 6.74303 16.2504 6.50034C16.1356 6.38149 15.9983 6.28675 15.8464 6.22169C15.6945 6.15663 15.5312 6.12255 15.366 6.12145C13.5473 6.13265 11.7054 6.13093 9.92425 6.12926H9.88778C9.16462 6.12852 8.44159 6.12809 7.7187 6.12796L7.91364 6.23789C7.92467 6.24516 7.93559 6.25261 7.9464 6.26024L7.97457 6.28053C7.98534 6.28852 7.99593 6.29674 8.00644 6.30507L8.03337 6.32689C8.04377 6.3356 8.05395 6.34461 8.06409 6.35374L8.08964 6.37717C8.09969 6.38675 8.10943 6.39673 8.11916 6.40673L8.14303 6.43165C8.15214 6.44162 8.16091 6.452 8.16969 6.46239L8.19328 6.49063C8.20156 6.50112 8.20952 6.51208 8.21745 6.52304L8.18123 6.56735L8.22581 6.53449L8.23999 6.5543C8.24785 6.56592 8.2553 6.57806 8.26275 6.59021L8.22443 6.63348L8.27125 6.60391L8.28286 6.62291C8.29127 6.63759 8.29912 6.65297 8.30695 6.66833L8.26431 6.70632L8.31313 6.68017L8.32157 6.69658C8.33262 6.71974 8.34305 6.74364 8.35287 6.76829Z"
        fill="#2B2129" />
    <path
        d="M10.4813 16.834C10.487 16.7939 10.4903 16.7535 10.4913 16.713C10.4994 16.6522 10.4938 16.5903 10.475 16.532C10.4562 16.4736 10.4246 16.4201 10.3826 16.3754C10.374 16.3632 10.3654 16.3508 10.3569 16.3384C10.3545 16.3349 10.3523 16.3314 10.35 16.3279C10.3438 16.3187 10.3377 16.3094 10.3319 16.3C10.329 16.2953 10.3263 16.2905 10.3236 16.2858C10.3187 16.2774 10.3139 16.269 10.3095 16.2604C10.3068 16.2551 10.3044 16.2496 10.3018 16.2442C10.2993 16.2388 10.2971 16.2334 10.2949 16.2279L10.2986 16.2279L10.9203 16.2177C10.9274 16.2295 10.9334 16.2416 10.94 16.2536C10.9491 16.27 10.9587 16.2863 10.9668 16.303C10.9736 16.3169 10.979 16.3312 10.985 16.3453C10.9919 16.3613 10.9993 16.377 11.0053 16.3932C11.0112 16.409 11.0156 16.4252 11.0206 16.4412C11.0253 16.4559 11.0306 16.4705 11.0345 16.4853C11.0395 16.5041 11.0429 16.5232 11.0468 16.5422C11.0493 16.5544 11.0525 16.5665 11.0545 16.5789C11.0585 16.6029 11.0608 16.627 11.063 16.6512C11.0637 16.6586 11.065 16.6659 11.0655 16.6734C11.0732 16.8233 11.051 16.9732 11.0004 17.1145C10.9499 17.2558 10.8718 17.3857 10.7708 17.4968C10.7618 17.507 10.7517 17.5168 10.7423 17.5269C10.7277 17.5426 10.7134 17.5585 10.6979 17.5737C10.6723 17.5987 10.6455 17.6229 10.6175 17.6464C10.5481 17.6448 10.4786 17.6444 10.4091 17.644C10.3286 17.6435 10.2467 17.6429 10.1648 17.6404L10.1586 17.6403C10.1385 17.6397 10.1185 17.6384 10.0985 17.6375C10.0345 17.6347 9.97064 17.6308 9.90752 17.6239C9.88804 17.6218 9.86903 17.6191 9.85041 17.616C9.84431 17.6149 9.83848 17.6135 9.83247 17.6124C9.82013 17.61 9.8078 17.6076 9.79586 17.6048C9.78897 17.6032 9.78236 17.6012 9.77561 17.5994C9.76493 17.5965 9.75425 17.5937 9.74391 17.5905C9.73696 17.5882 9.73026 17.5858 9.72346 17.5835C9.71374 17.5802 9.70405 17.5767 9.69466 17.573C9.68788 17.5703 9.6813 17.5674 9.67473 17.5645C9.66571 17.5606 9.65677 17.5566 9.64807 17.5523C9.64162 17.5492 9.63532 17.5458 9.62904 17.5425C9.6206 17.538 9.61227 17.5334 9.60413 17.5285C9.59807 17.5249 9.59211 17.5212 9.58623 17.5174C9.5783 17.5123 9.57054 17.507 9.56297 17.5016C9.55734 17.4975 9.55176 17.4935 9.54635 17.4892C9.54122 17.4853 9.5363 17.481 9.53131 17.4769L9.51645 17.4631C9.54439 17.4627 9.57234 17.4627 9.60026 17.4627C9.75191 17.4723 9.90396 17.4517 10.0476 17.4023C10.0869 17.3861 10.1247 17.3668 10.1609 17.3446C10.2497 17.2896 10.3247 17.215 10.3803 17.1265C10.4358 17.038 10.4704 16.9379 10.4813 16.834Z"
        fill="#BB9168" />
    <path
        d="M10.637 17.7024L10.6162 17.7019C10.5486 17.7003 10.4808 17.6999 10.413 17.6995C10.3278 17.699 10.2455 17.6984 10.1631 17.6959L10.096 17.693C10.0309 17.6901 9.96582 17.6861 9.90155 17.6791C9.88093 17.6769 9.86081 17.674 9.84111 17.6707L9.82821 17.6681C9.80888 17.6644 9.79574 17.6618 9.78302 17.6588L9.7677 17.6547C9.74962 17.6499 9.73831 17.6469 9.72735 17.6434L9.71049 17.6377C9.69484 17.6323 9.68438 17.6286 9.67423 17.6246L9.6554 17.6166C9.64278 17.6112 9.63308 17.6068 9.62362 17.6022L9.60291 17.5915C9.59368 17.5866 9.5846 17.5815 9.57571 17.5762L9.55612 17.564C9.54745 17.5584 9.53896 17.5526 9.53065 17.5466L9.47869 17.5038L9.37721 17.4099L9.51551 17.4078C9.54371 17.4074 9.57192 17.4074 9.6001 17.4073C9.74455 17.4166 9.88942 17.3975 10.0265 17.3511C10.063 17.3361 10.0982 17.3181 10.1317 17.2975C10.2137 17.2468 10.283 17.178 10.3341 17.0963C10.3852 17.0146 10.4168 16.9222 10.4265 16.8263C10.4319 16.7883 10.435 16.75 10.436 16.7116C10.4433 16.6567 10.4383 16.6009 10.4212 16.5483C10.4041 16.4957 10.3755 16.4475 10.3374 16.4074L10.3039 16.3588C10.2974 16.349 10.2909 16.3392 10.2848 16.3292L10.2784 16.3184C10.2704 16.3046 10.2652 16.2953 10.2603 16.2859L10.2134 16.1751L10.294 16.1727L10.9512 16.1619L10.9677 16.1891C10.9728 16.1977 10.9775 16.2064 10.9822 16.2152L10.9953 16.2391C11.0028 16.2523 11.0101 16.2655 11.0167 16.279C11.0217 16.2893 11.026 16.2999 11.0304 16.3104L11.0417 16.3369C11.0472 16.3493 11.0526 16.3616 11.0572 16.3741C11.0618 16.3864 11.0656 16.3988 11.0693 16.4112L11.078 16.4386C11.0816 16.4494 11.0851 16.4603 11.088 16.4713C11.0923 16.4873 11.0955 16.5033 11.0987 16.5194L11.1039 16.5441C11.1058 16.5527 11.1078 16.5614 11.1092 16.57C11.1134 16.5954 11.1159 16.6209 11.1182 16.6463L11.1208 16.6697C11.1291 16.8269 11.1061 16.9842 11.0532 17.1324C11.0002 17.2807 10.9185 17.4169 10.8125 17.5334C10.8063 17.5404 10.7998 17.5473 10.7932 17.554L10.7744 17.574C10.7621 17.5873 10.7498 17.6006 10.7367 17.6135C10.71 17.6395 10.6822 17.6647 10.653 17.6891L10.637 17.7024ZM9.7049 17.5173L9.71504 17.5216C9.72369 17.525 9.73262 17.5281 9.74157 17.5312L9.7604 17.5377C9.76987 17.5407 9.77965 17.5433 9.78943 17.5459L9.80865 17.551C9.8198 17.5537 9.83133 17.5559 9.84285 17.5581L9.85036 17.6161L9.85966 17.5615C9.8772 17.5645 9.89511 17.567 9.91344 17.569C9.97541 17.5757 10.0381 17.5795 10.1009 17.5823L10.1602 17.585C10.2479 17.5876 10.3293 17.5881 10.4095 17.5886C10.4746 17.589 10.5364 17.5894 10.5977 17.5907C10.619 17.5723 10.6395 17.5535 10.6592 17.5342C10.6709 17.5227 10.6819 17.5107 10.6929 17.4987L10.7136 17.4769C10.7189 17.4714 10.7242 17.4659 10.7291 17.4602C10.8253 17.3548 10.8998 17.2313 10.948 17.0968C10.9963 16.9624 11.0174 16.8198 11.0102 16.6772L11.0078 16.6562C11.0057 16.6333 11.0036 16.6105 10.9998 16.5878C10.9987 16.5814 10.9973 16.575 10.9958 16.5685L10.9899 16.5408C10.9872 16.527 10.9845 16.5131 10.9809 16.4995C10.9785 16.4906 10.9756 16.4819 10.9727 16.4732L10.9632 16.4431C10.9601 16.4328 10.957 16.4225 10.9532 16.4124C10.9494 16.402 10.9448 16.3918 10.9403 16.3815L10.9279 16.3525C10.9244 16.344 10.9209 16.3355 10.9168 16.3271C10.9113 16.3157 10.905 16.3045 10.8987 16.2933L10.8878 16.2736L10.3859 16.2819C10.3892 16.287 10.3926 16.2921 10.396 16.2972L10.3569 16.3385L10.4026 16.3073L10.4279 16.3436C10.4746 16.3943 10.5094 16.4549 10.5298 16.5208C10.5501 16.5867 10.5555 16.6563 10.5455 16.7245C10.545 16.7638 10.5419 16.8031 10.5361 16.842C10.5238 16.9539 10.4862 17.0615 10.4262 17.1568C10.3662 17.252 10.2853 17.3324 10.1898 17.3918C10.1511 17.4157 10.1105 17.4363 10.0685 17.4536C9.95236 17.4974 9.82902 17.519 9.7049 17.5173ZM10.3483 16.2825L10.3318 16.3001L10.3606 16.2824L10.3483 16.2825Z"
        fill="#2B2129" />
    <path
        d="M10.4681 16.6997L10.2906 16.6991C10.1156 16.6986 9.94051 16.6978 9.76548 16.6967L9.74988 16.6966C9.66509 16.6964 9.585 16.6962 9.55662 16.5972C9.54507 16.5556 9.54537 16.5115 9.55749 16.4701C9.56961 16.4286 9.59307 16.3914 9.62522 16.3625C9.63819 16.3487 9.6514 16.3362 9.66475 16.3244C9.66894 16.3207 9.67318 16.3173 9.6774 16.3137C9.68695 16.3058 9.69659 16.2983 9.70633 16.2912C9.71096 16.2879 9.71557 16.2845 9.72024 16.2813C9.7312 16.274 9.74228 16.2672 9.75347 16.2609C9.75657 16.2592 9.75961 16.2572 9.76273 16.2555C9.77659 16.2482 9.79069 16.2417 9.80495 16.2358C9.81016 16.2337 9.81547 16.2319 9.82075 16.23C9.83035 16.2264 9.84002 16.2231 9.84981 16.2202C9.85597 16.2184 9.86217 16.2166 9.86842 16.215C9.87809 16.2125 9.88788 16.2104 9.89774 16.2085C9.90358 16.2074 9.90935 16.206 9.91526 16.2051C9.92994 16.2027 9.94483 16.2008 9.95993 16.1995C9.96631 16.199 9.97283 16.1988 9.97928 16.1984C9.98925 16.1979 9.99935 16.1974 10.0095 16.1973C10.0166 16.1972 10.0237 16.1973 10.0308 16.1974C10.0423 16.1975 10.054 16.1979 10.0658 16.1986C10.0715 16.1989 10.0772 16.1991 10.083 16.1995C10.1008 16.2008 10.1189 16.2026 10.1374 16.2048L10.1434 16.2057C10.1621 16.2081 10.181 16.2109 10.2002 16.2141L10.2032 16.2146C10.2241 16.2182 10.2453 16.2222 10.2668 16.2266C10.2697 16.2345 10.2736 16.2421 10.277 16.2498C10.2797 16.2557 10.282 16.2618 10.2849 16.2675C10.2895 16.2767 10.2947 16.2855 10.2998 16.2945C10.3027 16.2995 10.3054 16.3047 10.3084 16.3098C10.3144 16.3196 10.3208 16.3292 10.3272 16.3387C10.3298 16.3426 10.3322 16.3466 10.3348 16.3505C10.3438 16.3638 10.353 16.3768 10.3622 16.3898C10.3706 16.4018 10.3789 16.4136 10.387 16.4255C10.3888 16.4281 10.3904 16.4307 10.3922 16.4332C10.3985 16.4426 10.4048 16.4521 10.4108 16.4615C10.4124 16.4641 10.4137 16.4667 10.4153 16.4692C10.4212 16.4788 10.427 16.4885 10.4322 16.4984C10.4333 16.5005 10.4343 16.5027 10.4354 16.5049C10.4407 16.5152 10.4458 16.5256 10.4502 16.5363C10.451 16.5383 10.4516 16.5403 10.4523 16.5423C10.4567 16.5533 10.4605 16.5644 10.4636 16.5757C10.4642 16.5781 10.4645 16.5805 10.4651 16.5829C10.4679 16.5941 10.47 16.6055 10.4714 16.6169C10.4718 16.6205 10.4717 16.6243 10.472 16.6279C10.4729 16.6385 10.4732 16.6492 10.4728 16.6599C10.4725 16.6664 10.4715 16.6732 10.4707 16.6798C10.4701 16.6864 10.4692 16.693 10.4681 16.6997Z"
        fill="#2B2129" />
    <path
        d="M10.5146 16.7553L10.2905 16.7545C10.1153 16.754 9.94021 16.7532 9.76509 16.7521L9.74964 16.752C9.66259 16.7518 9.54325 16.7514 9.5034 16.6125C9.48917 16.5616 9.48924 16.5079 9.50362 16.4571C9.51799 16.4063 9.54611 16.3605 9.58487 16.3246C9.59903 16.3095 9.61344 16.2959 9.62806 16.283L9.63882 16.2739C9.65253 16.2624 9.66318 16.2541 9.67396 16.2463L9.68947 16.2354C9.70165 16.2272 9.71401 16.2197 9.72652 16.2127L9.73688 16.2067C9.75223 16.1985 9.76798 16.1912 9.78407 16.1846L9.79736 16.1796C9.81246 16.1741 9.82324 16.1704 9.83415 16.1672L9.85485 16.1614C9.86552 16.1586 9.87636 16.1563 9.88727 16.1542L9.90658 16.1504C9.92264 16.1478 9.93892 16.1458 9.95541 16.1444L9.9705 16.1435C9.98718 16.1426 9.99802 16.1421 10.009 16.142L10.0318 16.142C10.0441 16.1422 10.0565 16.1426 10.0691 16.1433L10.0872 16.1443C10.106 16.1457 10.125 16.1475 10.1443 16.1499C10.17 16.1532 10.1897 16.1561 10.2097 16.1595C10.2343 16.1637 10.256 16.1678 10.2781 16.1724L10.3081 16.1785L10.3311 16.2348C10.3383 16.25 10.3424 16.2571 10.3465 16.2642L10.352 16.2741C10.3615 16.2901 10.3675 16.299 10.3734 16.308L10.335 16.3505L10.3808 16.3194L10.4329 16.3942C10.4449 16.4122 10.4516 16.4221 10.4579 16.4322C10.4692 16.451 10.4755 16.4616 10.4812 16.4723C10.4908 16.4913 10.4966 16.5032 10.5016 16.5153C10.5076 16.5304 10.5128 16.5458 10.5172 16.5614C10.5213 16.5776 10.5244 16.5941 10.5266 16.6107L10.5274 16.6239C10.5284 16.6367 10.5287 16.6495 10.5283 16.6622C10.528 16.6686 10.5273 16.675 10.5265 16.6814C10.5251 16.6936 10.5241 16.7014 10.5227 16.7093L10.5146 16.7553ZM10.4682 16.6598V16.6611L10.4729 16.66L10.4682 16.6598ZM9.66477 16.3244L9.70152 16.3658C9.6894 16.3766 9.67738 16.3879 9.66561 16.4004C9.6402 16.4224 9.6215 16.451 9.61164 16.4831C9.60178 16.5152 9.60116 16.5495 9.60986 16.5819C9.62479 16.634 9.65157 16.641 9.75003 16.6413L9.76576 16.6413C9.94087 16.6426 10.1159 16.6434 10.2908 16.6437L10.4175 16.6442C10.4174 16.6401 10.4171 16.6361 10.4168 16.6321C10.4161 16.6199 10.4142 16.6078 10.4113 16.596C10.4086 16.5846 10.4051 16.5734 10.4008 16.5625C10.3965 16.5515 10.3916 16.5407 10.3862 16.5302C10.3786 16.5156 10.3734 16.5068 10.368 16.4981L10.281 16.3693C10.2742 16.3592 10.2675 16.3491 10.2612 16.3387L10.2547 16.3273C10.2452 16.3106 10.2401 16.3017 10.2354 16.2925L10.2289 16.2781L10.2314 16.2761C10.2188 16.2737 10.2063 16.2714 10.1939 16.2693C10.1725 16.2657 10.1543 16.263 10.1363 16.2607C10.1131 16.2577 10.0959 16.2561 10.0789 16.2549L10.0628 16.254C10.0517 16.2534 10.0408 16.253 10.03 16.2529L10.0103 16.2528C10.0008 16.253 9.99157 16.2534 9.98234 16.2539L9.96462 16.2549C9.95093 16.2561 9.93743 16.2577 9.92411 16.2599L9.90835 16.263C9.89957 16.2648 9.89082 16.2666 9.88218 16.2688L9.86557 16.2735C9.85695 16.2761 9.84839 16.279 9.83988 16.2821L9.80491 16.236L9.82596 16.2873C9.81339 16.2924 9.80095 16.2981 9.78873 16.3046C9.77062 16.315 9.7608 16.321 9.75107 16.3275L9.74028 16.3351C9.72997 16.3426 9.72136 16.3493 9.71282 16.3564L9.66477 16.3244ZM10.2624 16.2483L10.2615 16.2526L10.2739 16.2429L10.2624 16.2483Z"
        fill="#2B2129" />
    <path
        d="M10.2773 16.2034C10.0438 16.1548 9.80128 16.1387 9.60709 16.3455C9.57181 16.3774 9.54615 16.4185 9.533 16.4642C9.51986 16.5099 9.51975 16.5583 9.5327 16.6041C9.56625 16.7211 9.66378 16.7213 9.74979 16.7216L9.76529 16.7217C9.93564 16.7229 10.106 16.7237 10.2763 16.7241L10.4657 16.7247C10.4654 16.7327 10.4649 16.7405 10.4645 16.7484C10.4639 16.7582 10.4634 16.768 10.4626 16.7776C10.4617 16.7874 10.4604 16.797 10.4593 16.8066C10.4582 16.816 10.4572 16.8255 10.4558 16.8346C10.4544 16.8441 10.4526 16.8533 10.4509 16.8625C10.4493 16.8715 10.4478 16.8806 10.4459 16.8893C10.444 16.8985 10.4416 16.9073 10.4394 16.9162C10.4372 16.9248 10.4352 16.9334 10.4329 16.9418C10.4304 16.9506 10.4274 16.959 10.4247 16.9676C10.422 16.9757 10.4195 16.984 10.4167 16.9919C10.4136 17.0003 10.4102 17.0084 10.4068 17.0166C10.4037 17.0243 10.4007 17.0322 10.3973 17.0397C10.3938 17.0477 10.3898 17.0553 10.3859 17.063C10.3823 17.0704 10.3788 17.0779 10.3749 17.0851C10.3708 17.0926 10.3663 17.0998 10.3619 17.1072C10.3578 17.1142 10.3538 17.1213 10.3494 17.128C10.3448 17.1352 10.3397 17.142 10.3348 17.149C10.3302 17.1555 10.3258 17.1622 10.3209 17.1685C10.3157 17.1753 10.31 17.1818 10.3046 17.1883C10.2995 17.1944 10.2947 17.2006 10.2894 17.2064C10.2836 17.2129 10.2773 17.2189 10.2712 17.2251C10.2658 17.2307 10.2605 17.2364 10.2549 17.2418C10.2485 17.2479 10.2416 17.2535 10.2349 17.2593C10.2291 17.2644 10.2234 17.2697 10.2173 17.2746C10.2102 17.2804 10.2027 17.2857 10.1953 17.2912C10.1891 17.2957 10.1832 17.3004 10.1769 17.3048C10.1687 17.3104 10.1601 17.3156 10.1516 17.3209C10.1455 17.3247 10.1397 17.3287 10.1335 17.3323C10.1241 17.3379 10.1142 17.3429 10.1043 17.348C10.0986 17.3511 10.0931 17.3543 10.0872 17.3572C10.0713 17.3651 10.0549 17.3724 10.0381 17.3794C9.89735 17.4275 9.74853 17.4474 9.60012 17.4379C9.56341 17.4379 9.52667 17.438 9.48995 17.4389L9.47588 17.4259L9.49006 17.439L9.43903 17.3917L9.43847 17.3912C9.25653 17.2501 9.12763 17.0516 9.07271 16.8281C9.01779 16.6045 9.04008 16.3689 9.13595 16.1595C9.14691 16.1342 9.15881 16.1097 9.1714 16.0857C9.17546 16.078 9.17997 16.0706 9.1842 16.063C9.19306 16.0472 9.202 16.0314 9.21154 16.0162C9.21693 16.0076 9.22268 15.9994 9.22829 15.991C9.2374 15.9774 9.24665 15.964 9.25632 15.951C9.26254 15.9426 9.26896 15.9345 9.27541 15.9264C9.28527 15.914 9.29537 15.9019 9.30573 15.8901C9.31246 15.8824 9.31929 15.8748 9.32622 15.8674C9.33716 15.8557 9.34843 15.8444 9.35988 15.8334C9.36682 15.8267 9.37371 15.8199 9.38083 15.8134C9.39349 15.8019 9.40657 15.791 9.4198 15.7803C9.42623 15.775 9.43249 15.7696 9.43906 15.7645C9.45595 15.7515 9.47339 15.7392 9.49112 15.7274C9.49444 15.7252 9.49754 15.7228 9.50087 15.7206C9.52247 15.7066 9.54465 15.6935 9.5674 15.6813C9.57128 15.6792 9.57536 15.6775 9.57928 15.6754C9.59792 15.6657 9.61683 15.6565 9.63618 15.648C9.64353 15.6448 9.65111 15.6419 9.65856 15.6389C9.67491 15.6322 9.69137 15.6257 9.70817 15.6199C9.71682 15.6169 9.72563 15.6142 9.73439 15.6114C9.75048 15.6063 9.76672 15.6016 9.78319 15.5972C9.79252 15.5948 9.80191 15.5925 9.81135 15.5903C9.82785 15.5865 9.84453 15.5831 9.86138 15.5801C9.87091 15.5784 9.88046 15.5766 9.89011 15.5751C9.90763 15.5725 9.92539 15.5704 9.94327 15.5686C9.95248 15.5676 9.9616 15.5665 9.9709 15.5658C9.99083 15.5642 10.011 15.5635 10.0313 15.563C10.0387 15.5628 10.046 15.5623 10.0535 15.5623C10.0741 15.5622 10.0949 15.5631 10.1158 15.5641C10.1242 15.5645 10.1325 15.5644 10.1408 15.565C10.1702 15.567 10.1997 15.5699 10.2296 15.5741C10.2524 15.5768 10.2753 15.5783 10.2983 15.5785C10.3051 15.5787 10.3122 15.579 10.3192 15.5792C10.3199 15.5832 10.3212 15.5864 10.3221 15.5902C10.3231 15.5946 10.3241 15.5992 10.3255 15.6033C10.3272 15.6082 10.3292 15.613 10.3314 15.6176C10.3331 15.6213 10.3347 15.6252 10.3367 15.6286C10.3393 15.6328 10.342 15.6369 10.345 15.6408C10.3472 15.6438 10.3494 15.6471 10.3518 15.6499C10.3551 15.6536 10.3586 15.657 10.3622 15.6604C10.3648 15.6629 10.3673 15.6655 10.37 15.6679C10.3739 15.6712 10.378 15.6741 10.3822 15.6771C10.3849 15.6791 10.3876 15.6812 10.3904 15.6831C10.395 15.686 10.3997 15.6887 10.4044 15.6914C10.4071 15.693 10.4098 15.6947 10.4125 15.6962C10.4178 15.699 10.4232 15.7016 10.4285 15.7042C10.4309 15.7053 10.4331 15.7066 10.4355 15.7077C10.4431 15.7113 10.4507 15.7148 10.4582 15.7182L10.4731 15.725C10.4992 15.7371 10.5243 15.7501 10.5483 15.7641C10.5561 15.7686 10.5631 15.7738 10.5706 15.7784C10.5865 15.7884 10.6026 15.7981 10.6177 15.809C10.6256 15.8146 10.6327 15.821 10.6404 15.8269C10.6542 15.8376 10.6682 15.8481 10.6812 15.8597C10.6884 15.866 10.695 15.8731 10.7019 15.8797C10.7145 15.8917 10.7272 15.9036 10.739 15.9164C10.7455 15.9234 10.7513 15.9311 10.7575 15.9383C10.7689 15.9516 10.7804 15.9649 10.791 15.9791C10.7971 15.9872 10.8025 15.9959 10.8083 16.0043C10.8181 16.0184 10.828 16.0325 10.8371 16.0475C10.8433 16.0578 10.8489 16.0687 10.8548 16.0793C10.8625 16.0931 10.8703 16.1068 10.8774 16.1213C10.8845 16.1358 10.8908 16.1508 10.8972 16.1658C10.9012 16.1748 10.9052 16.1838 10.9089 16.1931L10.2773 16.2034Z"
        fill="#CBA58C" />
    <path
        d="M9.46885 17.4947L9.45245 17.4796L9.4015 17.4323C9.21059 17.2837 9.07548 17.075 9.01807 16.84C8.96067 16.605 8.98433 16.3575 9.08522 16.1376C9.09674 16.1109 9.10926 16.0851 9.12246 16.06L9.13141 16.044C9.14524 16.0193 9.15467 16.0027 9.16474 15.9867L9.17803 15.9665C9.19197 15.9458 9.20174 15.9316 9.21195 15.9179L9.23211 15.8919C9.24255 15.8788 9.25323 15.866 9.26417 15.8535L9.28585 15.8295C9.29743 15.8171 9.30934 15.8052 9.32146 15.7935L9.34361 15.7724C9.35702 15.7602 9.37087 15.7487 9.38487 15.7373L9.40529 15.7207C9.42317 15.7069 9.4416 15.6939 9.46037 15.6814L9.47071 15.6742C9.4936 15.6594 9.51708 15.6455 9.54114 15.6326L9.5537 15.6263C9.57342 15.6161 9.59342 15.6063 9.6139 15.5973L9.63002 15.5907C9.65483 15.5806 9.67223 15.5738 9.68997 15.5676L9.71256 15.5602C9.73463 15.5533 9.75175 15.5482 9.76912 15.5436L9.79879 15.5363C9.81618 15.5323 9.83375 15.5287 9.85148 15.5255L9.88172 15.5204C9.90013 15.5175 9.91879 15.5154 9.93754 15.5134L9.96654 15.5105C9.98744 15.5089 10.0086 15.5081 10.0299 15.5076L10.0532 15.5068C10.0747 15.5067 10.0965 15.5077 10.1183 15.5087L10.1445 15.5097C10.1751 15.5118 10.2059 15.5149 10.2371 15.5192C10.2577 15.5216 10.2784 15.5229 10.2991 15.5231L10.3628 15.5254L10.3893 15.6076L10.4133 15.6313L10.4962 15.6747C10.524 15.6876 10.5506 15.7014 10.5761 15.7162C10.5816 15.7194 10.5869 15.7228 10.5921 15.7263L10.5756 15.7815L10.6047 15.7344C10.6201 15.744 10.6355 15.7536 10.65 15.764C10.6557 15.768 10.6611 15.7724 10.6665 15.7768L10.6404 15.8269L10.6801 15.7876C10.693 15.7976 10.7058 15.8075 10.7179 15.8182C10.7232 15.8228 10.7281 15.8277 10.7331 15.8327L10.7019 15.8797L10.7446 15.8439C10.7566 15.8553 10.7685 15.8667 10.7798 15.8789C10.7845 15.884 10.7889 15.8894 10.7933 15.8948L10.7603 15.9416L10.8024 15.9056C10.8137 15.9187 10.8249 15.9319 10.8354 15.9459C10.8398 15.9518 10.844 15.958 10.8481 15.9642L10.8083 16.0042L10.8563 15.9762C10.8659 15.9901 10.8756 16.004 10.8845 16.0188C10.8893 16.0266 10.8937 16.0348 10.8982 16.043L10.8549 16.0793L10.9065 16.0582C10.9136 16.0709 10.9206 16.0836 10.9271 16.0969C10.9337 16.1102 10.9397 16.1242 10.9457 16.1382L10.9085 16.1664V16.169L10.9509 16.1504L10.9903 16.2471L10.2721 16.2589L10.266 16.2577C10.0148 16.2054 9.81345 16.2067 9.6475 16.3835C9.61893 16.4084 9.59799 16.4409 9.5871 16.4773C9.57621 16.5136 9.57581 16.5523 9.58595 16.5888C9.60595 16.6586 9.6513 16.666 9.75002 16.6663L9.76559 16.6663C9.936 16.6676 10.1063 16.6684 10.2766 16.6687L10.5233 16.6696L10.515 16.8072L10.4586 16.8135L10.5136 16.8198L10.5066 16.8663L10.4498 16.8694L10.5043 16.8791L10.4947 16.9237L10.4378 16.923L10.4916 16.9362L10.4794 16.9787L10.4225 16.9744L10.4753 16.9912L10.4606 17.0315L10.4043 17.0231L10.4557 17.0436L10.4385 17.0819L10.3829 17.0695L10.4327 17.0937L10.413 17.1299L10.3583 17.1134L10.4061 17.1414L10.3838 17.1756L10.3306 17.155L10.3761 17.1866L10.3514 17.2186L10.2998 17.1941L10.3427 17.2291L10.3156 17.259L10.266 17.2306L10.306 17.2689L10.2767 17.2964L10.2291 17.2645L10.2659 17.3058L10.2522 17.3177C10.2463 17.3224 10.2402 17.3269 10.2341 17.3314L10.1889 17.2959L10.2225 17.34L10.2083 17.3504C10.2014 17.3551 10.1943 17.3596 10.1871 17.3641L10.145 17.3252L10.1751 17.3716L10.1616 17.3801C10.1532 17.385 10.1446 17.3895 10.1359 17.394L10.0976 17.3517L10.1244 17.4002L10.1117 17.4069C10.0947 17.4152 10.0772 17.4231 10.0591 17.4305C9.87558 17.4872 9.68297 17.5088 9.4914 17.4942L9.46885 17.4947ZM9.491 15.7274L9.52172 15.7735C9.50504 15.7846 9.48867 15.7961 9.47277 15.8084L9.46217 15.817C9.44224 15.8333 9.4299 15.8436 9.41798 15.8544L9.40235 15.8692C9.3875 15.8836 9.37688 15.8942 9.36657 15.9052L9.34727 15.9266C9.33749 15.9377 9.32796 15.9491 9.31868 15.9608L9.30067 15.984C9.29153 15.9963 9.28282 16.009 9.27421 16.0218L9.25836 16.0456C9.24933 16.06 9.24088 16.0749 9.23251 16.0899L9.22033 16.1114C9.20841 16.1341 9.19707 16.1574 9.18671 16.1814C9.09592 16.3798 9.07485 16.603 9.12693 16.8148C9.17901 17.0267 9.30117 17.2147 9.47358 17.3483L9.51111 17.383C9.6817 17.3963 9.85329 17.3777 10.017 17.328C10.0327 17.3216 10.0479 17.3148 10.0627 17.3075L10.0786 17.2989C10.0917 17.2921 10.0988 17.2884 10.1056 17.2845L10.2939 17.1109L10.3796 16.9266L10.4066 16.7799L10.2761 16.7794C10.1057 16.7788 9.93533 16.778 9.76489 16.777L9.74956 16.777C9.65999 16.7767 9.52449 16.7763 9.47946 16.6193C9.46387 16.5644 9.46376 16.5062 9.47916 16.4512C9.49456 16.3961 9.52486 16.3465 9.56672 16.3076C9.77856 16.082 10.0469 16.0995 10.2825 16.1479L10.8243 16.139C10.8196 16.1299 10.8146 16.121 10.8096 16.112L10.8006 16.0956C10.7971 16.0891 10.7936 16.0825 10.7898 16.0762C10.782 16.0635 10.7736 16.0514 10.7652 16.0393L10.7466 16.0122C10.7376 16.0002 10.7279 15.9889 10.7182 15.9776L10.6983 15.9539C10.6887 15.9435 10.6785 15.9338 10.6684 15.9242L10.6446 15.9011C10.6343 15.8921 10.6234 15.8837 10.6125 15.8753L10.5854 15.8539C10.5729 15.8449 10.5596 15.8368 10.5464 15.8285L10.5206 15.812C10.4979 15.7989 10.4744 15.7866 10.4498 15.7752L10.3498 15.722C10.3438 15.7177 10.3389 15.7141 10.3342 15.7102L10.3256 15.7021C10.3185 15.6953 10.314 15.6908 10.3098 15.686L10.3017 15.6755C10.297 15.6693 10.2927 15.6629 10.2887 15.6562L10.2821 15.6431C10.2805 15.6395 10.279 15.6362 10.2777 15.6332C10.259 15.6327 10.2404 15.6313 10.2219 15.6289C10.1934 15.6249 10.1651 15.6221 10.137 15.6202L10.1132 15.6193C10.0932 15.6184 10.0733 15.6175 10.0537 15.6176L10.0325 15.6183C10.0133 15.6188 9.99403 15.6194 9.97508 15.6209L9.95788 15.6226C9.93191 15.6253 9.91506 15.6273 9.89843 15.6298L9.87256 15.6343C9.85524 15.6374 9.83943 15.6406 9.82383 15.6442L9.79719 15.6508C9.78168 15.6548 9.76628 15.6594 9.75107 15.6642L9.72629 15.6722C9.71046 15.6777 9.69493 15.6838 9.67952 15.6901L9.65841 15.6986C9.64016 15.7066 9.62236 15.7154 9.6048 15.7245L9.56737 15.6812L9.59359 15.73C9.57218 15.7415 9.5513 15.7538 9.53098 15.767L9.491 15.7274Z"
        fill="#2B2129" />
    <path
        d="M17.9592 16.9906C17.8747 17.542 17.4042 17.8077 17.0235 17.9336H10.2522C10.2534 17.9314 10.2545 17.929 10.2558 17.9269C10.2585 17.9225 10.2612 17.9183 10.2641 17.9142C10.2674 17.9095 10.2709 17.9049 10.2745 17.9005C10.2776 17.8967 10.2808 17.893 10.2841 17.8895C10.2879 17.8854 10.2919 17.8815 10.296 17.8777C10.2995 17.8745 10.3029 17.8712 10.3066 17.8682C10.3109 17.8646 10.3154 17.8612 10.32 17.8578C10.3237 17.8551 10.3274 17.8523 10.3313 17.8497C10.3361 17.8465 10.3412 17.8434 10.3462 17.8404C10.3501 17.838 10.3538 17.8356 10.3578 17.8334C10.3633 17.8303 10.369 17.8274 10.3747 17.8245C10.3784 17.8226 10.382 17.8206 10.3857 17.8188C10.3924 17.8154 10.3993 17.8123 10.4062 17.8091C10.4091 17.8078 10.4119 17.8064 10.4148 17.8051C10.4245 17.8007 10.4344 17.7963 10.4444 17.792C10.4568 17.7865 10.4693 17.781 10.4817 17.7753C10.5303 17.7556 10.5746 17.7266 10.6121 17.6899C10.6188 17.6829 10.625 17.6755 10.6308 17.6677C10.6599 17.6435 10.6877 17.6185 10.7143 17.5927L10.7163 17.5905C11.09 17.225 11.1964 16.7143 10.9878 16.2892C10.9731 16.2591 10.9568 16.2294 10.9389 16.2002C10.8763 16.0266 10.7604 15.8772 10.6078 15.7733C10.5684 15.7464 10.5268 15.7226 10.4835 15.7023L10.4684 15.6954C10.461 15.6921 10.4537 15.6887 10.4465 15.6853L10.4417 15.6829C10.4362 15.6803 10.4308 15.6776 10.4255 15.6748C10.4231 15.6735 10.4209 15.6722 10.4185 15.6709C10.4142 15.6684 10.4098 15.666 10.4057 15.6633C10.4032 15.6617 10.4008 15.6599 10.3984 15.6583C10.3948 15.6557 10.3911 15.6531 10.3877 15.6503C10.3853 15.6484 10.3831 15.6462 10.3809 15.6441C10.3778 15.6413 10.3748 15.6384 10.372 15.6352C10.3699 15.6329 10.368 15.6303 10.3661 15.6277C10.3636 15.6245 10.3612 15.6211 10.3591 15.6175C10.3574 15.6147 10.3559 15.6116 10.3544 15.6086C10.3526 15.6047 10.3509 15.6007 10.3495 15.5966C10.3483 15.5933 10.3473 15.5897 10.3464 15.5861C10.3459 15.584 10.3456 15.5816 10.3451 15.5794L11.0484 15.5793C12.8443 15.579 14.6402 15.5787 16.4361 15.5782C16.5146 15.5782 16.5944 15.5766 16.6716 15.575C16.7083 15.5743 16.7451 15.5736 16.7819 15.573C17.4193 15.6004 17.858 15.9507 17.9555 16.5101C17.9832 16.669 17.9844 16.8314 17.9592 16.9906Z"
        fill="#D7AF94" />
    <path
        d="M17.0325 17.989H10.1576L10.2038 17.9065C10.2084 17.8983 10.2134 17.8902 10.2188 17.8824C10.2229 17.8765 10.2272 17.8708 10.2317 17.8653C10.2356 17.8606 10.2395 17.8561 10.2436 17.8517C10.2484 17.8466 10.2533 17.8418 10.2583 17.8371L10.2711 17.8257C10.2764 17.8213 10.2817 17.8172 10.2872 17.8132L10.3831 17.7589L10.4587 17.725C10.5006 17.7081 10.539 17.6834 10.5716 17.6521C10.5769 17.6466 10.5819 17.6407 10.5865 17.6345L10.5954 17.6252C10.6234 17.6019 10.6501 17.5779 10.6756 17.5531C11.0337 17.2026 11.136 16.717 10.9381 16.3136C10.9241 16.285 10.9086 16.2568 10.8916 16.2291C10.855 16.1251 10.7979 16.0293 10.7238 15.9475C10.6498 15.8657 10.5601 15.7994 10.4602 15.7526L10.3666 15.7037C10.3619 15.7004 10.3571 15.6969 10.3526 15.6933L10.3431 15.6847C10.3388 15.6807 10.3346 15.6766 10.3306 15.6722L10.3227 15.6623C10.3187 15.6571 10.3149 15.6516 10.3115 15.646L10.3045 15.6326C10.3017 15.6269 10.2993 15.621 10.2972 15.6149L10.2927 15.5996L10.2798 15.5336L10.3451 15.5241L16.4361 15.5229C16.5132 15.5229 16.5916 15.5213 16.6674 15.5198L16.7811 15.5177C17.4496 15.5464 17.9078 15.9138 18.0101 16.5007C18.0388 16.6655 18.0401 16.8338 18.014 16.999C17.9252 17.5783 17.4358 17.8556 17.0409 17.9862L17.0325 17.989ZM10.3915 17.8783H17.0146C17.3786 17.7563 17.8248 17.5021 17.9045 16.9822C17.9288 16.8289 17.9276 16.6726 17.9009 16.5197C17.8083 15.9878 17.389 15.6546 16.7796 15.6284L16.6752 15.6304C16.5931 15.632 16.514 15.6336 16.4361 15.6336L10.4695 15.6348L10.5066 15.652C10.5526 15.6735 10.5969 15.6987 10.6389 15.7274C10.8009 15.8377 10.924 15.9962 10.9907 16.1805C11.0081 16.2077 11.0237 16.2358 11.0377 16.2649C11.257 16.7118 11.146 17.2477 10.7551 17.6301C10.727 17.6576 10.6996 17.6824 10.6711 17.7063C10.6651 17.7139 10.6589 17.7211 10.6524 17.728C10.61 17.7698 10.5599 17.8029 10.5049 17.8256L10.4102 17.8685L10.3747 17.8245L10.4 17.8737L10.3915 17.8783ZM10.369 17.8783H10.3816L10.3462 17.8404L10.369 17.8783ZM10.335 17.8783H10.3427L10.3201 17.8579L10.335 17.8783Z"
        fill="#2B2129" />
    <path
        d="M15.8115 11.5884C15.7421 11.6232 15.6642 11.6374 15.587 11.6292C14.8925 11.6242 14.1863 11.625 13.5034 11.6258C13.2478 11.6261 12.9923 11.6263 12.7368 11.6264C12.4828 11.6262 12.2286 11.626 11.9743 11.6257C11.8073 11.6255 11.639 11.6253 11.4695 11.6251C10.9615 11.6248 10.4456 11.6253 9.93614 11.6294C9.85499 11.6381 9.77305 11.6234 9.69994 11.5872C9.67582 11.5678 9.65718 11.5425 9.64585 11.5137C9.63452 11.485 9.63089 11.4537 9.63532 11.4231C9.63195 11.3954 9.63579 11.3672 9.64648 11.3414C9.65718 11.3155 9.67435 11.2929 9.69636 11.2756C9.70192 11.2718 9.70773 11.2685 9.71375 11.2655C9.78309 11.2394 9.85727 11.2287 9.93116 11.2341H9.93529C11.9401 11.2386 13.7884 11.2385 15.586 11.2337C15.6639 11.226 15.7425 11.2404 15.8125 11.2753C15.8354 11.2937 15.8531 11.3177 15.864 11.345C15.8748 11.3723 15.8783 11.4019 15.8742 11.4309C15.8783 11.4604 15.8747 11.4904 15.8637 11.518C15.8527 11.5456 15.8347 11.5699 15.8115 11.5884Z"
        fill="#C2956D" />
    <path
        d="M9.92617 11.6848C9.8372 11.6932 9.74772 11.6752 9.66892 11.6331C9.63757 11.6084 9.61298 11.5762 9.59742 11.5395C9.58186 11.5028 9.57585 11.4627 9.57994 11.423C9.57636 11.3862 9.58232 11.3491 9.59726 11.3152C9.6122 11.2814 9.6356 11.252 9.66522 11.2298C9.67283 11.2246 9.68077 11.22 9.68899 11.2159C9.76587 11.1854 9.84865 11.1727 9.93113 11.1787C11.9337 11.1832 13.782 11.1831 15.5858 11.1784C15.675 11.1695 15.7647 11.1873 15.8437 11.2296C15.8709 11.2558 15.8926 11.2873 15.9074 11.3221C15.9221 11.3569 15.9297 11.3944 15.9295 11.4322C15.9294 11.4701 15.9217 11.5075 15.9067 11.5422C15.8917 11.577 15.8699 11.6083 15.8424 11.6344C15.7641 11.6762 15.675 11.6937 15.5866 11.6846C14.8891 11.6796 14.1847 11.6804 13.5034 11.6812L12.7368 11.6818L11.4695 11.6806C10.9616 11.6802 10.4459 11.6807 9.93653 11.6848L9.92617 11.6848ZM9.93517 11.2895C9.86854 11.2844 9.80157 11.2931 9.73846 11.315C9.73465 11.3169 9.73098 11.3191 9.72746 11.3214C9.71043 11.333 9.69091 11.355 9.6907 11.4233C9.69051 11.5032 9.71093 11.5278 9.73092 11.5413C9.79509 11.5702 9.86579 11.5816 9.93578 11.5741C10.4453 11.57 10.9614 11.5695 11.4695 11.5698L12.7368 11.571L13.5033 11.5704C14.1847 11.5696 14.8894 11.5688 15.5873 11.5739C15.6534 11.5809 15.7201 11.5701 15.7805 11.5426C15.7994 11.5298 15.8187 11.5066 15.8188 11.4309C15.8188 11.3567 15.7999 11.3338 15.7814 11.3212C15.7201 11.2937 15.6527 11.2826 15.5858 11.2891C13.7821 11.2939 11.9337 11.294 9.93517 11.2895Z"
        fill="#2B2129" />
    <path
        d="M9.91475 13.4245H9.91829C11.8199 13.4298 13.7294 13.4298 15.5936 13.4244H15.5974C15.8297 13.4244 15.8705 13.4878 15.8737 13.6293C15.878 13.6575 15.8749 13.6863 15.8646 13.7129C15.8542 13.7395 15.8371 13.7629 15.8149 13.7809C15.742 13.8178 15.6598 13.8324 15.5786 13.823C14.8891 13.8182 14.1881 13.8189 13.5102 13.8196C13.005 13.8202 12.4998 13.8202 11.9946 13.8196C11.8252 13.8194 11.6546 13.8193 11.4828 13.8191C10.9677 13.8188 10.4445 13.8193 9.9279 13.823C9.84815 13.8318 9.76756 13.8173 9.69585 13.7813C9.6732 13.7632 9.65572 13.7394 9.64517 13.7124C9.63462 13.6854 9.63137 13.6561 9.63574 13.6274C9.63765 13.4901 9.67999 13.4245 9.91475 13.4245Z"
        fill="#C2956D" />
    <path
        d="M9.91457 13.8784C9.82791 13.8866 9.74078 13.8687 9.6644 13.8269C9.63447 13.8034 9.61104 13.7727 9.59632 13.7376C9.58161 13.7026 9.57609 13.6643 9.58031 13.6265C9.58293 13.4389 9.67357 13.3691 9.91472 13.3691H9.91824C11.818 13.3744 13.7273 13.3744 15.5935 13.369C15.838 13.369 15.9248 13.4368 15.9291 13.628C15.9338 13.6654 15.9287 13.7034 15.9142 13.7382C15.8997 13.773 15.8763 13.8034 15.8464 13.8263C15.7644 13.8708 15.6707 13.8889 15.578 13.8782C14.8858 13.8735 14.1865 13.8742 13.5102 13.8749C13.005 13.8755 12.4997 13.8755 11.9945 13.8749L11.4827 13.8744C10.9677 13.8741 10.4447 13.8746 9.92822 13.8783C9.92362 13.8784 9.91907 13.8784 9.91457 13.8784ZM9.91472 13.4245V13.4798C9.69314 13.4798 9.69235 13.5356 9.69106 13.6281C9.69004 13.7003 9.70878 13.723 9.7272 13.7357C9.7899 13.7639 9.85899 13.7749 9.92735 13.7676C10.4443 13.7639 10.9675 13.7634 11.4828 13.7637L11.9946 13.7642C12.4999 13.7647 13.005 13.7647 13.5101 13.7642C14.1866 13.7635 14.8861 13.7627 15.5789 13.7675C15.6487 13.7754 15.7194 13.7643 15.7834 13.7353C15.8005 13.7235 15.82 13.7008 15.8184 13.6305C15.8161 13.5333 15.815 13.4798 15.5974 13.4798C13.7274 13.4852 11.8179 13.4852 9.91808 13.4799L9.91472 13.4245Z"
        fill="#2B2129" />
    <path
        d="M9.91412 12.3296H9.91769C11.8154 12.3348 13.7249 12.3348 15.5932 12.3296H15.597C15.8301 12.3296 15.8709 12.3922 15.8738 12.5318C15.878 12.5599 15.8747 12.5887 15.8642 12.6152C15.8538 12.6417 15.8365 12.6649 15.8142 12.6826C15.7415 12.7186 15.66 12.7331 15.5793 12.7244C14.8828 12.7198 14.1747 12.7205 13.49 12.7212C12.9857 12.7217 12.4814 12.7217 11.9771 12.7212C11.3056 12.7205 10.6112 12.7197 9.92843 12.7244C9.84862 12.7332 9.76797 12.7189 9.69613 12.683C9.67364 12.6651 9.65624 12.6416 9.64566 12.6149C9.63507 12.5882 9.63167 12.5591 9.6358 12.5307C9.6378 12.3946 9.68007 12.3296 9.91412 12.3296Z"
        fill="#C2956D" />
    <path
        d="M9.91322 12.7798C9.82725 12.7874 9.74092 12.7697 9.66496 12.7287C9.63472 12.7058 9.61099 12.6754 9.59616 12.6405C9.58133 12.6056 9.5759 12.5674 9.58042 12.5298C9.58318 12.3435 9.67362 12.2742 9.91411 12.2742H9.91768C11.8158 12.2794 13.7252 12.2794 15.593 12.2742C15.8383 12.2742 15.9253 12.3413 15.9292 12.5306C15.9338 12.568 15.9285 12.6059 15.9139 12.6406C15.8992 12.6753 15.8756 12.7056 15.8455 12.7283C15.7637 12.7715 15.6709 12.7894 15.5789 12.7797C14.8775 12.7751 14.1722 12.7758 13.4901 12.7765C12.9857 12.7771 12.4814 12.7771 11.9771 12.7765H11.9609C11.2948 12.7758 10.6059 12.7751 9.92883 12.7798C9.92353 12.7798 9.91833 12.7798 9.91322 12.7798ZM9.91411 12.3296V12.3849C9.69334 12.3849 9.69252 12.4401 9.69116 12.5314C9.69011 12.6026 9.70992 12.6253 9.7273 12.6371C9.7901 12.6654 9.85931 12.6764 9.92777 12.6689C10.6056 12.6643 11.2946 12.665 11.961 12.6657H11.9771C12.4814 12.6662 12.9856 12.6662 13.4899 12.6657C14.1722 12.665 14.8777 12.6642 15.5796 12.6689C15.649 12.6761 15.7191 12.665 15.7829 12.6368C15.8002 12.6249 15.8198 12.6024 15.8184 12.5328C15.8164 12.4374 15.8153 12.3848 15.5969 12.3848C13.7253 12.3901 11.8157 12.3901 9.91751 12.3848L9.91411 12.3296Z"
        fill="#2B2129" />
    <path
        d="M15.8146 14.8763C15.7554 14.9077 15.6887 14.922 15.6219 14.9177C15.6084 14.918 15.5941 14.9181 15.5792 14.9179C14.8893 14.9131 14.188 14.9139 13.5097 14.9146C13.0055 14.9151 12.5013 14.9151 11.9972 14.9146C11.3192 14.9139 10.618 14.9131 9.92848 14.9179C9.84846 14.9266 9.76763 14.9122 9.69546 14.8766C9.6731 14.8587 9.65581 14.8352 9.64531 14.8086C9.63482 14.7819 9.63149 14.753 9.63565 14.7246C9.63787 14.5882 9.68015 14.5231 9.91395 14.5231H9.91753C10.8649 14.5258 11.816 14.5271 12.7641 14.5271C13.7122 14.527 14.6573 14.5257 15.5929 14.5231H15.5966C15.8299 14.5231 15.8708 14.5857 15.8737 14.7255C15.878 14.7536 15.8747 14.7824 15.8644 14.8088C15.854 14.8353 15.8368 14.8586 15.8146 14.8763Z"
        fill="#C2956D" />
    <path
        d="M9.91584 14.9733C9.82881 14.9812 9.74137 14.9635 9.66431 14.9223C9.63419 14.8994 9.61058 14.869 9.59585 14.8342C9.58112 14.7993 9.57577 14.7612 9.58033 14.7237C9.58337 14.5371 9.67381 14.4677 9.91401 14.4677C10.8651 14.4703 11.8151 14.4716 12.7641 14.4716C13.7122 14.4716 14.6573 14.4703 15.5928 14.4677C15.8382 14.4677 15.9252 14.5348 15.9291 14.7243C15.9338 14.7617 15.9286 14.7996 15.914 14.8343C15.8994 14.869 15.8759 14.8992 15.8459 14.9219C15.7781 14.96 15.7008 14.9777 15.6232 14.973C15.6091 14.9733 15.5943 14.9734 15.5787 14.9732C14.8925 14.9685 14.1945 14.9692 13.5195 14.9699C13.0056 14.9704 12.5014 14.9704 11.9972 14.9699C11.3171 14.9692 10.6172 14.9684 9.92894 14.9732C9.92452 14.9733 9.92015 14.9733 9.91584 14.9733ZM9.91743 14.5785C9.69348 14.5785 9.69259 14.6338 9.69108 14.7255C9.68998 14.7964 9.70956 14.8191 9.72678 14.8308C9.78991 14.8589 9.85935 14.8699 9.92807 14.8625C10.6168 14.8577 11.317 14.8584 11.9941 14.8592C12.5014 14.8597 13.0055 14.8597 13.5097 14.8592C14.1946 14.8585 14.8929 14.8577 15.5796 14.8625C15.5941 14.8626 15.6078 14.8626 15.6207 14.8623C15.6767 14.866 15.7328 14.8551 15.7833 14.8306C15.8004 14.8189 15.8199 14.7965 15.8184 14.7267C15.8164 14.6311 15.8153 14.5784 15.5967 14.5784C14.6547 14.5811 13.7078 14.5824 12.7557 14.5824C11.8103 14.5824 10.8621 14.5811 9.91743 14.5785Z"
        fill="#2B2129" />
    <path
        d="M15.8146 10.4918C15.7554 10.5232 15.6887 10.5375 15.6219 10.5332C15.6084 10.5335 15.5941 10.5335 15.5792 10.5334C14.8893 10.5286 14.188 10.5294 13.5097 10.5301C13.0055 10.5306 12.5013 10.5306 11.9972 10.5301C11.3192 10.5293 10.618 10.5286 9.92848 10.5334C9.84846 10.542 9.76763 10.5277 9.69546 10.4921C9.6731 10.4742 9.65581 10.4507 9.64531 10.424C9.63482 10.3974 9.63149 10.3684 9.63565 10.3401C9.63787 10.2037 9.68015 10.1386 9.91395 10.1386H9.91753C10.8649 10.1412 11.816 10.1425 12.7641 10.1425C13.7122 10.1425 14.6573 10.1412 15.5929 10.1385H15.5966C15.8299 10.1385 15.8708 10.2012 15.8737 10.341C15.878 10.3691 15.8747 10.3978 15.8644 10.4243C15.854 10.4508 15.8368 10.4741 15.8146 10.4918Z"
        fill="#C2956D" />
    <path
        d="M9.91585 10.5889C9.82882 10.5968 9.74138 10.5791 9.66431 10.5379C9.63419 10.515 9.61058 10.4846 9.59585 10.4498C9.58112 10.4149 9.57577 10.3768 9.58034 10.3393C9.58337 10.1527 9.67381 10.0833 9.91401 10.0833C10.8651 10.0859 11.8151 10.0872 12.7641 10.0872C13.7122 10.0872 14.6573 10.0859 15.5928 10.0833C15.8382 10.0833 15.9252 10.1504 15.9292 10.3399C15.9338 10.3773 15.9286 10.4152 15.914 10.4499C15.8994 10.4846 15.8759 10.5148 15.8459 10.5375C15.7781 10.5755 15.7008 10.5933 15.6232 10.5886C15.6091 10.5889 15.5943 10.589 15.5787 10.5888C14.8925 10.5841 14.1945 10.5848 13.5195 10.5855C13.0056 10.586 12.5014 10.586 11.9972 10.5855C11.3171 10.5847 10.6172 10.584 9.92894 10.5888C9.92453 10.5889 9.92015 10.5889 9.91585 10.5889ZM9.91743 10.1941C9.69348 10.1941 9.69259 10.2494 9.69108 10.341C9.68998 10.412 9.70956 10.4346 9.72678 10.4464C9.78992 10.4745 9.85935 10.4854 9.92807 10.4781C10.6168 10.4733 11.317 10.474 11.9941 10.4748C12.5014 10.4753 13.0055 10.4753 13.5097 10.4748C14.1946 10.474 14.8929 10.4733 15.5796 10.4781C15.5941 10.4782 15.6078 10.4782 15.6207 10.4779C15.6767 10.4816 15.7328 10.4707 15.7833 10.4462C15.8004 10.4345 15.8199 10.4121 15.8184 10.3423C15.8164 10.2467 15.8153 10.194 15.5967 10.194C14.6544 10.1967 13.707 10.198 12.7545 10.198C11.8095 10.198 10.8617 10.1967 9.91743 10.1941Z"
        fill="#2B2129" />
    <path
        d="M15.8146 9.39695C15.7554 9.42831 15.6887 9.44263 15.6219 9.43831C15.6084 9.43862 15.5941 9.43869 15.5792 9.43854C14.8893 9.43378 14.188 9.43454 13.5097 9.43522C13.0055 9.43573 12.5013 9.43573 11.9972 9.43522C11.3192 9.43449 10.618 9.43372 9.92848 9.43854C9.84846 9.44721 9.76763 9.43287 9.69546 9.39721C9.6731 9.37931 9.65581 9.35585 9.64531 9.32919C9.63482 9.30253 9.63149 9.27358 9.63565 9.24523C9.63787 9.10887 9.68015 9.04376 9.91395 9.04376H9.91753C10.8649 9.04638 11.816 9.0477 12.7641 9.04769C13.7122 9.04768 14.6573 9.04635 15.5929 9.0437H15.5966C15.8299 9.0437 15.8708 9.10636 15.8737 9.24615C15.878 9.27426 15.8747 9.303 15.8644 9.32947C15.854 9.35594 15.8368 9.37921 15.8146 9.39695Z"
        fill="#C2956D" />
    <path
        d="M9.91585 9.49395C9.82882 9.50186 9.74138 9.48413 9.66431 9.44292C9.63419 9.42003 9.61058 9.38964 9.59585 9.35479C9.58112 9.31994 9.57577 9.28184 9.58034 9.24428C9.58337 9.05771 9.67381 8.98834 9.91401 8.98834C10.8651 8.99097 11.8151 8.99228 12.7641 8.99227C13.7122 8.99227 14.6573 8.99093 15.5928 8.98828C15.8382 8.98828 15.9252 9.05545 15.9292 9.24496C15.9338 9.2823 15.9286 9.32022 15.914 9.35491C15.8994 9.3896 15.8759 9.41983 15.8459 9.44256C15.7781 9.48059 15.7008 9.4983 15.6232 9.4936C15.6091 9.49392 15.5943 9.494 15.5787 9.49385C14.8925 9.48911 14.1945 9.48985 13.5195 9.49052C13.0056 9.49104 12.5014 9.49106 11.9972 9.49052C11.3171 9.48979 10.6172 9.48904 9.92894 9.49385C9.92453 9.49392 9.92015 9.49395 9.91585 9.49395ZM9.91743 9.0991C9.69348 9.0991 9.69259 9.15448 9.69108 9.24609C9.68998 9.31707 9.70956 9.33969 9.72678 9.35145C9.78992 9.37955 9.85935 9.39048 9.92807 9.38313C10.6168 9.3783 11.317 9.37905 11.9941 9.37981C12.5014 9.38035 13.0055 9.38034 13.5097 9.37981C14.1946 9.37909 14.8929 9.37835 15.5796 9.38313C15.5941 9.38326 15.6078 9.3832 15.6207 9.38291C15.6767 9.38662 15.7328 9.3757 15.7833 9.35123C15.8004 9.3395 15.8199 9.3171 15.8184 9.24731C15.8164 9.15173 15.8153 9.09907 15.5967 9.09907C14.6547 9.10173 13.7078 9.10306 12.7558 9.10306C11.8103 9.10303 10.8621 9.10172 9.91743 9.0991Z"
        fill="#2B2129" />
    <path
        d="M15.8146 8.30198C15.7554 8.33334 15.6887 8.34766 15.6219 8.34334C15.6084 8.34364 15.5941 8.34372 15.5792 8.34357C14.8893 8.33881 14.188 8.33957 13.5097 8.34025C13.0055 8.34076 12.5013 8.34076 11.9972 8.34025C11.3192 8.33952 10.618 8.33875 9.92848 8.34357C9.84846 8.35223 9.76763 8.3379 9.69546 8.30224C9.6731 8.28433 9.65581 8.26088 9.64531 8.23421C9.63482 8.20755 9.63149 8.1786 9.63565 8.15025C9.63787 8.01389 9.68015 7.94877 9.91395 7.94877H9.91753C10.8649 7.95141 11.816 7.95272 12.7641 7.95272C13.7122 7.95272 14.6573 7.95138 15.5929 7.94873H15.5966C15.8299 7.94873 15.8708 8.01139 15.8737 8.15118C15.878 8.17929 15.8747 8.20802 15.8644 8.23449C15.854 8.26097 15.8368 8.28424 15.8146 8.30198Z"
        fill="#C2956D" />
    <path
        d="M9.91586 8.39896C9.82883 8.40688 9.74138 8.38915 9.66431 8.34794C9.63419 8.32505 9.61058 8.29467 9.59585 8.25982C9.58112 8.22497 9.57577 8.18687 9.58034 8.14931C9.58337 7.96272 9.67381 7.89335 9.91401 7.89335C10.8651 7.89599 11.8151 7.89731 12.7641 7.8973C13.7122 7.8973 14.6573 7.89596 15.5928 7.89331C15.8382 7.89331 15.9252 7.96048 15.9292 8.14999C15.9338 8.18733 15.9286 8.22525 15.914 8.25994C15.8994 8.29463 15.8759 8.32486 15.8459 8.34759C15.7781 8.38561 15.7008 8.40333 15.6232 8.39863C15.6091 8.39894 15.5943 8.39902 15.5787 8.39888C14.8921 8.39414 14.1937 8.39487 13.5183 8.39555C13.0056 8.39608 12.5014 8.3961 11.9972 8.39555C11.3171 8.39482 10.6172 8.39407 9.92894 8.39888C9.92453 8.39894 9.92016 8.39896 9.91586 8.39896ZM9.91743 8.00412C9.69348 8.00412 9.69259 8.0595 9.69109 8.15111C9.68998 8.2221 9.70956 8.24471 9.72678 8.25648C9.78992 8.28458 9.85936 8.2955 9.92807 8.28815C10.6168 8.28332 11.317 8.28407 11.9941 8.28483C12.5014 8.28538 13.0055 8.28537 13.5097 8.28483C14.1938 8.28411 14.8924 8.28338 15.5796 8.28815C15.5941 8.28829 15.6078 8.28822 15.6207 8.28793C15.6767 8.29164 15.7328 8.28073 15.7833 8.25626C15.8004 8.24453 15.8199 8.22212 15.8184 8.15233C15.8164 8.05675 15.8153 8.0041 15.5967 8.0041C14.6548 8.00676 13.7078 8.00809 12.7558 8.00809C11.8103 8.00806 10.8621 8.00674 9.91743 8.00412Z"
        fill="#2B2129" />
</svg>