<svg
  width="24"
  height="24"
  viewBox="0 0 24 24"
  fill="none"
  xmlns="http://www.w3.org/2000/svg"
>
  <rect width="24" height="24" rx="4" fill="black" />
  <circle cx="12" cy="12" r="12" fill="black" />
  <g clip-path="url(#clip0_9712_30863)">
    <path
      d="M17.9382 15.192L15.9572 17.2846C15.9142 17.3301 15.8621 17.3663 15.8042 17.3911C15.7463 17.4159 15.6838 17.4286 15.6207 17.4286H6.22998C6.18517 17.4286 6.14134 17.4157 6.10387 17.3915C6.0664 17.3673 6.03692 17.3329 6.01906 17.2924C6.0012 17.2519 5.99573 17.2072 6.00333 17.1637C6.01093 17.1202 6.03126 17.0798 6.06183 17.0475L8.04429 14.9549C8.08724 14.9096 8.13917 14.8734 8.19688 14.8486C8.2546 14.8239 8.31686 14.811 8.37981 14.8109H17.77C17.8148 14.8109 17.8587 14.8238 17.8962 14.848C17.9336 14.8722 17.9631 14.9067 17.981 14.9472C17.9988 14.9876 18.0043 15.0324 17.9967 15.0759C17.9891 15.1194 17.9688 15.1597 17.9382 15.192ZM15.9572 10.978C15.9142 10.9326 15.8621 10.8963 15.8042 10.8715C15.7463 10.8468 15.6838 10.834 15.6207 10.8341H6.22998C6.18517 10.8341 6.14134 10.8469 6.10387 10.8711C6.0664 10.8954 6.03692 10.9298 6.01906 10.9703C6.0012 11.0108 5.99573 11.0555 6.00333 11.099C6.01093 11.1425 6.03126 11.1829 6.06183 11.2151L8.04429 13.3078C8.08724 13.3531 8.13917 13.3893 8.19688 13.414C8.2546 13.4388 8.31686 13.4516 8.37981 13.4517H17.77C17.8148 13.4517 17.8587 13.4388 17.8962 13.4146C17.9336 13.3904 17.9631 13.356 17.981 13.3155C17.9988 13.275 18.0043 13.2303 17.9967 13.1868C17.9891 13.1433 17.9688 13.1029 17.9382 13.0707L15.9572 10.978ZM6.22998 9.47487H15.6207C15.6838 9.47489 15.7463 9.46213 15.8042 9.43736C15.8621 9.41259 15.9142 9.37635 15.9572 9.33089L17.9382 7.23825C17.9688 7.20598 17.9891 7.16562 17.9967 7.12212C18.0043 7.07863 17.9988 7.03389 17.981 6.99341C17.9631 6.95294 17.9336 6.91848 17.8962 6.89428C17.8587 6.87007 17.8148 6.85718 17.77 6.85718H8.37981C8.31686 6.85728 8.2546 6.87012 8.19688 6.89488C8.13917 6.91965 8.08724 6.95581 8.04429 7.00115L6.06234 9.09379C6.0318 9.12602 6.01148 9.16635 6.00386 9.20979C5.99625 9.25324 6.00167 9.29794 6.01947 9.3384C6.03727 9.37886 6.06666 9.41331 6.10406 9.43756C6.14145 9.4618 6.18521 9.47476 6.22998 9.47487Z"
      fill="url(#paint0_linear_9712_30863)"
    />
  </g>
  <defs>
    <linearGradient
      id="paint0_linear_9712_30863"
      x1="7.01294"
      y1="17.6806"
      x2="16.6944"
      y2="6.60052"
      gradientUnits="userSpaceOnUse"
    >
      <stop offset="0.08" stop-color="#9945FF" />
      <stop offset="0.3" stop-color="#8752F3" />
      <stop offset="0.5" stop-color="#5497D5" />
      <stop offset="0.6" stop-color="#43B4CA" />
      <stop offset="0.72" stop-color="#28E0B9" />
      <stop offset="0.97" stop-color="#19FB9B" />
    </linearGradient>
    <clipPath id="clip0_9712_30863">
      <rect
        width="12"
        height="10.5714"
        fill="white"
        transform="translate(6 6.85718)"
      />
    </clipPath>
  </defs>
</svg>
