<svg viewBox="0 0 11 11" fill="none" xmlns="http://www.w3.org/2000/svg">
  <g clip-path="url(#clip0_4156_59571)">
    <path
      d="M11 8.34278C11.0005 7.77161 10.751 7.22361 10.3063 6.81906C9.86153 6.41451 9.25792 6.18647 8.62793 6.185L5.99788 6.185C5.98134 5.96278 5.97092 5.73556 5.97092 5.5C5.97092 5.26444 5.9605 5.03833 5.9458 4.815L8.62793 4.815C9.25246 4.80591 9.84802 4.57461 10.2861 4.17099C10.7242 3.76737 10.9698 3.22378 10.9698 2.6575C10.9698 2.09122 10.7242 1.54763 10.2861 1.14401C9.84802 0.740389 9.25246 0.509086 8.62793 0.5L2.34204 0.5C1.71751 0.509086 1.12195 0.740389 0.683842 1.14401C0.245733 1.54763 0.000194361 2.09122 0.000194336 2.6575C0.000194311 3.22378 0.245733 3.76737 0.683842 4.17099C1.12195 4.57461 1.71751 4.80591 2.34204 4.815L4.8125 4.875C4.98437 4.875 4.99905 5.26444 4.99905 5.5C4.99905 5.73556 5.00947 5.96167 5.02418 6.185L2.34204 6.185C1.71751 6.19409 1.12195 6.42539 0.683842 6.82901C0.245733 7.23263 0.000194112 7.77622 0.000194088 8.3425C0.000194063 8.90878 0.245733 9.45237 0.683841 9.85599C1.12195 10.2596 1.71751 10.4909 2.34204 10.5L8.62793 10.5C9.25782 10.4985 9.86133 10.2706 10.306 9.86614C10.7508 9.46171 11.0003 8.91385 11 8.34278ZM10.0281 2.65722C10.0283 2.9943 9.88096 3.31768 9.61846 3.55639C9.35596 3.79511 8.99973 3.92967 8.62793 3.93056L5.84285 3.93056C5.74196 3.29932 5.54973 2.6829 5.27113 2.09722C5.14828 1.84346 4.99101 1.60458 4.80296 1.38611L8.62793 1.38611C8.99931 1.38699 9.35517 1.52125 9.6176 1.75949C9.88003 1.99772 10.0276 2.32053 10.0281 2.65722ZM2.34204 3.93056C1.96955 3.93056 1.61231 3.7964 1.34892 3.5576C1.08552 3.31881 0.937551 2.99493 0.937551 2.65722C0.937551 2.31951 1.08552 1.99564 1.34892 1.75684C1.61231 1.51804 1.96955 1.38389 2.34204 1.38389L2.97259 1.38389C3.52961 1.38389 4.05721 1.78389 4.38566 2.45444C4.6105 2.92693 4.77041 3.42269 4.86179 3.93056L2.34204 3.93056ZM0.941841 8.34278C0.941677 8.0057 1.08901 7.68232 1.35151 7.44361C1.61401 7.20489 1.97024 7.07033 2.34204 7.06944L5.12712 7.06944C5.22801 7.70068 5.42024 8.3171 5.69885 8.90278C5.82169 9.15654 5.97896 9.39542 6.16701 9.61389L2.34204 9.61389C1.97067 9.61301 1.6148 9.47875 1.35237 9.24051C1.08994 9.00228 0.942326 8.67947 0.941841 8.34278ZM6.58799 8.54556C6.36315 8.07307 6.20324 7.57731 6.11186 7.06944L8.62793 7.06945C9.00042 7.06945 9.35766 7.2036 9.62105 7.4424C9.88445 7.68119 10.0324 8.00507 10.0324 8.34278C10.0324 8.68049 9.88445 9.00436 9.62105 9.24316C9.35766 9.48196 9.00042 9.61611 8.62793 9.61611L7.99738 9.61611C7.44282 9.61611 6.91521 9.21611 6.58799 8.54556Z"
      fill="url(#paint0_linear_4156_59571)"
    />
    <path
      opacity="0.8"
      d="M11 2.65722C11.0005 3.22839 10.751 3.77639 10.3062 4.18094C9.86151 4.58549 9.25789 4.81353 8.62789 4.815L5.99779 4.815C5.98125 5.03722 5.97083 5.26444 5.97083 5.5C5.97083 5.73556 5.96041 5.96167 5.94571 6.185L8.62789 6.185C9.25243 6.19409 9.848 6.42539 10.2861 6.82901C10.7242 7.23263 10.9698 7.77622 10.9698 8.3425C10.9698 8.90878 10.7242 9.45237 10.2861 9.85599C9.848 10.2596 9.25243 10.4909 8.62789 10.5L2.34189 10.5C1.71735 10.4909 1.12177 10.2596 0.683659 9.85599C0.245542 9.45237 -1.04852e-06 8.90878 -1.04109e-06 8.3425C-1.03367e-06 7.77622 0.245542 7.23263 0.683659 6.82901C1.12177 6.42539 1.71735 6.19409 2.34189 6.185L4.81239 6.125C4.98427 6.125 4.99895 5.73556 4.99895 5.5C4.99895 5.26444 5.00936 5.03833 5.02407 4.815L2.34189 4.815C1.71735 4.80591 1.12177 4.57461 0.683659 4.17099C0.245542 3.76737 -9.73953e-07 3.22378 -9.66525e-07 2.6575C-9.59097e-07 2.09122 0.245542 1.54763 0.683659 1.14401C1.12177 0.74039 1.71735 0.509085 2.34189 0.499999L8.62789 0.499999C9.25779 0.50147 9.86131 0.729434 10.306 1.13386C10.7507 1.53829 11.0003 2.08615 11 2.65722ZM10.0281 8.34278C10.0283 8.0057 9.88094 7.68232 9.61844 7.44361C9.35593 7.20489 8.9997 7.07033 8.62789 7.06944L5.84276 7.06944C5.74186 7.70068 5.54963 8.3171 5.27102 8.90278C5.14818 9.15654 4.99091 9.39542 4.80285 9.61389L8.62789 9.61389C8.99927 9.61301 9.35514 9.47875 9.61757 9.24051C9.88001 9.00228 10.0276 8.67947 10.0281 8.34278ZM2.34189 7.06944C1.96939 7.06944 1.61214 7.2036 1.34875 7.44239C1.08535 7.68119 0.937372 8.00507 0.937372 8.34278C0.937372 8.68049 1.08535 9.00436 1.34875 9.24316C1.61214 9.48196 1.96939 9.61611 2.34189 9.61611L2.97245 9.61611C3.52947 9.61611 4.05709 9.21611 4.38554 8.54556C4.61038 8.07307 4.7703 7.57731 4.86168 7.06944L2.34189 7.06944ZM0.941663 2.65722C0.941499 2.9943 1.08883 3.31768 1.35134 3.55639C1.61384 3.79511 1.97008 3.92967 2.34189 3.93055L5.12702 3.93055C5.22791 3.29932 5.42014 2.6829 5.69875 2.09722C5.8216 1.84346 5.97887 1.60458 6.16692 1.38611L2.34189 1.38611C1.97051 1.38699 1.61464 1.52125 1.3522 1.75948C1.08977 1.99772 0.942148 2.32053 0.941663 2.65722ZM6.58791 2.45444C6.36307 2.92693 6.20315 3.42269 6.11177 3.93055L8.62789 3.93055C9.00039 3.93055 9.35763 3.7964 9.62103 3.5576C9.88443 3.31881 10.0324 2.99493 10.0324 2.65722C10.0324 2.31951 9.88443 1.99564 9.62103 1.75684C9.35763 1.51804 9.00039 1.38389 8.62789 1.38389L7.99733 1.38389C7.44275 1.38389 6.91514 1.78389 6.58791 2.45444Z"
      fill="url(#paint1_linear_4156_59571)"
    />
  </g>
  <defs>
    <linearGradient
      id="paint0_linear_4156_59571"
      x1="0.819714"
      y1="1.13333"
      x2="9.48035"
      y2="10.66"
      gradientUnits="userSpaceOnUse"
    >
      <stop stop-color="#8E59FF" />
      <stop offset="1" stop-color="#6888F9" />
    </linearGradient>
    <linearGradient
      id="paint1_linear_4156_59571"
      x1="0.819533"
      y1="9.86667"
      x2="9.48015"
      y2="0.339816"
      gradientUnits="userSpaceOnUse"
    >
      <stop stop-color="#8E59FF" />
      <stop offset="1" stop-color="#6888F9" />
    </linearGradient>
    <clipPath id="clip0_4156_59571">
      <rect
        width="10"
        height="11"
        fill="white"
        transform="translate(11 0.5) rotate(90)"
      />
    </clipPath>
  </defs>
</svg>
