<svg viewBox="0 0 84 84" fill="none" xmlns="http://www.w3.org/2000/svg">
  <rect width="100%" height="100%" rx="12" ry="12" fill="#6747ED" />
  <path fill-rule="evenodd" clip-rule="evenodd"
    d="M39.6837 44.7482C34.6236 44.7482 30.5612 40.6961 30.5612 35.6489C30.5612 30.6017 34.6236 26.5496 39.6837 26.5496C44.7439 26.5496 48.8062 30.6017 48.8062 35.6489C48.8062 40.6961 44.7439 44.7482 39.6837 44.7482ZM39.6837 22C47.2383 22 53.3675 28.1136 53.3675 35.6489C53.3675 43.1842 47.2383 49.2978 39.6837 49.2978C32.1292 49.2978 26 43.1842 26 35.6489C26 28.1136 32.1292 22 39.6837 22ZM52.7261 50.0087C53.6526 50.9328 53.6526 52.3546 52.7261 53.2076L43.6036 62.3069C42.6771 63.231 41.2517 63.231 40.3964 62.3069C39.4699 61.3827 39.4699 59.961 40.3964 59.1079L49.5189 50.0087C50.3742 49.0845 51.8708 49.0845 52.7261 50.0087ZM58 24.2748C58 25.5544 57.0022 26.5496 55.7194 26.5496C54.4365 26.5496 53.4388 25.5544 53.4388 24.2748C53.4388 22.9952 54.4365 22 55.7194 22C56.931 22 58 22.9952 58 24.2748Z"
    fill="white" />
</svg>
