<svg viewBox="0 0 29 29" fill="none" xmlns="http://www.w3.org/2000/svg">
    <path
        fillRule="evenodd"
        clipRule="evenodd"
        d="M11.53 14.475v1.597c0 1.07.875 1.946 1.946 1.946h1.597c1.07 0 1.947-.876 1.947-1.946v-1.597c0-1.07-.876-1.947-1.947-1.947h-1.597a1.953 1.953 0 00-1.947 1.947z"
        fill="#B5A9F2"
    />
    <path
        fillRule="evenodd"
        clipRule="evenodd"
        d="M11.53 9.509c0 1.563-1.23 2.833-2.744 2.833-1.513 0-2.742 1.27-2.742 2.842 0 1.564-1.23 2.834-2.753 2.834-1.513 0-2.742-1.27-2.742-2.834 0-1.572 1.23-2.842 2.742-2.842 1.523 0 2.753-1.27 2.753-2.833 0-1.565-1.23-2.834-2.753-2.834h-.797c-1.067 0-1.945-.908-1.945-2.01V3.008c0-1.101.878-2.01 1.945-2.01h1.603c1.068 0 1.947.909 1.947 2.01v.833c0 1.564 1.229 2.834 2.742 2.834 1.514 0 2.743 1.27 2.743 2.834z"
        fill="#DD4800"
    />
    <path
        fillRule="evenodd"
        clipRule="evenodd"
        d="M17.02 25.45v1.604c0 1.066-.909 1.945-2.01 1.945h-1.656c-1.102 0-2.01-.879-2.01-1.945v-.798c0-1.522-1.27-2.752-2.835-2.752-1.563 0-2.833 1.23-2.833 2.752C5.676 27.77 4.406 29 2.833 29 1.27 28.999 0 27.77 0 26.256c0-1.522 1.27-2.752 2.833-2.752 1.573 0 2.843-1.228 2.843-2.742v-.798c0-1.075.9-1.946 2.01-1.946h1.648c1.11 0 2.01.87 2.01 1.946v.798c0 1.514 1.27 2.742 2.833 2.742h.833c1.101 0 2.01.88 2.01 1.946z"
        fill="#007D0D"
    />
    <mask
        id="prefix__a"
        maskUnits="userSpaceOnUse"
        x="17"
        y="11"
        width="11"
        height="18"
    >
        <path d="M17.02 11.98H28v17.019H17.02v-17.02z" fill="#fff" />
    </mask>
    <g
        mask="url(#prefix__a)">
        <path
            fillRule="evenodd"
            clipRule="evenodd"
            d="M28 26.166c0 1.563-1.229 2.833-2.751 2.833-1.514 0-2.743-1.27-2.743-2.833 0-1.573-1.23-2.844-2.743-2.844h-.799c-1.073 0-1.944-.898-1.944-2.01v-1.647c0-1.11.87-2.01 1.944-2.01h.799c1.514 0 2.743-1.27 2.743-2.834 0-1.572 1.229-2.842 2.743-2.842 1.522 0 2.751 1.27 2.751 2.843 0 1.563-1.229 2.833-2.751 2.833-1.514 0-2.743 1.27-2.743 2.834s1.229 2.833 2.743 2.833c1.522 0 2.751 1.271 2.751 2.844z"
            fill="#67A0EE"
        />
    </g>
    <mask
        id="prefix__b"
        maskUnits="userSpaceOnUse"
        x="10"
        y="0"
        width="18"
        height="12"
    >
        <path d="M10.98.999H28v10.98H10.98V1z" fill="#fff" />
    </mask>
    <g mask="url(#prefix__b)">
        <path
            fillRule="evenodd"
            clipRule="evenodd"
            d="M28 2.944v1.604c0 1.066-.908 1.945-2.01 1.945h-.832c-1.564 0-2.834 1.229-2.834 2.743 0 1.513-1.27 2.743-2.834 2.743s-2.833-1.23-2.833-2.743c0-1.514-1.27-2.743-2.843-2.743h-.825c-1.1 0-2.009-.88-2.009-1.945V2.944c0-1.066.909-1.945 2.01-1.945h1.657c1.101 0 2.01.879 2.01 1.945v.806c0 1.514 1.27 2.743 2.833 2.743 1.564 0 2.834-1.229 2.834-2.743v-.806c0-1.066.908-1.945 2.01-1.945h1.656c1.102 0 2.01.879 2.01 1.945z"
            fill="#F4C328"
        />
    </g>
</svg>