<svg viewBox="0 0 24 24" fill="none" xmlns="http://www.w3.org/2000/svg">
  <g opacity="0.99">
    <path
      fill-rule="evenodd"
      clip-rule="evenodd"
      d="M10.5164 11.6288V12.5417C10.5164 13.1528 11.0169 13.6536 11.629 13.6536H12.5415C13.1532 13.6536 13.6536 13.1528 13.6536 12.5417V11.6288C13.6536 11.0173 13.1532 10.5164 12.5415 10.5164H11.629C11.0169 10.5164 10.5164 11.0173 10.5164 11.6288Z"
      fill="#B5A9F2"
    />
    <path
      fill-rule="evenodd"
      clip-rule="evenodd"
      d="M10.3595 8.94799C10.3595 9.84124 9.65711 10.5673 8.79194 10.5673C7.92722 10.5673 7.22485 11.2928 7.22485 12.1914C7.22485 13.0846 6.522 13.8107 5.65217 13.8107C4.78746 13.8107 4.08508 13.0846 4.08508 12.1914C4.08508 11.2928 4.78746 10.5673 5.65217 10.5673C6.522 10.5673 7.22485 9.84124 7.22485 8.94799C7.22485 8.05426 6.522 7.32871 5.65217 7.32871H5.19633C4.58698 7.32871 4.08508 6.80977 4.08508 6.18031V5.23372C4.08508 4.60427 4.58698 4.08533 5.19633 4.08533H6.11267C6.72248 4.08533 7.22485 4.60427 7.22485 5.23372V5.70942C7.22485 6.60315 7.92722 7.32871 8.79194 7.32871C9.65711 7.32871 10.3595 8.05426 10.3595 8.94799Z"
      fill="#DD4800"
    />
    <path
      fill-rule="evenodd"
      clip-rule="evenodd"
      d="M13.8104 18.0575V18.9738C13.8104 19.5832 13.2915 20.0851 12.662 20.0851H11.7158C11.0858 20.0851 10.5669 19.5832 10.5669 18.9738V18.518C10.5669 17.6482 9.84129 16.9453 8.94751 16.9453C8.05421 16.9453 7.32862 17.6482 7.32862 18.518C7.32862 19.3832 6.60255 20.0851 5.70397 20.0851C4.81067 20.0851 4.08508 19.3832 4.08508 18.518C4.08508 17.6482 4.81067 16.9453 5.70397 16.9453C6.60255 16.9453 7.32862 16.2434 7.32862 15.3782V14.9224C7.32862 14.3079 7.8423 13.8107 8.4766 13.8107H9.41842C10.0532 13.8107 10.5669 14.3079 10.5669 14.9224V15.3782C10.5669 16.2434 11.2929 16.9453 12.1862 16.9453H12.662C13.2915 16.9453 13.8104 17.4477 13.8104 18.0575Z"
      fill="#007D0D"
    />
    <mask
      id="mask0_4748_100937"
      style="mask-type: alpha"
      maskUnits="userSpaceOnUse"
      x="13"
      y="10"
      width="8"
      height="11"
    >
      <path
        d="M13.8102 10.3597H20.0846V20.0851H13.8102V10.3597Z"
        fill="white"
      />
    </mask>
    <g mask="url(#mask0_4748_100937)">
      <path
        fill-rule="evenodd"
        clip-rule="evenodd"
        d="M20.0846 18.4661C20.0846 19.3594 19.3823 20.085 18.5125 20.085C17.6474 20.085 16.945 19.3594 16.945 18.4661C16.945 17.5675 16.2427 16.8415 15.3776 16.8415H14.9213C14.3078 16.8415 13.8101 16.3278 13.8101 15.693V14.7517C13.8101 14.1169 14.3078 13.6032 14.9213 13.6032H15.3776C16.2427 13.6032 16.945 12.8771 16.945 11.9839C16.945 11.0853 17.6474 10.3597 18.5125 10.3597C19.3823 10.3597 20.0846 11.0853 20.0846 11.9839C20.0846 12.8771 19.3823 13.6032 18.5125 13.6032C17.6474 13.6032 16.945 14.3288 16.945 15.2226C16.945 16.1159 17.6474 16.8415 18.5125 16.8415C19.3823 16.8415 20.0846 17.5675 20.0846 18.4661Z"
        fill="#67A0EE"
      />
    </g>
    <mask
      id="mask1_4748_100937"
      style="mask-type: alpha"
      maskUnits="userSpaceOnUse"
      x="10"
      y="4"
      width="11"
      height="7"
    >
      <path
        d="M10.3582 4.08508H20.0836V10.3595H10.3582V4.08508Z"
        fill="white"
      />
    </mask>
    <g mask="url(#mask1_4748_100937)">
      <path
        fill-rule="evenodd"
        clip-rule="evenodd"
        d="M20.0841 5.19677V6.11347C20.0841 6.72227 19.5652 7.22457 18.9353 7.22457H18.46C17.5663 7.22457 16.8407 7.92686 16.8407 8.79193C16.8407 9.657 16.1152 10.3598 15.2214 10.3598C14.3277 10.3598 13.6021 9.657 13.6021 8.79193C13.6021 7.92686 12.8765 7.22457 11.978 7.22457H11.5066C10.8776 7.22457 10.3587 6.72227 10.3587 6.11347V5.19677C10.3587 4.5875 10.8776 4.08521 11.5066 4.08521H12.4537C13.0832 4.08521 13.6021 4.5875 13.6021 5.19677V5.65721C13.6021 6.52275 14.3277 7.22457 15.2214 7.22457C16.1152 7.22457 16.8407 6.52275 16.8407 5.65721V5.19677C16.8407 4.5875 17.3597 4.08521 17.9891 4.08521H18.9353C19.5652 4.08521 20.0841 4.5875 20.0841 5.19677Z"
        fill="#F4C328"
      />
    </g>
  </g>
</svg>
