<?xml version="1.0" encoding="UTF-8"?>
<svg width="42px" height="42px" viewBox="0 0 42 42" version="1.1" xmlns="http://www.w3.org/2000/svg" xmlns:xlink="http://www.w3.org/1999/xlink">
    <title>AUSD</title>
    <defs>
        <linearGradient x1="50%" y1="0%" x2="50%" y2="100%" id="linearGradient-1">
            <stop stop-color="#E2AB36" offset="0%"></stop>
            <stop stop-color="#F2E0BE" offset="17.6546664%"></stop>
            <stop stop-color="#E7BC61" offset="42.539679%"></stop>
            <stop stop-color="#EFD8AB" offset="65.8361486%"></stop>
            <stop stop-color="#E7BB5E" offset="78.0933277%"></stop>
            <stop stop-color="#E8BE65" offset="100%"></stop>
        </linearGradient>
    </defs>
    <g id="Page-1" stroke="none" stroke-width="1" fill="none" fill-rule="evenodd">
        <g id="Deposit-Liquidity" transform="translate(-990.000000, -378.000000)">
            <g id="Group" transform="translate(990.000000, 378.000000)">
                <circle id="Oval-Copy-113" fill="#000000" cx="21" cy="21" r="21"></circle>
                <path d="M18.9,7.56 L18.9002808,9.66962522 C18.993635,9.66578866 19.0872786,9.66309159 19.1811987,9.66154737 L19.3695456,9.66 L21.84,9.659 L21.84,7.56 L23.94,7.56 L23.939,9.659 L31.3296371,9.66 C31.8740352,9.66 32.3178711,10.0966235 32.3391977,10.643388 L32.34,31.7354032 C32.34,32.3012724 31.8876451,32.76 31.3296371,32.76 C30.785239,32.76 30.3414031,32.3233765 30.3200764,31.776612 L30.3192742,31.7354032 L30.3191241,11.7091935 L19.3695456,11.7091935 C14.2470319,11.7091935 10.0847151,15.8782017 10.001981,21.0528868 L10.0007258,21.21 C10.0007258,26.404679 14.1118175,30.625634 19.214615,30.7095336 L19.3695456,30.7108065 L26.074,30.71 L26.0746813,15.6212903 L19.7369503,15.6212903 C16.7237069,15.6212903 14.2752853,18.0736481 14.2266182,21.1175805 L14.2258799,21.21 C14.2258799,24.2656935 16.6441691,26.7486082 19.6458147,26.7979609 L19.7369503,26.7987097 L21.8684487,26.7987097 L21.868552,21.3031452 C21.868552,20.7510777 22.2991099,20.3009891 22.8382787,20.279362 L22.878915,20.2785484 C23.423313,20.2785484 23.8671489,20.7151719 23.8884756,21.2619364 L23.8892779,21.3031452 L23.8892779,27.8233065 C23.8892779,28.3753739 23.45872,28.8254625 22.9195512,28.8470897 L19.7369503,28.8479032 C15.5772541,28.8479032 12.205154,25.4282975 12.205154,21.21 C12.205154,17.0338855 15.5101493,13.6405688 19.6123983,13.57312 L19.7369503,13.5720968 L27.0850443,13.5720968 C27.6294423,13.5720968 28.0732782,14.0087203 28.0946049,14.5554848 L28.0954072,14.5966935 L28.0954072,31.7354032 C28.0954072,31.8485771 28.077313,31.9574652 28.0438982,32.0592551 L28.0392635,32.0730432 L28.0258795,32.1096681 C28.0185626,32.1285464 28.0108773,32.1467831 28.0026946,32.1647389 C27.9936976,32.1845057 27.9838773,32.2043445 27.9734534,32.2238025 L27.9654949,32.2383728 L27.9453188,32.273009 L27.9241713,32.3062812 L27.8928365,32.3509329 C27.8825462,32.3648065 27.8717392,32.3786216 27.860595,32.3921409 C27.8485046,32.4067923 27.836387,32.4206951 27.8239109,32.434254 C27.8146217,32.4443634 27.8046438,32.4547723 27.7944534,32.4649633 C27.7774766,32.4819245 27.7602933,32.4979487 27.7425776,32.5133613 C27.7370639,32.518152 27.7320198,32.522449 27.726934,32.5266965 C27.706335,32.5439365 27.6842019,32.5609653 27.6613832,32.5770644 L27.625859,32.6010169 C27.609215,32.6117545 27.5914526,32.622455 27.5733502,32.6326084 C27.5577043,32.6413786 27.5420446,32.649622 27.526152,32.6574552 L27.4827581,32.6775671 C27.464111,32.6856759 27.4450292,32.6932851 27.4256744,32.7003123 C27.4103402,32.7058821 27.3947082,32.7111256 27.3789125,32.7159873 C27.3611745,32.7214419 27.3434822,32.7263526 27.3256033,32.7307808 C27.3095389,32.7347682 27.2928343,32.7384616 27.275981,32.7417303 C27.2534312,32.7461003 27.2307745,32.7496904 27.2078817,32.7525041 C27.1974185,32.753785 27.1873997,32.7548586 27.1773383,32.7557825 L27.1256805,32.7591864 L27.0850443,32.76 L23.94,32.76 L23.94,34.86 L21.84,34.86 L21.84,32.76 L19.3695456,32.76 C19.2123561,32.76 19.0559104,32.7567708 18.9002693,32.7503743 L18.9,34.86 L16.8,34.86 L16.8003472,32.4649376 C11.7474261,31.2835483 7.98,26.6929371 7.98,21.21 C7.98,15.7270944 11.7473828,11.1365044 16.8002602,9.95508271 L16.8,7.56 L18.9,7.56 Z" id="Combined-Shape" fill="url(#linearGradient-1)" fill-rule="nonzero"></path>
            </g>
        </g>
    </g>
</svg>