<?xml version="1.0" encoding="UTF-8"?>
<svg width="42px" height="42px" viewBox="0 0 42 42" version="1.1" xmlns="http://www.w3.org/2000/svg" xmlns:xlink="http://www.w3.org/1999/xlink">
    <title>BTC</title>
    <g id="Page-1" stroke="none" stroke-width="1" fill="none" fill-rule="evenodd">
        <g id="BTC_Logo" fill-rule="nonzero">
            <path d="M41.37,26.082 C38.56692,37.33086 27.17022,44.17728 15.918,41.37 C4.66578,38.56272 -2.17749,27.17169 0.63,15.92178 C3.43749,4.67187 14.82852,-2.1777 26.07822,0.63 C37.32792,3.4377 44.17749,14.82936 41.37,26.082 L41.37,26.082 Z" id="Path" fill="#F7931A"></path>
            <path d="M30.261,18.00813 C30.67848,15.21366 28.55076,13.71132 25.641,12.7092 L26.586,8.92395 L24.28104,8.34981 L23.3604,12.03552 C22.75518,11.88474 22.13316,11.74152 21.51492,11.60124 L22.43892,7.89117 L20.13627,7.31703 L19.194,11.10081 L14.54628,9.94959 L13.93308,12.411 C13.93308,12.411 15.6429,12.80286 15.60678,12.82722 C16.54002,13.06032 16.70928,13.67772 16.68072,14.16744 L14.09478,24.53724 C13.98054,24.82074 13.69116,25.24578 13.0389,25.08324 C13.062,25.11684 11.36394,24.66324 11.36394,24.66324 L10.21986,27.30483 L14.86086,28.47663 L13.90704,32.30598 L16.20864,32.88012 L17.15364,29.09193 C17.78364,29.26245 18.39264,29.41995 18.98946,29.56821 L18.04824,33.33876 L20.35278,33.9129 L21.3066,30.0909 C25.23633,30.8343 28.19145,30.53442 29.4336,26.9829 C30.43572,24.12165 29.38446,22.47105 27.3168,21.39417 C28.8225,21.04557 29.9565,20.05563 30.25911,18.0096 M24.9942,25.39152 C24.2802,28.25277 19.46385,26.70654 17.90103,26.31804 L19.16649,21.24549 C20.72847,21.63525 25.73718,22.40721 24.99504,25.3911 M25.70904,17.9676 C25.0593,20.5716 21.04893,19.2486 19.74735,18.92394 L20.89311,14.322 C22.19511,14.64708 26.38482,15.2523 25.70736,17.96739" id="Shape" fill="#FFFFFF"></path>
        </g>
    </g>
</svg>