<?xml version="1.0" encoding="UTF-8"?>
<svg width="42px" height="42px" viewBox="0 0 42 42" version="1.1" xmlns="http://www.w3.org/2000/svg" xmlns:xlink="http://www.w3.org/1999/xlink">
    <title>LDOT</title>
    <defs>
        <linearGradient x1="74.8454716%" y1="70.9843199%" x2="31.8303609%" y2="12.2410983%" id="linearGradient-1">
            <stop stop-color="#00F893" offset="0%"></stop>
            <stop stop-color="#00CED3" offset="100%"></stop>
        </linearGradient>
    </defs>
    <g id="Page-1" stroke="none" stroke-width="1" fill="none" fill-rule="evenodd">
        <g id="Group-3">
            <circle id="Oval-Copy-84" fill="#F9FAFB" cx="21" cy="21" r="21"></circle>
            <circle id="Oval-Copy-85" fill="#D949A4" cx="20.79" cy="20.79" r="2.31"></circle>
            <circle id="Oval-Copy-86" fill="#A9A9A9" cx="27.93" cy="17.01" r="2.31"></circle>
            <path d="M15.930423,8.82 L15.93,28.557 L27.2096395,22.4256465 L29.4,26.4649205 L14.7303918,34.44 L13.752,32.636 L11.34,32.6369959 L11.34,8.82 L15.930423,8.82 Z" id="Combined-Shape" fill="url(#linearGradient-1)"></path>
            <circle id="Oval-Copy-87" fill="#302E97" cx="13.65" cy="17.01" r="2.31"></circle>
            <circle id="Oval-Copy-88" fill="#A9A9A9" cx="6.51" cy="13.23" r="2.31"></circle>
            <circle id="Oval-Copy-89" fill="#A9A9A9" cx="35.07" cy="13.23" r="2.31"></circle>
            <circle id="Oval-Copy-90" fill="#A9A9A9" cx="20.79" cy="12.81" r="2.31"></circle>
            <circle id="Oval-Copy-91" fill="#A9A9A9" cx="27.93" cy="9.03" r="2.31"></circle>
            <circle id="Oval-Copy-92" fill="#302E97" cx="13.65" cy="9.03" r="2.31"></circle>
            <circle id="Oval-Copy-93" fill="#A9A9A9" cx="20.37" cy="36.75" r="2.31"></circle>
            <circle id="Oval-Copy-94" fill="#A9A9A9" cx="27.93" cy="32.55" r="2.31"></circle>
            <circle id="Oval-Copy-95" fill="#302E97" cx="13.65" cy="32.55" r="2.31"></circle>
            <circle id="Oval-Copy-96" fill="#A9A9A9" cx="6.51" cy="28.77" r="2.31"></circle>
            <circle id="Oval-Copy-97" fill="#A9A9A9" cx="35.07" cy="28.77" r="2.31"></circle>
            <circle id="Oval-Copy-98" fill="#A9A9A9" cx="20.79" cy="5.25" r="2.31"></circle>
            <circle id="Oval-Copy-99" fill="#302E97" cx="20.79" cy="28.77" r="2.31"></circle>
            <circle id="Oval-Copy-100" fill="#302E97" cx="27.93" cy="24.57" r="2.31"></circle>
            <circle id="Oval-Copy-101" fill="#302E97" cx="13.65" cy="24.99" r="2.31"></circle>
            <circle id="Oval-Copy-102" fill="#A9A9A9" cx="6.51" cy="20.79" r="2.31"></circle>
            <circle id="Oval-Copy-103" fill="#A9A9A9" cx="35.07" cy="20.79" r="2.31"></circle>
        </g>
    </g>
</svg>