<svg xmlns="http://www.w3.org/2000/svg" viewBox="0 0 200 225.81"><defs><style>.cls-1{fill:#080817;}</style></defs><title>REN</title><g id="Layer_2" data-name="Layer 2"><g id="Layer_1-2" data-name="Layer 1"><polygon class="cls-1" points="30.96 47.61 47.61 38.05 49.85 41.9 111.24 6.5 106.75 3.92 102.24 1.29 100 0 0 57.77 0 60.35 28.71 43.74 30.96 47.61"/><polygon class="cls-1" points="30.96 83.98 79.07 56.18 81.32 60.09 142.7 24.67 138.21 22.05 133.71 19.47 131.46 18.2 0 94.1 0 96.68 28.71 80.07 30.96 83.98"/><polygon class="cls-1" points="30.96 102.16 94.8 65.3 97.06 69.17 158.42 33.71 153.94 31.17 149.45 28.54 147.19 27.25 0 112.23 0 114.85 28.71 98.27 30.96 102.16"/><polygon class="cls-1" points="30.96 120.31 110.98 74.12 113.25 77.99 174.16 42.83 169.68 40.2 165.17 37.62 162.93 36.33 0 130.43 0 133.01 28.71 116.4 30.96 120.31"/><polygon class="cls-1" points="30.96 138.45 126.72 83.18 128.97 87.09 189.89 51.88 185.4 49.32 180.91 46.7 178.65 45.41 0 148.56 0 151.14 28.71 134.57 30.96 138.45"/><polygon class="cls-1" points="196.64 55.8 194.39 54.49 0 166.76 0 169.34 28.71 152.77 30.96 156.64 126.72 101.38 128.97 105.25 200 64.26 200 59.06 200 57.77 196.64 55.8"/><polygon class="cls-1" points="12.31 180.36 28.42 171.07 30.66 174.95 126.26 119.76 128.5 123.68 200 82.39 200 77.19 200 71.98 200 69.4 10.11 179.07 12.31 180.36"/><polyline class="cls-1" points="126.26 137.96 128.5 141.88 200 100.59 200 95.39 200 90.18 200 87.6 25.84 188.15 28.1 189.44 44.44 179.98 46.7 183.9"/><polygon class="cls-1" points="43.82 198.54 60.18 189.06 62.42 192.97 126.26 156.09 128.5 160.01 200 118.73 200 113.52 200 108.36 200 105.75 41.54 197.21 43.82 198.54"/><polygon class="cls-1" points="59.54 207.62 75.9 198.18 78.16 202.05 126.26 174.29 128.5 178.16 200 136.88 200 131.72 200 126.51 200 123.93 57.3 206.33 59.54 207.62"/><polygon class="cls-1" points="73.04 215.4 75.29 216.69 91.68 207.24 93.89 211.15 126.26 192.43 128.5 196.34 200 155.06 200 149.85 200 144.65 200 142.06 73.04 215.4"/><polygon class="cls-1" points="91.01 225.81 107.36 216.31 109.61 220.23 126.26 210.58 128.5 214.49 200 173.25 200 168.05 200 162.84 200 160.26 88.76 224.52 91.01 225.81"/><polygon class="cls-1" points="126.98 15.57 122.47 12.99 122.47 12.99 117.99 10.41 115.74 9.08 0 75.9 0 78.48 28.71 61.93 30.96 65.78 63.33 47.1 65.64 51.02 126.98 15.57"/></g></g></svg>