<svg width="438" height="435" viewBox="0 0 438 435" fill="none" xmlns="http://www.w3.org/2000/svg">
  <g opacity="0.25">
    <path fill-rule="evenodd" clip-rule="evenodd"
      d="M271.51 249.819V260.112C271.51 266.957 265.723 272.594 258.704 272.594H248.154C241.13 272.594 235.343 266.957 235.343 260.112V254.992C235.343 245.221 227.252 237.327 217.286 237.327C207.326 237.327 199.235 245.221 199.235 254.992C199.235 264.71 191.139 272.594 181.12 272.594C171.159 272.594 163.068 264.71 163.068 254.992C163.068 245.221 171.159 237.327 181.12 237.327C191.139 237.327 199.235 229.442 199.235 219.724V214.604C199.235 207.702 204.963 202.117 212.035 202.117H222.537C229.615 202.117 235.343 207.702 235.343 214.604V219.724C235.343 229.442 243.439 237.327 253.399 237.327H258.704C265.723 237.327 271.51 242.969 271.51 249.819Z"
      fill="#1F1D2B" />
    <path fill-rule="evenodd" clip-rule="evenodd"
      d="M163.069 188.275L163.069 177.982C163.069 171.138 168.855 165.5 175.874 165.5L186.424 165.5C193.449 165.5 199.235 171.138 199.235 177.982L199.235 183.103C199.235 192.873 207.326 200.768 217.292 200.768C227.252 200.768 235.343 192.873 235.343 183.103C235.343 173.384 243.439 165.5 253.459 165.5C263.419 165.5 271.51 173.384 271.51 183.103C271.51 192.873 263.419 200.768 253.459 200.768C243.439 200.768 235.343 208.652 235.343 218.37L235.343 223.49C235.343 230.392 229.615 235.978 222.543 235.978L212.041 235.978C204.963 235.978 199.235 230.392 199.235 223.49L199.235 218.37C199.235 208.652 191.139 200.768 181.179 200.768L175.874 200.768C168.855 200.768 163.069 195.125 163.069 188.275Z"
      fill="#1F1D2B" />
  </g>
  <rect x="3.15625" y="0.703125" width="203.844" height="204.797" rx="8" fill="#1F1D2B" />
  <rect x="32.2876" y="29.9709" width="145.581" height="146.261" rx="8" fill="#2B2F40" />
  <path d="M97.9721 146.639L69.917 103.468" stroke="#4E5463" />
  <path d="M189.5 8.27954V17.1514L196.998 20.5021L189.5 8.27954Z" fill="#F7F8F7" />
  <path d="M189.5 8.27954L182 20.5021L189.5 17.1514V8.27954Z" fill="white" />
  <path d="M189.5 26.2513V32.2795L197.003 21.8983L189.5 26.2513Z" fill="#F7F8F7" />
  <path d="M189.5 32.2795V26.2502L182 21.8983L189.5 32.2795Z" fill="white" />
  <path d="M189.5 24.8561L196.998 20.5021L189.5 17.1534V24.8561Z" fill="#E2E5EB" />
  <path d="M182 20.5021L189.5 24.8561V17.1534L182 20.5021Z" fill="#F7F8F7" />
  <path d="M61.75 146.283L53.582 129.87" stroke="#4E5463" />
  <path d="M78.4419 146.639L86.6098 131.297" stroke="#4E5463" />
  <path d="M43.6377 146.996L105.43 42.8137L166.512 146.996" stroke="#4E5463" />
  <ellipse cx="69.206" cy="103.468" rx="5.68206" ry="5.70862" fill="#5093ED" />
  <ellipse cx="141.654" cy="103.468" rx="5.68206" ry="5.70862" fill="#4E5463" />
  <ellipse cx="53.582" cy="130.584" rx="5.68206" ry="5.70862" fill="#81B3F6" />
  <ellipse cx="87.3183" cy="130.584" rx="5.68206" ry="5.70862" fill="#81B3F6" />
  <ellipse cx="123.897" cy="130.584" rx="5.68206" ry="5.70862" fill="#4E5463" />
  <ellipse cx="156.214" cy="130.584" rx="5.68206" ry="5.70862" fill="#4E5463" />
  <ellipse cx="44.3481" cy="145.569" rx="5.68206" ry="5.70862" fill="#B8D6FF" />
  <ellipse cx="62.3481" cy="145.569" rx="5.68206" ry="5.70862" fill="#B8D6FF" />
  <ellipse cx="78.8617" cy="145.569" rx="5.68206" ry="5.70862" fill="#B8D6FF" />
  <ellipse cx="97.6171" cy="145.569" rx="5.68206" ry="5.70862" fill="#B8D6FF" />
  <ellipse cx="115.374" cy="145.569" rx="5.68206" ry="5.70862" fill="#4E5463" />
  <ellipse cx="131.709" cy="145.569" rx="5.68206" ry="5.70862" fill="#4E5463" />
  <ellipse cx="148.045" cy="145.569" rx="5.68206" ry="5.70862" fill="#4E5463" />
  <ellipse cx="165.801" cy="145.569" rx="5.68206" ry="5.70862" fill="#4E5463" />
  <path d="M115.02 146.282L141.299 104.181" stroke="#4E5463" />
  <path d="M132.242 146.639L124.074 130.227" stroke="#4E5463" />
  <path d="M147.336 146.639L155.504 131.297" stroke="#4E5463" />
  <path
    d="M43.8506 48.4358C43.0329 48.4358 42.3949 48.2144 41.9365 47.7717C41.4782 47.3238 41.249 46.6962 41.249 45.8889C41.249 45.0139 41.5199 44.3499 42.0615 43.8967C42.6084 43.4384 43.4235 43.2014 44.5068 43.1858L46.249 43.1545V42.7249C46.249 42.1884 46.1579 41.7821 45.9756 41.5061C45.7933 41.2301 45.499 41.092 45.0928 41.092C44.7126 41.092 44.4313 41.1884 44.249 41.3811C44.0719 41.5686 43.9626 41.8707 43.9209 42.2874L41.6318 42.178C41.9131 40.5061 43.098 39.6702 45.1865 39.6702C46.2386 39.6702 47.0433 39.928 47.6006 40.4436C48.1631 40.9592 48.4443 41.717 48.4443 42.717V45.7795C48.4443 46.2535 48.4964 46.5816 48.6006 46.7639C48.71 46.941 48.8896 47.0295 49.1396 47.0295C49.3063 47.0295 49.4678 47.0139 49.624 46.9827V48.1702C49.4938 48.2014 49.3766 48.2301 49.2725 48.2561C49.1683 48.2821 49.0641 48.303 48.96 48.3186C48.8558 48.3342 48.7438 48.3472 48.624 48.3577C48.5094 48.3681 48.374 48.3733 48.2178 48.3733C47.6657 48.3733 47.2568 48.2379 46.9912 47.967C46.7308 47.6962 46.5745 47.2978 46.5225 46.7717H46.4756C46.1475 47.3603 45.7725 47.7847 45.3506 48.0452C44.9339 48.3056 44.4339 48.4358 43.8506 48.4358ZM46.249 44.3655L45.2021 44.3811C44.7334 44.3915 44.3923 44.441 44.1787 44.5295C43.9704 44.6129 43.8115 44.7509 43.7021 44.9436C43.5928 45.1311 43.5381 45.3889 43.5381 45.717C43.5381 46.5087 43.8506 46.9045 44.4756 46.9045C44.9808 46.9045 45.4027 46.7066 45.7412 46.3108C46.0798 45.9097 46.249 45.4045 46.249 44.7952V44.3655Z"
    fill="white" />
  <rect x="3.15625" y="0.703125" width="203.844" height="204.797" rx="8" fill="#1F1D2B" />
  <rect x="32.2876" y="29.9709" width="145.581" height="146.261" rx="8" fill="#2B2F40" />
  <path d="M132.242 146.639L124.074 130.227" stroke="#4E5463" />
  <path d="M43.6377 146.996L105.43 42.8137L166.512 146.996" stroke="#4E5463" />
  <path d="M115.02 146.282L141.299 104.181" stroke="#4E5463" />
  <path d="M97.9721 146.639L69.917 103.468" stroke="#4E5463" />
  <path d="M189.5 8.27954V17.1514L196.998 20.5021L189.5 8.27954Z" fill="#5C96E4" />
  <path d="M189.5 8.27954L182 20.5021L189.5 17.1514V8.27954Z" fill="#3D7BCE" />
  <path d="M189.5 26.2513V32.2795L197.003 21.8983L189.5 26.2513Z" fill="#5C96E4" />
  <path d="M189.5 32.2795V26.2502L182 21.8983L189.5 32.2795Z" fill="#3D7BCE" />
  <path d="M189.5 24.8561L196.998 20.5021L189.5 17.1534V24.8561Z" fill="#83B7FC" />
  <path d="M182 20.5021L189.5 24.8561V17.1534L182 20.5021Z" fill="#5C96E4" />
  <path d="M61.75 146.283L53.582 129.87" stroke="#4E5463" />
  <path d="M78.4419 146.639L86.6098 131.297" stroke="#4E5463" />
  <ellipse cx="69.206" cy="103.468" rx="5.68206" ry="5.70862" fill="#5093ED" />
  <path
    d="M145.586 103.468C145.586 105.662 143.818 107.427 141.654 107.427C139.49 107.427 137.722 105.662 137.722 103.468C137.722 101.274 139.49 99.5094 141.654 99.5094C143.818 99.5094 145.586 101.274 145.586 103.468Z"
    fill="#181F2B" stroke="#5093ED" stroke-width="3.5" />
  <ellipse cx="53.582" cy="130.584" rx="5.68206" ry="5.70862" fill="#81B3F6" />
  <ellipse cx="87.3183" cy="130.584" rx="5.68206" ry="5.70862" fill="#81B3F6" />
  <path
    d="M127.829 130.584C127.829 132.778 126.061 134.543 123.897 134.543C121.733 134.543 119.965 132.778 119.965 130.584C119.965 128.39 121.733 126.625 123.897 126.625C126.061 126.625 127.829 128.39 127.829 130.584Z"
    fill="#181F2B" stroke="#81B3F6" stroke-width="3.5" />
  <ellipse cx="156.214" cy="130.584" rx="5.68206" ry="5.70862" fill="#4E5463" />
  <ellipse cx="44.3481" cy="145.569" rx="5.68206" ry="5.70862" fill="#B8D6FF" />
  <ellipse cx="62.3481" cy="145.569" rx="5.68206" ry="5.70862" fill="#B8D6FF" />
  <ellipse cx="78.8617" cy="145.569" rx="5.68206" ry="5.70862" fill="#B8D6FF" />
  <ellipse cx="97.6171" cy="145.569" rx="5.68206" ry="5.70862" fill="#B8D6FF" />
  <path
    d="M119.306 145.569C119.306 147.763 117.538 149.527 115.374 149.527C113.211 149.527 111.442 147.763 111.442 145.569C111.442 143.375 113.211 141.61 115.374 141.61C117.538 141.61 119.306 143.375 119.306 145.569Z"
    fill="#181F2B" stroke="#B8D6FF" stroke-width="3.5" />
  <ellipse cx="131.709" cy="145.569" rx="5.68206" ry="5.70862" fill="#4E5463" />
  <ellipse cx="148.045" cy="145.569" rx="5.68206" ry="5.70862" fill="#4E5463" />
  <ellipse cx="165.801" cy="145.569" rx="5.68206" ry="5.70862" fill="#4E5463" />
  <path d="M147.336 146.639L155.504 131.297" stroke="#4E5463" />
  <path
    d="M43.8506 48.4358C43.0329 48.4358 42.3949 48.2144 41.9365 47.7717C41.4782 47.3238 41.249 46.6962 41.249 45.8889C41.249 45.0139 41.5199 44.3499 42.0615 43.8967C42.6084 43.4384 43.4235 43.2014 44.5068 43.1858L46.249 43.1545V42.7249C46.249 42.1884 46.1579 41.7821 45.9756 41.5061C45.7933 41.2301 45.499 41.092 45.0928 41.092C44.7126 41.092 44.4313 41.1884 44.249 41.3811C44.0719 41.5686 43.9626 41.8707 43.9209 42.2874L41.6318 42.178C41.9131 40.5061 43.098 39.6702 45.1865 39.6702C46.2386 39.6702 47.0433 39.928 47.6006 40.4436C48.1631 40.9592 48.4443 41.717 48.4443 42.717V45.7795C48.4443 46.2535 48.4964 46.5816 48.6006 46.7639C48.71 46.941 48.8896 47.0295 49.1396 47.0295C49.3063 47.0295 49.4678 47.0139 49.624 46.9827V48.1702C49.4938 48.2014 49.3766 48.2301 49.2725 48.2561C49.1683 48.2821 49.0641 48.303 48.96 48.3186C48.8558 48.3342 48.7438 48.3472 48.624 48.3577C48.5094 48.3681 48.374 48.3733 48.2178 48.3733C47.6657 48.3733 47.2568 48.2379 46.9912 47.967C46.7308 47.6962 46.5745 47.2978 46.5225 46.7717H46.4756C46.1475 47.3603 45.7725 47.7847 45.3506 48.0452C44.9339 48.3056 44.4339 48.4358 43.8506 48.4358ZM46.249 44.3655L45.2021 44.3811C44.7334 44.3915 44.3923 44.441 44.1787 44.5295C43.9704 44.6129 43.8115 44.7509 43.7021 44.9436C43.5928 45.1311 43.5381 45.3889 43.5381 45.717C43.5381 46.5087 43.8506 46.9045 44.4756 46.9045C44.9808 46.9045 45.4027 46.7066 45.7412 46.3108C46.0798 45.9097 46.249 45.4045 46.249 44.7952V44.3655Z"
    fill="white" />
  <path
    d="M16.9834 188.263H15.6787V186.779H17.0928L17.7803 184.576H19.1553V186.779H22.1631V188.263H19.1553V192.404C19.1553 192.862 19.1969 193.172 19.2803 193.333C19.3688 193.49 19.5094 193.615 19.7021 193.708C19.8949 193.797 20.1657 193.841 20.5146 193.841C21.1605 193.841 21.8245 193.771 22.5068 193.63V195.083C21.7673 195.203 21.2438 195.274 20.9365 195.294C20.6292 195.32 20.3089 195.333 19.9756 195.333C19.3141 195.333 18.7594 195.245 18.3115 195.068C17.8688 194.886 17.5329 194.604 17.3037 194.224C17.0798 193.839 16.9678 193.3 16.9678 192.607L16.9834 188.263ZM30.2334 193.748H32.9912V195.232H24.9521V193.748H28.0381V188.263H25.7725V186.779H30.2334V193.748ZM28.0381 185.255V183.638H30.2334V185.255H28.0381ZM37.5537 195.232V190.091C37.5537 189.315 37.5042 188.776 37.4053 188.474C37.3115 188.172 37.1344 188.021 36.874 188.021C36.6084 188.021 36.3975 188.266 36.2412 188.755C36.0902 189.245 36.0146 189.888 36.0146 190.685V195.232H34.2256V188.583C34.2256 187.599 34.21 186.998 34.1787 186.779H35.8115L35.8584 187.771V188.146H35.874C36.0511 187.615 36.2751 187.229 36.5459 186.99C36.8167 186.745 37.1553 186.623 37.5615 186.623C38.0199 186.623 38.361 186.748 38.585 186.998C38.8141 187.248 38.9782 187.633 39.0771 188.154H39.0928C39.3011 187.602 39.5485 187.208 39.835 186.974C40.1266 186.74 40.4938 186.623 40.9365 186.623C41.5511 186.623 41.9912 186.847 42.2568 187.294C42.5225 187.742 42.6553 188.511 42.6553 189.599V195.232H40.874V190.091C40.874 189.315 40.8245 188.776 40.7256 188.474C40.6318 188.172 40.4548 188.021 40.1943 188.021C39.9287 188.021 39.7178 188.232 39.5615 188.654C39.4105 189.07 39.335 189.698 39.335 190.537V195.232H37.5537ZM48.1396 195.388C46.8271 195.388 45.8141 195.003 45.1006 194.232C44.387 193.456 44.0303 192.367 44.0303 190.966C44.0303 190.029 44.1969 189.237 44.5303 188.591C44.8688 187.945 45.348 187.456 45.9678 187.123C46.5876 186.789 47.3219 186.623 48.1709 186.623C49.4053 186.623 50.3636 187.034 51.0459 187.857C51.7282 188.68 52.0693 189.849 52.0693 191.365V191.427H46.335C46.335 192.193 46.5042 192.8 46.8428 193.248C47.1865 193.695 47.6553 193.919 48.249 193.919C48.6344 193.919 48.9756 193.839 49.2725 193.677C49.5693 193.511 49.7699 193.255 49.874 192.912L51.9443 193.091C51.6579 193.826 51.1813 194.393 50.5146 194.794C49.848 195.19 49.0563 195.388 48.1396 195.388ZM48.1396 188.005C47.6032 188.005 47.1761 188.188 46.8584 188.552C46.5407 188.912 46.3714 189.412 46.3506 190.052H49.9443C49.9079 189.427 49.7282 188.93 49.4053 188.56C49.0876 188.19 48.6657 188.005 48.1396 188.005ZM56.5303 195.232V192.849H58.7881V195.232H56.5303ZM56.5303 189.138V186.755H58.7881V189.138H56.5303Z"
    fill="white" />
  <path
    d="M67.5156 195.232V193.708C67.776 193.136 68.1458 192.563 68.625 191.99C69.1094 191.412 69.8125 190.748 70.7344 189.998C71.4531 189.409 71.9193 189.003 72.1328 188.779C72.3464 188.555 72.513 188.339 72.6328 188.13C72.7578 187.917 72.8203 187.701 72.8203 187.482C72.8203 187.107 72.6979 186.813 72.4531 186.599C72.2083 186.386 71.849 186.279 71.375 186.279C70.9062 186.279 70.5469 186.406 70.2969 186.662C70.0521 186.912 69.8932 187.289 69.8203 187.794L67.6094 187.669C67.7344 186.649 68.1146 185.87 68.75 185.333C69.3906 184.797 70.2604 184.529 71.3594 184.529C72.4948 184.529 73.3932 184.789 74.0547 185.31C74.7161 185.826 75.0469 186.518 75.0469 187.388C75.0469 187.956 74.8672 188.511 74.5078 189.052C74.1536 189.589 73.6198 190.136 72.9062 190.693C71.8958 191.474 71.2161 192.037 70.8672 192.38C70.5182 192.724 70.2656 193.073 70.1094 193.427H75.2188V195.232H67.5156Z"
    fill="white" />
  <path d="M110.289 42.6253L105.075 51.6558L99.8612 42.6253L110.289 42.6253Z" fill="#181F2B"
    stroke="#165DBD" stroke-width="2.5" />
  <rect x="231.104" y="1.18689" width="203.74" height="203.529" rx="8" fill="white" />
  <g opacity="0.25">
    <rect x="231" y="0.703125" width="203.844" height="204.797" rx="8" fill="#1F1D2B" />
    <rect x="260.131" y="29.9709" width="145.581" height="146.261" rx="8" fill="#2B2F40" />
    <path d="M325.816 154.686L297.761 111.515" stroke="#4E5463" />
    <path d="M417.343 16.3262V25.198L424.842 28.5487L417.343 16.3262Z" fill="#F7F8F7" />
    <path d="M417.343 16.3262L409.844 28.5487L417.343 25.198V16.3262Z" fill="white" />
    <path d="M417.343 34.2979V40.3261L424.847 29.9449L417.343 34.2979Z" fill="#F7F8F7" />
    <path d="M417.343 40.3261V34.2969L409.844 29.9449L417.343 40.3261Z" fill="white" />
    <path d="M417.343 32.9027L424.842 28.5488L417.343 25.2001V32.9027Z" fill="#E2E5EB" />
    <path d="M409.844 28.5488L417.343 32.9027V25.2001L409.844 28.5488Z" fill="#F7F8F7" />
    <path d="M289.594 154.329L281.426 137.917" stroke="#4E5463" />
    <path d="M306.286 154.686L314.454 139.344" stroke="#4E5463" />
    <path d="M271.481 155.043L333.274 50.8604L394.356 155.043" stroke="#4E5463" />
    <ellipse cx="297.05" cy="111.515" rx="5.68206" ry="5.70862" fill="#FF6E6E" />
    <ellipse cx="369.498" cy="111.515" rx="5.68206" ry="5.70862" fill="#4E5463" />
    <ellipse cx="281.426" cy="138.631" rx="5.68206" ry="5.70862" fill="#FF8D8D" />
    <ellipse cx="315.162" cy="138.631" rx="5.68206" ry="5.70862" fill="#FF8D8D" />
    <ellipse cx="351.741" cy="138.631" rx="5.68206" ry="5.70862" fill="#4E5463" />
    <ellipse cx="384.058" cy="138.631" rx="5.68206" ry="5.70862" fill="#4E5463" />
    <ellipse cx="272.192" cy="153.615" rx="5.68206" ry="5.70862" fill="#FFC0C0" />
    <ellipse cx="290.192" cy="153.616" rx="5.68206" ry="5.70862" fill="#FFC0C0" />
    <ellipse cx="306.706" cy="153.616" rx="5.68206" ry="5.70862" fill="#FFC0C0" />
    <ellipse cx="325.461" cy="153.616" rx="5.68206" ry="5.70862" fill="#FFC0C0" />
    <ellipse cx="343.218" cy="153.615" rx="5.68206" ry="5.70862" fill="#4E5463" />
    <ellipse cx="359.553" cy="153.615" rx="5.68206" ry="5.70862" fill="#4E5463" />
    <ellipse cx="375.889" cy="153.615" rx="5.68206" ry="5.70862" fill="#4E5463" />
    <ellipse cx="393.645" cy="153.615" rx="5.68206" ry="5.70862" fill="#4E5463" />
    <path d="M342.863 154.329L369.143 112.228" stroke="#4E5463" />
    <path d="M360.086 154.686L351.918 138.273" stroke="#4E5463" />
    <path d="M375.18 154.686L383.348 139.344" stroke="#4E5463" />
    <path
      d="M271.694 48.4358C270.877 48.4358 270.239 48.2144 269.78 47.7717C269.322 47.3238 269.093 46.6962 269.093 45.8889C269.093 45.0139 269.364 44.3499 269.905 43.8967C270.452 43.4384 271.267 43.2014 272.351 43.1858L274.093 43.1545V42.7249C274.093 42.1884 274.002 41.7821 273.819 41.5061C273.637 41.2301 273.343 41.092 272.937 41.092C272.556 41.092 272.275 41.1884 272.093 41.3811C271.916 41.5686 271.806 41.8707 271.765 42.2874L269.476 42.178C269.757 40.5061 270.942 39.6702 273.03 39.6702C274.082 39.6702 274.887 39.928 275.444 40.4436C276.007 40.9592 276.288 41.717 276.288 42.717V45.7795C276.288 46.2535 276.34 46.5816 276.444 46.7639C276.554 46.941 276.733 47.0295 276.983 47.0295C277.15 47.0295 277.312 47.0139 277.468 46.9827V48.1702C277.338 48.2014 277.22 48.2301 277.116 48.2561C277.012 48.2821 276.908 48.303 276.804 48.3186C276.7 48.3342 276.588 48.3472 276.468 48.3577C276.353 48.3681 276.218 48.3733 276.062 48.3733C275.509 48.3733 275.101 48.2379 274.835 47.967C274.575 47.6962 274.418 47.2978 274.366 46.7717H274.319C273.991 47.3603 273.616 47.7847 273.194 48.0452C272.778 48.3056 272.278 48.4358 271.694 48.4358ZM274.093 44.3655L273.046 44.3811C272.577 44.3915 272.236 44.441 272.022 44.5295C271.814 44.6129 271.655 44.7509 271.546 44.9436C271.437 45.1311 271.382 45.3889 271.382 45.717C271.382 46.5087 271.694 46.9045 272.319 46.9045C272.825 46.9045 273.246 46.7066 273.585 46.3108C273.924 45.9097 274.093 45.4045 274.093 44.7952V44.3655Z"
      fill="white" />
    <rect x="231" y="0.703125" width="203.844" height="204.797" rx="8" fill="#1F1D2B" />
    <rect x="260.131" y="29.9709" width="145.581" height="146.261" rx="8" fill="#2B2F40" />
    <path fill-rule="evenodd" clip-rule="evenodd"
      d="M415.594 31.2598C422.362 31.2598 427.849 25.7731 427.849 19.0049C427.849 12.2367 422.362 6.75 415.594 6.75C408.826 6.75 403.339 12.2367 403.339 19.0049C403.339 25.7731 408.826 31.2598 415.594 31.2598ZM412.022 22.262C411.292 22.262 410.694 22.0903 410.228 21.7469C409.768 21.3975 409.538 20.9007 409.538 20.2569C409.538 20.122 409.554 19.9564 409.584 19.7602C409.664 19.3187 409.778 18.7883 409.925 18.1689C410.342 16.4827 411.418 15.6395 413.153 15.6395C413.625 15.6395 414.048 15.7193 414.422 15.8786C414.797 16.032 415.091 16.265 415.306 16.5777C415.52 16.8843 415.627 17.2522 415.627 17.6814C415.627 17.8102 415.612 17.9727 415.581 18.1689C415.489 18.7147 415.379 19.2452 415.25 19.7602C415.036 20.6003 414.665 21.2288 414.137 21.6457C413.61 22.0566 412.905 22.262 412.022 22.262ZM412.151 20.9375C412.494 20.9375 412.785 20.8363 413.024 20.634C413.27 20.4317 413.444 20.122 413.549 19.705C413.69 19.1286 413.797 18.6258 413.871 18.1965C413.895 18.0678 413.907 17.936 413.907 17.801C413.907 17.243 413.616 16.964 413.034 16.964C412.69 16.964 412.396 17.0652 412.151 17.2676C411.911 17.47 411.74 17.7796 411.636 18.1965C411.525 18.6074 411.415 19.1102 411.304 19.705C411.28 19.8277 411.268 19.9564 411.268 20.0913C411.268 20.6554 411.562 20.9375 412.151 20.9375ZM415.893 22.1056C415.93 22.1486 415.982 22.1701 416.05 22.1701H417.301C417.362 22.1701 417.42 22.1486 417.475 22.1056C417.531 22.0627 417.564 22.0076 417.577 21.9401L418 19.9258H419.241C420.045 19.9258 420.676 19.7571 421.136 19.4199C421.602 19.0826 421.912 18.5614 422.065 17.8562C422.102 17.6907 422.12 17.5312 422.12 17.3779C422.12 16.8444 421.912 16.4367 421.495 16.1546C421.084 15.8725 420.538 15.7315 419.858 15.7315H417.411C417.35 15.7315 417.291 15.753 417.236 15.7959C417.181 15.8388 417.147 15.894 417.135 15.9614L415.866 21.9401C415.854 22.0015 415.863 22.0566 415.893 22.1056ZM419.977 18.4449C419.787 18.5859 419.563 18.6565 419.306 18.6565H418.248L418.598 17.01H419.701C419.953 17.01 420.131 17.059 420.235 17.1572C420.339 17.2492 420.391 17.384 420.391 17.5619C420.391 17.6416 420.382 17.7336 420.364 17.8378C420.302 18.1015 420.173 18.3039 419.977 18.4449Z"
      fill="#EF570D" />
    <path d="M325.816 146.639L297.761 103.468" stroke="#4E5463" />
    <path d="M289.594 146.283L281.426 129.87" stroke="#4E5463" />
    <path d="M306.286 146.639L314.454 131.297" stroke="#4E5463" />
    <path d="M271.481 146.996L333.274 42.8137L394.356 146.996" stroke="#4E5463" />
    <ellipse cx="297.05" cy="103.468" rx="5.68206" ry="5.70862" fill="#FF6E6E" />
    <ellipse cx="369.498" cy="103.468" rx="5.68206" ry="5.70862" fill="#4E5463" />
    <ellipse cx="281.426" cy="130.584" rx="5.68206" ry="5.70862" fill="#FF8D8D" />
    <ellipse cx="315.162" cy="130.584" rx="5.68206" ry="5.70862" fill="#FF8D8D" />
    <ellipse cx="351.741" cy="130.584" rx="5.68206" ry="5.70862" fill="#4E5463" />
    <ellipse cx="384.058" cy="130.584" rx="5.68206" ry="5.70862" fill="#4E5463" />
    <ellipse cx="272.192" cy="145.569" rx="5.68206" ry="5.70862" fill="#FFC0C0" />
    <ellipse cx="290.192" cy="145.569" rx="5.68206" ry="5.70862" fill="#FFC0C0" />
    <ellipse cx="306.706" cy="145.569" rx="5.68206" ry="5.70862" fill="#FFC0C0" />
    <ellipse cx="325.461" cy="145.569" rx="5.68206" ry="5.70862" fill="#FFC0C0" />
    <ellipse cx="343.218" cy="145.569" rx="5.68206" ry="5.70862" fill="#4E5463" />
    <ellipse cx="359.553" cy="145.569" rx="5.68206" ry="5.70862" fill="#4E5463" />
    <ellipse cx="375.889" cy="145.569" rx="5.68206" ry="5.70862" fill="#4E5463" />
    <ellipse cx="393.645" cy="145.569" rx="5.68206" ry="5.70862" fill="#4E5463" />
    <path d="M342.863 146.282L369.143 104.181" stroke="#4E5463" />
    <path d="M360.086 146.639L351.918 130.227" stroke="#4E5463" />
    <path d="M375.18 146.639L383.348 131.297" stroke="#4E5463" />
    <path
      d="M269.358 48.2795C269.4 47.5712 269.421 46.9566 269.421 46.4358V36.6858H271.616V39.7639L271.601 41.1545H271.616C271.83 40.6806 272.15 40.3134 272.577 40.053C273.009 39.7926 273.515 39.6624 274.093 39.6624C275.062 39.6624 275.806 40.0452 276.327 40.8108C276.848 41.5764 277.108 42.6597 277.108 44.0608C277.108 45.3837 276.832 46.4436 276.28 47.2405C275.728 48.0374 274.976 48.4358 274.022 48.4358C273.481 48.4358 273.004 48.3082 272.593 48.053C272.187 47.7926 271.866 47.4097 271.632 46.9045H271.601C271.601 47.0764 271.588 47.316 271.562 47.6233C271.541 47.9254 271.515 48.1441 271.483 48.2795H269.358ZM271.585 44.0061C271.585 44.6311 271.653 45.1597 271.788 45.592C271.929 46.0243 272.124 46.3577 272.374 46.592C272.629 46.8212 272.921 46.9358 273.249 46.9358C273.749 46.9358 274.134 46.6962 274.405 46.217C274.681 45.7379 274.819 45.0191 274.819 44.0608C274.819 43.1077 274.684 42.3863 274.413 41.8967C274.147 41.4019 273.754 41.1545 273.233 41.1545C272.723 41.1545 272.319 41.4045 272.022 41.9045C271.731 42.4045 271.585 43.1051 271.585 44.0061Z"
      fill="white" />
    <path
      d="M243.827 188.263H242.522V186.779H243.937L244.624 184.576H245.999V186.779H249.007V188.263H245.999V192.404C245.999 192.862 246.041 193.172 246.124 193.333C246.213 193.49 246.353 193.615 246.546 193.708C246.739 193.797 247.009 193.841 247.358 193.841C248.004 193.841 248.668 193.771 249.351 193.63V195.083C248.611 195.203 248.088 195.274 247.78 195.294C247.473 195.32 247.153 195.333 246.819 195.333C246.158 195.333 245.603 195.245 245.155 195.068C244.713 194.886 244.377 194.604 244.147 194.224C243.924 193.839 243.812 193.3 243.812 192.607L243.827 188.263ZM257.077 193.748H259.835V195.232H251.796V193.748H254.882V188.263H252.616V186.779H257.077V193.748ZM254.882 185.255V183.638H257.077V185.255H254.882ZM264.397 195.232V190.091C264.397 189.315 264.348 188.776 264.249 188.474C264.155 188.172 263.978 188.021 263.718 188.021C263.452 188.021 263.241 188.266 263.085 188.755C262.934 189.245 262.858 189.888 262.858 190.685V195.232H261.069V188.583C261.069 187.599 261.054 186.998 261.022 186.779H262.655L262.702 187.771V188.146H262.718C262.895 187.615 263.119 187.229 263.39 186.99C263.66 186.745 263.999 186.623 264.405 186.623C264.864 186.623 265.205 186.748 265.429 186.998C265.658 187.248 265.822 187.633 265.921 188.154H265.937C266.145 187.602 266.392 187.208 266.679 186.974C266.97 186.74 267.338 186.623 267.78 186.623C268.395 186.623 268.835 186.847 269.101 187.294C269.366 187.742 269.499 188.511 269.499 189.599V195.232H267.718V190.091C267.718 189.315 267.668 188.776 267.569 188.474C267.476 188.172 267.299 188.021 267.038 188.021C266.772 188.021 266.562 188.232 266.405 188.654C266.254 189.07 266.179 189.698 266.179 190.537V195.232H264.397ZM274.983 195.388C273.671 195.388 272.658 195.003 271.944 194.232C271.231 193.456 270.874 192.367 270.874 190.966C270.874 190.029 271.041 189.237 271.374 188.591C271.713 187.945 272.192 187.456 272.812 187.123C273.431 186.789 274.166 186.623 275.015 186.623C276.249 186.623 277.207 187.034 277.89 187.857C278.572 188.68 278.913 189.849 278.913 191.365V191.427H273.179C273.179 192.193 273.348 192.8 273.687 193.248C274.03 193.695 274.499 193.919 275.093 193.919C275.478 193.919 275.819 193.839 276.116 193.677C276.413 193.511 276.614 193.255 276.718 192.912L278.788 193.091C278.502 193.826 278.025 194.393 277.358 194.794C276.692 195.19 275.9 195.388 274.983 195.388ZM274.983 188.005C274.447 188.005 274.02 188.188 273.702 188.552C273.384 188.912 273.215 189.412 273.194 190.052H276.788C276.752 189.427 276.572 188.93 276.249 188.56C275.931 188.19 275.509 188.005 274.983 188.005ZM283.374 195.232V192.849H285.632V195.232H283.374ZM283.374 189.138V186.755H285.632V189.138H283.374Z"
      fill="white" />
    <path
      d="M294.587 195.232V193.599H297.626V186.638C297.423 187.065 297.017 187.425 296.408 187.716C295.804 188.008 295.168 188.154 294.501 188.154V186.482C295.225 186.482 295.874 186.323 296.447 186.005C297.02 185.688 297.452 185.25 297.744 184.693H299.822V193.599H302.345V195.232H294.587Z"
      fill="white" />
    <path d="M333.919 53.1558L326.54 40.3753L341.297 40.3753L333.919 53.1558Z" fill="#E63535" />
  </g>
  <rect x="3.15625" y="230.134" width="203.74" height="203.529" rx="8" fill="white" />
  <g opacity="0.25">
    <rect x="3.15625" y="229.5" width="203.844" height="204.797" rx="8" fill="#1F1D2B" />
    <rect x="32.2876" y="258.768" width="145.581" height="146.261" rx="8" fill="#2B2F40" />
    <path d="M97.9721 383.483L69.917 340.311" stroke="#4E5463" />
    <path d="M189.5 245.123V253.995L196.998 257.346L189.5 245.123Z" fill="#F7F8F7" />
    <path d="M189.5 245.123L182 257.346L189.5 253.995V245.123Z" fill="white" />
    <path d="M189.5 263.095V269.123L197.003 258.742L189.5 263.095Z" fill="#F7F8F7" />
    <path d="M189.5 269.123V263.094L182 258.742L189.5 269.123Z" fill="white" />
    <path d="M189.5 261.7L196.998 257.346L189.5 253.997V261.7Z" fill="#E2E5EB" />
    <path d="M182 257.346L189.5 261.7V253.997L182 257.346Z" fill="#F7F8F7" />
    <path d="M61.75 383.126L53.582 366.714" stroke="#4E5463" />
    <path d="M78.4419 383.483L86.6098 368.141" stroke="#4E5463" />
    <path d="M43.6377 383.84L105.43 279.657L166.512 383.84" stroke="#4E5463" />
    <ellipse cx="69.206" cy="340.312" rx="5.68206" ry="5.70862" fill="#9986FF" />
    <ellipse cx="141.654" cy="340.312" rx="5.68206" ry="5.70862" fill="#4E5463" />
    <ellipse cx="53.582" cy="367.427" rx="5.68206" ry="5.70862" fill="#C5BBFA" />
    <ellipse cx="87.3183" cy="367.427" rx="5.68206" ry="5.70862" fill="#C5BBFA" />
    <ellipse cx="123.897" cy="367.427" rx="5.68206" ry="5.70862" fill="#4E5463" />
    <ellipse cx="156.214" cy="367.427" rx="5.68206" ry="5.70862" fill="#4E5463" />
    <ellipse cx="44.3481" cy="382.412" rx="5.68206" ry="5.70862" fill="#E7E2FF" />
    <ellipse cx="62.3481" cy="382.412" rx="5.68206" ry="5.70862" fill="#E7E2FF" />
    <ellipse cx="78.8617" cy="382.412" rx="5.68206" ry="5.70862" fill="#E7E2FF" />
    <ellipse cx="97.6171" cy="382.412" rx="5.68206" ry="5.70862" fill="#E7E2FF" />
    <ellipse cx="115.374" cy="382.412" rx="5.68206" ry="5.70862" fill="#4E5463" />
    <ellipse cx="131.709" cy="382.412" rx="5.68206" ry="5.70862" fill="#4E5463" />
    <ellipse cx="148.045" cy="382.412" rx="5.68206" ry="5.70862" fill="#4E5463" />
    <ellipse cx="165.801" cy="382.412" rx="5.68206" ry="5.70862" fill="#4E5463" />
    <path d="M115.02 383.126L141.299 341.025" stroke="#4E5463" />
    <path d="M132.242 383.483L124.074 367.07" stroke="#4E5463" />
    <path d="M147.336 383.483L155.504 368.141" stroke="#4E5463" />
    <path
      d="M43.8506 277.233C43.0329 277.233 42.3949 277.011 41.9365 276.569C41.4782 276.121 41.249 275.493 41.249 274.686C41.249 273.811 41.5199 273.147 42.0615 272.694C42.6084 272.235 43.4235 271.998 44.5068 271.983L46.249 271.951V271.522C46.249 270.985 46.1579 270.579 45.9756 270.303C45.7933 270.027 45.499 269.889 45.0928 269.889C44.7126 269.889 44.4313 269.985 44.249 270.178C44.0719 270.365 43.9626 270.668 43.9209 271.084L41.6318 270.975C41.9131 269.303 43.098 268.467 45.1865 268.467C46.2386 268.467 47.0433 268.725 47.6006 269.24C48.1631 269.756 48.4443 270.514 48.4443 271.514V274.576C48.4443 275.05 48.4964 275.378 48.6006 275.561C48.71 275.738 48.8896 275.826 49.1396 275.826C49.3063 275.826 49.4678 275.811 49.624 275.78V276.967C49.4938 276.998 49.3766 277.027 49.2725 277.053C49.1683 277.079 49.0641 277.1 48.96 277.115C48.8558 277.131 48.7438 277.144 48.624 277.155C48.5094 277.165 48.374 277.17 48.2178 277.17C47.6657 277.17 47.2568 277.035 46.9912 276.764C46.7308 276.493 46.5745 276.095 46.5225 275.569H46.4756C46.1475 276.157 45.7725 276.582 45.3506 276.842C44.9339 277.102 44.4339 277.233 43.8506 277.233ZM46.249 273.162L45.2021 273.178C44.7334 273.188 44.3923 273.238 44.1787 273.326C43.9704 273.41 43.8115 273.548 43.7021 273.74C43.5928 273.928 43.5381 274.186 43.5381 274.514C43.5381 275.306 43.8506 275.701 44.4756 275.701C44.9808 275.701 45.4027 275.503 45.7412 275.108C46.0798 274.707 46.249 274.201 46.249 273.592V273.162Z"
      fill="white" />
    <rect x="3.15625" y="229.5" width="203.844" height="204.797" rx="8" fill="#1F1D2B" />
    <path
      d="M197.859 249.543V254.969C197.857 255.307 197.767 255.64 197.599 255.933C197.431 256.226 197.19 256.471 196.9 256.642L192.216 259.35C191.926 259.523 191.594 259.615 191.256 259.615C190.919 259.615 190.587 259.523 190.297 259.35L185.613 256.642C185.323 256.471 185.082 256.226 184.914 255.933C184.745 255.64 184.656 255.307 184.654 254.969V253.446L187.052 252.049V254.696L191.249 257.141L195.446 254.696V249.819L191.249 247.375L181.417 253.091C181.124 253.256 180.793 253.343 180.457 253.343C180.121 253.343 179.791 253.256 179.498 253.091L174.814 250.372C174.528 250.198 174.292 249.952 174.128 249.66C173.964 249.367 173.877 249.037 173.877 248.701V243.275C173.879 242.936 173.969 242.604 174.137 242.311C174.305 242.017 174.546 241.773 174.837 241.601L179.521 238.894C179.811 238.722 180.142 238.631 180.48 238.631C180.817 238.631 181.148 238.722 181.439 238.894L186.123 241.601C186.413 241.773 186.654 242.017 186.823 242.311C186.991 242.604 187.08 242.936 187.082 243.275V244.797L184.669 246.185V243.553L180.472 241.109L176.276 243.553V248.424L180.472 250.868L190.305 245.153C190.597 244.987 190.928 244.9 191.264 244.9C191.6 244.9 191.93 244.987 192.223 245.153L196.907 247.872C197.196 248.044 197.435 248.289 197.602 248.582C197.769 248.874 197.857 249.206 197.859 249.543Z"
      fill="#B5A9F2" />
    <rect x="32.2876" y="258.768" width="145.581" height="146.261" rx="8" fill="#2B2F40" />
    <path d="M97.9721 375.436L69.917 332.265" stroke="#4E5463" />
    <path d="M61.75 375.079L53.582 358.667" stroke="#4E5463" />
    <path d="M78.4419 375.436L86.6098 360.094" stroke="#4E5463" />
    <path d="M43.6377 375.793L105.43 271.611L166.512 375.793" stroke="#4E5463" />
    <ellipse cx="69.206" cy="332.265" rx="5.68206" ry="5.70862" fill="#9986FF" />
    <ellipse cx="141.654" cy="332.265" rx="5.68206" ry="5.70862" fill="#4E5463" />
    <ellipse cx="53.582" cy="359.381" rx="5.68206" ry="5.70862" fill="#C5BBFA" />
    <ellipse cx="87.3183" cy="359.381" rx="5.68206" ry="5.70862" fill="#C5BBFA" />
    <ellipse cx="123.897" cy="359.381" rx="5.68206" ry="5.70862" fill="#4E5463" />
    <ellipse cx="156.214" cy="359.381" rx="5.68206" ry="5.70862" fill="#4E5463" />
    <ellipse cx="44.3481" cy="374.366" rx="5.68206" ry="5.70862" fill="#E7E2FF" />
    <ellipse cx="62.3481" cy="374.366" rx="5.68206" ry="5.70862" fill="#E7E2FF" />
    <ellipse cx="78.8617" cy="374.366" rx="5.68206" ry="5.70862" fill="#E7E2FF" />
    <ellipse cx="97.6171" cy="374.366" rx="5.68206" ry="5.70862" fill="#E7E2FF" />
    <ellipse cx="115.374" cy="374.366" rx="5.68206" ry="5.70862" fill="#4E5463" />
    <ellipse cx="131.709" cy="374.366" rx="5.68206" ry="5.70862" fill="#4E5463" />
    <ellipse cx="148.045" cy="374.366" rx="5.68206" ry="5.70862" fill="#4E5463" />
    <ellipse cx="165.801" cy="374.366" rx="5.68206" ry="5.70862" fill="#4E5463" />
    <path d="M115.02 375.079L141.299 332.978" stroke="#4E5463" />
    <path d="M132.242 375.436L124.074 359.024" stroke="#4E5463" />
    <path d="M147.336 375.436L155.504 360.094" stroke="#4E5463" />
    <path
      d="M45.2959 277.233C44.0146 277.233 43.0251 276.852 42.3271 276.092C41.6292 275.326 41.2803 274.261 41.2803 272.897C41.2803 271.501 41.6318 270.415 42.335 269.639C43.0381 268.858 44.0355 268.467 45.3271 268.467C46.3219 268.467 47.1449 268.717 47.7959 269.217C48.4469 269.717 48.8558 270.407 49.0225 271.287L46.8115 271.397C46.749 270.964 46.5928 270.621 46.3428 270.365C46.0928 270.105 45.7386 269.975 45.2803 269.975C44.1501 269.975 43.585 270.92 43.585 272.811C43.585 274.759 44.1605 275.733 45.3115 275.733C45.7282 275.733 46.0771 275.602 46.3584 275.342C46.6396 275.076 46.8141 274.683 46.8818 274.162L49.085 274.264C49.0068 274.842 48.7985 275.358 48.46 275.811C48.1266 276.264 47.6865 276.615 47.1396 276.865C46.5928 277.11 45.9782 277.233 45.2959 277.233Z"
      fill="white" />
    <path
      d="M15.9834 416.06H14.6787V414.576H16.0928L16.7803 412.373H18.1553V414.576H21.1631V416.06H18.1553V420.201C18.1553 420.659 18.1969 420.969 18.2803 421.13C18.3688 421.287 18.5094 421.412 18.7021 421.505C18.8949 421.594 19.1657 421.638 19.5146 421.638C20.1605 421.638 20.8245 421.568 21.5068 421.427V422.88C20.7673 423 20.2438 423.07 19.9365 423.091C19.6292 423.117 19.3089 423.13 18.9756 423.13C18.3141 423.13 17.7594 423.042 17.3115 422.865C16.8688 422.682 16.5329 422.401 16.3037 422.021C16.0798 421.636 15.9678 421.097 15.9678 420.404L15.9834 416.06ZM29.2334 421.544H31.9912V423.029H23.9521V421.544H27.0381V416.06H24.7725V414.576H29.2334V421.544ZM27.0381 413.052V411.435H29.2334V413.052H27.0381ZM36.5537 423.029V417.888C36.5537 417.112 36.5042 416.573 36.4053 416.271C36.3115 415.969 36.1344 415.818 35.874 415.818C35.6084 415.818 35.3975 416.063 35.2412 416.552C35.0902 417.042 35.0146 417.685 35.0146 418.482V423.029H33.2256V416.38C33.2256 415.396 33.21 414.794 33.1787 414.576H34.8115L34.8584 415.568V415.943H34.874C35.0511 415.412 35.2751 415.026 35.5459 414.787C35.8167 414.542 36.1553 414.419 36.5615 414.419C37.0199 414.419 37.361 414.544 37.585 414.794C37.8141 415.044 37.9782 415.43 38.0771 415.951H38.0928C38.3011 415.399 38.5485 415.005 38.835 414.771C39.1266 414.537 39.4938 414.419 39.9365 414.419C40.5511 414.419 40.9912 414.643 41.2568 415.091C41.5225 415.539 41.6553 416.307 41.6553 417.396V423.029H39.874V417.888C39.874 417.112 39.8245 416.573 39.7256 416.271C39.6318 415.969 39.4548 415.818 39.1943 415.818C38.9287 415.818 38.7178 416.029 38.5615 416.451C38.4105 416.867 38.335 417.495 38.335 418.333V423.029H36.5537ZM47.1396 423.185C45.8271 423.185 44.8141 422.8 44.1006 422.029C43.387 421.253 43.0303 420.164 43.0303 418.763C43.0303 417.826 43.1969 417.034 43.5303 416.388C43.8688 415.742 44.348 415.253 44.9678 414.919C45.5876 414.586 46.3219 414.419 47.1709 414.419C48.4053 414.419 49.3636 414.831 50.0459 415.654C50.7282 416.477 51.0693 417.646 51.0693 419.162V419.224H45.335C45.335 419.99 45.5042 420.597 45.8428 421.044C46.1865 421.492 46.6553 421.716 47.249 421.716C47.6344 421.716 47.9756 421.636 48.2725 421.474C48.5693 421.307 48.7699 421.052 48.874 420.708L50.9443 420.888C50.6579 421.623 50.1813 422.19 49.5146 422.591C48.848 422.987 48.0563 423.185 47.1396 423.185ZM47.1396 415.802C46.6032 415.802 46.1761 415.985 45.8584 416.349C45.5407 416.708 45.3714 417.208 45.3506 417.849H48.9443C48.9079 417.224 48.7282 416.727 48.4053 416.357C48.0876 415.987 47.6657 415.802 47.1396 415.802ZM55.5303 423.029V420.646H57.7881V423.029H55.5303ZM55.5303 416.935V414.552H57.7881V416.935H55.5303Z"
      fill="white" />
    <path
      d="M65.6899 423.029V421.396H68.729V414.435C68.5259 414.862 68.1196 415.222 67.5103 415.513C66.9061 415.805 66.2707 415.951 65.604 415.951V414.279C66.328 414.279 66.9764 414.12 67.5493 413.802C68.1222 413.485 68.5545 413.047 68.8462 412.49H70.9243V421.396H73.4478V423.029H65.6899Z"
      fill="white" />
    <path d="M105.075 282.953L97.6961 270.172L112.454 270.172L105.075 282.953Z" fill="#6F54FF" />
  </g>
  <rect x="231" y="229.5" width="203.844" height="204.797" rx="8" fill="#1F1D2B" />
  <rect x="260.131" y="258.768" width="145.581" height="146.261" rx="8" fill="#2B2F40" />
  <path d="M325.816 383.483L297.761 340.311" stroke="#4E5463" />
  <path d="M417.343 245.123V253.995L424.842 257.346L417.343 245.123Z" fill="#F7F8F7" />
  <path d="M417.343 245.123L409.844 257.346L417.343 253.995V245.123Z" fill="white" />
  <path d="M417.343 263.095V269.123L424.847 258.742L417.343 263.095Z" fill="#F7F8F7" />
  <path d="M417.343 269.123V263.094L409.844 258.742L417.343 269.123Z" fill="white" />
  <path d="M417.343 261.7L424.842 257.346L417.343 253.997V261.7Z" fill="#E2E5EB" />
  <path d="M409.844 257.346L417.343 261.7V253.997L409.844 257.346Z" fill="#F7F8F7" />
  <path d="M289.594 383.126L281.426 366.714" stroke="#4E5463" />
  <path d="M306.286 383.483L314.454 368.141" stroke="#4E5463" />
  <path d="M271.481 383.84L333.274 279.657L394.356 383.84" stroke="#4E5463" />
  <ellipse cx="297.05" cy="340.312" rx="5.68206" ry="5.70862" fill="#F547BA" />
  <ellipse cx="369.498" cy="340.312" rx="5.68206" ry="5.70862" fill="#4E5463" />
  <ellipse cx="281.426" cy="367.427" rx="5.68206" ry="5.70862" fill="#FF76D1" />
  <ellipse cx="315.162" cy="367.427" rx="5.68206" ry="5.70862" fill="#FF76D1" />
  <ellipse cx="351.741" cy="367.427" rx="5.68206" ry="5.70862" fill="#4E5463" />
  <ellipse cx="384.058" cy="367.427" rx="5.68206" ry="5.70862" fill="#4E5463" />
  <ellipse cx="272.192" cy="382.412" rx="5.68206" ry="5.70862" fill="#FFBDE9" />
  <ellipse cx="290.192" cy="382.412" rx="5.68206" ry="5.70862" fill="#FFBDE9" />
  <ellipse cx="306.706" cy="382.412" rx="5.68206" ry="5.70862" fill="#FFBDE9" />
  <ellipse cx="325.461" cy="382.412" rx="5.68206" ry="5.70862" fill="#FFBDE9" />
  <ellipse cx="343.218" cy="382.412" rx="5.68206" ry="5.70862" fill="#4E5463" />
  <ellipse cx="359.553" cy="382.412" rx="5.68206" ry="5.70862" fill="#4E5463" />
  <ellipse cx="375.889" cy="382.412" rx="5.68206" ry="5.70862" fill="#4E5463" />
  <ellipse cx="393.645" cy="382.412" rx="5.68206" ry="5.70862" fill="#4E5463" />
  <path d="M342.863 383.126L369.143 341.025" stroke="#4E5463" />
  <path d="M360.086 383.483L351.918 367.07" stroke="#4E5463" />
  <path d="M375.18 383.483L383.348 368.141" stroke="#4E5463" />
  <path
    d="M271.694 277.233C270.877 277.233 270.239 277.011 269.78 276.569C269.322 276.121 269.093 275.493 269.093 274.686C269.093 273.811 269.364 273.147 269.905 272.694C270.452 272.235 271.267 271.998 272.351 271.983L274.093 271.951V271.522C274.093 270.985 274.002 270.579 273.819 270.303C273.637 270.027 273.343 269.889 272.937 269.889C272.556 269.889 272.275 269.985 272.093 270.178C271.916 270.365 271.806 270.668 271.765 271.084L269.476 270.975C269.757 269.303 270.942 268.467 273.03 268.467C274.082 268.467 274.887 268.725 275.444 269.24C276.007 269.756 276.288 270.514 276.288 271.514V274.576C276.288 275.05 276.34 275.378 276.444 275.561C276.554 275.738 276.733 275.826 276.983 275.826C277.15 275.826 277.312 275.811 277.468 275.78V276.967C277.338 276.998 277.22 277.027 277.116 277.053C277.012 277.079 276.908 277.1 276.804 277.115C276.7 277.131 276.588 277.144 276.468 277.155C276.353 277.165 276.218 277.17 276.062 277.17C275.509 277.17 275.101 277.035 274.835 276.764C274.575 276.493 274.418 276.095 274.366 275.569H274.319C273.991 276.157 273.616 276.582 273.194 276.842C272.778 277.102 272.278 277.233 271.694 277.233ZM274.093 273.162L273.046 273.178C272.577 273.188 272.236 273.238 272.022 273.326C271.814 273.41 271.655 273.548 271.546 273.74C271.437 273.928 271.382 274.186 271.382 274.514C271.382 275.306 271.694 275.701 272.319 275.701C272.825 275.701 273.246 275.503 273.585 275.108C273.924 274.707 274.093 274.201 274.093 273.592V273.162Z"
    fill="white" />
  <rect x="231" y="229.5" width="203.844" height="204.797" rx="8" fill="#1F1D2B" />
  <rect x="260.131" y="258.768" width="145.581" height="146.261" rx="8" fill="#2B2F40" />
  <path d="M271.481 375.793L333.274 271.611L394.356 375.793" stroke="#4E5463" />
  <path d="M342.863 375.079L369.143 332.978" stroke="#4E5463" />
  <path d="M325.816 375.436L297.761 332.265" stroke="#4E5463" />
  <path d="M289.594 375.079L281.426 358.667" stroke="#4E5463" />
  <path d="M360.086 375.436L351.918 359.024" stroke="#4E5463" />
  <path d="M306.286 375.436L314.454 360.094" stroke="#4E5463" />
  <ellipse cx="297.05" cy="332.265" rx="5.68206" ry="5.70862" fill="#F547BA" />
  <path
    d="M373.43 332.265C373.43 334.459 371.662 336.224 369.498 336.224C367.334 336.224 365.566 334.459 365.566 332.265C365.566 330.071 367.334 328.306 369.498 328.306C371.662 328.306 373.43 330.071 373.43 332.265Z"
    fill="#422417" stroke="#F547BA" stroke-width="3.5" />
  <ellipse cx="281.426" cy="359.381" rx="5.68206" ry="5.70862" fill="#FF76D1" />
  <ellipse cx="315.162" cy="359.381" rx="5.68206" ry="5.70862" fill="#FF76D1" />
  <path
    d="M355.673 359.381C355.673 361.575 353.905 363.339 351.741 363.339C349.577 363.339 347.809 361.575 347.809 359.381C347.809 357.187 349.577 355.422 351.741 355.422C353.905 355.422 355.673 357.187 355.673 359.381Z"
    fill="#422417" stroke="#FF76D1" stroke-width="3.5" />
  <ellipse cx="384.058" cy="359.381" rx="5.68206" ry="5.70862" fill="#4E5463" />
  <ellipse cx="272.192" cy="374.366" rx="5.68206" ry="5.70862" fill="#FFBDE9" />
  <ellipse cx="290.192" cy="374.366" rx="5.68206" ry="5.70862" fill="#FFBDE9" />
  <ellipse cx="306.706" cy="374.366" rx="5.68206" ry="5.70862" fill="#FFBDE9" />
  <ellipse cx="325.461" cy="374.366" rx="5.68206" ry="5.70862" fill="#FFBDE9" />
  <path
    d="M347.75 374.366C347.75 375.338 347.264 376.314 346.382 377.087C345.496 377.863 344.328 378.324 343.218 378.324C341.054 378.324 339.286 376.56 339.286 374.366C339.286 372.172 341.054 370.407 343.218 370.407C344.328 370.407 345.496 370.868 346.382 371.645C347.264 372.418 347.75 373.393 347.75 374.366Z"
    fill="#422417" stroke="#FFBDE9" stroke-width="3.5" />
  <ellipse cx="359.553" cy="374.366" rx="5.68206" ry="5.70862" fill="#4E5463" />
  <ellipse cx="375.889" cy="374.366" rx="5.68206" ry="5.70862" fill="#4E5463" />
  <ellipse cx="393.645" cy="374.366" rx="5.68206" ry="5.70862" fill="#4E5463" />
  <path d="M375.18 375.436L383.348 360.094" stroke="#4E5463" />
  <path
    d="M274.647 277.076C274.627 276.998 274.601 276.803 274.569 276.49C274.543 276.173 274.53 275.91 274.53 275.701H274.499C274.223 276.259 273.882 276.655 273.476 276.889C273.069 277.118 272.588 277.233 272.03 277.233C271.098 277.233 270.364 276.842 269.827 276.061C269.291 275.28 269.022 274.214 269.022 272.865C269.022 271.485 269.291 270.41 269.827 269.639C270.369 268.868 271.132 268.483 272.116 268.483C272.674 268.483 273.158 268.61 273.569 268.865C273.981 269.115 274.296 269.485 274.515 269.975H274.53L274.515 268.584V265.483H276.71V275.233C276.71 275.753 276.731 276.368 276.772 277.076H274.647ZM274.546 272.811C274.546 271.91 274.4 271.212 274.108 270.717C273.817 270.222 273.413 269.975 272.897 269.975C272.377 269.975 271.981 270.22 271.71 270.709C271.444 271.194 271.312 271.912 271.312 272.865C271.312 273.824 271.447 274.543 271.718 275.022C271.994 275.496 272.382 275.733 272.882 275.733C273.205 275.733 273.494 275.618 273.749 275.389C274.004 275.155 274.2 274.821 274.335 274.389C274.476 273.957 274.546 273.431 274.546 272.811Z"
    fill="white" />
  <path
    d="M242.827 418.06H241.522V416.576H242.937L243.624 414.373H244.999V416.576H248.007V418.06H244.999V422.201C244.999 422.659 245.041 422.969 245.124 423.13C245.213 423.287 245.353 423.412 245.546 423.505C245.739 423.594 246.009 423.638 246.358 423.638C247.004 423.638 247.668 423.568 248.351 423.427V424.88C247.611 425 247.088 425.07 246.78 425.091C246.473 425.117 246.153 425.13 245.819 425.13C245.158 425.13 244.603 425.042 244.155 424.865C243.713 424.682 243.377 424.401 243.147 424.021C242.924 423.636 242.812 423.097 242.812 422.404L242.827 418.06ZM256.077 423.544H258.835V425.029H250.796V423.544H253.882V418.06H251.616V416.576H256.077V423.544ZM253.882 415.052V413.435H256.077V415.052H253.882ZM263.397 425.029V419.888C263.397 419.112 263.348 418.573 263.249 418.271C263.155 417.969 262.978 417.818 262.718 417.818C262.452 417.818 262.241 418.063 262.085 418.552C261.934 419.042 261.858 419.685 261.858 420.482V425.029H260.069V418.38C260.069 417.396 260.054 416.794 260.022 416.576H261.655L261.702 417.568V417.943H261.718C261.895 417.412 262.119 417.026 262.39 416.787C262.66 416.542 262.999 416.419 263.405 416.419C263.864 416.419 264.205 416.544 264.429 416.794C264.658 417.044 264.822 417.43 264.921 417.951H264.937C265.145 417.399 265.392 417.005 265.679 416.771C265.97 416.537 266.338 416.419 266.78 416.419C267.395 416.419 267.835 416.643 268.101 417.091C268.366 417.539 268.499 418.307 268.499 419.396V425.029H266.718V419.888C266.718 419.112 266.668 418.573 266.569 418.271C266.476 417.969 266.299 417.818 266.038 417.818C265.772 417.818 265.562 418.029 265.405 418.451C265.254 418.867 265.179 419.495 265.179 420.333V425.029H263.397ZM273.983 425.185C272.671 425.185 271.658 424.8 270.944 424.029C270.231 423.253 269.874 422.164 269.874 420.763C269.874 419.826 270.041 419.034 270.374 418.388C270.713 417.742 271.192 417.253 271.812 416.919C272.431 416.586 273.166 416.419 274.015 416.419C275.249 416.419 276.207 416.831 276.89 417.654C277.572 418.477 277.913 419.646 277.913 421.162V421.224H272.179C272.179 421.99 272.348 422.597 272.687 423.044C273.03 423.492 273.499 423.716 274.093 423.716C274.478 423.716 274.819 423.636 275.116 423.474C275.413 423.307 275.614 423.052 275.718 422.708L277.788 422.888C277.502 423.623 277.025 424.19 276.358 424.591C275.692 424.987 274.9 425.185 273.983 425.185ZM273.983 417.802C273.447 417.802 273.02 417.985 272.702 418.349C272.384 418.708 272.215 419.208 272.194 419.849H275.788C275.752 419.224 275.572 418.727 275.249 418.357C274.931 417.987 274.509 417.802 273.983 417.802ZM282.374 425.029V422.646H284.632V425.029H282.374ZM282.374 418.935V416.552H284.632V418.935H282.374Z"
    fill="white" />
  <path
    d="M293.349 425.029V423.505C293.609 422.932 293.979 422.36 294.458 421.787C294.942 421.208 295.646 420.544 296.567 419.794C297.286 419.206 297.752 418.8 297.966 418.576C298.179 418.352 298.346 418.136 298.466 417.927C298.591 417.714 298.653 417.498 298.653 417.279C298.653 416.904 298.531 416.61 298.286 416.396C298.041 416.182 297.682 416.076 297.208 416.076C296.739 416.076 296.38 416.203 296.13 416.458C295.885 416.708 295.726 417.086 295.653 417.591L293.442 417.466C293.567 416.445 293.948 415.667 294.583 415.13C295.224 414.594 296.093 414.326 297.192 414.326C298.328 414.326 299.226 414.586 299.888 415.107C300.549 415.623 300.88 416.315 300.88 417.185C300.88 417.753 300.7 418.307 300.341 418.849C299.987 419.386 299.453 419.932 298.739 420.49C297.729 421.271 297.049 421.833 296.7 422.177C296.351 422.521 296.099 422.87 295.942 423.224H301.052V425.029H293.349Z"
    fill="white" />
  <path d="M338.132 271.422L332.919 280.453L327.705 271.422L338.132 271.422Z" fill="#422417"
    stroke="#D4289A" stroke-width="2.5" />
  <path
    d="M414.551 240.11C416.943 240.11 418.881 238.983 418.881 237.593C418.881 236.203 416.943 235.076 414.551 235.076C412.16 235.076 410.221 236.203 410.221 237.593C410.221 238.983 412.16 240.11 414.551 240.11Z"
    fill="#F547BA" />
  <path
    d="M414.551 259.076C416.943 259.076 418.881 257.949 418.881 256.559C418.881 255.169 416.943 254.042 414.551 254.042C412.16 254.042 410.221 255.169 410.221 256.559C410.221 257.949 412.16 259.076 414.551 259.076Z"
    fill="#F547BA" />
  <path
    d="M408.518 243.594C409.714 241.524 409.706 239.283 408.5 238.587C407.295 237.892 405.349 239.006 404.153 241.076C402.957 243.146 402.965 245.387 404.17 246.083C405.376 246.779 407.322 245.664 408.518 243.594Z"
    fill="#F547BA" />
  <path
    d="M424.949 253.077C426.145 251.007 426.138 248.765 424.934 248.07C423.729 247.375 421.783 248.49 420.588 250.559C419.392 252.629 419.399 254.871 420.603 255.566C421.808 256.261 423.754 255.146 424.949 253.077Z"
    fill="#F547BA" />
  <path
    d="M408.5 255.565C409.706 254.87 409.714 252.628 408.518 250.558C407.322 248.488 405.376 247.374 404.17 248.069C402.965 248.765 402.957 251.007 404.153 253.076C405.349 255.146 407.295 256.261 408.5 255.565Z"
    fill="#F547BA" />
  <path
    d="M424.934 246.084C426.138 245.389 426.145 243.147 424.949 241.077C423.754 239.007 421.808 237.893 420.603 238.588C419.399 239.283 419.392 241.525 420.587 243.594C421.783 245.664 423.729 246.779 424.934 246.084Z"
    fill="#F547BA" />
  <path fill-rule="evenodd" clip-rule="evenodd"
    d="M215.787 218.348V219.575C215.787 220.396 216.455 221.069 217.271 221.069H218.488C219.304 221.069 219.972 220.396 219.972 219.575V218.348C219.972 217.526 219.304 216.853 218.488 216.853H217.271C216.455 216.853 215.787 217.526 215.787 218.348Z"
    fill="white" />
  <path fill-rule="evenodd" clip-rule="evenodd"
    d="M215.788 214.535C215.788 215.735 214.851 216.711 213.697 216.711C212.543 216.711 211.606 217.686 211.606 218.893C211.606 220.094 210.669 221.069 209.508 221.069C208.355 221.069 207.418 220.094 207.418 218.893C207.418 217.686 208.355 216.711 209.508 216.711C210.669 216.711 211.606 215.735 211.606 214.535C211.606 213.334 210.669 212.359 209.508 212.359H208.9C208.087 212.359 207.418 211.662 207.418 210.816V209.544C207.418 208.698 208.087 208.001 208.9 208.001H210.123C210.936 208.001 211.606 208.698 211.606 209.544V210.183C211.606 211.384 212.543 212.359 213.697 212.359C214.851 212.359 215.788 213.334 215.788 214.535Z"
    fill="white" />
  <path fill-rule="evenodd" clip-rule="evenodd"
    d="M219.973 226.775V228.007C219.973 228.826 219.281 229.5 218.441 229.5H217.179C216.338 229.5 215.646 228.826 215.646 228.007V227.394C215.646 226.225 214.678 225.281 213.486 225.281C212.295 225.281 211.327 226.225 211.327 227.394C211.327 228.557 210.358 229.5 209.159 229.5C207.968 229.5 207 228.557 207 227.394C207 226.225 207.968 225.281 209.159 225.281C210.358 225.281 211.327 224.338 211.327 223.175V222.563C211.327 221.737 212.012 221.069 212.858 221.069H214.114C214.961 221.069 215.646 221.737 215.646 222.563V223.175C215.646 224.338 216.615 225.281 217.806 225.281H218.441C219.281 225.281 219.973 225.956 219.973 226.775Z"
    fill="white" />
  <mask id="mask0_1014_83461" style="mask-type:alpha" maskUnits="userSpaceOnUse" x="219" y="216"
    width="10" height="14">
    <path d="M219.975 216.431H228.345V229.5H219.975V216.431Z" fill="white" />
  </mask>
  <g mask="url(#mask0_1014_83461)">
    <path fill-rule="evenodd" clip-rule="evenodd"
      d="M228.344 227.324C228.344 228.525 227.407 229.5 226.247 229.5C225.093 229.5 224.156 228.525 224.156 227.324C224.156 226.117 223.219 225.141 222.065 225.141H221.456C220.638 225.141 219.974 224.451 219.974 223.598V222.333C219.974 221.48 220.638 220.79 221.456 220.79H222.065C223.219 220.79 224.156 219.814 224.156 218.614C224.156 217.406 225.093 216.431 226.247 216.431C227.407 216.431 228.344 217.406 228.344 218.614C228.344 219.814 227.407 220.79 226.247 220.79C225.093 220.79 224.156 221.765 224.156 222.966C224.156 224.166 225.093 225.141 226.247 225.141C227.407 225.141 228.344 226.117 228.344 227.324Z"
      fill="white" />
  </g>
  <mask id="mask1_1014_83461" style="mask-type:alpha" maskUnits="userSpaceOnUse" x="215" y="208"
    width="14" height="9">
    <path d="M215.371 208.001H228.344V216.432H215.371V208.001Z" fill="white" />
  </mask>
  <g mask="url(#mask1_1014_83461)">
    <path fill-rule="evenodd" clip-rule="evenodd"
      d="M228.344 209.494V210.726C228.344 211.544 227.652 212.219 226.812 212.219H226.178C224.986 212.219 224.018 213.163 224.018 214.325C224.018 215.488 223.05 216.432 221.858 216.432C220.665 216.432 219.698 215.488 219.698 214.325C219.698 213.163 218.73 212.219 217.531 212.219H216.902C216.063 212.219 215.371 211.544 215.371 210.726V209.494C215.371 208.676 216.063 208.001 216.902 208.001H218.166C219.005 208.001 219.698 208.676 219.698 209.494V210.113C219.698 211.276 220.665 212.219 221.858 212.219C223.05 212.219 224.018 211.276 224.018 210.113V209.494C224.018 208.676 224.71 208.001 225.55 208.001H226.812C227.652 208.001 228.344 208.676 228.344 209.494Z"
      fill="white" />
  </g>
</svg>
