<svg width="402" height="66" viewBox="0 0 402 66" fill="none" xmlns="http://www.w3.org/2000/svg">
  <rect width="402" height="66" rx="8" fill="#1F1D2B" />
  <path
    d="M19.0098 14.6035C19.0371 14.6992 19.0599 14.8906 19.0781 15.1777C19.1009 15.4648 19.1123 15.6745 19.1123 15.8066H19.1396C19.3584 15.3737 19.6501 15.041 20.0146 14.8086C20.3838 14.5762 20.8122 14.46 21.2998 14.46C22.1201 14.46 22.7627 14.804 23.2275 15.4922C23.6969 16.1803 23.9316 17.1123 23.9316 18.2881C23.9316 19.4958 23.6947 20.4391 23.2207 21.1182C22.7513 21.7972 22.0859 22.1367 21.2246 22.1367C20.737 22.1367 20.3132 22.0273 19.9531 21.8086C19.5931 21.5853 19.3174 21.2594 19.126 20.8311H19.1123L19.126 22.0479V24.9053H17.2051V16.2168C17.2051 15.7611 17.1868 15.2233 17.1504 14.6035H19.0098ZM19.0986 18.3359C19.0986 18.8783 19.1579 19.334 19.2764 19.7031C19.3949 20.0677 19.5612 20.348 19.7754 20.5439C19.9941 20.7354 20.2493 20.8311 20.541 20.8311C21.0013 20.8311 21.3477 20.6146 21.5801 20.1816C21.8125 19.7487 21.9287 19.1175 21.9287 18.2881C21.9287 17.4495 21.8079 16.8206 21.5664 16.4014C21.3294 15.9821 20.9922 15.7725 20.5547 15.7725C20.2721 15.7725 20.0192 15.875 19.7959 16.0801C19.5726 16.2806 19.3994 16.57 19.2764 16.9482C19.1579 17.3265 19.0986 17.7891 19.0986 18.3359ZM32.374 18.2949C32.374 19.5208 32.0641 20.4688 31.4443 21.1387C30.8245 21.804 29.9336 22.1367 28.7715 22.1367C27.6504 22.1367 26.7799 21.804 26.1602 21.1387C25.5404 20.4688 25.2305 19.5208 25.2305 18.2949C25.2305 17.0736 25.5381 16.1302 26.1533 15.4648C26.7686 14.7995 27.6549 14.4668 28.8125 14.4668C31.1868 14.4668 32.374 15.7428 32.374 18.2949ZM30.3643 18.2949C30.3643 17.4199 30.248 16.7842 30.0156 16.3877C29.7832 15.9867 29.3913 15.7861 28.8398 15.7861C28.2747 15.7861 27.8669 15.9867 27.6162 16.3877C27.3701 16.7887 27.2471 17.4245 27.2471 18.2949C27.2471 19.1745 27.3724 19.8171 27.623 20.2227C27.8783 20.6237 28.2542 20.8242 28.751 20.8242C29.3161 20.8242 29.7262 20.626 29.9814 20.2295C30.2367 19.8285 30.3643 19.1836 30.3643 18.2949ZM40.5566 19.8398C40.5566 20.5553 40.2627 21.1182 39.6748 21.5283C39.0915 21.9339 38.2826 22.1367 37.248 22.1367C36.2318 22.1367 35.4525 21.9772 34.9102 21.6582C34.3724 21.3346 34.0146 20.8333 33.8369 20.1543L35.5254 19.9014C35.6211 20.2523 35.7852 20.5007 36.0176 20.6465C36.2546 20.7923 36.6647 20.8652 37.248 20.8652C37.7858 20.8652 38.1777 20.7969 38.4238 20.6602C38.6699 20.5234 38.793 20.3092 38.793 20.0176C38.793 19.7806 38.6927 19.5938 38.4922 19.457C38.2962 19.3158 37.9613 19.1973 37.4873 19.1016C36.4027 18.8874 35.6712 18.6891 35.293 18.5068C34.9147 18.32 34.6253 18.0807 34.4248 17.7891C34.2288 17.4928 34.1309 17.1305 34.1309 16.7021C34.1309 15.9958 34.402 15.4466 34.9443 15.0547C35.4912 14.6582 36.2637 14.46 37.2617 14.46C38.1413 14.46 38.8477 14.6309 39.3809 14.9727C39.9186 15.3145 40.2536 15.8089 40.3857 16.4561L38.6836 16.6338C38.6289 16.333 38.4945 16.1097 38.2803 15.9639C38.0661 15.8135 37.7266 15.7383 37.2617 15.7383C36.806 15.7383 36.4642 15.7975 36.2363 15.916C36.0085 16.0299 35.8945 16.2236 35.8945 16.4971C35.8945 16.7113 35.9811 16.8822 36.1543 17.0098C36.332 17.1328 36.6283 17.2354 37.043 17.3174C37.6217 17.4359 38.1344 17.5589 38.5811 17.6865C39.0322 17.8096 39.3923 17.9577 39.6611 18.1309C39.9346 18.304 40.151 18.5273 40.3105 18.8008C40.4746 19.0697 40.5566 19.416 40.5566 19.8398ZM45.6973 22.1367C44.5488 22.1367 43.6624 21.7995 43.0381 21.125C42.4137 20.446 42.1016 19.4935 42.1016 18.2676C42.1016 17.4473 42.2474 16.7546 42.5391 16.1895C42.8353 15.6243 43.2546 15.196 43.7969 14.9043C44.3392 14.6126 44.9818 14.4668 45.7246 14.4668C46.8047 14.4668 47.6432 14.8268 48.2402 15.5469C48.8372 16.2669 49.1357 17.29 49.1357 18.6162V18.6709H44.1182C44.1182 19.3408 44.2663 19.8717 44.5625 20.2637C44.8633 20.6556 45.2734 20.8516 45.793 20.8516C46.1302 20.8516 46.4287 20.7809 46.6885 20.6396C46.9482 20.4938 47.1237 20.2705 47.2148 19.9697L49.0264 20.127C48.7757 20.7695 48.3587 21.2663 47.7754 21.6172C47.1921 21.9635 46.4993 22.1367 45.6973 22.1367ZM45.6973 15.6768C45.2279 15.6768 44.8542 15.8363 44.5762 16.1553C44.2982 16.4697 44.1501 16.9072 44.1318 17.4678H47.2764C47.2445 16.9209 47.0872 16.4857 46.8047 16.1621C46.5267 15.8385 46.1576 15.6768 45.6973 15.6768ZM55.2539 20.7012H57.667V22H50.6328V20.7012H53.333V15.9023H51.3506V14.6035H55.2539V20.7012ZM53.333 13.2705V11.8555H55.2539V13.2705H53.333ZM63.8193 22C63.8011 21.9316 63.7783 21.7607 63.751 21.4873C63.7282 21.2093 63.7168 20.9792 63.7168 20.7969H63.6895C63.4479 21.2845 63.1494 21.6309 62.7939 21.8359C62.4385 22.0365 62.0169 22.1367 61.5293 22.1367C60.7135 22.1367 60.071 21.7949 59.6016 21.1113C59.1322 20.4277 58.8975 19.4958 58.8975 18.3154C58.8975 17.1077 59.1322 16.1667 59.6016 15.4922C60.0755 14.8177 60.7432 14.4805 61.6045 14.4805C62.0921 14.4805 62.516 14.5921 62.876 14.8154C63.236 15.0342 63.5117 15.3577 63.7031 15.7861H63.7168L63.7031 14.5693V11.8555H65.624V20.3867C65.624 20.8424 65.6423 21.3802 65.6787 22H63.8193ZM63.7305 18.2676C63.7305 17.4792 63.6029 16.8685 63.3477 16.4355C63.0924 16.0026 62.7393 15.7861 62.2881 15.7861C61.8324 15.7861 61.486 16.0003 61.249 16.4287C61.0166 16.8525 60.9004 17.4814 60.9004 18.3154C60.9004 19.154 61.0189 19.7829 61.2559 20.2021C61.4974 20.6169 61.8369 20.8242 62.2744 20.8242C62.557 20.8242 62.8099 20.724 63.0332 20.5234C63.2565 20.3184 63.4274 20.0267 63.5459 19.6484C63.6689 19.2702 63.7305 18.8099 63.7305 18.2676ZM74.415 18.2949C74.415 19.5208 74.1051 20.4688 73.4854 21.1387C72.8656 21.804 71.9746 22.1367 70.8125 22.1367C69.6914 22.1367 68.821 21.804 68.2012 21.1387C67.5814 20.4688 67.2715 19.5208 67.2715 18.2949C67.2715 17.0736 67.5791 16.1302 68.1943 15.4648C68.8096 14.7995 69.696 14.4668 70.8535 14.4668C73.2279 14.4668 74.415 15.7428 74.415 18.2949ZM72.4053 18.2949C72.4053 17.4199 72.2891 16.7842 72.0566 16.3877C71.8242 15.9867 71.4323 15.7861 70.8809 15.7861C70.3158 15.7861 69.9079 15.9867 69.6572 16.3877C69.4111 16.7887 69.2881 17.4245 69.2881 18.2949C69.2881 19.1745 69.4134 19.8171 69.6641 20.2227C69.9193 20.6237 70.2952 20.8242 70.792 20.8242C71.3571 20.8242 71.7673 20.626 72.0225 20.2295C72.2777 19.8285 72.4053 19.1836 72.4053 18.2949ZM80.6836 22V17.7686C80.6836 17.126 80.5947 16.6543 80.417 16.3535C80.2438 16.0527 79.943 15.9023 79.5146 15.9023C79.0407 15.9023 78.6602 16.1051 78.373 16.5107C78.0905 16.9118 77.9492 17.4199 77.9492 18.0352V22H76.0283V16.2578C76.0283 15.8613 76.0215 15.5378 76.0078 15.2871C75.9987 15.0319 75.9873 14.804 75.9736 14.6035H77.8057C77.8193 14.6901 77.8376 14.9225 77.8604 15.3008C77.8831 15.6745 77.8945 15.932 77.8945 16.0732H77.9219C78.1816 15.5081 78.5075 15.098 78.8994 14.8428C79.2913 14.5876 79.7585 14.46 80.3008 14.46C81.832 14.46 82.5977 15.4079 82.5977 17.3037V22H80.6836ZM87.8408 24.9053C87.1253 23.8753 86.6081 22.8477 86.2891 21.8223C85.9701 20.7969 85.8105 19.6462 85.8105 18.3701C85.8105 17.0986 85.9701 15.9525 86.2891 14.9316C86.6081 13.9062 87.1253 12.8809 87.8408 11.8555H89.7617C89.0417 12.8945 88.5176 13.929 88.1895 14.959C87.8659 15.9889 87.7041 17.1283 87.7041 18.377C87.7041 19.6211 87.8659 20.7559 88.1895 21.7812C88.513 22.8021 89.0371 23.8434 89.7617 24.9053H87.8408ZM96.1807 11.8555L95.0254 16.1074H92.8037L94.9297 11.8555H96.1807ZM99.3184 11.8555L98.1631 16.1074H95.9414L98.0674 11.8555H99.3184ZM103.146 16.0801C103.406 15.515 103.732 15.1048 104.124 14.8496C104.516 14.5944 104.983 14.4668 105.525 14.4668C106.291 14.4668 106.865 14.6992 107.248 15.1641C107.631 15.6289 107.822 16.3444 107.822 17.3105V22H105.908V17.7549C105.908 17.0667 105.815 16.5882 105.628 16.3193C105.446 16.0459 105.145 15.9092 104.726 15.9092C104.261 15.9092 103.885 16.1097 103.598 16.5107C103.315 16.9072 103.174 17.4176 103.174 18.042V22H101.253V11.8555H103.174V14.624C103.174 15.1208 103.156 15.6061 103.119 16.0801H103.146ZM112.963 22.1367C111.814 22.1367 110.928 21.7995 110.304 21.125C109.679 20.446 109.367 19.4935 109.367 18.2676C109.367 17.4473 109.513 16.7546 109.805 16.1895C110.101 15.6243 110.52 15.196 111.062 14.9043C111.605 14.6126 112.247 14.4668 112.99 14.4668C114.07 14.4668 114.909 14.8268 115.506 15.5469C116.103 16.2669 116.401 17.29 116.401 18.6162V18.6709H111.384C111.384 19.3408 111.532 19.8717 111.828 20.2637C112.129 20.6556 112.539 20.8516 113.059 20.8516C113.396 20.8516 113.694 20.7809 113.954 20.6396C114.214 20.4938 114.389 20.2705 114.48 19.9697L116.292 20.127C116.041 20.7695 115.624 21.2663 115.041 21.6172C114.458 21.9635 113.765 22.1367 112.963 22.1367ZM112.963 15.6768C112.493 15.6768 112.12 15.8363 111.842 16.1553C111.564 16.4697 111.416 16.9072 111.397 17.4678H114.542C114.51 16.9209 114.353 16.4857 114.07 16.1621C113.792 15.8385 113.423 15.6768 112.963 15.6768ZM122.52 20.7012H124.933V22H117.898V20.7012H120.599V13.1543H118.616V11.8555H122.52V20.7012ZM130.928 20.7012H133.341V22H126.307V20.7012H129.007V13.1543H127.024V11.8555H130.928V20.7012ZM141.681 18.2949C141.681 19.5208 141.371 20.4688 140.751 21.1387C140.131 21.804 139.24 22.1367 138.078 22.1367C136.957 22.1367 136.087 21.804 135.467 21.1387C134.847 20.4688 134.537 19.5208 134.537 18.2949C134.537 17.0736 134.845 16.1302 135.46 15.4648C136.075 14.7995 136.962 14.4668 138.119 14.4668C140.493 14.4668 141.681 15.7428 141.681 18.2949ZM139.671 18.2949C139.671 17.4199 139.555 16.7842 139.322 16.3877C139.09 15.9867 138.698 15.7861 138.146 15.7861C137.581 15.7861 137.174 15.9867 136.923 16.3877C136.677 16.7887 136.554 17.4245 136.554 18.2949C136.554 19.1745 136.679 19.8171 136.93 20.2227C137.185 20.6237 137.561 20.8242 138.058 20.8242C138.623 20.8242 139.033 20.626 139.288 20.2295C139.543 19.8285 139.671 19.1836 139.671 18.2949ZM157.752 22H156.084L155.106 18.7803C154.993 18.4157 154.931 18.1833 154.922 18.083C154.917 18.124 154.892 18.2311 154.847 18.4043C154.801 18.5729 154.423 19.7715 153.712 22H152.051L150.8 14.6035H152.358L152.926 18.7529C153.012 19.4456 153.056 19.9606 153.056 20.2979L153.192 19.792L154.266 16.415H155.585L156.542 19.5254C156.61 19.7533 156.676 20.0107 156.74 20.2979C156.74 20.0153 156.763 19.6895 156.809 19.3203C156.854 18.9512 157.087 17.3789 157.506 14.6035H159.051L157.752 22ZM166.905 18.2949C166.905 19.5208 166.595 20.4688 165.976 21.1387C165.356 21.804 164.465 22.1367 163.303 22.1367C162.182 22.1367 161.311 21.804 160.691 21.1387C160.072 20.4688 159.762 19.5208 159.762 18.2949C159.762 17.0736 160.069 16.1302 160.685 15.4648C161.3 14.7995 162.186 14.4668 163.344 14.4668C165.718 14.4668 166.905 15.7428 166.905 18.2949ZM164.896 18.2949C164.896 17.4199 164.779 16.7842 164.547 16.3877C164.314 15.9867 163.923 15.7861 163.371 15.7861C162.806 15.7861 162.398 15.9867 162.147 16.3877C161.901 16.7887 161.778 17.4245 161.778 18.2949C161.778 19.1745 161.904 19.8171 162.154 20.2227C162.41 20.6237 162.785 20.8242 163.282 20.8242C163.847 20.8242 164.257 20.626 164.513 20.2295C164.768 19.8285 164.896 19.1836 164.896 18.2949ZM174.931 16.2031C174.42 16.1165 173.937 16.0732 173.481 16.0732C172.771 16.0732 172.205 16.3421 171.786 16.8799C171.371 17.4176 171.164 18.1263 171.164 19.0059V22H169.25V17.208C169.25 16.8617 169.218 16.4538 169.154 15.9844C169.095 15.515 169.008 15.0547 168.895 14.6035H170.747C170.911 15.196 171.016 15.7155 171.062 16.1621H171.089C171.317 15.5423 171.624 15.1048 172.012 14.8496C172.399 14.5944 172.903 14.4668 173.522 14.4668C173.996 14.4668 174.466 14.5055 174.931 14.583V16.2031ZM181.377 20.7012H183.79V22H176.756V20.7012H179.456V13.1543H177.474V11.8555H181.377V20.7012ZM189.942 22C189.924 21.9316 189.901 21.7607 189.874 21.4873C189.851 21.2093 189.84 20.9792 189.84 20.7969H189.812C189.571 21.2845 189.272 21.6309 188.917 21.8359C188.562 22.0365 188.14 22.1367 187.652 22.1367C186.837 22.1367 186.194 21.7949 185.725 21.1113C185.255 20.4277 185.021 19.4958 185.021 18.3154C185.021 17.1077 185.255 16.1667 185.725 15.4922C186.199 14.8177 186.866 14.4805 187.728 14.4805C188.215 14.4805 188.639 14.5921 188.999 14.8154C189.359 15.0342 189.635 15.3577 189.826 15.7861H189.84L189.826 14.5693V11.8555H191.747V20.3867C191.747 20.8424 191.765 21.3802 191.802 22H189.942ZM189.854 18.2676C189.854 17.4792 189.726 16.8685 189.471 16.4355C189.215 16.0026 188.862 15.7861 188.411 15.7861C187.955 15.7861 187.609 16.0003 187.372 16.4287C187.14 16.8525 187.023 17.4814 187.023 18.3154C187.023 19.154 187.142 19.7829 187.379 20.2021C187.62 20.6169 187.96 20.8242 188.397 20.8242C188.68 20.8242 188.933 20.724 189.156 20.5234C189.38 20.3184 189.55 20.0267 189.669 19.6484C189.792 19.2702 189.854 18.8099 189.854 18.2676ZM196.847 16.1074L198.002 11.8555H200.224L198.098 16.1074H196.847ZM193.709 16.1074L194.864 11.8555H197.086L194.96 16.1074H193.709ZM203.272 24.9053C204.002 23.8389 204.526 22.7975 204.845 21.7812C205.168 20.7604 205.33 19.6257 205.33 18.377C205.33 17.1237 205.166 15.9821 204.838 14.9521C204.51 13.9176 203.988 12.8854 203.272 11.8555H205.193C205.913 12.89 206.431 13.9199 206.745 14.9453C207.064 15.9707 207.224 17.1123 207.224 18.3701C207.224 19.637 207.064 20.7832 206.745 21.8086C206.431 22.834 205.913 23.8662 205.193 24.9053H203.272ZM218.681 16.2441V14.7197H225.701V16.2441H218.681ZM218.681 20.0107V18.5H225.701V20.0107H218.681ZM227.089 21.1455V19.5938L232.776 17.3789L227.089 15.1572V13.5986L234.109 16.2715V18.4727L227.089 21.1455Z"
    fill="white" />
  <path
    d="M252.614 18.5C252.614 20.694 250.846 22.4586 248.682 22.4586C246.518 22.4586 244.75 20.694 244.75 18.5C244.75 16.306 246.518 14.5414 248.682 14.5414C250.846 14.5414 252.614 16.306 252.614 18.5Z"
    fill="#181F2B" stroke="#B8D6FF" stroke-width="3.5" />
  <path
    d="M18.8262 43.6035C18.8535 43.6992 18.8763 43.8906 18.8945 44.1777C18.9173 44.4648 18.9287 44.6745 18.9287 44.8066H18.9561C19.1748 44.3737 19.4665 44.041 19.8311 43.8086C20.2002 43.5762 20.6286 43.46 21.1162 43.46C21.9365 43.46 22.5791 43.804 23.0439 44.4922C23.5133 45.1803 23.748 46.1123 23.748 47.2881C23.748 48.4958 23.5111 49.4391 23.0371 50.1182C22.5677 50.7972 21.9023 51.1367 21.041 51.1367C20.5534 51.1367 20.1296 51.0273 19.7695 50.8086C19.4095 50.5853 19.1338 50.2594 18.9424 49.8311H18.9287L18.9424 51.0479V53.9053H17.0215V45.2168C17.0215 44.7611 17.0033 44.2233 16.9668 43.6035H18.8262ZM18.915 47.3359C18.915 47.8783 18.9743 48.334 19.0928 48.7031C19.2113 49.0677 19.3776 49.348 19.5918 49.5439C19.8105 49.7354 20.0658 49.8311 20.3574 49.8311C20.8177 49.8311 21.1641 49.6146 21.3965 49.1816C21.6289 48.7487 21.7451 48.1175 21.7451 47.2881C21.7451 46.4495 21.6243 45.8206 21.3828 45.4014C21.1458 44.9821 20.8086 44.7725 20.3711 44.7725C20.0885 44.7725 19.8356 44.875 19.6123 45.0801C19.389 45.2806 19.2158 45.57 19.0928 45.9482C18.9743 46.3265 18.915 46.7891 18.915 47.3359ZM32.1904 47.2949C32.1904 48.5208 31.8805 49.4688 31.2607 50.1387C30.641 50.804 29.75 51.1367 28.5879 51.1367C27.4668 51.1367 26.5964 50.804 25.9766 50.1387C25.3568 49.4688 25.0469 48.5208 25.0469 47.2949C25.0469 46.0736 25.3545 45.1302 25.9697 44.4648C26.585 43.7995 27.4714 43.4668 28.6289 43.4668C31.0033 43.4668 32.1904 44.7428 32.1904 47.2949ZM30.1807 47.2949C30.1807 46.4199 30.0645 45.7842 29.832 45.3877C29.5996 44.9867 29.2077 44.7861 28.6562 44.7861C28.0911 44.7861 27.6833 44.9867 27.4326 45.3877C27.1865 45.7887 27.0635 46.4245 27.0635 47.2949C27.0635 48.1745 27.1888 48.8171 27.4395 49.2227C27.6947 49.6237 28.0706 49.8242 28.5674 49.8242C29.1325 49.8242 29.5426 49.626 29.7979 49.2295C30.0531 48.8285 30.1807 48.1836 30.1807 47.2949ZM40.373 48.8398C40.373 49.5553 40.0791 50.1182 39.4912 50.5283C38.9079 50.9339 38.099 51.1367 37.0645 51.1367C36.0482 51.1367 35.2689 50.9772 34.7266 50.6582C34.1888 50.3346 33.8311 49.8333 33.6533 49.1543L35.3418 48.9014C35.4375 49.2523 35.6016 49.5007 35.834 49.6465C36.071 49.7923 36.4811 49.8652 37.0645 49.8652C37.6022 49.8652 37.9941 49.7969 38.2402 49.6602C38.4863 49.5234 38.6094 49.3092 38.6094 49.0176C38.6094 48.7806 38.5091 48.5938 38.3086 48.457C38.1126 48.3158 37.7777 48.1973 37.3037 48.1016C36.2191 47.8874 35.4876 47.6891 35.1094 47.5068C34.7311 47.32 34.4417 47.0807 34.2412 46.7891C34.0452 46.4928 33.9473 46.1305 33.9473 45.7021C33.9473 44.9958 34.2184 44.4466 34.7607 44.0547C35.3076 43.6582 36.0801 43.46 37.0781 43.46C37.9577 43.46 38.6641 43.6309 39.1973 43.9727C39.735 44.3145 40.07 44.8089 40.2021 45.4561L38.5 45.6338C38.4453 45.333 38.3109 45.1097 38.0967 44.9639C37.8825 44.8135 37.543 44.7383 37.0781 44.7383C36.6224 44.7383 36.2806 44.7975 36.0527 44.916C35.8249 45.0299 35.7109 45.2236 35.7109 45.4971C35.7109 45.7113 35.7975 45.8822 35.9707 46.0098C36.1484 46.1328 36.4447 46.2354 36.8594 46.3174C37.4382 46.4359 37.9508 46.5589 38.3975 46.6865C38.8486 46.8096 39.2087 46.9577 39.4775 47.1309C39.751 47.304 39.9674 47.5273 40.127 47.8008C40.291 48.0697 40.373 48.416 40.373 48.8398ZM45.5137 51.1367C44.3652 51.1367 43.4788 50.7995 42.8545 50.125C42.2301 49.446 41.918 48.4935 41.918 47.2676C41.918 46.4473 42.0638 45.7546 42.3555 45.1895C42.6517 44.6243 43.071 44.196 43.6133 43.9043C44.1556 43.6126 44.7982 43.4668 45.541 43.4668C46.6211 43.4668 47.4596 43.8268 48.0566 44.5469C48.6536 45.2669 48.9521 46.29 48.9521 47.6162V47.6709H43.9346C43.9346 48.3408 44.0827 48.8717 44.3789 49.2637C44.6797 49.6556 45.0898 49.8516 45.6094 49.8516C45.9466 49.8516 46.2451 49.7809 46.5049 49.6396C46.7646 49.4938 46.9401 49.2705 47.0312 48.9697L48.8428 49.127C48.5921 49.7695 48.1751 50.2663 47.5918 50.6172C47.0085 50.9635 46.3158 51.1367 45.5137 51.1367ZM45.5137 44.6768C45.0443 44.6768 44.6706 44.8363 44.3926 45.1553C44.1146 45.4697 43.9665 45.9072 43.9482 46.4678H47.0928C47.0609 45.9209 46.9036 45.4857 46.6211 45.1621C46.3431 44.8385 45.974 44.6768 45.5137 44.6768ZM55.0703 49.7012H57.4834V51H50.4492V49.7012H53.1494V44.9023H51.167V43.6035H55.0703V49.7012ZM53.1494 42.2705V40.8555H55.0703V42.2705H53.1494ZM63.6357 51C63.6175 50.9316 63.5947 50.7607 63.5674 50.4873C63.5446 50.2093 63.5332 49.9792 63.5332 49.7969H63.5059C63.2643 50.2845 62.9658 50.6309 62.6104 50.8359C62.2549 51.0365 61.8333 51.1367 61.3457 51.1367C60.5299 51.1367 59.8874 50.7949 59.418 50.1113C58.9486 49.4277 58.7139 48.4958 58.7139 47.3154C58.7139 46.1077 58.9486 45.1667 59.418 44.4922C59.8919 43.8177 60.5596 43.4805 61.4209 43.4805C61.9085 43.4805 62.3324 43.5921 62.6924 43.8154C63.0524 44.0342 63.3281 44.3577 63.5195 44.7861H63.5332L63.5195 43.5693V40.8555H65.4404V49.3867C65.4404 49.8424 65.4587 50.3802 65.4951 51H63.6357ZM63.5469 47.2676C63.5469 46.4792 63.4193 45.8685 63.1641 45.4355C62.9089 45.0026 62.5557 44.7861 62.1045 44.7861C61.6488 44.7861 61.3024 45.0003 61.0654 45.4287C60.833 45.8525 60.7168 46.4814 60.7168 47.3154C60.7168 48.154 60.8353 48.7829 61.0723 49.2021C61.3138 49.6169 61.6533 49.8242 62.0908 49.8242C62.3734 49.8242 62.6263 49.724 62.8496 49.5234C63.0729 49.3184 63.2438 49.0267 63.3623 48.6484C63.4854 48.2702 63.5469 47.8099 63.5469 47.2676ZM74.2314 47.2949C74.2314 48.5208 73.9215 49.4688 73.3018 50.1387C72.682 50.804 71.791 51.1367 70.6289 51.1367C69.5078 51.1367 68.6374 50.804 68.0176 50.1387C67.3978 49.4688 67.0879 48.5208 67.0879 47.2949C67.0879 46.0736 67.3955 45.1302 68.0107 44.4648C68.626 43.7995 69.5124 43.4668 70.6699 43.4668C73.0443 43.4668 74.2314 44.7428 74.2314 47.2949ZM72.2217 47.2949C72.2217 46.4199 72.1055 45.7842 71.873 45.3877C71.6406 44.9867 71.2487 44.7861 70.6973 44.7861C70.1322 44.7861 69.7243 44.9867 69.4736 45.3877C69.2275 45.7887 69.1045 46.4245 69.1045 47.2949C69.1045 48.1745 69.2298 48.8171 69.4805 49.2227C69.7357 49.6237 70.1117 49.8242 70.6084 49.8242C71.1735 49.8242 71.5837 49.626 71.8389 49.2295C72.0941 48.8285 72.2217 48.1836 72.2217 47.2949ZM80.5 51V46.7686C80.5 46.126 80.4111 45.6543 80.2334 45.3535C80.0602 45.0527 79.7594 44.9023 79.3311 44.9023C78.8571 44.9023 78.4766 45.1051 78.1895 45.5107C77.9069 45.9118 77.7656 46.4199 77.7656 47.0352V51H75.8447V45.2578C75.8447 44.8613 75.8379 44.5378 75.8242 44.2871C75.8151 44.0319 75.8037 43.804 75.79 43.6035H77.6221C77.6357 43.6901 77.654 43.9225 77.6768 44.3008C77.6995 44.6745 77.7109 44.932 77.7109 45.0732H77.7383C77.998 44.5081 78.3239 44.098 78.7158 43.8428C79.1077 43.5876 79.5749 43.46 80.1172 43.46C81.6484 43.46 82.4141 44.4079 82.4141 46.3037V51H80.5ZM87.6572 53.9053C86.9417 52.8753 86.4245 51.8477 86.1055 50.8223C85.7865 49.7969 85.627 48.6462 85.627 47.3701C85.627 46.0986 85.7865 44.9525 86.1055 43.9316C86.4245 42.9062 86.9417 41.8809 87.6572 40.8555H89.5781C88.8581 41.8945 88.334 42.929 88.0059 43.959C87.6823 44.9889 87.5205 46.1283 87.5205 47.377C87.5205 48.6211 87.6823 49.7559 88.0059 50.7812C88.3294 51.8021 88.8535 52.8434 89.5781 53.9053H87.6572ZM95.9971 40.8555L94.8418 45.1074H92.6201L94.7461 40.8555H95.9971ZM99.1348 40.8555L97.9795 45.1074H95.7578L97.8838 40.8555H99.1348ZM104.556 44.9023V51H102.642V44.9023H100.892V43.6035H102.642V43.0361C102.642 42.2432 102.89 41.6484 103.387 41.252C103.888 40.8509 104.601 40.6504 105.526 40.6504C106.251 40.6504 106.996 40.7142 107.762 40.8418V42.0996C107.078 42.013 106.445 41.9697 105.861 41.9697C105.415 41.9697 105.084 42.0632 104.87 42.25C104.66 42.4323 104.556 42.7536 104.556 43.2139V43.6035H107.584V44.9023H104.556ZM116.272 47.2949C116.272 48.5208 115.963 49.4688 115.343 50.1387C114.723 50.804 113.832 51.1367 112.67 51.1367C111.549 51.1367 110.678 50.804 110.059 50.1387C109.439 49.4688 109.129 48.5208 109.129 47.2949C109.129 46.0736 109.437 45.1302 110.052 44.4648C110.667 43.7995 111.553 43.4668 112.711 43.4668C115.085 43.4668 116.272 44.7428 116.272 47.2949ZM114.263 47.2949C114.263 46.4199 114.146 45.7842 113.914 45.3877C113.682 44.9867 113.29 44.7861 112.738 44.7861C112.173 44.7861 111.765 44.9867 111.515 45.3877C111.269 45.7887 111.146 46.4245 111.146 47.2949C111.146 48.1745 111.271 48.8171 111.521 49.2227C111.777 49.6237 112.153 49.8242 112.649 49.8242C113.215 49.8242 113.625 49.626 113.88 49.2295C114.135 48.8285 114.263 48.1836 114.263 47.2949ZM124.681 47.2949C124.681 48.5208 124.371 49.4688 123.751 50.1387C123.131 50.804 122.24 51.1367 121.078 51.1367C119.957 51.1367 119.087 50.804 118.467 50.1387C117.847 49.4688 117.537 48.5208 117.537 47.2949C117.537 46.0736 117.845 45.1302 118.46 44.4648C119.075 43.7995 119.962 43.4668 121.119 43.4668C123.493 43.4668 124.681 44.7428 124.681 47.2949ZM122.671 47.2949C122.671 46.4199 122.555 45.7842 122.322 45.3877C122.09 44.9867 121.698 44.7861 121.146 44.7861C120.581 44.7861 120.174 44.9867 119.923 45.3877C119.677 45.7887 119.554 46.4245 119.554 47.2949C119.554 48.1745 119.679 48.8171 119.93 49.2227C120.185 49.6237 120.561 49.8242 121.058 49.8242C121.623 49.8242 122.033 49.626 122.288 49.2295C122.543 48.8285 122.671 48.1836 122.671 47.2949ZM134.682 51C134.718 50.3802 134.736 49.8424 134.736 49.3867V40.8555H136.657V43.5488L136.644 44.7656H136.657C136.844 44.3509 137.124 44.0296 137.498 43.8018C137.876 43.5739 138.318 43.46 138.824 43.46C139.672 43.46 140.324 43.7949 140.779 44.4648C141.235 45.1348 141.463 46.0827 141.463 47.3086C141.463 48.4661 141.221 49.3936 140.738 50.0908C140.255 50.7881 139.597 51.1367 138.763 51.1367C138.289 51.1367 137.872 51.0251 137.512 50.8018C137.156 50.5739 136.876 50.2389 136.671 49.7969H136.644C136.644 49.9473 136.632 50.1569 136.609 50.4258C136.591 50.6901 136.568 50.8815 136.541 51H134.682ZM136.63 47.2607C136.63 47.8076 136.689 48.2702 136.808 48.6484C136.931 49.0267 137.102 49.3184 137.32 49.5234C137.544 49.724 137.799 49.8242 138.086 49.8242C138.523 49.8242 138.861 49.6146 139.098 49.1953C139.339 48.776 139.46 48.1471 139.46 47.3086C139.46 46.4746 139.341 45.8434 139.104 45.415C138.872 44.9821 138.528 44.7656 138.072 44.7656C137.626 44.7656 137.272 44.9844 137.013 45.4219C136.757 45.8594 136.63 46.4723 136.63 47.2607ZM145.134 51.1367C144.418 51.1367 143.86 50.943 143.459 50.5557C143.058 50.1637 142.857 49.6146 142.857 48.9082C142.857 48.1426 143.094 47.5615 143.568 47.165C144.047 46.764 144.76 46.5566 145.708 46.543L147.232 46.5156V46.1396C147.232 45.6702 147.153 45.3148 146.993 45.0732C146.834 44.8317 146.576 44.7109 146.221 44.7109C145.888 44.7109 145.642 44.7952 145.482 44.9639C145.327 45.1279 145.232 45.3923 145.195 45.7568L143.192 45.6611C143.438 44.1982 144.475 43.4668 146.303 43.4668C147.223 43.4668 147.927 43.6924 148.415 44.1436C148.907 44.5947 149.153 45.2578 149.153 46.1328V48.8125C149.153 49.2272 149.199 49.5143 149.29 49.6738C149.386 49.8288 149.543 49.9062 149.762 49.9062C149.908 49.9062 150.049 49.8926 150.186 49.8652V50.9043C150.072 50.9316 149.969 50.9567 149.878 50.9795C149.787 51.0023 149.696 51.0205 149.604 51.0342C149.513 51.0479 149.415 51.0592 149.311 51.0684C149.21 51.0775 149.092 51.082 148.955 51.082C148.472 51.082 148.114 50.9635 147.882 50.7266C147.654 50.4896 147.517 50.141 147.472 49.6807H147.431C147.144 50.1956 146.815 50.5671 146.446 50.7949C146.082 51.0228 145.644 51.1367 145.134 51.1367ZM147.232 47.5752L146.316 47.5889C145.906 47.598 145.608 47.6413 145.421 47.7188C145.239 47.7917 145.1 47.9124 145.004 48.0811C144.908 48.2451 144.86 48.4707 144.86 48.7578C144.86 49.4505 145.134 49.7969 145.681 49.7969C146.123 49.7969 146.492 49.6237 146.788 49.2773C147.084 48.9264 147.232 48.4844 147.232 47.9512V47.5752ZM157.931 45.2031C157.42 45.1165 156.937 45.0732 156.481 45.0732C155.771 45.0732 155.205 45.3421 154.786 45.8799C154.371 46.4176 154.164 47.1263 154.164 48.0059V51H152.25V46.208C152.25 45.8617 152.218 45.4538 152.154 44.9844C152.095 44.515 152.008 44.0547 151.895 43.6035H153.747C153.911 44.196 154.016 44.7155 154.062 45.1621H154.089C154.317 44.5423 154.624 44.1048 155.012 43.8496C155.399 43.5944 155.903 43.4668 156.522 43.4668C156.996 43.4668 157.466 43.5055 157.931 43.583V45.2031ZM163.03 45.1074L164.186 40.8555H166.407L164.281 45.1074H163.03ZM159.893 45.1074L161.048 40.8555H163.27L161.144 45.1074H159.893ZM169.456 53.9053C170.185 52.8389 170.709 51.7975 171.028 50.7812C171.352 49.7604 171.514 48.6257 171.514 47.377C171.514 46.1237 171.35 44.9821 171.021 43.9521C170.693 42.9176 170.172 41.8854 169.456 40.8555H171.377C172.097 41.89 172.614 42.9199 172.929 43.9453C173.248 44.9707 173.407 46.1123 173.407 47.3701C173.407 48.637 173.248 49.7832 172.929 50.8086C172.614 51.834 172.097 52.8662 171.377 53.9053H169.456ZM184.864 45.2441V43.7197H191.885V45.2441H184.864ZM184.864 49.0107V47.5H191.885V49.0107H184.864ZM193.272 50.1455V48.5938L198.96 46.3789L193.272 44.1572V42.5986L200.293 45.2715V47.4727L193.272 50.1455Z"
    fill="white" />
  <path
    d="M217.614 47.5C217.614 49.694 215.846 51.4586 213.682 51.4586C211.518 51.4586 209.75 49.694 209.75 47.5C209.75 45.306 211.518 43.5414 213.682 43.5414C215.846 43.5414 217.614 45.306 217.614 47.5Z"
    fill="#0C270F" stroke="#FFBDE9" stroke-width="3.5" />
</svg>
