<svg width="439" height="435" viewBox="0 0 439 435" fill="none" xmlns="http://www.w3.org/2000/svg">
  <path fill-rule="evenodd" clip-rule="evenodd"
    d="M271.969 249.819V260.112C271.969 266.957 266.182 272.594 259.163 272.594H248.613C241.589 272.594 235.802 266.957 235.802 260.112V254.992C235.802 245.221 227.711 237.327 217.745 237.327C207.785 237.327 199.694 245.221 199.694 254.992C199.694 264.71 191.598 272.594 181.579 272.594C171.618 272.594 163.527 264.71 163.527 254.992C163.527 245.221 171.618 237.327 181.579 237.327C191.598 237.327 199.694 229.442 199.694 219.724V214.604C199.694 207.702 205.422 202.117 212.494 202.117H222.996C230.074 202.117 235.802 207.702 235.802 214.604V219.724C235.802 229.442 243.898 237.327 253.858 237.327H259.163C266.182 237.327 271.969 242.969 271.969 249.819Z"
    fill="#1F1D2B" />
  <path fill-rule="evenodd" clip-rule="evenodd"
    d="M163.528 188.275L163.528 177.982C163.528 171.138 169.314 165.5 176.333 165.5L186.883 165.5C193.908 165.5 199.694 171.138 199.694 177.982L199.694 183.103C199.694 192.873 207.785 200.768 217.751 200.768C227.711 200.768 235.802 192.873 235.802 183.103C235.802 173.384 243.898 165.5 253.918 165.5C263.878 165.5 271.969 173.384 271.969 183.103C271.969 192.873 263.878 200.768 253.918 200.768C243.898 200.768 235.802 208.652 235.802 218.37L235.802 223.49C235.802 230.392 230.074 235.978 223.002 235.978L212.5 235.978C205.422 235.978 199.694 230.392 199.694 223.49L199.694 218.37C199.694 208.652 191.598 200.768 181.638 200.768L176.333 200.768C169.314 200.768 163.528 195.125 163.528 188.275Z"
    fill="#1F1D2B" />
  <rect x="3.61523" y="0.703125" width="203.844" height="204.797" rx="8" fill="#1F1D2B" />
  <rect x="32.7466" y="29.9709" width="145.581" height="146.261" rx="8" fill="#2B2F40" />
  <path d="M98.4311 146.639L70.376 103.468" stroke="white" />
  <path d="M189.958 8.27954V17.1514L197.457 20.5021L189.958 8.27954Z" fill="#F7F8F7" />
  <path d="M189.959 8.27954L182.459 20.5021L189.959 17.1514V8.27954Z" fill="white" />
  <path d="M189.958 26.2513V32.2795L197.462 21.8983L189.958 26.2513Z" fill="#F7F8F7" />
  <path d="M189.959 32.2795V26.2503L182.459 21.8983L189.959 32.2795Z" fill="white" />
  <path d="M189.958 24.8561L197.457 20.5021L189.958 17.1534V24.8561Z" fill="#E2E5EB" />
  <path d="M182.459 20.5021L189.959 24.8561V17.1534L182.459 20.5021Z" fill="#F7F8F7" />
  <path d="M62.209 146.283L54.041 129.87" stroke="white" />
  <path d="M78.9009 146.639L87.0688 131.297" stroke="white" />
  <path d="M44.0967 146.996L105.889 42.8137L166.971 146.996" stroke="white" />
  <ellipse cx="69.665" cy="103.468" rx="5.68206" ry="5.70862" fill="#5093ED" />
  <ellipse cx="142.113" cy="103.468" rx="5.68206" ry="5.70862" fill="white" />
  <ellipse cx="54.0409" cy="130.584" rx="5.68206" ry="5.70862" fill="#81B3F6" />
  <ellipse cx="87.7773" cy="130.584" rx="5.68206" ry="5.70862" fill="#81B3F6" />
  <ellipse cx="124.356" cy="130.584" rx="5.68206" ry="5.70862" fill="white" />
  <ellipse cx="156.673" cy="130.584" rx="5.68206" ry="5.70862" fill="white" />
  <ellipse cx="44.8071" cy="145.569" rx="5.68206" ry="5.70862" fill="#B8D6FF" />
  <ellipse cx="62.8071" cy="145.569" rx="5.68206" ry="5.70862" fill="#B8D6FF" />
  <ellipse cx="79.3207" cy="145.569" rx="5.68206" ry="5.70862" fill="#B8D6FF" />
  <ellipse cx="98.0761" cy="145.569" rx="5.68206" ry="5.70862" fill="#B8D6FF" />
  <ellipse cx="115.833" cy="145.569" rx="5.68206" ry="5.70862" fill="white" />
  <ellipse cx="132.168" cy="145.569" rx="5.68206" ry="5.70862" fill="white" />
  <ellipse cx="148.504" cy="145.569" rx="5.68206" ry="5.70862" fill="white" />
  <ellipse cx="166.26" cy="145.569" rx="5.68206" ry="5.70862" fill="white" />
  <path d="M115.479 146.282L141.758 104.181" stroke="white" />
  <path d="M132.701 146.639L124.533 130.227" stroke="white" />
  <path d="M147.795 146.639L155.963 131.297" stroke="white" />
  <path
    d="M44.3096 48.4358C43.4919 48.4358 42.8538 48.2144 42.3955 47.7717C41.9372 47.3238 41.708 46.6962 41.708 45.8889C41.708 45.0139 41.9788 44.3499 42.5205 43.8967C43.0674 43.4384 43.8825 43.2014 44.9658 43.1858L46.708 43.1545V42.7249C46.708 42.1884 46.6169 41.7821 46.4346 41.5061C46.2523 41.2301 45.958 41.092 45.5518 41.092C45.1715 41.092 44.8903 41.1884 44.708 41.3811C44.5309 41.5686 44.4215 41.8707 44.3799 42.2874L42.0908 42.178C42.3721 40.5061 43.557 39.6702 45.6455 39.6702C46.6976 39.6702 47.5023 39.928 48.0596 40.4436C48.6221 40.9592 48.9033 41.717 48.9033 42.717V45.7795C48.9033 46.2535 48.9554 46.5816 49.0596 46.7639C49.1689 46.941 49.3486 47.0295 49.5986 47.0295C49.7653 47.0295 49.9268 47.0139 50.083 46.9827V48.1702C49.9528 48.2014 49.8356 48.2301 49.7314 48.2561C49.6273 48.2821 49.5231 48.303 49.4189 48.3186C49.3148 48.3342 49.2028 48.3472 49.083 48.3577C48.9684 48.3681 48.833 48.3733 48.6768 48.3733C48.1247 48.3733 47.7158 48.2379 47.4502 47.967C47.1898 47.6962 47.0335 47.2978 46.9814 46.7717H46.9346C46.6064 47.3603 46.2314 47.7847 45.8096 48.0452C45.3929 48.3056 44.8929 48.4358 44.3096 48.4358ZM46.708 44.3655L45.6611 44.3811C45.1924 44.3915 44.8512 44.441 44.6377 44.5295C44.4294 44.6129 44.2705 44.7509 44.1611 44.9436C44.0518 45.1311 43.9971 45.3889 43.9971 45.717C43.9971 46.5087 44.3096 46.9045 44.9346 46.9045C45.4398 46.9045 45.8617 46.7066 46.2002 46.3108C46.5387 45.9097 46.708 45.4045 46.708 44.7952V44.3655Z"
    fill="white" />
  <rect x="3.61523" y="0.703125" width="203.844" height="204.797" rx="8" fill="#1F1D2B" />
  <rect x="32.7466" y="29.9709" width="145.581" height="146.261" rx="8" fill="#2B2F40" />
  <path d="M98.4311 146.639L70.376 103.468" stroke="white" />
  <path d="M189.958 8.27954V17.1514L197.457 20.5021L189.958 8.27954Z" fill="#5C96E4" />
  <path d="M189.959 8.27954L182.459 20.5021L189.959 17.1514V8.27954Z" fill="#3D7BCE" />
  <path d="M189.958 26.2513V32.2795L197.462 21.8983L189.958 26.2513Z" fill="#5C96E4" />
  <path d="M189.959 32.2795V26.2503L182.459 21.8983L189.959 32.2795Z" fill="#3D7BCE" />
  <path d="M189.958 24.8561L197.457 20.5021L189.958 17.1534V24.8561Z" fill="#83B7FC" />
  <path d="M182.459 20.5021L189.959 24.8561V17.1534L182.459 20.5021Z" fill="#5C96E4" />
  <path d="M62.209 146.283L54.041 129.87" stroke="white" />
  <path d="M78.9009 146.639L87.0688 131.297" stroke="white" />
  <path d="M44.0967 146.996L105.889 42.8137L166.971 146.996" stroke="white" />
  <ellipse cx="69.665" cy="103.468" rx="5.68206" ry="5.70862" fill="#5093ED" />
  <ellipse cx="142.113" cy="103.468" rx="5.68206" ry="5.70862" fill="white" />
  <ellipse cx="54.0409" cy="130.584" rx="5.68206" ry="5.70862" fill="#81B3F6" />
  <ellipse cx="87.7773" cy="130.584" rx="5.68206" ry="5.70862" fill="#81B3F6" />
  <ellipse cx="124.356" cy="130.584" rx="5.68206" ry="5.70862" fill="white" />
  <ellipse cx="156.673" cy="130.584" rx="5.68206" ry="5.70862" fill="white" />
  <ellipse cx="44.8071" cy="145.569" rx="5.68206" ry="5.70862" fill="#B8D6FF" />
  <ellipse cx="62.8071" cy="145.569" rx="5.68206" ry="5.70862" fill="#B8D6FF" />
  <ellipse cx="79.3207" cy="145.569" rx="5.68206" ry="5.70862" fill="#B8D6FF" />
  <ellipse cx="98.0761" cy="145.569" rx="5.68206" ry="5.70862" fill="#B8D6FF" />
  <ellipse cx="115.833" cy="145.569" rx="5.68206" ry="5.70862" fill="white" />
  <ellipse cx="132.168" cy="145.569" rx="5.68206" ry="5.70862" fill="white" />
  <ellipse cx="148.504" cy="145.569" rx="5.68206" ry="5.70862" fill="white" />
  <ellipse cx="166.26" cy="145.569" rx="5.68206" ry="5.70862" fill="white" />
  <path d="M115.479 146.282L141.758 104.181" stroke="white" />
  <path d="M132.701 146.639L124.533 130.227" stroke="white" />
  <path d="M147.795 146.639L155.963 131.297" stroke="white" />
  <path
    d="M44.3096 48.4358C43.4919 48.4358 42.8538 48.2144 42.3955 47.7717C41.9372 47.3238 41.708 46.6962 41.708 45.8889C41.708 45.0139 41.9788 44.3499 42.5205 43.8967C43.0674 43.4384 43.8825 43.2014 44.9658 43.1858L46.708 43.1545V42.7249C46.708 42.1884 46.6169 41.7821 46.4346 41.5061C46.2523 41.2301 45.958 41.092 45.5518 41.092C45.1715 41.092 44.8903 41.1884 44.708 41.3811C44.5309 41.5686 44.4215 41.8707 44.3799 42.2874L42.0908 42.178C42.3721 40.5061 43.557 39.6702 45.6455 39.6702C46.6976 39.6702 47.5023 39.928 48.0596 40.4436C48.6221 40.9592 48.9033 41.717 48.9033 42.717V45.7795C48.9033 46.2535 48.9554 46.5816 49.0596 46.7639C49.1689 46.941 49.3486 47.0295 49.5986 47.0295C49.7653 47.0295 49.9268 47.0139 50.083 46.9827V48.1702C49.9528 48.2014 49.8356 48.2301 49.7314 48.2561C49.6273 48.2821 49.5231 48.303 49.4189 48.3186C49.3148 48.3342 49.2028 48.3472 49.083 48.3577C48.9684 48.3681 48.833 48.3733 48.6768 48.3733C48.1247 48.3733 47.7158 48.2379 47.4502 47.967C47.1898 47.6962 47.0335 47.2978 46.9814 46.7717H46.9346C46.6064 47.3603 46.2314 47.7847 45.8096 48.0452C45.3929 48.3056 44.8929 48.4358 44.3096 48.4358ZM46.708 44.3655L45.6611 44.3811C45.1924 44.3915 44.8512 44.441 44.6377 44.5295C44.4294 44.6129 44.2705 44.7509 44.1611 44.9436C44.0518 45.1311 43.9971 45.3889 43.9971 45.717C43.9971 46.5087 44.3096 46.9045 44.9346 46.9045C45.4398 46.9045 45.8617 46.7066 46.2002 46.3108C46.5387 45.9097 46.708 45.4045 46.708 44.7952V44.3655Z"
    fill="white" />
  <path
    d="M17.4424 188.263H16.1377V186.779H17.5518L18.2393 184.576H19.6143V186.779H22.6221V188.263H19.6143V192.404C19.6143 192.862 19.6559 193.172 19.7393 193.333C19.8278 193.49 19.9684 193.615 20.1611 193.708C20.3538 193.797 20.6247 193.841 20.9736 193.841C21.6195 193.841 22.2835 193.771 22.9658 193.63V195.083C22.2262 195.203 21.7028 195.274 21.3955 195.294C21.0882 195.32 20.7679 195.333 20.4346 195.333C19.7731 195.333 19.2184 195.245 18.7705 195.068C18.3278 194.886 17.9919 194.604 17.7627 194.224C17.5387 193.839 17.4268 193.3 17.4268 192.607L17.4424 188.263ZM30.6924 193.748H33.4502V195.232H25.4111V193.748H28.4971V188.263H26.2314V186.779H30.6924V193.748ZM28.4971 185.255V183.638H30.6924V185.255H28.4971ZM38.0127 195.232V190.091C38.0127 189.315 37.9632 188.776 37.8643 188.474C37.7705 188.172 37.5934 188.021 37.333 188.021C37.0674 188.021 36.8564 188.266 36.7002 188.755C36.5492 189.245 36.4736 189.888 36.4736 190.685V195.232H34.6846V188.583C34.6846 187.599 34.6689 186.998 34.6377 186.779H36.2705L36.3174 187.771V188.146H36.333C36.5101 187.615 36.734 187.229 37.0049 186.99C37.2757 186.745 37.6143 186.623 38.0205 186.623C38.4788 186.623 38.82 186.748 39.0439 186.998C39.2731 187.248 39.4372 187.633 39.5361 188.154H39.5518C39.7601 187.602 40.0075 187.208 40.2939 186.974C40.5856 186.74 40.9528 186.623 41.3955 186.623C42.0101 186.623 42.4502 186.847 42.7158 187.294C42.9814 187.742 43.1143 188.511 43.1143 189.599V195.232H41.333V190.091C41.333 189.315 41.2835 188.776 41.1846 188.474C41.0908 188.172 40.9137 188.021 40.6533 188.021C40.3877 188.021 40.1768 188.232 40.0205 188.654C39.8695 189.07 39.7939 189.698 39.7939 190.537V195.232H38.0127ZM48.5986 195.388C47.2861 195.388 46.2731 195.003 45.5596 194.232C44.846 193.456 44.4893 192.367 44.4893 190.966C44.4893 190.029 44.6559 189.237 44.9893 188.591C45.3278 187.945 45.807 187.456 46.4268 187.123C47.0465 186.789 47.7809 186.623 48.6299 186.623C49.8643 186.623 50.8226 187.034 51.5049 187.857C52.1872 188.68 52.5283 189.849 52.5283 191.365V191.427H46.7939C46.7939 192.193 46.9632 192.8 47.3018 193.248C47.6455 193.695 48.1143 193.919 48.708 193.919C49.0934 193.919 49.4346 193.839 49.7314 193.677C50.0283 193.511 50.2288 193.255 50.333 192.912L52.4033 193.091C52.1169 193.826 51.6403 194.393 50.9736 194.794C50.307 195.19 49.5153 195.388 48.5986 195.388ZM48.5986 188.005C48.0622 188.005 47.6351 188.188 47.3174 188.552C46.9997 188.912 46.8304 189.412 46.8096 190.052H50.4033C50.3669 189.427 50.1872 188.93 49.8643 188.56C49.5465 188.19 49.1247 188.005 48.5986 188.005ZM56.9893 195.232V192.849H59.2471V195.232H56.9893ZM56.9893 189.138V186.755H59.2471V189.138H56.9893Z"
    fill="white" />
  <path
    d="M68.1777 195.232V193.599H71.2168V186.638C71.0137 187.065 70.6074 187.425 69.998 187.716C69.3939 188.008 68.7585 188.154 68.0918 188.154V186.482C68.8158 186.482 69.4642 186.323 70.0371 186.005C70.61 185.688 71.0423 185.25 71.334 184.693H73.4121V193.599H75.9355V195.232H68.1777Z"
    fill="white" />
  <path d="M105.534 54.1558L98.1551 41.3753L112.913 41.3753L105.534 54.1558Z" fill="#165DBD" />
  <rect x="231.562" y="1.18689" width="203.74" height="203.529" rx="8" fill="white" />
  <rect x="231.459" y="0.703125" width="203.844" height="204.797" rx="8" fill="#1F1D2B" />
  <rect x="260.591" y="29.9709" width="145.581" height="146.261" rx="8" fill="#2B2F40" />
  <path d="M326.275 154.686L298.22 111.515" stroke="white" />
  <path d="M417.803 16.3262V25.198L425.301 28.5487L417.803 16.3262Z" fill="#F7F8F7" />
  <path d="M417.802 16.3262L410.303 28.5487L417.802 25.198V16.3262Z" fill="white" />
  <path d="M417.803 34.2979V40.3262L425.306 29.945L417.803 34.2979Z" fill="#F7F8F7" />
  <path d="M417.802 40.3262V34.2969L410.303 29.945L417.802 40.3262Z" fill="white" />
  <path d="M417.803 32.9027L425.301 28.5488L417.803 25.2001V32.9027Z" fill="#E2E5EB" />
  <path d="M410.303 28.5488L417.802 32.9027V25.2001L410.303 28.5488Z" fill="#F7F8F7" />
  <path d="M290.053 154.329L281.885 137.917" stroke="white" />
  <path d="M306.745 154.686L314.913 139.344" stroke="white" />
  <path d="M271.94 155.043L333.733 50.8604L394.815 155.043" stroke="white" />
  <ellipse cx="297.509" cy="111.515" rx="5.68206" ry="5.70862" fill="#FF6E6E" />
  <ellipse cx="369.956" cy="111.515" rx="5.68206" ry="5.70862" fill="white" />
  <ellipse cx="281.884" cy="138.631" rx="5.68206" ry="5.70862" fill="#FF8D8D" />
  <ellipse cx="315.621" cy="138.631" rx="5.68206" ry="5.70862" fill="#FF8D8D" />
  <ellipse cx="352.201" cy="138.631" rx="5.68206" ry="5.70862" fill="white" />
  <ellipse cx="384.517" cy="138.631" rx="5.68206" ry="5.70862" fill="white" />
  <ellipse cx="272.651" cy="153.615" rx="5.68206" ry="5.70862" fill="#FFC0C0" />
  <ellipse cx="290.651" cy="153.616" rx="5.68206" ry="5.70862" fill="#FFC0C0" />
  <ellipse cx="307.164" cy="153.616" rx="5.68206" ry="5.70862" fill="#FFC0C0" />
  <ellipse cx="325.92" cy="153.616" rx="5.68206" ry="5.70862" fill="#FFC0C0" />
  <ellipse cx="343.677" cy="153.615" rx="5.68206" ry="5.70862" fill="white" />
  <ellipse cx="360.012" cy="153.615" rx="5.68206" ry="5.70862" fill="white" />
  <ellipse cx="376.347" cy="153.615" rx="5.68206" ry="5.70862" fill="white" />
  <ellipse cx="394.104" cy="153.615" rx="5.68206" ry="5.70862" fill="white" />
  <path d="M343.322 154.329L369.602 112.228" stroke="white" />
  <path d="M360.545 154.686L352.377 138.273" stroke="white" />
  <path d="M375.639 154.686L383.807 139.344" stroke="white" />
  <path
    d="M272.153 48.4358C271.336 48.4358 270.698 48.2144 270.239 47.7717C269.781 47.3238 269.552 46.6962 269.552 45.8889C269.552 45.0139 269.823 44.3499 270.364 43.8967C270.911 43.4384 271.726 43.2014 272.81 43.1858L274.552 43.1545V42.7249C274.552 42.1884 274.461 41.7821 274.278 41.5061C274.096 41.2301 273.802 41.092 273.396 41.092C273.015 41.092 272.734 41.1884 272.552 41.3811C272.375 41.5686 272.265 41.8707 272.224 42.2874L269.935 42.178C270.216 40.5061 271.401 39.6702 273.489 39.6702C274.541 39.6702 275.346 39.928 275.903 40.4436C276.466 40.9592 276.747 41.717 276.747 42.717V45.7795C276.747 46.2535 276.799 46.5816 276.903 46.7639C277.013 46.941 277.192 47.0295 277.442 47.0295C277.609 47.0295 277.771 47.0139 277.927 46.9827V48.1702C277.797 48.2014 277.679 48.2301 277.575 48.2561C277.471 48.2821 277.367 48.303 277.263 48.3186C277.159 48.3342 277.047 48.3472 276.927 48.3577C276.812 48.3681 276.677 48.3733 276.521 48.3733C275.968 48.3733 275.56 48.2379 275.294 47.967C275.034 47.6962 274.877 47.2978 274.825 46.7717H274.778C274.45 47.3603 274.075 47.7847 273.653 48.0452C273.237 48.3056 272.737 48.4358 272.153 48.4358ZM274.552 44.3655L273.505 44.3811C273.036 44.3915 272.695 44.441 272.481 44.5295C272.273 44.6129 272.114 44.7509 272.005 44.9436C271.896 45.1311 271.841 45.3889 271.841 45.717C271.841 46.5087 272.153 46.9045 272.778 46.9045C273.284 46.9045 273.705 46.7066 274.044 46.3108C274.382 45.9097 274.552 45.4045 274.552 44.7952V44.3655Z"
    fill="white" />
  <rect x="231.459" y="0.703125" width="203.844" height="204.797" rx="8" fill="#1F1D2B" />
  <rect x="260.591" y="29.9709" width="145.581" height="146.261" rx="8" fill="#2B2F40" />
  <path fill-rule="evenodd" clip-rule="evenodd"
    d="M416.053 31.2598C422.821 31.2598 428.308 25.7731 428.308 19.0049C428.308 12.2367 422.821 6.75 416.053 6.75C409.285 6.75 403.798 12.2367 403.798 19.0049C403.798 25.7731 409.285 31.2598 416.053 31.2598ZM412.481 22.262C411.751 22.262 411.153 22.0903 410.687 21.7469C410.227 21.3975 409.997 20.9007 409.997 20.2569C409.997 20.122 410.013 19.9564 410.043 19.7602C410.123 19.3187 410.237 18.7883 410.384 18.1689C410.801 16.4827 411.877 15.6395 413.612 15.6395C414.084 15.6395 414.507 15.7193 414.881 15.8786C415.256 16.032 415.55 16.265 415.764 16.5777C415.979 16.8843 416.086 17.2522 416.086 17.6814C416.086 17.8102 416.071 17.9727 416.04 18.1689C415.948 18.7147 415.838 19.2452 415.709 19.7602C415.495 20.6003 415.124 21.2288 414.596 21.6457C414.069 22.0566 413.364 22.262 412.481 22.262ZM412.61 20.9375C412.953 20.9375 413.244 20.8363 413.483 20.634C413.729 20.4317 413.903 20.122 414.008 19.705C414.149 19.1286 414.256 18.6258 414.33 18.1965C414.354 18.0678 414.366 17.936 414.366 17.801C414.366 17.243 414.075 16.964 413.493 16.964C413.149 16.964 412.855 17.0652 412.61 17.2676C412.37 17.47 412.199 17.7796 412.095 18.1965C411.984 18.6074 411.874 19.1102 411.763 19.705C411.739 19.8277 411.727 19.9564 411.727 20.0913C411.727 20.6554 412.021 20.9375 412.61 20.9375ZM416.352 22.1056C416.389 22.1486 416.441 22.1701 416.509 22.1701H417.76C417.821 22.1701 417.879 22.1486 417.934 22.1056C417.99 22.0627 418.023 22.0076 418.036 21.9401L418.459 19.9258H419.7C420.504 19.9258 421.135 19.7571 421.595 19.4199C422.061 19.0826 422.371 18.5614 422.524 17.8562C422.561 17.6907 422.579 17.5312 422.579 17.3779C422.579 16.8444 422.371 16.4367 421.954 16.1546C421.543 15.8725 420.997 15.7315 420.317 15.7315H417.87C417.809 15.7315 417.75 15.753 417.695 15.7959C417.64 15.8388 417.606 15.894 417.594 15.9614L416.325 21.9401C416.312 22.0015 416.322 22.0566 416.352 22.1056ZM420.436 18.4449C420.246 18.5859 420.022 18.6565 419.765 18.6565H418.707L419.057 17.01H420.16C420.412 17.01 420.59 17.059 420.694 17.1572C420.798 17.2492 420.85 17.384 420.85 17.5619C420.85 17.6416 420.841 17.7336 420.823 17.8378C420.761 18.1015 420.632 18.3039 420.436 18.4449Z"
    fill="#EF570D" />
  <path d="M326.275 146.639L298.22 103.468" stroke="white" />
  <path d="M290.053 146.283L281.885 129.87" stroke="white" />
  <path d="M306.745 146.639L314.913 131.297" stroke="white" />
  <path d="M271.94 146.996L333.733 42.8137L394.815 146.996" stroke="white" />
  <ellipse cx="297.509" cy="103.468" rx="5.68206" ry="5.70862" fill="#FF6E6E" />
  <ellipse cx="369.956" cy="103.468" rx="5.68206" ry="5.70862" fill="white" />
  <ellipse cx="281.884" cy="130.584" rx="5.68206" ry="5.70862" fill="#FF8D8D" />
  <ellipse cx="315.621" cy="130.584" rx="5.68206" ry="5.70862" fill="#FF8D8D" />
  <ellipse cx="352.201" cy="130.584" rx="5.68206" ry="5.70862" fill="white" />
  <ellipse cx="384.517" cy="130.584" rx="5.68206" ry="5.70862" fill="white" />
  <ellipse cx="272.651" cy="145.569" rx="5.68206" ry="5.70862" fill="#FFC0C0" />
  <ellipse cx="290.651" cy="145.569" rx="5.68206" ry="5.70862" fill="#FFC0C0" />
  <ellipse cx="307.164" cy="145.569" rx="5.68206" ry="5.70862" fill="#FFC0C0" />
  <ellipse cx="325.92" cy="145.569" rx="5.68206" ry="5.70862" fill="#FFC0C0" />
  <ellipse cx="343.677" cy="145.569" rx="5.68206" ry="5.70862" fill="white" />
  <ellipse cx="360.012" cy="145.569" rx="5.68206" ry="5.70862" fill="white" />
  <ellipse cx="376.347" cy="145.569" rx="5.68206" ry="5.70862" fill="white" />
  <ellipse cx="394.104" cy="145.569" rx="5.68206" ry="5.70862" fill="white" />
  <path d="M343.322 146.282L369.602 104.181" stroke="white" />
  <path d="M360.545 146.639L352.377 130.227" stroke="white" />
  <path d="M375.639 146.639L383.807 131.297" stroke="white" />
  <path
    d="M269.817 48.2795C269.859 47.5712 269.88 46.9566 269.88 46.4358V36.6858H272.075V39.7639L272.06 41.1545H272.075C272.289 40.6806 272.609 40.3134 273.036 40.053C273.468 39.7926 273.974 39.6624 274.552 39.6624C275.521 39.6624 276.265 40.0452 276.786 40.8108C277.307 41.5764 277.567 42.6597 277.567 44.0608C277.567 45.3837 277.291 46.4436 276.739 47.2405C276.187 48.0374 275.435 48.4358 274.481 48.4358C273.94 48.4358 273.463 48.3082 273.052 48.053C272.646 47.7926 272.325 47.4097 272.091 46.9045H272.06C272.06 47.0764 272.047 47.316 272.021 47.6233C272 47.9254 271.974 48.1441 271.942 48.2795H269.817ZM272.044 44.0061C272.044 44.6311 272.112 45.1597 272.247 45.592C272.388 46.0243 272.583 46.3577 272.833 46.592C273.088 46.8212 273.38 46.9358 273.708 46.9358C274.208 46.9358 274.593 46.6962 274.864 46.217C275.14 45.7379 275.278 45.0191 275.278 44.0608C275.278 43.1077 275.143 42.3863 274.872 41.8967C274.606 41.4019 274.213 41.1545 273.692 41.1545C273.182 41.1545 272.778 41.4045 272.481 41.9045C272.19 42.4045 272.044 43.1051 272.044 44.0061Z"
    fill="white" />
  <path
    d="M244.286 188.263H242.981V186.779H244.396L245.083 184.576H246.458V186.779H249.466V188.263H246.458V192.404C246.458 192.862 246.5 193.172 246.583 193.333C246.672 193.49 246.812 193.615 247.005 193.708C247.198 193.797 247.468 193.841 247.817 193.841C248.463 193.841 249.127 193.771 249.81 193.63V195.083C249.07 195.203 248.547 195.274 248.239 195.294C247.932 195.32 247.612 195.333 247.278 195.333C246.617 195.333 246.062 195.245 245.614 195.068C245.172 194.886 244.836 194.604 244.606 194.224C244.382 193.839 244.271 193.3 244.271 192.607L244.286 188.263ZM257.536 193.748H260.294V195.232H252.255V193.748H255.341V188.263H253.075V186.779H257.536V193.748ZM255.341 185.255V183.638H257.536V185.255H255.341ZM264.856 195.232V190.091C264.856 189.315 264.807 188.776 264.708 188.474C264.614 188.172 264.437 188.021 264.177 188.021C263.911 188.021 263.7 188.266 263.544 188.755C263.393 189.245 263.317 189.888 263.317 190.685V195.232H261.528V188.583C261.528 187.599 261.513 186.998 261.481 186.779H263.114L263.161 187.771V188.146H263.177C263.354 187.615 263.578 187.229 263.849 186.99C264.119 186.745 264.458 186.623 264.864 186.623C265.323 186.623 265.664 186.748 265.888 186.998C266.117 187.248 266.281 187.633 266.38 188.154H266.396C266.604 187.602 266.851 187.208 267.138 186.974C267.429 186.74 267.797 186.623 268.239 186.623C268.854 186.623 269.294 186.847 269.56 187.294C269.825 187.742 269.958 188.511 269.958 189.599V195.232H268.177V190.091C268.177 189.315 268.127 188.776 268.028 188.474C267.935 188.172 267.757 188.021 267.497 188.021C267.231 188.021 267.021 188.232 266.864 188.654C266.713 189.07 266.638 189.698 266.638 190.537V195.232H264.856ZM275.442 195.388C274.13 195.388 273.117 195.003 272.403 194.232C271.69 193.456 271.333 192.367 271.333 190.966C271.333 190.029 271.5 189.237 271.833 188.591C272.172 187.945 272.651 187.456 273.271 187.123C273.89 186.789 274.625 186.623 275.474 186.623C276.708 186.623 277.666 187.034 278.349 187.857C279.031 188.68 279.372 189.849 279.372 191.365V191.427H273.638C273.638 192.193 273.807 192.8 274.146 193.248C274.489 193.695 274.958 193.919 275.552 193.919C275.937 193.919 276.278 193.839 276.575 193.677C276.872 193.511 277.073 193.255 277.177 192.912L279.247 193.091C278.961 193.826 278.484 194.393 277.817 194.794C277.151 195.19 276.359 195.388 275.442 195.388ZM275.442 188.005C274.906 188.005 274.479 188.188 274.161 188.552C273.843 188.912 273.674 189.412 273.653 190.052H277.247C277.211 189.427 277.031 188.93 276.708 188.56C276.39 188.19 275.968 188.005 275.442 188.005ZM283.833 195.232V192.849H286.091V195.232H283.833ZM283.833 189.138V186.755H286.091V189.138H283.833Z"
    fill="white" />
  <path
    d="M295.047 195.232V193.599H298.086V186.638C297.883 187.065 297.477 187.425 296.867 187.716C296.263 188.008 295.628 188.154 294.961 188.154V186.482C295.685 186.482 296.333 186.323 296.906 186.005C297.479 185.688 297.911 185.25 298.203 184.693H300.281V193.599H302.805V195.232H295.047Z"
    fill="white" />
  <path d="M334.378 53.1558L326.999 40.3753L341.757 40.3753L334.378 53.1558Z" fill="#E63535" />
  <rect x="3.61523" y="230.134" width="203.74" height="203.529" rx="8" fill="white" />
  <rect x="3.61523" y="229.5" width="203.844" height="204.797" rx="8" fill="#1F1D2B" />
  <rect x="32.7466" y="258.768" width="145.581" height="146.261" rx="8" fill="#2B2F40" />
  <path d="M98.4311 383.483L70.376 340.311" stroke="white" />
  <path d="M189.958 245.123V253.995L197.457 257.346L189.958 245.123Z" fill="#F7F8F7" />
  <path d="M189.959 245.123L182.459 257.346L189.959 253.995V245.123Z" fill="white" />
  <path d="M189.958 263.095V269.123L197.462 258.742L189.958 263.095Z" fill="#F7F8F7" />
  <path d="M189.959 269.123V263.094L182.459 258.742L189.959 269.123Z" fill="white" />
  <path d="M189.958 261.7L197.457 257.346L189.958 253.997V261.7Z" fill="#E2E5EB" />
  <path d="M182.459 257.346L189.959 261.7V253.997L182.459 257.346Z" fill="#F7F8F7" />
  <path d="M62.209 383.126L54.041 366.714" stroke="white" />
  <path d="M78.9009 383.483L87.0688 368.141" stroke="white" />
  <path d="M44.0967 383.84L105.889 279.657L166.971 383.84" stroke="white" />
  <ellipse cx="69.665" cy="340.312" rx="5.68206" ry="5.70862" fill="#9986FF" />
  <ellipse cx="142.113" cy="340.312" rx="5.68206" ry="5.70862" fill="white" />
  <ellipse cx="54.0409" cy="367.427" rx="5.68206" ry="5.70862" fill="#C5BBFA" />
  <ellipse cx="87.7773" cy="367.427" rx="5.68206" ry="5.70862" fill="#C5BBFA" />
  <ellipse cx="124.356" cy="367.427" rx="5.68206" ry="5.70862" fill="white" />
  <ellipse cx="156.673" cy="367.427" rx="5.68206" ry="5.70862" fill="white" />
  <ellipse cx="44.8071" cy="382.412" rx="5.68206" ry="5.70862" fill="#E7E2FF" />
  <ellipse cx="62.8071" cy="382.412" rx="5.68206" ry="5.70862" fill="#E7E2FF" />
  <ellipse cx="79.3207" cy="382.412" rx="5.68206" ry="5.70862" fill="#E7E2FF" />
  <ellipse cx="98.0761" cy="382.412" rx="5.68206" ry="5.70862" fill="#E7E2FF" />
  <ellipse cx="115.833" cy="382.412" rx="5.68206" ry="5.70862" fill="white" />
  <ellipse cx="132.168" cy="382.412" rx="5.68206" ry="5.70862" fill="white" />
  <ellipse cx="148.504" cy="382.412" rx="5.68206" ry="5.70862" fill="white" />
  <ellipse cx="166.26" cy="382.412" rx="5.68206" ry="5.70862" fill="white" />
  <path d="M115.479 383.126L141.758 341.025" stroke="white" />
  <path d="M132.701 383.483L124.533 367.07" stroke="white" />
  <path d="M147.795 383.483L155.963 368.141" stroke="white" />
  <path
    d="M44.3096 277.233C43.4919 277.233 42.8538 277.011 42.3955 276.569C41.9372 276.121 41.708 275.493 41.708 274.686C41.708 273.811 41.9788 273.147 42.5205 272.694C43.0674 272.235 43.8825 271.998 44.9658 271.983L46.708 271.951V271.522C46.708 270.985 46.6169 270.579 46.4346 270.303C46.2523 270.027 45.958 269.889 45.5518 269.889C45.1715 269.889 44.8903 269.985 44.708 270.178C44.5309 270.365 44.4215 270.668 44.3799 271.084L42.0908 270.975C42.3721 269.303 43.557 268.467 45.6455 268.467C46.6976 268.467 47.5023 268.725 48.0596 269.24C48.6221 269.756 48.9033 270.514 48.9033 271.514V274.576C48.9033 275.05 48.9554 275.378 49.0596 275.561C49.1689 275.738 49.3486 275.826 49.5986 275.826C49.7653 275.826 49.9268 275.811 50.083 275.78V276.967C49.9528 276.998 49.8356 277.027 49.7314 277.053C49.6273 277.079 49.5231 277.1 49.4189 277.115C49.3148 277.131 49.2028 277.144 49.083 277.155C48.9684 277.165 48.833 277.17 48.6768 277.17C48.1247 277.17 47.7158 277.035 47.4502 276.764C47.1898 276.493 47.0335 276.095 46.9814 275.569H46.9346C46.6064 276.157 46.2314 276.582 45.8096 276.842C45.3929 277.102 44.8929 277.233 44.3096 277.233ZM46.708 273.162L45.6611 273.178C45.1924 273.188 44.8512 273.238 44.6377 273.326C44.4294 273.41 44.2705 273.548 44.1611 273.74C44.0518 273.928 43.9971 274.186 43.9971 274.514C43.9971 275.306 44.3096 275.701 44.9346 275.701C45.4398 275.701 45.8617 275.503 46.2002 275.108C46.5387 274.707 46.708 274.201 46.708 273.592V273.162Z"
    fill="white" />
  <rect x="3.61523" y="229.5" width="203.844" height="204.797" rx="8" fill="#1F1D2B" />
  <path
    d="M198.318 249.543V254.969C198.316 255.307 198.226 255.64 198.058 255.933C197.89 256.226 197.649 256.471 197.358 256.642L192.675 259.35C192.385 259.523 192.053 259.615 191.715 259.615C191.378 259.615 191.046 259.523 190.756 259.35L186.072 256.642C185.782 256.471 185.541 256.226 185.373 255.933C185.204 255.64 185.115 255.307 185.113 254.969V253.446L187.511 252.049V254.696L191.708 257.141L195.905 254.696V249.819L191.708 247.375L181.876 253.091C181.583 253.256 181.252 253.343 180.916 253.343C180.58 253.343 180.25 253.256 179.957 253.091L175.273 250.372C174.987 250.198 174.751 249.952 174.587 249.66C174.423 249.367 174.336 249.037 174.336 248.701V243.275C174.338 242.936 174.428 242.604 174.596 242.311C174.764 242.017 175.005 241.773 175.296 241.601L179.98 238.894C180.27 238.722 180.601 238.631 180.939 238.631C181.276 238.631 181.607 238.722 181.898 238.894L186.582 241.601C186.872 241.773 187.113 242.017 187.282 242.311C187.45 242.604 187.539 242.936 187.541 243.275V244.797L185.128 246.185V243.553L180.931 241.109L176.735 243.553V248.424L180.931 250.868L190.764 245.153C191.056 244.987 191.387 244.9 191.723 244.9C192.059 244.9 192.389 244.987 192.682 245.153L197.366 247.872C197.655 248.044 197.894 248.289 198.061 248.582C198.228 248.874 198.316 249.206 198.318 249.543Z"
    fill="#B5A9F2" />
  <rect x="32.7466" y="258.768" width="145.581" height="146.261" rx="8" fill="#2B2F40" />
  <path d="M98.4311 375.436L70.376 332.265" stroke="white" />
  <path d="M62.209 375.079L54.041 358.667" stroke="white" />
  <path d="M78.9009 375.436L87.0688 360.094" stroke="white" />
  <path d="M44.0967 375.793L105.889 271.611L166.971 375.793" stroke="white" />
  <ellipse cx="69.665" cy="332.265" rx="5.68206" ry="5.70862" fill="#9986FF" />
  <ellipse cx="142.113" cy="332.265" rx="5.68206" ry="5.70862" fill="white" />
  <ellipse cx="54.0409" cy="359.381" rx="5.68206" ry="5.70862" fill="#C5BBFA" />
  <ellipse cx="87.7773" cy="359.381" rx="5.68206" ry="5.70862" fill="#C5BBFA" />
  <ellipse cx="124.356" cy="359.381" rx="5.68206" ry="5.70862" fill="white" />
  <ellipse cx="156.673" cy="359.381" rx="5.68206" ry="5.70862" fill="white" />
  <ellipse cx="44.8071" cy="374.366" rx="5.68206" ry="5.70862" fill="#E7E2FF" />
  <ellipse cx="62.8071" cy="374.366" rx="5.68206" ry="5.70862" fill="#E7E2FF" />
  <ellipse cx="79.3207" cy="374.366" rx="5.68206" ry="5.70862" fill="#E7E2FF" />
  <ellipse cx="98.0761" cy="374.366" rx="5.68206" ry="5.70862" fill="#E7E2FF" />
  <ellipse cx="115.833" cy="374.366" rx="5.68206" ry="5.70862" fill="white" />
  <ellipse cx="132.168" cy="374.366" rx="5.68206" ry="5.70862" fill="white" />
  <ellipse cx="148.504" cy="374.366" rx="5.68206" ry="5.70862" fill="white" />
  <ellipse cx="166.26" cy="374.366" rx="5.68206" ry="5.70862" fill="white" />
  <path d="M115.479 375.079L141.758 332.978" stroke="white" />
  <path d="M132.701 375.436L124.533 359.024" stroke="white" />
  <path d="M147.795 375.436L155.963 360.094" stroke="white" />
  <path
    d="M45.7549 277.233C44.4736 277.233 43.484 276.852 42.7861 276.092C42.0882 275.326 41.7393 274.261 41.7393 272.897C41.7393 271.501 42.0908 270.415 42.7939 269.639C43.4971 268.858 44.4945 268.467 45.7861 268.467C46.7809 268.467 47.6038 268.717 48.2549 269.217C48.9059 269.717 49.3148 270.407 49.4814 271.287L47.2705 271.397C47.208 270.964 47.0518 270.621 46.8018 270.365C46.5518 270.105 46.1976 269.975 45.7393 269.975C44.609 269.975 44.0439 270.92 44.0439 272.811C44.0439 274.759 44.6195 275.733 45.7705 275.733C46.1872 275.733 46.5361 275.602 46.8174 275.342C47.0986 275.076 47.2731 274.683 47.3408 274.162L49.5439 274.264C49.4658 274.842 49.2575 275.358 48.9189 275.811C48.5856 276.264 48.1455 276.615 47.5986 276.865C47.0518 277.11 46.4372 277.233 45.7549 277.233Z"
    fill="white" />
  <path
    d="M16.4424 416.06H15.1377V414.576H16.5518L17.2393 412.373H18.6143V414.576H21.6221V416.06H18.6143V420.201C18.6143 420.659 18.6559 420.969 18.7393 421.13C18.8278 421.287 18.9684 421.412 19.1611 421.505C19.3538 421.594 19.6247 421.638 19.9736 421.638C20.6195 421.638 21.2835 421.568 21.9658 421.427V422.88C21.2262 423 20.7028 423.07 20.3955 423.091C20.0882 423.117 19.7679 423.13 19.4346 423.13C18.7731 423.13 18.2184 423.042 17.7705 422.865C17.3278 422.682 16.9919 422.401 16.7627 422.021C16.5387 421.636 16.4268 421.097 16.4268 420.404L16.4424 416.06ZM29.6924 421.544H32.4502V423.029H24.4111V421.544H27.4971V416.06H25.2314V414.576H29.6924V421.544ZM27.4971 413.052V411.435H29.6924V413.052H27.4971ZM37.0127 423.029V417.888C37.0127 417.112 36.9632 416.573 36.8643 416.271C36.7705 415.969 36.5934 415.818 36.333 415.818C36.0674 415.818 35.8564 416.063 35.7002 416.552C35.5492 417.042 35.4736 417.685 35.4736 418.482V423.029H33.6846V416.38C33.6846 415.396 33.6689 414.794 33.6377 414.576H35.2705L35.3174 415.568V415.943H35.333C35.5101 415.412 35.734 415.026 36.0049 414.787C36.2757 414.542 36.6143 414.419 37.0205 414.419C37.4788 414.419 37.82 414.544 38.0439 414.794C38.2731 415.044 38.4372 415.43 38.5361 415.951H38.5518C38.7601 415.399 39.0075 415.005 39.2939 414.771C39.5856 414.537 39.9528 414.419 40.3955 414.419C41.0101 414.419 41.4502 414.643 41.7158 415.091C41.9814 415.539 42.1143 416.307 42.1143 417.396V423.029H40.333V417.888C40.333 417.112 40.2835 416.573 40.1846 416.271C40.0908 415.969 39.9137 415.818 39.6533 415.818C39.3877 415.818 39.1768 416.029 39.0205 416.451C38.8695 416.867 38.7939 417.495 38.7939 418.333V423.029H37.0127ZM47.5986 423.185C46.2861 423.185 45.2731 422.8 44.5596 422.029C43.846 421.253 43.4893 420.164 43.4893 418.763C43.4893 417.826 43.6559 417.034 43.9893 416.388C44.3278 415.742 44.807 415.253 45.4268 414.919C46.0465 414.586 46.7809 414.419 47.6299 414.419C48.8643 414.419 49.8226 414.831 50.5049 415.654C51.1872 416.477 51.5283 417.646 51.5283 419.162V419.224H45.7939C45.7939 419.99 45.9632 420.597 46.3018 421.044C46.6455 421.492 47.1143 421.716 47.708 421.716C48.0934 421.716 48.4346 421.636 48.7314 421.474C49.0283 421.307 49.2288 421.052 49.333 420.708L51.4033 420.888C51.1169 421.623 50.6403 422.19 49.9736 422.591C49.307 422.987 48.5153 423.185 47.5986 423.185ZM47.5986 415.802C47.0622 415.802 46.6351 415.985 46.3174 416.349C45.9997 416.708 45.8304 417.208 45.8096 417.849H49.4033C49.3669 417.224 49.1872 416.727 48.8643 416.357C48.5465 415.987 48.1247 415.802 47.5986 415.802ZM55.9893 423.029V420.646H58.2471V423.029H55.9893ZM55.9893 416.935V414.552H58.2471V416.935H55.9893Z"
    fill="white" />
  <path
    d="M66.1489 423.029V421.396H69.188V414.435C68.9849 414.862 68.5786 415.222 67.9692 415.513C67.3651 415.805 66.7297 415.951 66.063 415.951V414.279C66.7869 414.279 67.4354 414.12 68.0083 413.802C68.5812 413.485 69.0135 413.047 69.3052 412.49H71.3833V421.396H73.9067V423.029H66.1489Z"
    fill="white" />
  <path d="M105.534 282.953L98.1551 270.172L112.913 270.172L105.534 282.953Z" fill="#6F54FF" />
  <rect x="231.459" y="229.5" width="203.844" height="204.797" rx="8" fill="#1F1D2B" />
  <rect x="260.591" y="258.768" width="145.581" height="146.261" rx="8" fill="#2B2F40" />
  <path d="M326.275 383.483L298.22 340.311" stroke="white" />
  <path d="M417.803 245.123V253.995L425.301 257.346L417.803 245.123Z" fill="#F7F8F7" />
  <path d="M417.802 245.123L410.303 257.346L417.802 253.995V245.123Z" fill="white" />
  <path d="M417.803 263.095V269.123L425.306 258.742L417.803 263.095Z" fill="#F7F8F7" />
  <path d="M417.802 269.123V263.094L410.303 258.742L417.802 269.123Z" fill="white" />
  <path d="M417.803 261.7L425.301 257.346L417.803 253.997V261.7Z" fill="#E2E5EB" />
  <path d="M410.303 257.346L417.802 261.7V253.997L410.303 257.346Z" fill="#F7F8F7" />
  <path d="M290.053 383.126L281.885 366.714" stroke="white" />
  <path d="M306.745 383.483L314.913 368.141" stroke="white" />
  <path d="M271.94 383.84L333.733 279.657L394.815 383.84" stroke="white" />
  <ellipse cx="297.509" cy="340.312" rx="5.68206" ry="5.70862" fill="#F547BA" />
  <ellipse cx="369.956" cy="340.312" rx="5.68206" ry="5.70862" fill="white" />
  <ellipse cx="281.884" cy="367.427" rx="5.68206" ry="5.70862" fill="#FF76D1" />
  <ellipse cx="315.621" cy="367.427" rx="5.68206" ry="5.70862" fill="#FF76D1" />
  <ellipse cx="352.201" cy="367.427" rx="5.68206" ry="5.70862" fill="white" />
  <ellipse cx="384.517" cy="367.427" rx="5.68206" ry="5.70862" fill="white" />
  <ellipse cx="272.651" cy="382.412" rx="5.68206" ry="5.70862" fill="#FFBDE9" />
  <ellipse cx="290.651" cy="382.412" rx="5.68206" ry="5.70862" fill="#FFBDE9" />
  <ellipse cx="307.164" cy="382.412" rx="5.68206" ry="5.70862" fill="#FFBDE9" />
  <ellipse cx="325.92" cy="382.412" rx="5.68206" ry="5.70862" fill="#FFBDE9" />
  <ellipse cx="343.677" cy="382.412" rx="5.68206" ry="5.70862" fill="white" />
  <ellipse cx="360.012" cy="382.412" rx="5.68206" ry="5.70862" fill="white" />
  <ellipse cx="376.347" cy="382.412" rx="5.68206" ry="5.70862" fill="white" />
  <ellipse cx="394.104" cy="382.412" rx="5.68206" ry="5.70862" fill="white" />
  <path d="M343.322 383.126L369.602 341.025" stroke="white" />
  <path d="M360.545 383.483L352.377 367.07" stroke="white" />
  <path d="M375.639 383.483L383.807 368.141" stroke="white" />
  <path
    d="M272.153 277.233C271.336 277.233 270.698 277.011 270.239 276.569C269.781 276.121 269.552 275.493 269.552 274.686C269.552 273.811 269.823 273.147 270.364 272.694C270.911 272.235 271.726 271.998 272.81 271.983L274.552 271.951V271.522C274.552 270.985 274.461 270.579 274.278 270.303C274.096 270.027 273.802 269.889 273.396 269.889C273.015 269.889 272.734 269.985 272.552 270.178C272.375 270.365 272.265 270.668 272.224 271.084L269.935 270.975C270.216 269.303 271.401 268.467 273.489 268.467C274.541 268.467 275.346 268.725 275.903 269.24C276.466 269.756 276.747 270.514 276.747 271.514V274.576C276.747 275.05 276.799 275.378 276.903 275.561C277.013 275.738 277.192 275.826 277.442 275.826C277.609 275.826 277.771 275.811 277.927 275.78V276.967C277.797 276.998 277.679 277.027 277.575 277.053C277.471 277.079 277.367 277.1 277.263 277.115C277.159 277.131 277.047 277.144 276.927 277.155C276.812 277.165 276.677 277.17 276.521 277.17C275.968 277.17 275.56 277.035 275.294 276.764C275.034 276.493 274.877 276.095 274.825 275.569H274.778C274.45 276.157 274.075 276.582 273.653 276.842C273.237 277.102 272.737 277.233 272.153 277.233ZM274.552 273.162L273.505 273.178C273.036 273.188 272.695 273.238 272.481 273.326C272.273 273.41 272.114 273.548 272.005 273.74C271.896 273.928 271.841 274.186 271.841 274.514C271.841 275.306 272.153 275.701 272.778 275.701C273.284 275.701 273.705 275.503 274.044 275.108C274.382 274.707 274.552 274.201 274.552 273.592V273.162Z"
    fill="white" />
  <rect x="231.459" y="229.5" width="203.844" height="204.797" rx="8" fill="#1F1D2B" />
  <rect x="260.591" y="258.768" width="145.581" height="146.261" rx="8" fill="#2B2F40" />
  <path d="M326.275 375.436L298.22 332.265" stroke="white" />
  <path d="M290.053 375.079L281.885 358.667" stroke="white" />
  <path d="M306.745 375.436L314.913 360.094" stroke="white" />
  <path d="M271.94 375.793L333.733 271.611L394.815 375.793" stroke="white" />
  <ellipse cx="297.509" cy="332.265" rx="5.68206" ry="5.70862" fill="#F547BA" />
  <ellipse cx="369.956" cy="332.265" rx="5.68206" ry="5.70862" fill="white" />
  <ellipse cx="281.884" cy="359.381" rx="5.68206" ry="5.70862" fill="#FF76D1" />
  <ellipse cx="315.621" cy="359.381" rx="5.68206" ry="5.70862" fill="#FF76D1" />
  <ellipse cx="352.201" cy="359.381" rx="5.68206" ry="5.70862" fill="white" />
  <ellipse cx="384.517" cy="359.381" rx="5.68206" ry="5.70862" fill="white" />
  <ellipse cx="272.651" cy="374.366" rx="5.68206" ry="5.70862" fill="#FFBDE9" />
  <ellipse cx="290.651" cy="374.366" rx="5.68206" ry="5.70862" fill="#FFBDE9" />
  <ellipse cx="307.164" cy="374.366" rx="5.68206" ry="5.70862" fill="#FFBDE9" />
  <ellipse cx="325.92" cy="374.366" rx="5.68206" ry="5.70862" fill="#FFBDE9" />
  <ellipse cx="343.677" cy="374.366" rx="5.68206" ry="5.70862" fill="white" />
  <ellipse cx="360.012" cy="374.366" rx="5.68206" ry="5.70862" fill="white" />
  <ellipse cx="376.347" cy="374.366" rx="5.68206" ry="5.70862" fill="white" />
  <ellipse cx="394.104" cy="374.366" rx="5.68206" ry="5.70862" fill="white" />
  <path d="M343.322 375.079L369.602 332.978" stroke="white" />
  <path d="M360.545 375.436L352.377 359.024" stroke="white" />
  <path d="M375.639 375.436L383.807 360.094" stroke="white" />
  <path
    d="M275.106 277.076C275.086 276.998 275.06 276.803 275.028 276.49C275.002 276.173 274.989 275.91 274.989 275.701H274.958C274.682 276.259 274.341 276.655 273.935 276.889C273.528 277.118 273.047 277.233 272.489 277.233C271.557 277.233 270.823 276.842 270.286 276.061C269.75 275.28 269.481 274.214 269.481 272.865C269.481 271.485 269.75 270.41 270.286 269.639C270.828 268.868 271.591 268.483 272.575 268.483C273.132 268.483 273.617 268.61 274.028 268.865C274.44 269.115 274.755 269.485 274.974 269.975H274.989L274.974 268.584V265.483H277.169V275.233C277.169 275.753 277.19 276.368 277.231 277.076H275.106ZM275.005 272.811C275.005 271.91 274.859 271.212 274.567 270.717C274.276 270.222 273.872 269.975 273.356 269.975C272.836 269.975 272.44 270.22 272.169 270.709C271.903 271.194 271.771 271.912 271.771 272.865C271.771 273.824 271.906 274.543 272.177 275.022C272.453 275.496 272.841 275.733 273.341 275.733C273.664 275.733 273.953 275.618 274.208 275.389C274.463 275.155 274.659 274.821 274.794 274.389C274.935 273.957 275.005 273.431 275.005 272.811Z"
    fill="white" />
  <path
    d="M243.286 418.06H241.981V416.576H243.396L244.083 414.373H245.458V416.576H248.466V418.06H245.458V422.201C245.458 422.659 245.5 422.969 245.583 423.13C245.672 423.287 245.812 423.412 246.005 423.505C246.198 423.594 246.468 423.638 246.817 423.638C247.463 423.638 248.127 423.568 248.81 423.427V424.88C248.07 425 247.547 425.07 247.239 425.091C246.932 425.117 246.612 425.13 246.278 425.13C245.617 425.13 245.062 425.042 244.614 424.865C244.172 424.682 243.836 424.401 243.606 424.021C243.382 423.636 243.271 423.097 243.271 422.404L243.286 418.06ZM256.536 423.544H259.294V425.029H251.255V423.544H254.341V418.06H252.075V416.576H256.536V423.544ZM254.341 415.052V413.435H256.536V415.052H254.341ZM263.856 425.029V419.888C263.856 419.112 263.807 418.573 263.708 418.271C263.614 417.969 263.437 417.818 263.177 417.818C262.911 417.818 262.7 418.063 262.544 418.552C262.393 419.042 262.317 419.685 262.317 420.482V425.029H260.528V418.38C260.528 417.396 260.513 416.794 260.481 416.576H262.114L262.161 417.568V417.943H262.177C262.354 417.412 262.578 417.026 262.849 416.787C263.119 416.542 263.458 416.419 263.864 416.419C264.323 416.419 264.664 416.544 264.888 416.794C265.117 417.044 265.281 417.43 265.38 417.951H265.396C265.604 417.399 265.851 417.005 266.138 416.771C266.429 416.537 266.797 416.419 267.239 416.419C267.854 416.419 268.294 416.643 268.56 417.091C268.825 417.539 268.958 418.307 268.958 419.396V425.029H267.177V419.888C267.177 419.112 267.127 418.573 267.028 418.271C266.935 417.969 266.757 417.818 266.497 417.818C266.231 417.818 266.021 418.029 265.864 418.451C265.713 418.867 265.638 419.495 265.638 420.333V425.029H263.856ZM274.442 425.185C273.13 425.185 272.117 424.8 271.403 424.029C270.69 423.253 270.333 422.164 270.333 420.763C270.333 419.826 270.5 419.034 270.833 418.388C271.172 417.742 271.651 417.253 272.271 416.919C272.89 416.586 273.625 416.419 274.474 416.419C275.708 416.419 276.666 416.831 277.349 417.654C278.031 418.477 278.372 419.646 278.372 421.162V421.224H272.638C272.638 421.99 272.807 422.597 273.146 423.044C273.489 423.492 273.958 423.716 274.552 423.716C274.937 423.716 275.278 423.636 275.575 423.474C275.872 423.307 276.073 423.052 276.177 422.708L278.247 422.888C277.961 423.623 277.484 424.19 276.817 424.591C276.151 424.987 275.359 425.185 274.442 425.185ZM274.442 417.802C273.906 417.802 273.479 417.985 273.161 418.349C272.843 418.708 272.674 419.208 272.653 419.849H276.247C276.211 419.224 276.031 418.727 275.708 418.357C275.39 417.987 274.968 417.802 274.442 417.802ZM282.833 425.029V422.646H285.091V425.029H282.833ZM282.833 418.935V416.552H285.091V418.935H282.833Z"
    fill="white" />
  <path
    d="M294.011 425.029V423.396H297.05V416.435C296.847 416.862 296.44 417.222 295.831 417.513C295.227 417.805 294.591 417.951 293.925 417.951V416.279C294.649 416.279 295.297 416.12 295.87 415.802C296.443 415.485 296.875 415.047 297.167 414.49H299.245V423.396H301.769V425.029H294.011Z"
    fill="white" />
  <path d="M333.378 282.953L325.999 270.172L340.757 270.172L333.378 282.953Z" fill="#D4289A" />
  <path
    d="M415.011 240.11C417.402 240.11 419.341 238.983 419.341 237.593C419.341 236.203 417.402 235.076 415.011 235.076C412.619 235.076 410.681 236.203 410.681 237.593C410.681 238.983 412.619 240.11 415.011 240.11Z"
    fill="#F547BA" />
  <path
    d="M415.011 259.076C417.402 259.076 419.341 257.949 419.341 256.559C419.341 255.169 417.402 254.042 415.011 254.042C412.619 254.042 410.681 255.169 410.681 256.559C410.681 257.949 412.619 259.076 415.011 259.076Z"
    fill="#F547BA" />
  <path
    d="M408.977 243.594C410.173 241.525 410.165 239.283 408.96 238.587C407.755 237.892 405.808 239.006 404.612 241.076C403.417 243.146 403.424 245.387 404.63 246.083C405.835 246.779 407.782 245.664 408.977 243.594Z"
    fill="#F547BA" />
  <path
    d="M425.408 253.076C426.604 251.007 426.597 248.765 425.393 248.07C424.188 247.375 422.242 248.489 421.047 250.559C419.851 252.629 419.858 254.871 421.062 255.566C422.267 256.261 424.213 255.146 425.408 253.076Z"
    fill="#F547BA" />
  <path
    d="M408.96 255.565C410.165 254.87 410.173 252.628 408.977 250.558C407.782 248.488 405.835 247.374 404.63 248.069C403.424 248.765 403.417 251.007 404.612 253.076C405.808 255.146 407.755 256.261 408.96 255.565Z"
    fill="#F547BA" />
  <path
    d="M425.393 246.084C426.597 245.389 426.604 243.147 425.408 241.077C424.213 239.007 422.267 237.893 421.062 238.588C419.858 239.283 419.851 241.524 421.046 243.594C422.242 245.664 424.188 246.779 425.393 246.084Z"
    fill="#F547BA" />
  <path fill-rule="evenodd" clip-rule="evenodd"
    d="M216.246 218.348V219.575C216.246 220.396 216.914 221.069 217.73 221.069H218.947C219.763 221.069 220.431 220.396 220.431 219.575V218.348C220.431 217.526 219.763 216.853 218.947 216.853H217.73C216.914 216.853 216.246 217.526 216.246 218.348Z"
    fill="white" />
  <path fill-rule="evenodd" clip-rule="evenodd"
    d="M216.247 214.535C216.247 215.735 215.31 216.711 214.156 216.711C213.002 216.711 212.065 217.686 212.065 218.893C212.065 220.094 211.128 221.069 209.967 221.069C208.814 221.069 207.877 220.094 207.877 218.893C207.877 217.686 208.814 216.711 209.967 216.711C211.128 216.711 212.065 215.735 212.065 214.535C212.065 213.334 211.128 212.359 209.967 212.359H209.359C208.546 212.359 207.877 211.662 207.877 210.816V209.544C207.877 208.698 208.546 208.001 209.359 208.001H210.582C211.395 208.001 212.065 208.698 212.065 209.544V210.183C212.065 211.384 213.002 212.359 214.156 212.359C215.31 212.359 216.247 213.334 216.247 214.535Z"
    fill="white" />
  <path fill-rule="evenodd" clip-rule="evenodd"
    d="M220.432 226.775V228.007C220.432 228.826 219.74 229.5 218.9 229.5H217.638C216.797 229.5 216.105 228.826 216.105 228.007V227.394C216.105 226.225 215.137 225.281 213.945 225.281C212.754 225.281 211.786 226.225 211.786 227.394C211.786 228.557 210.817 229.5 209.618 229.5C208.427 229.5 207.459 228.557 207.459 227.394C207.459 226.225 208.427 225.281 209.618 225.281C210.817 225.281 211.786 224.338 211.786 223.175V222.563C211.786 221.737 212.471 221.069 213.317 221.069H214.573C215.42 221.069 216.105 221.737 216.105 222.563V223.175C216.105 224.338 217.074 225.281 218.265 225.281H218.9C219.74 225.281 220.432 225.956 220.432 226.775Z"
    fill="white" />
  <mask id="mask0_1014_82819" style="mask-type:alpha" maskUnits="userSpaceOnUse" x="220" y="216"
    width="9" height="14">
    <path d="M220.434 216.431H228.804V229.5H220.434V216.431Z" fill="white" />
  </mask>
  <g mask="url(#mask0_1014_82819)">
    <path fill-rule="evenodd" clip-rule="evenodd"
      d="M228.803 227.324C228.803 228.525 227.866 229.5 226.706 229.5C225.552 229.5 224.615 228.525 224.615 227.324C224.615 226.117 223.678 225.141 222.524 225.141H221.915C221.097 225.141 220.433 224.451 220.433 223.598V222.333C220.433 221.48 221.097 220.79 221.915 220.79H222.524C223.678 220.79 224.615 219.814 224.615 218.614C224.615 217.406 225.552 216.431 226.706 216.431C227.866 216.431 228.803 217.406 228.803 218.614C228.803 219.814 227.866 220.79 226.706 220.79C225.552 220.79 224.615 221.765 224.615 222.966C224.615 224.166 225.552 225.141 226.706 225.141C227.866 225.141 228.803 226.117 228.803 227.324Z"
      fill="white" />
  </g>
  <mask id="mask1_1014_82819" style="mask-type:alpha" maskUnits="userSpaceOnUse" x="215" y="208"
    width="14" height="9">
    <path d="M215.83 208.001H228.803V216.432H215.83V208.001Z" fill="white" />
  </mask>
  <g mask="url(#mask1_1014_82819)">
    <path fill-rule="evenodd" clip-rule="evenodd"
      d="M228.803 209.494V210.726C228.803 211.544 228.111 212.219 227.271 212.219H226.637C225.444 212.219 224.477 213.163 224.477 214.325C224.477 215.488 223.509 216.432 222.317 216.432C221.124 216.432 220.157 215.488 220.157 214.325C220.157 213.163 219.189 212.219 217.99 212.219H217.361C216.522 212.219 215.83 211.544 215.83 210.726V209.494C215.83 208.676 216.522 208.001 217.361 208.001H218.625C219.464 208.001 220.157 208.676 220.157 209.494V210.113C220.157 211.276 221.124 212.219 222.317 212.219C223.509 212.219 224.477 211.276 224.477 210.113V209.494C224.477 208.676 225.169 208.001 226.009 208.001H227.271C228.111 208.001 228.803 208.676 228.803 209.494Z"
      fill="white" />
  </g>
</svg>
