<svg
  width="402"
  height="121"
  viewBox="0 0 402 121"
  fill="none"
  xmlns="http://www.w3.org/2000/svg"
>
  <rect width="402" height="121" rx="8" fill="#1F1D2B" />
  <path
    d="M21.4541 22H19.1572L16.375 14.6035H18.4053L19.834 18.8555C19.9023 19.0833 20.0641 19.653 20.3193 20.5645C20.3467 20.4551 20.4287 20.1657 20.5654 19.6963C20.7067 19.2223 21.2878 17.5247 22.3086 14.6035H24.3184L21.4541 22ZM29.999 20.7012H32.4121V22H25.3779V20.7012H28.0781V15.9023H26.0957V14.6035H29.999V20.7012ZM28.0781 13.2705V11.8555H29.999V13.2705H28.0781ZM37.2588 22.1367C36.1104 22.1367 35.224 21.7995 34.5996 21.125C33.9753 20.446 33.6631 19.4935 33.6631 18.2676C33.6631 17.4473 33.8089 16.7546 34.1006 16.1895C34.3968 15.6243 34.8161 15.196 35.3584 14.9043C35.9007 14.6126 36.5433 14.4668 37.2861 14.4668C38.3662 14.4668 39.2048 14.8268 39.8018 15.5469C40.3988 16.2669 40.6973 17.29 40.6973 18.6162V18.6709H35.6797C35.6797 19.3408 35.8278 19.8717 36.124 20.2637C36.4248 20.6556 36.835 20.8516 37.3545 20.8516C37.6917 20.8516 37.9902 20.7809 38.25 20.6396C38.5098 20.4938 38.6852 20.2705 38.7764 19.9697L40.5879 20.127C40.3372 20.7695 39.9202 21.2663 39.3369 21.6172C38.7536 21.9635 38.0609 22.1367 37.2588 22.1367ZM37.2588 15.6768C36.7894 15.6768 36.4157 15.8363 36.1377 16.1553C35.8597 16.4697 35.7116 16.9072 35.6934 17.4678H38.8379C38.806 16.9209 38.6488 16.4857 38.3662 16.1621C38.0882 15.8385 37.7191 15.6768 37.2588 15.6768ZM48.415 22H46.7471L45.7695 18.7803C45.6556 18.4157 45.5941 18.1833 45.585 18.083C45.5804 18.124 45.5553 18.2311 45.5098 18.4043C45.4642 18.5729 45.0859 19.7715 44.375 22H42.7139L41.4629 14.6035H43.0215L43.5889 18.7529C43.6755 19.4456 43.7188 19.9606 43.7188 20.2979L43.8555 19.792L44.9287 16.415H46.248L47.2051 19.5254C47.2734 19.7533 47.3395 20.0107 47.4033 20.2979C47.4033 20.0153 47.4261 19.6895 47.4717 19.3203C47.5173 18.9512 47.7497 17.3789 48.1689 14.6035H49.7139L48.415 22ZM61.2051 22.1367C60.4896 22.1367 59.9313 21.943 59.5303 21.5557C59.1292 21.1637 58.9287 20.6146 58.9287 19.9082C58.9287 19.1426 59.1657 18.5615 59.6396 18.165C60.1182 17.764 60.8314 17.5566 61.7793 17.543L63.3037 17.5156V17.1396C63.3037 16.6702 63.224 16.3148 63.0645 16.0732C62.9049 15.8317 62.6475 15.7109 62.292 15.7109C61.9593 15.7109 61.7132 15.7952 61.5537 15.9639C61.3988 16.1279 61.3031 16.3923 61.2666 16.7568L59.2637 16.6611C59.5098 15.1982 60.5465 14.4668 62.374 14.4668C63.2946 14.4668 63.9987 14.6924 64.4863 15.1436C64.9785 15.5947 65.2246 16.2578 65.2246 17.1328V19.8125C65.2246 20.2272 65.2702 20.5143 65.3613 20.6738C65.457 20.8288 65.6143 20.9062 65.833 20.9062C65.9788 20.9062 66.1201 20.8926 66.2568 20.8652V21.9043C66.1429 21.9316 66.0404 21.9567 65.9492 21.9795C65.8581 22.0023 65.7669 22.0205 65.6758 22.0342C65.5846 22.0479 65.4867 22.0592 65.3818 22.0684C65.2816 22.0775 65.1631 22.082 65.0264 22.082C64.5433 22.082 64.1855 21.9635 63.9531 21.7266C63.7253 21.4896 63.5885 21.141 63.543 20.6807H63.502C63.2148 21.1956 62.8867 21.5671 62.5176 21.7949C62.153 22.0228 61.7155 22.1367 61.2051 22.1367ZM63.3037 18.5752L62.3877 18.5889C61.9775 18.598 61.679 18.6413 61.4922 18.7188C61.3099 18.7917 61.1709 18.9124 61.0752 19.0811C60.9795 19.2451 60.9316 19.4707 60.9316 19.7578C60.9316 20.4505 61.2051 20.7969 61.752 20.7969C62.194 20.7969 62.5632 20.6237 62.8594 20.2773C63.1556 19.9264 63.3037 19.4844 63.3037 18.9512V18.5752ZM69.8252 22V19.915H71.8008V22H69.8252ZM69.8252 16.668V14.583H71.8008V16.668H69.8252ZM85.9785 24.9053V11.8555H90.0938V13.1543H87.7969V23.5996H90.0938V24.9053H85.9785Z"
    fill="white"
  />
  <path
    d="M107.52 27.0203L100.141 14.2398L114.899 14.2398L107.52 27.0203Z"
    fill="#E63535"
  />
  <path
    d="M131.561 27.0203L124.182 14.2398L138.94 14.2398L131.561 27.0203Z"
    fill="#6F54FF"
  />
  <path
    d="M155.602 27.0203L148.223 14.2398L162.981 14.2398L155.602 27.0203Z"
    fill="#D4289A"
  />
  <path
    d="M173.154 24.9053V23.5996H175.451V13.1543H173.154V11.8555H177.27V24.9053H173.154Z"
    fill="white"
  />
  <path
    d="M21.4541 50H19.1572L16.375 42.6035H18.4053L19.834 46.8555C19.9023 47.0833 20.0641 47.653 20.3193 48.5645C20.3467 48.4551 20.4287 48.1657 20.5654 47.6963C20.7067 47.2223 21.2878 45.5247 22.3086 42.6035H24.3184L21.4541 50ZM29.999 48.7012H32.4121V50H25.3779V48.7012H28.0781V43.9023H26.0957V42.6035H29.999V48.7012ZM28.0781 41.2705V39.8555H29.999V41.2705H28.0781ZM37.2588 50.1367C36.1104 50.1367 35.224 49.7995 34.5996 49.125C33.9753 48.446 33.6631 47.4935 33.6631 46.2676C33.6631 45.4473 33.8089 44.7546 34.1006 44.1895C34.3968 43.6243 34.8161 43.196 35.3584 42.9043C35.9007 42.6126 36.5433 42.4668 37.2861 42.4668C38.3662 42.4668 39.2048 42.8268 39.8018 43.5469C40.3988 44.2669 40.6973 45.29 40.6973 46.6162V46.6709H35.6797C35.6797 47.3408 35.8278 47.8717 36.124 48.2637C36.4248 48.6556 36.835 48.8516 37.3545 48.8516C37.6917 48.8516 37.9902 48.7809 38.25 48.6396C38.5098 48.4938 38.6852 48.2705 38.7764 47.9697L40.5879 48.127C40.3372 48.7695 39.9202 49.2663 39.3369 49.6172C38.7536 49.9635 38.0609 50.1367 37.2588 50.1367ZM37.2588 43.6768C36.7894 43.6768 36.4157 43.8363 36.1377 44.1553C35.8597 44.4697 35.7116 44.9072 35.6934 45.4678H38.8379C38.806 44.9209 38.6488 44.4857 38.3662 44.1621C38.0882 43.8385 37.7191 43.6768 37.2588 43.6768ZM48.415 50H46.7471L45.7695 46.7803C45.6556 46.4157 45.5941 46.1833 45.585 46.083C45.5804 46.124 45.5553 46.2311 45.5098 46.4043C45.4642 46.5729 45.0859 47.7715 44.375 50H42.7139L41.4629 42.6035H43.0215L43.5889 46.7529C43.6755 47.4456 43.7188 47.9606 43.7188 48.2979L43.8555 47.792L44.9287 44.415H46.248L47.2051 47.5254C47.2734 47.7533 47.3395 48.0107 47.4033 48.2979C47.4033 48.0153 47.4261 47.6895 47.4717 47.3203C47.5173 46.9512 47.7497 45.3789 48.1689 42.6035H49.7139L48.415 50ZM59.1611 50C59.1976 49.3802 59.2158 48.8424 59.2158 48.3867V39.8555H61.1367V42.5488L61.123 43.7656H61.1367C61.3236 43.3509 61.6038 43.0296 61.9775 42.8018C62.3558 42.5739 62.7979 42.46 63.3037 42.46C64.1514 42.46 64.8031 42.7949 65.2588 43.4648C65.7145 44.1348 65.9424 45.0827 65.9424 46.3086C65.9424 47.4661 65.7008 48.3936 65.2178 49.0908C64.7347 49.7881 64.0762 50.1367 63.2422 50.1367C62.7682 50.1367 62.3512 50.0251 61.9912 49.8018C61.6357 49.5739 61.3555 49.2389 61.1504 48.7969H61.123C61.123 48.9473 61.1117 49.1569 61.0889 49.4258C61.0706 49.6901 61.0479 49.8815 61.0205 50H59.1611ZM61.1094 46.2607C61.1094 46.8076 61.1686 47.2702 61.2871 47.6484C61.4102 48.0267 61.5811 48.3184 61.7998 48.5234C62.0231 48.724 62.2783 48.8242 62.5654 48.8242C63.0029 48.8242 63.3402 48.6146 63.5771 48.1953C63.8187 47.776 63.9395 47.1471 63.9395 46.3086C63.9395 45.4746 63.821 44.8434 63.584 44.415C63.3516 43.9821 63.0075 43.7656 62.5518 43.7656C62.1051 43.7656 61.752 43.9844 61.4922 44.4219C61.237 44.8594 61.1094 45.4723 61.1094 46.2607ZM69.8252 50V47.915H71.8008V50H69.8252ZM69.8252 44.668V42.583H71.8008V44.668H69.8252ZM85.9785 52.9053V39.8555H90.0938V41.1543H87.7969V51.5996H90.0938V52.9053H85.9785Z"
    fill="white"
  />
  <path
    d="M107.52 55.0203L100.141 42.2398L114.899 42.2398L107.52 55.0203Z"
    fill="#165DBD"
  />
  <path
    d="M131.561 55.0203L124.182 42.2398L138.94 42.2398L131.561 55.0203Z"
    fill="#6F54FF"
  />
  <path
    d="M155.602 55.0203L148.223 42.2398L162.981 42.2398L155.602 55.0203Z"
    fill="#D4289A"
  />
  <path
    d="M173.154 52.9053V51.5996H175.451V41.1543H173.154V39.8555H177.27V52.9053H173.154Z"
    fill="white"
  />
  <path
    d="M21.4541 78H19.1572L16.375 70.6035H18.4053L19.834 74.8555C19.9023 75.0833 20.0641 75.653 20.3193 76.5645C20.3467 76.4551 20.4287 76.1657 20.5654 75.6963C20.7067 75.2223 21.2878 73.5247 22.3086 70.6035H24.3184L21.4541 78ZM29.999 76.7012H32.4121V78H25.3779V76.7012H28.0781V71.9023H26.0957V70.6035H29.999V76.7012ZM28.0781 69.2705V67.8555H29.999V69.2705H28.0781ZM37.2588 78.1367C36.1104 78.1367 35.224 77.7995 34.5996 77.125C33.9753 76.446 33.6631 75.4935 33.6631 74.2676C33.6631 73.4473 33.8089 72.7546 34.1006 72.1895C34.3968 71.6243 34.8161 71.196 35.3584 70.9043C35.9007 70.6126 36.5433 70.4668 37.2861 70.4668C38.3662 70.4668 39.2048 70.8268 39.8018 71.5469C40.3988 72.2669 40.6973 73.29 40.6973 74.6162V74.6709H35.6797C35.6797 75.3408 35.8278 75.8717 36.124 76.2637C36.4248 76.6556 36.835 76.8516 37.3545 76.8516C37.6917 76.8516 37.9902 76.7809 38.25 76.6396C38.5098 76.4938 38.6852 76.2705 38.7764 75.9697L40.5879 76.127C40.3372 76.7695 39.9202 77.2663 39.3369 77.6172C38.7536 77.9635 38.0609 78.1367 37.2588 78.1367ZM37.2588 71.6768C36.7894 71.6768 36.4157 71.8363 36.1377 72.1553C35.8597 72.4697 35.7116 72.9072 35.6934 73.4678H38.8379C38.806 72.9209 38.6488 72.4857 38.3662 72.1621C38.0882 71.8385 37.7191 71.6768 37.2588 71.6768ZM48.415 78H46.7471L45.7695 74.7803C45.6556 74.4157 45.5941 74.1833 45.585 74.083C45.5804 74.124 45.5553 74.2311 45.5098 74.4043C45.4642 74.5729 45.0859 75.7715 44.375 78H42.7139L41.4629 70.6035H43.0215L43.5889 74.7529C43.6755 75.4456 43.7188 75.9606 43.7188 76.2979L43.8555 75.792L44.9287 72.415H46.248L47.2051 75.5254C47.2734 75.7533 47.3395 76.0107 47.4033 76.2979C47.4033 76.0153 47.4261 75.6895 47.4717 75.3203C47.5173 74.9512 47.7497 73.3789 48.1689 70.6035H49.7139L48.415 78ZM62.4697 78.1367C61.3486 78.1367 60.4827 77.804 59.8721 77.1387C59.2614 76.4688 58.9561 75.5368 58.9561 74.3428C58.9561 73.1214 59.2637 72.1712 59.8789 71.4922C60.4941 70.8086 61.3669 70.4668 62.4971 70.4668C63.3675 70.4668 64.0876 70.6855 64.6572 71.123C65.2269 71.5605 65.5846 72.1644 65.7305 72.9346L63.7959 73.0303C63.7412 72.652 63.6045 72.3512 63.3857 72.1279C63.167 71.9001 62.8571 71.7861 62.4561 71.7861C61.4671 71.7861 60.9727 72.6133 60.9727 74.2676C60.9727 75.972 61.4762 76.8242 62.4834 76.8242C62.848 76.8242 63.1533 76.7103 63.3994 76.4824C63.6455 76.25 63.7982 75.9059 63.8574 75.4502L65.7852 75.5391C65.7168 76.0449 65.5345 76.4961 65.2383 76.8926C64.9466 77.2891 64.5615 77.5967 64.083 77.8154C63.6045 78.0296 63.0667 78.1367 62.4697 78.1367ZM69.8252 78V75.915H71.8008V78H69.8252ZM69.8252 72.668V70.583H71.8008V72.668H69.8252ZM85.9785 80.9053V67.8555H90.0938V69.1543H87.7969V79.5996H90.0938V80.9053H85.9785Z"
    fill="white"
  />
  <path
    d="M107.52 83.0203L100.141 70.2398L114.899 70.2398L107.52 83.0203Z"
    fill="#165DBD"
  />
  <path
    d="M131.561 83.0203L124.182 70.2398L138.94 70.2398L131.561 83.0203Z"
    fill="#E63535"
  />
  <path
    d="M155.602 83.0203L148.223 70.2398L162.981 70.2398L155.602 83.0203Z"
    fill="#D4289A"
  />
  <path
    d="M173.154 80.9053V79.5996H175.451V69.1543H173.154V67.8555H177.27V80.9053H173.154Z"
    fill="white"
  />
  <path
    d="M21.4541 106H19.1572L16.375 98.6035H18.4053L19.834 102.855C19.9023 103.083 20.0641 103.653 20.3193 104.564C20.3467 104.455 20.4287 104.166 20.5654 103.696C20.7067 103.222 21.2878 101.525 22.3086 98.6035H24.3184L21.4541 106ZM29.999 104.701H32.4121V106H25.3779V104.701H28.0781V99.9023H26.0957V98.6035H29.999V104.701ZM28.0781 97.2705V95.8555H29.999V97.2705H28.0781ZM37.2588 106.137C36.1104 106.137 35.224 105.799 34.5996 105.125C33.9753 104.446 33.6631 103.493 33.6631 102.268C33.6631 101.447 33.8089 100.755 34.1006 100.189C34.3968 99.6243 34.8161 99.196 35.3584 98.9043C35.9007 98.6126 36.5433 98.4668 37.2861 98.4668C38.3662 98.4668 39.2048 98.8268 39.8018 99.5469C40.3988 100.267 40.6973 101.29 40.6973 102.616V102.671H35.6797C35.6797 103.341 35.8278 103.872 36.124 104.264C36.4248 104.656 36.835 104.852 37.3545 104.852C37.6917 104.852 37.9902 104.781 38.25 104.64C38.5098 104.494 38.6852 104.271 38.7764 103.97L40.5879 104.127C40.3372 104.77 39.9202 105.266 39.3369 105.617C38.7536 105.964 38.0609 106.137 37.2588 106.137ZM37.2588 99.6768C36.7894 99.6768 36.4157 99.8363 36.1377 100.155C35.8597 100.47 35.7116 100.907 35.6934 101.468H38.8379C38.806 100.921 38.6488 100.486 38.3662 100.162C38.0882 99.8385 37.7191 99.6768 37.2588 99.6768ZM48.415 106H46.7471L45.7695 102.78C45.6556 102.416 45.5941 102.183 45.585 102.083C45.5804 102.124 45.5553 102.231 45.5098 102.404C45.4642 102.573 45.0859 103.771 44.375 106H42.7139L41.4629 98.6035H43.0215L43.5889 102.753C43.6755 103.446 43.7188 103.961 43.7188 104.298L43.8555 103.792L44.9287 100.415H46.248L47.2051 103.525C47.2734 103.753 47.3395 104.011 47.4033 104.298C47.4033 104.015 47.4261 103.689 47.4717 103.32C47.5173 102.951 47.7497 101.379 48.1689 98.6035H49.7139L48.415 106ZM63.7891 106C63.7708 105.932 63.748 105.761 63.7207 105.487C63.6979 105.209 63.6865 104.979 63.6865 104.797H63.6592C63.4176 105.285 63.1191 105.631 62.7637 105.836C62.4082 106.036 61.9867 106.137 61.499 106.137C60.6833 106.137 60.0407 105.795 59.5713 105.111C59.1019 104.428 58.8672 103.496 58.8672 102.315C58.8672 101.108 59.1019 100.167 59.5713 99.4922C60.0452 98.8177 60.7129 98.4805 61.5742 98.4805C62.0618 98.4805 62.4857 98.5921 62.8457 98.8154C63.2057 99.0342 63.4814 99.3577 63.6729 99.7861H63.6865L63.6729 98.5693V95.8555H65.5938V104.387C65.5938 104.842 65.612 105.38 65.6484 106H63.7891ZM63.7002 102.268C63.7002 101.479 63.5726 100.868 63.3174 100.436C63.0622 100.003 62.709 99.7861 62.2578 99.7861C61.8021 99.7861 61.4557 100 61.2188 100.429C60.9863 100.853 60.8701 101.481 60.8701 102.315C60.8701 103.154 60.9886 103.783 61.2256 104.202C61.4671 104.617 61.8066 104.824 62.2441 104.824C62.5267 104.824 62.7796 104.724 63.0029 104.523C63.2262 104.318 63.3971 104.027 63.5156 103.648C63.6387 103.27 63.7002 102.81 63.7002 102.268ZM69.8252 106V103.915H71.8008V106H69.8252ZM69.8252 100.668V98.583H71.8008V100.668H69.8252ZM85.9785 108.905V95.8555H90.0938V97.1543H87.7969V107.6H90.0938V108.905H85.9785Z"
    fill="white"
  />
  <path
    d="M107.52 111.02L100.141 98.2398L114.899 98.2398L107.52 111.02Z"
    fill="#165DBD"
  />
  <path
    d="M131.561 111.02L124.182 98.2398L138.94 98.2398L131.561 111.02Z"
    fill="#E63535"
  />
  <path
    d="M155.602 111.02L148.223 98.2398L162.981 98.2398L155.602 111.02Z"
    fill="#6F54FF"
  />
  <path
    d="M173.154 108.905V107.6H175.451V97.1543H173.154V95.8555H177.27V108.905H173.154Z"
    fill="white"
  />
</svg>
