<svg
  width="439"
  height="435"
  viewBox="0 0 439 435"
  fill="none"
  xmlns="http://www.w3.org/2000/svg"
>
  <g clip-path="url(#clip0_1014_82497)">
    <rect
      x="113.615"
      y="106.703"
      width="203.844"
      height="204.797"
      rx="8"
      fill="#1F1D2B"
    />
    <rect
      x="142.747"
      y="135.971"
      width="145.581"
      height="146.261"
      rx="8"
      fill="#2B2F40"
    />
    <path d="M208.431 252.639L180.376 209.468" stroke="white" />
    <path
      d="M299.959 114.28V123.151L307.458 126.502L299.959 114.28Z"
      fill="#F7F8F7"
    />
    <path
      d="M299.959 114.28L292.459 126.502L299.959 123.151V114.28Z"
      fill="white"
    />
    <path
      d="M299.959 132.251V138.28L307.463 127.898L299.959 132.251Z"
      fill="#F7F8F7"
    />
    <path
      d="M299.959 138.28V132.25L292.459 127.898L299.959 138.28Z"
      fill="white"
    />
    <path
      d="M299.959 130.856L307.458 126.502L299.959 123.153V130.856Z"
      fill="#E2E5EB"
    />
    <path
      d="M292.459 126.502L299.959 130.856V123.153L292.459 126.502Z"
      fill="#F7F8F7"
    />
    <path d="M172.209 252.283L164.041 235.87" stroke="white" />
    <path d="M188.901 252.639L197.069 237.297" stroke="white" />
    <path d="M154.097 252.996L215.889 148.814L276.971 252.996" stroke="white" />
    <ellipse
      cx="179.665"
      cy="209.468"
      rx="5.68206"
      ry="5.70862"
      fill="#5093ED"
    />
    <ellipse cx="252.113" cy="209.468" rx="5.68206" ry="5.70862" fill="white" />
    <ellipse
      cx="164.041"
      cy="236.584"
      rx="5.68206"
      ry="5.70862"
      fill="#81B3F6"
    />
    <ellipse
      cx="197.777"
      cy="236.584"
      rx="5.68206"
      ry="5.70862"
      fill="#81B3F6"
    />
    <ellipse cx="234.356" cy="236.584" rx="5.68206" ry="5.70862" fill="white" />
    <ellipse cx="266.673" cy="236.584" rx="5.68206" ry="5.70862" fill="white" />
    <ellipse
      cx="154.807"
      cy="251.569"
      rx="5.68206"
      ry="5.70862"
      fill="#B8D6FF"
    />
    <ellipse
      cx="172.807"
      cy="251.569"
      rx="5.68206"
      ry="5.70862"
      fill="#B8D6FF"
    />
    <ellipse
      cx="189.321"
      cy="251.569"
      rx="5.68206"
      ry="5.70862"
      fill="#B8D6FF"
    />
    <ellipse
      cx="208.076"
      cy="251.569"
      rx="5.68206"
      ry="5.70862"
      fill="#B8D6FF"
    />
    <ellipse cx="225.833" cy="251.569" rx="5.68206" ry="5.70862" fill="white" />
    <ellipse cx="242.168" cy="251.569" rx="5.68206" ry="5.70862" fill="white" />
    <ellipse cx="258.503" cy="251.569" rx="5.68206" ry="5.70862" fill="white" />
    <ellipse cx="276.26" cy="251.569" rx="5.68206" ry="5.70862" fill="white" />
    <path d="M225.479 252.282L251.758 210.181" stroke="white" />
    <path d="M242.701 252.639L234.533 236.227" stroke="white" />
    <path d="M257.795 252.639L265.963 237.297" stroke="white" />
    <path
      d="M154.31 154.436C153.492 154.436 152.854 154.214 152.396 153.772C151.937 153.324 151.708 152.696 151.708 151.889C151.708 151.014 151.979 150.35 152.521 149.897C153.067 149.438 153.882 149.201 154.966 149.186L156.708 149.155V148.725C156.708 148.188 156.617 147.782 156.435 147.506C156.252 147.23 155.958 147.092 155.552 147.092C155.172 147.092 154.89 147.188 154.708 147.381C154.531 147.569 154.422 147.871 154.38 148.287L152.091 148.178C152.372 146.506 153.557 145.67 155.646 145.67C156.698 145.67 157.502 145.928 158.06 146.444C158.622 146.959 158.903 147.717 158.903 148.717V151.78C158.903 152.253 158.955 152.582 159.06 152.764C159.169 152.941 159.349 153.03 159.599 153.03C159.765 153.03 159.927 153.014 160.083 152.983V154.17C159.953 154.201 159.836 154.23 159.731 154.256C159.627 154.282 159.523 154.303 159.419 154.319C159.315 154.334 159.203 154.347 159.083 154.358C158.968 154.368 158.833 154.373 158.677 154.373C158.125 154.373 157.716 154.238 157.45 153.967C157.19 153.696 157.034 153.298 156.981 152.772H156.935C156.606 153.36 156.231 153.785 155.81 154.045C155.393 154.306 154.893 154.436 154.31 154.436ZM156.708 150.365L155.661 150.381C155.192 150.392 154.851 150.441 154.638 150.53C154.429 150.613 154.271 150.751 154.161 150.944C154.052 151.131 153.997 151.389 153.997 151.717C153.997 152.509 154.31 152.905 154.935 152.905C155.44 152.905 155.862 152.707 156.2 152.311C156.539 151.91 156.708 151.405 156.708 150.795V150.365Z"
      fill="white"
    />
    <rect
      x="113.615"
      y="106.703"
      width="203.844"
      height="204.797"
      rx="8"
      fill="#1F1D2B"
    />
    <rect
      x="142.747"
      y="135.971"
      width="145.581"
      height="146.261"
      rx="8"
      fill="#2B2F40"
    />
    <path d="M208.431 252.639L180.376 209.468" stroke="white" />
    <path
      d="M299.959 114.28V123.151L307.458 126.502L299.959 114.28Z"
      fill="#5C96E4"
    />
    <path
      d="M299.959 114.28L292.459 126.502L299.959 123.151V114.28Z"
      fill="#3D7BCE"
    />
    <path
      d="M299.959 132.251V138.28L307.463 127.898L299.959 132.251Z"
      fill="#5C96E4"
    />
    <path
      d="M299.959 138.28V132.25L292.459 127.898L299.959 138.28Z"
      fill="#3D7BCE"
    />
    <path
      d="M299.959 130.856L307.458 126.502L299.959 123.153V130.856Z"
      fill="#83B7FC"
    />
    <path
      d="M292.459 126.502L299.959 130.856V123.153L292.459 126.502Z"
      fill="#5C96E4"
    />
    <path d="M172.209 252.283L164.041 235.87" stroke="white" />
    <path d="M188.901 252.639L197.069 237.297" stroke="white" />
    <path d="M154.097 252.996L215.889 148.814L276.971 252.996" stroke="white" />
    <ellipse
      cx="179.665"
      cy="209.468"
      rx="5.68206"
      ry="5.70862"
      fill="#5093ED"
    />
    <ellipse cx="252.113" cy="209.468" rx="5.68206" ry="5.70862" fill="white" />
    <ellipse
      cx="164.041"
      cy="236.584"
      rx="5.68206"
      ry="5.70862"
      fill="#81B3F6"
    />
    <ellipse
      cx="197.777"
      cy="236.584"
      rx="5.68206"
      ry="5.70862"
      fill="#81B3F6"
    />
    <ellipse cx="234.356" cy="236.584" rx="5.68206" ry="5.70862" fill="white" />
    <ellipse cx="266.673" cy="236.584" rx="5.68206" ry="5.70862" fill="white" />
    <ellipse
      cx="154.807"
      cy="251.569"
      rx="5.68206"
      ry="5.70862"
      fill="#B8D6FF"
    />
    <ellipse
      cx="172.807"
      cy="251.569"
      rx="5.68206"
      ry="5.70862"
      fill="#B8D6FF"
    />
    <ellipse
      cx="189.321"
      cy="251.569"
      rx="5.68206"
      ry="5.70862"
      fill="#B8D6FF"
    />
    <ellipse
      cx="208.076"
      cy="251.569"
      rx="5.68206"
      ry="5.70862"
      fill="#B8D6FF"
    />
    <ellipse cx="225.833" cy="251.569" rx="5.68206" ry="5.70862" fill="white" />
    <ellipse cx="242.168" cy="251.569" rx="5.68206" ry="5.70862" fill="white" />
    <ellipse cx="258.503" cy="251.569" rx="5.68206" ry="5.70862" fill="white" />
    <ellipse cx="276.26" cy="251.569" rx="5.68206" ry="5.70862" fill="white" />
    <path d="M225.479 252.282L251.758 210.181" stroke="white" />
    <path d="M242.701 252.639L234.533 236.227" stroke="white" />
    <path d="M257.795 252.639L265.963 237.297" stroke="white" />
    <path
      d="M154.31 154.436C153.492 154.436 152.854 154.214 152.396 153.772C151.937 153.324 151.708 152.696 151.708 151.889C151.708 151.014 151.979 150.35 152.521 149.897C153.067 149.438 153.882 149.201 154.966 149.186L156.708 149.155V148.725C156.708 148.188 156.617 147.782 156.435 147.506C156.252 147.23 155.958 147.092 155.552 147.092C155.172 147.092 154.89 147.188 154.708 147.381C154.531 147.569 154.422 147.871 154.38 148.287L152.091 148.178C152.372 146.506 153.557 145.67 155.646 145.67C156.698 145.67 157.502 145.928 158.06 146.444C158.622 146.959 158.903 147.717 158.903 148.717V151.78C158.903 152.253 158.955 152.582 159.06 152.764C159.169 152.941 159.349 153.03 159.599 153.03C159.765 153.03 159.927 153.014 160.083 152.983V154.17C159.953 154.201 159.836 154.23 159.731 154.256C159.627 154.282 159.523 154.303 159.419 154.319C159.315 154.334 159.203 154.347 159.083 154.358C158.968 154.368 158.833 154.373 158.677 154.373C158.125 154.373 157.716 154.238 157.45 153.967C157.19 153.696 157.034 153.298 156.981 152.772H156.935C156.606 153.36 156.231 153.785 155.81 154.045C155.393 154.306 154.893 154.436 154.31 154.436ZM156.708 150.365L155.661 150.381C155.192 150.392 154.851 150.441 154.638 150.53C154.429 150.613 154.271 150.751 154.161 150.944C154.052 151.131 153.997 151.389 153.997 151.717C153.997 152.509 154.31 152.905 154.935 152.905C155.44 152.905 155.862 152.707 156.2 152.311C156.539 151.91 156.708 151.405 156.708 150.795V150.365Z"
      fill="white"
    />
    <path
      d="M215.534 160.156L208.155 147.375L222.913 147.375L215.534 160.156Z"
      fill="#165DBD"
    />
  </g>
  <defs>
    <clipPath id="clip0_1014_82497">
      <rect x="0.458984" width="438" height="435" rx="8" fill="white" />
    </clipPath>
  </defs>
</svg>
