<svg width="438" height="435" viewBox="0 0 438 435" fill="none" xmlns="http://www.w3.org/2000/svg">
  <g clip-path="url(#clip0_1014_82497)">
    <rect x="113.156" y="106.703" width="203.844" height="204.797" rx="8" fill="#1F1D2B" />
    <rect x="142.288" y="135.971" width="145.581" height="146.261" rx="8" fill="#2B2F40" />
    <path d="M207.972 252.639L179.917 209.468" stroke="#4E5463" />
    <path d="M299.5 114.28V123.151L306.998 126.502L299.5 114.28Z" fill="#F7F8F7" />
    <path d="M299.5 114.28L292 126.502L299.5 123.151V114.28Z" fill="white" />
    <path d="M299.5 132.251V138.28L307.003 127.898L299.5 132.251Z" fill="#F7F8F7" />
    <path d="M299.5 138.28V132.25L292 127.898L299.5 138.28Z" fill="white" />
    <path d="M299.5 130.856L306.998 126.502L299.5 123.153V130.856Z" fill="#E2E5EB" />
    <path d="M292 126.502L299.5 130.856V123.153L292 126.502Z" fill="#F7F8F7" />
    <path d="M171.75 252.283L163.582 235.87" stroke="#4E5463" />
    <path d="M188.442 252.639L196.61 237.297" stroke="#4E5463" />
    <path d="M153.638 252.996L215.43 148.814L276.512 252.996" stroke="#4E5463" />
    <ellipse cx="179.206" cy="209.468" rx="5.68206" ry="5.70862" fill="#5093ED" />
    <ellipse cx="251.654" cy="209.468" rx="5.68206" ry="5.70862" fill="#4E5463" />
    <ellipse cx="163.582" cy="236.584" rx="5.68206" ry="5.70862" fill="#81B3F6" />
    <ellipse cx="197.318" cy="236.584" rx="5.68206" ry="5.70862" fill="#81B3F6" />
    <ellipse cx="233.897" cy="236.584" rx="5.68206" ry="5.70862" fill="#4E5463" />
    <ellipse cx="266.214" cy="236.584" rx="5.68206" ry="5.70862" fill="#4E5463" />
    <ellipse cx="154.348" cy="251.569" rx="5.68206" ry="5.70862" fill="#B8D6FF" />
    <ellipse cx="172.348" cy="251.569" rx="5.68206" ry="5.70862" fill="#B8D6FF" />
    <ellipse cx="188.862" cy="251.569" rx="5.68206" ry="5.70862" fill="#B8D6FF" />
    <ellipse cx="207.617" cy="251.569" rx="5.68206" ry="5.70862" fill="#B8D6FF" />
    <ellipse cx="225.374" cy="251.569" rx="5.68206" ry="5.70862" fill="#4E5463" />
    <ellipse cx="241.709" cy="251.569" rx="5.68206" ry="5.70862" fill="#4E5463" />
    <ellipse cx="258.045" cy="251.569" rx="5.68206" ry="5.70862" fill="#4E5463" />
    <ellipse cx="275.801" cy="251.569" rx="5.68206" ry="5.70862" fill="#4E5463" />
    <path d="M225.02 252.282L251.299 210.181" stroke="#4E5463" />
    <path d="M242.242 252.639L234.074 236.227" stroke="#4E5463" />
    <path d="M257.336 252.639L265.504 237.297" stroke="#4E5463" />
    <path
      d="M153.851 154.436C153.033 154.436 152.395 154.214 151.937 153.772C151.478 153.324 151.249 152.696 151.249 151.889C151.249 151.014 151.52 150.35 152.062 149.897C152.608 149.438 153.424 149.201 154.507 149.186L156.249 149.155V148.725C156.249 148.188 156.158 147.782 155.976 147.506C155.793 147.23 155.499 147.092 155.093 147.092C154.713 147.092 154.431 147.188 154.249 147.381C154.072 147.569 153.963 147.871 153.921 148.287L151.632 148.178C151.913 146.506 153.098 145.67 155.187 145.67C156.239 145.67 157.043 145.928 157.601 146.444C158.163 146.959 158.444 147.717 158.444 148.717V151.78C158.444 152.253 158.496 152.582 158.601 152.764C158.71 152.941 158.89 153.03 159.14 153.03C159.306 153.03 159.468 153.014 159.624 152.983V154.17C159.494 154.201 159.377 154.23 159.272 154.256C159.168 154.282 159.064 154.303 158.96 154.319C158.856 154.334 158.744 154.347 158.624 154.358C158.509 154.368 158.374 154.373 158.218 154.373C157.666 154.373 157.257 154.238 156.991 153.967C156.731 153.696 156.575 153.298 156.522 152.772H156.476C156.147 153.36 155.772 153.785 155.351 154.045C154.934 154.306 154.434 154.436 153.851 154.436ZM156.249 150.365L155.202 150.381C154.733 150.392 154.392 150.441 154.179 150.53C153.97 150.613 153.812 150.751 153.702 150.944C153.593 151.131 153.538 151.389 153.538 151.717C153.538 152.509 153.851 152.905 154.476 152.905C154.981 152.905 155.403 152.707 155.741 152.311C156.08 151.91 156.249 151.405 156.249 150.795V150.365Z"
      fill="white" />
    <rect x="113.156" y="106.703" width="203.844" height="204.797" rx="8" fill="#1F1D2B" />
    <rect x="142.288" y="135.971" width="145.581" height="146.261" rx="8" fill="#2B2F40" />
    <path d="M207.972 252.639L179.917 209.468" stroke="#4E5463" />
    <path d="M299.5 114.28V123.151L306.998 126.502L299.5 114.28Z" fill="#5C96E4" />
    <path d="M299.5 114.28L292 126.502L299.5 123.151V114.28Z" fill="#3D7BCE" />
    <path d="M299.5 132.251V138.28L307.003 127.898L299.5 132.251Z" fill="#5C96E4" />
    <path d="M299.5 138.28V132.25L292 127.898L299.5 138.28Z" fill="#3D7BCE" />
    <path d="M299.5 130.856L306.998 126.502L299.5 123.153V130.856Z" fill="#83B7FC" />
    <path d="M292 126.502L299.5 130.856V123.153L292 126.502Z" fill="#5C96E4" />
    <path d="M171.75 252.283L163.582 235.87" stroke="#4E5463" />
    <path d="M188.442 252.639L196.61 237.297" stroke="#4E5463" />
    <path d="M153.638 252.996L215.43 148.814L276.512 252.996" stroke="#4E5463" />
    <ellipse cx="179.206" cy="209.468" rx="5.68206" ry="5.70862" fill="#5093ED" />
    <ellipse cx="251.654" cy="209.468" rx="5.68206" ry="5.70862" fill="#4E5463" />
    <ellipse cx="163.582" cy="236.584" rx="5.68206" ry="5.70862" fill="#81B3F6" />
    <ellipse cx="197.318" cy="236.584" rx="5.68206" ry="5.70862" fill="#81B3F6" />
    <ellipse cx="233.897" cy="236.584" rx="5.68206" ry="5.70862" fill="#4E5463" />
    <ellipse cx="266.214" cy="236.584" rx="5.68206" ry="5.70862" fill="#4E5463" />
    <ellipse cx="154.348" cy="251.569" rx="5.68206" ry="5.70862" fill="#B8D6FF" />
    <ellipse cx="172.348" cy="251.569" rx="5.68206" ry="5.70862" fill="#B8D6FF" />
    <ellipse cx="188.862" cy="251.569" rx="5.68206" ry="5.70862" fill="#B8D6FF" />
    <ellipse cx="207.617" cy="251.569" rx="5.68206" ry="5.70862" fill="#B8D6FF" />
    <ellipse cx="225.374" cy="251.569" rx="5.68206" ry="5.70862" fill="#4E5463" />
    <ellipse cx="241.709" cy="251.569" rx="5.68206" ry="5.70862" fill="#4E5463" />
    <ellipse cx="258.045" cy="251.569" rx="5.68206" ry="5.70862" fill="#4E5463" />
    <ellipse cx="275.801" cy="251.569" rx="5.68206" ry="5.70862" fill="#4E5463" />
    <path d="M225.02 252.282L251.299 210.181" stroke="#4E5463" />
    <path d="M242.242 252.639L234.074 236.227" stroke="#4E5463" />
    <path d="M257.336 252.639L265.504 237.297" stroke="#4E5463" />
    <path
      d="M153.851 154.436C153.033 154.436 152.395 154.214 151.937 153.772C151.478 153.324 151.249 152.696 151.249 151.889C151.249 151.014 151.52 150.35 152.062 149.897C152.608 149.438 153.424 149.201 154.507 149.186L156.249 149.155V148.725C156.249 148.188 156.158 147.782 155.976 147.506C155.793 147.23 155.499 147.092 155.093 147.092C154.713 147.092 154.431 147.188 154.249 147.381C154.072 147.569 153.963 147.871 153.921 148.287L151.632 148.178C151.913 146.506 153.098 145.67 155.187 145.67C156.239 145.67 157.043 145.928 157.601 146.444C158.163 146.959 158.444 147.717 158.444 148.717V151.78C158.444 152.253 158.496 152.582 158.601 152.764C158.71 152.941 158.89 153.03 159.14 153.03C159.306 153.03 159.468 153.014 159.624 152.983V154.17C159.494 154.201 159.377 154.23 159.272 154.256C159.168 154.282 159.064 154.303 158.96 154.319C158.856 154.334 158.744 154.347 158.624 154.358C158.509 154.368 158.374 154.373 158.218 154.373C157.666 154.373 157.257 154.238 156.991 153.967C156.731 153.696 156.575 153.298 156.522 152.772H156.476C156.147 153.36 155.772 153.785 155.351 154.045C154.934 154.306 154.434 154.436 153.851 154.436ZM156.249 150.365L155.202 150.381C154.733 150.392 154.392 150.441 154.179 150.53C153.97 150.613 153.812 150.751 153.702 150.944C153.593 151.131 153.538 151.389 153.538 151.717C153.538 152.509 153.851 152.905 154.476 152.905C154.981 152.905 155.403 152.707 155.741 152.311C156.08 151.91 156.249 151.405 156.249 150.795V150.365Z"
      fill="white" />
    <path d="M215.075 160.156L207.696 147.375L222.454 147.375L215.075 160.156Z" fill="#165DBD" />
  </g>
  <defs>
    <clipPath id="clip0_1014_82497">
      <rect width="438" height="435" rx="8" fill="white" />
    </clipPath>
  </defs>
</svg>
