<svg width="402" height="66" viewBox="0 0 402 66" fill="none" xmlns="http://www.w3.org/2000/svg">
  <rect width="402" height="66" rx="8" fill="#1F1D2B" />
  <path
    d="M21.4541 22H19.1572L16.375 14.6035H18.4053L19.834 18.8555C19.9023 19.0833 20.0641 19.653 20.3193 20.5645C20.3467 20.4551 20.4287 20.1657 20.5654 19.6963C20.7067 19.2223 21.2878 17.5247 22.3086 14.6035H24.3184L21.4541 22ZM29.999 20.7012H32.4121V22H25.3779V20.7012H28.0781V15.9023H26.0957V14.6035H29.999V20.7012ZM28.0781 13.2705V11.8555H29.999V13.2705H28.0781ZM37.2588 22.1367C36.1104 22.1367 35.224 21.7995 34.5996 21.125C33.9753 20.446 33.6631 19.4935 33.6631 18.2676C33.6631 17.4473 33.8089 16.7546 34.1006 16.1895C34.3968 15.6243 34.8161 15.196 35.3584 14.9043C35.9007 14.6126 36.5433 14.4668 37.2861 14.4668C38.3662 14.4668 39.2048 14.8268 39.8018 15.5469C40.3988 16.2669 40.6973 17.29 40.6973 18.6162V18.6709H35.6797C35.6797 19.3408 35.8278 19.8717 36.124 20.2637C36.4248 20.6556 36.835 20.8516 37.3545 20.8516C37.6917 20.8516 37.9902 20.7809 38.25 20.6396C38.5098 20.4938 38.6852 20.2705 38.7764 19.9697L40.5879 20.127C40.3372 20.7695 39.9202 21.2663 39.3369 21.6172C38.7536 21.9635 38.0609 22.1367 37.2588 22.1367ZM37.2588 15.6768C36.7894 15.6768 36.4157 15.8363 36.1377 16.1553C35.8597 16.4697 35.7116 16.9072 35.6934 17.4678H38.8379C38.806 16.9209 38.6488 16.4857 38.3662 16.1621C38.0882 15.8385 37.7191 15.6768 37.2588 15.6768ZM48.415 22H46.7471L45.7695 18.7803C45.6556 18.4157 45.5941 18.1833 45.585 18.083C45.5804 18.124 45.5553 18.2311 45.5098 18.4043C45.4642 18.5729 45.0859 19.7715 44.375 22H42.7139L41.4629 14.6035H43.0215L43.5889 18.7529C43.6755 19.4456 43.7188 19.9606 43.7188 20.2979L43.8555 19.792L44.9287 16.415H46.248L47.2051 19.5254C47.2734 19.7533 47.3395 20.0107 47.4033 20.2979C47.4033 20.0153 47.4261 19.6895 47.4717 19.3203C47.5173 18.9512 47.7497 17.3789 48.1689 14.6035H49.7139L48.415 22ZM62.4697 22.1367C61.3486 22.1367 60.4827 21.804 59.8721 21.1387C59.2614 20.4688 58.9561 19.5368 58.9561 18.3428C58.9561 17.1214 59.2637 16.1712 59.8789 15.4922C60.4941 14.8086 61.3669 14.4668 62.4971 14.4668C63.3675 14.4668 64.0876 14.6855 64.6572 15.123C65.2269 15.5605 65.5846 16.1644 65.7305 16.9346L63.7959 17.0303C63.7412 16.652 63.6045 16.3512 63.3857 16.1279C63.167 15.9001 62.8571 15.7861 62.4561 15.7861C61.4671 15.7861 60.9727 16.6133 60.9727 18.2676C60.9727 19.972 61.4762 20.8242 62.4834 20.8242C62.848 20.8242 63.1533 20.7103 63.3994 20.4824C63.6455 20.25 63.7982 19.9059 63.8574 19.4502L65.7852 19.5391C65.7168 20.0449 65.5345 20.4961 65.2383 20.8926C64.9466 21.2891 64.5615 21.5967 64.083 21.8154C63.6045 22.0296 63.0667 22.1367 62.4697 22.1367ZM69.8252 22V19.915H71.8008V22H69.8252ZM69.8252 16.668V14.583H71.8008V16.668H69.8252ZM85.9785 24.9053V11.8555H90.0938V13.1543H87.7969V23.5996H90.0938V24.9053H85.9785Z"
    fill="white" />
  <path d="M112.734 15.4898L107.52 24.5203L102.306 15.4898L112.734 15.4898Z" fill="#181F2B"
    stroke="#165DBD" stroke-width="2.5" />
  <path d="M131.561 27.0203L124.182 14.2398L138.94 14.2398L131.561 27.0203Z" fill="#E63535" />
  <path d="M160.816 15.4898L155.602 24.5203L150.388 15.4898L160.816 15.4898Z" fill="#422417"
    stroke="#D4289A" stroke-width="2.5" />
  <path d="M173.154 24.9053V23.5996H175.451V13.1543H173.154V11.8555H177.27V24.9053H173.154Z"
    fill="white" />
  <path
    d="M25.6141 47.5C25.6141 49.694 23.846 51.4586 21.6821 51.4586C19.5181 51.4586 17.75 49.694 17.75 47.5C17.75 45.306 19.5181 43.5414 21.6821 43.5414C23.846 43.5414 25.6141 45.306 25.6141 47.5Z"
    fill="#181F2B" stroke="#FFBDE9" stroke-width="3.5" />
  <path
    d="M35.3096 45.2441V43.7197H42.3301V45.2441H35.3096ZM35.3096 49.0107V47.5H42.3301V49.0107H35.3096ZM55.749 40.8555L54.5938 45.1074H52.3721L54.498 40.8555H55.749ZM58.8867 40.8555L57.7314 45.1074H55.5098L57.6357 40.8555H58.8867ZM64.3076 44.9023V51H62.3936V44.9023H60.6436V43.6035H62.3936V43.0361C62.3936 42.2432 62.6419 41.6484 63.1387 41.252C63.64 40.8509 64.3532 40.6504 65.2783 40.6504C66.0029 40.6504 66.748 40.7142 67.5137 40.8418V42.0996C66.8301 42.013 66.1966 41.9697 65.6133 41.9697C65.1667 41.9697 64.8363 42.0632 64.6221 42.25C64.4124 42.4323 64.3076 42.7536 64.3076 43.2139V43.6035H67.3359V44.9023H64.3076ZM76.0244 47.2949C76.0244 48.5208 75.7145 49.4688 75.0947 50.1387C74.4749 50.804 73.584 51.1367 72.4219 51.1367C71.3008 51.1367 70.4303 50.804 69.8105 50.1387C69.1908 49.4688 68.8809 48.5208 68.8809 47.2949C68.8809 46.0736 69.1885 45.1302 69.8037 44.4648C70.4189 43.7995 71.3053 43.4668 72.4629 43.4668C74.8372 43.4668 76.0244 44.7428 76.0244 47.2949ZM74.0146 47.2949C74.0146 46.4199 73.8984 45.7842 73.666 45.3877C73.4336 44.9867 73.0417 44.7861 72.4902 44.7861C71.9251 44.7861 71.5173 44.9867 71.2666 45.3877C71.0205 45.7887 70.8975 46.4245 70.8975 47.2949C70.8975 48.1745 71.0228 48.8171 71.2734 49.2227C71.5286 49.6237 71.9046 49.8242 72.4014 49.8242C72.9665 49.8242 73.3766 49.626 73.6318 49.2295C73.887 48.8285 74.0146 48.1836 74.0146 47.2949ZM84.4326 47.2949C84.4326 48.5208 84.1227 49.4688 83.5029 50.1387C82.8831 50.804 81.9922 51.1367 80.8301 51.1367C79.709 51.1367 78.8385 50.804 78.2188 50.1387C77.599 49.4688 77.2891 48.5208 77.2891 47.2949C77.2891 46.0736 77.5967 45.1302 78.2119 44.4648C78.8271 43.7995 79.7135 43.4668 80.8711 43.4668C83.2454 43.4668 84.4326 44.7428 84.4326 47.2949ZM82.4229 47.2949C82.4229 46.4199 82.3066 45.7842 82.0742 45.3877C81.8418 44.9867 81.4499 44.7861 80.8984 44.7861C80.3333 44.7861 79.9255 44.9867 79.6748 45.3877C79.4287 45.7887 79.3057 46.4245 79.3057 47.2949C79.3057 48.1745 79.431 48.8171 79.6816 49.2227C79.9368 49.6237 80.3128 49.8242 80.8096 49.8242C81.3747 49.8242 81.7848 49.626 82.04 49.2295C82.2952 48.8285 82.4229 48.1836 82.4229 47.2949ZM94.4336 51C94.4701 50.3802 94.4883 49.8424 94.4883 49.3867V40.8555H96.4092V43.5488L96.3955 44.7656H96.4092C96.596 44.3509 96.8763 44.0296 97.25 43.8018C97.6283 43.5739 98.0703 43.46 98.5762 43.46C99.4238 43.46 100.076 43.7949 100.531 44.4648C100.987 45.1348 101.215 46.0827 101.215 47.3086C101.215 48.4661 100.973 49.3936 100.49 50.0908C100.007 50.7881 99.3486 51.1367 98.5146 51.1367C98.0407 51.1367 97.6237 51.0251 97.2637 50.8018C96.9082 50.5739 96.6279 50.2389 96.4229 49.7969H96.3955C96.3955 49.9473 96.3841 50.1569 96.3613 50.4258C96.3431 50.6901 96.3203 50.8815 96.293 51H94.4336ZM96.3818 47.2607C96.3818 47.8076 96.4411 48.2702 96.5596 48.6484C96.6826 49.0267 96.8535 49.3184 97.0723 49.5234C97.2956 49.724 97.5508 49.8242 97.8379 49.8242C98.2754 49.8242 98.6126 49.6146 98.8496 49.1953C99.0911 48.776 99.2119 48.1471 99.2119 47.3086C99.2119 46.4746 99.0934 45.8434 98.8564 45.415C98.624 44.9821 98.2799 44.7656 97.8242 44.7656C97.3776 44.7656 97.0244 44.9844 96.7646 45.4219C96.5094 45.8594 96.3818 46.4723 96.3818 47.2607ZM104.886 51.1367C104.17 51.1367 103.612 50.943 103.211 50.5557C102.81 50.1637 102.609 49.6146 102.609 48.9082C102.609 48.1426 102.846 47.5615 103.32 47.165C103.799 46.764 104.512 46.5566 105.46 46.543L106.984 46.5156V46.1396C106.984 45.6702 106.905 45.3148 106.745 45.0732C106.586 44.8317 106.328 44.7109 105.973 44.7109C105.64 44.7109 105.394 44.7952 105.234 44.9639C105.079 45.1279 104.984 45.3923 104.947 45.7568L102.944 45.6611C103.19 44.1982 104.227 43.4668 106.055 43.4668C106.975 43.4668 107.679 43.6924 108.167 44.1436C108.659 44.5947 108.905 45.2578 108.905 46.1328V48.8125C108.905 49.2272 108.951 49.5143 109.042 49.6738C109.138 49.8288 109.295 49.9062 109.514 49.9062C109.66 49.9062 109.801 49.8926 109.938 49.8652V50.9043C109.824 50.9316 109.721 50.9567 109.63 50.9795C109.539 51.0023 109.448 51.0205 109.356 51.0342C109.265 51.0479 109.167 51.0592 109.062 51.0684C108.962 51.0775 108.844 51.082 108.707 51.082C108.224 51.082 107.866 50.9635 107.634 50.7266C107.406 50.4896 107.269 50.141 107.224 49.6807H107.183C106.896 50.1956 106.567 50.5671 106.198 50.7949C105.834 51.0228 105.396 51.1367 104.886 51.1367ZM106.984 47.5752L106.068 47.5889C105.658 47.598 105.36 47.6413 105.173 47.7188C104.991 47.7917 104.852 47.9124 104.756 48.0811C104.66 48.2451 104.612 48.4707 104.612 48.7578C104.612 49.4505 104.886 49.7969 105.433 49.7969C105.875 49.7969 106.244 49.6237 106.54 49.2773C106.836 48.9264 106.984 48.4844 106.984 47.9512V47.5752ZM117.683 45.2031C117.172 45.1165 116.689 45.0732 116.233 45.0732C115.522 45.0732 114.957 45.3421 114.538 45.8799C114.123 46.4176 113.916 47.1263 113.916 48.0059V51H112.002V46.208C112.002 45.8617 111.97 45.4538 111.906 44.9844C111.847 44.515 111.76 44.0547 111.646 43.6035H113.499C113.663 44.196 113.768 44.7155 113.813 45.1621H113.841C114.069 44.5423 114.376 44.1048 114.764 43.8496C115.151 43.5944 115.655 43.4668 116.274 43.4668C116.748 43.4668 117.218 43.5055 117.683 43.583V45.2031ZM122.782 45.1074L123.938 40.8555H126.159L124.033 45.1074H122.782ZM119.645 45.1074L120.8 40.8555H123.021L120.896 45.1074H119.645Z"
    fill="white" />
</svg>
