<svg width="439" height="435" viewBox="0 0 439 435" fill="none" xmlns="http://www.w3.org/2000/svg">
  <g opacity="0.25">
    <path fill-rule="evenodd" clip-rule="evenodd"
      d="M271.817 249.819V260.112C271.817 266.957 266.031 272.594 259.012 272.594H248.462C241.437 272.594 235.65 266.957 235.65 260.112V254.992C235.65 245.221 227.56 237.327 217.594 237.327C207.633 237.327 199.543 245.221 199.543 254.992C199.543 264.71 191.447 272.594 181.427 272.594C171.467 272.594 163.376 264.71 163.376 254.992C163.376 245.221 171.467 237.327 181.427 237.327C191.447 237.327 199.543 229.442 199.543 219.724V214.604C199.543 207.702 205.27 202.117 212.343 202.117H222.845C229.923 202.117 235.65 207.702 235.65 214.604V219.724C235.65 229.442 243.746 237.327 253.707 237.327H259.012C266.031 237.327 271.817 242.969 271.817 249.819Z"
      fill="#1F1D2B" />
    <path fill-rule="evenodd" clip-rule="evenodd"
      d="M163.376 188.275L163.376 177.982C163.376 171.138 169.163 165.5 176.182 165.5L186.732 165.5C193.756 165.5 199.543 171.138 199.543 177.982L199.543 183.103C199.543 192.873 207.634 200.768 217.599 200.768C227.56 200.768 235.651 192.873 235.651 183.103C235.651 173.384 243.747 165.5 253.766 165.5C263.727 165.5 271.817 173.384 271.817 183.103C271.817 192.873 263.727 200.768 253.766 200.768C243.747 200.768 235.651 208.652 235.651 218.37L235.651 223.49C235.651 230.392 229.923 235.978 222.85 235.978L212.349 235.978C205.271 235.978 199.543 230.392 199.543 223.49L199.543 218.37C199.543 208.652 191.447 200.768 181.486 200.768L176.182 200.768C169.163 200.768 163.376 195.125 163.376 188.275Z"
      fill="#1F1D2B" />
  </g>
  <rect x="3.41113" y="1.18701" width="203.74" height="203.529" rx="8" fill="white" />
  <g opacity="0.25">
    <rect x="3.46387" y="0.703125" width="203.844" height="204.797" rx="8" fill="#1F1D2B" />
    <rect x="32.5952" y="29.9709" width="145.581" height="146.261" rx="8" fill="#2B2F40" />
    <path d="M98.2798 146.639L70.2246 103.468" stroke="white" />
    <path d="M189.807 8.27954V17.1514L197.306 20.5021L189.807 8.27954Z" fill="#F7F8F7" />
    <path d="M189.807 8.27954L182.308 20.5021L189.807 17.1514V8.27954Z" fill="white" />
    <path d="M189.807 26.2513V32.2795L197.311 21.8983L189.807 26.2513Z" fill="#F7F8F7" />
    <path d="M189.807 32.2795V26.2502L182.308 21.8983L189.807 32.2795Z" fill="white" />
    <path d="M189.807 24.8561L197.306 20.5021L189.807 17.1534V24.8561Z" fill="#E2E5EB" />
    <path d="M182.308 20.5021L189.807 24.8561V17.1534L182.308 20.5021Z" fill="#F7F8F7" />
    <path d="M62.0576 146.283L53.8896 129.87" stroke="white" />
    <path d="M78.7495 146.639L86.9175 131.297" stroke="white" />
    <path d="M43.9453 146.996L105.738 42.8137L166.82 146.996" stroke="white" />
    <ellipse cx="69.5136" cy="103.468" rx="5.68206" ry="5.70862" fill="#5093ED" />
    <ellipse cx="141.962" cy="103.468" rx="5.68206" ry="5.70862" fill="white" />
    <ellipse cx="53.8896" cy="130.584" rx="5.68206" ry="5.70862" fill="#81B3F6" />
    <ellipse cx="87.6259" cy="130.584" rx="5.68206" ry="5.70862" fill="#81B3F6" />
    <ellipse cx="124.205" cy="130.584" rx="5.68206" ry="5.70862" fill="white" />
    <ellipse cx="156.522" cy="130.584" rx="5.68206" ry="5.70862" fill="white" />
    <ellipse cx="44.6557" cy="145.569" rx="5.68206" ry="5.70862" fill="#B8D6FF" />
    <ellipse cx="62.6557" cy="145.569" rx="5.68206" ry="5.70862" fill="#B8D6FF" />
    <ellipse cx="79.1694" cy="145.569" rx="5.68206" ry="5.70862" fill="#B8D6FF" />
    <ellipse cx="97.9247" cy="145.569" rx="5.68206" ry="5.70862" fill="#B8D6FF" />
    <ellipse cx="115.682" cy="145.569" rx="5.68206" ry="5.70862" fill="white" />
    <ellipse cx="132.017" cy="145.569" rx="5.68206" ry="5.70862" fill="white" />
    <ellipse cx="148.352" cy="145.569" rx="5.68206" ry="5.70862" fill="white" />
    <ellipse cx="166.109" cy="145.569" rx="5.68206" ry="5.70862" fill="white" />
    <path d="M115.327 146.282L141.607 104.181" stroke="white" />
    <path d="M132.55 146.639L124.382 130.227" stroke="white" />
    <path d="M147.644 146.639L155.812 131.297" stroke="white" />
    <path
      d="M44.1582 48.4358C43.3405 48.4358 42.7025 48.2144 42.2441 47.7717C41.7858 47.3238 41.5566 46.6962 41.5566 45.8889C41.5566 45.0139 41.8275 44.3499 42.3691 43.8967C42.916 43.4384 43.7311 43.2014 44.8145 43.1858L46.5566 43.1545V42.7249C46.5566 42.1884 46.4655 41.7821 46.2832 41.5061C46.1009 41.2301 45.8066 41.092 45.4004 41.092C45.0202 41.092 44.7389 41.1884 44.5566 41.3811C44.3796 41.5686 44.2702 41.8707 44.2285 42.2874L41.9395 42.178C42.2207 40.5061 43.4056 39.6702 45.4941 39.6702C46.5462 39.6702 47.3509 39.928 47.9082 40.4436C48.4707 40.9592 48.752 41.717 48.752 42.717V45.7795C48.752 46.2535 48.804 46.5816 48.9082 46.7639C49.0176 46.941 49.1973 47.0295 49.4473 47.0295C49.6139 47.0295 49.7754 47.0139 49.9316 46.9827V48.1702C49.8014 48.2014 49.6842 48.2301 49.5801 48.2561C49.4759 48.2821 49.3717 48.303 49.2676 48.3186C49.1634 48.3342 49.0514 48.3472 48.9316 48.3577C48.8171 48.3681 48.6816 48.3733 48.5254 48.3733C47.9733 48.3733 47.5645 48.2379 47.2988 47.967C47.0384 47.6962 46.8822 47.2978 46.8301 46.7717H46.7832C46.4551 47.3603 46.0801 47.7847 45.6582 48.0452C45.2415 48.3056 44.7415 48.4358 44.1582 48.4358ZM46.5566 44.3655L45.5098 44.3811C45.041 44.3915 44.6999 44.441 44.4863 44.5295C44.278 44.6129 44.1191 44.7509 44.0098 44.9436C43.9004 45.1311 43.8457 45.3889 43.8457 45.717C43.8457 46.5087 44.1582 46.9045 44.7832 46.9045C45.2884 46.9045 45.7103 46.7066 46.0488 46.3108C46.3874 45.9097 46.5566 45.4045 46.5566 44.7952V44.3655Z"
      fill="white" />
    <rect x="3.46387" y="0.703125" width="203.844" height="204.797" rx="8" fill="#1F1D2B" />
    <rect x="32.5952" y="29.9709" width="145.581" height="146.261" rx="8" fill="#2B2F40" />
    <path d="M132.55 146.639L124.382 130.227" stroke="white" />
    <path d="M43.9453 146.996L105.738 42.8137L166.82 146.996" stroke="white" />
    <path d="M115.327 146.282L141.607 104.181" stroke="white" />
    <path d="M98.2798 146.639L70.2246 103.468" stroke="white" />
    <path d="M189.807 8.27954V17.1514L197.306 20.5021L189.807 8.27954Z" fill="#5C96E4" />
    <path d="M189.807 8.27954L182.308 20.5021L189.807 17.1514V8.27954Z" fill="#3D7BCE" />
    <path d="M189.807 26.2513V32.2795L197.311 21.8983L189.807 26.2513Z" fill="#5C96E4" />
    <path d="M189.807 32.2795V26.2502L182.308 21.8983L189.807 32.2795Z" fill="#3D7BCE" />
    <path d="M189.807 24.8561L197.306 20.5021L189.807 17.1534V24.8561Z" fill="#83B7FC" />
    <path d="M182.308 20.5021L189.807 24.8561V17.1534L182.308 20.5021Z" fill="#5C96E4" />
    <path d="M62.0576 146.283L53.8896 129.87" stroke="white" />
    <path d="M78.7495 146.639L86.9175 131.297" stroke="white" />
    <ellipse cx="69.5136" cy="103.468" rx="5.68206" ry="5.70862" fill="#5093ED" />
    <path
      d="M145.894 103.468C145.894 105.662 144.126 107.427 141.962 107.427C139.798 107.427 138.03 105.662 138.03 103.468C138.03 101.274 139.798 99.5094 141.962 99.5094C144.126 99.5094 145.894 101.274 145.894 103.468Z"
      fill="#181F2B" stroke="#5093ED" stroke-width="3.5" />
    <ellipse cx="53.8896" cy="130.584" rx="5.68206" ry="5.70862" fill="#81B3F6" />
    <ellipse cx="87.6259" cy="130.584" rx="5.68206" ry="5.70862" fill="#81B3F6" />
    <path
      d="M128.137 130.584C128.137 132.778 126.369 134.543 124.205 134.543C122.041 134.543 120.273 132.778 120.273 130.584C120.273 128.39 122.041 126.625 124.205 126.625C126.369 126.625 128.137 128.39 128.137 130.584Z"
      fill="#181F2B" stroke="#81B3F6" stroke-width="3.5" />
    <ellipse cx="156.522" cy="130.584" rx="5.68206" ry="5.70862" fill="white" />
    <ellipse cx="44.6557" cy="145.569" rx="5.68206" ry="5.70862" fill="#B8D6FF" />
    <ellipse cx="62.6557" cy="145.569" rx="5.68206" ry="5.70862" fill="#B8D6FF" />
    <ellipse cx="79.1694" cy="145.569" rx="5.68206" ry="5.70862" fill="#B8D6FF" />
    <ellipse cx="97.9247" cy="145.569" rx="5.68206" ry="5.70862" fill="#B8D6FF" />
    <path
      d="M119.614 145.569C119.614 147.763 117.846 149.527 115.682 149.527C113.518 149.527 111.75 147.763 111.75 145.569C111.75 143.375 113.518 141.61 115.682 141.61C117.846 141.61 119.614 143.375 119.614 145.569Z"
      fill="#181F2B" stroke="#B8D6FF" stroke-width="3.5" />
    <ellipse cx="132.017" cy="145.569" rx="5.68206" ry="5.70862" fill="white" />
    <ellipse cx="148.352" cy="145.569" rx="5.68206" ry="5.70862" fill="white" />
    <ellipse cx="166.109" cy="145.569" rx="5.68206" ry="5.70862" fill="white" />
    <path d="M147.644 146.639L155.812 131.297" stroke="white" />
    <path
      d="M44.1582 48.4358C43.3405 48.4358 42.7025 48.2144 42.2441 47.7717C41.7858 47.3238 41.5566 46.6962 41.5566 45.8889C41.5566 45.0139 41.8275 44.3499 42.3691 43.8967C42.916 43.4384 43.7311 43.2014 44.8145 43.1858L46.5566 43.1545V42.7249C46.5566 42.1884 46.4655 41.7821 46.2832 41.5061C46.1009 41.2301 45.8066 41.092 45.4004 41.092C45.0202 41.092 44.7389 41.1884 44.5566 41.3811C44.3796 41.5686 44.2702 41.8707 44.2285 42.2874L41.9395 42.178C42.2207 40.5061 43.4056 39.6702 45.4941 39.6702C46.5462 39.6702 47.3509 39.928 47.9082 40.4436C48.4707 40.9592 48.752 41.717 48.752 42.717V45.7795C48.752 46.2535 48.804 46.5816 48.9082 46.7639C49.0176 46.941 49.1973 47.0295 49.4473 47.0295C49.6139 47.0295 49.7754 47.0139 49.9316 46.9827V48.1702C49.8014 48.2014 49.6842 48.2301 49.5801 48.2561C49.4759 48.2821 49.3717 48.303 49.2676 48.3186C49.1634 48.3342 49.0514 48.3472 48.9316 48.3577C48.8171 48.3681 48.6816 48.3733 48.5254 48.3733C47.9733 48.3733 47.5645 48.2379 47.2988 47.967C47.0384 47.6962 46.8822 47.2978 46.8301 46.7717H46.7832C46.4551 47.3603 46.0801 47.7847 45.6582 48.0452C45.2415 48.3056 44.7415 48.4358 44.1582 48.4358ZM46.5566 44.3655L45.5098 44.3811C45.041 44.3915 44.6999 44.441 44.4863 44.5295C44.278 44.6129 44.1191 44.7509 44.0098 44.9436C43.9004 45.1311 43.8457 45.3889 43.8457 45.717C43.8457 46.5087 44.1582 46.9045 44.7832 46.9045C45.2884 46.9045 45.7103 46.7066 46.0488 46.3108C46.3874 45.9097 46.5566 45.4045 46.5566 44.7952V44.3655Z"
      fill="white" />
    <path
      d="M17.291 188.263H15.9863V186.779H17.4004L18.0879 184.576H19.4629V186.779H22.4707V188.263H19.4629V192.404C19.4629 192.862 19.5046 193.172 19.5879 193.333C19.6764 193.49 19.8171 193.615 20.0098 193.708C20.2025 193.797 20.4733 193.841 20.8223 193.841C21.4681 193.841 22.1322 193.771 22.8145 193.63V195.083C22.0749 195.203 21.5514 195.274 21.2441 195.294C20.9368 195.32 20.6165 195.333 20.2832 195.333C19.6217 195.333 19.0671 195.245 18.6191 195.068C18.1764 194.886 17.8405 194.604 17.6113 194.224C17.3874 193.839 17.2754 193.3 17.2754 192.607L17.291 188.263ZM30.541 193.748H33.2988V195.232H25.2598V193.748H28.3457V188.263H26.0801V186.779H30.541V193.748ZM28.3457 185.255V183.638H30.541V185.255H28.3457ZM37.8613 195.232V190.091C37.8613 189.315 37.8118 188.776 37.7129 188.474C37.6191 188.172 37.4421 188.021 37.1816 188.021C36.916 188.021 36.7051 188.266 36.5488 188.755C36.3978 189.245 36.3223 189.888 36.3223 190.685V195.232H34.5332V188.583C34.5332 187.599 34.5176 186.998 34.4863 186.779H36.1191L36.166 187.771V188.146H36.1816C36.3587 187.615 36.5827 187.229 36.8535 186.99C37.1243 186.745 37.4629 186.623 37.8691 186.623C38.3275 186.623 38.6686 186.748 38.8926 186.998C39.1217 187.248 39.2858 187.633 39.3848 188.154H39.4004C39.6087 187.602 39.8561 187.208 40.1426 186.974C40.4342 186.74 40.8014 186.623 41.2441 186.623C41.8587 186.623 42.2988 186.847 42.5645 187.294C42.8301 187.742 42.9629 188.511 42.9629 189.599V195.232H41.1816V190.091C41.1816 189.315 41.1322 188.776 41.0332 188.474C40.9395 188.172 40.7624 188.021 40.502 188.021C40.2363 188.021 40.0254 188.232 39.8691 188.654C39.7181 189.07 39.6426 189.698 39.6426 190.537V195.232H37.8613ZM48.4473 195.388C47.1348 195.388 46.1217 195.003 45.4082 194.232C44.6947 193.456 44.3379 192.367 44.3379 190.966C44.3379 190.029 44.5046 189.237 44.8379 188.591C45.1764 187.945 45.6556 187.456 46.2754 187.123C46.8952 186.789 47.6296 186.623 48.4785 186.623C49.7129 186.623 50.6712 187.034 51.3535 187.857C52.0358 188.68 52.377 189.849 52.377 191.365V191.427H46.6426C46.6426 192.193 46.8118 192.8 47.1504 193.248C47.4941 193.695 47.9629 193.919 48.5566 193.919C48.9421 193.919 49.2832 193.839 49.5801 193.677C49.877 193.511 50.0775 193.255 50.1816 192.912L52.252 193.091C51.9655 193.826 51.4889 194.393 50.8223 194.794C50.1556 195.19 49.3639 195.388 48.4473 195.388ZM48.4473 188.005C47.9108 188.005 47.4837 188.188 47.166 188.552C46.8483 188.912 46.679 189.412 46.6582 190.052H50.252C50.2155 189.427 50.0358 188.93 49.7129 188.56C49.3952 188.19 48.9733 188.005 48.4473 188.005ZM56.8379 195.232V192.849H59.0957V195.232H56.8379ZM56.8379 189.138V186.755H59.0957V189.138H56.8379Z"
      fill="white" />
    <path
      d="M67.8232 195.232V193.708C68.0837 193.136 68.4535 192.563 68.9326 191.99C69.417 191.412 70.1201 190.748 71.042 189.998C71.7607 189.409 72.2269 189.003 72.4404 188.779C72.654 188.555 72.8206 188.339 72.9404 188.13C73.0654 187.917 73.1279 187.701 73.1279 187.482C73.1279 187.107 73.0055 186.813 72.7607 186.599C72.516 186.386 72.1566 186.279 71.6826 186.279C71.2139 186.279 70.8545 186.406 70.6045 186.662C70.3597 186.912 70.2008 187.289 70.1279 187.794L67.917 187.669C68.042 186.649 68.4222 185.87 69.0576 185.333C69.6982 184.797 70.568 184.529 71.667 184.529C72.8024 184.529 73.7008 184.789 74.3623 185.31C75.0238 185.826 75.3545 186.518 75.3545 187.388C75.3545 187.956 75.1748 188.511 74.8154 189.052C74.4613 189.589 73.9274 190.136 73.2139 190.693C72.2035 191.474 71.5238 192.037 71.1748 192.38C70.8258 192.724 70.5732 193.073 70.417 193.427H75.5264V195.232H67.8232Z"
      fill="white" />
    <path d="M110.596 42.6253L105.383 51.6558L100.169 42.6253L110.596 42.6253Z" fill="#181F2B"
      stroke="#165DBD" stroke-width="2.5" />
  </g>
  <rect x="231.411" y="1.18689" width="203.74" height="203.529" rx="8" fill="white" />
  <g opacity="0.25">
    <rect x="231.308" y="0.703125" width="203.844" height="204.797" rx="8" fill="#1F1D2B" />
    <rect x="260.439" y="29.9709" width="145.581" height="146.261" rx="8" fill="#2B2F40" />
    <path d="M326.124 154.686L298.068 111.515" stroke="white" />
    <path d="M417.651 16.3262V25.198L425.15 28.5487L417.651 16.3262Z" fill="#F7F8F7" />
    <path d="M417.651 16.3262L410.151 28.5487L417.651 25.198V16.3262Z" fill="white" />
    <path d="M417.651 34.2979V40.3261L425.155 29.9449L417.651 34.2979Z" fill="#F7F8F7" />
    <path d="M417.651 40.3261V34.2969L410.151 29.9449L417.651 40.3261Z" fill="white" />
    <path d="M417.651 32.9027L425.15 28.5488L417.651 25.2001V32.9027Z" fill="#E2E5EB" />
    <path d="M410.151 28.5488L417.651 32.9027V25.2001L410.151 28.5488Z" fill="#F7F8F7" />
    <path d="M289.901 154.329L281.733 137.917" stroke="white" />
    <path d="M306.594 154.686L314.762 139.344" stroke="white" />
    <path d="M271.789 155.043L333.581 50.8604L394.664 155.043" stroke="white" />
    <ellipse cx="297.358" cy="111.515" rx="5.68206" ry="5.70862" fill="#FF6E6E" />
    <ellipse cx="369.805" cy="111.515" rx="5.68206" ry="5.70862" fill="white" />
    <ellipse cx="281.733" cy="138.631" rx="5.68206" ry="5.70862" fill="#FF8D8D" />
    <ellipse cx="315.469" cy="138.631" rx="5.68206" ry="5.70862" fill="#FF8D8D" />
    <ellipse cx="352.049" cy="138.631" rx="5.68206" ry="5.70862" fill="white" />
    <ellipse cx="384.366" cy="138.631" rx="5.68206" ry="5.70862" fill="white" />
    <ellipse cx="272.499" cy="153.615" rx="5.68206" ry="5.70862" fill="#FFC0C0" />
    <ellipse cx="290.499" cy="153.616" rx="5.68206" ry="5.70862" fill="#FFC0C0" />
    <ellipse cx="307.013" cy="153.616" rx="5.68206" ry="5.70862" fill="#FFC0C0" />
    <ellipse cx="325.769" cy="153.616" rx="5.68206" ry="5.70862" fill="#FFC0C0" />
    <ellipse cx="343.526" cy="153.615" rx="5.68206" ry="5.70862" fill="white" />
    <ellipse cx="359.861" cy="153.615" rx="5.68206" ry="5.70862" fill="white" />
    <ellipse cx="376.196" cy="153.615" rx="5.68206" ry="5.70862" fill="white" />
    <ellipse cx="393.953" cy="153.615" rx="5.68206" ry="5.70862" fill="white" />
    <path d="M343.171 154.329L369.45 112.228" stroke="white" />
    <path d="M360.394 154.686L352.226 138.273" stroke="white" />
    <path d="M375.487 154.686L383.655 139.344" stroke="white" />
    <path
      d="M272.002 48.4358C271.184 48.4358 270.546 48.2144 270.088 47.7717C269.63 47.3238 269.4 46.6962 269.4 45.8889C269.4 45.0139 269.671 44.3499 270.213 43.8967C270.76 43.4384 271.575 43.2014 272.658 43.1858L274.4 43.1545V42.7249C274.4 42.1884 274.309 41.7821 274.127 41.5061C273.945 41.2301 273.65 41.092 273.244 41.092C272.864 41.092 272.583 41.1884 272.4 41.3811C272.223 41.5686 272.114 41.8707 272.072 42.2874L269.783 42.178C270.064 40.5061 271.249 39.6702 273.338 39.6702C274.39 39.6702 275.195 39.928 275.752 40.4436C276.314 40.9592 276.596 41.717 276.596 42.717V45.7795C276.596 46.2535 276.648 46.5816 276.752 46.7639C276.861 46.941 277.041 47.0295 277.291 47.0295C277.458 47.0295 277.619 47.0139 277.775 46.9827V48.1702C277.645 48.2014 277.528 48.2301 277.424 48.2561C277.32 48.2821 277.215 48.303 277.111 48.3186C277.007 48.3342 276.895 48.3472 276.775 48.3577C276.661 48.3681 276.525 48.3733 276.369 48.3733C275.817 48.3733 275.408 48.2379 275.143 47.967C274.882 47.6962 274.726 47.2978 274.674 46.7717H274.627C274.299 47.3603 273.924 47.7847 273.502 48.0452C273.085 48.3056 272.585 48.4358 272.002 48.4358ZM274.4 44.3655L273.354 44.3811C272.885 44.3915 272.544 44.441 272.33 44.5295C272.122 44.6129 271.963 44.7509 271.854 44.9436C271.744 45.1311 271.689 45.3889 271.689 45.717C271.689 46.5087 272.002 46.9045 272.627 46.9045C273.132 46.9045 273.554 46.7066 273.893 46.3108C274.231 45.9097 274.4 45.4045 274.4 44.7952V44.3655Z"
      fill="white" />
    <rect x="231.308" y="0.703125" width="203.844" height="204.797" rx="8" fill="#1F1D2B" />
    <rect x="260.439" y="29.9709" width="145.581" height="146.261" rx="8" fill="#2B2F40" />
    <path fill-rule="evenodd" clip-rule="evenodd"
      d="M415.901 31.2598C422.67 31.2598 428.156 25.7731 428.156 19.0049C428.156 12.2367 422.67 6.75 415.901 6.75C409.133 6.75 403.646 12.2367 403.646 19.0049C403.646 25.7731 409.133 31.2598 415.901 31.2598ZM412.329 22.262C411.6 22.262 411.002 22.0903 410.536 21.7469C410.076 21.3975 409.846 20.9007 409.846 20.2569C409.846 20.122 409.861 19.9564 409.892 19.7602C409.972 19.3187 410.085 18.7883 410.232 18.1689C410.649 16.4827 411.725 15.6395 413.461 15.6395C413.933 15.6395 414.356 15.7193 414.73 15.8786C415.104 16.032 415.399 16.265 415.613 16.5777C415.828 16.8843 415.935 17.2522 415.935 17.6814C415.935 17.8102 415.92 17.9727 415.889 18.1689C415.797 18.7147 415.687 19.2452 415.558 19.7602C415.343 20.6003 414.972 21.2288 414.445 21.6457C413.918 22.0566 413.212 22.262 412.329 22.262ZM412.458 20.9375C412.802 20.9375 413.093 20.8363 413.332 20.634C413.577 20.4317 413.752 20.122 413.856 19.705C413.997 19.1286 414.105 18.6258 414.178 18.1965C414.203 18.0678 414.215 17.936 414.215 17.801C414.215 17.243 413.924 16.964 413.341 16.964C412.998 16.964 412.703 17.0652 412.458 17.2676C412.219 17.47 412.047 17.7796 411.943 18.1965C411.833 18.6074 411.722 19.1102 411.612 19.705C411.588 19.8277 411.575 19.9564 411.575 20.0913C411.575 20.6554 411.87 20.9375 412.458 20.9375ZM416.201 22.1056C416.238 22.1486 416.29 22.1701 416.357 22.1701H417.608C417.67 22.1701 417.728 22.1486 417.783 22.1056C417.838 22.0627 417.872 22.0076 417.884 21.9401L418.307 19.9258H419.549C420.352 19.9258 420.984 19.7571 421.444 19.4199C421.91 19.0826 422.22 18.5614 422.373 17.8562C422.41 17.6907 422.428 17.5312 422.428 17.3779C422.428 16.8444 422.22 16.4367 421.802 16.1546C421.392 15.8725 420.846 15.7315 420.165 15.7315H417.719C417.657 15.7315 417.599 15.753 417.544 15.7959C417.489 15.8388 417.455 15.894 417.443 15.9614L416.173 21.9401C416.161 22.0015 416.17 22.0566 416.201 22.1056ZM420.285 18.4449C420.095 18.5859 419.871 18.6565 419.613 18.6565H418.556L418.905 17.01H420.009C420.26 17.01 420.438 17.059 420.542 17.1572C420.647 17.2492 420.699 17.384 420.699 17.5619C420.699 17.6416 420.69 17.7336 420.671 17.8378C420.61 18.1015 420.481 18.3039 420.285 18.4449Z"
      fill="#EF570D" />
    <path d="M326.124 146.639L298.068 103.468" stroke="white" />
    <path d="M289.901 146.283L281.733 129.87" stroke="white" />
    <path d="M306.594 146.639L314.762 131.297" stroke="white" />
    <path d="M271.789 146.996L333.581 42.8137L394.664 146.996" stroke="white" />
    <ellipse cx="297.358" cy="103.468" rx="5.68206" ry="5.70862" fill="#FF6E6E" />
    <ellipse cx="369.805" cy="103.468" rx="5.68206" ry="5.70862" fill="white" />
    <ellipse cx="281.733" cy="130.584" rx="5.68206" ry="5.70862" fill="#FF8D8D" />
    <ellipse cx="315.469" cy="130.584" rx="5.68206" ry="5.70862" fill="#FF8D8D" />
    <ellipse cx="352.049" cy="130.584" rx="5.68206" ry="5.70862" fill="white" />
    <ellipse cx="384.366" cy="130.584" rx="5.68206" ry="5.70862" fill="white" />
    <ellipse cx="272.499" cy="145.569" rx="5.68206" ry="5.70862" fill="#FFC0C0" />
    <ellipse cx="290.499" cy="145.569" rx="5.68206" ry="5.70862" fill="#FFC0C0" />
    <ellipse cx="307.013" cy="145.569" rx="5.68206" ry="5.70862" fill="#FFC0C0" />
    <ellipse cx="325.769" cy="145.569" rx="5.68206" ry="5.70862" fill="#FFC0C0" />
    <ellipse cx="343.526" cy="145.569" rx="5.68206" ry="5.70862" fill="white" />
    <ellipse cx="359.861" cy="145.569" rx="5.68206" ry="5.70862" fill="white" />
    <ellipse cx="376.196" cy="145.569" rx="5.68206" ry="5.70862" fill="white" />
    <ellipse cx="393.953" cy="145.569" rx="5.68206" ry="5.70862" fill="white" />
    <path d="M343.171 146.282L369.45 104.181" stroke="white" />
    <path d="M360.394 146.639L352.226 130.227" stroke="white" />
    <path d="M375.487 146.639L383.655 131.297" stroke="white" />
    <path
      d="M269.666 48.2795C269.708 47.5712 269.729 46.9566 269.729 46.4358V36.6858H271.924V39.7639L271.908 41.1545H271.924C272.137 40.6806 272.458 40.3134 272.885 40.053C273.317 39.7926 273.822 39.6624 274.4 39.6624C275.369 39.6624 276.114 40.0452 276.635 40.8108C277.156 41.5764 277.416 42.6597 277.416 44.0608C277.416 45.3837 277.14 46.4436 276.588 47.2405C276.036 48.0374 275.283 48.4358 274.33 48.4358C273.788 48.4358 273.312 48.3082 272.9 48.053C272.494 47.7926 272.174 47.4097 271.939 46.9045H271.908C271.908 47.0764 271.895 47.316 271.869 47.6233C271.848 47.9254 271.822 48.1441 271.791 48.2795H269.666ZM271.893 44.0061C271.893 44.6311 271.96 45.1597 272.096 45.592C272.236 46.0243 272.432 46.3577 272.682 46.592C272.937 46.8212 273.229 46.9358 273.557 46.9358C274.057 46.9358 274.442 46.6962 274.713 46.217C274.989 45.7379 275.127 45.0191 275.127 44.0608C275.127 43.1077 274.992 42.3863 274.721 41.8967C274.455 41.4019 274.062 41.1545 273.541 41.1545C273.031 41.1545 272.627 41.4045 272.33 41.9045C272.038 42.4045 271.893 43.1051 271.893 44.0061Z"
      fill="white" />
    <path
      d="M244.135 188.263H242.83V186.779H244.244L244.932 184.576H246.307V186.779H249.314V188.263H246.307V192.404C246.307 192.862 246.348 193.172 246.432 193.333C246.52 193.49 246.661 193.615 246.854 193.708C247.046 193.797 247.317 193.841 247.666 193.841C248.312 193.841 248.976 193.771 249.658 193.63V195.083C248.919 195.203 248.395 195.274 248.088 195.294C247.781 195.32 247.46 195.333 247.127 195.333C246.465 195.333 245.911 195.245 245.463 195.068C245.02 194.886 244.684 194.604 244.455 194.224C244.231 193.839 244.119 193.3 244.119 192.607L244.135 188.263ZM257.385 193.748H260.143V195.232H252.104V193.748H255.189V188.263H252.924V186.779H257.385V193.748ZM255.189 185.255V183.638H257.385V185.255H255.189ZM264.705 195.232V190.091C264.705 189.315 264.656 188.776 264.557 188.474C264.463 188.172 264.286 188.021 264.025 188.021C263.76 188.021 263.549 188.266 263.393 188.755C263.242 189.245 263.166 189.888 263.166 190.685V195.232H261.377V188.583C261.377 187.599 261.361 186.998 261.33 186.779H262.963L263.01 187.771V188.146H263.025C263.202 187.615 263.426 187.229 263.697 186.99C263.968 186.745 264.307 186.623 264.713 186.623C265.171 186.623 265.512 186.748 265.736 186.998C265.965 187.248 266.13 187.633 266.229 188.154H266.244C266.452 187.602 266.7 187.208 266.986 186.974C267.278 186.74 267.645 186.623 268.088 186.623C268.702 186.623 269.143 186.847 269.408 187.294C269.674 187.742 269.807 188.511 269.807 189.599V195.232H268.025V190.091C268.025 189.315 267.976 188.776 267.877 188.474C267.783 188.172 267.606 188.021 267.346 188.021C267.08 188.021 266.869 188.232 266.713 188.654C266.562 189.07 266.486 189.698 266.486 190.537V195.232H264.705ZM275.291 195.388C273.979 195.388 272.965 195.003 272.252 194.232C271.538 193.456 271.182 192.367 271.182 190.966C271.182 190.029 271.348 189.237 271.682 188.591C272.02 187.945 272.499 187.456 273.119 187.123C273.739 186.789 274.473 186.623 275.322 186.623C276.557 186.623 277.515 187.034 278.197 187.857C278.88 188.68 279.221 189.849 279.221 191.365V191.427H273.486C273.486 192.193 273.656 192.8 273.994 193.248C274.338 193.695 274.807 193.919 275.4 193.919C275.786 193.919 276.127 193.839 276.424 193.677C276.721 193.511 276.921 193.255 277.025 192.912L279.096 193.091C278.809 193.826 278.333 194.393 277.666 194.794C276.999 195.19 276.208 195.388 275.291 195.388ZM275.291 188.005C274.755 188.005 274.327 188.188 274.01 188.552C273.692 188.912 273.523 189.412 273.502 190.052H277.096C277.059 189.427 276.88 188.93 276.557 188.56C276.239 188.19 275.817 188.005 275.291 188.005ZM283.682 195.232V192.849H285.939V195.232H283.682ZM283.682 189.138V186.755H285.939V189.138H283.682Z"
      fill="white" />
    <path
      d="M294.691 195.232V193.708C294.952 193.136 295.322 192.563 295.801 191.99C296.285 191.412 296.988 190.748 297.91 189.998C298.629 189.409 299.095 189.003 299.309 188.779C299.522 188.555 299.689 188.339 299.809 188.13C299.934 187.917 299.996 187.701 299.996 187.482C299.996 187.107 299.874 186.813 299.629 186.599C299.384 186.386 299.025 186.279 298.551 186.279C298.082 186.279 297.723 186.406 297.473 186.662C297.228 186.912 297.069 187.289 296.996 187.794L294.785 187.669C294.91 186.649 295.29 185.87 295.926 185.333C296.566 184.797 297.436 184.529 298.535 184.529C299.671 184.529 300.569 184.789 301.23 185.31C301.892 185.826 302.223 186.518 302.223 187.388C302.223 187.956 302.043 188.511 301.684 189.052C301.329 189.589 300.796 190.136 300.082 190.693C299.072 191.474 298.392 192.037 298.043 192.38C297.694 192.724 297.441 193.073 297.285 193.427H302.395V195.232H294.691Z"
      fill="white" />
    <path d="M334.226 53.1558L326.847 40.3753L341.605 40.3753L334.226 53.1558Z" fill="#E63535" />
  </g>
  <rect x="3.46387" y="230.134" width="203.74" height="203.529" rx="8" fill="white" />
  <rect x="3.46387" y="229.5" width="203.844" height="204.797" rx="8" fill="#1F1D2B" />
  <rect x="32.5952" y="258.768" width="145.581" height="146.261" rx="8" fill="#2B2F40" />
  <path d="M98.2798 383.483L70.2246 340.311" stroke="white" />
  <path d="M189.807 245.123V253.995L197.306 257.346L189.807 245.123Z" fill="#F7F8F7" />
  <path d="M189.807 245.123L182.308 257.346L189.807 253.995V245.123Z" fill="white" />
  <path d="M189.807 263.095V269.123L197.311 258.742L189.807 263.095Z" fill="#F7F8F7" />
  <path d="M189.807 269.123V263.094L182.308 258.742L189.807 269.123Z" fill="white" />
  <path d="M189.807 261.7L197.306 257.346L189.807 253.997V261.7Z" fill="#E2E5EB" />
  <path d="M182.308 257.346L189.807 261.7V253.997L182.308 257.346Z" fill="#F7F8F7" />
  <path d="M62.0576 383.126L53.8896 366.714" stroke="white" />
  <path d="M78.7495 383.483L86.9175 368.141" stroke="white" />
  <path d="M43.9453 383.84L105.738 279.657L166.82 383.84" stroke="white" />
  <ellipse cx="69.5136" cy="340.312" rx="5.68206" ry="5.70862" fill="#9986FF" />
  <ellipse cx="141.962" cy="340.312" rx="5.68206" ry="5.70862" fill="white" />
  <ellipse cx="53.8896" cy="367.427" rx="5.68206" ry="5.70862" fill="#C5BBFA" />
  <ellipse cx="87.6259" cy="367.427" rx="5.68206" ry="5.70862" fill="#C5BBFA" />
  <ellipse cx="124.205" cy="367.427" rx="5.68206" ry="5.70862" fill="white" />
  <ellipse cx="156.522" cy="367.427" rx="5.68206" ry="5.70862" fill="white" />
  <ellipse cx="44.6557" cy="382.412" rx="5.68206" ry="5.70862" fill="#E7E2FF" />
  <ellipse cx="62.6557" cy="382.412" rx="5.68206" ry="5.70862" fill="#E7E2FF" />
  <ellipse cx="79.1694" cy="382.412" rx="5.68206" ry="5.70862" fill="#E7E2FF" />
  <ellipse cx="97.9247" cy="382.412" rx="5.68206" ry="5.70862" fill="#E7E2FF" />
  <ellipse cx="115.682" cy="382.412" rx="5.68206" ry="5.70862" fill="white" />
  <ellipse cx="132.017" cy="382.412" rx="5.68206" ry="5.70862" fill="white" />
  <ellipse cx="148.352" cy="382.412" rx="5.68206" ry="5.70862" fill="white" />
  <ellipse cx="166.109" cy="382.412" rx="5.68206" ry="5.70862" fill="white" />
  <path d="M115.327 383.126L141.607 341.025" stroke="white" />
  <path d="M132.55 383.483L124.382 367.07" stroke="white" />
  <path d="M147.644 383.483L155.812 368.141" stroke="white" />
  <path
    d="M44.1582 277.233C43.3405 277.233 42.7025 277.011 42.2441 276.569C41.7858 276.121 41.5566 275.493 41.5566 274.686C41.5566 273.811 41.8275 273.147 42.3691 272.694C42.916 272.235 43.7311 271.998 44.8145 271.983L46.5566 271.951V271.522C46.5566 270.985 46.4655 270.579 46.2832 270.303C46.1009 270.027 45.8066 269.889 45.4004 269.889C45.0202 269.889 44.7389 269.985 44.5566 270.178C44.3796 270.365 44.2702 270.668 44.2285 271.084L41.9395 270.975C42.2207 269.303 43.4056 268.467 45.4941 268.467C46.5462 268.467 47.3509 268.725 47.9082 269.24C48.4707 269.756 48.752 270.514 48.752 271.514V274.576C48.752 275.05 48.804 275.378 48.9082 275.561C49.0176 275.738 49.1973 275.826 49.4473 275.826C49.6139 275.826 49.7754 275.811 49.9316 275.78V276.967C49.8014 276.998 49.6842 277.027 49.5801 277.053C49.4759 277.079 49.3717 277.1 49.2676 277.115C49.1634 277.131 49.0514 277.144 48.9316 277.155C48.8171 277.165 48.6816 277.17 48.5254 277.17C47.9733 277.17 47.5645 277.035 47.2988 276.764C47.0384 276.493 46.8822 276.095 46.8301 275.569H46.7832C46.4551 276.157 46.0801 276.582 45.6582 276.842C45.2415 277.102 44.7415 277.233 44.1582 277.233ZM46.5566 273.162L45.5098 273.178C45.041 273.188 44.6999 273.238 44.4863 273.326C44.278 273.41 44.1191 273.548 44.0098 273.74C43.9004 273.928 43.8457 274.186 43.8457 274.514C43.8457 275.306 44.1582 275.701 44.7832 275.701C45.2884 275.701 45.7103 275.503 46.0488 275.108C46.3874 274.707 46.5566 274.201 46.5566 273.592V273.162Z"
    fill="white" />
  <rect x="3.46387" y="229.5" width="203.844" height="204.797" rx="8" fill="#1F1D2B" />
  <path
    d="M198.166 249.543V254.969C198.164 255.307 198.075 255.64 197.907 255.933C197.739 256.226 197.498 256.471 197.207 256.642L192.523 259.35C192.233 259.523 191.902 259.615 191.564 259.615C191.226 259.615 190.895 259.523 190.605 259.35L185.921 256.642C185.63 256.471 185.389 256.226 185.221 255.933C185.053 255.64 184.964 255.307 184.962 254.969V253.446L187.36 252.049V254.696L191.557 257.141L195.753 254.696V249.819L191.557 247.375L181.724 253.091C181.431 253.256 181.101 253.343 180.765 253.343C180.429 253.343 180.099 253.256 179.806 253.091L175.122 250.372C174.836 250.198 174.599 249.952 174.435 249.66C174.271 249.367 174.185 249.037 174.185 248.701V243.275C174.187 242.936 174.276 242.604 174.445 242.311C174.613 242.017 174.854 241.773 175.144 241.601L179.828 238.894C180.119 238.722 180.45 238.631 180.787 238.631C181.125 238.631 181.456 238.722 181.747 238.894L186.431 241.601C186.721 241.773 186.962 242.017 187.13 242.311C187.298 242.604 187.388 242.936 187.39 243.275V244.797L184.977 246.185V243.553L180.78 241.109L176.583 243.553V248.424L180.78 250.868L190.612 245.153C190.905 244.987 191.235 244.9 191.572 244.9C191.908 244.9 192.238 244.987 192.531 245.153L197.215 247.872C197.503 248.044 197.743 248.289 197.91 248.582C198.076 248.874 198.165 249.206 198.166 249.543Z"
    fill="#B5A9F2" />
  <rect x="32.5952" y="258.768" width="145.581" height="146.261" rx="8" fill="#2B2F40" />
  <path d="M98.2798 375.436L70.2246 332.265" stroke="white" />
  <path d="M62.0576 375.079L53.8896 358.667" stroke="white" />
  <path d="M78.7495 375.436L86.9175 360.094" stroke="white" />
  <path d="M43.9453 375.793L105.738 271.611L166.82 375.793" stroke="white" />
  <ellipse cx="69.5136" cy="332.265" rx="5.68206" ry="5.70862" fill="#9986FF" />
  <ellipse cx="141.962" cy="332.265" rx="5.68206" ry="5.70862" fill="white" />
  <ellipse cx="53.8896" cy="359.381" rx="5.68206" ry="5.70862" fill="#C5BBFA" />
  <ellipse cx="87.6259" cy="359.381" rx="5.68206" ry="5.70862" fill="#C5BBFA" />
  <ellipse cx="124.205" cy="359.381" rx="5.68206" ry="5.70862" fill="white" />
  <ellipse cx="156.522" cy="359.381" rx="5.68206" ry="5.70862" fill="white" />
  <ellipse cx="44.6557" cy="374.366" rx="5.68206" ry="5.70862" fill="#E7E2FF" />
  <ellipse cx="62.6557" cy="374.366" rx="5.68206" ry="5.70862" fill="#E7E2FF" />
  <ellipse cx="79.1694" cy="374.366" rx="5.68206" ry="5.70862" fill="#E7E2FF" />
  <ellipse cx="97.9247" cy="374.366" rx="5.68206" ry="5.70862" fill="#E7E2FF" />
  <ellipse cx="115.682" cy="374.366" rx="5.68206" ry="5.70862" fill="white" />
  <ellipse cx="132.017" cy="374.366" rx="5.68206" ry="5.70862" fill="white" />
  <ellipse cx="148.352" cy="374.366" rx="5.68206" ry="5.70862" fill="white" />
  <ellipse cx="166.109" cy="374.366" rx="5.68206" ry="5.70862" fill="white" />
  <path d="M115.327 375.079L141.607 332.978" stroke="white" />
  <path d="M132.55 375.436L124.382 359.024" stroke="white" />
  <path d="M147.644 375.436L155.812 360.094" stroke="white" />
  <path
    d="M45.6035 277.233C44.3223 277.233 43.3327 276.852 42.6348 276.092C41.9368 275.326 41.5879 274.261 41.5879 272.897C41.5879 271.501 41.9395 270.415 42.6426 269.639C43.3457 268.858 44.3431 268.467 45.6348 268.467C46.6296 268.467 47.4525 268.717 48.1035 269.217C48.7546 269.717 49.1634 270.407 49.3301 271.287L47.1191 271.397C47.0566 270.964 46.9004 270.621 46.6504 270.365C46.4004 270.105 46.0462 269.975 45.5879 269.975C44.4577 269.975 43.8926 270.92 43.8926 272.811C43.8926 274.759 44.4681 275.733 45.6191 275.733C46.0358 275.733 46.3848 275.602 46.666 275.342C46.9473 275.076 47.1217 274.683 47.1895 274.162L49.3926 274.264C49.3145 274.842 49.1061 275.358 48.7676 275.811C48.4342 276.264 47.9941 276.615 47.4473 276.865C46.9004 277.11 46.2858 277.233 45.6035 277.233Z"
    fill="white" />
  <path
    d="M16.291 416.06H14.9863V414.576H16.4004L17.0879 412.373H18.4629V414.576H21.4707V416.06H18.4629V420.201C18.4629 420.659 18.5046 420.969 18.5879 421.13C18.6764 421.287 18.8171 421.412 19.0098 421.505C19.2025 421.594 19.4733 421.638 19.8223 421.638C20.4681 421.638 21.1322 421.568 21.8145 421.427V422.88C21.0749 423 20.5514 423.07 20.2441 423.091C19.9368 423.117 19.6165 423.13 19.2832 423.13C18.6217 423.13 18.0671 423.042 17.6191 422.865C17.1764 422.682 16.8405 422.401 16.6113 422.021C16.3874 421.636 16.2754 421.097 16.2754 420.404L16.291 416.06ZM29.541 421.544H32.2988V423.029H24.2598V421.544H27.3457V416.06H25.0801V414.576H29.541V421.544ZM27.3457 413.052V411.435H29.541V413.052H27.3457ZM36.8613 423.029V417.888C36.8613 417.112 36.8118 416.573 36.7129 416.271C36.6191 415.969 36.4421 415.818 36.1816 415.818C35.916 415.818 35.7051 416.063 35.5488 416.552C35.3978 417.042 35.3223 417.685 35.3223 418.482V423.029H33.5332V416.38C33.5332 415.396 33.5176 414.794 33.4863 414.576H35.1191L35.166 415.568V415.943H35.1816C35.3587 415.412 35.5827 415.026 35.8535 414.787C36.1243 414.542 36.4629 414.419 36.8691 414.419C37.3275 414.419 37.6686 414.544 37.8926 414.794C38.1217 415.044 38.2858 415.43 38.3848 415.951H38.4004C38.6087 415.399 38.8561 415.005 39.1426 414.771C39.4342 414.537 39.8014 414.419 40.2441 414.419C40.8587 414.419 41.2988 414.643 41.5645 415.091C41.8301 415.539 41.9629 416.307 41.9629 417.396V423.029H40.1816V417.888C40.1816 417.112 40.1322 416.573 40.0332 416.271C39.9395 415.969 39.7624 415.818 39.502 415.818C39.2363 415.818 39.0254 416.029 38.8691 416.451C38.7181 416.867 38.6426 417.495 38.6426 418.333V423.029H36.8613ZM47.4473 423.185C46.1348 423.185 45.1217 422.8 44.4082 422.029C43.6947 421.253 43.3379 420.164 43.3379 418.763C43.3379 417.826 43.5046 417.034 43.8379 416.388C44.1764 415.742 44.6556 415.253 45.2754 414.919C45.8952 414.586 46.6296 414.419 47.4785 414.419C48.7129 414.419 49.6712 414.831 50.3535 415.654C51.0358 416.477 51.377 417.646 51.377 419.162V419.224H45.6426C45.6426 419.99 45.8118 420.597 46.1504 421.044C46.4941 421.492 46.9629 421.716 47.5566 421.716C47.9421 421.716 48.2832 421.636 48.5801 421.474C48.877 421.307 49.0775 421.052 49.1816 420.708L51.252 420.888C50.9655 421.623 50.4889 422.19 49.8223 422.591C49.1556 422.987 48.3639 423.185 47.4473 423.185ZM47.4473 415.802C46.9108 415.802 46.4837 415.985 46.166 416.349C45.8483 416.708 45.679 417.208 45.6582 417.849H49.252C49.2155 417.224 49.0358 416.727 48.7129 416.357C48.3952 415.987 47.9733 415.802 47.4473 415.802ZM55.8379 423.029V420.646H58.0957V423.029H55.8379ZM55.8379 416.935V414.552H58.0957V416.935H55.8379Z"
    fill="white" />
  <path
    d="M65.7944 423.029V421.505C66.0549 420.932 66.4246 420.36 66.9038 419.787C67.3882 419.208 68.0913 418.544 69.0132 417.794C69.7319 417.206 70.1981 416.8 70.4116 416.576C70.6252 416.352 70.7918 416.136 70.9116 415.927C71.0366 415.714 71.0991 415.498 71.0991 415.279C71.0991 414.904 70.9767 414.61 70.7319 414.396C70.4871 414.182 70.1278 414.076 69.6538 414.076C69.1851 414.076 68.8257 414.203 68.5757 414.458C68.3309 414.708 68.172 415.086 68.0991 415.591L65.8882 415.466C66.0132 414.445 66.3934 413.667 67.0288 413.13C67.6694 412.594 68.5392 412.326 69.6382 412.326C70.7736 412.326 71.672 412.586 72.3335 413.107C72.995 413.623 73.3257 414.315 73.3257 415.185C73.3257 415.753 73.146 416.307 72.7866 416.849C72.4325 417.386 71.8986 417.932 71.1851 418.49C70.1746 419.271 69.495 419.833 69.146 420.177C68.797 420.521 68.5444 420.87 68.3882 421.224H73.4976V423.029H65.7944Z"
    fill="white" />
  <path d="M105.383 282.953L98.0037 270.172L112.761 270.172L105.383 282.953Z" fill="#6F54FF" />
  <rect x="231.308" y="229.5" width="203.844" height="204.797" rx="8" fill="#1F1D2B" />
  <rect x="260.439" y="258.768" width="145.581" height="146.261" rx="8" fill="#2B2F40" />
  <path d="M326.124 383.483L298.068 340.311" stroke="white" />
  <path d="M417.651 245.123V253.995L425.15 257.346L417.651 245.123Z" fill="#F7F8F7" />
  <path d="M417.651 245.123L410.151 257.346L417.651 253.995V245.123Z" fill="white" />
  <path d="M417.651 263.095V269.123L425.155 258.742L417.651 263.095Z" fill="#F7F8F7" />
  <path d="M417.651 269.123V263.094L410.151 258.742L417.651 269.123Z" fill="white" />
  <path d="M417.651 261.7L425.15 257.346L417.651 253.997V261.7Z" fill="#E2E5EB" />
  <path d="M410.151 257.346L417.651 261.7V253.997L410.151 257.346Z" fill="#F7F8F7" />
  <path d="M289.901 383.126L281.733 366.714" stroke="white" />
  <path d="M306.594 383.483L314.762 368.141" stroke="white" />
  <path d="M271.789 383.84L333.581 279.657L394.664 383.84" stroke="white" />
  <ellipse cx="297.358" cy="340.312" rx="5.68206" ry="5.70862" fill="#F547BA" />
  <ellipse cx="369.805" cy="340.312" rx="5.68206" ry="5.70862" fill="white" />
  <ellipse cx="281.733" cy="367.427" rx="5.68206" ry="5.70862" fill="#FF76D1" />
  <ellipse cx="315.469" cy="367.427" rx="5.68206" ry="5.70862" fill="#FF76D1" />
  <ellipse cx="352.049" cy="367.427" rx="5.68206" ry="5.70862" fill="white" />
  <ellipse cx="384.366" cy="367.427" rx="5.68206" ry="5.70862" fill="white" />
  <ellipse cx="272.499" cy="382.412" rx="5.68206" ry="5.70862" fill="#FFBDE9" />
  <ellipse cx="290.499" cy="382.412" rx="5.68206" ry="5.70862" fill="#FFBDE9" />
  <ellipse cx="307.013" cy="382.412" rx="5.68206" ry="5.70862" fill="#FFBDE9" />
  <ellipse cx="325.769" cy="382.412" rx="5.68206" ry="5.70862" fill="#FFBDE9" />
  <ellipse cx="343.526" cy="382.412" rx="5.68206" ry="5.70862" fill="white" />
  <ellipse cx="359.861" cy="382.412" rx="5.68206" ry="5.70862" fill="white" />
  <ellipse cx="376.196" cy="382.412" rx="5.68206" ry="5.70862" fill="white" />
  <ellipse cx="393.953" cy="382.412" rx="5.68206" ry="5.70862" fill="white" />
  <path d="M343.171 383.126L369.45 341.025" stroke="white" />
  <path d="M360.394 383.483L352.226 367.07" stroke="white" />
  <path d="M375.487 383.483L383.655 368.141" stroke="white" />
  <path
    d="M272.002 277.233C271.184 277.233 270.546 277.011 270.088 276.569C269.63 276.121 269.4 275.493 269.4 274.686C269.4 273.811 269.671 273.147 270.213 272.694C270.76 272.235 271.575 271.998 272.658 271.983L274.4 271.951V271.522C274.4 270.985 274.309 270.579 274.127 270.303C273.945 270.027 273.65 269.889 273.244 269.889C272.864 269.889 272.583 269.985 272.4 270.178C272.223 270.365 272.114 270.668 272.072 271.084L269.783 270.975C270.064 269.303 271.249 268.467 273.338 268.467C274.39 268.467 275.195 268.725 275.752 269.24C276.314 269.756 276.596 270.514 276.596 271.514V274.576C276.596 275.05 276.648 275.378 276.752 275.561C276.861 275.738 277.041 275.826 277.291 275.826C277.458 275.826 277.619 275.811 277.775 275.78V276.967C277.645 276.998 277.528 277.027 277.424 277.053C277.32 277.079 277.215 277.1 277.111 277.115C277.007 277.131 276.895 277.144 276.775 277.155C276.661 277.165 276.525 277.17 276.369 277.17C275.817 277.17 275.408 277.035 275.143 276.764C274.882 276.493 274.726 276.095 274.674 275.569H274.627C274.299 276.157 273.924 276.582 273.502 276.842C273.085 277.102 272.585 277.233 272.002 277.233ZM274.4 273.162L273.354 273.178C272.885 273.188 272.544 273.238 272.33 273.326C272.122 273.41 271.963 273.548 271.854 273.74C271.744 273.928 271.689 274.186 271.689 274.514C271.689 275.306 272.002 275.701 272.627 275.701C273.132 275.701 273.554 275.503 273.893 275.108C274.231 274.707 274.4 274.201 274.4 273.592V273.162Z"
    fill="white" />
  <rect x="231.308" y="229.5" width="203.844" height="204.797" rx="8" fill="#1F1D2B" />
  <rect x="260.439" y="258.768" width="145.581" height="146.261" rx="8" fill="#2B2F40" />
  <path d="M271.789 375.793L333.581 271.611L394.664 375.793" stroke="white" />
  <path d="M343.171 375.079L369.45 332.978" stroke="white" />
  <path d="M326.124 375.436L298.068 332.265" stroke="white" />
  <path d="M289.901 375.079L281.733 358.667" stroke="white" />
  <path d="M360.394 375.436L352.226 359.024" stroke="white" />
  <path d="M306.594 375.436L314.762 360.094" stroke="white" />
  <ellipse cx="297.358" cy="332.265" rx="5.68206" ry="5.70862" fill="#F547BA" />
  <path
    d="M373.737 332.265C373.737 334.459 371.969 336.224 369.805 336.224C367.641 336.224 365.873 334.459 365.873 332.265C365.873 330.071 367.641 328.306 369.805 328.306C371.969 328.306 373.737 330.071 373.737 332.265Z"
    fill="#422417" stroke="#F547BA" stroke-width="3.5" />
  <ellipse cx="281.733" cy="359.381" rx="5.68206" ry="5.70862" fill="#FF76D1" />
  <ellipse cx="315.469" cy="359.381" rx="5.68206" ry="5.70862" fill="#FF76D1" />
  <path
    d="M355.981 359.381C355.981 361.575 354.213 363.339 352.049 363.339C349.885 363.339 348.117 361.575 348.117 359.381C348.117 357.187 349.885 355.422 352.049 355.422C354.213 355.422 355.981 357.187 355.981 359.381Z"
    fill="#422417" stroke="#FF76D1" stroke-width="3.5" />
  <ellipse cx="384.366" cy="359.381" rx="5.68206" ry="5.70862" fill="white" />
  <ellipse cx="272.499" cy="374.366" rx="5.68206" ry="5.70862" fill="#FFBDE9" />
  <ellipse cx="290.499" cy="374.366" rx="5.68206" ry="5.70862" fill="#FFBDE9" />
  <ellipse cx="307.013" cy="374.366" rx="5.68206" ry="5.70862" fill="#FFBDE9" />
  <ellipse cx="325.769" cy="374.366" rx="5.68206" ry="5.70862" fill="#FFBDE9" />
  <path
    d="M348.058 374.366C348.058 375.338 347.571 376.314 346.69 377.087C345.804 377.863 344.636 378.324 343.526 378.324C341.362 378.324 339.594 376.56 339.594 374.366C339.594 372.172 341.362 370.407 343.526 370.407C344.636 370.407 345.804 370.868 346.69 371.645C347.571 372.418 348.058 373.393 348.058 374.366Z"
    fill="#422417" stroke="#FFBDE9" stroke-width="3.5" />
  <ellipse cx="359.861" cy="374.366" rx="5.68206" ry="5.70862" fill="white" />
  <ellipse cx="376.196" cy="374.366" rx="5.68206" ry="5.70862" fill="white" />
  <ellipse cx="393.953" cy="374.366" rx="5.68206" ry="5.70862" fill="white" />
  <path d="M375.487 375.436L383.655 360.094" stroke="white" />
  <path
    d="M274.955 277.076C274.934 276.998 274.908 276.803 274.877 276.49C274.851 276.173 274.838 275.91 274.838 275.701H274.807C274.531 276.259 274.189 276.655 273.783 276.889C273.377 277.118 272.895 277.233 272.338 277.233C271.406 277.233 270.671 276.842 270.135 276.061C269.598 275.28 269.33 274.214 269.33 272.865C269.33 271.485 269.598 270.41 270.135 269.639C270.676 268.868 271.439 268.483 272.424 268.483C272.981 268.483 273.465 268.61 273.877 268.865C274.288 269.115 274.604 269.485 274.822 269.975H274.838L274.822 268.584V265.483H277.018V275.233C277.018 275.753 277.038 276.368 277.08 277.076H274.955ZM274.854 272.811C274.854 271.91 274.708 271.212 274.416 270.717C274.124 270.222 273.721 269.975 273.205 269.975C272.684 269.975 272.288 270.22 272.018 270.709C271.752 271.194 271.619 271.912 271.619 272.865C271.619 273.824 271.755 274.543 272.025 275.022C272.301 275.496 272.689 275.733 273.189 275.733C273.512 275.733 273.801 275.618 274.057 275.389C274.312 275.155 274.507 274.821 274.643 274.389C274.783 273.957 274.854 273.431 274.854 272.811Z"
    fill="white" />
  <path
    d="M243.135 418.06H241.83V416.576H243.244L243.932 414.373H245.307V416.576H248.314V418.06H245.307V422.201C245.307 422.659 245.348 422.969 245.432 423.13C245.52 423.287 245.661 423.412 245.854 423.505C246.046 423.594 246.317 423.638 246.666 423.638C247.312 423.638 247.976 423.568 248.658 423.427V424.88C247.919 425 247.395 425.07 247.088 425.091C246.781 425.117 246.46 425.13 246.127 425.13C245.465 425.13 244.911 425.042 244.463 424.865C244.02 424.682 243.684 424.401 243.455 424.021C243.231 423.636 243.119 423.097 243.119 422.404L243.135 418.06ZM256.385 423.544H259.143V425.029H251.104V423.544H254.189V418.06H251.924V416.576H256.385V423.544ZM254.189 415.052V413.435H256.385V415.052H254.189ZM263.705 425.029V419.888C263.705 419.112 263.656 418.573 263.557 418.271C263.463 417.969 263.286 417.818 263.025 417.818C262.76 417.818 262.549 418.063 262.393 418.552C262.242 419.042 262.166 419.685 262.166 420.482V425.029H260.377V418.38C260.377 417.396 260.361 416.794 260.33 416.576H261.963L262.01 417.568V417.943H262.025C262.202 417.412 262.426 417.026 262.697 416.787C262.968 416.542 263.307 416.419 263.713 416.419C264.171 416.419 264.512 416.544 264.736 416.794C264.965 417.044 265.13 417.43 265.229 417.951H265.244C265.452 417.399 265.7 417.005 265.986 416.771C266.278 416.537 266.645 416.419 267.088 416.419C267.702 416.419 268.143 416.643 268.408 417.091C268.674 417.539 268.807 418.307 268.807 419.396V425.029H267.025V419.888C267.025 419.112 266.976 418.573 266.877 418.271C266.783 417.969 266.606 417.818 266.346 417.818C266.08 417.818 265.869 418.029 265.713 418.451C265.562 418.867 265.486 419.495 265.486 420.333V425.029H263.705ZM274.291 425.185C272.979 425.185 271.965 424.8 271.252 424.029C270.538 423.253 270.182 422.164 270.182 420.763C270.182 419.826 270.348 419.034 270.682 418.388C271.02 417.742 271.499 417.253 272.119 416.919C272.739 416.586 273.473 416.419 274.322 416.419C275.557 416.419 276.515 416.831 277.197 417.654C277.88 418.477 278.221 419.646 278.221 421.162V421.224H272.486C272.486 421.99 272.656 422.597 272.994 423.044C273.338 423.492 273.807 423.716 274.4 423.716C274.786 423.716 275.127 423.636 275.424 423.474C275.721 423.307 275.921 423.052 276.025 422.708L278.096 422.888C277.809 423.623 277.333 424.19 276.666 424.591C275.999 424.987 275.208 425.185 274.291 425.185ZM274.291 417.802C273.755 417.802 273.327 417.985 273.01 418.349C272.692 418.708 272.523 419.208 272.502 419.849H276.096C276.059 419.224 275.88 418.727 275.557 418.357C275.239 417.987 274.817 417.802 274.291 417.802ZM282.682 425.029V422.646H284.939V425.029H282.682ZM282.682 418.935V416.552H284.939V418.935H282.682Z"
    fill="white" />
  <path
    d="M293.656 425.029V423.505C293.917 422.932 294.286 422.36 294.766 421.787C295.25 421.208 295.953 420.544 296.875 419.794C297.594 419.206 298.06 418.8 298.273 418.576C298.487 418.352 298.654 418.136 298.773 417.927C298.898 417.714 298.961 417.498 298.961 417.279C298.961 416.904 298.839 416.61 298.594 416.396C298.349 416.182 297.99 416.076 297.516 416.076C297.047 416.076 296.688 416.203 296.438 416.458C296.193 416.708 296.034 417.086 295.961 417.591L293.75 417.466C293.875 416.445 294.255 415.667 294.891 415.13C295.531 414.594 296.401 414.326 297.5 414.326C298.635 414.326 299.534 414.586 300.195 415.107C300.857 415.623 301.188 416.315 301.188 417.185C301.188 417.753 301.008 418.307 300.648 418.849C300.294 419.386 299.76 419.932 299.047 420.49C298.036 421.271 297.357 421.833 297.008 422.177C296.659 422.521 296.406 422.87 296.25 423.224H301.359V425.029H293.656Z"
    fill="white" />
  <path d="M338.44 271.422L333.226 280.453L328.012 271.422L338.44 271.422Z" fill="#422417"
    stroke="#D4289A" stroke-width="2.5" />
  <path
    d="M414.858 240.11C417.25 240.11 419.189 238.983 419.189 237.593C419.189 236.203 417.25 235.076 414.858 235.076C412.467 235.076 410.528 236.203 410.528 237.593C410.528 238.983 412.467 240.11 414.858 240.11Z"
    fill="#F547BA" />
  <path
    d="M414.858 259.076C417.25 259.076 419.189 257.949 419.189 256.559C419.189 255.169 417.25 254.042 414.858 254.042C412.467 254.042 410.528 255.169 410.528 256.559C410.528 257.949 412.467 259.076 414.858 259.076Z"
    fill="#F547BA" />
  <path
    d="M408.825 243.594C410.021 241.525 410.013 239.283 408.808 238.587C407.602 237.892 405.656 239.006 404.46 241.076C403.264 243.146 403.272 245.387 404.477 246.083C405.683 246.779 407.629 245.664 408.825 243.594Z"
    fill="#F547BA" />
  <path
    d="M425.256 253.077C426.452 251.007 426.445 248.765 425.24 248.07C424.036 247.375 422.09 248.49 420.894 250.559C419.698 252.629 419.705 254.871 420.91 255.566C422.114 256.261 424.06 255.146 425.256 253.077Z"
    fill="#F547BA" />
  <path
    d="M408.808 255.565C410.013 254.87 410.021 252.628 408.825 250.558C407.629 248.488 405.683 247.374 404.477 248.069C403.272 248.765 403.264 251.007 404.46 253.077C405.656 255.146 407.602 256.261 408.808 255.565Z"
    fill="#F547BA" />
  <path
    d="M425.24 246.084C426.445 245.389 426.452 243.147 425.256 241.077C424.06 239.007 422.115 237.893 420.91 238.588C419.706 239.283 419.698 241.525 420.894 243.594C422.09 245.664 424.036 246.779 425.24 246.084Z"
    fill="#F547BA" />
  <g opacity="0.25">
    <path fill-rule="evenodd" clip-rule="evenodd"
      d="M216.095 218.348V219.575C216.095 220.396 216.762 221.069 217.579 221.069H218.796C219.612 221.069 220.28 220.396 220.28 219.575V218.348C220.28 217.526 219.612 216.853 218.796 216.853H217.579C216.762 216.853 216.095 217.526 216.095 218.348Z"
      fill="white" />
    <path fill-rule="evenodd" clip-rule="evenodd"
      d="M216.095 214.535C216.095 215.735 215.158 216.711 214.004 216.711C212.851 216.711 211.914 217.686 211.914 218.893C211.914 220.093 210.976 221.069 209.816 221.069C208.663 221.069 207.726 220.093 207.726 218.893C207.726 217.686 208.663 216.711 209.816 216.711C210.976 216.711 211.914 215.735 211.914 214.535C211.914 213.334 210.976 212.359 209.816 212.359H209.208C208.395 212.359 207.726 211.662 207.726 210.816V209.544C207.726 208.698 208.395 208.001 209.208 208.001H210.43C211.244 208.001 211.914 208.698 211.914 209.544V210.183C211.914 211.384 212.851 212.359 214.004 212.359C215.158 212.359 216.095 213.334 216.095 214.535Z"
      fill="white" />
    <path fill-rule="evenodd" clip-rule="evenodd"
      d="M220.28 226.775V228.007C220.28 228.826 219.588 229.5 218.749 229.5H217.486C216.646 229.5 215.954 228.826 215.954 228.007V227.394C215.954 226.225 214.986 225.281 213.794 225.281C212.602 225.281 211.634 226.225 211.634 227.394C211.634 228.557 210.666 229.5 209.467 229.5C208.276 229.5 207.308 228.557 207.308 227.394C207.308 226.225 208.276 225.281 209.467 225.281C210.666 225.281 211.634 224.338 211.634 223.175V222.563C211.634 221.737 212.319 221.069 213.166 221.069H214.422C215.269 221.069 215.954 221.737 215.954 222.563V223.175C215.954 224.338 216.922 225.281 218.114 225.281H218.749C219.588 225.281 220.28 225.956 220.28 226.775Z"
      fill="white" />
    <mask id="mask0_1014_84103" style="mask-type:alpha" maskUnits="userSpaceOnUse" x="220" y="216"
      width="9" height="14">
      <path d="M220.283 216.431H228.652V229.5H220.283V216.431Z" fill="white" />
    </mask>
    <g mask="url(#mask0_1014_84103)">
      <path fill-rule="evenodd" clip-rule="evenodd"
        d="M228.652 227.324C228.652 228.525 227.715 229.5 226.554 229.5C225.4 229.5 224.464 228.525 224.464 227.324C224.464 226.117 223.527 225.141 222.373 225.141H221.764C220.946 225.141 220.282 224.451 220.282 223.598V222.333C220.282 221.48 220.946 220.79 221.764 220.79H222.373C223.527 220.79 224.464 219.814 224.464 218.614C224.464 217.406 225.4 216.431 226.554 216.431C227.715 216.431 228.652 217.406 228.652 218.614C228.652 219.814 227.715 220.79 226.554 220.79C225.4 220.79 224.464 221.765 224.464 222.966C224.464 224.166 225.4 225.141 226.554 225.141C227.715 225.141 228.652 226.117 228.652 227.324Z"
        fill="white" />
    </g>
    <mask id="mask1_1014_84103" style="mask-type:alpha" maskUnits="userSpaceOnUse" x="215" y="208"
      width="14" height="9">
      <path d="M215.679 208.001H228.652V216.432H215.679V208.001Z" fill="white" />
    </mask>
    <g mask="url(#mask1_1014_84103)">
      <path fill-rule="evenodd" clip-rule="evenodd"
        d="M228.652 209.494V210.726C228.652 211.544 227.96 212.219 227.119 212.219H226.485C225.293 212.219 224.325 213.163 224.325 214.325C224.325 215.488 223.357 216.432 222.165 216.432C220.973 216.432 220.005 215.488 220.005 214.325C220.005 213.163 219.037 212.219 217.839 212.219H217.21C216.371 212.219 215.679 211.544 215.679 210.726V209.494C215.679 208.676 216.371 208.001 217.21 208.001H218.473C219.313 208.001 220.005 208.676 220.005 209.494V210.113C220.005 211.276 220.973 212.219 222.165 212.219C223.357 212.219 224.325 211.276 224.325 210.113V209.494C224.325 208.676 225.018 208.001 225.857 208.001H227.119C227.96 208.001 228.652 208.676 228.652 209.494Z"
        fill="white" />
    </g>
  </g>
</svg>
