<svg
  width="402"
  height="84"
  viewBox="0 0 402 84"
  fill="none"
  xmlns="http://www.w3.org/2000/svg"
>
  <rect width="402" height="83.4173" rx="8" fill="#1F1D2B" />
  <path
    d="M18.959 14.6035C18.9863 14.6992 19.0091 14.8906 19.0273 15.1777C19.0501 15.4648 19.0615 15.6745 19.0615 15.8066H19.0889C19.3076 15.3737 19.5993 15.041 19.9639 14.8086C20.333 14.5762 20.7614 14.46 21.249 14.46C22.0693 14.46 22.7119 14.804 23.1768 15.4922C23.6462 16.1803 23.8809 17.1123 23.8809 18.2881C23.8809 19.4958 23.6439 20.4391 23.1699 21.1182C22.7005 21.7972 22.0352 22.1367 21.1738 22.1367C20.6862 22.1367 20.2624 22.0273 19.9023 21.8086C19.5423 21.5853 19.2666 21.2594 19.0752 20.8311H19.0615L19.0752 22.0479V24.9053H17.1543V16.2168C17.1543 15.7611 17.1361 15.2233 17.0996 14.6035H18.959ZM19.0479 18.3359C19.0479 18.8783 19.1071 19.334 19.2256 19.7031C19.3441 20.0677 19.5104 20.348 19.7246 20.5439C19.9434 20.7354 20.1986 20.8311 20.4902 20.8311C20.9505 20.8311 21.2969 20.6146 21.5293 20.1816C21.7617 19.7487 21.8779 19.1175 21.8779 18.2881C21.8779 17.4495 21.7572 16.8206 21.5156 16.4014C21.2786 15.9821 20.9414 15.7725 20.5039 15.7725C20.2214 15.7725 19.9684 15.875 19.7451 16.0801C19.5218 16.2806 19.3486 16.57 19.2256 16.9482C19.1071 17.3265 19.0479 17.7891 19.0479 18.3359ZM31.9404 16.2031C31.43 16.1165 30.9469 16.0732 30.4912 16.0732C29.7803 16.0732 29.2152 16.3421 28.7959 16.8799C28.3812 17.4176 28.1738 18.1263 28.1738 19.0059V22H26.2598V17.208C26.2598 16.8617 26.2279 16.4538 26.1641 15.9844C26.1048 15.515 26.0182 15.0547 25.9043 14.6035H27.7568C27.9209 15.196 28.0257 15.7155 28.0713 16.1621H28.0986C28.3265 15.5423 28.6341 15.1048 29.0215 14.8496C29.4089 14.5944 29.9124 14.4668 30.5322 14.4668C31.0062 14.4668 31.4756 14.5055 31.9404 14.583V16.2031ZM38.3867 20.7012H40.7998V22H33.7656V20.7012H36.4658V15.9023H34.4834V14.6035H38.3867V20.7012ZM36.4658 13.2705V11.8555H38.3867V13.2705H36.4658ZM46.6582 22H44.3613L41.5791 14.6035H43.6094L45.0381 18.8555C45.1064 19.0833 45.2682 19.653 45.5234 20.5645C45.5508 20.4551 45.6328 20.1657 45.7695 19.6963C45.9108 19.2223 46.4919 17.5247 47.5127 14.6035H49.5225L46.6582 22ZM52.7764 22.1367C52.0609 22.1367 51.5026 21.943 51.1016 21.5557C50.7005 21.1637 50.5 20.6146 50.5 19.9082C50.5 19.1426 50.737 18.5615 51.2109 18.165C51.6895 17.764 52.4027 17.5566 53.3506 17.543L54.875 17.5156V17.1396C54.875 16.6702 54.7952 16.3148 54.6357 16.0732C54.4762 15.8317 54.2188 15.7109 53.8633 15.7109C53.5306 15.7109 53.2845 15.7952 53.125 15.9639C52.9701 16.1279 52.8743 16.3923 52.8379 16.7568L50.835 16.6611C51.0811 15.1982 52.1178 14.4668 53.9453 14.4668C54.8659 14.4668 55.57 14.6924 56.0576 15.1436C56.5498 15.5947 56.7959 16.2578 56.7959 17.1328V19.8125C56.7959 20.2272 56.8415 20.5143 56.9326 20.6738C57.0283 20.8288 57.1855 20.9062 57.4043 20.9062C57.5501 20.9062 57.6914 20.8926 57.8281 20.8652V21.9043C57.7142 21.9316 57.6117 21.9567 57.5205 21.9795C57.4294 22.0023 57.3382 22.0205 57.2471 22.0342C57.1559 22.0479 57.0579 22.0592 56.9531 22.0684C56.8529 22.0775 56.7344 22.082 56.5977 22.082C56.1146 22.082 55.7568 21.9635 55.5244 21.7266C55.2965 21.4896 55.1598 21.141 55.1143 20.6807H55.0732C54.7861 21.1956 54.458 21.5671 54.0889 21.7949C53.7243 22.0228 53.2868 22.1367 52.7764 22.1367ZM54.875 18.5752L53.959 18.5889C53.5488 18.598 53.2503 18.6413 53.0635 18.7188C52.8812 18.7917 52.7422 18.9124 52.6465 19.0811C52.5508 19.2451 52.5029 19.4707 52.5029 19.7578C52.5029 20.4505 52.7764 20.7969 53.3232 20.7969C53.7653 20.7969 54.1344 20.6237 54.4307 20.2773C54.7269 19.9264 54.875 19.4844 54.875 18.9512V18.5752ZM62.4492 22.1367C61.3281 22.1367 60.4622 21.804 59.8516 21.1387C59.2409 20.4688 58.9355 19.5368 58.9355 18.3428C58.9355 17.1214 59.2432 16.1712 59.8584 15.4922C60.4736 14.8086 61.3464 14.4668 62.4766 14.4668C63.347 14.4668 64.0671 14.6855 64.6367 15.123C65.2064 15.5605 65.5641 16.1644 65.71 16.9346L63.7754 17.0303C63.7207 16.652 63.584 16.3512 63.3652 16.1279C63.1465 15.9001 62.8366 15.7861 62.4355 15.7861C61.4466 15.7861 60.9521 16.6133 60.9521 18.2676C60.9521 19.972 61.4557 20.8242 62.4629 20.8242C62.8275 20.8242 63.1328 20.7103 63.3789 20.4824C63.625 20.25 63.7777 19.9059 63.8369 19.4502L65.7646 19.5391C65.6963 20.0449 65.514 20.4961 65.2178 20.8926C64.9261 21.2891 64.541 21.5967 64.0625 21.8154C63.584 22.0296 63.0462 22.1367 62.4492 22.1367ZM68.8135 24.9053C68.3304 24.9053 67.9157 24.8757 67.5693 24.8164V23.4492L67.918 23.4834L68.2666 23.5039C68.54 23.5039 68.7656 23.4606 68.9434 23.374C69.1257 23.2874 69.2874 23.1439 69.4287 22.9434C69.5745 22.7428 69.7363 22.4033 69.9141 21.9248L66.8516 14.6035H68.8818L70.1807 18.2061C70.363 18.7028 70.5931 19.4639 70.8711 20.4893L70.9326 20.2363L71.4863 18.2334L72.7168 14.6035H74.7266L71.6641 22.3896C71.2995 23.3285 70.9007 23.9824 70.4678 24.3516C70.0348 24.7207 69.4834 24.9053 68.8135 24.9053ZM90.9551 19.8398C90.9551 20.5553 90.6611 21.1182 90.0732 21.5283C89.4899 21.9339 88.681 22.1367 87.6465 22.1367C86.6302 22.1367 85.8509 21.9772 85.3086 21.6582C84.7708 21.3346 84.4131 20.8333 84.2354 20.1543L85.9238 19.9014C86.0195 20.2523 86.1836 20.5007 86.416 20.6465C86.653 20.7923 87.0632 20.8652 87.6465 20.8652C88.1842 20.8652 88.5762 20.7969 88.8223 20.6602C89.0684 20.5234 89.1914 20.3092 89.1914 20.0176C89.1914 19.7806 89.0911 19.5938 88.8906 19.457C88.6947 19.3158 88.3597 19.1973 87.8857 19.1016C86.8011 18.8874 86.0697 18.6891 85.6914 18.5068C85.3132 18.32 85.0238 18.0807 84.8232 17.7891C84.6273 17.4928 84.5293 17.1305 84.5293 16.7021C84.5293 15.9958 84.8005 15.4466 85.3428 15.0547C85.8896 14.6582 86.6621 14.46 87.6602 14.46C88.5397 14.46 89.2461 14.6309 89.7793 14.9727C90.3171 15.3145 90.652 15.8089 90.7842 16.4561L89.082 16.6338C89.0273 16.333 88.8929 16.1097 88.6787 15.9639C88.4645 15.8135 88.125 15.7383 87.6602 15.7383C87.2044 15.7383 86.8626 15.7975 86.6348 15.916C86.4069 16.0299 86.293 16.2236 86.293 16.4971C86.293 16.7113 86.3796 16.8822 86.5527 17.0098C86.7305 17.1328 87.0267 17.2354 87.4414 17.3174C88.0202 17.4359 88.5329 17.5589 88.9795 17.6865C89.4307 17.8096 89.7907 17.9577 90.0596 18.1309C90.333 18.304 90.5495 18.5273 90.709 18.8008C90.873 19.0697 90.9551 19.416 90.9551 19.8398ZM96.0957 22.1367C94.9473 22.1367 94.0609 21.7995 93.4365 21.125C92.8122 20.446 92.5 19.4935 92.5 18.2676C92.5 17.4473 92.6458 16.7546 92.9375 16.1895C93.2337 15.6243 93.653 15.196 94.1953 14.9043C94.7376 14.6126 95.3802 14.4668 96.123 14.4668C97.2031 14.4668 98.0417 14.8268 98.6387 15.5469C99.2357 16.2669 99.5342 17.29 99.5342 18.6162V18.6709H94.5166C94.5166 19.3408 94.6647 19.8717 94.9609 20.2637C95.2617 20.6556 95.6719 20.8516 96.1914 20.8516C96.5286 20.8516 96.8271 20.7809 97.0869 20.6396C97.3467 20.4938 97.5221 20.2705 97.6133 19.9697L99.4248 20.127C99.1742 20.7695 98.7572 21.2663 98.1738 21.6172C97.5905 21.9635 96.8978 22.1367 96.0957 22.1367ZM96.0957 15.6768C95.6263 15.6768 95.2526 15.8363 94.9746 16.1553C94.6966 16.4697 94.5485 16.9072 94.5303 17.4678H97.6748C97.6429 16.9209 97.4857 16.4857 97.2031 16.1621C96.9251 15.8385 96.556 15.6768 96.0957 15.6768ZM102.467 15.9023H101.325V14.6035H102.562L103.164 12.6758H104.367V14.6035H106.999V15.9023H104.367V19.5254C104.367 19.9264 104.404 20.1976 104.477 20.3389C104.554 20.4756 104.677 20.585 104.846 20.667C105.014 20.7445 105.251 20.7832 105.557 20.7832C106.122 20.7832 106.703 20.7217 107.3 20.5986V21.8701C106.653 21.9749 106.195 22.0365 105.926 22.0547C105.657 22.0775 105.377 22.0889 105.085 22.0889C104.506 22.0889 104.021 22.0114 103.629 21.8564C103.242 21.6969 102.948 21.4508 102.747 21.1182C102.551 20.7809 102.453 20.3092 102.453 19.7031L102.467 15.9023ZM111.846 22V19.915H113.821V22H111.846ZM111.846 16.668V14.583H113.821V16.668H111.846ZM127.999 24.9053V11.8555H132.114V13.1543H129.817V23.5996H132.114V24.9053H127.999Z"
    fill="white"
  />
  <ellipse cx="37.6821" cy="41.7086" rx="5.68206" ry="5.70862" fill="#B8D6FF" />
  <ellipse cx="53.0463" cy="41.7086" rx="5.68206" ry="5.70862" fill="#B8D6FF" />
  <ellipse cx="68.4101" cy="41.7086" rx="5.68206" ry="5.70862" fill="#B8D6FF" />
  <ellipse cx="83.7743" cy="41.7086" rx="5.68206" ry="5.70862" fill="#B8D6FF" />
  <ellipse cx="99.1386" cy="41.7086" rx="5.68206" ry="5.70862" fill="#FFCEB7" />
  <ellipse cx="114.503" cy="41.7086" rx="5.68206" ry="5.70862" fill="#FFCEB7" />
  <ellipse cx="129.867" cy="41.7086" rx="5.68206" ry="5.70862" fill="#FFCEB7" />
  <ellipse cx="145.231" cy="41.7086" rx="5.68206" ry="5.70862" fill="#FFCEB7" />
  <ellipse cx="160.595" cy="41.7086" rx="5.68206" ry="5.70862" fill="#E7E2FF" />
  <ellipse cx="175.959" cy="41.7086" rx="5.68206" ry="5.70862" fill="#E7E2FF" />
  <ellipse cx="191.323" cy="41.7086" rx="5.68206" ry="5.70862" fill="#E7E2FF" />
  <ellipse cx="206.687" cy="41.7086" rx="5.68206" ry="5.70862" fill="#E7E2FF" />
  <ellipse cx="222.051" cy="41.7086" rx="5.68206" ry="5.70862" fill="#FFBDE9" />
  <ellipse cx="237.415" cy="41.7086" rx="5.68206" ry="5.70862" fill="#FFBDE9" />
  <ellipse cx="252.78" cy="41.7086" rx="5.68206" ry="5.70862" fill="#FFBDE9" />
  <ellipse cx="268.143" cy="41.7086" rx="5.68206" ry="5.70862" fill="#FFBDE9" />
  <path
    d="M18.0322 71.3225V70.0169H20.3291V59.5715H18.0322V58.2727H22.1475V71.3225H18.0322Z"
    fill="white"
  />
</svg>
