<svg width="439" height="435" viewBox="0 0 439 435" fill="none" xmlns="http://www.w3.org/2000/svg">
  <g opacity="0.25">
    <path fill-rule="evenodd" clip-rule="evenodd"
      d="M272.358 249.819V260.112C272.358 266.957 266.572 272.594 259.553 272.594H249.003C241.978 272.594 236.192 266.957 236.192 260.112V254.992C236.192 245.221 228.101 237.327 218.135 237.327C208.174 237.327 200.084 245.221 200.084 254.992C200.084 264.71 191.988 272.594 181.968 272.594C172.008 272.594 163.917 264.71 163.917 254.992C163.917 245.221 172.008 237.327 181.968 237.327C191.988 237.327 200.084 229.442 200.084 219.724V214.604C200.084 207.702 205.811 202.117 212.884 202.117H223.386C230.464 202.117 236.192 207.702 236.192 214.604V219.724C236.192 229.442 244.287 237.327 254.248 237.327H259.553C266.572 237.327 272.358 242.969 272.358 249.819Z"
      fill="#1F1D2B" />
    <path fill-rule="evenodd" clip-rule="evenodd"
      d="M163.917 188.275L163.917 177.982C163.917 171.138 169.704 165.5 176.723 165.5L187.273 165.5C194.297 165.5 200.084 171.138 200.084 177.982L200.084 183.103C200.084 192.873 208.175 200.768 218.14 200.768C228.101 200.768 236.192 192.873 236.192 183.103C236.192 173.384 244.288 165.5 254.307 165.5C264.268 165.5 272.358 173.384 272.358 183.103C272.358 192.873 264.268 200.768 254.307 200.768C244.288 200.768 236.192 208.652 236.192 218.37L236.192 223.49C236.192 230.392 230.464 235.978 223.391 235.978L212.89 235.978C205.812 235.978 200.084 230.392 200.084 223.49L200.084 218.37C200.084 208.652 191.988 200.768 182.027 200.768L176.723 200.768C169.704 200.768 163.917 195.125 163.917 188.275Z"
      fill="#1F1D2B" />
  </g>
  <rect x="3.95215" y="1.18701" width="203.74" height="203.529" rx="8" fill="white" />
  <g opacity="0.25">
    <rect x="4.00488" y="0.703125" width="203.844" height="204.797" rx="8" fill="#1F1D2B" />
    <rect x="33.1362" y="29.9709" width="145.581" height="146.261" rx="8" fill="#2B2F40" />
    <path d="M98.8208 146.639L70.7656 103.468" stroke="#4E5463" />
    <path d="M190.348 8.27954V17.1514L197.847 20.5021L190.348 8.27954Z" fill="#F7F8F7" />
    <path d="M190.348 8.27954L182.849 20.5021L190.348 17.1514V8.27954Z" fill="white" />
    <path d="M190.348 26.2513V32.2795L197.852 21.8983L190.348 26.2513Z" fill="#F7F8F7" />
    <path d="M190.348 32.2795V26.2502L182.849 21.8983L190.348 32.2795Z" fill="white" />
    <path d="M190.348 24.8561L197.847 20.5021L190.348 17.1534V24.8561Z" fill="#E2E5EB" />
    <path d="M182.849 20.5021L190.348 24.8561V17.1534L182.849 20.5021Z" fill="#F7F8F7" />
    <path d="M62.5986 146.283L54.4307 129.87" stroke="#4E5463" />
    <path d="M79.2905 146.639L87.4585 131.297" stroke="#4E5463" />
    <path d="M44.4863 146.996L106.279 42.8137L167.361 146.996" stroke="#4E5463" />
    <ellipse cx="70.0546" cy="103.468" rx="5.68206" ry="5.70862" fill="#5093ED" />
    <ellipse cx="142.503" cy="103.468" rx="5.68206" ry="5.70862" fill="#4E5463" />
    <ellipse cx="54.4306" cy="130.584" rx="5.68206" ry="5.70862" fill="#81B3F6" />
    <ellipse cx="88.1669" cy="130.584" rx="5.68206" ry="5.70862" fill="#81B3F6" />
    <ellipse cx="124.746" cy="130.584" rx="5.68206" ry="5.70862" fill="#4E5463" />
    <ellipse cx="157.063" cy="130.584" rx="5.68206" ry="5.70862" fill="#4E5463" />
    <ellipse cx="45.1967" cy="145.569" rx="5.68206" ry="5.70862" fill="#B8D6FF" />
    <ellipse cx="63.1967" cy="145.569" rx="5.68206" ry="5.70862" fill="#B8D6FF" />
    <ellipse cx="79.7104" cy="145.569" rx="5.68206" ry="5.70862" fill="#B8D6FF" />
    <ellipse cx="98.4657" cy="145.569" rx="5.68206" ry="5.70862" fill="#B8D6FF" />
    <ellipse cx="116.223" cy="145.569" rx="5.68206" ry="5.70862" fill="#4E5463" />
    <ellipse cx="132.558" cy="145.569" rx="5.68206" ry="5.70862" fill="#4E5463" />
    <ellipse cx="148.893" cy="145.569" rx="5.68206" ry="5.70862" fill="#4E5463" />
    <ellipse cx="166.65" cy="145.569" rx="5.68206" ry="5.70862" fill="#4E5463" />
    <path d="M115.868 146.282L142.148 104.181" stroke="#4E5463" />
    <path d="M133.091 146.639L124.923 130.227" stroke="#4E5463" />
    <path d="M148.185 146.639L156.353 131.297" stroke="#4E5463" />
    <path
      d="M44.6992 48.4358C43.8815 48.4358 43.2435 48.2144 42.7852 47.7717C42.3268 47.3238 42.0977 46.6962 42.0977 45.8889C42.0977 45.0139 42.3685 44.3499 42.9102 43.8967C43.457 43.4384 44.2721 43.2014 45.3555 43.1858L47.0977 43.1545V42.7249C47.0977 42.1884 47.0065 41.7821 46.8242 41.5061C46.6419 41.2301 46.3477 41.092 45.9414 41.092C45.5612 41.092 45.2799 41.1884 45.0977 41.3811C44.9206 41.5686 44.8112 41.8707 44.7695 42.2874L42.4805 42.178C42.7617 40.5061 43.9466 39.6702 46.0352 39.6702C47.0872 39.6702 47.8919 39.928 48.4492 40.4436C49.0117 40.9592 49.293 41.717 49.293 42.717V45.7795C49.293 46.2535 49.3451 46.5816 49.4492 46.7639C49.5586 46.941 49.7383 47.0295 49.9883 47.0295C50.1549 47.0295 50.3164 47.0139 50.4727 46.9827V48.1702C50.3424 48.2014 50.2253 48.2301 50.1211 48.2561C50.0169 48.2821 49.9128 48.303 49.8086 48.3186C49.7044 48.3342 49.5924 48.3472 49.4727 48.3577C49.3581 48.3681 49.2227 48.3733 49.0664 48.3733C48.5143 48.3733 48.1055 48.2379 47.8398 47.967C47.5794 47.6962 47.4232 47.2978 47.3711 46.7717H47.3242C46.9961 47.3603 46.6211 47.7847 46.1992 48.0452C45.7826 48.3056 45.2826 48.4358 44.6992 48.4358ZM47.0977 44.3655L46.0508 44.3811C45.582 44.3915 45.2409 44.441 45.0273 44.5295C44.819 44.6129 44.6602 44.7509 44.5508 44.9436C44.4414 45.1311 44.3867 45.3889 44.3867 45.717C44.3867 46.5087 44.6992 46.9045 45.3242 46.9045C45.8294 46.9045 46.2513 46.7066 46.5898 46.3108C46.9284 45.9097 47.0977 45.4045 47.0977 44.7952V44.3655Z"
      fill="white" />
    <rect x="4.00488" y="0.703125" width="203.844" height="204.797" rx="8" fill="#1F1D2B" />
    <rect x="33.1362" y="29.9709" width="145.581" height="146.261" rx="8" fill="#2B2F40" />
    <path d="M133.091 146.639L124.923 130.227" stroke="#4E5463" />
    <path d="M44.4863 146.996L106.279 42.8137L167.361 146.996" stroke="#4E5463" />
    <path d="M115.868 146.282L142.148 104.181" stroke="#4E5463" />
    <path d="M98.8208 146.639L70.7656 103.468" stroke="#4E5463" />
    <path d="M190.348 8.27954V17.1514L197.847 20.5021L190.348 8.27954Z" fill="#5C96E4" />
    <path d="M190.348 8.27954L182.849 20.5021L190.348 17.1514V8.27954Z" fill="#3D7BCE" />
    <path d="M190.348 26.2513V32.2795L197.852 21.8983L190.348 26.2513Z" fill="#5C96E4" />
    <path d="M190.348 32.2795V26.2502L182.849 21.8983L190.348 32.2795Z" fill="#3D7BCE" />
    <path d="M190.348 24.8561L197.847 20.5021L190.348 17.1534V24.8561Z" fill="#83B7FC" />
    <path d="M182.849 20.5021L190.348 24.8561V17.1534L182.849 20.5021Z" fill="#5C96E4" />
    <path d="M62.5986 146.283L54.4307 129.87" stroke="#4E5463" />
    <path d="M79.2905 146.639L87.4585 131.297" stroke="#4E5463" />
    <ellipse cx="70.0546" cy="103.468" rx="5.68206" ry="5.70862" fill="#5093ED" />
    <path
      d="M146.435 103.468C146.435 105.662 144.667 107.427 142.503 107.427C140.339 107.427 138.571 105.662 138.571 103.468C138.571 101.274 140.339 99.5094 142.503 99.5094C144.667 99.5094 146.435 101.274 146.435 103.468Z"
      fill="#181F2B" stroke="#5093ED" stroke-width="3.5" />
    <ellipse cx="54.4306" cy="130.584" rx="5.68206" ry="5.70862" fill="#81B3F6" />
    <ellipse cx="88.1669" cy="130.584" rx="5.68206" ry="5.70862" fill="#81B3F6" />
    <path
      d="M128.678 130.584C128.678 132.778 126.91 134.543 124.746 134.543C122.582 134.543 120.814 132.778 120.814 130.584C120.814 128.39 122.582 126.625 124.746 126.625C126.91 126.625 128.678 128.39 128.678 130.584Z"
      fill="#181F2B" stroke="#81B3F6" stroke-width="3.5" />
    <ellipse cx="157.063" cy="130.584" rx="5.68206" ry="5.70862" fill="#4E5463" />
    <ellipse cx="45.1967" cy="145.569" rx="5.68206" ry="5.70862" fill="#B8D6FF" />
    <ellipse cx="63.1967" cy="145.569" rx="5.68206" ry="5.70862" fill="#B8D6FF" />
    <ellipse cx="79.7104" cy="145.569" rx="5.68206" ry="5.70862" fill="#B8D6FF" />
    <ellipse cx="98.4657" cy="145.569" rx="5.68206" ry="5.70862" fill="#B8D6FF" />
    <path
      d="M120.155 145.569C120.155 147.763 118.387 149.527 116.223 149.527C114.059 149.527 112.291 147.763 112.291 145.569C112.291 143.375 114.059 141.61 116.223 141.61C118.387 141.61 120.155 143.375 120.155 145.569Z"
      fill="#181F2B" stroke="#B8D6FF" stroke-width="3.5" />
    <ellipse cx="132.558" cy="145.569" rx="5.68206" ry="5.70862" fill="#4E5463" />
    <ellipse cx="148.893" cy="145.569" rx="5.68206" ry="5.70862" fill="#4E5463" />
    <ellipse cx="166.65" cy="145.569" rx="5.68206" ry="5.70862" fill="#4E5463" />
    <path d="M148.185 146.639L156.353 131.297" stroke="#4E5463" />
    <path
      d="M44.6992 48.4358C43.8815 48.4358 43.2435 48.2144 42.7852 47.7717C42.3268 47.3238 42.0977 46.6962 42.0977 45.8889C42.0977 45.0139 42.3685 44.3499 42.9102 43.8967C43.457 43.4384 44.2721 43.2014 45.3555 43.1858L47.0977 43.1545V42.7249C47.0977 42.1884 47.0065 41.7821 46.8242 41.5061C46.6419 41.2301 46.3477 41.092 45.9414 41.092C45.5612 41.092 45.2799 41.1884 45.0977 41.3811C44.9206 41.5686 44.8112 41.8707 44.7695 42.2874L42.4805 42.178C42.7617 40.5061 43.9466 39.6702 46.0352 39.6702C47.0872 39.6702 47.8919 39.928 48.4492 40.4436C49.0117 40.9592 49.293 41.717 49.293 42.717V45.7795C49.293 46.2535 49.3451 46.5816 49.4492 46.7639C49.5586 46.941 49.7383 47.0295 49.9883 47.0295C50.1549 47.0295 50.3164 47.0139 50.4727 46.9827V48.1702C50.3424 48.2014 50.2253 48.2301 50.1211 48.2561C50.0169 48.2821 49.9128 48.303 49.8086 48.3186C49.7044 48.3342 49.5924 48.3472 49.4727 48.3577C49.3581 48.3681 49.2227 48.3733 49.0664 48.3733C48.5143 48.3733 48.1055 48.2379 47.8398 47.967C47.5794 47.6962 47.4232 47.2978 47.3711 46.7717H47.3242C46.9961 47.3603 46.6211 47.7847 46.1992 48.0452C45.7826 48.3056 45.2826 48.4358 44.6992 48.4358ZM47.0977 44.3655L46.0508 44.3811C45.582 44.3915 45.2409 44.441 45.0273 44.5295C44.819 44.6129 44.6602 44.7509 44.5508 44.9436C44.4414 45.1311 44.3867 45.3889 44.3867 45.717C44.3867 46.5087 44.6992 46.9045 45.3242 46.9045C45.8294 46.9045 46.2513 46.7066 46.5898 46.3108C46.9284 45.9097 47.0977 45.4045 47.0977 44.7952V44.3655Z"
      fill="white" />
    <path
      d="M17.832 188.263H16.5273V186.779H17.9414L18.6289 184.576H20.0039V186.779H23.0117V188.263H20.0039V192.404C20.0039 192.862 20.0456 193.172 20.1289 193.333C20.2174 193.49 20.3581 193.615 20.5508 193.708C20.7435 193.797 21.0143 193.841 21.3633 193.841C22.0091 193.841 22.6732 193.771 23.3555 193.63V195.083C22.6159 195.203 22.0924 195.274 21.7852 195.294C21.4779 195.32 21.1576 195.333 20.8242 195.333C20.1628 195.333 19.6081 195.245 19.1602 195.068C18.7174 194.886 18.3815 194.604 18.1523 194.224C17.9284 193.839 17.8164 193.3 17.8164 192.607L17.832 188.263ZM31.082 193.748H33.8398V195.232H25.8008V193.748H28.8867V188.263H26.6211V186.779H31.082V193.748ZM28.8867 185.255V183.638H31.082V185.255H28.8867ZM38.4023 195.232V190.091C38.4023 189.315 38.3529 188.776 38.2539 188.474C38.1602 188.172 37.9831 188.021 37.7227 188.021C37.457 188.021 37.2461 188.266 37.0898 188.755C36.9388 189.245 36.8633 189.888 36.8633 190.685V195.232H35.0742V188.583C35.0742 187.599 35.0586 186.998 35.0273 186.779H36.6602L36.707 187.771V188.146H36.7227C36.8997 187.615 37.1237 187.229 37.3945 186.99C37.6654 186.745 38.0039 186.623 38.4102 186.623C38.8685 186.623 39.2096 186.748 39.4336 186.998C39.6628 187.248 39.8268 187.633 39.9258 188.154H39.9414C40.1497 187.602 40.3971 187.208 40.6836 186.974C40.9753 186.74 41.3424 186.623 41.7852 186.623C42.3997 186.623 42.8398 186.847 43.1055 187.294C43.3711 187.742 43.5039 188.511 43.5039 189.599V195.232H41.7227V190.091C41.7227 189.315 41.6732 188.776 41.5742 188.474C41.4805 188.172 41.3034 188.021 41.043 188.021C40.7773 188.021 40.5664 188.232 40.4102 188.654C40.2591 189.07 40.1836 189.698 40.1836 190.537V195.232H38.4023ZM48.9883 195.388C47.6758 195.388 46.6628 195.003 45.9492 194.232C45.2357 193.456 44.8789 192.367 44.8789 190.966C44.8789 190.029 45.0456 189.237 45.3789 188.591C45.7174 187.945 46.1966 187.456 46.8164 187.123C47.4362 186.789 48.1706 186.623 49.0195 186.623C50.2539 186.623 51.2122 187.034 51.8945 187.857C52.5768 188.68 52.918 189.849 52.918 191.365V191.427H47.1836C47.1836 192.193 47.3529 192.8 47.6914 193.248C48.0352 193.695 48.5039 193.919 49.0977 193.919C49.4831 193.919 49.8242 193.839 50.1211 193.677C50.418 193.511 50.6185 193.255 50.7227 192.912L52.793 193.091C52.5065 193.826 52.0299 194.393 51.3633 194.794C50.6966 195.19 49.9049 195.388 48.9883 195.388ZM48.9883 188.005C48.4518 188.005 48.0247 188.188 47.707 188.552C47.3893 188.912 47.2201 189.412 47.1992 190.052H50.793C50.7565 189.427 50.5768 188.93 50.2539 188.56C49.9362 188.19 49.5143 188.005 48.9883 188.005ZM57.3789 195.232V192.849H59.6367V195.232H57.3789ZM57.3789 189.138V186.755H59.6367V189.138H57.3789Z"
      fill="white" />
    <path
      d="M68.3643 195.232V193.708C68.6247 193.136 68.9945 192.563 69.4736 191.99C69.958 191.412 70.6611 190.748 71.583 189.998C72.3018 189.409 72.7679 189.003 72.9814 188.779C73.195 188.555 73.3617 188.339 73.4814 188.13C73.6064 187.917 73.6689 187.701 73.6689 187.482C73.6689 187.107 73.5465 186.813 73.3018 186.599C73.057 186.386 72.6976 186.279 72.2236 186.279C71.7549 186.279 71.3955 186.406 71.1455 186.662C70.9007 186.912 70.7419 187.289 70.6689 187.794L68.458 187.669C68.583 186.649 68.9632 185.87 69.5986 185.333C70.2393 184.797 71.109 184.529 72.208 184.529C73.3434 184.529 74.2419 184.789 74.9033 185.31C75.5648 185.826 75.8955 186.518 75.8955 187.388C75.8955 187.956 75.7158 188.511 75.3564 189.052C75.0023 189.589 74.4684 190.136 73.7549 190.693C72.7445 191.474 72.0648 192.037 71.7158 192.38C71.3669 192.724 71.1143 193.073 70.958 193.427H76.0674V195.232H68.3643Z"
      fill="white" />
    <path d="M111.137 42.6253L105.924 51.6558L100.71 42.6253L111.137 42.6253Z" fill="#181F2B"
      stroke="#165DBD" stroke-width="2.5" />
  </g>
  <rect x="231.952" y="1.18689" width="203.74" height="203.529" rx="8" fill="white" />
  <g opacity="0.25">
    <rect x="231.849" y="0.703125" width="203.844" height="204.797" rx="8" fill="#1F1D2B" />
    <rect x="260.98" y="29.9709" width="145.581" height="146.261" rx="8" fill="#2B2F40" />
    <path d="M326.665 154.686L298.609 111.515" stroke="#4E5463" />
    <path d="M418.192 16.3262V25.198L425.69 28.5487L418.192 16.3262Z" fill="#F7F8F7" />
    <path d="M418.192 16.3262L410.692 28.5487L418.192 25.198V16.3262Z" fill="white" />
    <path d="M418.192 34.2979V40.3261L425.695 29.9449L418.192 34.2979Z" fill="#F7F8F7" />
    <path d="M418.192 40.3261V34.2969L410.692 29.9449L418.192 40.3261Z" fill="white" />
    <path d="M418.192 32.9027L425.69 28.5488L418.192 25.2001V32.9027Z" fill="#E2E5EB" />
    <path d="M410.692 28.5488L418.192 32.9027V25.2001L410.692 28.5488Z" fill="#F7F8F7" />
    <path d="M290.442 154.329L282.274 137.917" stroke="#4E5463" />
    <path d="M307.134 154.686L315.302 139.344" stroke="#4E5463" />
    <path d="M272.33 155.043L334.122 50.8604L395.205 155.043" stroke="#4E5463" />
    <ellipse cx="297.898" cy="111.515" rx="5.68206" ry="5.70862" fill="#FF6E6E" />
    <ellipse cx="370.347" cy="111.515" rx="5.68206" ry="5.70862" fill="#4E5463" />
    <ellipse cx="282.274" cy="138.631" rx="5.68206" ry="5.70862" fill="#FF8D8D" />
    <ellipse cx="316.011" cy="138.631" rx="5.68206" ry="5.70862" fill="#FF8D8D" />
    <ellipse cx="352.59" cy="138.631" rx="5.68206" ry="5.70862" fill="#4E5463" />
    <ellipse cx="384.907" cy="138.631" rx="5.68206" ry="5.70862" fill="#4E5463" />
    <ellipse cx="273.04" cy="153.615" rx="5.68206" ry="5.70862" fill="#FFC0C0" />
    <ellipse cx="291.04" cy="153.616" rx="5.68206" ry="5.70862" fill="#FFC0C0" />
    <ellipse cx="307.554" cy="153.616" rx="5.68206" ry="5.70862" fill="#FFC0C0" />
    <ellipse cx="326.31" cy="153.616" rx="5.68206" ry="5.70862" fill="#FFC0C0" />
    <ellipse cx="344.067" cy="153.615" rx="5.68206" ry="5.70862" fill="#4E5463" />
    <ellipse cx="360.402" cy="153.615" rx="5.68206" ry="5.70862" fill="#4E5463" />
    <ellipse cx="376.737" cy="153.615" rx="5.68206" ry="5.70862" fill="#4E5463" />
    <ellipse cx="394.494" cy="153.615" rx="5.68206" ry="5.70862" fill="#4E5463" />
    <path d="M343.712 154.329L369.991 112.228" stroke="#4E5463" />
    <path d="M360.935 154.686L352.767 138.273" stroke="#4E5463" />
    <path d="M376.029 154.686L384.197 139.344" stroke="#4E5463" />
    <path
      d="M272.543 48.4358C271.725 48.4358 271.087 48.2144 270.629 47.7717C270.171 47.3238 269.941 46.6962 269.941 45.8889C269.941 45.0139 270.212 44.3499 270.754 43.8967C271.301 43.4384 272.116 43.2014 273.199 43.1858L274.941 43.1545V42.7249C274.941 42.1884 274.85 41.7821 274.668 41.5061C274.486 41.2301 274.191 41.092 273.785 41.092C273.405 41.092 273.124 41.1884 272.941 41.3811C272.764 41.5686 272.655 41.8707 272.613 42.2874L270.324 42.178C270.605 40.5061 271.79 39.6702 273.879 39.6702C274.931 39.6702 275.736 39.928 276.293 40.4436C276.855 40.9592 277.137 41.717 277.137 42.717V45.7795C277.137 46.2535 277.189 46.5816 277.293 46.7639C277.402 46.941 277.582 47.0295 277.832 47.0295C277.999 47.0295 278.16 47.0139 278.316 46.9827V48.1702C278.186 48.2014 278.069 48.2301 277.965 48.2561C277.861 48.2821 277.757 48.303 277.652 48.3186C277.548 48.3342 277.436 48.3472 277.316 48.3577C277.202 48.3681 277.066 48.3733 276.91 48.3733C276.358 48.3733 275.949 48.2379 275.684 47.967C275.423 47.6962 275.267 47.2978 275.215 46.7717H275.168C274.84 47.3603 274.465 47.7847 274.043 48.0452C273.626 48.3056 273.126 48.4358 272.543 48.4358ZM274.941 44.3655L273.895 44.3811C273.426 44.3915 273.085 44.441 272.871 44.5295C272.663 44.6129 272.504 44.7509 272.395 44.9436C272.285 45.1311 272.23 45.3889 272.23 45.717C272.23 46.5087 272.543 46.9045 273.168 46.9045C273.673 46.9045 274.095 46.7066 274.434 46.3108C274.772 45.9097 274.941 45.4045 274.941 44.7952V44.3655Z"
      fill="white" />
    <rect x="231.849" y="0.703125" width="203.844" height="204.797" rx="8" fill="#1F1D2B" />
    <rect x="260.98" y="29.9709" width="145.581" height="146.261" rx="8" fill="#2B2F40" />
    <path fill-rule="evenodd" clip-rule="evenodd"
      d="M416.442 31.2598C423.211 31.2598 428.697 25.7731 428.697 19.0049C428.697 12.2367 423.211 6.75 416.442 6.75C409.674 6.75 404.188 12.2367 404.188 19.0049C404.188 25.7731 409.674 31.2598 416.442 31.2598ZM412.87 22.262C412.141 22.262 411.543 22.0903 411.077 21.7469C410.617 21.3975 410.387 20.9007 410.387 20.2569C410.387 20.122 410.402 19.9564 410.433 19.7602C410.513 19.3187 410.626 18.7883 410.773 18.1689C411.19 16.4827 412.266 15.6395 414.002 15.6395C414.474 15.6395 414.897 15.7193 415.271 15.8786C415.645 16.032 415.94 16.265 416.154 16.5777C416.369 16.8843 416.476 17.2522 416.476 17.6814C416.476 17.8102 416.461 17.9727 416.43 18.1689C416.338 18.7147 416.228 19.2452 416.099 19.7602C415.884 20.6003 415.513 21.2288 414.986 21.6457C414.459 22.0566 413.753 22.262 412.87 22.262ZM412.999 20.9375C413.343 20.9375 413.634 20.8363 413.873 20.634C414.118 20.4317 414.293 20.122 414.397 19.705C414.538 19.1286 414.646 18.6258 414.719 18.1965C414.744 18.0678 414.756 17.936 414.756 17.801C414.756 17.243 414.465 16.964 413.882 16.964C413.539 16.964 413.245 17.0652 412.999 17.2676C412.76 17.47 412.588 17.7796 412.484 18.1965C412.374 18.6074 412.263 19.1102 412.153 19.705C412.129 19.8277 412.116 19.9564 412.116 20.0913C412.116 20.6554 412.411 20.9375 412.999 20.9375ZM416.742 22.1056C416.779 22.1486 416.831 22.1701 416.898 22.1701H418.149C418.211 22.1701 418.269 22.1486 418.324 22.1056C418.379 22.0627 418.413 22.0076 418.425 21.9401L418.848 19.9258H420.09C420.893 19.9258 421.525 19.7571 421.985 19.4199C422.451 19.0826 422.761 18.5614 422.914 17.8562C422.951 17.6907 422.969 17.5312 422.969 17.3779C422.969 16.8444 422.761 16.4367 422.344 16.1546C421.933 15.8725 421.387 15.7315 420.706 15.7315H418.26C418.198 15.7315 418.14 15.753 418.085 15.7959C418.03 15.8388 417.996 15.894 417.984 15.9614L416.714 21.9401C416.702 22.0015 416.711 22.0566 416.742 22.1056ZM420.826 18.4449C420.636 18.5859 420.412 18.6565 420.154 18.6565H419.097L419.446 17.01H420.55C420.801 17.01 420.979 17.059 421.083 17.1572C421.188 17.2492 421.24 17.384 421.24 17.5619C421.24 17.6416 421.231 17.7336 421.212 17.8378C421.151 18.1015 421.022 18.3039 420.826 18.4449Z"
      fill="#EF570D" />
    <path d="M326.665 146.639L298.609 103.468" stroke="#4E5463" />
    <path d="M290.442 146.283L282.274 129.87" stroke="#4E5463" />
    <path d="M307.134 146.639L315.302 131.297" stroke="#4E5463" />
    <path d="M272.33 146.996L334.122 42.8137L395.205 146.996" stroke="#4E5463" />
    <ellipse cx="297.898" cy="103.468" rx="5.68206" ry="5.70862" fill="#FF6E6E" />
    <ellipse cx="370.347" cy="103.468" rx="5.68206" ry="5.70862" fill="#4E5463" />
    <ellipse cx="282.274" cy="130.584" rx="5.68206" ry="5.70862" fill="#FF8D8D" />
    <ellipse cx="316.011" cy="130.584" rx="5.68206" ry="5.70862" fill="#FF8D8D" />
    <ellipse cx="352.59" cy="130.584" rx="5.68206" ry="5.70862" fill="#4E5463" />
    <ellipse cx="384.907" cy="130.584" rx="5.68206" ry="5.70862" fill="#4E5463" />
    <ellipse cx="273.04" cy="145.569" rx="5.68206" ry="5.70862" fill="#FFC0C0" />
    <ellipse cx="291.04" cy="145.569" rx="5.68206" ry="5.70862" fill="#FFC0C0" />
    <ellipse cx="307.554" cy="145.569" rx="5.68206" ry="5.70862" fill="#FFC0C0" />
    <ellipse cx="326.31" cy="145.569" rx="5.68206" ry="5.70862" fill="#FFC0C0" />
    <ellipse cx="344.067" cy="145.569" rx="5.68206" ry="5.70862" fill="#4E5463" />
    <ellipse cx="360.402" cy="145.569" rx="5.68206" ry="5.70862" fill="#4E5463" />
    <ellipse cx="376.737" cy="145.569" rx="5.68206" ry="5.70862" fill="#4E5463" />
    <ellipse cx="394.494" cy="145.569" rx="5.68206" ry="5.70862" fill="#4E5463" />
    <path d="M343.712 146.282L369.991 104.181" stroke="#4E5463" />
    <path d="M360.935 146.639L352.767 130.227" stroke="#4E5463" />
    <path d="M376.029 146.639L384.197 131.297" stroke="#4E5463" />
    <path
      d="M270.207 48.2795C270.249 47.5712 270.27 46.9566 270.27 46.4358V36.6858H272.465V39.7639L272.449 41.1545H272.465C272.678 40.6806 272.999 40.3134 273.426 40.053C273.858 39.7926 274.363 39.6624 274.941 39.6624C275.91 39.6624 276.655 40.0452 277.176 40.8108C277.697 41.5764 277.957 42.6597 277.957 44.0608C277.957 45.3837 277.681 46.4436 277.129 47.2405C276.577 48.0374 275.824 48.4358 274.871 48.4358C274.329 48.4358 273.853 48.3082 273.441 48.053C273.035 47.7926 272.715 47.4097 272.48 46.9045H272.449C272.449 47.0764 272.436 47.316 272.41 47.6233C272.389 47.9254 272.363 48.1441 272.332 48.2795H270.207ZM272.434 44.0061C272.434 44.6311 272.501 45.1597 272.637 45.592C272.777 46.0243 272.973 46.3577 273.223 46.592C273.478 46.8212 273.77 46.9358 274.098 46.9358C274.598 46.9358 274.983 46.6962 275.254 46.217C275.53 45.7379 275.668 45.0191 275.668 44.0608C275.668 43.1077 275.533 42.3863 275.262 41.8967C274.996 41.4019 274.603 41.1545 274.082 41.1545C273.572 41.1545 273.168 41.4045 272.871 41.9045C272.579 42.4045 272.434 43.1051 272.434 44.0061Z"
      fill="white" />
    <path
      d="M244.676 188.263H243.371V186.779H244.785L245.473 184.576H246.848V186.779H249.855V188.263H246.848V192.404C246.848 192.862 246.889 193.172 246.973 193.333C247.061 193.49 247.202 193.615 247.395 193.708C247.587 193.797 247.858 193.841 248.207 193.841C248.853 193.841 249.517 193.771 250.199 193.63V195.083C249.46 195.203 248.936 195.274 248.629 195.294C248.322 195.32 248.001 195.333 247.668 195.333C247.007 195.333 246.452 195.245 246.004 195.068C245.561 194.886 245.225 194.604 244.996 194.224C244.772 193.839 244.66 193.3 244.66 192.607L244.676 188.263ZM257.926 193.748H260.684V195.232H252.645V193.748H255.73V188.263H253.465V186.779H257.926V193.748ZM255.73 185.255V183.638H257.926V185.255H255.73ZM265.246 195.232V190.091C265.246 189.315 265.197 188.776 265.098 188.474C265.004 188.172 264.827 188.021 264.566 188.021C264.301 188.021 264.09 188.266 263.934 188.755C263.783 189.245 263.707 189.888 263.707 190.685V195.232H261.918V188.583C261.918 187.599 261.902 186.998 261.871 186.779H263.504L263.551 187.771V188.146H263.566C263.743 187.615 263.967 187.229 264.238 186.99C264.509 186.745 264.848 186.623 265.254 186.623C265.712 186.623 266.053 186.748 266.277 186.998C266.507 187.248 266.671 187.633 266.77 188.154H266.785C266.993 187.602 267.241 187.208 267.527 186.974C267.819 186.74 268.186 186.623 268.629 186.623C269.243 186.623 269.684 186.847 269.949 187.294C270.215 187.742 270.348 188.511 270.348 189.599V195.232H268.566V190.091C268.566 189.315 268.517 188.776 268.418 188.474C268.324 188.172 268.147 188.021 267.887 188.021C267.621 188.021 267.41 188.232 267.254 188.654C267.103 189.07 267.027 189.698 267.027 190.537V195.232H265.246ZM275.832 195.388C274.52 195.388 273.507 195.003 272.793 194.232C272.079 193.456 271.723 192.367 271.723 190.966C271.723 190.029 271.889 189.237 272.223 188.591C272.561 187.945 273.04 187.456 273.66 187.123C274.28 186.789 275.014 186.623 275.863 186.623C277.098 186.623 278.056 187.034 278.738 187.857C279.421 188.68 279.762 189.849 279.762 191.365V191.427H274.027C274.027 192.193 274.197 192.8 274.535 193.248C274.879 193.695 275.348 193.919 275.941 193.919C276.327 193.919 276.668 193.839 276.965 193.677C277.262 193.511 277.462 193.255 277.566 192.912L279.637 193.091C279.35 193.826 278.874 194.393 278.207 194.794C277.54 195.19 276.749 195.388 275.832 195.388ZM275.832 188.005C275.296 188.005 274.868 188.188 274.551 188.552C274.233 188.912 274.064 189.412 274.043 190.052H277.637C277.6 189.427 277.421 188.93 277.098 188.56C276.78 188.19 276.358 188.005 275.832 188.005ZM284.223 195.232V192.849H286.48V195.232H284.223ZM284.223 189.138V186.755H286.48V189.138H284.223Z"
      fill="white" />
    <path
      d="M295.233 195.232V193.708C295.493 193.136 295.863 192.563 296.342 191.99C296.827 191.412 297.53 190.748 298.452 189.998C299.17 189.409 299.637 189.003 299.85 188.779C300.064 188.555 300.23 188.339 300.35 188.13C300.475 187.917 300.538 187.701 300.538 187.482C300.538 187.107 300.415 186.813 300.17 186.599C299.926 186.386 299.566 186.279 299.092 186.279C298.624 186.279 298.264 186.406 298.014 186.662C297.769 186.912 297.611 187.289 297.538 187.794L295.327 187.669C295.452 186.649 295.832 185.87 296.467 185.333C297.108 184.797 297.978 184.529 299.077 184.529C300.212 184.529 301.111 184.789 301.772 185.31C302.433 185.826 302.764 186.518 302.764 187.388C302.764 187.956 302.584 188.511 302.225 189.052C301.871 189.589 301.337 190.136 300.624 190.693C299.613 191.474 298.933 192.037 298.584 192.38C298.236 192.724 297.983 193.073 297.827 193.427H302.936V195.232H295.233Z"
      fill="white" />
    <path d="M334.767 53.1558L327.388 40.3753L342.146 40.3753L334.767 53.1558Z" fill="#E63535" />
  </g>
  <rect x="4.00488" y="230.134" width="203.74" height="203.529" rx="8" fill="white" />
  <rect x="4.00488" y="229.5" width="203.844" height="204.797" rx="8" fill="#1F1D2B" />
  <rect x="33.1362" y="258.768" width="145.581" height="146.261" rx="8" fill="#2B2F40" />
  <path d="M98.8208 383.483L70.7656 340.311" stroke="#4E5463" />
  <path d="M190.348 245.123V253.995L197.847 257.346L190.348 245.123Z" fill="#F7F8F7" />
  <path d="M190.348 245.123L182.849 257.346L190.348 253.995V245.123Z" fill="white" />
  <path d="M190.348 263.095V269.123L197.852 258.742L190.348 263.095Z" fill="#F7F8F7" />
  <path d="M190.348 269.123V263.094L182.849 258.742L190.348 269.123Z" fill="white" />
  <path d="M190.348 261.7L197.847 257.346L190.348 253.997V261.7Z" fill="#E2E5EB" />
  <path d="M182.849 257.346L190.348 261.7V253.997L182.849 257.346Z" fill="#F7F8F7" />
  <path d="M62.5986 383.126L54.4307 366.714" stroke="#4E5463" />
  <path d="M79.2905 383.483L87.4585 368.141" stroke="#4E5463" />
  <path d="M44.4863 383.84L106.279 279.657L167.361 383.84" stroke="#4E5463" />
  <ellipse cx="70.0546" cy="340.312" rx="5.68206" ry="5.70862" fill="#9986FF" />
  <ellipse cx="142.503" cy="340.312" rx="5.68206" ry="5.70862" fill="#4E5463" />
  <ellipse cx="54.4306" cy="367.427" rx="5.68206" ry="5.70862" fill="#C5BBFA" />
  <ellipse cx="88.1669" cy="367.427" rx="5.68206" ry="5.70862" fill="#C5BBFA" />
  <ellipse cx="124.746" cy="367.427" rx="5.68206" ry="5.70862" fill="#4E5463" />
  <ellipse cx="157.063" cy="367.427" rx="5.68206" ry="5.70862" fill="#4E5463" />
  <ellipse cx="45.1967" cy="382.412" rx="5.68206" ry="5.70862" fill="#E7E2FF" />
  <ellipse cx="63.1967" cy="382.412" rx="5.68206" ry="5.70862" fill="#E7E2FF" />
  <ellipse cx="79.7104" cy="382.412" rx="5.68206" ry="5.70862" fill="#E7E2FF" />
  <ellipse cx="98.4657" cy="382.412" rx="5.68206" ry="5.70862" fill="#E7E2FF" />
  <ellipse cx="116.223" cy="382.412" rx="5.68206" ry="5.70862" fill="#4E5463" />
  <ellipse cx="132.558" cy="382.412" rx="5.68206" ry="5.70862" fill="#4E5463" />
  <ellipse cx="148.893" cy="382.412" rx="5.68206" ry="5.70862" fill="#4E5463" />
  <ellipse cx="166.65" cy="382.412" rx="5.68206" ry="5.70862" fill="#4E5463" />
  <path d="M115.868 383.126L142.148 341.025" stroke="#4E5463" />
  <path d="M133.091 383.483L124.923 367.07" stroke="#4E5463" />
  <path d="M148.185 383.483L156.353 368.141" stroke="#4E5463" />
  <path
    d="M44.6992 277.233C43.8815 277.233 43.2435 277.011 42.7852 276.569C42.3268 276.121 42.0977 275.493 42.0977 274.686C42.0977 273.811 42.3685 273.147 42.9102 272.694C43.457 272.235 44.2721 271.998 45.3555 271.983L47.0977 271.951V271.522C47.0977 270.985 47.0065 270.579 46.8242 270.303C46.6419 270.027 46.3477 269.889 45.9414 269.889C45.5612 269.889 45.2799 269.985 45.0977 270.178C44.9206 270.365 44.8112 270.668 44.7695 271.084L42.4805 270.975C42.7617 269.303 43.9466 268.467 46.0352 268.467C47.0872 268.467 47.8919 268.725 48.4492 269.24C49.0117 269.756 49.293 270.514 49.293 271.514V274.576C49.293 275.05 49.3451 275.378 49.4492 275.561C49.5586 275.738 49.7383 275.826 49.9883 275.826C50.1549 275.826 50.3164 275.811 50.4727 275.78V276.967C50.3424 276.998 50.2253 277.027 50.1211 277.053C50.0169 277.079 49.9128 277.1 49.8086 277.115C49.7044 277.131 49.5924 277.144 49.4727 277.155C49.3581 277.165 49.2227 277.17 49.0664 277.17C48.5143 277.17 48.1055 277.035 47.8398 276.764C47.5794 276.493 47.4232 276.095 47.3711 275.569H47.3242C46.9961 276.157 46.6211 276.582 46.1992 276.842C45.7826 277.102 45.2826 277.233 44.6992 277.233ZM47.0977 273.162L46.0508 273.178C45.582 273.188 45.2409 273.238 45.0273 273.326C44.819 273.41 44.6602 273.548 44.5508 273.74C44.4414 273.928 44.3867 274.186 44.3867 274.514C44.3867 275.306 44.6992 275.701 45.3242 275.701C45.8294 275.701 46.2513 275.503 46.5898 275.108C46.9284 274.707 47.0977 274.201 47.0977 273.592V273.162Z"
    fill="white" />
  <rect x="4.00488" y="229.5" width="203.844" height="204.797" rx="8" fill="#1F1D2B" />
  <path
    d="M198.707 249.543V254.969C198.705 255.307 198.616 255.64 198.448 255.933C198.28 256.226 198.039 256.471 197.748 256.642L193.064 259.35C192.774 259.523 192.443 259.615 192.105 259.615C191.767 259.615 191.436 259.523 191.146 259.35L186.462 256.642C186.171 256.471 185.93 256.226 185.762 255.933C185.594 255.64 185.505 255.307 185.503 254.969V253.446L187.901 252.049V254.696L192.098 257.141L196.294 254.696V249.819L192.098 247.375L182.265 253.091C181.972 253.256 181.642 253.343 181.306 253.343C180.97 253.343 180.64 253.256 180.347 253.091L175.663 250.372C175.377 250.198 175.14 249.952 174.976 249.66C174.812 249.367 174.726 249.037 174.726 248.701V243.275C174.728 242.936 174.817 242.604 174.986 242.311C175.154 242.017 175.395 241.773 175.685 241.601L180.369 238.894C180.66 238.722 180.991 238.631 181.328 238.631C181.666 238.631 181.997 238.722 182.288 238.894L186.972 241.601C187.262 241.773 187.503 242.017 187.671 242.311C187.839 242.604 187.929 242.936 187.931 243.275V244.797L185.518 246.185V243.553L181.321 241.109L177.124 243.553V248.424L181.321 250.868L191.153 245.153C191.446 244.987 191.776 244.9 192.113 244.9C192.449 244.9 192.779 244.987 193.072 245.153L197.756 247.872C198.044 248.044 198.284 248.289 198.451 248.582C198.617 248.874 198.706 249.206 198.707 249.543Z"
    fill="#B5A9F2" />
  <rect x="33.1362" y="258.768" width="145.581" height="146.261" rx="8" fill="#2B2F40" />
  <path d="M98.8208 375.436L70.7656 332.265" stroke="#4E5463" />
  <path d="M62.5986 375.079L54.4307 358.667" stroke="#4E5463" />
  <path d="M79.2905 375.436L87.4585 360.094" stroke="#4E5463" />
  <path d="M44.4863 375.793L106.279 271.611L167.361 375.793" stroke="#4E5463" />
  <ellipse cx="70.0546" cy="332.265" rx="5.68206" ry="5.70862" fill="#9986FF" />
  <ellipse cx="142.503" cy="332.265" rx="5.68206" ry="5.70862" fill="#4E5463" />
  <ellipse cx="54.4306" cy="359.381" rx="5.68206" ry="5.70862" fill="#C5BBFA" />
  <ellipse cx="88.1669" cy="359.381" rx="5.68206" ry="5.70862" fill="#C5BBFA" />
  <ellipse cx="124.746" cy="359.381" rx="5.68206" ry="5.70862" fill="#4E5463" />
  <ellipse cx="157.063" cy="359.381" rx="5.68206" ry="5.70862" fill="#4E5463" />
  <ellipse cx="45.1967" cy="374.366" rx="5.68206" ry="5.70862" fill="#E7E2FF" />
  <ellipse cx="63.1967" cy="374.366" rx="5.68206" ry="5.70862" fill="#E7E2FF" />
  <ellipse cx="79.7104" cy="374.366" rx="5.68206" ry="5.70862" fill="#E7E2FF" />
  <ellipse cx="98.4657" cy="374.366" rx="5.68206" ry="5.70862" fill="#E7E2FF" />
  <ellipse cx="116.223" cy="374.366" rx="5.68206" ry="5.70862" fill="#4E5463" />
  <ellipse cx="132.558" cy="374.366" rx="5.68206" ry="5.70862" fill="#4E5463" />
  <ellipse cx="148.893" cy="374.366" rx="5.68206" ry="5.70862" fill="#4E5463" />
  <ellipse cx="166.65" cy="374.366" rx="5.68206" ry="5.70862" fill="#4E5463" />
  <path d="M115.868 375.079L142.148 332.978" stroke="#4E5463" />
  <path d="M133.091 375.436L124.923 359.024" stroke="#4E5463" />
  <path d="M148.185 375.436L156.353 360.094" stroke="#4E5463" />
  <path
    d="M46.1445 277.233C44.8633 277.233 43.8737 276.852 43.1758 276.092C42.4779 275.326 42.1289 274.261 42.1289 272.897C42.1289 271.501 42.4805 270.415 43.1836 269.639C43.8867 268.858 44.8841 268.467 46.1758 268.467C47.1706 268.467 47.9935 268.717 48.6445 269.217C49.2956 269.717 49.7044 270.407 49.8711 271.287L47.6602 271.397C47.5977 270.964 47.4414 270.621 47.1914 270.365C46.9414 270.105 46.5872 269.975 46.1289 269.975C44.9987 269.975 44.4336 270.92 44.4336 272.811C44.4336 274.759 45.0091 275.733 46.1602 275.733C46.5768 275.733 46.9258 275.602 47.207 275.342C47.4883 275.076 47.6628 274.683 47.7305 274.162L49.9336 274.264C49.8555 274.842 49.6471 275.358 49.3086 275.811C48.9753 276.264 48.5352 276.615 47.9883 276.865C47.4414 277.11 46.8268 277.233 46.1445 277.233Z"
    fill="white" />
  <path
    d="M16.832 416.06H15.5273V414.576H16.9414L17.6289 412.373H19.0039V414.576H22.0117V416.06H19.0039V420.201C19.0039 420.659 19.0456 420.969 19.1289 421.13C19.2174 421.287 19.3581 421.412 19.5508 421.505C19.7435 421.594 20.0143 421.638 20.3633 421.638C21.0091 421.638 21.6732 421.568 22.3555 421.427V422.88C21.6159 423 21.0924 423.07 20.7852 423.091C20.4779 423.117 20.1576 423.13 19.8242 423.13C19.1628 423.13 18.6081 423.042 18.1602 422.865C17.7174 422.682 17.3815 422.401 17.1523 422.021C16.9284 421.636 16.8164 421.097 16.8164 420.404L16.832 416.06ZM30.082 421.544H32.8398V423.029H24.8008V421.544H27.8867V416.06H25.6211V414.576H30.082V421.544ZM27.8867 413.052V411.435H30.082V413.052H27.8867ZM37.4023 423.029V417.888C37.4023 417.112 37.3529 416.573 37.2539 416.271C37.1602 415.969 36.9831 415.818 36.7227 415.818C36.457 415.818 36.2461 416.063 36.0898 416.552C35.9388 417.042 35.8633 417.685 35.8633 418.482V423.029H34.0742V416.38C34.0742 415.396 34.0586 414.794 34.0273 414.576H35.6602L35.707 415.568V415.943H35.7227C35.8997 415.412 36.1237 415.026 36.3945 414.787C36.6654 414.542 37.0039 414.419 37.4102 414.419C37.8685 414.419 38.2096 414.544 38.4336 414.794C38.6628 415.044 38.8268 415.43 38.9258 415.951H38.9414C39.1497 415.399 39.3971 415.005 39.6836 414.771C39.9753 414.537 40.3424 414.419 40.7852 414.419C41.3997 414.419 41.8398 414.643 42.1055 415.091C42.3711 415.539 42.5039 416.307 42.5039 417.396V423.029H40.7227V417.888C40.7227 417.112 40.6732 416.573 40.5742 416.271C40.4805 415.969 40.3034 415.818 40.043 415.818C39.7773 415.818 39.5664 416.029 39.4102 416.451C39.2591 416.867 39.1836 417.495 39.1836 418.333V423.029H37.4023ZM47.9883 423.185C46.6758 423.185 45.6628 422.8 44.9492 422.029C44.2357 421.253 43.8789 420.164 43.8789 418.763C43.8789 417.826 44.0456 417.034 44.3789 416.388C44.7174 415.742 45.1966 415.253 45.8164 414.919C46.4362 414.586 47.1706 414.419 48.0195 414.419C49.2539 414.419 50.2122 414.831 50.8945 415.654C51.5768 416.477 51.918 417.646 51.918 419.162V419.224H46.1836C46.1836 419.99 46.3529 420.597 46.6914 421.044C47.0352 421.492 47.5039 421.716 48.0977 421.716C48.4831 421.716 48.8242 421.636 49.1211 421.474C49.418 421.307 49.6185 421.052 49.7227 420.708L51.793 420.888C51.5065 421.623 51.0299 422.19 50.3633 422.591C49.6966 422.987 48.9049 423.185 47.9883 423.185ZM47.9883 415.802C47.4518 415.802 47.0247 415.985 46.707 416.349C46.3893 416.708 46.2201 417.208 46.1992 417.849H49.793C49.7565 417.224 49.5768 416.727 49.2539 416.357C48.9362 415.987 48.5143 415.802 47.9883 415.802ZM56.3789 423.029V420.646H58.6367V423.029H56.3789ZM56.3789 416.935V414.552H58.6367V416.935H56.3789Z"
    fill="white" />
  <path
    d="M66.3354 423.029V421.505C66.5959 420.932 66.9657 420.36 67.4448 419.787C67.9292 419.208 68.6323 418.544 69.5542 417.794C70.2729 417.206 70.7391 416.8 70.9526 416.576C71.1662 416.352 71.3328 416.136 71.4526 415.927C71.5776 415.714 71.6401 415.498 71.6401 415.279C71.6401 414.904 71.5177 414.61 71.2729 414.396C71.0282 414.182 70.6688 414.076 70.1948 414.076C69.7261 414.076 69.3667 414.203 69.1167 414.458C68.8719 414.708 68.7131 415.086 68.6401 415.591L66.4292 415.466C66.5542 414.445 66.9344 413.667 67.5698 413.13C68.2104 412.594 69.0802 412.326 70.1792 412.326C71.3146 412.326 72.2131 412.586 72.8745 413.107C73.536 413.623 73.8667 414.315 73.8667 415.185C73.8667 415.753 73.687 416.307 73.3276 416.849C72.9735 417.386 72.4396 417.932 71.7261 418.49C70.7157 419.271 70.036 419.833 69.687 420.177C69.3381 420.521 69.0854 420.87 68.9292 421.224H74.0386V423.029H66.3354Z"
    fill="white" />
  <path d="M105.924 282.953L98.5447 270.172L113.302 270.172L105.924 282.953Z" fill="#6F54FF" />
  <rect x="231.849" y="229.5" width="203.844" height="204.797" rx="8" fill="#1F1D2B" />
  <rect x="260.98" y="258.768" width="145.581" height="146.261" rx="8" fill="#2B2F40" />
  <path d="M326.665 383.483L298.609 340.311" stroke="#4E5463" />
  <path d="M418.192 245.123V253.995L425.69 257.346L418.192 245.123Z" fill="#F7F8F7" />
  <path d="M418.192 245.123L410.692 257.346L418.192 253.995V245.123Z" fill="white" />
  <path d="M418.192 263.095V269.123L425.695 258.742L418.192 263.095Z" fill="#F7F8F7" />
  <path d="M418.192 269.123V263.094L410.692 258.742L418.192 269.123Z" fill="white" />
  <path d="M418.192 261.7L425.69 257.346L418.192 253.997V261.7Z" fill="#E2E5EB" />
  <path d="M410.692 257.346L418.192 261.7V253.997L410.692 257.346Z" fill="#F7F8F7" />
  <path d="M290.442 383.126L282.274 366.714" stroke="#4E5463" />
  <path d="M307.134 383.483L315.302 368.141" stroke="#4E5463" />
  <path d="M272.33 383.84L334.122 279.657L395.205 383.84" stroke="#4E5463" />
  <ellipse cx="297.898" cy="340.312" rx="5.68206" ry="5.70862" fill="#F547BA" />
  <ellipse cx="370.347" cy="340.312" rx="5.68206" ry="5.70862" fill="#4E5463" />
  <ellipse cx="282.274" cy="367.427" rx="5.68206" ry="5.70862" fill="#FF76D1" />
  <ellipse cx="316.011" cy="367.427" rx="5.68206" ry="5.70862" fill="#FF76D1" />
  <ellipse cx="352.59" cy="367.427" rx="5.68206" ry="5.70862" fill="#4E5463" />
  <ellipse cx="384.907" cy="367.427" rx="5.68206" ry="5.70862" fill="#4E5463" />
  <ellipse cx="273.04" cy="382.412" rx="5.68206" ry="5.70862" fill="#FFBDE9" />
  <ellipse cx="291.04" cy="382.412" rx="5.68206" ry="5.70862" fill="#FFBDE9" />
  <ellipse cx="307.554" cy="382.412" rx="5.68206" ry="5.70862" fill="#FFBDE9" />
  <ellipse cx="326.31" cy="382.412" rx="5.68206" ry="5.70862" fill="#FFBDE9" />
  <ellipse cx="344.067" cy="382.412" rx="5.68206" ry="5.70862" fill="#4E5463" />
  <ellipse cx="360.402" cy="382.412" rx="5.68206" ry="5.70862" fill="#4E5463" />
  <ellipse cx="376.737" cy="382.412" rx="5.68206" ry="5.70862" fill="#4E5463" />
  <ellipse cx="394.494" cy="382.412" rx="5.68206" ry="5.70862" fill="#4E5463" />
  <path d="M343.712 383.126L369.991 341.025" stroke="#4E5463" />
  <path d="M360.935 383.483L352.767 367.07" stroke="#4E5463" />
  <path d="M376.029 383.483L384.197 368.141" stroke="#4E5463" />
  <path
    d="M272.543 277.233C271.725 277.233 271.087 277.011 270.629 276.569C270.171 276.121 269.941 275.493 269.941 274.686C269.941 273.811 270.212 273.147 270.754 272.694C271.301 272.235 272.116 271.998 273.199 271.983L274.941 271.951V271.522C274.941 270.985 274.85 270.579 274.668 270.303C274.486 270.027 274.191 269.889 273.785 269.889C273.405 269.889 273.124 269.985 272.941 270.178C272.764 270.365 272.655 270.668 272.613 271.084L270.324 270.975C270.605 269.303 271.79 268.467 273.879 268.467C274.931 268.467 275.736 268.725 276.293 269.24C276.855 269.756 277.137 270.514 277.137 271.514V274.576C277.137 275.05 277.189 275.378 277.293 275.561C277.402 275.738 277.582 275.826 277.832 275.826C277.999 275.826 278.16 275.811 278.316 275.78V276.967C278.186 276.998 278.069 277.027 277.965 277.053C277.861 277.079 277.757 277.1 277.652 277.115C277.548 277.131 277.436 277.144 277.316 277.155C277.202 277.165 277.066 277.17 276.91 277.17C276.358 277.17 275.949 277.035 275.684 276.764C275.423 276.493 275.267 276.095 275.215 275.569H275.168C274.84 276.157 274.465 276.582 274.043 276.842C273.626 277.102 273.126 277.233 272.543 277.233ZM274.941 273.162L273.895 273.178C273.426 273.188 273.085 273.238 272.871 273.326C272.663 273.41 272.504 273.548 272.395 273.74C272.285 273.928 272.23 274.186 272.23 274.514C272.23 275.306 272.543 275.701 273.168 275.701C273.673 275.701 274.095 275.503 274.434 275.108C274.772 274.707 274.941 274.201 274.941 273.592V273.162Z"
    fill="white" />
  <rect x="231.849" y="229.5" width="203.844" height="204.797" rx="8" fill="#1F1D2B" />
  <rect x="260.98" y="258.768" width="145.581" height="146.261" rx="8" fill="#2B2F40" />
  <path d="M272.33 375.793L334.122 271.611L395.205 375.793" stroke="#4E5463" />
  <path d="M343.712 375.079L369.991 332.978" stroke="#4E5463" />
  <path d="M326.665 375.436L298.609 332.265" stroke="#4E5463" />
  <path d="M290.442 375.079L282.274 358.667" stroke="#4E5463" />
  <path d="M360.935 375.436L352.767 359.024" stroke="#4E5463" />
  <path d="M307.134 375.436L315.302 360.094" stroke="#4E5463" />
  <ellipse cx="297.898" cy="332.265" rx="5.68206" ry="5.70862" fill="#F547BA" />
  <path
    d="M374.279 332.265C374.279 334.459 372.511 336.224 370.347 336.224C368.183 336.224 366.415 334.459 366.415 332.265C366.415 330.071 368.183 328.306 370.347 328.306C372.511 328.306 374.279 330.071 374.279 332.265Z"
    fill="#422417" stroke="#F547BA" stroke-width="3.5" />
  <ellipse cx="282.274" cy="359.381" rx="5.68206" ry="5.70862" fill="#FF76D1" />
  <ellipse cx="316.011" cy="359.381" rx="5.68206" ry="5.70862" fill="#FF76D1" />
  <path
    d="M356.522 359.381C356.522 361.575 354.754 363.339 352.59 363.339C350.426 363.339 348.658 361.575 348.658 359.381C348.658 357.187 350.426 355.422 352.59 355.422C354.754 355.422 356.522 357.187 356.522 359.381Z"
    fill="#422417" stroke="#FF76D1" stroke-width="3.5" />
  <ellipse cx="384.907" cy="359.381" rx="5.68206" ry="5.70862" fill="#4E5463" />
  <ellipse cx="273.04" cy="374.366" rx="5.68206" ry="5.70862" fill="#FFBDE9" />
  <ellipse cx="291.04" cy="374.366" rx="5.68206" ry="5.70862" fill="#FFBDE9" />
  <ellipse cx="307.554" cy="374.366" rx="5.68206" ry="5.70862" fill="#FFBDE9" />
  <ellipse cx="326.31" cy="374.366" rx="5.68206" ry="5.70862" fill="#FFBDE9" />
  <path
    d="M348.599 374.366C348.599 375.338 348.112 376.314 347.231 377.087C346.345 377.863 345.177 378.324 344.067 378.324C341.903 378.324 340.135 376.56 340.135 374.366C340.135 372.172 341.903 370.407 344.067 370.407C345.177 370.407 346.345 370.868 347.231 371.645C348.112 372.418 348.599 373.393 348.599 374.366Z"
    fill="#422417" stroke="#FFBDE9" stroke-width="3.5" />
  <ellipse cx="360.402" cy="374.366" rx="5.68206" ry="5.70862" fill="#4E5463" />
  <ellipse cx="376.737" cy="374.366" rx="5.68206" ry="5.70862" fill="#4E5463" />
  <ellipse cx="394.494" cy="374.366" rx="5.68206" ry="5.70862" fill="#4E5463" />
  <path d="M376.029 375.436L384.197 360.094" stroke="#4E5463" />
  <path
    d="M275.496 277.076C275.475 276.998 275.449 276.803 275.418 276.49C275.392 276.173 275.379 275.91 275.379 275.701H275.348C275.072 276.259 274.73 276.655 274.324 276.889C273.918 277.118 273.436 277.233 272.879 277.233C271.947 277.233 271.212 276.842 270.676 276.061C270.139 275.28 269.871 274.214 269.871 272.865C269.871 271.485 270.139 270.41 270.676 269.639C271.217 268.868 271.98 268.483 272.965 268.483C273.522 268.483 274.007 268.61 274.418 268.865C274.829 269.115 275.145 269.485 275.363 269.975H275.379L275.363 268.584V265.483H277.559V275.233C277.559 275.753 277.579 276.368 277.621 277.076H275.496ZM275.395 272.811C275.395 271.91 275.249 271.212 274.957 270.717C274.665 270.222 274.262 269.975 273.746 269.975C273.225 269.975 272.829 270.22 272.559 270.709C272.293 271.194 272.16 271.912 272.16 272.865C272.16 273.824 272.296 274.543 272.566 275.022C272.842 275.496 273.23 275.733 273.73 275.733C274.053 275.733 274.342 275.618 274.598 275.389C274.853 275.155 275.048 274.821 275.184 274.389C275.324 273.957 275.395 273.431 275.395 272.811Z"
    fill="white" />
  <path
    d="M243.676 418.06H242.371V416.576H243.785L244.473 414.373H245.848V416.576H248.855V418.06H245.848V422.201C245.848 422.659 245.889 422.969 245.973 423.13C246.061 423.287 246.202 423.412 246.395 423.505C246.587 423.594 246.858 423.638 247.207 423.638C247.853 423.638 248.517 423.568 249.199 423.427V424.88C248.46 425 247.936 425.07 247.629 425.091C247.322 425.117 247.001 425.13 246.668 425.13C246.007 425.13 245.452 425.042 245.004 424.865C244.561 424.682 244.225 424.401 243.996 424.021C243.772 423.636 243.66 423.097 243.66 422.404L243.676 418.06ZM256.926 423.544H259.684V425.029H251.645V423.544H254.73V418.06H252.465V416.576H256.926V423.544ZM254.73 415.052V413.435H256.926V415.052H254.73ZM264.246 425.029V419.888C264.246 419.112 264.197 418.573 264.098 418.271C264.004 417.969 263.827 417.818 263.566 417.818C263.301 417.818 263.09 418.063 262.934 418.552C262.783 419.042 262.707 419.685 262.707 420.482V425.029H260.918V418.38C260.918 417.396 260.902 416.794 260.871 416.576H262.504L262.551 417.568V417.943H262.566C262.743 417.412 262.967 417.026 263.238 416.787C263.509 416.542 263.848 416.419 264.254 416.419C264.712 416.419 265.053 416.544 265.277 416.794C265.507 417.044 265.671 417.43 265.77 417.951H265.785C265.993 417.399 266.241 417.005 266.527 416.771C266.819 416.537 267.186 416.419 267.629 416.419C268.243 416.419 268.684 416.643 268.949 417.091C269.215 417.539 269.348 418.307 269.348 419.396V425.029H267.566V419.888C267.566 419.112 267.517 418.573 267.418 418.271C267.324 417.969 267.147 417.818 266.887 417.818C266.621 417.818 266.41 418.029 266.254 418.451C266.103 418.867 266.027 419.495 266.027 420.333V425.029H264.246ZM274.832 425.185C273.52 425.185 272.507 424.8 271.793 424.029C271.079 423.253 270.723 422.164 270.723 420.763C270.723 419.826 270.889 419.034 271.223 418.388C271.561 417.742 272.04 417.253 272.66 416.919C273.28 416.586 274.014 416.419 274.863 416.419C276.098 416.419 277.056 416.831 277.738 417.654C278.421 418.477 278.762 419.646 278.762 421.162V421.224H273.027C273.027 421.99 273.197 422.597 273.535 423.044C273.879 423.492 274.348 423.716 274.941 423.716C275.327 423.716 275.668 423.636 275.965 423.474C276.262 423.307 276.462 423.052 276.566 422.708L278.637 422.888C278.35 423.623 277.874 424.19 277.207 424.591C276.54 424.987 275.749 425.185 274.832 425.185ZM274.832 417.802C274.296 417.802 273.868 417.985 273.551 418.349C273.233 418.708 273.064 419.208 273.043 419.849H276.637C276.6 419.224 276.421 418.727 276.098 418.357C275.78 417.987 275.358 417.802 274.832 417.802ZM283.223 425.029V422.646H285.48V425.029H283.223ZM283.223 418.935V416.552H285.48V418.935H283.223Z"
    fill="white" />
  <path
    d="M294.197 425.029V423.505C294.458 422.932 294.827 422.36 295.307 421.787C295.791 421.208 296.494 420.544 297.416 419.794C298.135 419.206 298.601 418.8 298.814 418.576C299.028 418.352 299.195 418.136 299.314 417.927C299.439 417.714 299.502 417.498 299.502 417.279C299.502 416.904 299.38 416.61 299.135 416.396C298.89 416.182 298.531 416.076 298.057 416.076C297.588 416.076 297.229 416.203 296.979 416.458C296.734 416.708 296.575 417.086 296.502 417.591L294.291 417.466C294.416 416.445 294.796 415.667 295.432 415.13C296.072 414.594 296.942 414.326 298.041 414.326C299.176 414.326 300.075 414.586 300.736 415.107C301.398 415.623 301.729 416.315 301.729 417.185C301.729 417.753 301.549 418.307 301.189 418.849C300.835 419.386 300.301 419.932 299.588 420.49C298.577 421.271 297.898 421.833 297.549 422.177C297.2 422.521 296.947 422.87 296.791 423.224H301.9V425.029H294.197Z"
    fill="white" />
  <path d="M338.981 271.422L333.767 280.453L328.554 271.422L338.981 271.422Z" fill="#422417"
    stroke="#D4289A" stroke-width="2.5" />
  <path
    d="M415.4 240.11C417.791 240.11 419.73 238.983 419.73 237.593C419.73 236.203 417.791 235.076 415.4 235.076C413.008 235.076 411.07 236.203 411.07 237.593C411.07 238.983 413.008 240.11 415.4 240.11Z"
    fill="#F547BA" />
  <path
    d="M415.4 259.076C417.791 259.076 419.73 257.949 419.73 256.559C419.73 255.169 417.791 254.042 415.4 254.042C413.008 254.042 411.07 255.169 411.07 256.559C411.07 257.949 413.008 259.076 415.4 259.076Z"
    fill="#F547BA" />
  <path
    d="M409.366 243.594C410.562 241.525 410.554 239.283 409.349 238.587C408.144 237.892 406.197 239.006 405.002 241.076C403.806 243.146 403.814 245.387 405.019 246.083C406.224 246.779 408.171 245.664 409.366 243.594Z"
    fill="#F547BA" />
  <path
    d="M425.798 253.077C426.994 251.007 426.987 248.765 425.782 248.07C424.578 247.375 422.632 248.49 421.436 250.559C420.24 252.629 420.247 254.871 421.452 255.566C422.656 256.261 424.602 255.146 425.798 253.077Z"
    fill="#F547BA" />
  <path
    d="M409.349 255.565C410.554 254.87 410.562 252.628 409.366 250.558C408.171 248.488 406.224 247.374 405.019 248.069C403.814 248.765 403.806 251.007 405.002 253.077C406.197 255.146 408.144 256.261 409.349 255.565Z"
    fill="#F547BA" />
  <path
    d="M425.782 246.084C426.987 245.389 426.994 243.147 425.798 241.077C424.602 239.007 422.657 237.893 421.452 238.588C420.248 239.283 420.24 241.525 421.436 243.594C422.632 245.664 424.578 246.779 425.782 246.084Z"
    fill="#F547BA" />
  <g opacity="0.25">
    <path fill-rule="evenodd" clip-rule="evenodd"
      d="M216.636 218.348V219.575C216.636 220.396 217.303 221.069 218.12 221.069H219.337C220.153 221.069 220.821 220.396 220.821 219.575V218.348C220.821 217.526 220.153 216.853 219.337 216.853H218.12C217.303 216.853 216.636 217.526 216.636 218.348Z"
      fill="white" />
    <path fill-rule="evenodd" clip-rule="evenodd"
      d="M216.636 214.535C216.636 215.735 215.699 216.711 214.545 216.711C213.392 216.711 212.455 217.686 212.455 218.893C212.455 220.093 211.517 221.069 210.357 221.069C209.204 221.069 208.267 220.093 208.267 218.893C208.267 217.686 209.204 216.711 210.357 216.711C211.517 216.711 212.455 215.735 212.455 214.535C212.455 213.334 211.517 212.359 210.357 212.359H209.749C208.936 212.359 208.267 211.662 208.267 210.816V209.544C208.267 208.698 208.936 208.001 209.749 208.001H210.971C211.785 208.001 212.455 208.698 212.455 209.544V210.183C212.455 211.384 213.392 212.359 214.545 212.359C215.699 212.359 216.636 213.334 216.636 214.535Z"
      fill="white" />
    <path fill-rule="evenodd" clip-rule="evenodd"
      d="M220.822 226.775V228.007C220.822 228.826 220.129 229.5 219.29 229.5H218.027C217.187 229.5 216.495 228.826 216.495 228.007V227.394C216.495 226.225 215.527 225.281 214.335 225.281C213.143 225.281 212.175 226.225 212.175 227.394C212.175 228.557 211.207 229.5 210.008 229.5C208.817 229.5 207.849 228.557 207.849 227.394C207.849 226.225 208.817 225.281 210.008 225.281C211.207 225.281 212.175 224.338 212.175 223.175V222.563C212.175 221.737 212.86 221.069 213.707 221.069H214.963C215.81 221.069 216.495 221.737 216.495 222.563V223.175C216.495 224.338 217.463 225.281 218.655 225.281H219.29C220.129 225.281 220.822 225.956 220.822 226.775Z"
      fill="white" />
    <mask id="mask0_1014_84103" style="mask-type:alpha" maskUnits="userSpaceOnUse" x="220" y="216"
      width="10" height="14">
      <path d="M220.824 216.431H229.193V229.5H220.824V216.431Z" fill="white" />
    </mask>
    <g mask="url(#mask0_1014_84103)">
      <path fill-rule="evenodd" clip-rule="evenodd"
        d="M229.193 227.324C229.193 228.525 228.256 229.5 227.095 229.5C225.941 229.5 225.005 228.525 225.005 227.324C225.005 226.117 224.068 225.141 222.914 225.141H222.305C221.487 225.141 220.823 224.451 220.823 223.598V222.333C220.823 221.48 221.487 220.79 222.305 220.79H222.914C224.068 220.79 225.005 219.814 225.005 218.614C225.005 217.406 225.941 216.431 227.095 216.431C228.256 216.431 229.193 217.406 229.193 218.614C229.193 219.814 228.256 220.79 227.095 220.79C225.941 220.79 225.005 221.765 225.005 222.966C225.005 224.166 225.941 225.141 227.095 225.141C228.256 225.141 229.193 226.117 229.193 227.324Z"
        fill="white" />
    </g>
    <mask id="mask1_1014_84103" style="mask-type:alpha" maskUnits="userSpaceOnUse" x="216" y="208"
      width="14" height="9">
      <path d="M216.22 208.001H229.193V216.432H216.22V208.001Z" fill="white" />
    </mask>
    <g mask="url(#mask1_1014_84103)">
      <path fill-rule="evenodd" clip-rule="evenodd"
        d="M229.193 209.494V210.726C229.193 211.544 228.501 212.219 227.66 212.219H227.026C225.834 212.219 224.866 213.163 224.866 214.325C224.866 215.488 223.898 216.432 222.706 216.432C221.514 216.432 220.546 215.488 220.546 214.325C220.546 213.163 219.578 212.219 218.38 212.219H217.751C216.912 212.219 216.22 211.544 216.22 210.726V209.494C216.22 208.676 216.912 208.001 217.751 208.001H219.014C219.854 208.001 220.546 208.676 220.546 209.494V210.113C220.546 211.276 221.514 212.219 222.706 212.219C223.898 212.219 224.866 211.276 224.866 210.113V209.494C224.866 208.676 225.559 208.001 226.398 208.001H227.66C228.501 208.001 229.193 208.676 229.193 209.494Z"
        fill="white" />
    </g>
  </g>
</svg>
