<svg
  width="403"
  height="198"
  viewBox="0 0 403 198"
  fill="none"
  xmlns="http://www.w3.org/2000/svg"
>
  <rect x="0.263672" width="402" height="198" rx="8" fill="#1F1D2B" />
  <path
    d="M21.7178 60.5H19.4209L16.6387 53.1035H18.6689L20.0977 57.3555C20.166 57.5833 20.3278 58.153 20.583 59.0645C20.6104 58.9551 20.6924 58.6657 20.8291 58.1963C20.9704 57.7223 21.5514 56.0247 22.5723 53.1035H24.582L21.7178 60.5ZM30.2627 59.2012H32.6758V60.5H25.6416V59.2012H28.3418V54.4023H26.3594V53.1035H30.2627V59.2012ZM28.3418 51.7705V50.3555H30.2627V51.7705H28.3418ZM37.5225 60.6367C36.374 60.6367 35.4876 60.2995 34.8633 59.625C34.2389 58.946 33.9268 57.9935 33.9268 56.7676C33.9268 55.9473 34.0726 55.2546 34.3643 54.6895C34.6605 54.1243 35.0798 53.696 35.6221 53.4043C36.1644 53.1126 36.807 52.9668 37.5498 52.9668C38.6299 52.9668 39.4684 53.3268 40.0654 54.0469C40.6624 54.7669 40.9609 55.79 40.9609 57.1162V57.1709H35.9434C35.9434 57.8408 36.0915 58.3717 36.3877 58.7637C36.6885 59.1556 37.0986 59.3516 37.6182 59.3516C37.9554 59.3516 38.2539 59.2809 38.5137 59.1396C38.7734 58.9938 38.9489 58.7705 39.04 58.4697L40.8516 58.627C40.6009 59.2695 40.1839 59.7663 39.6006 60.1172C39.0173 60.4635 38.3245 60.6367 37.5225 60.6367ZM37.5225 54.1768C37.0531 54.1768 36.6794 54.3363 36.4014 54.6553C36.1234 54.9697 35.9753 55.4072 35.957 55.9678H39.1016C39.0697 55.4209 38.9124 54.9857 38.6299 54.6621C38.3519 54.3385 37.9827 54.1768 37.5225 54.1768ZM48.6787 60.5H47.0107L46.0332 57.2803C45.9193 56.9157 45.8577 56.6833 45.8486 56.583C45.8441 56.624 45.819 56.7311 45.7734 56.9043C45.7279 57.0729 45.3496 58.2715 44.6387 60.5H42.9775L41.7266 53.1035H43.2852L43.8525 57.2529C43.9391 57.9456 43.9824 58.4606 43.9824 58.7979L44.1191 58.292L45.1924 54.915H46.5117L47.4688 58.0254C47.5371 58.2533 47.6032 58.5107 47.667 58.7979C47.667 58.5153 47.6898 58.1895 47.7354 57.8203C47.7809 57.4512 48.0133 55.8789 48.4326 53.1035H49.9775L48.6787 60.5ZM61.4688 60.6367C60.7533 60.6367 60.195 60.443 59.7939 60.0557C59.3929 59.6637 59.1924 59.1146 59.1924 58.4082C59.1924 57.6426 59.4294 57.0615 59.9033 56.665C60.3818 56.264 61.0951 56.0566 62.043 56.043L63.5674 56.0156V55.6396C63.5674 55.1702 63.4876 54.8148 63.3281 54.5732C63.1686 54.3317 62.9111 54.2109 62.5557 54.2109C62.223 54.2109 61.9769 54.2952 61.8174 54.4639C61.6624 54.6279 61.5667 54.8923 61.5303 55.2568L59.5273 55.1611C59.7734 53.6982 60.8102 52.9668 62.6377 52.9668C63.5583 52.9668 64.2624 53.1924 64.75 53.6436C65.2422 54.0947 65.4883 54.7578 65.4883 55.6328V58.3125C65.4883 58.7272 65.5339 59.0143 65.625 59.1738C65.7207 59.3288 65.8779 59.4062 66.0967 59.4062C66.2425 59.4062 66.3838 59.3926 66.5205 59.3652V60.4043C66.4066 60.4316 66.304 60.4567 66.2129 60.4795C66.1217 60.5023 66.0306 60.5205 65.9395 60.5342C65.8483 60.5479 65.7503 60.5592 65.6455 60.5684C65.5452 60.5775 65.4268 60.582 65.29 60.582C64.807 60.582 64.4492 60.4635 64.2168 60.2266C63.9889 59.9896 63.8522 59.641 63.8066 59.1807H63.7656C63.4785 59.6956 63.1504 60.0671 62.7812 60.2949C62.4167 60.5228 61.9792 60.6367 61.4688 60.6367ZM63.5674 57.0752L62.6514 57.0889C62.2412 57.098 61.9427 57.1413 61.7559 57.2188C61.5736 57.2917 61.4346 57.4124 61.3389 57.5811C61.2432 57.7451 61.1953 57.9707 61.1953 58.2578C61.1953 58.9505 61.4688 59.2969 62.0156 59.2969C62.4577 59.2969 62.8268 59.1237 63.123 58.7773C63.4193 58.4264 63.5674 57.9844 63.5674 57.4512V57.0752ZM70.0889 60.5V58.415H72.0645V60.5H70.0889ZM70.0889 55.168V53.083H72.0645V55.168H70.0889ZM86.2422 63.4053V50.3555H90.3574V51.6543H88.0605V62.0996H90.3574V63.4053H86.2422Z"
    fill="white"
  />
  <path
    d="M107.784 65.5203L100.406 52.7398L115.163 52.7398L107.784 65.5203Z"
    fill="#165DBD"
  />
  <path
    d="M131.824 65.5203L124.446 52.7398L139.203 52.7398L131.824 65.5203Z"
    fill="#6F54FF"
  />
  <path
    d="M161.079 53.9898L155.865 63.0203L150.652 53.9898L161.079 53.9898Z"
    fill="#D4289A"
    stroke="#D4289A"
    stroke-width="2.5"
  />
  <path
    d="M173.418 63.4053V62.0996H175.715V51.6543H173.418V50.3555H177.533V63.4053H173.418Z"
    fill="white"
  />
  <path
    d="M21.7178 88.5H19.4209L16.6387 81.1035H18.6689L20.0977 85.3555C20.166 85.5833 20.3278 86.153 20.583 87.0645C20.6104 86.9551 20.6924 86.6657 20.8291 86.1963C20.9704 85.7223 21.5514 84.0247 22.5723 81.1035H24.582L21.7178 88.5ZM30.2627 87.2012H32.6758V88.5H25.6416V87.2012H28.3418V82.4023H26.3594V81.1035H30.2627V87.2012ZM28.3418 79.7705V78.3555H30.2627V79.7705H28.3418ZM37.5225 88.6367C36.374 88.6367 35.4876 88.2995 34.8633 87.625C34.2389 86.946 33.9268 85.9935 33.9268 84.7676C33.9268 83.9473 34.0726 83.2546 34.3643 82.6895C34.6605 82.1243 35.0798 81.696 35.6221 81.4043C36.1644 81.1126 36.807 80.9668 37.5498 80.9668C38.6299 80.9668 39.4684 81.3268 40.0654 82.0469C40.6624 82.7669 40.9609 83.79 40.9609 85.1162V85.1709H35.9434C35.9434 85.8408 36.0915 86.3717 36.3877 86.7637C36.6885 87.1556 37.0986 87.3516 37.6182 87.3516C37.9554 87.3516 38.2539 87.2809 38.5137 87.1396C38.7734 86.9938 38.9489 86.7705 39.04 86.4697L40.8516 86.627C40.6009 87.2695 40.1839 87.7663 39.6006 88.1172C39.0173 88.4635 38.3245 88.6367 37.5225 88.6367ZM37.5225 82.1768C37.0531 82.1768 36.6794 82.3363 36.4014 82.6553C36.1234 82.9697 35.9753 83.4072 35.957 83.9678H39.1016C39.0697 83.4209 38.9124 82.9857 38.6299 82.6621C38.3519 82.3385 37.9827 82.1768 37.5225 82.1768ZM48.6787 88.5H47.0107L46.0332 85.2803C45.9193 84.9157 45.8577 84.6833 45.8486 84.583C45.8441 84.624 45.819 84.7311 45.7734 84.9043C45.7279 85.0729 45.3496 86.2715 44.6387 88.5H42.9775L41.7266 81.1035H43.2852L43.8525 85.2529C43.9391 85.9456 43.9824 86.4606 43.9824 86.7979L44.1191 86.292L45.1924 82.915H46.5117L47.4688 86.0254C47.5371 86.2533 47.6032 86.5107 47.667 86.7979C47.667 86.5153 47.6898 86.1895 47.7354 85.8203C47.7809 85.4512 48.0133 83.8789 48.4326 81.1035H49.9775L48.6787 88.5ZM59.4248 88.5C59.4613 87.8802 59.4795 87.3424 59.4795 86.8867V78.3555H61.4004V81.0488L61.3867 82.2656H61.4004C61.5872 81.8509 61.8675 81.5296 62.2412 81.3018C62.6195 81.0739 63.0615 80.96 63.5674 80.96C64.415 80.96 65.0667 81.2949 65.5225 81.9648C65.9782 82.6348 66.2061 83.5827 66.2061 84.8086C66.2061 85.9661 65.9645 86.8936 65.4814 87.5908C64.9984 88.2881 64.3398 88.6367 63.5059 88.6367C63.0319 88.6367 62.6149 88.5251 62.2549 88.3018C61.8994 88.0739 61.6191 87.7389 61.4141 87.2969H61.3867C61.3867 87.4473 61.3753 87.6569 61.3525 87.9258C61.3343 88.1901 61.3115 88.3815 61.2842 88.5H59.4248ZM61.373 84.7607C61.373 85.3076 61.4323 85.7702 61.5508 86.1484C61.6738 86.5267 61.8447 86.8184 62.0635 87.0234C62.2868 87.224 62.542 87.3242 62.8291 87.3242C63.2666 87.3242 63.6038 87.1146 63.8408 86.6953C64.0824 86.276 64.2031 85.6471 64.2031 84.8086C64.2031 83.9746 64.0846 83.3434 63.8477 82.915C63.6152 82.4821 63.2712 82.2656 62.8154 82.2656C62.3688 82.2656 62.0156 82.4844 61.7559 82.9219C61.5007 83.3594 61.373 83.9723 61.373 84.7607ZM70.0889 88.5V86.415H72.0645V88.5H70.0889ZM70.0889 83.168V81.083H72.0645V83.168H70.0889ZM86.2422 91.4053V78.3555H90.3574V79.6543H88.0605V90.0996H90.3574V91.4053H86.2422Z"
    fill="white"
  />
  <path
    d="M112.998 81.9898L107.784 91.0203L102.571 81.9898L112.998 81.9898Z"
    fill="#181F2B"
    stroke="#E63535"
    stroke-width="2.5"
  />
  <path
    d="M131.824 93.5203L124.446 80.7398L139.203 80.7398L131.824 93.5203Z"
    fill="#6F54FF"
  />
  <path
    d="M161.079 81.9898L155.865 91.0203L150.652 81.9898L161.079 81.9898Z"
    fill="#D4289A"
    stroke="#D4289A"
    stroke-width="2.5"
  />
  <path
    d="M173.418 91.4053V90.0996H175.715V79.6543H173.418V78.3555H177.533V91.4053H173.418Z"
    fill="white"
  />
  <path
    d="M21.7178 116.5H19.4209L16.6387 109.104H18.6689L20.0977 113.355C20.166 113.583 20.3278 114.153 20.583 115.064C20.6104 114.955 20.6924 114.666 20.8291 114.196C20.9704 113.722 21.5514 112.025 22.5723 109.104H24.582L21.7178 116.5ZM30.2627 115.201H32.6758V116.5H25.6416V115.201H28.3418V110.402H26.3594V109.104H30.2627V115.201ZM28.3418 107.771V106.355H30.2627V107.771H28.3418ZM37.5225 116.637C36.374 116.637 35.4876 116.299 34.8633 115.625C34.2389 114.946 33.9268 113.993 33.9268 112.768C33.9268 111.947 34.0726 111.255 34.3643 110.689C34.6605 110.124 35.0798 109.696 35.6221 109.404C36.1644 109.113 36.807 108.967 37.5498 108.967C38.6299 108.967 39.4684 109.327 40.0654 110.047C40.6624 110.767 40.9609 111.79 40.9609 113.116V113.171H35.9434C35.9434 113.841 36.0915 114.372 36.3877 114.764C36.6885 115.156 37.0986 115.352 37.6182 115.352C37.9554 115.352 38.2539 115.281 38.5137 115.14C38.7734 114.994 38.9489 114.771 39.04 114.47L40.8516 114.627C40.6009 115.27 40.1839 115.766 39.6006 116.117C39.0173 116.464 38.3245 116.637 37.5225 116.637ZM37.5225 110.177C37.0531 110.177 36.6794 110.336 36.4014 110.655C36.1234 110.97 35.9753 111.407 35.957 111.968H39.1016C39.0697 111.421 38.9124 110.986 38.6299 110.662C38.3519 110.339 37.9827 110.177 37.5225 110.177ZM48.6787 116.5H47.0107L46.0332 113.28C45.9193 112.916 45.8577 112.683 45.8486 112.583C45.8441 112.624 45.819 112.731 45.7734 112.904C45.7279 113.073 45.3496 114.271 44.6387 116.5H42.9775L41.7266 109.104H43.2852L43.8525 113.253C43.9391 113.946 43.9824 114.461 43.9824 114.798L44.1191 114.292L45.1924 110.915H46.5117L47.4688 114.025C47.5371 114.253 47.6032 114.511 47.667 114.798C47.667 114.515 47.6898 114.189 47.7354 113.82C47.7809 113.451 48.0133 111.879 48.4326 109.104H49.9775L48.6787 116.5ZM62.7334 116.637C61.6123 116.637 60.7464 116.304 60.1357 115.639C59.5251 114.969 59.2197 114.037 59.2197 112.843C59.2197 111.621 59.5273 110.671 60.1426 109.992C60.7578 109.309 61.6305 108.967 62.7607 108.967C63.6312 108.967 64.3512 109.186 64.9209 109.623C65.4906 110.061 65.8483 110.664 65.9941 111.435L64.0596 111.53C64.0049 111.152 63.8682 110.851 63.6494 110.628C63.4307 110.4 63.1208 110.286 62.7197 110.286C61.7308 110.286 61.2363 111.113 61.2363 112.768C61.2363 114.472 61.7399 115.324 62.7471 115.324C63.1117 115.324 63.417 115.21 63.6631 114.982C63.9092 114.75 64.0618 114.406 64.1211 113.95L66.0488 114.039C65.9805 114.545 65.7982 114.996 65.502 115.393C65.2103 115.789 64.8252 116.097 64.3467 116.315C63.8682 116.53 63.3304 116.637 62.7334 116.637ZM70.0889 116.5V114.415H72.0645V116.5H70.0889ZM70.0889 111.168V109.083H72.0645V111.168H70.0889ZM86.2422 119.405V106.355H90.3574V107.654H88.0605V118.1H90.3574V119.405H86.2422Z"
    fill="white"
  />
  <path
    d="M112.998 109.99L107.784 119.02L102.571 109.99L112.998 109.99Z"
    fill="#181F2B"
    stroke="#E63535"
    stroke-width="2.5"
  />
  <path
    d="M131.824 121.52L124.446 108.74L139.203 108.74L131.824 121.52Z"
    fill="#165DBD"
  />
  <path
    d="M161.079 109.99L155.865 119.02L150.652 109.99L161.079 109.99Z"
    fill="#D4289A"
    stroke="#D4289A"
    stroke-width="2.5"
  />
  <path
    d="M173.418 119.405V118.1H175.715V107.654H173.418V106.355H177.533V119.405H173.418Z"
    fill="white"
  />
  <path
    d="M21.7178 144.5H19.4209L16.6387 137.104H18.6689L20.0977 141.355C20.166 141.583 20.3278 142.153 20.583 143.064C20.6104 142.955 20.6924 142.666 20.8291 142.196C20.9704 141.722 21.5514 140.025 22.5723 137.104H24.582L21.7178 144.5ZM30.2627 143.201H32.6758V144.5H25.6416V143.201H28.3418V138.402H26.3594V137.104H30.2627V143.201ZM28.3418 135.771V134.355H30.2627V135.771H28.3418ZM37.5225 144.637C36.374 144.637 35.4876 144.299 34.8633 143.625C34.2389 142.946 33.9268 141.993 33.9268 140.768C33.9268 139.947 34.0726 139.255 34.3643 138.689C34.6605 138.124 35.0798 137.696 35.6221 137.404C36.1644 137.113 36.807 136.967 37.5498 136.967C38.6299 136.967 39.4684 137.327 40.0654 138.047C40.6624 138.767 40.9609 139.79 40.9609 141.116V141.171H35.9434C35.9434 141.841 36.0915 142.372 36.3877 142.764C36.6885 143.156 37.0986 143.352 37.6182 143.352C37.9554 143.352 38.2539 143.281 38.5137 143.14C38.7734 142.994 38.9489 142.771 39.04 142.47L40.8516 142.627C40.6009 143.27 40.1839 143.766 39.6006 144.117C39.0173 144.464 38.3245 144.637 37.5225 144.637ZM37.5225 138.177C37.0531 138.177 36.6794 138.336 36.4014 138.655C36.1234 138.97 35.9753 139.407 35.957 139.968H39.1016C39.0697 139.421 38.9124 138.986 38.6299 138.662C38.3519 138.339 37.9827 138.177 37.5225 138.177ZM48.6787 144.5H47.0107L46.0332 141.28C45.9193 140.916 45.8577 140.683 45.8486 140.583C45.8441 140.624 45.819 140.731 45.7734 140.904C45.7279 141.073 45.3496 142.271 44.6387 144.5H42.9775L41.7266 137.104H43.2852L43.8525 141.253C43.9391 141.946 43.9824 142.461 43.9824 142.798L44.1191 142.292L45.1924 138.915H46.5117L47.4688 142.025C47.5371 142.253 47.6032 142.511 47.667 142.798C47.667 142.515 47.6898 142.189 47.7354 141.82C47.7809 141.451 48.0133 139.879 48.4326 137.104H49.9775L48.6787 144.5ZM64.0527 144.5C64.0345 144.432 64.0117 144.261 63.9844 143.987C63.9616 143.709 63.9502 143.479 63.9502 143.297H63.9229C63.6813 143.785 63.3828 144.131 63.0273 144.336C62.6719 144.536 62.2503 144.637 61.7627 144.637C60.9469 144.637 60.3044 144.295 59.835 143.611C59.3656 142.928 59.1309 141.996 59.1309 140.815C59.1309 139.608 59.3656 138.667 59.835 137.992C60.3089 137.318 60.9766 136.98 61.8379 136.98C62.3255 136.98 62.7493 137.092 63.1094 137.315C63.4694 137.534 63.7451 137.858 63.9365 138.286H63.9502L63.9365 137.069V134.355H65.8574V142.887C65.8574 143.342 65.8757 143.88 65.9121 144.5H64.0527ZM63.9639 140.768C63.9639 139.979 63.8363 139.368 63.5811 138.936C63.3258 138.503 62.9727 138.286 62.5215 138.286C62.0658 138.286 61.7194 138.5 61.4824 138.929C61.25 139.353 61.1338 139.981 61.1338 140.815C61.1338 141.654 61.2523 142.283 61.4893 142.702C61.7308 143.117 62.0703 143.324 62.5078 143.324C62.7904 143.324 63.0433 143.224 63.2666 143.023C63.4899 142.818 63.6608 142.527 63.7793 142.148C63.9023 141.77 63.9639 141.31 63.9639 140.768ZM70.0889 144.5V142.415H72.0645V144.5H70.0889ZM70.0889 139.168V137.083H72.0645V139.168H70.0889ZM86.2422 147.405V134.355H90.3574V135.654H88.0605V146.1H90.3574V147.405H86.2422Z"
    fill="white"
  />
  <path
    d="M112.998 137.99L107.784 147.02L102.571 137.99L112.998 137.99Z"
    fill="#181F2B"
    stroke="#E63535"
    stroke-width="2.5"
  />
  <path
    d="M131.824 149.52L124.446 136.74L139.203 136.74L131.824 149.52Z"
    fill="#165DBD"
  />
  <path
    d="M155.865 149.52L148.487 136.74L163.244 136.74L155.865 149.52Z"
    fill="#6F54FF"
  />
  <path
    d="M173.418 147.405V146.1H175.715V135.654H173.418V134.355H177.533V147.405H173.418Z"
    fill="white"
  />
</svg>
