<svg
  width="402"
  height="158"
  viewBox="0 0 402 158"
  fill="none"
  xmlns="http://www.w3.org/2000/svg"
>
  <rect width="402" height="158" rx="8" fill="#1F1D2B" />
  <path
    d="M20.2656 51.1367C19.1445 51.1367 18.2786 50.804 17.668 50.1387C17.0573 49.4688 16.752 48.5368 16.752 47.3428C16.752 46.1214 17.0596 45.1712 17.6748 44.4922C18.29 43.8086 19.1628 43.4668 20.293 43.4668C21.1634 43.4668 21.8835 43.6855 22.4531 44.123C23.0228 44.5605 23.3805 45.1644 23.5264 45.9346L21.5918 46.0303C21.5371 45.652 21.4004 45.3512 21.1816 45.1279C20.9629 44.9001 20.653 44.7861 20.252 44.7861C19.263 44.7861 18.7686 45.6133 18.7686 47.2676C18.7686 48.972 19.2721 49.8242 20.2793 49.8242C20.6439 49.8242 20.9492 49.7103 21.1953 49.4824C21.4414 49.25 21.5941 48.9059 21.6533 48.4502L23.5811 48.5391C23.5127 49.0449 23.3304 49.4961 23.0342 49.8926C22.7425 50.2891 22.3574 50.5967 21.8789 50.8154C21.4004 51.0296 20.8626 51.1367 20.2656 51.1367ZM27.2793 45.0801C27.5391 44.515 27.8649 44.1048 28.2568 43.8496C28.6488 43.5944 29.1159 43.4668 29.6582 43.4668C30.4238 43.4668 30.998 43.6992 31.3809 44.1641C31.7637 44.6289 31.9551 45.3444 31.9551 46.3105V51H30.041V46.7549C30.041 46.0667 29.9476 45.5882 29.7607 45.3193C29.5785 45.0459 29.2777 44.9092 28.8584 44.9092C28.3936 44.9092 28.0176 45.1097 27.7305 45.5107C27.4479 45.9072 27.3066 46.4176 27.3066 47.042V51H25.3857V40.8555H27.3066V43.624C27.3066 44.1208 27.2884 44.6061 27.252 45.0801H27.2793ZM35.8174 51.1367C35.1019 51.1367 34.5436 50.943 34.1426 50.5557C33.7415 50.1637 33.541 49.6146 33.541 48.9082C33.541 48.1426 33.778 47.5615 34.252 47.165C34.7305 46.764 35.4437 46.5566 36.3916 46.543L37.916 46.5156V46.1396C37.916 45.6702 37.8363 45.3148 37.6768 45.0732C37.5173 44.8317 37.2598 44.7109 36.9043 44.7109C36.5716 44.7109 36.3255 44.7952 36.166 44.9639C36.0111 45.1279 35.9154 45.3923 35.8789 45.7568L33.876 45.6611C34.1221 44.1982 35.1589 43.4668 36.9863 43.4668C37.9069 43.4668 38.611 43.6924 39.0986 44.1436C39.5908 44.5947 39.8369 45.2578 39.8369 46.1328V48.8125C39.8369 49.2272 39.8825 49.5143 39.9736 49.6738C40.0693 49.8288 40.2266 49.9062 40.4453 49.9062C40.5911 49.9062 40.7324 49.8926 40.8691 49.8652V50.9043C40.7552 50.9316 40.6527 50.9567 40.5615 50.9795C40.4704 51.0023 40.3792 51.0205 40.2881 51.0342C40.1969 51.0479 40.099 51.0592 39.9941 51.0684C39.8939 51.0775 39.7754 51.082 39.6387 51.082C39.1556 51.082 38.7979 50.9635 38.5654 50.7266C38.3376 50.4896 38.2008 50.141 38.1553 49.6807H38.1143C37.8271 50.1956 37.499 50.5671 37.1299 50.7949C36.7653 51.0228 36.3278 51.1367 35.8174 51.1367ZM37.916 47.5752L37 47.5889C36.5898 47.598 36.2913 47.6413 36.1045 47.7188C35.9222 47.7917 35.7832 47.9124 35.6875 48.0811C35.5918 48.2451 35.5439 48.4707 35.5439 48.7578C35.5439 49.4505 35.8174 49.7969 36.3643 49.7969C36.8063 49.7969 37.1755 49.6237 37.4717 49.2773C37.7679 48.9264 37.916 48.4844 37.916 47.9512V47.5752ZM46.6523 49.7012H49.0654V51H42.0312V49.7012H44.7314V44.9023H42.749V43.6035H46.6523V49.7012ZM44.7314 42.2705V40.8555H46.6523V42.2705H44.7314ZM55.2656 51V46.7686C55.2656 46.126 55.1768 45.6543 54.999 45.3535C54.8258 45.0527 54.5251 44.9023 54.0967 44.9023C53.6227 44.9023 53.2422 45.1051 52.9551 45.5107C52.6725 45.9118 52.5312 46.4199 52.5312 47.0352V51H50.6104V45.2578C50.6104 44.8613 50.6035 44.5378 50.5898 44.2871C50.5807 44.0319 50.5693 43.804 50.5557 43.6035H52.3877C52.4014 43.6901 52.4196 43.9225 52.4424 44.3008C52.4652 44.6745 52.4766 44.932 52.4766 45.0732H52.5039C52.7637 44.5081 53.0895 44.098 53.4814 43.8428C53.8734 43.5876 54.3405 43.46 54.8828 43.46C56.4141 43.46 57.1797 44.4079 57.1797 46.3037V51H55.2656ZM58.0068 52.5039V51.8477H66.4697V52.5039H58.0068ZM71.877 49.7012H74.29V51H67.2559V49.7012H69.9561V44.9023H67.9736V43.6035H71.877V49.7012ZM69.9561 42.2705V40.8555H71.877V42.2705H69.9561ZM80.4424 51C80.4242 50.9316 80.4014 50.7607 80.374 50.4873C80.3512 50.2093 80.3398 49.9792 80.3398 49.7969H80.3125C80.071 50.2845 79.7725 50.6309 79.417 50.8359C79.0615 51.0365 78.64 51.1367 78.1523 51.1367C77.3366 51.1367 76.694 50.7949 76.2246 50.1113C75.7552 49.4277 75.5205 48.4958 75.5205 47.3154C75.5205 46.1077 75.7552 45.1667 76.2246 44.4922C76.6986 43.8177 77.3662 43.4805 78.2275 43.4805C78.7152 43.4805 79.139 43.5921 79.499 43.8154C79.859 44.0342 80.1348 44.3577 80.3262 44.7861H80.3398L80.3262 43.5693V40.8555H82.2471V49.3867C82.2471 49.8424 82.2653 50.3802 82.3018 51H80.4424ZM80.3535 47.2676C80.3535 46.4792 80.2259 45.8685 79.9707 45.4355C79.7155 45.0026 79.3623 44.7861 78.9111 44.7861C78.4554 44.7861 78.109 45.0003 77.8721 45.4287C77.6396 45.8525 77.5234 46.4814 77.5234 47.3154C77.5234 48.154 77.6419 48.7829 77.8789 49.2021C78.1204 49.6169 78.46 49.8242 78.8975 49.8242C79.18 49.8242 79.4329 49.724 79.6562 49.5234C79.8796 49.3184 80.0505 49.0267 80.1689 48.6484C80.292 48.2702 80.3535 47.8099 80.3535 47.2676ZM83.9561 45.2441V43.7197H90.9766V45.2441H83.9561ZM83.9561 49.0107V47.5H90.9766V49.0107H83.9561ZM95.7549 45.1074L96.9102 40.8555H99.1318L97.0059 45.1074H95.7549ZM92.6172 45.1074L93.7725 40.8555H95.9941L93.8682 45.1074H92.6172ZM107.854 47.2949C107.854 48.5208 107.545 49.4688 106.925 50.1387C106.305 50.804 105.414 51.1367 104.252 51.1367C103.131 51.1367 102.26 50.804 101.641 50.1387C101.021 49.4688 100.711 48.5208 100.711 47.2949C100.711 46.0736 101.019 45.1302 101.634 44.4648C102.249 43.7995 103.135 43.4668 104.293 43.4668C106.667 43.4668 107.854 44.7428 107.854 47.2949ZM105.845 47.2949C105.845 46.4199 105.729 45.7842 105.496 45.3877C105.264 44.9867 104.872 44.7861 104.32 44.7861C103.755 44.7861 103.347 44.9867 103.097 45.3877C102.851 45.7887 102.728 46.4245 102.728 47.2949C102.728 48.1745 102.853 48.8171 103.104 49.2227C103.359 49.6237 103.735 49.8242 104.231 49.8242C104.797 49.8242 105.207 49.626 105.462 49.2295C105.717 48.8285 105.845 48.1836 105.845 47.2949ZM111.307 43.6035C111.334 43.6992 111.357 43.8906 111.375 44.1777C111.398 44.4648 111.409 44.6745 111.409 44.8066H111.437C111.655 44.3737 111.947 44.041 112.312 43.8086C112.681 43.5762 113.109 43.46 113.597 43.46C114.417 43.46 115.06 43.804 115.524 44.4922C115.994 45.1803 116.229 46.1123 116.229 47.2881C116.229 48.4958 115.992 49.4391 115.518 50.1182C115.048 50.7972 114.383 51.1367 113.521 51.1367C113.034 51.1367 112.61 51.0273 112.25 50.8086C111.89 50.5853 111.614 50.2594 111.423 49.8311H111.409L111.423 51.0479V53.9053H109.502V45.2168C109.502 44.7611 109.484 44.2233 109.447 43.6035H111.307ZM111.396 47.3359C111.396 47.8783 111.455 48.334 111.573 48.7031C111.692 49.0677 111.858 49.348 112.072 49.5439C112.291 49.7354 112.546 49.8311 112.838 49.8311C113.298 49.8311 113.645 49.6146 113.877 49.1816C114.109 48.7487 114.226 48.1175 114.226 47.2881C114.226 46.4495 114.105 45.8206 113.863 45.4014C113.626 44.9821 113.289 44.7725 112.852 44.7725C112.569 44.7725 112.316 44.875 112.093 45.0801C111.869 45.2806 111.696 45.57 111.573 45.9482C111.455 46.3265 111.396 46.7891 111.396 47.3359ZM119.141 44.9023H117.999V43.6035H119.236L119.838 41.6758H121.041V43.6035H123.673V44.9023H121.041V48.5254C121.041 48.9264 121.077 49.1976 121.15 49.3389C121.228 49.4756 121.351 49.585 121.52 49.667C121.688 49.7445 121.925 49.7832 122.23 49.7832C122.796 49.7832 123.377 49.7217 123.974 49.5986V50.8701C123.326 50.9749 122.868 51.0365 122.6 51.0547C122.331 51.0775 122.05 51.0889 121.759 51.0889C121.18 51.0889 120.695 51.0114 120.303 50.8564C119.915 50.6969 119.621 50.4508 119.421 50.1182C119.225 49.7809 119.127 49.3092 119.127 48.7031L119.141 44.9023ZM130.734 49.7012H133.147V51H126.113V49.7012H128.813V44.9023H126.831V43.6035H130.734V49.7012ZM128.813 42.2705V40.8555H130.734V42.2705H128.813ZM137.14 51V46.502C137.14 45.8229 137.096 45.3512 137.01 45.0869C136.928 44.8226 136.773 44.6904 136.545 44.6904C136.312 44.6904 136.128 44.9046 135.991 45.333C135.859 45.7614 135.793 46.3242 135.793 47.0215V51H134.228V45.1826C134.228 44.3213 134.214 43.7949 134.187 43.6035H135.615L135.656 44.4717V44.7998H135.67C135.825 44.335 136.021 43.9977 136.258 43.7881C136.495 43.5739 136.791 43.4668 137.146 43.4668C137.548 43.4668 137.846 43.5762 138.042 43.7949C138.243 44.0137 138.386 44.3509 138.473 44.8066H138.486C138.669 44.3236 138.885 43.9795 139.136 43.7744C139.391 43.5693 139.712 43.4668 140.1 43.4668C140.637 43.4668 141.022 43.6628 141.255 44.0547C141.487 44.4466 141.604 45.1188 141.604 46.0713V51H140.045V46.502C140.045 45.8229 140.002 45.3512 139.915 45.0869C139.833 44.8226 139.678 44.6904 139.45 44.6904C139.218 44.6904 139.033 44.875 138.896 45.2441C138.764 45.6087 138.698 46.1579 138.698 46.8916V51H137.14ZM147.551 49.7012H149.964V51H142.93V49.7012H145.63V44.9023H143.647V43.6035H147.551V49.7012ZM145.63 42.2705V40.8555H147.551V42.2705H145.63ZM158.078 48.8398C158.078 49.5553 157.784 50.1182 157.196 50.5283C156.613 50.9339 155.804 51.1367 154.77 51.1367C153.753 51.1367 152.974 50.9772 152.432 50.6582C151.894 50.3346 151.536 49.8333 151.358 49.1543L153.047 48.9014C153.143 49.2523 153.307 49.5007 153.539 49.6465C153.776 49.7923 154.186 49.8652 154.77 49.8652C155.307 49.8652 155.699 49.7969 155.945 49.6602C156.191 49.5234 156.314 49.3092 156.314 49.0176C156.314 48.7806 156.214 48.5938 156.014 48.457C155.818 48.3158 155.483 48.1973 155.009 48.1016C153.924 47.8874 153.193 47.6891 152.814 47.5068C152.436 47.32 152.147 47.0807 151.946 46.7891C151.75 46.4928 151.652 46.1305 151.652 45.7021C151.652 44.9958 151.924 44.4466 152.466 44.0547C153.013 43.6582 153.785 43.46 154.783 43.46C155.663 43.46 156.369 43.6309 156.902 43.9727C157.44 44.3145 157.775 44.8089 157.907 45.4561L156.205 45.6338C156.15 45.333 156.016 45.1097 155.802 44.9639C155.588 44.8135 155.248 44.7383 154.783 44.7383C154.327 44.7383 153.986 44.7975 153.758 44.916C153.53 45.0299 153.416 45.2236 153.416 45.4971C153.416 45.7113 153.503 45.8822 153.676 46.0098C153.854 46.1328 154.15 46.2354 154.564 46.3174C155.143 46.4359 155.656 46.5589 156.103 46.6865C156.554 46.8096 156.914 46.9577 157.183 47.1309C157.456 47.304 157.673 47.5273 157.832 47.8008C157.996 48.0697 158.078 48.416 158.078 48.8398ZM162.364 51V46.502C162.364 45.8229 162.321 45.3512 162.234 45.0869C162.152 44.8226 161.997 44.6904 161.77 44.6904C161.537 44.6904 161.353 44.9046 161.216 45.333C161.084 45.7614 161.018 46.3242 161.018 47.0215V51H159.452V45.1826C159.452 44.3213 159.438 43.7949 159.411 43.6035H160.84L160.881 44.4717V44.7998H160.895C161.049 44.335 161.245 43.9977 161.482 43.7881C161.719 43.5739 162.016 43.4668 162.371 43.4668C162.772 43.4668 163.071 43.5762 163.267 43.7949C163.467 44.0137 163.611 44.3509 163.697 44.8066H163.711C163.893 44.3236 164.11 43.9795 164.36 43.7744C164.616 43.5693 164.937 43.4668 165.324 43.4668C165.862 43.4668 166.247 43.6628 166.479 44.0547C166.712 44.4466 166.828 45.1188 166.828 46.0713V51H165.27V46.502C165.27 45.8229 165.226 45.3512 165.14 45.0869C165.058 44.8226 164.903 44.6904 164.675 44.6904C164.442 44.6904 164.258 44.875 164.121 45.2441C163.989 45.6087 163.923 46.1579 163.923 46.8916V51H162.364ZM171.429 45.1074L172.584 40.8555H174.806L172.68 45.1074H171.429ZM168.291 45.1074L169.446 40.8555H171.668L169.542 45.1074H168.291ZM177.52 53.4814L178.675 48.9561H180.828L178.702 53.4814H177.52ZM27.4092 72.1367C26.6937 72.1367 26.1354 71.943 25.7344 71.5557C25.3333 71.1637 25.1328 70.6146 25.1328 69.9082C25.1328 69.1426 25.3698 68.5615 25.8438 68.165C26.3223 67.764 27.0355 67.5566 27.9834 67.543L29.5078 67.5156V67.1396C29.5078 66.6702 29.4281 66.3148 29.2686 66.0732C29.109 65.8317 28.8516 65.7109 28.4961 65.7109C28.1634 65.7109 27.9173 65.7952 27.7578 65.9639C27.6029 66.1279 27.5072 66.3923 27.4707 66.7568L25.4678 66.6611C25.7139 65.1982 26.7507 64.4668 28.5781 64.4668C29.4987 64.4668 30.2028 64.6924 30.6904 65.1436C31.1826 65.5947 31.4287 66.2578 31.4287 67.1328V69.8125C31.4287 70.2272 31.4743 70.5143 31.5654 70.6738C31.6611 70.8288 31.8184 70.9062 32.0371 70.9062C32.1829 70.9062 32.3242 70.8926 32.4609 70.8652V71.9043C32.347 71.9316 32.2445 71.9567 32.1533 71.9795C32.0622 72.0023 31.971 72.0205 31.8799 72.0342C31.7887 72.0479 31.6908 72.0592 31.5859 72.0684C31.4857 72.0775 31.3672 72.082 31.2305 72.082C30.7474 72.082 30.3896 71.9635 30.1572 71.7266C29.9294 71.4896 29.7926 71.141 29.7471 70.6807H29.7061C29.4189 71.1956 29.0908 71.5671 28.7217 71.7949C28.3571 72.0228 27.9196 72.1367 27.4092 72.1367ZM29.5078 68.5752L28.5918 68.5889C28.1816 68.598 27.8831 68.6413 27.6963 68.7188C27.514 68.7917 27.375 68.9124 27.2793 69.0811C27.1836 69.2451 27.1357 69.4707 27.1357 69.7578C27.1357 70.4505 27.4092 70.7969 27.9561 70.7969C28.3981 70.7969 28.7673 70.6237 29.0635 70.2773C29.3597 69.9264 29.5078 69.4844 29.5078 68.9512V68.5752ZM36.2412 72V67.502C36.2412 66.8229 36.1979 66.3512 36.1113 66.0869C36.0293 65.8226 35.8743 65.6904 35.6465 65.6904C35.4141 65.6904 35.2295 65.9046 35.0928 66.333C34.9606 66.7614 34.8945 67.3242 34.8945 68.0215V72H33.3291V66.1826C33.3291 65.3213 33.3154 64.7949 33.2881 64.6035H34.7168L34.7578 65.4717V65.7998H34.7715C34.9264 65.335 35.1224 64.9977 35.3594 64.7881C35.5964 64.5739 35.8926 64.4668 36.248 64.4668C36.6491 64.4668 36.9476 64.5762 37.1436 64.7949C37.3441 65.0137 37.4876 65.3509 37.5742 65.8066H37.5879C37.7702 65.3236 37.9867 64.9795 38.2373 64.7744C38.4925 64.5693 38.8138 64.4668 39.2012 64.4668C39.7389 64.4668 40.124 64.6628 40.3564 65.0547C40.5889 65.4466 40.7051 66.1188 40.7051 67.0713V72H39.1465V67.502C39.1465 66.8229 39.1032 66.3512 39.0166 66.0869C38.9346 65.8226 38.7796 65.6904 38.5518 65.6904C38.3193 65.6904 38.1348 65.875 37.998 66.2441C37.8659 66.6087 37.7998 67.1579 37.7998 67.8916V72H36.2412ZM48.9971 68.2949C48.9971 69.5208 48.6872 70.4688 48.0674 71.1387C47.4476 71.804 46.5566 72.1367 45.3945 72.1367C44.2734 72.1367 43.403 71.804 42.7832 71.1387C42.1634 70.4688 41.8535 69.5208 41.8535 68.2949C41.8535 67.0736 42.1611 66.1302 42.7764 65.4648C43.3916 64.7995 44.278 64.4668 45.4355 64.4668C47.8099 64.4668 48.9971 65.7428 48.9971 68.2949ZM46.9873 68.2949C46.9873 67.4199 46.8711 66.7842 46.6387 66.3877C46.4062 65.9867 46.0143 65.7861 45.4629 65.7861C44.8978 65.7861 44.4899 65.9867 44.2393 66.3877C43.9932 66.7887 43.8701 67.4245 43.8701 68.2949C43.8701 69.1745 43.9954 69.8171 44.2461 70.2227C44.5013 70.6237 44.8773 70.8242 45.374 70.8242C45.9391 70.8242 46.3493 70.626 46.6045 70.2295C46.8597 69.8285 46.9873 69.1836 46.9873 68.2949ZM52.4766 64.6035V68.7529C52.4766 69.3818 52.5768 69.8649 52.7773 70.2021C52.9824 70.5348 53.2741 70.7012 53.6523 70.7012C54.0625 70.7012 54.3997 70.5007 54.6641 70.0996C54.9329 69.694 55.0674 69.1836 55.0674 68.5684V64.6035H56.9883V70.3457C56.9883 70.9746 57.0065 71.526 57.043 72H55.2109C55.1562 71.3438 55.1289 70.8538 55.1289 70.5303H55.0947C54.6071 71.6012 53.8597 72.1367 52.8525 72.1367C52.1051 72.1367 51.5355 71.8997 51.1436 71.4258C50.7516 70.9473 50.5557 70.2386 50.5557 69.2998V64.6035H52.4766ZM63.6738 72V67.7686C63.6738 67.126 63.585 66.6543 63.4072 66.3535C63.234 66.0527 62.9333 65.9023 62.5049 65.9023C62.0309 65.9023 61.6504 66.1051 61.3633 66.5107C61.0807 66.9118 60.9395 67.4199 60.9395 68.0352V72H59.0186V66.2578C59.0186 65.8613 59.0117 65.5378 58.998 65.2871C58.9889 65.0319 58.9775 64.804 58.9639 64.6035H60.7959C60.8096 64.6901 60.8278 64.9225 60.8506 65.3008C60.8734 65.6745 60.8848 65.932 60.8848 66.0732H60.9121C61.1719 65.5081 61.4977 65.098 61.8896 64.8428C62.2816 64.5876 62.7487 64.46 63.291 64.46C64.8223 64.46 65.5879 65.4079 65.5879 67.3037V72H63.6738ZM68.6914 65.9023H67.5498V64.6035H68.7871L69.3887 62.6758H70.5918V64.6035H73.2236V65.9023H70.5918V69.5254C70.5918 69.9264 70.6283 70.1976 70.7012 70.3389C70.7786 70.4756 70.9017 70.585 71.0703 70.667C71.2389 70.7445 71.4759 70.7832 71.7812 70.7832C72.3464 70.7832 72.9274 70.7217 73.5244 70.5986V71.8701C72.8773 71.9749 72.4193 72.0365 72.1504 72.0547C71.8815 72.0775 71.6012 72.0889 71.3096 72.0889C70.7308 72.0889 70.2454 72.0114 69.8535 71.8564C69.4661 71.6969 69.1722 71.4508 68.9717 71.1182C68.7757 70.7809 68.6777 70.3092 68.6777 69.7031L68.6914 65.9023ZM75.5479 66.2441V64.7197H82.5684V66.2441H75.5479ZM75.5479 70.0107V68.5H82.5684V70.0107H75.5479ZM84.1064 72V70.667C84.3343 70.1657 84.6579 69.6644 85.0771 69.1631C85.501 68.6572 86.1162 68.0762 86.9229 67.4199C87.5518 66.9049 87.9596 66.5495 88.1465 66.3535C88.3333 66.1576 88.4792 65.9684 88.584 65.7861C88.6934 65.5993 88.748 65.4102 88.748 65.2188C88.748 64.8906 88.641 64.6331 88.4268 64.4463C88.2126 64.2594 87.8981 64.166 87.4834 64.166C87.0732 64.166 86.7588 64.2777 86.54 64.501C86.3258 64.7197 86.1868 65.0501 86.123 65.4922L84.1885 65.3828C84.2979 64.4896 84.6305 63.8083 85.1865 63.3389C85.7471 62.8695 86.5081 62.6348 87.4697 62.6348C88.4632 62.6348 89.2493 62.8626 89.8281 63.3184C90.4069 63.7695 90.6963 64.3757 90.6963 65.1367C90.6963 65.6335 90.5391 66.1188 90.2246 66.5928C89.9147 67.0622 89.4476 67.5407 88.8232 68.0283C87.9391 68.7119 87.3444 69.2041 87.0391 69.5049C86.7337 69.8057 86.5127 70.111 86.376 70.4209H90.8467V72H84.1064ZM92.6104 72V62.7783H99.2275V64.3369H94.627V66.5518H98.8105V68.1104H94.627V70.4414H99.5078V72H92.6104ZM105.291 64.3369V72H103.274V64.3369H100.499V62.7783H108.066V64.3369H105.291ZM113.932 72V68.0762H111.45V72H109.434V62.7783H111.45V66.4082H113.932V62.7783H115.948V72H113.932ZM118.662 74.4814L119.817 69.9561H121.971L119.845 74.4814H118.662ZM27.2246 85.6035C27.252 85.6992 27.2747 85.8906 27.293 86.1777C27.3158 86.4648 27.3271 86.6745 27.3271 86.8066H27.3545C27.5732 86.3737 27.8649 86.041 28.2295 85.8086C28.5986 85.5762 29.027 85.46 29.5146 85.46C30.335 85.46 30.9775 85.804 31.4424 86.4922C31.9118 87.1803 32.1465 88.1123 32.1465 89.2881C32.1465 90.4958 31.9095 91.4391 31.4355 92.1182C30.9661 92.7972 30.3008 93.1367 29.4395 93.1367C28.9518 93.1367 28.528 93.0273 28.168 92.8086C27.8079 92.5853 27.5322 92.2594 27.3408 91.8311H27.3271L27.3408 93.0479V95.9053H25.4199V87.2168C25.4199 86.7611 25.4017 86.2233 25.3652 85.6035H27.2246ZM27.3135 89.3359C27.3135 89.8783 27.3727 90.334 27.4912 90.7031C27.6097 91.0677 27.776 91.348 27.9902 91.5439C28.209 91.7354 28.4642 91.8311 28.7559 91.8311C29.2161 91.8311 29.5625 91.6146 29.7949 91.1816C30.0273 90.7487 30.1436 90.1175 30.1436 89.2881C30.1436 88.4495 30.0228 87.8206 29.7812 87.4014C29.5443 86.9821 29.207 86.7725 28.7695 86.7725C28.487 86.7725 28.234 86.875 28.0107 87.0801C27.7874 87.2806 27.6143 87.57 27.4912 87.9482C27.3727 88.3265 27.3135 88.7891 27.3135 89.3359ZM35.6602 85.6035V89.7529C35.6602 90.3818 35.7604 90.8649 35.9609 91.2021C36.166 91.5348 36.4577 91.7012 36.8359 91.7012C37.2461 91.7012 37.5833 91.5007 37.8477 91.0996C38.1165 90.694 38.251 90.1836 38.251 89.5684V85.6035H40.1719V91.3457C40.1719 91.9746 40.1901 92.526 40.2266 93H38.3945C38.3398 92.3438 38.3125 91.8538 38.3125 91.5303H38.2783C37.7907 92.6012 37.0433 93.1367 36.0361 93.1367C35.2887 93.1367 34.7191 92.8997 34.3271 92.4258C33.9352 91.9473 33.7393 91.2386 33.7393 90.2998V85.6035H35.6602ZM42.1816 93C42.2181 92.3802 42.2363 91.8424 42.2363 91.3867V82.8555H44.1572V85.5488L44.1436 86.7656H44.1572C44.3441 86.3509 44.6243 86.0296 44.998 85.8018C45.3763 85.5739 45.8184 85.46 46.3242 85.46C47.1719 85.46 47.8236 85.7949 48.2793 86.4648C48.735 87.1348 48.9629 88.0827 48.9629 89.3086C48.9629 90.4661 48.7214 91.3936 48.2383 92.0908C47.7552 92.7881 47.0967 93.1367 46.2627 93.1367C45.7887 93.1367 45.3717 93.0251 45.0117 92.8018C44.6562 92.5739 44.376 92.2389 44.1709 91.7969H44.1436C44.1436 91.9473 44.1322 92.1569 44.1094 92.4258C44.0911 92.6901 44.0684 92.8815 44.041 93H42.1816ZM44.1299 89.2607C44.1299 89.8076 44.1891 90.2702 44.3076 90.6484C44.4307 91.0267 44.6016 91.3184 44.8203 91.5234C45.0436 91.724 45.2988 91.8242 45.5859 91.8242C46.0234 91.8242 46.3607 91.6146 46.5977 91.1953C46.8392 90.776 46.96 90.1471 46.96 89.3086C46.96 88.4746 46.8415 87.8434 46.6045 87.415C46.3721 86.9821 46.028 86.7656 45.5723 86.7656C45.1257 86.7656 44.7725 86.9844 44.5127 87.4219C44.2575 87.8594 44.1299 88.4723 44.1299 89.2607ZM55.0605 91.7012H57.4736V93H50.4395V91.7012H53.1396V84.1543H51.1572V82.8555H55.0605V91.7012ZM63.4688 91.7012H65.8818V93H58.8477V91.7012H61.5479V86.9023H59.5654V85.6035H63.4688V91.7012ZM61.5479 84.2705V82.8555H63.4688V84.2705H61.5479ZM70.7148 93.1367C69.5938 93.1367 68.7279 92.804 68.1172 92.1387C67.5065 91.4688 67.2012 90.5368 67.2012 89.3428C67.2012 88.1214 67.5088 87.1712 68.124 86.4922C68.7393 85.8086 69.612 85.4668 70.7422 85.4668C71.6126 85.4668 72.3327 85.6855 72.9023 86.123C73.472 86.5605 73.8298 87.1644 73.9756 87.9346L72.041 88.0303C71.9863 87.652 71.8496 87.3512 71.6309 87.1279C71.4121 86.9001 71.1022 86.7861 70.7012 86.7861C69.7122 86.7861 69.2178 87.6133 69.2178 89.2676C69.2178 90.972 69.7214 91.8242 70.7285 91.8242C71.0931 91.8242 71.3984 91.7103 71.6445 91.4824C71.8906 91.25 72.0433 90.9059 72.1025 90.4502L74.0303 90.5391C73.9619 91.0449 73.7796 91.4961 73.4834 91.8926C73.1917 92.2891 72.8066 92.5967 72.3281 92.8154C71.8496 93.0296 71.3118 93.1367 70.7148 93.1367ZM74.8232 94.5039V93.8477H83.2861V94.5039H74.8232ZM89.1719 93L87.1963 89.6504L86.3691 90.2246V93H84.4482V82.8555H86.3691V88.666L89.0078 85.6035H91.0723L88.4746 88.4883L91.2705 93H89.1719ZM95.9531 93.1367C94.8047 93.1367 93.9183 92.7995 93.2939 92.125C92.6696 91.446 92.3574 90.4935 92.3574 89.2676C92.3574 88.4473 92.5033 87.7546 92.7949 87.1895C93.0911 86.6243 93.5104 86.196 94.0527 85.9043C94.5951 85.6126 95.2376 85.4668 95.9805 85.4668C97.0605 85.4668 97.8991 85.8268 98.4961 86.5469C99.0931 87.2669 99.3916 88.29 99.3916 89.6162V89.6709H94.374C94.374 90.3408 94.5221 90.8717 94.8184 91.2637C95.1191 91.6556 95.5293 91.8516 96.0488 91.8516C96.3861 91.8516 96.6846 91.7809 96.9443 91.6396C97.2041 91.4938 97.3796 91.2705 97.4707 90.9697L99.2822 91.127C99.0316 91.7695 98.6146 92.2663 98.0312 92.6172C97.4479 92.9635 96.7552 93.1367 95.9531 93.1367ZM95.9531 86.6768C95.4837 86.6768 95.11 86.8363 94.832 87.1553C94.554 87.4697 94.4059 87.9072 94.3877 88.4678H97.5322C97.5003 87.9209 97.3431 87.4857 97.0605 87.1621C96.7826 86.8385 96.4134 86.6768 95.9531 86.6768ZM102.304 95.9053C101.821 95.9053 101.406 95.8757 101.06 95.8164V94.4492L101.408 94.4834L101.757 94.5039C102.03 94.5039 102.256 94.4606 102.434 94.374C102.616 94.2874 102.778 94.1439 102.919 93.9434C103.065 93.7428 103.227 93.4033 103.404 92.9248L100.342 85.6035H102.372L103.671 89.2061C103.853 89.7028 104.083 90.4639 104.361 91.4893L104.423 91.2363L104.977 89.2334L106.207 85.6035H108.217L105.154 93.3896C104.79 94.3285 104.391 94.9824 103.958 95.3516C103.525 95.7207 102.974 95.9053 102.304 95.9053ZM109.181 87.2441V85.7197H116.201V87.2441H109.181ZM109.181 91.0107V89.5H116.201V91.0107H109.181ZM120.979 87.1074L122.135 82.8555H124.356L122.23 87.1074H120.979ZM117.842 87.1074L118.997 82.8555H121.219L119.093 87.1074H117.842ZM132.983 89.8965C132.983 90.5345 132.84 91.0996 132.553 91.5918C132.27 92.0794 131.858 92.46 131.315 92.7334C130.778 93.0023 130.144 93.1367 129.415 93.1367C128.449 93.1367 127.674 92.9202 127.091 92.4873C126.512 92.0498 126.154 91.4186 126.018 90.5938L127.938 90.4365C128.039 90.8467 128.216 91.1452 128.472 91.332C128.727 91.5189 129.048 91.6123 129.436 91.6123C129.928 91.6123 130.313 91.4665 130.591 91.1748C130.869 90.8831 131.008 90.4707 131.008 89.9375C131.008 89.4635 130.873 89.0853 130.604 88.8027C130.336 88.5156 129.96 88.3721 129.477 88.3721C128.943 88.3721 128.508 88.5794 128.171 88.9941H126.298L126.633 83.7783H132.423V85.207H128.376L128.219 87.4355C128.684 87.0254 129.265 86.8203 129.962 86.8203C130.878 86.8203 131.609 87.1029 132.156 87.668C132.708 88.2285 132.983 88.9714 132.983 89.8965ZM141.569 88.3174C141.569 89.8213 141.218 90.9788 140.517 91.79C139.815 92.5967 138.814 93 137.516 93H134.638V83.7783H137.105C138.6 83.7783 139.717 84.1543 140.455 84.9062C141.198 85.6536 141.569 86.7907 141.569 88.3174ZM139.539 88.3174C139.539 87.2829 139.343 86.5286 138.951 86.0547C138.564 85.5762 137.937 85.3369 137.071 85.3369H136.654V91.4414H137.352C138.81 91.4414 139.539 90.4001 139.539 88.3174ZM149.567 85.6035C149.531 86.2233 149.513 86.7611 149.513 87.2168V95.9053H147.592V93.0479L147.605 91.8311H147.592C147.405 92.2458 147.122 92.5671 146.744 92.7949C146.37 93.0228 145.931 93.1367 145.425 93.1367C144.577 93.1367 143.925 92.8018 143.47 92.1318C143.014 91.4619 142.786 90.514 142.786 89.2881C142.786 88.126 143.03 87.1986 143.518 86.5059C144.005 85.8086 144.661 85.46 145.486 85.46C146.434 85.46 147.132 85.9089 147.578 86.8066H147.605C147.605 86.6061 147.619 86.3714 147.646 86.1025C147.674 85.8291 147.694 85.6628 147.708 85.6035H149.567ZM147.619 89.3359C147.619 88.7891 147.558 88.3265 147.435 87.9482C147.316 87.57 147.145 87.2806 146.922 87.0801C146.703 86.875 146.45 86.7725 146.163 86.7725C145.726 86.7725 145.386 86.9821 145.145 87.4014C144.908 87.8206 144.789 88.4495 144.789 89.2881C144.789 90.1221 144.905 90.7555 145.138 91.1885C145.375 91.6169 145.721 91.8311 146.177 91.8311C146.623 91.8311 146.974 91.6123 147.229 91.1748C147.489 90.7373 147.619 90.1243 147.619 89.3359ZM154.995 86.9023V93H153.081V86.9023H151.331V85.6035H153.081V85.0361C153.081 84.2432 153.329 83.6484 153.826 83.252C154.327 82.8509 155.041 82.6504 155.966 82.6504C156.69 82.6504 157.436 82.7142 158.201 82.8418V84.0996C157.518 84.013 156.884 83.9697 156.301 83.9697C155.854 83.9697 155.524 84.0632 155.31 84.25C155.1 84.4323 154.995 84.7536 154.995 85.2139V85.6035H158.023V86.9023H154.995ZM166.5 88.2354C166.5 89.8167 166.19 91.029 165.57 91.8721C164.955 92.7152 164.066 93.1367 162.904 93.1367C162.057 93.1367 161.391 92.9567 160.908 92.5967C160.43 92.2321 160.09 91.6579 159.89 90.874L161.694 90.6211C161.872 91.291 162.282 91.626 162.925 91.626C163.444 91.626 163.852 91.389 164.148 90.915C164.449 90.4365 164.604 89.721 164.613 88.7686C164.44 89.1104 164.155 89.3792 163.759 89.5752C163.367 89.7666 162.943 89.8623 162.487 89.8623C161.653 89.8623 160.983 89.582 160.478 89.0215C159.972 88.4609 159.719 87.7067 159.719 86.7588C159.719 85.7881 160.015 85.0247 160.607 84.4688C161.2 83.9128 162.025 83.6348 163.082 83.6348C164.194 83.6348 165.042 84.013 165.625 84.7695C166.208 85.526 166.5 86.6813 166.5 88.2354ZM164.47 86.9912C164.47 86.4352 164.335 85.9886 164.066 85.6514C163.798 85.3096 163.453 85.1387 163.034 85.1387C162.619 85.1387 162.287 85.2868 162.036 85.583C161.79 85.8747 161.667 86.2712 161.667 86.7725C161.667 87.2646 161.79 87.6657 162.036 87.9756C162.287 88.2809 162.622 88.4336 163.041 88.4336C163.456 88.4336 163.798 88.3014 164.066 88.0371C164.335 87.7682 164.47 87.4196 164.47 86.9912ZM171.442 93.1367C170.321 93.1367 169.506 92.8314 168.995 92.2207C168.485 91.61 168.229 90.6667 168.229 89.3906V83.7783H170.246V89.3701C170.246 90.1676 170.337 90.7327 170.52 91.0654C170.706 91.3936 171.032 91.5576 171.497 91.5576C171.971 91.5576 172.315 91.3822 172.529 91.0312C172.743 90.6803 172.851 90.1038 172.851 89.3018V83.7783H174.867V89.2881C174.867 90.5915 174.585 91.5599 174.02 92.1934C173.459 92.8223 172.6 93.1367 171.442 93.1367ZM178.354 88.3447C178.354 89.3701 178.513 90.1608 178.832 90.7168C179.151 91.2728 179.627 91.5508 180.261 91.5508C180.999 91.5508 181.546 90.9948 181.901 89.8828L183.768 90.2383C183.161 92.1706 181.986 93.1367 180.24 93.1367C178.96 93.1367 177.982 92.7311 177.308 91.9199C176.638 91.1042 176.303 89.9124 176.303 88.3447C176.303 85.2048 177.597 83.6348 180.186 83.6348C181.033 83.6348 181.742 83.8581 182.312 84.3047C182.886 84.7513 183.307 85.4144 183.576 86.2939L181.717 86.7451C181.585 86.262 181.386 85.8883 181.122 85.624C180.858 85.3551 180.555 85.2207 180.213 85.2207C178.973 85.2207 178.354 86.262 178.354 88.3447ZM189.4 93H187.356L184.185 83.7783H186.29L187.883 89.0762C188.006 89.4772 188.174 90.0833 188.389 90.8945L188.532 90.3066L188.881 89.0762L190.467 83.7783H192.552L189.4 93ZM200.229 90.3887C200.229 91.2454 199.925 91.9176 199.319 92.4053C198.713 92.8929 197.866 93.1367 196.776 93.1367C195.696 93.1367 194.849 92.8952 194.233 92.4121C193.623 91.929 193.317 91.2591 193.317 90.4023C193.317 89.819 193.497 89.3245 193.857 88.9189C194.222 88.5133 194.696 88.2627 195.279 88.167V88.1396C194.764 88.0257 194.345 87.7796 194.021 87.4014C193.702 87.0231 193.543 86.5833 193.543 86.082C193.543 85.3346 193.826 84.7399 194.391 84.2979C194.96 83.8558 195.746 83.6348 196.749 83.6348C197.784 83.6348 198.581 83.849 199.142 84.2773C199.707 84.7057 199.989 85.3118 199.989 86.0957C199.989 86.5788 199.827 87.0117 199.504 87.3945C199.18 87.7773 198.759 88.0212 198.239 88.126V88.1533C198.854 88.2536 199.34 88.502 199.695 88.8984C200.051 89.2949 200.229 89.7917 200.229 90.3887ZM198.014 86.1982C198.014 85.387 197.592 84.9814 196.749 84.9814C195.92 84.9814 195.505 85.387 195.505 86.1982C195.505 86.613 195.612 86.9297 195.826 87.1484C196.045 87.3672 196.357 87.4766 196.763 87.4766C197.597 87.4766 198.014 87.0505 198.014 86.1982ZM198.239 90.2314C198.239 89.7712 198.112 89.4225 197.856 89.1855C197.606 88.944 197.232 88.8232 196.735 88.8232C196.275 88.8232 195.92 88.9508 195.669 89.2061C195.418 89.4567 195.293 89.8076 195.293 90.2588C195.293 91.2751 195.792 91.7832 196.79 91.7832C197.273 91.7832 197.635 91.6602 197.877 91.4141C198.118 91.168 198.239 90.7738 198.239 90.2314ZM205.075 93.1367C203.954 93.1367 203.138 92.8314 202.628 92.2207C202.118 91.61 201.862 90.6667 201.862 89.3906V83.7783H203.879V89.3701C203.879 90.1676 203.97 90.7327 204.152 91.0654C204.339 91.3936 204.665 91.5576 205.13 91.5576C205.604 91.5576 205.948 91.3822 206.162 91.0312C206.376 90.6803 206.483 90.1038 206.483 89.3018V83.7783H208.5V89.2881C208.5 90.5915 208.217 91.5599 207.652 92.1934C207.092 92.8223 206.233 93.1367 205.075 93.1367ZM216.778 87.2031C216.268 87.1165 215.785 87.0732 215.329 87.0732C214.618 87.0732 214.053 87.3421 213.634 87.8799C213.219 88.4176 213.012 89.1263 213.012 90.0059V93H211.098V88.208C211.098 87.8617 211.066 87.4538 211.002 86.9844C210.943 86.515 210.856 86.0547 210.742 85.6035H212.595C212.759 86.196 212.864 86.7155 212.909 87.1621H212.937C213.164 86.5423 213.472 86.1048 213.859 85.8496C214.247 85.5944 214.75 85.4668 215.37 85.4668C215.844 85.4668 216.313 85.5055 216.778 85.583V87.2031ZM223.43 93V88.7686C223.43 88.126 223.341 87.6543 223.163 87.3535C222.99 87.0527 222.689 86.9023 222.261 86.9023C221.787 86.9023 221.406 87.1051 221.119 87.5107C220.837 87.9118 220.695 88.4199 220.695 89.0352V93H218.774V87.2578C218.774 86.8613 218.768 86.5378 218.754 86.2871C218.745 86.0319 218.733 85.804 218.72 85.6035H220.552C220.565 85.6901 220.584 85.9225 220.606 86.3008C220.629 86.6745 220.641 86.932 220.641 87.0732H220.668C220.928 86.5081 221.254 86.098 221.646 85.8428C222.037 85.5876 222.505 85.46 223.047 85.46C224.578 85.46 225.344 86.4079 225.344 88.3037V93H223.43ZM229.021 85.6035C229.049 85.6992 229.072 85.8906 229.09 86.1777C229.113 86.4648 229.124 86.6745 229.124 86.8066H229.151C229.37 86.3737 229.662 86.041 230.026 85.8086C230.396 85.5762 230.824 85.46 231.312 85.46C232.132 85.46 232.774 85.804 233.239 86.4922C233.709 87.1803 233.943 88.1123 233.943 89.2881C233.943 90.4958 233.706 91.4391 233.232 92.1182C232.763 92.7972 232.098 93.1367 231.236 93.1367C230.749 93.1367 230.325 93.0273 229.965 92.8086C229.605 92.5853 229.329 92.2594 229.138 91.8311H229.124L229.138 93.0479V95.9053H227.217V87.2168C227.217 86.7611 227.199 86.2233 227.162 85.6035H229.021ZM229.11 89.3359C229.11 89.8783 229.17 90.334 229.288 90.7031C229.407 91.0677 229.573 91.348 229.787 91.5439C230.006 91.7354 230.261 91.8311 230.553 91.8311C231.013 91.8311 231.359 91.6146 231.592 91.1816C231.824 90.7487 231.94 90.1175 231.94 89.2881C231.94 88.4495 231.82 87.8206 231.578 87.4014C231.341 86.9821 231.004 86.7725 230.566 86.7725C230.284 86.7725 230.031 86.875 229.808 87.0801C229.584 87.2806 229.411 87.57 229.288 87.9482C229.17 88.3265 229.11 88.7891 229.11 89.3359ZM240.731 93L238.749 89.4795H237.566V93H235.55V83.7783H238.927C240.13 83.7783 241.03 84.013 241.627 84.4824C242.224 84.9518 242.522 85.6286 242.522 86.5127C242.522 87.137 242.354 87.668 242.017 88.1055C241.679 88.543 241.212 88.8506 240.615 89.0283L243.001 93H240.731ZM240.492 86.5947C240.492 86.1663 240.351 85.8519 240.068 85.6514C239.786 85.4463 239.335 85.3438 238.715 85.3438H237.566V87.9141H238.77C239.918 87.9141 240.492 87.4743 240.492 86.5947ZM247.232 95.9668C246.385 95.9668 245.694 95.7913 245.161 95.4404C244.628 95.0895 244.3 94.6019 244.177 93.9775L246.098 93.752C246.166 94.0482 246.307 94.2829 246.521 94.4561C246.736 94.6292 246.991 94.7158 247.287 94.7158C247.747 94.7158 248.096 94.5495 248.333 94.2168C248.57 93.8887 248.688 93.3988 248.688 92.7471V92.3438L248.702 91.5576H248.688C248.265 92.4645 247.517 92.918 246.446 92.918C245.631 92.918 244.997 92.6012 244.546 91.9678C244.095 91.3298 243.869 90.4206 243.869 89.2402C243.869 88.0462 244.104 87.1234 244.573 86.4717C245.043 85.8154 245.715 85.4873 246.59 85.4873C247.068 85.4873 247.488 85.599 247.848 85.8223C248.208 86.041 248.488 86.3646 248.688 86.793H248.723C248.723 86.6335 248.732 86.417 248.75 86.1436C248.773 85.8701 248.796 85.6901 248.818 85.6035H250.637C250.609 86.0957 250.596 86.6654 250.596 87.3125V92.7744C250.596 93.8089 250.304 94.5996 249.721 95.1465C249.142 95.6934 248.312 95.9668 247.232 95.9668ZM248.702 89.1992C248.702 88.4518 248.575 87.8662 248.319 87.4424C248.064 87.0186 247.715 86.8066 247.273 86.8066C246.818 86.8066 246.469 87.014 246.228 87.4287C245.991 87.8389 245.872 88.4427 245.872 89.2402C245.872 90.0332 245.995 90.6234 246.241 91.0107C246.487 91.3936 246.827 91.585 247.26 91.585C247.725 91.585 248.08 91.3708 248.326 90.9424C248.577 90.514 248.702 89.9329 248.702 89.1992ZM258.874 85.6035C258.838 86.2233 258.819 86.7611 258.819 87.2168V95.9053H256.898V93.0479L256.912 91.8311H256.898C256.712 92.2458 256.429 92.5671 256.051 92.7949C255.677 93.0228 255.237 93.1367 254.731 93.1367C253.884 93.1367 253.232 92.8018 252.776 92.1318C252.321 91.4619 252.093 90.514 252.093 89.2881C252.093 88.126 252.337 87.1986 252.824 86.5059C253.312 85.8086 253.968 85.46 254.793 85.46C255.741 85.46 256.438 85.9089 256.885 86.8066H256.912C256.912 86.6061 256.926 86.3714 256.953 86.1025C256.98 85.8291 257.001 85.6628 257.015 85.6035H258.874ZM256.926 89.3359C256.926 88.7891 256.864 88.3265 256.741 87.9482C256.623 87.57 256.452 87.2806 256.229 87.0801C256.01 86.875 255.757 86.7725 255.47 86.7725C255.032 86.7725 254.693 86.9821 254.451 87.4014C254.214 87.8206 254.096 88.4495 254.096 89.2881C254.096 90.1221 254.212 90.7555 254.444 91.1885C254.681 91.6169 255.028 91.8311 255.483 91.8311C255.93 91.8311 256.281 91.6123 256.536 91.1748C256.796 90.7373 256.926 90.1243 256.926 89.3359ZM263.693 93.1367C262.8 93.1367 262.085 92.8883 261.547 92.3916C261.009 91.8949 260.672 91.1816 260.535 90.252L262.524 89.958C262.616 90.4958 262.764 90.8968 262.969 91.1611C263.174 91.4255 263.42 91.5576 263.707 91.5576C264.04 91.5576 264.304 91.4232 264.5 91.1543C264.696 90.8854 264.794 90.5003 264.794 89.999V85.3574H262.736V83.7783H266.804V89.9512C266.804 90.9447 266.528 91.724 265.977 92.2891C265.425 92.8542 264.664 93.1367 263.693 93.1367ZM276.053 86.6904C276.053 87.3011 275.914 87.8389 275.636 88.3037C275.358 88.764 274.954 89.1195 274.426 89.3701C273.902 89.6208 273.273 89.7461 272.539 89.7461H271.192V93H269.176V83.7783H272.457C273.628 83.7783 274.519 84.0267 275.13 84.5234C275.745 85.0156 276.053 85.738 276.053 86.6904ZM274.022 86.7246C274.022 86.2279 273.872 85.8747 273.571 85.665C273.275 85.4508 272.828 85.3438 272.231 85.3438H271.192V88.1943H272.286C272.888 88.1943 273.327 88.0713 273.605 87.8252C273.883 87.5745 274.022 87.2077 274.022 86.7246ZM277.611 93C277.648 92.3802 277.666 91.8424 277.666 91.3867V82.8555H279.587V85.5488L279.573 86.7656H279.587C279.774 86.3509 280.054 86.0296 280.428 85.8018C280.806 85.5739 281.248 85.46 281.754 85.46C282.602 85.46 283.253 85.7949 283.709 86.4648C284.165 87.1348 284.393 88.0827 284.393 89.3086C284.393 90.4661 284.151 91.3936 283.668 92.0908C283.185 92.7881 282.526 93.1367 281.692 93.1367C281.218 93.1367 280.801 93.0251 280.441 92.8018C280.086 92.5739 279.806 92.2389 279.601 91.7969H279.573C279.573 91.9473 279.562 92.1569 279.539 92.4258C279.521 92.6901 279.498 92.8815 279.471 93H277.611ZM279.56 89.2607C279.56 89.8076 279.619 90.2702 279.737 90.6484C279.86 91.0267 280.031 91.3184 280.25 91.5234C280.473 91.724 280.729 91.8242 281.016 91.8242C281.453 91.8242 281.79 91.6146 282.027 91.1953C282.269 90.776 282.39 90.1471 282.39 89.3086C282.39 88.4746 282.271 87.8434 282.034 87.415C281.802 86.9821 281.458 86.7656 281.002 86.7656C280.555 86.7656 280.202 86.9844 279.942 87.4219C279.687 87.8594 279.56 88.4723 279.56 89.2607ZM289.342 93.1367C288.193 93.1367 287.307 92.7995 286.683 92.125C286.058 91.446 285.746 90.4935 285.746 89.2676C285.746 88.4473 285.892 87.7546 286.184 87.1895C286.48 86.6243 286.899 86.196 287.441 85.9043C287.984 85.6126 288.626 85.4668 289.369 85.4668C290.449 85.4668 291.288 85.8268 291.885 86.5469C292.482 87.2669 292.78 88.29 292.78 89.6162V89.6709H287.763C287.763 90.3408 287.911 90.8717 288.207 91.2637C288.508 91.6556 288.918 91.8516 289.438 91.8516C289.775 91.8516 290.073 91.7809 290.333 91.6396C290.593 91.4938 290.768 91.2705 290.859 90.9697L292.671 91.127C292.42 91.7695 292.003 92.2663 291.42 92.6172C290.837 92.9635 290.144 93.1367 289.342 93.1367ZM289.342 86.6768C288.872 86.6768 288.499 86.8363 288.221 87.1553C287.943 87.4697 287.795 87.9072 287.776 88.4678H290.921C290.889 87.9209 290.732 87.4857 290.449 87.1621C290.171 86.8385 289.802 86.6768 289.342 86.6768ZM301.161 90.4297C301.161 91.291 300.851 91.9609 300.231 92.4395C299.616 92.918 298.764 93.1572 297.675 93.1572C296.627 93.1572 295.795 92.9294 295.18 92.4736C294.569 92.0133 294.211 91.3503 294.106 90.4844L296.062 90.3135C296.175 91.1702 296.711 91.5986 297.668 91.5986C298.146 91.5986 298.52 91.4847 298.789 91.2568C299.058 91.0244 299.192 90.71 299.192 90.3135C299.192 89.917 299.026 89.6139 298.693 89.4043C298.365 89.1947 297.894 89.0898 297.278 89.0898H296.608V87.5381H297.237C297.793 87.5381 298.219 87.4333 298.516 87.2236C298.816 87.0094 298.967 86.7132 298.967 86.335C298.967 85.9932 298.841 85.7129 298.591 85.4941C298.345 85.2754 298.014 85.166 297.6 85.166C297.208 85.166 296.884 85.2594 296.629 85.4463C296.374 85.6286 296.228 85.9202 296.191 86.3213L294.271 86.1846C294.371 85.3688 294.715 84.7399 295.303 84.2979C295.895 83.8558 296.672 83.6348 297.634 83.6348C298.308 83.6348 298.892 83.7373 299.384 83.9424C299.881 84.1475 300.259 84.4368 300.519 84.8105C300.783 85.1797 300.915 85.6081 300.915 86.0957C300.915 86.6562 300.737 87.1234 300.382 87.4971C300.026 87.8708 299.518 88.1214 298.857 88.249V88.2764C299.573 88.3584 300.136 88.5931 300.546 88.9805C300.956 89.3633 301.161 89.8464 301.161 90.4297ZM308.906 93H307.238L306.261 89.7803C306.147 89.4157 306.085 89.1833 306.076 89.083C306.072 89.124 306.047 89.2311 306.001 89.4043C305.955 89.5729 305.577 90.7715 304.866 93H303.205L301.954 85.6035H303.513L304.08 89.7529C304.167 90.4456 304.21 90.9606 304.21 91.2979L304.347 90.792L305.42 87.415H306.739L307.696 90.5254C307.765 90.7533 307.831 91.0107 307.895 91.2979C307.895 91.0153 307.917 90.6895 307.963 90.3203C308.008 89.9512 308.241 88.3789 308.66 85.6035H310.205L308.906 93ZM312.885 88.3447C312.885 89.3701 313.044 90.1608 313.363 90.7168C313.682 91.2728 314.159 91.5508 314.792 91.5508C315.53 91.5508 316.077 90.9948 316.433 89.8828L318.299 90.2383C317.693 92.1706 316.517 93.1367 314.771 93.1367C313.491 93.1367 312.513 92.7311 311.839 91.9199C311.169 91.1042 310.834 89.9124 310.834 88.3447C310.834 85.2048 312.128 83.6348 314.717 83.6348C315.564 83.6348 316.273 83.8581 316.843 84.3047C317.417 84.7513 317.839 85.4144 318.107 86.2939L316.248 86.7451C316.116 86.262 315.918 85.8883 315.653 85.624C315.389 85.3551 315.086 85.2207 314.744 85.2207C313.505 85.2207 312.885 86.262 312.885 88.3447ZM325.723 93H324.055L323.077 89.7803C322.963 89.4157 322.902 89.1833 322.893 89.083C322.888 89.124 322.863 89.2311 322.817 89.4043C322.772 89.5729 322.394 90.7715 321.683 93H320.021L318.771 85.6035H320.329L320.896 89.7529C320.983 90.4456 321.026 90.9606 321.026 91.2979L321.163 90.792L322.236 87.415H323.556L324.513 90.5254C324.581 90.7533 324.647 91.0107 324.711 91.2979C324.711 91.0153 324.734 90.6895 324.779 90.3203C324.825 89.9512 325.057 88.3789 325.477 85.6035H327.021L325.723 93ZM333.386 93L331.314 89.6299L329.236 93H327.104L330.241 88.1396L327.384 83.7783H329.517L331.314 86.7178L333.105 83.7783H335.225L332.299 88.1396L335.505 93H333.386ZM339.825 82.8555L338.67 87.1074H336.448L338.574 82.8555H339.825ZM342.963 82.8555L341.808 87.1074H339.586L341.712 82.8555H342.963ZM345.684 95.4814L346.839 90.9561H348.992L346.866 95.4814H345.684ZM25.3652 114C25.4017 113.38 25.4199 112.842 25.4199 112.387V103.855H27.3408V106.549L27.3271 107.766H27.3408C27.5277 107.351 27.8079 107.03 28.1816 106.802C28.5599 106.574 29.002 106.46 29.5078 106.46C30.3555 106.46 31.0072 106.795 31.4629 107.465C31.9186 108.135 32.1465 109.083 32.1465 110.309C32.1465 111.466 31.9049 112.394 31.4219 113.091C30.9388 113.788 30.2803 114.137 29.4463 114.137C28.9723 114.137 28.5553 114.025 28.1953 113.802C27.8398 113.574 27.5596 113.239 27.3545 112.797H27.3271C27.3271 112.947 27.3158 113.157 27.293 113.426C27.2747 113.69 27.252 113.882 27.2246 114H25.3652ZM27.3135 110.261C27.3135 110.808 27.3727 111.27 27.4912 111.648C27.6143 112.027 27.7852 112.318 28.0039 112.523C28.2272 112.724 28.4824 112.824 28.7695 112.824C29.207 112.824 29.5443 112.615 29.7812 112.195C30.0228 111.776 30.1436 111.147 30.1436 110.309C30.1436 109.475 30.0251 108.843 29.7881 108.415C29.5557 107.982 29.2116 107.766 28.7559 107.766C28.3092 107.766 27.9561 107.984 27.6963 108.422C27.4411 108.859 27.3135 109.472 27.3135 110.261ZM38.2441 112.701H40.6572V114H33.623V112.701H36.3232V105.154H34.3408V103.855H38.2441V112.701ZM46.6523 112.701H49.0654V114H42.0312V112.701H44.7314V107.902H42.749V106.604H46.6523V112.701ZM44.7314 105.271V103.855H46.6523V105.271H44.7314ZM55.2656 114V109.769C55.2656 109.126 55.1768 108.654 54.999 108.354C54.8258 108.053 54.5251 107.902 54.0967 107.902C53.6227 107.902 53.2422 108.105 52.9551 108.511C52.6725 108.912 52.5312 109.42 52.5312 110.035V114H50.6104V108.258C50.6104 107.861 50.6035 107.538 50.5898 107.287C50.5807 107.032 50.5693 106.804 50.5557 106.604H52.3877C52.4014 106.69 52.4196 106.923 52.4424 107.301C52.4652 107.674 52.4766 107.932 52.4766 108.073H52.5039C52.7637 107.508 53.0895 107.098 53.4814 106.843C53.8734 106.588 54.3405 106.46 54.8828 106.46C56.4141 106.46 57.1797 107.408 57.1797 109.304V114H55.2656ZM63.626 114C63.6077 113.932 63.585 113.761 63.5576 113.487C63.5348 113.209 63.5234 112.979 63.5234 112.797H63.4961C63.2546 113.285 62.9561 113.631 62.6006 113.836C62.2451 114.036 61.8236 114.137 61.3359 114.137C60.5202 114.137 59.8776 113.795 59.4082 113.111C58.9388 112.428 58.7041 111.496 58.7041 110.315C58.7041 109.108 58.9388 108.167 59.4082 107.492C59.8822 106.818 60.5498 106.48 61.4111 106.48C61.8988 106.48 62.3226 106.592 62.6826 106.815C63.0426 107.034 63.3184 107.358 63.5098 107.786H63.5234L63.5098 106.569V103.855H65.4307V112.387C65.4307 112.842 65.4489 113.38 65.4854 114H63.626ZM63.5371 110.268C63.5371 109.479 63.4095 108.868 63.1543 108.436C62.8991 108.003 62.5459 107.786 62.0947 107.786C61.639 107.786 61.2926 108 61.0557 108.429C60.8232 108.853 60.707 109.481 60.707 110.315C60.707 111.154 60.8255 111.783 61.0625 112.202C61.304 112.617 61.6436 112.824 62.0811 112.824C62.3636 112.824 62.6165 112.724 62.8398 112.523C63.0632 112.318 63.234 112.027 63.3525 111.648C63.4756 111.27 63.5371 110.81 63.5371 110.268ZM71.877 112.701H74.29V114H67.2559V112.701H69.9561V107.902H67.9736V106.604H71.877V112.701ZM69.9561 105.271V103.855H71.877V105.271H69.9561ZM80.4902 114V109.769C80.4902 109.126 80.4014 108.654 80.2236 108.354C80.0505 108.053 79.7497 107.902 79.3213 107.902C78.8473 107.902 78.4668 108.105 78.1797 108.511C77.8971 108.912 77.7559 109.42 77.7559 110.035V114H75.835V108.258C75.835 107.861 75.8281 107.538 75.8145 107.287C75.8053 107.032 75.7939 106.804 75.7803 106.604H77.6123C77.626 106.69 77.6442 106.923 77.667 107.301C77.6898 107.674 77.7012 107.932 77.7012 108.073H77.7285C77.9883 107.508 78.3141 107.098 78.7061 106.843C79.098 106.588 79.5651 106.46 80.1074 106.46C81.6387 106.46 82.4043 107.408 82.4043 109.304V114H80.4902ZM87.4766 116.967C86.6289 116.967 85.9385 116.791 85.4053 116.44C84.8721 116.09 84.5439 115.602 84.4209 114.978L86.3418 114.752C86.4102 115.048 86.5514 115.283 86.7656 115.456C86.9798 115.629 87.235 115.716 87.5312 115.716C87.9915 115.716 88.3402 115.549 88.5771 115.217C88.8141 114.889 88.9326 114.399 88.9326 113.747V113.344L88.9463 112.558H88.9326C88.5088 113.465 87.7614 113.918 86.6904 113.918C85.8747 113.918 85.2412 113.601 84.79 112.968C84.3389 112.33 84.1133 111.421 84.1133 110.24C84.1133 109.046 84.348 108.123 84.8174 107.472C85.2868 106.815 85.959 106.487 86.834 106.487C87.3125 106.487 87.7318 106.599 88.0918 106.822C88.4518 107.041 88.7321 107.365 88.9326 107.793H88.9668C88.9668 107.633 88.9759 107.417 88.9941 107.144C89.0169 106.87 89.0397 106.69 89.0625 106.604H90.8809C90.8535 107.096 90.8398 107.665 90.8398 108.312V113.774C90.8398 114.809 90.5482 115.6 89.9648 116.146C89.3861 116.693 88.5566 116.967 87.4766 116.967ZM88.9463 110.199C88.9463 109.452 88.8187 108.866 88.5635 108.442C88.3083 108.019 87.9596 107.807 87.5176 107.807C87.0618 107.807 86.7132 108.014 86.4717 108.429C86.2347 108.839 86.1162 109.443 86.1162 110.24C86.1162 111.033 86.2393 111.623 86.4854 112.011C86.7314 112.394 87.071 112.585 87.5039 112.585C87.9688 112.585 88.3242 112.371 88.5703 111.942C88.821 111.514 88.9463 110.933 88.9463 110.199ZM92.3643 108.244V106.72H99.3848V108.244H92.3643ZM92.3643 112.011V110.5H99.3848V112.011H92.3643ZM104.163 108.107L105.318 103.855H107.54L105.414 108.107H104.163ZM101.025 108.107L102.181 103.855H104.402L102.276 108.107H101.025ZM115.189 112.038V114H113.357V112.038H108.976V110.596L113.043 104.778H115.189V110.609H116.475V112.038H115.189ZM113.357 107.8C113.357 107.554 113.364 107.287 113.378 107C113.396 106.713 113.41 106.528 113.419 106.446C113.3 106.701 113.086 107.071 112.776 107.554L110.589 110.609H113.357V107.8ZM124.521 110.951C124.521 111.94 124.231 112.719 123.652 113.289C123.074 113.854 122.283 114.137 121.28 114.137C120.164 114.137 119.296 113.72 118.676 112.886C118.061 112.047 117.753 110.887 117.753 109.406C117.753 107.793 118.061 106.594 118.676 105.811C119.296 105.027 120.18 104.635 121.328 104.635C122.144 104.635 122.786 104.815 123.256 105.175C123.73 105.535 124.065 106.093 124.261 106.85L122.449 107.103C122.276 106.469 121.889 106.152 121.287 106.152C120.768 106.152 120.362 106.401 120.07 106.897C119.779 107.39 119.633 108.112 119.633 109.064C119.838 108.723 120.123 108.461 120.487 108.278C120.852 108.096 121.264 108.005 121.725 108.005C122.568 108.005 123.244 108.271 123.755 108.805C124.265 109.333 124.521 110.049 124.521 110.951ZM122.593 111.006C122.593 110.509 122.465 110.122 122.21 109.844C121.959 109.561 121.613 109.42 121.171 109.42C120.761 109.42 120.424 109.548 120.159 109.803C119.899 110.053 119.77 110.386 119.77 110.801C119.77 111.316 119.904 111.751 120.173 112.106C120.442 112.462 120.79 112.64 121.219 112.64C121.643 112.64 121.978 112.494 122.224 112.202C122.47 111.91 122.593 111.512 122.593 111.006ZM126.325 114V112.571H128.984V106.48C128.807 106.854 128.451 107.169 127.918 107.424C127.389 107.679 126.833 107.807 126.25 107.807V106.344C126.883 106.344 127.451 106.205 127.952 105.927C128.453 105.649 128.832 105.266 129.087 104.778H130.905V112.571H133.113V114H126.325ZM141.337 110.951C141.337 111.94 141.048 112.719 140.469 113.289C139.89 113.854 139.099 114.137 138.097 114.137C136.98 114.137 136.112 113.72 135.492 112.886C134.877 112.047 134.569 110.887 134.569 109.406C134.569 107.793 134.877 106.594 135.492 105.811C136.112 105.027 136.996 104.635 138.145 104.635C138.96 104.635 139.603 104.815 140.072 105.175C140.546 105.535 140.881 106.093 141.077 106.85L139.266 107.103C139.092 106.469 138.705 106.152 138.104 106.152C137.584 106.152 137.178 106.401 136.887 106.897C136.595 107.39 136.449 108.112 136.449 109.064C136.654 108.723 136.939 108.461 137.304 108.278C137.668 108.096 138.081 108.005 138.541 108.005C139.384 108.005 140.061 108.271 140.571 108.805C141.082 109.333 141.337 110.049 141.337 110.951ZM139.409 111.006C139.409 110.509 139.282 110.122 139.026 109.844C138.776 109.561 138.429 109.42 137.987 109.42C137.577 109.42 137.24 109.548 136.976 109.803C136.716 110.053 136.586 110.386 136.586 110.801C136.586 111.316 136.72 111.751 136.989 112.106C137.258 112.462 137.607 112.64 138.035 112.64C138.459 112.64 138.794 112.494 139.04 112.202C139.286 111.91 139.409 111.512 139.409 111.006ZM149.779 111.389C149.779 112.245 149.476 112.918 148.87 113.405C148.264 113.893 147.416 114.137 146.327 114.137C145.247 114.137 144.399 113.895 143.784 113.412C143.174 112.929 142.868 112.259 142.868 111.402C142.868 110.819 143.048 110.325 143.408 109.919C143.773 109.513 144.247 109.263 144.83 109.167V109.14C144.315 109.026 143.896 108.78 143.572 108.401C143.253 108.023 143.094 107.583 143.094 107.082C143.094 106.335 143.376 105.74 143.941 105.298C144.511 104.856 145.297 104.635 146.3 104.635C147.334 104.635 148.132 104.849 148.692 105.277C149.257 105.706 149.54 106.312 149.54 107.096C149.54 107.579 149.378 108.012 149.055 108.395C148.731 108.777 148.31 109.021 147.79 109.126V109.153C148.405 109.254 148.891 109.502 149.246 109.898C149.602 110.295 149.779 110.792 149.779 111.389ZM147.564 107.198C147.564 106.387 147.143 105.981 146.3 105.981C145.47 105.981 145.056 106.387 145.056 107.198C145.056 107.613 145.163 107.93 145.377 108.148C145.596 108.367 145.908 108.477 146.313 108.477C147.147 108.477 147.564 108.05 147.564 107.198ZM147.79 111.231C147.79 110.771 147.662 110.423 147.407 110.186C147.157 109.944 146.783 109.823 146.286 109.823C145.826 109.823 145.47 109.951 145.22 110.206C144.969 110.457 144.844 110.808 144.844 111.259C144.844 112.275 145.343 112.783 146.341 112.783C146.824 112.783 147.186 112.66 147.428 112.414C147.669 112.168 147.79 111.774 147.79 111.231ZM157.996 106.303C156.834 107.889 156.016 109.276 155.542 110.466C155.068 111.655 154.831 112.833 154.831 114H152.828C152.828 112.815 153.099 111.601 153.642 110.356C154.188 109.108 155.045 107.775 156.212 106.357H151.427V104.778H157.996V106.303ZM166.616 110.896C166.616 111.535 166.473 112.1 166.186 112.592C165.903 113.079 165.491 113.46 164.948 113.733C164.41 114.002 163.777 114.137 163.048 114.137C162.082 114.137 161.307 113.92 160.724 113.487C160.145 113.05 159.787 112.419 159.65 111.594L161.571 111.437C161.672 111.847 161.849 112.145 162.104 112.332C162.36 112.519 162.681 112.612 163.068 112.612C163.561 112.612 163.946 112.466 164.224 112.175C164.502 111.883 164.641 111.471 164.641 110.938C164.641 110.464 164.506 110.085 164.237 109.803C163.968 109.516 163.592 109.372 163.109 109.372C162.576 109.372 162.141 109.579 161.804 109.994H159.931L160.266 104.778H166.056V106.207H162.009L161.852 108.436C162.316 108.025 162.897 107.82 163.595 107.82C164.511 107.82 165.242 108.103 165.789 108.668C166.34 109.229 166.616 109.971 166.616 110.896ZM174.047 112.038V114H172.215V112.038H167.833V110.596L171.9 104.778H174.047V110.609H175.332V112.038H174.047ZM172.215 107.8C172.215 107.554 172.222 107.287 172.235 107C172.254 106.713 172.267 106.528 172.276 106.446C172.158 106.701 171.944 107.071 171.634 107.554L169.446 110.609H172.215V107.8ZM182.455 112.038V114H180.623V112.038H176.241V110.596L180.309 104.778H182.455V110.609H183.74V112.038H182.455ZM180.623 107.8C180.623 107.554 180.63 107.287 180.644 107C180.662 106.713 180.675 106.528 180.685 106.446C180.566 106.701 180.352 107.071 180.042 107.554L177.854 110.609H180.623V107.8ZM190.863 112.038V114H189.031V112.038H184.649V110.596L188.717 104.778H190.863V110.609H192.148V112.038H190.863ZM189.031 107.8C189.031 107.554 189.038 107.287 189.052 107C189.07 106.713 189.084 106.528 189.093 106.446C188.974 106.701 188.76 107.071 188.45 107.554L186.263 110.609H189.031V107.8ZM200.194 110.951C200.194 111.94 199.905 112.719 199.326 113.289C198.747 113.854 197.957 114.137 196.954 114.137C195.838 114.137 194.969 113.72 194.35 112.886C193.734 112.047 193.427 110.887 193.427 109.406C193.427 107.793 193.734 106.594 194.35 105.811C194.969 105.027 195.854 104.635 197.002 104.635C197.818 104.635 198.46 104.815 198.93 105.175C199.404 105.535 199.739 106.093 199.935 106.85L198.123 107.103C197.95 106.469 197.562 106.152 196.961 106.152C196.441 106.152 196.036 106.401 195.744 106.897C195.452 107.39 195.307 108.112 195.307 109.064C195.512 108.723 195.797 108.461 196.161 108.278C196.526 108.096 196.938 108.005 197.398 108.005C198.242 108.005 198.918 108.271 199.429 108.805C199.939 109.333 200.194 110.049 200.194 110.951ZM198.267 111.006C198.267 110.509 198.139 110.122 197.884 109.844C197.633 109.561 197.287 109.42 196.845 109.42C196.435 109.42 196.097 109.548 195.833 109.803C195.573 110.053 195.443 110.386 195.443 110.801C195.443 111.316 195.578 111.751 195.847 112.106C196.116 112.462 196.464 112.64 196.893 112.64C197.316 112.64 197.651 112.494 197.897 112.202C198.144 111.91 198.267 111.512 198.267 111.006ZM208.603 110.951C208.603 111.94 208.313 112.719 207.734 113.289C207.156 113.854 206.365 114.137 205.362 114.137C204.246 114.137 203.378 113.72 202.758 112.886C202.143 112.047 201.835 110.887 201.835 109.406C201.835 107.793 202.143 106.594 202.758 105.811C203.378 105.027 204.262 104.635 205.41 104.635C206.226 104.635 206.868 104.815 207.338 105.175C207.812 105.535 208.147 106.093 208.343 106.85L206.531 107.103C206.358 106.469 205.971 106.152 205.369 106.152C204.85 106.152 204.444 106.401 204.152 106.897C203.861 107.39 203.715 108.112 203.715 109.064C203.92 108.723 204.205 108.461 204.569 108.278C204.934 108.096 205.346 108.005 205.807 108.005C206.65 108.005 207.326 108.271 207.837 108.805C208.347 109.333 208.603 110.049 208.603 110.951ZM206.675 111.006C206.675 110.509 206.547 110.122 206.292 109.844C206.041 109.561 205.695 109.42 205.253 109.42C204.843 109.42 204.506 109.548 204.241 109.803C203.981 110.053 203.852 110.386 203.852 110.801C203.852 111.316 203.986 111.751 204.255 112.106C204.524 112.462 204.872 112.64 205.301 112.64C205.725 112.64 206.06 112.494 206.306 112.202C206.552 111.91 206.675 111.512 206.675 111.006ZM213.47 108.107L214.625 103.855H216.847L214.721 108.107H213.47ZM210.332 108.107L211.487 103.855H213.709L211.583 108.107H210.332Z"
    fill="white"
  />
</svg>
