<svg width="425" height="425" viewBox="0 0 425 425" fill="none" xmlns="http://www.w3.org/2000/svg">
<path d="M42.2724 286.927V281.359H43.8084V286.831C43.8084 287.463 43.9764 287.947 44.3124 288.283C44.6484 288.619 45.1244 288.787 45.7404 288.787C46.3644 288.787 46.8444 288.619 47.1804 288.283C47.5164 287.939 47.6844 287.455 47.6844 286.831V281.359H49.2204V286.927C49.2204 287.607 49.0764 288.199 48.7884 288.703C48.5084 289.199 48.1084 289.587 47.5884 289.867C47.0684 290.139 46.4524 290.275 45.7404 290.275C45.0364 290.275 44.4244 290.139 43.9044 289.867C43.3844 289.595 42.9804 289.207 42.6924 288.703C42.4124 288.199 42.2724 287.607 42.2724 286.927ZM54.4457 282.091V290.131H52.9097V282.091H54.4457ZM50.3417 282.775V281.359H57.0137V282.775H50.3417ZM60.3958 285.751L57.4798 281.359H59.3038L60.3718 282.943C60.5478 283.199 60.7118 283.463 60.8638 283.735C61.0238 283.999 61.1878 284.279 61.3558 284.575L63.3958 281.359H65.1838L62.3158 285.739L65.1958 290.131H63.3838L62.3998 288.679C62.1998 288.383 62.0198 288.095 61.8598 287.815C61.6998 287.535 61.5278 287.239 61.3438 286.927L59.2198 290.131H57.4198L60.3958 285.751ZM73.9376 285.739C73.9376 286.627 73.7576 287.415 73.3976 288.103C73.0376 288.783 72.5376 289.315 71.8976 289.699C71.2576 290.083 70.5176 290.275 69.6776 290.275C68.8456 290.275 68.1096 290.083 67.4696 289.699C66.8296 289.315 66.3296 288.783 65.9696 288.103C65.6176 287.423 65.4416 286.639 65.4416 285.751C65.4416 284.855 65.6216 284.067 65.9816 283.387C66.3416 282.699 66.8376 282.163 67.4696 281.779C68.1096 281.395 68.8496 281.203 69.6896 281.203C70.5296 281.203 71.2656 281.395 71.8976 281.779C72.5376 282.163 73.0376 282.695 73.3976 283.375C73.7576 284.055 73.9376 284.843 73.9376 285.739ZM72.3296 285.739C72.3296 285.115 72.2216 284.575 72.0056 284.119C71.7896 283.663 71.4856 283.311 71.0936 283.063C70.7016 282.807 70.2336 282.679 69.6896 282.679C69.1536 282.679 68.6856 282.807 68.2856 283.063C67.8936 283.311 67.5896 283.663 67.3736 284.119C67.1576 284.575 67.0496 285.115 67.0496 285.739C67.0496 286.363 67.1576 286.907 67.3736 287.371C67.5896 287.827 67.8936 288.179 68.2856 288.427C68.6856 288.675 69.1536 288.799 69.6896 288.799C70.2336 288.799 70.7016 288.675 71.0936 288.427C71.4856 288.171 71.7896 287.815 72.0056 287.359C72.2216 286.895 72.3296 286.355 72.3296 285.739Z" fill="white"/>
<g filter="url(#filter0_d_1157_37978)">
<g clip-path="url(#clip0_1157_37978)">
<rect x="20" y="178.627" width="80" height="80" rx="8" fill="#F7F8F7"/>
<rect x="20" y="172.921" width="122" height="54.3464" fill="url(#paint0_linear_1157_37978)"/>
<path d="M31.7731 248.036C33.0371 248.036 34.1091 247.476 34.5091 246.58L34.6691 247.844H35.9491V242.932C35.9491 240.82 34.6371 239.796 32.7011 239.796C30.6851 239.796 29.3411 240.868 29.3411 242.5H30.6531C30.6531 241.556 31.3731 240.996 32.6371 240.996C33.6931 240.996 34.4771 241.46 34.4771 242.772V242.996L32.0131 243.188C30.1731 243.332 29.1011 244.228 29.1011 245.668C29.1011 247.092 30.0931 248.036 31.7731 248.036ZM32.2051 246.868C31.2291 246.868 30.6211 246.452 30.6211 245.62C30.6211 244.852 31.1651 244.34 32.4931 244.212L34.4931 244.052V244.468C34.4931 245.94 33.6291 246.868 32.2051 246.868ZM39.728 247.844V236.068H38.224V247.844H39.728ZM42.838 238.164C43.382 238.164 43.83 237.716 43.83 237.172C43.83 236.612 43.382 236.18 42.838 236.18C42.294 236.18 41.846 236.612 41.846 237.172C41.846 237.716 42.294 238.164 42.838 238.164ZM42.102 247.844H43.606V240.02H42.102V247.844ZM45.4375 243.94C45.4375 246.404 46.9575 248.036 49.2615 248.036C51.1495 248.036 52.6055 246.9 52.9095 245.204H51.4055C51.1335 246.132 50.3335 246.692 49.2615 246.692C47.8375 246.692 46.9255 245.604 46.9255 243.924C46.9255 242.228 47.9015 241.14 49.3255 241.14C50.3335 241.14 51.1335 241.668 51.3895 242.66H52.8935C52.6215 240.916 51.2455 239.796 49.2775 239.796C46.9895 239.796 45.4375 241.492 45.4375 243.94ZM58.0324 248.036C59.9684 248.036 61.2804 247.092 61.6644 245.412H60.2564C60.0004 246.308 59.2324 246.788 58.0644 246.788C56.5764 246.788 55.7124 245.876 55.6004 244.228L61.6484 244.212V243.652C61.6484 241.332 60.1924 239.796 57.9684 239.796C55.6964 239.796 54.1444 241.492 54.1444 243.94C54.1444 246.372 55.7284 248.036 58.0324 248.036ZM57.9684 241.06C59.2964 241.06 60.1444 241.924 60.1444 243.22H55.6324C55.8244 241.844 56.6564 241.06 57.9684 241.06ZM64.1239 248.036C64.7319 248.036 65.2599 247.524 65.2599 246.916C65.2599 246.292 64.7319 245.78 64.1239 245.78C63.4999 245.78 62.9719 246.292 62.9719 246.916C62.9719 247.524 63.4999 248.036 64.1239 248.036ZM70.4774 248.036C72.4134 248.036 73.7254 247.092 74.1094 245.412H72.7014C72.4454 246.308 71.6774 246.788 70.5094 246.788C69.0214 246.788 68.1574 245.876 68.0454 244.228L74.0934 244.212V243.652C74.0934 241.332 72.6374 239.796 70.4134 239.796C68.1414 239.796 66.5894 241.492 66.5894 243.94C66.5894 246.372 68.1734 248.036 70.4774 248.036ZM70.4134 241.06C71.7414 241.06 72.5894 241.924 72.5894 243.22H68.0774C68.2694 241.844 69.1014 241.06 70.4134 241.06ZM78.0631 247.844V241.284H79.5991V240.02H78.0631V237.572H76.5591V240.02H75.0231V241.284H76.5591V247.844H78.0631ZM82.6129 247.828V243.572C82.6129 242.228 83.3969 241.172 84.8529 241.172C85.9729 241.172 86.7249 241.812 86.7249 243.396V247.844H88.2289V243.06C88.2289 241.06 87.2689 239.796 85.2689 239.796C84.0529 239.796 83.1089 240.372 82.6129 241.22V236.068H81.1089V247.828H82.6129Z" fill="#1F1D2B"/>
<g clip-path="url(#clip1_1157_37978)">
<path d="M31.7875 199.714C32.0598 200.282 32.7407 201.416 32.7407 201.416L40.5368 188.767L32.945 193.974C32.5024 194.274 32.1279 194.675 31.8556 195.142C31.1406 196.577 31.1406 198.246 31.7875 199.714Z" fill="url(#paint1_linear_1157_37978)"/>
<path d="M28.7231 203.853C28.8933 206.289 30.1529 208.558 32.1275 210.027L40.5363 215.767C40.5363 215.767 35.2595 208.325 30.8338 200.916C30.3912 200.148 30.0848 199.28 29.9486 198.379C29.8806 197.979 29.8806 197.578 29.9486 197.178C29.8465 197.378 29.6082 197.812 29.6082 197.812C29.1656 198.713 28.8592 199.681 28.689 200.682C28.5869 201.75 28.5869 202.818 28.7231 203.853Z" fill="#A0A8D4"/>
<path d="M50.1712 204.854C49.8988 204.286 49.218 203.152 49.218 203.152L41.4219 215.767L49.0477 210.594C49.4903 210.294 49.8648 209.893 50.1371 209.426C50.818 207.991 50.8521 206.322 50.1712 204.854Z" fill="url(#paint2_linear_1157_37978)"/>
<path d="M53.2693 200.682C53.0991 198.246 51.8395 195.976 49.8649 194.508L41.4561 188.767C41.4561 188.767 46.7329 196.21 51.1586 203.619C51.6012 204.387 51.9076 205.254 52.0437 206.155C52.1118 206.556 52.1118 206.956 52.0437 207.357C52.1459 207.157 52.3842 206.723 52.3842 206.723C52.8268 205.822 53.1332 204.854 53.3034 203.886C53.3715 202.785 53.3715 201.75 53.2693 200.682Z" fill="#A0A8D4"/>
<path d="M31.8551 195.142C32.1275 194.675 32.4679 194.274 32.9445 193.974L40.5363 188.767L32.7403 201.383C32.7403 201.383 32.0594 200.248 31.787 199.681C31.1402 198.246 31.1402 196.577 31.8551 195.142ZM28.7231 203.853C28.8933 206.289 30.1529 208.558 32.1275 210.027L40.5363 215.767C40.5363 215.767 35.2595 208.325 30.8338 200.916C30.3912 200.148 30.0848 199.28 29.9486 198.379C29.8806 197.979 29.8806 197.578 29.9486 197.178C29.8465 197.378 29.6082 197.812 29.6082 197.812C29.1656 198.713 28.8592 199.681 28.689 200.682C28.5869 201.75 28.5869 202.818 28.7231 203.853ZM50.1708 204.854C49.8984 204.286 49.2176 203.152 49.2176 203.152L41.4215 215.767L49.0473 210.594C49.4899 210.294 49.8644 209.893 50.1367 209.426C50.8176 207.991 50.8517 206.322 50.1708 204.854ZM53.2348 200.715C53.0645 198.279 51.8049 196.01 49.8303 194.541L41.4555 188.767C41.4555 188.767 46.7323 196.21 51.1581 203.619C51.6006 204.387 51.907 205.254 52.0432 206.155C52.1113 206.556 52.1113 206.956 52.0432 207.357C52.1453 207.157 52.3837 206.723 52.3837 206.723C52.8262 205.822 53.1326 204.854 53.3028 203.886C53.3709 202.785 53.3709 201.75 53.2348 200.715Z" fill="#F7F8F7"/>
</g>
</g>
</g>
<rect x="86.4268" y="166" width="24" height="24" rx="12" fill="#F2F3FF"/>
<g clip-path="url(#clip2_1157_37978)">
<path d="M106.427 181.98C106.427 181.18 106.065 180.413 105.418 179.847C104.771 179.28 103.893 178.961 102.976 178.959L99.1509 178.959C99.1269 178.648 99.1117 178.33 99.1117 178C99.1117 177.67 99.0966 177.354 99.0752 177.041L102.976 177.041C103.885 177.028 104.751 176.704 105.388 176.139C106.026 175.574 106.383 174.813 106.383 174.021C106.383 173.228 106.026 172.467 105.388 171.902C104.751 171.337 103.885 171.013 102.976 171L93.8334 171C92.925 171.013 92.0587 171.337 91.4214 171.902C90.7842 172.467 90.427 173.228 90.427 174.02C90.427 174.813 90.7842 175.574 91.4214 176.139C92.0587 176.704 92.925 177.028 93.8334 177.041L97.4268 177.125C97.6768 177.125 97.6981 177.67 97.6981 178C97.6981 178.33 97.7133 178.646 97.7347 178.959L93.8334 178.959C92.925 178.972 92.0587 179.296 91.4214 179.861C90.7842 180.426 90.427 181.187 90.427 181.979C90.427 182.772 90.7842 183.533 91.4214 184.098C92.0587 184.663 92.925 184.987 93.8334 185L102.976 185C103.893 184.998 104.771 184.679 105.417 184.113C106.064 183.546 106.427 182.779 106.427 181.98ZM105.013 174.02C105.013 174.492 104.799 174.945 104.417 175.279C104.035 175.613 103.517 175.802 102.976 175.803L98.9254 175.803C98.7787 174.919 98.4991 174.056 98.0939 173.236C97.9152 172.881 97.6864 172.546 97.4129 172.241L102.976 172.241C103.517 172.242 104.034 172.43 104.416 172.763C104.798 173.097 105.012 173.549 105.013 174.02ZM93.8334 175.803C93.2916 175.803 92.7719 175.615 92.3888 175.281C92.0057 174.946 91.7905 174.493 91.7905 174.02C91.7905 173.547 92.0057 173.094 92.3888 172.76C92.7719 172.425 93.2916 172.237 93.8334 172.237L94.7505 172.237C95.5607 172.237 96.3282 172.797 96.8059 173.736C97.1329 174.398 97.3655 175.092 97.4985 175.803L93.8334 175.803ZM91.7967 181.98C91.7965 181.508 92.0108 181.055 92.3926 180.721C92.7744 180.387 93.2926 180.198 93.8334 180.197L97.8844 180.197C98.0311 181.081 98.3107 181.944 98.716 182.764C98.8947 183.119 99.1234 183.454 99.397 183.759L93.8334 183.759C93.2932 183.758 92.7756 183.57 92.3938 183.237C92.0121 182.903 91.7974 182.451 91.7967 181.98ZM100.009 182.264C99.6822 181.602 99.4497 180.908 99.3167 180.197L102.976 180.197C103.518 180.197 104.038 180.385 104.421 180.719C104.804 181.054 105.019 181.507 105.019 181.98C105.019 182.453 104.804 182.906 104.421 183.24C104.038 183.575 103.518 183.763 102.976 183.763L102.059 183.763C101.253 183.763 100.485 183.203 100.009 182.264Z" fill="url(#paint3_linear_1157_37978)"/>
<path opacity="0.8" d="M106.427 174.02C106.427 174.82 106.065 175.587 105.418 176.153C104.771 176.72 103.893 177.039 102.976 177.041L99.1508 177.041C99.1268 177.352 99.1116 177.67 99.1116 178C99.1116 178.33 99.0965 178.646 99.0751 178.959L102.976 178.959C103.885 178.972 104.751 179.296 105.388 179.861C106.026 180.426 106.383 181.187 106.383 181.98C106.383 182.772 106.026 183.533 105.388 184.098C104.751 184.663 103.885 184.987 102.976 185L93.8331 185C92.9247 184.987 92.0584 184.663 91.4212 184.098C90.7839 183.533 90.4268 182.772 90.4268 181.979C90.4268 181.187 90.7839 180.426 91.4212 179.861C92.0584 179.296 92.9247 178.972 93.8331 178.959L97.4266 178.875C97.6766 178.875 97.698 178.33 97.698 178C97.698 177.67 97.7131 177.354 97.7345 177.041L93.8331 177.041C92.9247 177.028 92.0584 176.704 91.4212 176.139C90.7839 175.574 90.4268 174.813 90.4268 174.021C90.4268 173.228 90.7839 172.467 91.4212 171.902C92.0584 171.337 92.9247 171.013 93.8331 171L102.976 171C103.893 171.002 104.77 171.321 105.417 171.887C106.064 172.454 106.427 173.221 106.427 174.02ZM105.013 181.98C105.013 181.508 104.799 181.055 104.417 180.721C104.035 180.387 103.517 180.198 102.976 180.197L98.9253 180.197C98.7786 181.081 98.4989 181.944 98.0937 182.764C97.915 183.119 97.6863 183.454 97.4127 183.759L102.976 183.759C103.517 183.758 104.034 183.57 104.416 183.237C104.798 182.903 105.012 182.451 105.013 181.98ZM93.8331 180.197C93.2913 180.197 92.7717 180.385 92.3886 180.719C92.0054 181.054 91.7902 181.507 91.7902 181.98C91.7902 182.453 92.0054 182.906 92.3886 183.24C92.7717 183.575 93.2913 183.763 93.8331 183.763L94.7503 183.763C95.5605 183.763 96.328 183.203 96.8057 182.264C97.1328 181.602 97.3654 180.908 97.4983 180.197L93.8331 180.197ZM91.7965 174.02C91.7962 174.492 92.0105 174.945 92.3923 175.279C92.7742 175.613 93.2923 175.802 93.8331 175.803L97.8842 175.803C98.031 174.919 98.3106 174.056 98.7159 173.236C98.8945 172.881 99.1233 172.546 99.3968 172.241L93.8331 172.241C93.2929 172.242 92.7753 172.43 92.3936 172.763C92.0119 173.097 91.7972 173.549 91.7965 174.02ZM100.009 173.736C99.6821 174.398 99.4495 175.092 99.3166 175.803L102.976 175.803C103.518 175.803 104.038 175.615 104.421 175.281C104.804 174.946 105.019 174.493 105.019 174.02C105.019 173.547 104.804 173.094 104.421 172.76C104.038 172.425 103.518 172.237 102.976 172.237L102.059 172.237C101.253 172.237 100.485 172.797 100.009 173.736Z" fill="url(#paint4_linear_1157_37978)"/>
</g>
<g filter="url(#filter1_d_1157_37978)">
<path fill-rule="evenodd" clip-rule="evenodd" d="M304.473 281.527L297.195 288.805C292.351 293.648 292.453 301.73 297.416 306.693L301.167 310.444C308.21 317.487 308.36 328.787 301.488 335.659L297.868 339.279C292.987 344.16 293.088 352.159 298.093 357.164L305.519 364.59C310.52 369.591 318.519 369.692 323.4 364.812L327.02 361.191C328.198 360.013 329.506 359.042 330.9 358.276V339.128C329.396 338.306 327.979 337.256 326.703 335.98C319.656 328.933 319.517 317.63 326.426 310.721L330.047 307.1C334.886 302.261 334.781 294.182 329.814 289.215L322.354 281.755C317.391 276.792 309.313 276.687 304.473 281.527Z" fill="#1F1D2B"/>
<g clip-path="url(#clip3_1157_37978)">
<rect x="289.868" y="331.932" width="50" height="50" rx="8" fill="#1F1D2B"/>
<path fill-rule="evenodd" clip-rule="evenodd" d="M312.982 356.53V357.756C312.982 358.577 313.65 359.25 314.466 359.25H315.684C316.5 359.25 317.167 358.577 317.167 357.756V356.53C317.167 355.708 316.5 355.035 315.684 355.035H314.466C313.65 355.035 312.982 355.708 312.982 356.53Z" fill="white"/>
<path fill-rule="evenodd" clip-rule="evenodd" d="M312.983 352.716C312.983 353.916 312.046 354.892 310.892 354.892C309.738 354.892 308.801 355.867 308.801 357.074C308.801 358.275 307.864 359.25 306.704 359.25C305.55 359.25 304.613 358.275 304.613 357.074C304.613 355.867 305.55 354.892 306.704 354.892C307.864 354.892 308.801 353.916 308.801 352.716C308.801 351.515 307.864 350.54 306.704 350.54H306.096C305.283 350.54 304.613 349.843 304.613 348.997V347.725C304.613 346.879 305.283 346.182 306.096 346.182H307.318C308.131 346.182 308.801 346.879 308.801 347.725V348.364C308.801 349.565 309.738 350.54 310.892 350.54C312.046 350.54 312.983 351.515 312.983 352.716Z" fill="white"/>
<path fill-rule="evenodd" clip-rule="evenodd" d="M317.168 364.957V366.188C317.168 367.007 316.476 367.681 315.636 367.681H314.374C313.534 367.681 312.842 367.007 312.842 366.188V365.575C312.842 364.407 311.874 363.462 310.681 363.462C309.49 363.462 308.522 364.407 308.522 365.575C308.522 366.738 307.553 367.681 306.355 367.681C305.163 367.681 304.195 366.738 304.195 365.575C304.195 364.407 305.163 363.462 306.355 363.462C307.553 363.462 308.522 362.519 308.522 361.356V360.744C308.522 359.918 309.207 359.25 310.053 359.25H311.31C312.156 359.25 312.842 359.918 312.842 360.744V361.356C312.842 362.519 313.81 363.462 315.002 363.462H315.636C316.476 363.462 317.168 364.137 317.168 364.957Z" fill="white"/>
<mask id="mask0_1157_37978" style="mask-type:alpha" maskUnits="userSpaceOnUse" x="317" y="354" width="9" height="14">
<path d="M317.171 354.612H325.54V367.681H317.171V354.612Z" fill="#1F1D2B"/>
</mask>
<g mask="url(#mask0_1157_37978)">
<path fill-rule="evenodd" clip-rule="evenodd" d="M325.54 365.506C325.54 366.706 324.603 367.681 323.443 367.681C322.289 367.681 321.352 366.706 321.352 365.506C321.352 364.298 320.415 363.322 319.261 363.322H318.652C317.834 363.322 317.17 362.632 317.17 361.779V360.514C317.17 359.661 317.834 358.971 318.652 358.971H319.261C320.415 358.971 321.352 357.995 321.352 356.795C321.352 355.588 322.289 354.613 323.443 354.613C324.603 354.613 325.54 355.588 325.54 356.795C325.54 357.995 324.603 358.971 323.443 358.971C322.289 358.971 321.352 359.946 321.352 361.147C321.352 362.347 322.289 363.322 323.443 363.322C324.603 363.322 325.54 364.298 325.54 365.506Z" fill="white"/>
</g>
<mask id="mask1_1157_37978" style="mask-type:alpha" maskUnits="userSpaceOnUse" x="312" y="346" width="14" height="9">
<path d="M312.566 346.182H325.539V354.613H312.566V346.182Z" fill="#1F1D2B"/>
</mask>
<g mask="url(#mask1_1157_37978)">
<path fill-rule="evenodd" clip-rule="evenodd" d="M325.539 347.676V348.907C325.539 349.726 324.847 350.4 324.007 350.4H323.373C322.181 350.4 321.213 351.344 321.213 352.507C321.213 353.669 320.245 354.613 319.053 354.613C317.861 354.613 316.893 353.669 316.893 352.507C316.893 351.344 315.925 350.4 314.726 350.4H314.098C313.259 350.4 312.566 349.726 312.566 348.907V347.676C312.566 346.857 313.259 346.182 314.098 346.182H315.361C316.201 346.182 316.893 346.857 316.893 347.676V348.294C316.893 349.457 317.861 350.4 319.053 350.4C320.245 350.4 321.213 349.457 321.213 348.294V347.676C321.213 346.857 321.905 346.182 322.745 346.182H324.007C324.847 346.182 325.539 346.857 325.539 347.676Z" fill="white"/>
</g>
</g>
<rect x="212" y="110" width="203.844" height="204.797" rx="8" fill="#1F1D2B"/>
<g clip-path="url(#clip4_1157_37978)">
<path d="M405 133.333C405.001 132.362 404.547 131.43 403.739 130.742C402.93 130.055 401.833 129.667 400.687 129.664L395.905 129.664C395.875 129.287 395.856 128.9 395.856 128.5C395.856 128.1 395.837 127.715 395.811 127.335L400.687 127.335C401.823 127.32 402.905 126.927 403.702 126.241C404.499 125.555 404.945 124.63 404.945 123.668C404.945 122.705 404.499 121.781 403.702 121.095C402.905 120.409 401.823 120.015 400.687 120L389.258 120C388.123 120.015 387.04 120.409 386.243 121.095C385.447 121.781 385 122.705 385 123.668C385 124.63 385.447 125.555 386.243 126.241C387.04 126.927 388.123 127.32 389.258 127.335L393.75 127.438C394.063 127.437 394.089 128.1 394.089 128.5C394.089 128.9 394.108 129.285 394.135 129.664L389.258 129.664C388.123 129.68 387.04 130.073 386.243 130.759C385.447 131.445 385 132.37 385 133.332C385 134.295 385.447 135.219 386.243 135.905C387.04 136.591 388.123 136.985 389.258 137L400.687 137C401.832 136.997 402.93 136.61 403.738 135.922C404.547 135.235 405.001 134.304 405 133.333ZM403.233 123.667C403.233 124.24 402.965 124.79 402.488 125.196C402.011 125.602 401.363 125.83 400.687 125.832L395.623 125.832C395.44 124.759 395.09 123.711 394.584 122.715C394.361 122.284 394.075 121.878 393.733 121.506L400.687 121.506C401.362 121.508 402.009 121.736 402.487 122.141C402.964 122.546 403.232 123.095 403.233 123.667ZM389.258 125.832C388.581 125.832 387.931 125.604 387.453 125.198C386.974 124.792 386.705 124.241 386.705 123.667C386.705 123.093 386.974 122.543 387.453 122.137C387.931 121.731 388.581 121.503 389.258 121.503L390.405 121.503C391.417 121.503 392.377 122.183 392.974 123.323C393.383 124.126 393.673 124.969 393.84 125.832L389.258 125.832ZM386.712 133.333C386.712 132.76 386.98 132.21 387.457 131.804C387.935 131.398 388.582 131.17 389.258 131.168L394.322 131.168C394.505 132.241 394.855 133.289 395.362 134.285C395.585 134.716 395.871 135.122 396.213 135.494L389.258 135.494C388.583 135.492 387.936 135.264 387.459 134.859C386.982 134.454 386.713 133.905 386.712 133.333ZM396.978 133.677C396.569 132.874 396.279 132.031 396.112 131.168L400.687 131.168C401.364 131.168 402.014 131.396 402.493 131.802C402.972 132.208 403.241 132.759 403.241 133.333C403.241 133.907 402.972 134.457 402.493 134.863C402.014 135.269 401.364 135.497 400.687 135.497L399.541 135.497C398.532 135.497 397.573 134.817 396.978 133.677Z" fill="#C6BBFA"/>
<path opacity="0.8" d="M405 123.667C405.001 124.638 404.547 125.57 403.739 126.258C402.93 126.945 401.833 127.333 400.687 127.336L395.905 127.336C395.875 127.713 395.856 128.1 395.856 128.5C395.856 128.9 395.837 129.285 395.81 129.665L400.687 129.665C401.823 129.68 402.905 130.073 403.702 130.759C404.499 131.445 404.945 132.37 404.945 133.332C404.945 134.295 404.499 135.219 403.702 135.905C402.905 136.591 401.823 136.985 400.687 137L389.258 137C388.122 136.985 387.04 136.591 386.243 135.905C385.446 135.219 385 134.295 385 133.332C385 132.37 385.446 131.445 386.243 130.759C387.04 130.073 388.122 129.68 389.258 129.665L393.75 129.562C394.062 129.562 394.089 128.9 394.089 128.5C394.089 128.1 394.108 127.715 394.135 127.336L389.258 127.336C388.122 127.32 387.04 126.927 386.243 126.241C385.446 125.555 385 124.63 385 123.668C385 122.705 385.446 121.781 386.243 121.095C387.04 120.409 388.122 120.015 389.258 120L400.687 120C401.832 120.003 402.93 120.39 403.738 121.078C404.547 121.765 405.001 122.696 405 123.667ZM403.233 133.333C403.233 132.76 402.965 132.21 402.488 131.804C402.011 131.398 401.363 131.17 400.687 131.168L395.623 131.168C395.44 132.241 395.09 133.289 394.584 134.285C394.36 134.716 394.074 135.122 393.732 135.494L400.687 135.494C401.362 135.492 402.009 135.264 402.486 134.859C402.964 134.454 403.232 133.905 403.233 133.333ZM389.258 131.168C388.581 131.168 387.931 131.396 387.452 131.802C386.973 132.208 386.704 132.759 386.704 133.333C386.704 133.907 386.973 134.457 387.452 134.863C387.931 135.269 388.581 135.497 389.258 135.497L390.404 135.497C391.417 135.497 392.377 134.817 392.974 133.677C393.383 132.874 393.673 132.031 393.839 131.168L389.258 131.168ZM386.712 123.667C386.712 124.24 386.98 124.79 387.457 125.196C387.934 125.602 388.582 125.83 389.258 125.832L394.322 125.832C394.505 124.759 394.855 123.711 395.361 122.715C395.585 122.284 395.871 121.878 396.213 121.506L389.258 121.506C388.583 121.508 387.936 121.736 387.459 122.141C386.981 122.546 386.713 123.095 386.712 123.667ZM396.978 123.323C396.569 124.126 396.278 124.969 396.112 125.832L400.687 125.832C401.364 125.832 402.014 125.604 402.493 125.198C402.972 124.792 403.241 124.241 403.241 123.667C403.241 123.093 402.972 122.543 402.493 122.137C402.014 121.731 401.364 121.503 400.687 121.503L399.541 121.503C398.532 121.503 397.573 122.183 396.978 123.323Z" fill="#C6BBFA"/>
</g>
<rect x="241.132" y="139.268" width="145.581" height="146.261" rx="8" fill="#2B2F40"/>
<path d="M306.816 255.936L278.761 212.765" stroke="white"/>
<path d="M270.594 255.579L262.426 239.167" stroke="white"/>
<path d="M287.286 255.936L295.454 240.594" stroke="white"/>
<path d="M252.481 256.293L314.274 152.111L375.356 256.293" stroke="white"/>
<ellipse cx="278.05" cy="212.765" rx="5.68206" ry="5.70862" fill="#9986FF"/>
<ellipse cx="350.497" cy="212.765" rx="5.68206" ry="5.70862" fill="white"/>
<ellipse cx="262.425" cy="239.881" rx="5.68206" ry="5.70862" fill="#C5BBFA"/>
<ellipse cx="296.162" cy="239.881" rx="5.68206" ry="5.70862" fill="#C5BBFA"/>
<ellipse cx="332.742" cy="239.881" rx="5.68206" ry="5.70862" fill="white"/>
<ellipse cx="365.058" cy="239.881" rx="5.68206" ry="5.70862" fill="white"/>
<ellipse cx="253.192" cy="254.866" rx="5.68206" ry="5.70862" fill="#E7E2FF"/>
<ellipse cx="271.192" cy="254.866" rx="5.68206" ry="5.70862" fill="#E7E2FF"/>
<ellipse cx="287.706" cy="254.866" rx="5.68206" ry="5.70862" fill="#E7E2FF"/>
<ellipse cx="306.461" cy="254.866" rx="5.68206" ry="5.70862" fill="#E7E2FF"/>
<ellipse cx="324.218" cy="254.866" rx="5.68206" ry="5.70862" fill="white"/>
<ellipse cx="340.553" cy="254.866" rx="5.68206" ry="5.70862" fill="white"/>
<ellipse cx="356.888" cy="254.866" rx="5.68206" ry="5.70862" fill="white"/>
<ellipse cx="374.645" cy="254.866" rx="5.68206" ry="5.70862" fill="white"/>
<path d="M323.863 255.579L350.143 213.478" stroke="white"/>
<path d="M341.086 255.936L332.918 239.524" stroke="white"/>
<path d="M356.18 255.936L364.348 240.594" stroke="white"/>
<path d="M313.534 163.953L306.156 151.172L320.913 151.172L313.534 163.953Z" fill="#6F54FF"/>
<path d="M252.694 157.733C251.877 157.733 251.239 157.511 250.78 157.069C250.322 156.621 250.093 155.993 250.093 155.186C250.093 154.311 250.364 153.647 250.905 153.194C251.452 152.735 252.267 152.498 253.351 152.483L255.093 152.451V152.022C255.093 151.485 255.002 151.079 254.819 150.803C254.637 150.527 254.343 150.389 253.937 150.389C253.556 150.389 253.275 150.485 253.093 150.678C252.916 150.865 252.806 151.168 252.765 151.584L250.476 151.475C250.757 149.803 251.942 148.967 254.03 148.967C255.082 148.967 255.887 149.225 256.444 149.74C257.007 150.256 257.288 151.014 257.288 152.014V155.076C257.288 155.55 257.34 155.878 257.444 156.061C257.554 156.238 257.733 156.326 257.983 156.326C258.15 156.326 258.312 156.311 258.468 156.28V157.467C258.338 157.498 258.22 157.527 258.116 157.553C258.012 157.579 257.908 157.6 257.804 157.615C257.7 157.631 257.588 157.644 257.468 157.655C257.353 157.665 257.218 157.67 257.062 157.67C256.509 157.67 256.101 157.535 255.835 157.264C255.575 156.993 255.418 156.595 255.366 156.069H255.319C254.991 156.657 254.616 157.082 254.194 157.342C253.778 157.602 253.278 157.733 252.694 157.733ZM255.093 153.662L254.046 153.678C253.577 153.688 253.236 153.738 253.022 153.826C252.814 153.91 252.655 154.048 252.546 154.24C252.437 154.428 252.382 154.686 252.382 155.014C252.382 155.806 252.694 156.201 253.319 156.201C253.825 156.201 254.246 156.003 254.585 155.608C254.924 155.207 255.093 154.701 255.093 154.092V153.662Z" fill="white"/>
</g>
<defs>
<filter id="filter0_d_1157_37978" x="16" y="178.627" width="88" height="88" filterUnits="userSpaceOnUse" color-interpolation-filters="sRGB">
<feFlood flood-opacity="0" result="BackgroundImageFix"/>
<feColorMatrix in="SourceAlpha" type="matrix" values="0 0 0 0 0 0 0 0 0 0 0 0 0 0 0 0 0 0 127 0" result="hardAlpha"/>
<feOffset dy="4"/>
<feGaussianBlur stdDeviation="2"/>
<feComposite in2="hardAlpha" operator="out"/>
<feColorMatrix type="matrix" values="0 0 0 0 0 0 0 0 0 0 0 0 0 0 0 0 0 0 0.25 0"/>
<feBlend mode="normal" in2="BackgroundImageFix" result="effect1_dropShadow_1157_37978"/>
<feBlend mode="normal" in="SourceGraphic" in2="effect1_dropShadow_1157_37978" result="shape"/>
</filter>
<filter id="filter1_d_1157_37978" x="208" y="110" width="211.844" height="279.932" filterUnits="userSpaceOnUse" color-interpolation-filters="sRGB">
<feFlood flood-opacity="0" result="BackgroundImageFix"/>
<feColorMatrix in="SourceAlpha" type="matrix" values="0 0 0 0 0 0 0 0 0 0 0 0 0 0 0 0 0 0 127 0" result="hardAlpha"/>
<feOffset dy="4"/>
<feGaussianBlur stdDeviation="2"/>
<feComposite in2="hardAlpha" operator="out"/>
<feColorMatrix type="matrix" values="0 0 0 0 0 0 0 0 0 0 0 0 0 0 0 0 0 0 0.25 0"/>
<feBlend mode="normal" in2="BackgroundImageFix" result="effect1_dropShadow_1157_37978"/>
<feBlend mode="normal" in="SourceGraphic" in2="effect1_dropShadow_1157_37978" result="shape"/>
</filter>
<linearGradient id="paint0_linear_1157_37978" x1="108.328" y1="236.792" x2="86.8598" y2="144.564" gradientUnits="userSpaceOnUse">
<stop stop-color="#8CDDFF"/>
<stop offset="1" stop-color="#5033FF" stop-opacity="0.86"/>
</linearGradient>
<linearGradient id="paint1_linear_1157_37978" x1="40.8914" y1="189.084" x2="31.103" y2="199.908" gradientUnits="userSpaceOnUse">
<stop offset="0.58" stop-color="#A0A8D4"/>
<stop offset="0.73" stop-color="#8791C7"/>
<stop offset="0.91" stop-color="#6470B4"/>
</linearGradient>
<linearGradient id="paint2_linear_1157_37978" x1="41.1014" y1="215.473" x2="50.8862" y2="204.657" gradientUnits="userSpaceOnUse">
<stop offset="0.58" stop-color="#A0A8D4"/>
<stop offset="0.73" stop-color="#8791C7"/>
<stop offset="0.91" stop-color="#6470B4"/>
</linearGradient>
<linearGradient id="paint3_linear_1157_37978" x1="91.6191" y1="171.887" x2="103.691" y2="185.683" gradientUnits="userSpaceOnUse">
<stop stop-color="#8E59FF"/>
<stop offset="1" stop-color="#6888F9"/>
</linearGradient>
<linearGradient id="paint4_linear_1157_37978" x1="91.6188" y1="184.113" x2="103.691" y2="170.316" gradientUnits="userSpaceOnUse">
<stop stop-color="#8E59FF"/>
<stop offset="1" stop-color="#6888F9"/>
</linearGradient>
<clipPath id="clip0_1157_37978">
<rect x="20" y="178.627" width="80" height="80" rx="8" fill="white"/>
</clipPath>
<clipPath id="clip1_1157_37978">
<rect width="33" height="36" fill="white" transform="translate(24.5 188.767)"/>
</clipPath>
<clipPath id="clip2_1157_37978">
<rect width="14" height="16" fill="white" transform="translate(106.427 171) rotate(90)"/>
</clipPath>
<clipPath id="clip3_1157_37978">
<rect x="289.868" y="331.932" width="50" height="50" rx="8" fill="white"/>
</clipPath>
<clipPath id="clip4_1157_37978">
<rect width="17" height="20" fill="white" transform="translate(405 120) rotate(90)"/>
</clipPath>
</defs>
</svg>
