<svg
  width="403"
  height="186"
  viewBox="0 0 403 186"
  fill="none"
  xmlns="http://www.w3.org/2000/svg"
>
  <rect x="0.263672" width="402" height="186" rx="8" fill="#1F1D2B" />
  <path
    d="M19.0801 32.6035C19.1074 32.6992 19.1302 32.8906 19.1484 33.1777C19.1712 33.4648 19.1826 33.6745 19.1826 33.8066H19.21C19.4287 33.3737 19.7204 33.041 20.085 32.8086C20.4541 32.5762 20.8825 32.46 21.3701 32.46C22.1904 32.46 22.833 32.804 23.2979 33.4922C23.7673 34.1803 24.002 35.1123 24.002 36.2881C24.002 37.4958 23.765 38.4391 23.291 39.1182C22.8216 39.7972 22.1562 40.1367 21.2949 40.1367C20.8073 40.1367 20.3835 40.0273 20.0234 39.8086C19.6634 39.5853 19.3877 39.2594 19.1963 38.8311H19.1826L19.1963 40.0479V42.9053H17.2754V34.2168C17.2754 33.7611 17.2572 33.2233 17.2207 32.6035H19.0801ZM19.1689 36.3359C19.1689 36.8783 19.2282 37.334 19.3467 37.7031C19.4652 38.0677 19.6315 38.348 19.8457 38.5439C20.0645 38.7354 20.3197 38.8311 20.6113 38.8311C21.0716 38.8311 21.418 38.6146 21.6504 38.1816C21.8828 37.7487 21.999 37.1175 21.999 36.2881C21.999 35.4495 21.8783 34.8206 21.6367 34.4014C21.3997 33.9821 21.0625 33.7725 20.625 33.7725C20.3424 33.7725 20.0895 33.875 19.8662 34.0801C19.6429 34.2806 19.4697 34.57 19.3467 34.9482C19.2282 35.3265 19.1689 35.7891 19.1689 36.3359ZM32.4443 36.2949C32.4443 37.5208 32.1344 38.4688 31.5146 39.1387C30.8949 39.804 30.0039 40.1367 28.8418 40.1367C27.7207 40.1367 26.8503 39.804 26.2305 39.1387C25.6107 38.4688 25.3008 37.5208 25.3008 36.2949C25.3008 35.0736 25.6084 34.1302 26.2236 33.4648C26.8389 32.7995 27.7253 32.4668 28.8828 32.4668C31.2572 32.4668 32.4443 33.7428 32.4443 36.2949ZM30.4346 36.2949C30.4346 35.4199 30.3184 34.7842 30.0859 34.3877C29.8535 33.9867 29.4616 33.7861 28.9102 33.7861C28.3451 33.7861 27.9372 33.9867 27.6865 34.3877C27.4404 34.7887 27.3174 35.4245 27.3174 36.2949C27.3174 37.1745 27.4427 37.8171 27.6934 38.2227C27.9486 38.6237 28.3245 38.8242 28.8213 38.8242C29.3864 38.8242 29.7965 38.626 30.0518 38.2295C30.307 37.8285 30.4346 37.1836 30.4346 36.2949ZM40.627 37.8398C40.627 38.5553 40.333 39.1182 39.7451 39.5283C39.1618 39.9339 38.3529 40.1367 37.3184 40.1367C36.3021 40.1367 35.5228 39.9772 34.9805 39.6582C34.4427 39.3346 34.085 38.8333 33.9072 38.1543L35.5957 37.9014C35.6914 38.2523 35.8555 38.5007 36.0879 38.6465C36.3249 38.7923 36.735 38.8652 37.3184 38.8652C37.8561 38.8652 38.248 38.7969 38.4941 38.6602C38.7402 38.5234 38.8633 38.3092 38.8633 38.0176C38.8633 37.7806 38.763 37.5938 38.5625 37.457C38.3665 37.3158 38.0316 37.1973 37.5576 37.1016C36.473 36.8874 35.7415 36.6891 35.3633 36.5068C34.985 36.32 34.6956 36.0807 34.4951 35.7891C34.2992 35.4928 34.2012 35.1305 34.2012 34.7021C34.2012 33.9958 34.4723 33.4466 35.0146 33.0547C35.5615 32.6582 36.334 32.46 37.332 32.46C38.2116 32.46 38.918 32.6309 39.4512 32.9727C39.9889 33.3145 40.3239 33.8089 40.4561 34.4561L38.7539 34.6338C38.6992 34.333 38.5648 34.1097 38.3506 33.9639C38.1364 33.8135 37.7969 33.7383 37.332 33.7383C36.8763 33.7383 36.5345 33.7975 36.3066 33.916C36.0788 34.0299 35.9648 34.2236 35.9648 34.4971C35.9648 34.7113 36.0514 34.8822 36.2246 35.0098C36.4023 35.1328 36.6986 35.2354 37.1133 35.3174C37.6921 35.4359 38.2048 35.5589 38.6514 35.6865C39.1025 35.8096 39.4626 35.9577 39.7314 36.1309C40.0049 36.304 40.2214 36.5273 40.3809 36.8008C40.5449 37.0697 40.627 37.416 40.627 37.8398ZM45.7676 40.1367C44.6191 40.1367 43.7327 39.7995 43.1084 39.125C42.484 38.446 42.1719 37.4935 42.1719 36.2676C42.1719 35.4473 42.3177 34.7546 42.6094 34.1895C42.9056 33.6243 43.3249 33.196 43.8672 32.9043C44.4095 32.6126 45.0521 32.4668 45.7949 32.4668C46.875 32.4668 47.7135 32.8268 48.3105 33.5469C48.9076 34.2669 49.2061 35.29 49.2061 36.6162V36.6709H44.1885C44.1885 37.3408 44.3366 37.8717 44.6328 38.2637C44.9336 38.6556 45.3438 38.8516 45.8633 38.8516C46.2005 38.8516 46.499 38.7809 46.7588 38.6396C47.0186 38.4938 47.194 38.2705 47.2852 37.9697L49.0967 38.127C48.846 38.7695 48.429 39.2663 47.8457 39.6172C47.2624 39.9635 46.5697 40.1367 45.7676 40.1367ZM45.7676 33.6768C45.2982 33.6768 44.9245 33.8363 44.6465 34.1553C44.3685 34.4697 44.2204 34.9072 44.2021 35.4678H47.3467C47.3148 34.9209 47.1576 34.4857 46.875 34.1621C46.597 33.8385 46.2279 33.6768 45.7676 33.6768ZM55.3242 38.7012H57.7373V40H50.7031V38.7012H53.4033V33.9023H51.4209V32.6035H55.3242V38.7012ZM53.4033 31.2705V29.8555H55.3242V31.2705H53.4033ZM63.8896 40C63.8714 39.9316 63.8486 39.7607 63.8213 39.4873C63.7985 39.2093 63.7871 38.9792 63.7871 38.7969H63.7598C63.5182 39.2845 63.2197 39.6309 62.8643 39.8359C62.5088 40.0365 62.0872 40.1367 61.5996 40.1367C60.7839 40.1367 60.1413 39.7949 59.6719 39.1113C59.2025 38.4277 58.9678 37.4958 58.9678 36.3154C58.9678 35.1077 59.2025 34.1667 59.6719 33.4922C60.1458 32.8177 60.8135 32.4805 61.6748 32.4805C62.1624 32.4805 62.5863 32.5921 62.9463 32.8154C63.3063 33.0342 63.582 33.3577 63.7734 33.7861H63.7871L63.7734 32.5693V29.8555H65.6943V38.3867C65.6943 38.8424 65.7126 39.3802 65.749 40H63.8896ZM63.8008 36.2676C63.8008 35.4792 63.6732 34.8685 63.418 34.4355C63.1628 34.0026 62.8096 33.7861 62.3584 33.7861C61.9027 33.7861 61.5563 34.0003 61.3193 34.4287C61.0869 34.8525 60.9707 35.4814 60.9707 36.3154C60.9707 37.154 61.0892 37.7829 61.3262 38.2021C61.5677 38.6169 61.9072 38.8242 62.3447 38.8242C62.6273 38.8242 62.8802 38.724 63.1035 38.5234C63.3268 38.3184 63.4977 38.0267 63.6162 37.6484C63.7393 37.2702 63.8008 36.8099 63.8008 36.2676ZM74.4854 36.2949C74.4854 37.5208 74.1755 38.4688 73.5557 39.1387C72.9359 39.804 72.0449 40.1367 70.8828 40.1367C69.7617 40.1367 68.8913 39.804 68.2715 39.1387C67.6517 38.4688 67.3418 37.5208 67.3418 36.2949C67.3418 35.0736 67.6494 34.1302 68.2646 33.4648C68.8799 32.7995 69.7663 32.4668 70.9238 32.4668C73.2982 32.4668 74.4854 33.7428 74.4854 36.2949ZM72.4756 36.2949C72.4756 35.4199 72.3594 34.7842 72.127 34.3877C71.8945 33.9867 71.5026 33.7861 70.9512 33.7861C70.3861 33.7861 69.9782 33.9867 69.7275 34.3877C69.4814 34.7887 69.3584 35.4245 69.3584 36.2949C69.3584 37.1745 69.4837 37.8171 69.7344 38.2227C69.9896 38.6237 70.3656 38.8242 70.8623 38.8242C71.4274 38.8242 71.8376 38.626 72.0928 38.2295C72.348 37.8285 72.4756 37.1836 72.4756 36.2949ZM80.7539 40V35.7686C80.7539 35.126 80.665 34.6543 80.4873 34.3535C80.3141 34.0527 80.0133 33.9023 79.585 33.9023C79.111 33.9023 78.7305 34.1051 78.4434 34.5107C78.1608 34.9118 78.0195 35.4199 78.0195 36.0352V40H76.0986V34.2578C76.0986 33.8613 76.0918 33.5378 76.0781 33.2871C76.069 33.0319 76.0576 32.804 76.0439 32.6035H77.876C77.8896 32.6901 77.9079 32.9225 77.9307 33.3008C77.9535 33.6745 77.9648 33.932 77.9648 34.0732H77.9922C78.252 33.5081 78.5778 33.098 78.9697 32.8428C79.3617 32.5876 79.8288 32.46 80.3711 32.46C81.9023 32.46 82.668 33.4079 82.668 35.3037V40H80.7539ZM87.9111 42.9053C87.1956 41.8753 86.6784 40.8477 86.3594 39.8223C86.0404 38.7969 85.8809 37.6462 85.8809 36.3701C85.8809 35.0986 86.0404 33.9525 86.3594 32.9316C86.6784 31.9062 87.1956 30.8809 87.9111 29.8555H89.832C89.112 30.8945 88.5879 31.929 88.2598 32.959C87.9362 33.9889 87.7744 35.1283 87.7744 36.377C87.7744 37.6211 87.9362 38.7559 88.2598 39.7812C88.5833 40.8021 89.1074 41.8434 89.832 42.9053H87.9111ZM37.3457 61.1367C36.2246 61.1367 35.3587 60.804 34.748 60.1387C34.1374 59.4688 33.832 58.5368 33.832 57.3428C33.832 56.1214 34.1396 55.1712 34.7549 54.4922C35.3701 53.8086 36.2428 53.4668 37.373 53.4668C38.2435 53.4668 38.9635 53.6855 39.5332 54.123C40.1029 54.5605 40.4606 55.1644 40.6064 55.9346L38.6719 56.0303C38.6172 55.652 38.4805 55.3512 38.2617 55.1279C38.043 54.9001 37.7331 54.7861 37.332 54.7861C36.3431 54.7861 35.8486 55.6133 35.8486 57.2676C35.8486 58.972 36.3522 59.8242 37.3594 59.8242C37.724 59.8242 38.0293 59.7103 38.2754 59.4824C38.5215 59.25 38.6742 58.9059 38.7334 58.4502L40.6611 58.5391C40.5928 59.0449 40.4105 59.4961 40.1143 59.8926C39.8226 60.2891 39.4375 60.5967 38.959 60.8154C38.4805 61.0296 37.9427 61.1367 37.3457 61.1367ZM44.3594 55.0801C44.6191 54.515 44.945 54.1048 45.3369 53.8496C45.7288 53.5944 46.196 53.4668 46.7383 53.4668C47.5039 53.4668 48.0781 53.6992 48.4609 54.1641C48.8438 54.6289 49.0352 55.3444 49.0352 56.3105V61H47.1211V56.7549C47.1211 56.0667 47.0277 55.5882 46.8408 55.3193C46.6585 55.0459 46.3577 54.9092 45.9385 54.9092C45.4736 54.9092 45.0977 55.1097 44.8105 55.5107C44.528 55.9072 44.3867 56.4176 44.3867 57.042V61H42.4658V50.8555H44.3867V53.624C44.3867 54.1208 44.3685 54.6061 44.332 55.0801H44.3594ZM52.8975 61.1367C52.182 61.1367 51.6237 60.943 51.2227 60.5557C50.8216 60.1637 50.6211 59.6146 50.6211 58.9082C50.6211 58.1426 50.8581 57.5615 51.332 57.165C51.8105 56.764 52.5238 56.5566 53.4717 56.543L54.9961 56.5156V56.1396C54.9961 55.6702 54.9163 55.3148 54.7568 55.0732C54.5973 54.8317 54.3398 54.7109 53.9844 54.7109C53.6517 54.7109 53.4056 54.7952 53.2461 54.9639C53.0911 55.1279 52.9954 55.3923 52.959 55.7568L50.9561 55.6611C51.2021 54.1982 52.2389 53.4668 54.0664 53.4668C54.987 53.4668 55.6911 53.6924 56.1787 54.1436C56.6709 54.5947 56.917 55.2578 56.917 56.1328V58.8125C56.917 59.2272 56.9626 59.5143 57.0537 59.6738C57.1494 59.8288 57.3066 59.9062 57.5254 59.9062C57.6712 59.9062 57.8125 59.8926 57.9492 59.8652V60.9043C57.8353 60.9316 57.7327 60.9567 57.6416 60.9795C57.5505 61.0023 57.4593 61.0205 57.3682 61.0342C57.277 61.0479 57.179 61.0592 57.0742 61.0684C56.974 61.0775 56.8555 61.082 56.7188 61.082C56.2357 61.082 55.8779 60.9635 55.6455 60.7266C55.4176 60.4896 55.2809 60.141 55.2354 59.6807H55.1943C54.9072 60.1956 54.5791 60.5671 54.21 60.7949C53.8454 61.0228 53.4079 61.1367 52.8975 61.1367ZM54.9961 57.5752L54.0801 57.5889C53.6699 57.598 53.3714 57.6413 53.1846 57.7188C53.0023 57.7917 52.8633 57.9124 52.7676 58.0811C52.6719 58.2451 52.624 58.4707 52.624 58.7578C52.624 59.4505 52.8975 59.7969 53.4443 59.7969C53.8864 59.7969 54.2555 59.6237 54.5518 59.2773C54.848 58.9264 54.9961 58.4844 54.9961 57.9512V57.5752ZM63.7324 59.7012H66.1455V61H59.1113V59.7012H61.8115V54.9023H59.8291V53.6035H63.7324V59.7012ZM61.8115 52.2705V50.8555H63.7324V52.2705H61.8115ZM72.3457 61V56.7686C72.3457 56.126 72.2568 55.6543 72.0791 55.3535C71.9059 55.0527 71.6051 54.9023 71.1768 54.9023C70.7028 54.9023 70.3223 55.1051 70.0352 55.5107C69.7526 55.9118 69.6113 56.4199 69.6113 57.0352V61H67.6904V55.2578C67.6904 54.8613 67.6836 54.5378 67.6699 54.2871C67.6608 54.0319 67.6494 53.804 67.6357 53.6035H69.4678C69.4814 53.6901 69.4997 53.9225 69.5225 54.3008C69.5452 54.6745 69.5566 54.932 69.5566 55.0732H69.584C69.8438 54.5081 70.1696 54.098 70.5615 53.8428C70.9535 53.5876 71.4206 53.46 71.9629 53.46C73.4941 53.46 74.2598 54.4079 74.2598 56.3037V61H72.3457ZM75.0869 62.5039V61.8477H83.5498V62.5039H75.0869ZM88.957 59.7012H91.3701V61H84.3359V59.7012H87.0361V54.9023H85.0537V53.6035H88.957V59.7012ZM87.0361 52.2705V50.8555H88.957V52.2705H87.0361ZM97.5225 61C97.5042 60.9316 97.4814 60.7607 97.4541 60.4873C97.4313 60.2093 97.4199 59.9792 97.4199 59.7969H97.3926C97.151 60.2845 96.8525 60.6309 96.4971 60.8359C96.1416 61.0365 95.7201 61.1367 95.2324 61.1367C94.4167 61.1367 93.7741 60.7949 93.3047 60.1113C92.8353 59.4277 92.6006 58.4958 92.6006 57.3154C92.6006 56.1077 92.8353 55.1667 93.3047 54.4922C93.7786 53.8177 94.4463 53.4805 95.3076 53.4805C95.7952 53.4805 96.2191 53.5921 96.5791 53.8154C96.9391 54.0342 97.2148 54.3577 97.4062 54.7861H97.4199L97.4062 53.5693V50.8555H99.3271V59.3867C99.3271 59.8424 99.3454 60.3802 99.3818 61H97.5225ZM97.4336 57.2676C97.4336 56.4792 97.306 55.8685 97.0508 55.4355C96.7956 55.0026 96.4424 54.7861 95.9912 54.7861C95.5355 54.7861 95.1891 55.0003 94.9521 55.4287C94.7197 55.8525 94.6035 56.4814 94.6035 57.3154C94.6035 58.154 94.722 58.7829 94.959 59.2021C95.2005 59.6169 95.54 59.8242 95.9775 59.8242C96.2601 59.8242 96.513 59.724 96.7363 59.5234C96.9596 59.3184 97.1305 59.0267 97.249 58.6484C97.3721 58.2702 97.4336 57.8099 97.4336 57.2676ZM101.036 55.2441V53.7197H108.057V55.2441H101.036ZM101.036 59.0107V57.5H108.057V59.0107H101.036ZM112.835 55.1074L113.99 50.8555H116.212L114.086 55.1074H112.835ZM109.697 55.1074L110.853 50.8555H113.074L110.948 55.1074H109.697ZM124.935 57.2949C124.935 58.5208 124.625 59.4688 124.005 60.1387C123.385 60.804 122.494 61.1367 121.332 61.1367C120.211 61.1367 119.34 60.804 118.721 60.1387C118.101 59.4688 117.791 58.5208 117.791 57.2949C117.791 56.0736 118.099 55.1302 118.714 54.4648C119.329 53.7995 120.215 53.4668 121.373 53.4668C123.747 53.4668 124.935 54.7428 124.935 57.2949ZM122.925 57.2949C122.925 56.4199 122.809 55.7842 122.576 55.3877C122.344 54.9867 121.952 54.7861 121.4 54.7861C120.835 54.7861 120.427 54.9867 120.177 55.3877C119.931 55.7887 119.808 56.4245 119.808 57.2949C119.808 58.1745 119.933 58.8171 120.184 59.2227C120.439 59.6237 120.815 59.8242 121.312 59.8242C121.877 59.8242 122.287 59.626 122.542 59.2295C122.797 58.8285 122.925 58.1836 122.925 57.2949ZM128.387 53.6035C128.414 53.6992 128.437 53.8906 128.455 54.1777C128.478 54.4648 128.489 54.6745 128.489 54.8066H128.517C128.735 54.3737 129.027 54.041 129.392 53.8086C129.761 53.5762 130.189 53.46 130.677 53.46C131.497 53.46 132.14 53.804 132.604 54.4922C133.074 55.1803 133.309 56.1123 133.309 57.2881C133.309 58.4958 133.072 59.4391 132.598 60.1182C132.128 60.7972 131.463 61.1367 130.602 61.1367C130.114 61.1367 129.69 61.0273 129.33 60.8086C128.97 60.5853 128.694 60.2594 128.503 59.8311H128.489L128.503 61.0479V63.9053H126.582V55.2168C126.582 54.7611 126.564 54.2233 126.527 53.6035H128.387ZM128.476 57.3359C128.476 57.8783 128.535 58.334 128.653 58.7031C128.772 59.0677 128.938 59.348 129.152 59.5439C129.371 59.7354 129.626 59.8311 129.918 59.8311C130.378 59.8311 130.725 59.6146 130.957 59.1816C131.189 58.7487 131.306 58.1175 131.306 57.2881C131.306 56.4495 131.185 55.8206 130.943 55.4014C130.706 54.9821 130.369 54.7725 129.932 54.7725C129.649 54.7725 129.396 54.875 129.173 55.0801C128.95 55.2806 128.776 55.57 128.653 55.9482C128.535 56.3265 128.476 56.7891 128.476 57.3359ZM136.221 54.9023H135.079V53.6035H136.316L136.918 51.6758H138.121V53.6035H140.753V54.9023H138.121V58.5254C138.121 58.9264 138.158 59.1976 138.23 59.3389C138.308 59.4756 138.431 59.585 138.6 59.667C138.768 59.7445 139.005 59.7832 139.311 59.7832C139.876 59.7832 140.457 59.7217 141.054 59.5986V60.8701C140.407 60.9749 139.949 61.0365 139.68 61.0547C139.411 61.0775 139.131 61.0889 138.839 61.0889C138.26 61.0889 137.775 61.0114 137.383 60.8564C136.995 60.6969 136.701 60.4508 136.501 60.1182C136.305 59.7809 136.207 59.3092 136.207 58.7031L136.221 54.9023ZM147.814 59.7012H150.228V61H143.193V59.7012H145.894V54.9023H143.911V53.6035H147.814V59.7012ZM145.894 52.2705V50.8555H147.814V52.2705H145.894ZM154.22 61V56.502C154.22 55.8229 154.176 55.3512 154.09 55.0869C154.008 54.8226 153.853 54.6904 153.625 54.6904C153.393 54.6904 153.208 54.9046 153.071 55.333C152.939 55.7614 152.873 56.3242 152.873 57.0215V61H151.308V55.1826C151.308 54.3213 151.294 53.7949 151.267 53.6035H152.695L152.736 54.4717V54.7998H152.75C152.905 54.335 153.101 53.9977 153.338 53.7881C153.575 53.5739 153.871 53.4668 154.227 53.4668C154.628 53.4668 154.926 53.5762 155.122 53.7949C155.323 54.0137 155.466 54.3509 155.553 54.8066H155.566C155.749 54.3236 155.965 53.9795 156.216 53.7744C156.471 53.5693 156.792 53.4668 157.18 53.4668C157.717 53.4668 158.103 53.6628 158.335 54.0547C158.567 54.4466 158.684 55.1188 158.684 56.0713V61H157.125V56.502C157.125 55.8229 157.082 55.3512 156.995 55.0869C156.913 54.8226 156.758 54.6904 156.53 54.6904C156.298 54.6904 156.113 54.875 155.977 55.2441C155.844 55.6087 155.778 56.1579 155.778 56.8916V61H154.22ZM164.631 59.7012H167.044V61H160.01V59.7012H162.71V54.9023H160.728V53.6035H164.631V59.7012ZM162.71 52.2705V50.8555H164.631V52.2705H162.71ZM175.158 58.8398C175.158 59.5553 174.864 60.1182 174.276 60.5283C173.693 60.9339 172.884 61.1367 171.85 61.1367C170.833 61.1367 170.054 60.9772 169.512 60.6582C168.974 60.3346 168.616 59.8333 168.438 59.1543L170.127 58.9014C170.223 59.2523 170.387 59.5007 170.619 59.6465C170.856 59.7923 171.266 59.8652 171.85 59.8652C172.387 59.8652 172.779 59.7969 173.025 59.6602C173.271 59.5234 173.395 59.3092 173.395 59.0176C173.395 58.7806 173.294 58.5938 173.094 58.457C172.898 58.3158 172.563 58.1973 172.089 58.1016C171.004 57.8874 170.273 57.6891 169.895 57.5068C169.516 57.32 169.227 57.0807 169.026 56.7891C168.83 56.4928 168.732 56.1305 168.732 55.7021C168.732 54.9958 169.004 54.4466 169.546 54.0547C170.093 53.6582 170.865 53.46 171.863 53.46C172.743 53.46 173.449 53.6309 173.982 53.9727C174.52 54.3145 174.855 54.8089 174.987 55.4561L173.285 55.6338C173.23 55.333 173.096 55.1097 172.882 54.9639C172.668 54.8135 172.328 54.7383 171.863 54.7383C171.408 54.7383 171.066 54.7975 170.838 54.916C170.61 55.0299 170.496 55.2236 170.496 55.4971C170.496 55.7113 170.583 55.8822 170.756 56.0098C170.934 56.1328 171.23 56.2354 171.645 56.3174C172.223 56.4359 172.736 56.5589 173.183 56.6865C173.634 56.8096 173.994 56.9577 174.263 57.1309C174.536 57.304 174.753 57.5273 174.912 57.8008C175.076 58.0697 175.158 58.416 175.158 58.8398ZM179.444 61V56.502C179.444 55.8229 179.401 55.3512 179.314 55.0869C179.232 54.8226 179.077 54.6904 178.85 54.6904C178.617 54.6904 178.433 54.9046 178.296 55.333C178.164 55.7614 178.098 56.3242 178.098 57.0215V61H176.532V55.1826C176.532 54.3213 176.519 53.7949 176.491 53.6035H177.92L177.961 54.4717V54.7998H177.975C178.13 54.335 178.326 53.9977 178.562 53.7881C178.799 53.5739 179.096 53.4668 179.451 53.4668C179.852 53.4668 180.151 53.5762 180.347 53.7949C180.547 54.0137 180.691 54.3509 180.777 54.8066H180.791C180.973 54.3236 181.19 53.9795 181.44 53.7744C181.696 53.5693 182.017 53.4668 182.404 53.4668C182.942 53.4668 183.327 53.6628 183.56 54.0547C183.792 54.4466 183.908 55.1188 183.908 56.0713V61H182.35V56.502C182.35 55.8229 182.306 55.3512 182.22 55.0869C182.138 54.8226 181.983 54.6904 181.755 54.6904C181.522 54.6904 181.338 54.875 181.201 55.2441C181.069 55.6087 181.003 56.1579 181.003 56.8916V61H179.444ZM188.509 55.1074L189.664 50.8555H191.886L189.76 55.1074H188.509ZM185.371 55.1074L186.526 50.8555H188.748L186.622 55.1074H185.371ZM194.6 63.4814L195.755 58.9561H197.908L195.782 63.4814H194.6ZM36.0811 82.1367C35.3656 82.1367 34.8073 81.943 34.4062 81.5557C34.0052 81.1637 33.8047 80.6146 33.8047 79.9082C33.8047 79.1426 34.0417 78.5615 34.5156 78.165C34.9941 77.764 35.7074 77.5566 36.6553 77.543L38.1797 77.5156V77.1396C38.1797 76.6702 38.0999 76.3148 37.9404 76.0732C37.7809 75.8317 37.5234 75.7109 37.168 75.7109C36.8353 75.7109 36.5892 75.7952 36.4297 75.9639C36.2747 76.1279 36.179 76.3923 36.1426 76.7568L34.1396 76.6611C34.3857 75.1982 35.4225 74.4668 37.25 74.4668C38.1706 74.4668 38.8747 74.6924 39.3623 75.1436C39.8545 75.5947 40.1006 76.2578 40.1006 77.1328V79.8125C40.1006 80.2272 40.1462 80.5143 40.2373 80.6738C40.333 80.8288 40.4902 80.9062 40.709 80.9062C40.8548 80.9062 40.9961 80.8926 41.1328 80.8652V81.9043C41.0189 81.9316 40.9163 81.9567 40.8252 81.9795C40.734 82.0023 40.6429 82.0205 40.5518 82.0342C40.4606 82.0479 40.3626 82.0592 40.2578 82.0684C40.1576 82.0775 40.0391 82.082 39.9023 82.082C39.4193 82.082 39.0615 81.9635 38.8291 81.7266C38.6012 81.4896 38.4645 81.141 38.4189 80.6807H38.3779C38.0908 81.1956 37.7627 81.5671 37.3936 81.7949C37.029 82.0228 36.5915 82.1367 36.0811 82.1367ZM38.1797 78.5752L37.2637 78.5889C36.8535 78.598 36.555 78.6413 36.3682 78.7188C36.1859 78.7917 36.0469 78.9124 35.9512 79.0811C35.8555 79.2451 35.8076 79.4707 35.8076 79.7578C35.8076 80.4505 36.0811 80.7969 36.6279 80.7969C37.07 80.7969 37.4391 80.6237 37.7354 80.2773C38.0316 79.9264 38.1797 79.4844 38.1797 78.9512V78.5752ZM44.9131 82V77.502C44.9131 76.8229 44.8698 76.3512 44.7832 76.0869C44.7012 75.8226 44.5462 75.6904 44.3184 75.6904C44.0859 75.6904 43.9014 75.9046 43.7646 76.333C43.6325 76.7614 43.5664 77.3242 43.5664 78.0215V82H42.001V76.1826C42.001 75.3213 41.9873 74.7949 41.96 74.6035H43.3887L43.4297 75.4717V75.7998H43.4434C43.5983 75.335 43.7943 74.9977 44.0312 74.7881C44.2682 74.5739 44.5645 74.4668 44.9199 74.4668C45.321 74.4668 45.6195 74.5762 45.8154 74.7949C46.016 75.0137 46.1595 75.3509 46.2461 75.8066H46.2598C46.4421 75.3236 46.6585 74.9795 46.9092 74.7744C47.1644 74.5693 47.4857 74.4668 47.873 74.4668C48.4108 74.4668 48.7959 74.6628 49.0283 75.0547C49.2607 75.4466 49.377 76.1188 49.377 77.0713V82H47.8184V77.502C47.8184 76.8229 47.7751 76.3512 47.6885 76.0869C47.6064 75.8226 47.4515 75.6904 47.2236 75.6904C46.9912 75.6904 46.8066 75.875 46.6699 76.2441C46.5378 76.6087 46.4717 77.1579 46.4717 77.8916V82H44.9131ZM57.6689 78.2949C57.6689 79.5208 57.359 80.4688 56.7393 81.1387C56.1195 81.804 55.2285 82.1367 54.0664 82.1367C52.9453 82.1367 52.0749 81.804 51.4551 81.1387C50.8353 80.4688 50.5254 79.5208 50.5254 78.2949C50.5254 77.0736 50.833 76.1302 51.4482 75.4648C52.0635 74.7995 52.9499 74.4668 54.1074 74.4668C56.4818 74.4668 57.6689 75.7428 57.6689 78.2949ZM55.6592 78.2949C55.6592 77.4199 55.543 76.7842 55.3105 76.3877C55.0781 75.9867 54.6862 75.7861 54.1348 75.7861C53.5697 75.7861 53.1618 75.9867 52.9111 76.3877C52.665 76.7887 52.542 77.4245 52.542 78.2949C52.542 79.1745 52.6673 79.8171 52.918 80.2227C53.1732 80.6237 53.5492 80.8242 54.0459 80.8242C54.611 80.8242 55.0212 80.626 55.2764 80.2295C55.5316 79.8285 55.6592 79.1836 55.6592 78.2949ZM61.1484 74.6035V78.7529C61.1484 79.3818 61.2487 79.8649 61.4492 80.2021C61.6543 80.5348 61.946 80.7012 62.3242 80.7012C62.7344 80.7012 63.0716 80.5007 63.3359 80.0996C63.6048 79.694 63.7393 79.1836 63.7393 78.5684V74.6035H65.6602V80.3457C65.6602 80.9746 65.6784 81.526 65.7148 82H63.8828C63.8281 81.3438 63.8008 80.8538 63.8008 80.5303H63.7666C63.279 81.6012 62.5316 82.1367 61.5244 82.1367C60.777 82.1367 60.2074 81.8997 59.8154 81.4258C59.4235 80.9473 59.2275 80.2386 59.2275 79.2998V74.6035H61.1484ZM72.3457 82V77.7686C72.3457 77.126 72.2568 76.6543 72.0791 76.3535C71.9059 76.0527 71.6051 75.9023 71.1768 75.9023C70.7028 75.9023 70.3223 76.1051 70.0352 76.5107C69.7526 76.9118 69.6113 77.4199 69.6113 78.0352V82H67.6904V76.2578C67.6904 75.8613 67.6836 75.5378 67.6699 75.2871C67.6608 75.0319 67.6494 74.804 67.6357 74.6035H69.4678C69.4814 74.6901 69.4997 74.9225 69.5225 75.3008C69.5452 75.6745 69.5566 75.932 69.5566 76.0732H69.584C69.8438 75.5081 70.1696 75.098 70.5615 74.8428C70.9535 74.5876 71.4206 74.46 71.9629 74.46C73.4941 74.46 74.2598 75.4079 74.2598 77.3037V82H72.3457ZM77.3633 75.9023H76.2217V74.6035H77.459L78.0605 72.6758H79.2637V74.6035H81.8955V75.9023H79.2637V79.5254C79.2637 79.9264 79.3001 80.1976 79.373 80.3389C79.4505 80.4756 79.5736 80.585 79.7422 80.667C79.9108 80.7445 80.1478 80.7832 80.4531 80.7832C81.0182 80.7832 81.5993 80.7217 82.1963 80.5986V81.8701C81.5492 81.9749 81.0911 82.0365 80.8223 82.0547C80.5534 82.0775 80.2731 82.0889 79.9814 82.0889C79.4027 82.0889 78.9173 82.0114 78.5254 81.8564C78.138 81.6969 77.8441 81.4508 77.6436 81.1182C77.4476 80.7809 77.3496 80.3092 77.3496 79.7031L77.3633 75.9023ZM84.2197 76.2441V74.7197H91.2402V76.2441H84.2197ZM84.2197 80.0107V78.5H91.2402V80.0107H84.2197ZM92.7783 82V80.667C93.0062 80.1657 93.3298 79.6644 93.749 79.1631C94.1729 78.6572 94.7881 78.0762 95.5947 77.4199C96.2236 76.9049 96.6315 76.5495 96.8184 76.3535C97.0052 76.1576 97.151 75.9684 97.2559 75.7861C97.3652 75.5993 97.4199 75.4102 97.4199 75.2188C97.4199 74.8906 97.3128 74.6331 97.0986 74.4463C96.8844 74.2594 96.57 74.166 96.1553 74.166C95.7451 74.166 95.4307 74.2777 95.2119 74.501C94.9977 74.7197 94.8587 75.0501 94.7949 75.4922L92.8604 75.3828C92.9697 74.4896 93.3024 73.8083 93.8584 73.3389C94.4189 72.8695 95.18 72.6348 96.1416 72.6348C97.1351 72.6348 97.9212 72.8626 98.5 73.3184C99.0788 73.7695 99.3682 74.3757 99.3682 75.1367C99.3682 75.6335 99.2109 76.1188 98.8965 76.5928C98.5866 77.0622 98.1195 77.5407 97.4951 78.0283C96.611 78.7119 96.0163 79.2041 95.7109 79.5049C95.4056 79.8057 95.1846 80.111 95.0479 80.4209H99.5186V82H92.7783ZM101.282 82V72.7783H107.899V74.3369H103.299V76.5518H107.482V78.1104H103.299V80.4414H108.18V82H101.282ZM113.963 74.3369V82H111.946V74.3369H109.171V72.7783H116.738V74.3369H113.963ZM122.604 82V78.0762H120.122V82H118.105V72.7783H120.122V76.4082H122.604V72.7783H124.62V82H122.604ZM127.334 84.4814L128.489 79.9561H130.643L128.517 84.4814H127.334ZM35.8965 95.6035C35.9238 95.6992 35.9466 95.8906 35.9648 96.1777C35.9876 96.4648 35.999 96.6745 35.999 96.8066H36.0264C36.2451 96.3737 36.5368 96.041 36.9014 95.8086C37.2705 95.5762 37.6989 95.46 38.1865 95.46C39.0068 95.46 39.6494 95.804 40.1143 96.4922C40.5837 97.1803 40.8184 98.1123 40.8184 99.2881C40.8184 100.496 40.5814 101.439 40.1074 102.118C39.638 102.797 38.9727 103.137 38.1113 103.137C37.6237 103.137 37.1999 103.027 36.8398 102.809C36.4798 102.585 36.2041 102.259 36.0127 101.831H35.999L36.0127 103.048V105.905H34.0918V97.2168C34.0918 96.7611 34.0736 96.2233 34.0371 95.6035H35.8965ZM35.9854 99.3359C35.9854 99.8783 36.0446 100.334 36.1631 100.703C36.2816 101.068 36.4479 101.348 36.6621 101.544C36.8809 101.735 37.1361 101.831 37.4277 101.831C37.888 101.831 38.2344 101.615 38.4668 101.182C38.6992 100.749 38.8154 100.118 38.8154 99.2881C38.8154 98.4495 38.6947 97.8206 38.4531 97.4014C38.2161 96.9821 37.8789 96.7725 37.4414 96.7725C37.1589 96.7725 36.9059 96.875 36.6826 97.0801C36.4593 97.2806 36.2861 97.57 36.1631 97.9482C36.0446 98.3265 35.9854 98.7891 35.9854 99.3359ZM44.332 95.6035V99.7529C44.332 100.382 44.4323 100.865 44.6328 101.202C44.8379 101.535 45.1296 101.701 45.5078 101.701C45.918 101.701 46.2552 101.501 46.5195 101.1C46.7884 100.694 46.9229 100.184 46.9229 99.5684V95.6035H48.8438V101.346C48.8438 101.975 48.862 102.526 48.8984 103H47.0664C47.0117 102.344 46.9844 101.854 46.9844 101.53H46.9502C46.4626 102.601 45.7152 103.137 44.708 103.137C43.9606 103.137 43.391 102.9 42.999 102.426C42.6071 101.947 42.4111 101.239 42.4111 100.3V95.6035H44.332ZM50.8535 103C50.89 102.38 50.9082 101.842 50.9082 101.387V92.8555H52.8291V95.5488L52.8154 96.7656H52.8291C53.016 96.3509 53.2962 96.0296 53.6699 95.8018C54.0482 95.5739 54.4902 95.46 54.9961 95.46C55.8438 95.46 56.4954 95.7949 56.9512 96.4648C57.4069 97.1348 57.6348 98.0827 57.6348 99.3086C57.6348 100.466 57.3932 101.394 56.9102 102.091C56.4271 102.788 55.7686 103.137 54.9346 103.137C54.4606 103.137 54.0436 103.025 53.6836 102.802C53.3281 102.574 53.0479 102.239 52.8428 101.797H52.8154C52.8154 101.947 52.804 102.157 52.7812 102.426C52.763 102.69 52.7402 102.882 52.7129 103H50.8535ZM52.8018 99.2607C52.8018 99.8076 52.861 100.27 52.9795 100.648C53.1025 101.027 53.2734 101.318 53.4922 101.523C53.7155 101.724 53.9707 101.824 54.2578 101.824C54.6953 101.824 55.0326 101.615 55.2695 101.195C55.5111 100.776 55.6318 100.147 55.6318 99.3086C55.6318 98.4746 55.5133 97.8434 55.2764 97.415C55.0439 96.9821 54.6999 96.7656 54.2441 96.7656C53.7975 96.7656 53.4443 96.9844 53.1846 97.4219C52.9294 97.8594 52.8018 98.4723 52.8018 99.2607ZM63.7324 101.701H66.1455V103H59.1113V101.701H61.8115V94.1543H59.8291V92.8555H63.7324V101.701ZM72.1406 101.701H74.5537V103H67.5195V101.701H70.2197V96.9023H68.2373V95.6035H72.1406V101.701ZM70.2197 94.2705V92.8555H72.1406V94.2705H70.2197ZM79.3867 103.137C78.2656 103.137 77.3997 102.804 76.7891 102.139C76.1784 101.469 75.873 100.537 75.873 99.3428C75.873 98.1214 76.1807 97.1712 76.7959 96.4922C77.4111 95.8086 78.2839 95.4668 79.4141 95.4668C80.2845 95.4668 81.0046 95.6855 81.5742 96.123C82.1439 96.5605 82.5016 97.1644 82.6475 97.9346L80.7129 98.0303C80.6582 97.652 80.5215 97.3512 80.3027 97.1279C80.084 96.9001 79.7741 96.7861 79.373 96.7861C78.3841 96.7861 77.8896 97.6133 77.8896 99.2676C77.8896 100.972 78.3932 101.824 79.4004 101.824C79.765 101.824 80.0703 101.71 80.3164 101.482C80.5625 101.25 80.7152 100.906 80.7744 100.45L82.7021 100.539C82.6338 101.045 82.4515 101.496 82.1553 101.893C81.8636 102.289 81.4785 102.597 81 102.815C80.5215 103.03 79.9837 103.137 79.3867 103.137ZM83.4951 104.504V103.848H91.958V104.504H83.4951ZM97.8438 103L95.8682 99.6504L95.041 100.225V103H93.1201V92.8555H95.041V98.666L97.6797 95.6035H99.7441L97.1465 98.4883L99.9424 103H97.8438ZM104.625 103.137C103.477 103.137 102.59 102.799 101.966 102.125C101.341 101.446 101.029 100.493 101.029 99.2676C101.029 98.4473 101.175 97.7546 101.467 97.1895C101.763 96.6243 102.182 96.196 102.725 95.9043C103.267 95.6126 103.91 95.4668 104.652 95.4668C105.732 95.4668 106.571 95.8268 107.168 96.5469C107.765 97.2669 108.063 98.29 108.063 99.6162V99.6709H103.046C103.046 100.341 103.194 100.872 103.49 101.264C103.791 101.656 104.201 101.852 104.721 101.852C105.058 101.852 105.356 101.781 105.616 101.64C105.876 101.494 106.051 101.271 106.143 100.97L107.954 101.127C107.703 101.77 107.286 102.266 106.703 102.617C106.12 102.964 105.427 103.137 104.625 103.137ZM104.625 96.6768C104.156 96.6768 103.782 96.8363 103.504 97.1553C103.226 97.4697 103.078 97.9072 103.06 98.4678H106.204C106.172 97.9209 106.015 97.4857 105.732 97.1621C105.454 96.8385 105.085 96.6768 104.625 96.6768ZM110.976 105.905C110.493 105.905 110.078 105.876 109.731 105.816V104.449L110.08 104.483L110.429 104.504C110.702 104.504 110.928 104.461 111.105 104.374C111.288 104.287 111.45 104.144 111.591 103.943C111.737 103.743 111.898 103.403 112.076 102.925L109.014 95.6035H111.044L112.343 99.2061C112.525 99.7028 112.755 100.464 113.033 101.489L113.095 101.236L113.648 99.2334L114.879 95.6035H116.889L113.826 103.39C113.462 104.328 113.063 104.982 112.63 105.352C112.197 105.721 111.646 105.905 110.976 105.905ZM117.853 97.2441V95.7197H124.873V97.2441H117.853ZM117.853 101.011V99.5H124.873V101.011H117.853ZM129.651 97.1074L130.807 92.8555H133.028L130.902 97.1074H129.651ZM126.514 97.1074L127.669 92.8555H129.891L127.765 97.1074H126.514ZM141.655 99.8965C141.655 100.535 141.512 101.1 141.225 101.592C140.942 102.079 140.53 102.46 139.987 102.733C139.45 103.002 138.816 103.137 138.087 103.137C137.121 103.137 136.346 102.92 135.763 102.487C135.184 102.05 134.826 101.419 134.689 100.594L136.61 100.437C136.711 100.847 136.888 101.145 137.144 101.332C137.399 101.519 137.72 101.612 138.107 101.612C138.6 101.612 138.985 101.466 139.263 101.175C139.541 100.883 139.68 100.471 139.68 99.9375C139.68 99.4635 139.545 99.0853 139.276 98.8027C139.007 98.5156 138.632 98.3721 138.148 98.3721C137.615 98.3721 137.18 98.5794 136.843 98.9941H134.97L135.305 93.7783H141.095V95.207H137.048L136.891 97.4355C137.355 97.0254 137.937 96.8203 138.634 96.8203C139.55 96.8203 140.281 97.1029 140.828 97.668C141.38 98.2285 141.655 98.9714 141.655 99.8965ZM150.241 98.3174C150.241 99.8213 149.89 100.979 149.188 101.79C148.487 102.597 147.486 103 146.188 103H143.31V93.7783H145.777C147.272 93.7783 148.389 94.1543 149.127 94.9062C149.87 95.6536 150.241 96.7907 150.241 98.3174ZM148.211 98.3174C148.211 97.2829 148.015 96.5286 147.623 96.0547C147.236 95.5762 146.609 95.3369 145.743 95.3369H145.326V101.441H146.023C147.482 101.441 148.211 100.4 148.211 98.3174ZM158.239 95.6035C158.203 96.2233 158.185 96.7611 158.185 97.2168V105.905H156.264V103.048L156.277 101.831H156.264C156.077 102.246 155.794 102.567 155.416 102.795C155.042 103.023 154.603 103.137 154.097 103.137C153.249 103.137 152.597 102.802 152.142 102.132C151.686 101.462 151.458 100.514 151.458 99.2881C151.458 98.126 151.702 97.1986 152.189 96.5059C152.677 95.8086 153.333 95.46 154.158 95.46C155.106 95.46 155.803 95.9089 156.25 96.8066H156.277C156.277 96.6061 156.291 96.3714 156.318 96.1025C156.346 95.8291 156.366 95.6628 156.38 95.6035H158.239ZM156.291 99.3359C156.291 98.7891 156.229 98.3265 156.106 97.9482C155.988 97.57 155.817 97.2806 155.594 97.0801C155.375 96.875 155.122 96.7725 154.835 96.7725C154.397 96.7725 154.058 96.9821 153.816 97.4014C153.579 97.8206 153.461 98.4495 153.461 99.2881C153.461 100.122 153.577 100.756 153.81 101.188C154.047 101.617 154.393 101.831 154.849 101.831C155.295 101.831 155.646 101.612 155.901 101.175C156.161 100.737 156.291 100.124 156.291 99.3359ZM163.667 96.9023V103H161.753V96.9023H160.003V95.6035H161.753V95.0361C161.753 94.2432 162.001 93.6484 162.498 93.252C162.999 92.8509 163.713 92.6504 164.638 92.6504C165.362 92.6504 166.107 92.7142 166.873 92.8418V94.0996C166.189 94.013 165.556 93.9697 164.973 93.9697C164.526 93.9697 164.196 94.0632 163.981 94.25C163.772 94.4323 163.667 94.7536 163.667 95.2139V95.6035H166.695V96.9023H163.667ZM175.172 98.2354C175.172 99.8167 174.862 101.029 174.242 101.872C173.627 102.715 172.738 103.137 171.576 103.137C170.729 103.137 170.063 102.957 169.58 102.597C169.102 102.232 168.762 101.658 168.562 100.874L170.366 100.621C170.544 101.291 170.954 101.626 171.597 101.626C172.116 101.626 172.524 101.389 172.82 100.915C173.121 100.437 173.276 99.721 173.285 98.7686C173.112 99.1104 172.827 99.3792 172.431 99.5752C172.039 99.7666 171.615 99.8623 171.159 99.8623C170.325 99.8623 169.655 99.582 169.149 99.0215C168.644 98.4609 168.391 97.7067 168.391 96.7588C168.391 95.7881 168.687 95.0247 169.279 94.4688C169.872 93.9128 170.697 93.6348 171.754 93.6348C172.866 93.6348 173.714 94.013 174.297 94.7695C174.88 95.526 175.172 96.6813 175.172 98.2354ZM173.142 96.9912C173.142 96.4352 173.007 95.9886 172.738 95.6514C172.469 95.3096 172.125 95.1387 171.706 95.1387C171.291 95.1387 170.959 95.2868 170.708 95.583C170.462 95.8747 170.339 96.2712 170.339 96.7725C170.339 97.2646 170.462 97.6657 170.708 97.9756C170.959 98.2809 171.294 98.4336 171.713 98.4336C172.128 98.4336 172.469 98.3014 172.738 98.0371C173.007 97.7682 173.142 97.4196 173.142 96.9912ZM180.114 103.137C178.993 103.137 178.177 102.831 177.667 102.221C177.157 101.61 176.901 100.667 176.901 99.3906V93.7783H178.918V99.3701C178.918 100.168 179.009 100.733 179.191 101.065C179.378 101.394 179.704 101.558 180.169 101.558C180.643 101.558 180.987 101.382 181.201 101.031C181.415 100.68 181.522 100.104 181.522 99.3018V93.7783H183.539V99.2881C183.539 100.591 183.257 101.56 182.691 102.193C182.131 102.822 181.272 103.137 180.114 103.137ZM187.025 98.3447C187.025 99.3701 187.185 100.161 187.504 100.717C187.823 101.273 188.299 101.551 188.933 101.551C189.671 101.551 190.218 100.995 190.573 99.8828L192.439 100.238C191.833 102.171 190.658 103.137 188.912 103.137C187.632 103.137 186.654 102.731 185.979 101.92C185.31 101.104 184.975 99.9124 184.975 98.3447C184.975 95.2048 186.269 93.6348 188.857 93.6348C189.705 93.6348 190.414 93.8581 190.983 94.3047C191.558 94.7513 191.979 95.4144 192.248 96.2939L190.389 96.7451C190.257 96.262 190.058 95.8883 189.794 95.624C189.53 95.3551 189.227 95.2207 188.885 95.2207C187.645 95.2207 187.025 96.262 187.025 98.3447ZM198.072 103H196.028L192.856 93.7783H194.962L196.555 99.0762C196.678 99.4772 196.846 100.083 197.061 100.895L197.204 100.307L197.553 99.0762L199.139 93.7783H201.224L198.072 103ZM208.9 100.389C208.9 101.245 208.597 101.918 207.991 102.405C207.385 102.893 206.537 103.137 205.448 103.137C204.368 103.137 203.521 102.895 202.905 102.412C202.295 101.929 201.989 101.259 201.989 100.402C201.989 99.819 202.169 99.3245 202.529 98.9189C202.894 98.5133 203.368 98.2627 203.951 98.167V98.1396C203.436 98.0257 203.017 97.7796 202.693 97.4014C202.374 97.0231 202.215 96.5833 202.215 96.082C202.215 95.3346 202.497 94.7399 203.062 94.2979C203.632 93.8558 204.418 93.6348 205.421 93.6348C206.455 93.6348 207.253 93.849 207.813 94.2773C208.379 94.7057 208.661 95.3118 208.661 96.0957C208.661 96.5788 208.499 97.0117 208.176 97.3945C207.852 97.7773 207.431 98.0212 206.911 98.126V98.1533C207.526 98.2536 208.012 98.502 208.367 98.8984C208.723 99.2949 208.9 99.7917 208.9 100.389ZM206.686 96.1982C206.686 95.387 206.264 94.9814 205.421 94.9814C204.591 94.9814 204.177 95.387 204.177 96.1982C204.177 96.613 204.284 96.9297 204.498 97.1484C204.717 97.3672 205.029 97.4766 205.435 97.4766C206.269 97.4766 206.686 97.0505 206.686 96.1982ZM206.911 100.231C206.911 99.7712 206.784 99.4225 206.528 99.1855C206.278 98.944 205.904 98.8232 205.407 98.8232C204.947 98.8232 204.591 98.9508 204.341 99.2061C204.09 99.4567 203.965 99.8076 203.965 100.259C203.965 101.275 204.464 101.783 205.462 101.783C205.945 101.783 206.307 101.66 206.549 101.414C206.79 101.168 206.911 100.774 206.911 100.231ZM213.747 103.137C212.626 103.137 211.81 102.831 211.3 102.221C210.789 101.61 210.534 100.667 210.534 99.3906V93.7783H212.551V99.3701C212.551 100.168 212.642 100.733 212.824 101.065C213.011 101.394 213.337 101.558 213.802 101.558C214.276 101.558 214.62 101.382 214.834 101.031C215.048 100.68 215.155 100.104 215.155 99.3018V93.7783H217.172V99.2881C217.172 100.591 216.889 101.56 216.324 102.193C215.764 102.822 214.905 103.137 213.747 103.137ZM225.45 97.2031C224.94 97.1165 224.457 97.0732 224.001 97.0732C223.29 97.0732 222.725 97.3421 222.306 97.8799C221.891 98.4176 221.684 99.1263 221.684 100.006V103H219.77V98.208C219.77 97.8617 219.738 97.4538 219.674 96.9844C219.615 96.515 219.528 96.0547 219.414 95.6035H221.267C221.431 96.196 221.535 96.7155 221.581 97.1621H221.608C221.836 96.5423 222.144 96.1048 222.531 95.8496C222.919 95.5944 223.422 95.4668 224.042 95.4668C224.516 95.4668 224.985 95.5055 225.45 95.583V97.2031ZM232.102 103V98.7686C232.102 98.126 232.013 97.6543 231.835 97.3535C231.662 97.0527 231.361 96.9023 230.933 96.9023C230.459 96.9023 230.078 97.1051 229.791 97.5107C229.508 97.9118 229.367 98.4199 229.367 99.0352V103H227.446V97.2578C227.446 96.8613 227.439 96.5378 227.426 96.2871C227.417 96.0319 227.405 95.804 227.392 95.6035H229.224C229.237 95.6901 229.256 95.9225 229.278 96.3008C229.301 96.6745 229.312 96.932 229.312 97.0732H229.34C229.6 96.5081 229.925 96.098 230.317 95.8428C230.709 95.5876 231.176 95.46 231.719 95.46C233.25 95.46 234.016 96.4079 234.016 98.3037V103H232.102ZM237.693 95.6035C237.721 95.6992 237.743 95.8906 237.762 96.1777C237.785 96.4648 237.796 96.6745 237.796 96.8066H237.823C238.042 96.3737 238.334 96.041 238.698 95.8086C239.067 95.5762 239.496 95.46 239.983 95.46C240.804 95.46 241.446 95.804 241.911 96.4922C242.381 97.1803 242.615 98.1123 242.615 99.2881C242.615 100.496 242.378 101.439 241.904 102.118C241.435 102.797 240.77 103.137 239.908 103.137C239.421 103.137 238.997 103.027 238.637 102.809C238.277 102.585 238.001 102.259 237.81 101.831H237.796L237.81 103.048V105.905H235.889V97.2168C235.889 96.7611 235.87 96.2233 235.834 95.6035H237.693ZM237.782 99.3359C237.782 99.8783 237.841 100.334 237.96 100.703C238.078 101.068 238.245 101.348 238.459 101.544C238.678 101.735 238.933 101.831 239.225 101.831C239.685 101.831 240.031 101.615 240.264 101.182C240.496 100.749 240.612 100.118 240.612 99.2881C240.612 98.4495 240.492 97.8206 240.25 97.4014C240.013 96.9821 239.676 96.7725 239.238 96.7725C238.956 96.7725 238.703 96.875 238.479 97.0801C238.256 97.2806 238.083 97.57 237.96 97.9482C237.841 98.3265 237.782 98.7891 237.782 99.3359ZM249.403 103L247.421 99.4795H246.238V103H244.222V93.7783H247.599C248.802 93.7783 249.702 94.013 250.299 94.4824C250.896 94.9518 251.194 95.6286 251.194 96.5127C251.194 97.137 251.026 97.668 250.688 98.1055C250.351 98.543 249.884 98.8506 249.287 99.0283L251.673 103H249.403ZM249.164 96.5947C249.164 96.1663 249.023 95.8519 248.74 95.6514C248.458 95.4463 248.007 95.3438 247.387 95.3438H246.238V97.9141H247.441C248.59 97.9141 249.164 97.4743 249.164 96.5947ZM255.904 105.967C255.057 105.967 254.366 105.791 253.833 105.44C253.3 105.09 252.972 104.602 252.849 103.978L254.77 103.752C254.838 104.048 254.979 104.283 255.193 104.456C255.408 104.629 255.663 104.716 255.959 104.716C256.419 104.716 256.768 104.549 257.005 104.217C257.242 103.889 257.36 103.399 257.36 102.747V102.344L257.374 101.558H257.36C256.937 102.465 256.189 102.918 255.118 102.918C254.302 102.918 253.669 102.601 253.218 101.968C252.767 101.33 252.541 100.421 252.541 99.2402C252.541 98.0462 252.776 97.1234 253.245 96.4717C253.715 95.8154 254.387 95.4873 255.262 95.4873C255.74 95.4873 256.16 95.599 256.52 95.8223C256.88 96.041 257.16 96.3646 257.36 96.793H257.395C257.395 96.6335 257.404 96.417 257.422 96.1436C257.445 95.8701 257.467 95.6901 257.49 95.6035H259.309C259.281 96.0957 259.268 96.6654 259.268 97.3125V102.774C259.268 103.809 258.976 104.6 258.393 105.146C257.814 105.693 256.984 105.967 255.904 105.967ZM257.374 99.1992C257.374 98.4518 257.246 97.8662 256.991 97.4424C256.736 97.0186 256.387 96.8066 255.945 96.8066C255.49 96.8066 255.141 97.014 254.899 97.4287C254.662 97.8389 254.544 98.4427 254.544 99.2402C254.544 100.033 254.667 100.623 254.913 101.011C255.159 101.394 255.499 101.585 255.932 101.585C256.396 101.585 256.752 101.371 256.998 100.942C257.249 100.514 257.374 99.9329 257.374 99.1992ZM267.546 95.6035C267.509 96.2233 267.491 96.7611 267.491 97.2168V105.905H265.57V103.048L265.584 101.831H265.57C265.383 102.246 265.101 102.567 264.723 102.795C264.349 103.023 263.909 103.137 263.403 103.137C262.556 103.137 261.904 102.802 261.448 102.132C260.993 101.462 260.765 100.514 260.765 99.2881C260.765 98.126 261.008 97.1986 261.496 96.5059C261.984 95.8086 262.64 95.46 263.465 95.46C264.413 95.46 265.11 95.9089 265.557 96.8066H265.584C265.584 96.6061 265.598 96.3714 265.625 96.1025C265.652 95.8291 265.673 95.6628 265.687 95.6035H267.546ZM265.598 99.3359C265.598 98.7891 265.536 98.3265 265.413 97.9482C265.295 97.57 265.124 97.2806 264.9 97.0801C264.682 96.875 264.429 96.7725 264.142 96.7725C263.704 96.7725 263.365 96.9821 263.123 97.4014C262.886 97.8206 262.768 98.4495 262.768 99.2881C262.768 100.122 262.884 100.756 263.116 101.188C263.353 101.617 263.7 101.831 264.155 101.831C264.602 101.831 264.953 101.612 265.208 101.175C265.468 100.737 265.598 100.124 265.598 99.3359ZM272.365 103.137C271.472 103.137 270.757 102.888 270.219 102.392C269.681 101.895 269.344 101.182 269.207 100.252L271.196 99.958C271.287 100.496 271.436 100.897 271.641 101.161C271.846 101.425 272.092 101.558 272.379 101.558C272.712 101.558 272.976 101.423 273.172 101.154C273.368 100.885 273.466 100.5 273.466 99.999V95.3574H271.408V93.7783H275.476V99.9512C275.476 100.945 275.2 101.724 274.648 102.289C274.097 102.854 273.336 103.137 272.365 103.137ZM284.725 96.6904C284.725 97.3011 284.586 97.8389 284.308 98.3037C284.03 98.764 283.626 99.1195 283.098 99.3701C282.574 99.6208 281.945 99.7461 281.211 99.7461H279.864V103H277.848V93.7783H281.129C282.3 93.7783 283.191 94.0267 283.802 94.5234C284.417 95.0156 284.725 95.738 284.725 96.6904ZM282.694 96.7246C282.694 96.2279 282.544 95.8747 282.243 95.665C281.947 95.4508 281.5 95.3438 280.903 95.3438H279.864V98.1943H280.958C281.56 98.1943 281.999 98.0713 282.277 97.8252C282.555 97.5745 282.694 97.2077 282.694 96.7246ZM286.283 103C286.32 102.38 286.338 101.842 286.338 101.387V92.8555H288.259V95.5488L288.245 96.7656H288.259C288.446 96.3509 288.726 96.0296 289.1 95.8018C289.478 95.5739 289.92 95.46 290.426 95.46C291.273 95.46 291.925 95.7949 292.381 96.4648C292.837 97.1348 293.064 98.0827 293.064 99.3086C293.064 100.466 292.823 101.394 292.34 102.091C291.857 102.788 291.198 103.137 290.364 103.137C289.89 103.137 289.473 103.025 289.113 102.802C288.758 102.574 288.478 102.239 288.272 101.797H288.245C288.245 101.947 288.234 102.157 288.211 102.426C288.193 102.69 288.17 102.882 288.143 103H286.283ZM288.231 99.2607C288.231 99.8076 288.291 100.27 288.409 100.648C288.532 101.027 288.703 101.318 288.922 101.523C289.145 101.724 289.4 101.824 289.688 101.824C290.125 101.824 290.462 101.615 290.699 101.195C290.941 100.776 291.062 100.147 291.062 99.3086C291.062 98.4746 290.943 97.8434 290.706 97.415C290.474 96.9821 290.13 96.7656 289.674 96.7656C289.227 96.7656 288.874 96.9844 288.614 97.4219C288.359 97.8594 288.231 98.4723 288.231 99.2607ZM298.014 103.137C296.865 103.137 295.979 102.799 295.354 102.125C294.73 101.446 294.418 100.493 294.418 99.2676C294.418 98.4473 294.564 97.7546 294.855 97.1895C295.152 96.6243 295.571 96.196 296.113 95.9043C296.656 95.6126 297.298 95.4668 298.041 95.4668C299.121 95.4668 299.96 95.8268 300.557 96.5469C301.154 97.2669 301.452 98.29 301.452 99.6162V99.6709H296.435C296.435 100.341 296.583 100.872 296.879 101.264C297.18 101.656 297.59 101.852 298.109 101.852C298.447 101.852 298.745 101.781 299.005 101.64C299.265 101.494 299.44 101.271 299.531 100.97L301.343 101.127C301.092 101.77 300.675 102.266 300.092 102.617C299.508 102.964 298.816 103.137 298.014 103.137ZM298.014 96.6768C297.544 96.6768 297.171 96.8363 296.893 97.1553C296.615 97.4697 296.466 97.9072 296.448 98.4678H299.593C299.561 97.9209 299.404 97.4857 299.121 97.1621C298.843 96.8385 298.474 96.6768 298.014 96.6768ZM309.833 100.43C309.833 101.291 309.523 101.961 308.903 102.439C308.288 102.918 307.436 103.157 306.347 103.157C305.299 103.157 304.467 102.929 303.852 102.474C303.241 102.013 302.883 101.35 302.778 100.484L304.733 100.313C304.847 101.17 305.383 101.599 306.34 101.599C306.818 101.599 307.192 101.485 307.461 101.257C307.73 101.024 307.864 100.71 307.864 100.313C307.864 99.917 307.698 99.6139 307.365 99.4043C307.037 99.1947 306.565 99.0898 305.95 99.0898H305.28V97.5381H305.909C306.465 97.5381 306.891 97.4333 307.188 97.2236C307.488 97.0094 307.639 96.7132 307.639 96.335C307.639 95.9932 307.513 95.7129 307.263 95.4941C307.017 95.2754 306.686 95.166 306.271 95.166C305.88 95.166 305.556 95.2594 305.301 95.4463C305.046 95.6286 304.9 95.9202 304.863 96.3213L302.942 96.1846C303.043 95.3688 303.387 94.7399 303.975 94.2979C304.567 93.8558 305.344 93.6348 306.306 93.6348C306.98 93.6348 307.563 93.7373 308.056 93.9424C308.552 94.1475 308.931 94.4368 309.19 94.8105C309.455 95.1797 309.587 95.6081 309.587 96.0957C309.587 96.6562 309.409 97.1234 309.054 97.4971C308.698 97.8708 308.19 98.1214 307.529 98.249V98.2764C308.245 98.3584 308.808 98.5931 309.218 98.9805C309.628 99.3633 309.833 99.8464 309.833 100.43ZM317.578 103H315.91L314.933 99.7803C314.819 99.4157 314.757 99.1833 314.748 99.083C314.743 99.124 314.718 99.2311 314.673 99.4043C314.627 99.5729 314.249 100.771 313.538 103H311.877L310.626 95.6035H312.185L312.752 99.7529C312.839 100.446 312.882 100.961 312.882 101.298L313.019 100.792L314.092 97.415H315.411L316.368 100.525C316.437 100.753 316.503 101.011 316.566 101.298C316.566 101.015 316.589 100.689 316.635 100.32C316.68 99.9512 316.913 98.3789 317.332 95.6035H318.877L317.578 103ZM321.557 98.3447C321.557 99.3701 321.716 100.161 322.035 100.717C322.354 101.273 322.83 101.551 323.464 101.551C324.202 101.551 324.749 100.995 325.104 99.8828L326.971 100.238C326.365 102.171 325.189 103.137 323.443 103.137C322.163 103.137 321.185 102.731 320.511 101.92C319.841 101.104 319.506 99.9124 319.506 98.3447C319.506 95.2048 320.8 93.6348 323.389 93.6348C324.236 93.6348 324.945 93.8581 325.515 94.3047C326.089 94.7513 326.51 95.4144 326.779 96.2939L324.92 96.7451C324.788 96.262 324.59 95.8883 324.325 95.624C324.061 95.3551 323.758 95.2207 323.416 95.2207C322.176 95.2207 321.557 96.262 321.557 98.3447ZM334.395 103H332.727L331.749 99.7803C331.635 99.4157 331.574 99.1833 331.564 99.083C331.56 99.124 331.535 99.2311 331.489 99.4043C331.444 99.5729 331.065 100.771 330.354 103H328.693L327.442 95.6035H329.001L329.568 99.7529C329.655 100.446 329.698 100.961 329.698 101.298L329.835 100.792L330.908 97.415H332.228L333.185 100.525C333.253 100.753 333.319 101.011 333.383 101.298C333.383 101.015 333.406 100.689 333.451 100.32C333.497 99.9512 333.729 98.3789 334.148 95.6035H335.693L334.395 103ZM342.058 103L339.986 99.6299L337.908 103H335.775L338.913 98.1396L336.056 93.7783H338.188L339.986 96.7178L341.777 93.7783H343.896L340.971 98.1396L344.177 103H342.058ZM348.497 92.8555L347.342 97.1074H345.12L347.246 92.8555H348.497ZM351.635 92.8555L350.479 97.1074H348.258L350.384 92.8555H351.635ZM354.355 105.481L355.511 100.956H357.664L355.538 105.481H354.355ZM34.0371 124C34.0736 123.38 34.0918 122.842 34.0918 122.387V113.855H36.0127V116.549L35.999 117.766H36.0127C36.1995 117.351 36.4798 117.03 36.8535 116.802C37.2318 116.574 37.6738 116.46 38.1797 116.46C39.0273 116.46 39.679 116.795 40.1348 117.465C40.5905 118.135 40.8184 119.083 40.8184 120.309C40.8184 121.466 40.5768 122.394 40.0938 123.091C39.6107 123.788 38.9521 124.137 38.1182 124.137C37.6442 124.137 37.2272 124.025 36.8672 123.802C36.5117 123.574 36.2314 123.239 36.0264 122.797H35.999C35.999 122.947 35.9876 123.157 35.9648 123.426C35.9466 123.69 35.9238 123.882 35.8965 124H34.0371ZM35.9854 120.261C35.9854 120.808 36.0446 121.27 36.1631 121.648C36.2861 122.027 36.457 122.318 36.6758 122.523C36.8991 122.724 37.1543 122.824 37.4414 122.824C37.8789 122.824 38.2161 122.615 38.4531 122.195C38.6947 121.776 38.8154 121.147 38.8154 120.309C38.8154 119.475 38.6969 118.843 38.46 118.415C38.2275 117.982 37.8835 117.766 37.4277 117.766C36.9811 117.766 36.6279 117.984 36.3682 118.422C36.113 118.859 35.9854 119.472 35.9854 120.261ZM46.916 122.701H49.3291V124H42.2949V122.701H44.9951V115.154H43.0127V113.855H46.916V122.701ZM55.3242 122.701H57.7373V124H50.7031V122.701H53.4033V117.902H51.4209V116.604H55.3242V122.701ZM53.4033 115.271V113.855H55.3242V115.271H53.4033ZM63.9375 124V119.769C63.9375 119.126 63.8486 118.654 63.6709 118.354C63.4977 118.053 63.1969 117.902 62.7686 117.902C62.2946 117.902 61.9141 118.105 61.627 118.511C61.3444 118.912 61.2031 119.42 61.2031 120.035V124H59.2822V118.258C59.2822 117.861 59.2754 117.538 59.2617 117.287C59.2526 117.032 59.2412 116.804 59.2275 116.604H61.0596C61.0732 116.69 61.0915 116.923 61.1143 117.301C61.137 117.674 61.1484 117.932 61.1484 118.073H61.1758C61.4355 117.508 61.7614 117.098 62.1533 116.843C62.5452 116.588 63.0124 116.46 63.5547 116.46C65.0859 116.46 65.8516 117.408 65.8516 119.304V124H63.9375ZM72.2979 124C72.2796 123.932 72.2568 123.761 72.2295 123.487C72.2067 123.209 72.1953 122.979 72.1953 122.797H72.168C71.9264 123.285 71.6279 123.631 71.2725 123.836C70.917 124.036 70.4954 124.137 70.0078 124.137C69.1921 124.137 68.5495 123.795 68.0801 123.111C67.6107 122.428 67.376 121.496 67.376 120.315C67.376 119.108 67.6107 118.167 68.0801 117.492C68.554 116.818 69.2217 116.48 70.083 116.48C70.5706 116.48 70.9945 116.592 71.3545 116.815C71.7145 117.034 71.9902 117.358 72.1816 117.786H72.1953L72.1816 116.569V113.855H74.1025V122.387C74.1025 122.842 74.1208 123.38 74.1572 124H72.2979ZM72.209 120.268C72.209 119.479 72.0814 118.868 71.8262 118.436C71.571 118.003 71.2178 117.786 70.7666 117.786C70.3109 117.786 69.9645 118 69.7275 118.429C69.4951 118.853 69.3789 119.481 69.3789 120.315C69.3789 121.154 69.4974 121.783 69.7344 122.202C69.9759 122.617 70.3154 122.824 70.7529 122.824C71.0355 122.824 71.2884 122.724 71.5117 122.523C71.735 122.318 71.9059 122.027 72.0244 121.648C72.1475 121.27 72.209 120.81 72.209 120.268ZM80.5488 122.701H82.9619V124H75.9277V122.701H78.6279V117.902H76.6455V116.604H80.5488V122.701ZM78.6279 115.271V113.855H80.5488V115.271H78.6279ZM89.1621 124V119.769C89.1621 119.126 89.0732 118.654 88.8955 118.354C88.7223 118.053 88.4215 117.902 87.9932 117.902C87.5192 117.902 87.1387 118.105 86.8516 118.511C86.569 118.912 86.4277 119.42 86.4277 120.035V124H84.5068V118.258C84.5068 117.861 84.5 117.538 84.4863 117.287C84.4772 117.032 84.4658 116.804 84.4521 116.604H86.2842C86.2979 116.69 86.3161 116.923 86.3389 117.301C86.3617 117.674 86.373 117.932 86.373 118.073H86.4004C86.6602 117.508 86.986 117.098 87.3779 116.843C87.7699 116.588 88.237 116.46 88.7793 116.46C90.3105 116.46 91.0762 117.408 91.0762 119.304V124H89.1621ZM96.1484 126.967C95.3008 126.967 94.6104 126.791 94.0771 126.44C93.5439 126.09 93.2158 125.602 93.0928 124.978L95.0137 124.752C95.082 125.048 95.2233 125.283 95.4375 125.456C95.6517 125.629 95.9069 125.716 96.2031 125.716C96.6634 125.716 97.012 125.549 97.249 125.217C97.486 124.889 97.6045 124.399 97.6045 123.747V123.344L97.6182 122.558H97.6045C97.1807 123.465 96.4333 123.918 95.3623 123.918C94.5465 123.918 93.9131 123.601 93.4619 122.968C93.0107 122.33 92.7852 121.421 92.7852 120.24C92.7852 119.046 93.0199 118.123 93.4893 117.472C93.9587 116.815 94.6309 116.487 95.5059 116.487C95.9844 116.487 96.4036 116.599 96.7637 116.822C97.1237 117.041 97.404 117.365 97.6045 117.793H97.6387C97.6387 117.633 97.6478 117.417 97.666 117.144C97.6888 116.87 97.7116 116.69 97.7344 116.604H99.5527C99.5254 117.096 99.5117 117.665 99.5117 118.312V123.774C99.5117 124.809 99.2201 125.6 98.6367 126.146C98.0579 126.693 97.2285 126.967 96.1484 126.967ZM97.6182 120.199C97.6182 119.452 97.4906 118.866 97.2354 118.442C96.9801 118.019 96.6315 117.807 96.1895 117.807C95.7337 117.807 95.3851 118.014 95.1436 118.429C94.9066 118.839 94.7881 119.443 94.7881 120.24C94.7881 121.033 94.9111 121.623 95.1572 122.011C95.4033 122.394 95.7428 122.585 96.1758 122.585C96.6406 122.585 96.9961 122.371 97.2422 121.942C97.4928 121.514 97.6182 120.933 97.6182 120.199ZM101.036 118.244V116.72H108.057V118.244H101.036ZM101.036 122.011V120.5H108.057V122.011H101.036ZM112.835 118.107L113.99 113.855H116.212L114.086 118.107H112.835ZM109.697 118.107L110.853 113.855H113.074L110.948 118.107H109.697ZM123.861 122.038V124H122.029V122.038H117.647V120.596L121.715 114.778H123.861V120.609H125.146V122.038H123.861ZM122.029 117.8C122.029 117.554 122.036 117.287 122.05 117C122.068 116.713 122.082 116.528 122.091 116.446C121.972 116.701 121.758 117.071 121.448 117.554L119.261 120.609H122.029V117.8ZM133.192 120.951C133.192 121.94 132.903 122.719 132.324 123.289C131.745 123.854 130.955 124.137 129.952 124.137C128.836 124.137 127.967 123.72 127.348 122.886C126.732 122.047 126.425 120.887 126.425 119.406C126.425 117.793 126.732 116.594 127.348 115.811C127.967 115.027 128.852 114.635 130 114.635C130.816 114.635 131.458 114.815 131.928 115.175C132.402 115.535 132.737 116.093 132.933 116.85L131.121 117.103C130.948 116.469 130.561 116.152 129.959 116.152C129.439 116.152 129.034 116.401 128.742 116.897C128.451 117.39 128.305 118.112 128.305 119.064C128.51 118.723 128.795 118.461 129.159 118.278C129.524 118.096 129.936 118.005 130.396 118.005C131.24 118.005 131.916 118.271 132.427 118.805C132.937 119.333 133.192 120.049 133.192 120.951ZM131.265 121.006C131.265 120.509 131.137 120.122 130.882 119.844C130.631 119.561 130.285 119.42 129.843 119.42C129.433 119.42 129.095 119.548 128.831 119.803C128.571 120.053 128.441 120.386 128.441 120.801C128.441 121.316 128.576 121.751 128.845 122.106C129.114 122.462 129.462 122.64 129.891 122.64C130.314 122.64 130.649 122.494 130.896 122.202C131.142 121.91 131.265 121.512 131.265 121.006ZM134.997 124V122.571H137.656V116.48C137.479 116.854 137.123 117.169 136.59 117.424C136.061 117.679 135.505 117.807 134.922 117.807V116.344C135.555 116.344 136.123 116.205 136.624 115.927C137.125 115.649 137.504 115.266 137.759 114.778H139.577V122.571H141.785V124H134.997ZM150.009 120.951C150.009 121.94 149.719 122.719 149.141 123.289C148.562 123.854 147.771 124.137 146.769 124.137C145.652 124.137 144.784 123.72 144.164 122.886C143.549 122.047 143.241 120.887 143.241 119.406C143.241 117.793 143.549 116.594 144.164 115.811C144.784 115.027 145.668 114.635 146.816 114.635C147.632 114.635 148.275 114.815 148.744 115.175C149.218 115.535 149.553 116.093 149.749 116.85L147.938 117.103C147.764 116.469 147.377 116.152 146.775 116.152C146.256 116.152 145.85 116.401 145.559 116.897C145.267 117.39 145.121 118.112 145.121 119.064C145.326 118.723 145.611 118.461 145.976 118.278C146.34 118.096 146.753 118.005 147.213 118.005C148.056 118.005 148.733 118.271 149.243 118.805C149.754 119.333 150.009 120.049 150.009 120.951ZM148.081 121.006C148.081 120.509 147.953 120.122 147.698 119.844C147.448 119.561 147.101 119.42 146.659 119.42C146.249 119.42 145.912 119.548 145.647 119.803C145.388 120.053 145.258 120.386 145.258 120.801C145.258 121.316 145.392 121.751 145.661 122.106C145.93 122.462 146.279 122.64 146.707 122.64C147.131 122.64 147.466 122.494 147.712 122.202C147.958 121.91 148.081 121.512 148.081 121.006ZM158.451 121.389C158.451 122.245 158.148 122.918 157.542 123.405C156.936 123.893 156.088 124.137 154.999 124.137C153.919 124.137 153.071 123.895 152.456 123.412C151.845 122.929 151.54 122.259 151.54 121.402C151.54 120.819 151.72 120.325 152.08 119.919C152.445 119.513 152.919 119.263 153.502 119.167V119.14C152.987 119.026 152.568 118.78 152.244 118.401C151.925 118.023 151.766 117.583 151.766 117.082C151.766 116.335 152.048 115.74 152.613 115.298C153.183 114.856 153.969 114.635 154.972 114.635C156.006 114.635 156.804 114.849 157.364 115.277C157.929 115.706 158.212 116.312 158.212 117.096C158.212 117.579 158.05 118.012 157.727 118.395C157.403 118.777 156.981 119.021 156.462 119.126V119.153C157.077 119.254 157.562 119.502 157.918 119.898C158.273 120.295 158.451 120.792 158.451 121.389ZM156.236 117.198C156.236 116.387 155.815 115.981 154.972 115.981C154.142 115.981 153.728 116.387 153.728 117.198C153.728 117.613 153.835 117.93 154.049 118.148C154.268 118.367 154.58 118.477 154.985 118.477C155.819 118.477 156.236 118.05 156.236 117.198ZM156.462 121.231C156.462 120.771 156.334 120.423 156.079 120.186C155.828 119.944 155.455 119.823 154.958 119.823C154.498 119.823 154.142 119.951 153.892 120.206C153.641 120.457 153.516 120.808 153.516 121.259C153.516 122.275 154.015 122.783 155.013 122.783C155.496 122.783 155.858 122.66 156.1 122.414C156.341 122.168 156.462 121.774 156.462 121.231ZM166.668 116.303C165.506 117.889 164.688 119.276 164.214 120.466C163.74 121.655 163.503 122.833 163.503 124H161.5C161.5 122.815 161.771 121.601 162.313 120.356C162.86 119.108 163.717 117.775 164.884 116.357H160.099V114.778H166.668V116.303ZM175.288 120.896C175.288 121.535 175.145 122.1 174.857 122.592C174.575 123.079 174.162 123.46 173.62 123.733C173.082 124.002 172.449 124.137 171.72 124.137C170.754 124.137 169.979 123.92 169.396 123.487C168.817 123.05 168.459 122.419 168.322 121.594L170.243 121.437C170.343 121.847 170.521 122.145 170.776 122.332C171.032 122.519 171.353 122.612 171.74 122.612C172.232 122.612 172.618 122.466 172.896 122.175C173.174 121.883 173.312 121.471 173.312 120.938C173.312 120.464 173.178 120.085 172.909 119.803C172.64 119.516 172.264 119.372 171.781 119.372C171.248 119.372 170.813 119.579 170.476 119.994H168.603L168.938 114.778H174.728V116.207H170.681L170.523 118.436C170.988 118.025 171.569 117.82 172.267 117.82C173.183 117.82 173.914 118.103 174.461 118.668C175.012 119.229 175.288 119.971 175.288 120.896ZM182.719 122.038V124H180.887V122.038H176.505V120.596L180.572 114.778H182.719V120.609H184.004V122.038H182.719ZM180.887 117.8C180.887 117.554 180.894 117.287 180.907 117C180.925 116.713 180.939 116.528 180.948 116.446C180.83 116.701 180.616 117.071 180.306 117.554L178.118 120.609H180.887V117.8ZM191.127 122.038V124H189.295V122.038H184.913V120.596L188.98 114.778H191.127V120.609H192.412V122.038H191.127ZM189.295 117.8C189.295 117.554 189.302 117.287 189.315 117C189.334 116.713 189.347 116.528 189.356 116.446C189.238 116.701 189.024 117.071 188.714 117.554L186.526 120.609H189.295V117.8ZM199.535 122.038V124H197.703V122.038H193.321V120.596L197.389 114.778H199.535V120.609H200.82V122.038H199.535ZM197.703 117.8C197.703 117.554 197.71 117.287 197.724 117C197.742 116.713 197.756 116.528 197.765 116.446C197.646 116.701 197.432 117.071 197.122 117.554L194.935 120.609H197.703V117.8ZM208.866 120.951C208.866 121.94 208.577 122.719 207.998 123.289C207.419 123.854 206.629 124.137 205.626 124.137C204.509 124.137 203.641 123.72 203.021 122.886C202.406 122.047 202.099 120.887 202.099 119.406C202.099 117.793 202.406 116.594 203.021 115.811C203.641 115.027 204.525 114.635 205.674 114.635C206.49 114.635 207.132 114.815 207.602 115.175C208.076 115.535 208.41 116.093 208.606 116.85L206.795 117.103C206.622 116.469 206.234 116.152 205.633 116.152C205.113 116.152 204.708 116.401 204.416 116.897C204.124 117.39 203.979 118.112 203.979 119.064C204.184 118.723 204.468 118.461 204.833 118.278C205.198 118.096 205.61 118.005 206.07 118.005C206.913 118.005 207.59 118.271 208.101 118.805C208.611 119.333 208.866 120.049 208.866 120.951ZM206.938 121.006C206.938 120.509 206.811 120.122 206.556 119.844C206.305 119.561 205.959 119.42 205.517 119.42C205.106 119.42 204.769 119.548 204.505 119.803C204.245 120.053 204.115 120.386 204.115 120.801C204.115 121.316 204.25 121.751 204.519 122.106C204.787 122.462 205.136 122.64 205.564 122.64C205.988 122.64 206.323 122.494 206.569 122.202C206.815 121.91 206.938 121.512 206.938 121.006ZM217.274 120.951C217.274 121.94 216.985 122.719 216.406 123.289C215.827 123.854 215.037 124.137 214.034 124.137C212.918 124.137 212.049 123.72 211.43 122.886C210.814 122.047 210.507 120.887 210.507 119.406C210.507 117.793 210.814 116.594 211.43 115.811C212.049 115.027 212.934 114.635 214.082 114.635C214.898 114.635 215.54 114.815 216.01 115.175C216.484 115.535 216.819 116.093 217.015 116.85L215.203 117.103C215.03 116.469 214.643 116.152 214.041 116.152C213.521 116.152 213.116 116.401 212.824 116.897C212.533 117.39 212.387 118.112 212.387 119.064C212.592 118.723 212.877 118.461 213.241 118.278C213.606 118.096 214.018 118.005 214.479 118.005C215.322 118.005 215.998 118.271 216.509 118.805C217.019 119.333 217.274 120.049 217.274 120.951ZM215.347 121.006C215.347 120.509 215.219 120.122 214.964 119.844C214.713 119.561 214.367 119.42 213.925 119.42C213.515 119.42 213.177 119.548 212.913 119.803C212.653 120.053 212.523 120.386 212.523 120.801C212.523 121.316 212.658 121.751 212.927 122.106C213.196 122.462 213.544 122.64 213.973 122.64C214.396 122.64 214.731 122.494 214.978 122.202C215.224 121.91 215.347 121.512 215.347 121.006ZM222.142 118.107L223.297 113.855H225.519L223.393 118.107H222.142ZM219.004 118.107L220.159 113.855H222.381L220.255 118.107H219.004Z"
    fill="white"
  />
  <path
    d="M18.3623 155.905C19.0915 154.839 19.6156 153.798 19.9346 152.781C20.2581 151.76 20.4199 150.626 20.4199 149.377C20.4199 148.124 20.2559 146.982 19.9277 145.952C19.5996 144.918 19.0778 143.885 18.3623 142.855H20.2832C21.0033 143.89 21.5205 144.92 21.835 145.945C22.154 146.971 22.3135 148.112 22.3135 149.37C22.3135 150.637 22.154 151.783 21.835 152.809C21.5205 153.834 21.0033 154.866 20.2832 155.905H18.3623ZM33.7705 147.244V145.72H40.791V147.244H33.7705ZM33.7705 151.011V149.5H40.791V151.011H33.7705ZM42.1787 152.146V150.594L47.8662 148.379L42.1787 146.157V144.599L49.1992 147.271V149.473L42.1787 152.146ZM62.5703 153.137C61.4492 153.137 60.5833 152.804 59.9727 152.139C59.362 151.469 59.0566 150.537 59.0566 149.343C59.0566 148.121 59.3643 147.171 59.9795 146.492C60.5947 145.809 61.4674 145.467 62.5977 145.467C63.4681 145.467 64.1882 145.686 64.7578 146.123C65.3275 146.561 65.6852 147.164 65.8311 147.935L63.8965 148.03C63.8418 147.652 63.7051 147.351 63.4863 147.128C63.2676 146.9 62.9577 146.786 62.5566 146.786C61.5677 146.786 61.0732 147.613 61.0732 149.268C61.0732 150.972 61.5768 151.824 62.584 151.824C62.9486 151.824 63.2539 151.71 63.5 151.482C63.7461 151.25 63.8988 150.906 63.958 150.45L65.8857 150.539C65.8174 151.045 65.6351 151.496 65.3389 151.893C65.0472 152.289 64.6621 152.597 64.1836 152.815C63.7051 153.03 63.1673 153.137 62.5703 153.137ZM74.4854 149.295C74.4854 150.521 74.1755 151.469 73.5557 152.139C72.9359 152.804 72.0449 153.137 70.8828 153.137C69.7617 153.137 68.8913 152.804 68.2715 152.139C67.6517 151.469 67.3418 150.521 67.3418 149.295C67.3418 148.074 67.6494 147.13 68.2646 146.465C68.8799 145.799 69.7663 145.467 70.9238 145.467C73.2982 145.467 74.4854 146.743 74.4854 149.295ZM72.4756 149.295C72.4756 148.42 72.3594 147.784 72.127 147.388C71.8945 146.987 71.5026 146.786 70.9512 146.786C70.3861 146.786 69.9782 146.987 69.7275 147.388C69.4814 147.789 69.3584 148.424 69.3584 149.295C69.3584 150.174 69.4837 150.817 69.7344 151.223C69.9896 151.624 70.3656 151.824 70.8623 151.824C71.4274 151.824 71.8376 151.626 72.0928 151.229C72.348 150.828 72.4756 150.184 72.4756 149.295ZM78.5459 153V148.502C78.5459 147.823 78.5026 147.351 78.416 147.087C78.334 146.823 78.179 146.69 77.9512 146.69C77.7188 146.69 77.5342 146.905 77.3975 147.333C77.2653 147.761 77.1992 148.324 77.1992 149.021V153H75.6338V147.183C75.6338 146.321 75.6201 145.795 75.5928 145.604H77.0215L77.0625 146.472V146.8H77.0762C77.2311 146.335 77.4271 145.998 77.6641 145.788C77.901 145.574 78.1973 145.467 78.5527 145.467C78.9538 145.467 79.2523 145.576 79.4482 145.795C79.6488 146.014 79.7923 146.351 79.8789 146.807H79.8926C80.0749 146.324 80.2913 145.979 80.542 145.774C80.7972 145.569 81.1185 145.467 81.5059 145.467C82.0436 145.467 82.4287 145.663 82.6611 146.055C82.8936 146.447 83.0098 147.119 83.0098 148.071V153H81.4512V148.502C81.4512 147.823 81.4079 147.351 81.3213 147.087C81.2393 146.823 81.0843 146.69 80.8564 146.69C80.624 146.69 80.4395 146.875 80.3027 147.244C80.1706 147.609 80.1045 148.158 80.1045 148.892V153H78.5459ZM86.9541 153V148.502C86.9541 147.823 86.9108 147.351 86.8242 147.087C86.7422 146.823 86.5872 146.69 86.3594 146.69C86.127 146.69 85.9424 146.905 85.8057 147.333C85.6735 147.761 85.6074 148.324 85.6074 149.021V153H84.042V147.183C84.042 146.321 84.0283 145.795 84.001 145.604H85.4297L85.4707 146.472V146.8H85.4844C85.6393 146.335 85.8353 145.998 86.0723 145.788C86.3092 145.574 86.6055 145.467 86.9609 145.467C87.362 145.467 87.6605 145.576 87.8564 145.795C88.057 146.014 88.2005 146.351 88.2871 146.807H88.3008C88.4831 146.324 88.6995 145.979 88.9502 145.774C89.2054 145.569 89.5267 145.467 89.9141 145.467C90.4518 145.467 90.8369 145.663 91.0693 146.055C91.3018 146.447 91.418 147.119 91.418 148.071V153H89.8594V148.502C89.8594 147.823 89.8161 147.351 89.7295 147.087C89.6475 146.823 89.4925 146.69 89.2646 146.69C89.0322 146.69 88.8477 146.875 88.7109 147.244C88.5788 147.609 88.5127 148.158 88.5127 148.892V153H86.9541ZM97.3652 151.701H99.7783V153H92.7441V151.701H95.4443V146.902H93.4619V145.604H97.3652V151.701ZM95.4443 144.271V142.855H97.3652V144.271H95.4443ZM102.588 146.902H101.446V145.604H102.684L103.285 143.676H104.488V145.604H107.12V146.902H104.488V150.525C104.488 150.926 104.525 151.198 104.598 151.339C104.675 151.476 104.798 151.585 104.967 151.667C105.135 151.744 105.372 151.783 105.678 151.783C106.243 151.783 106.824 151.722 107.421 151.599V152.87C106.774 152.975 106.316 153.036 106.047 153.055C105.778 153.077 105.498 153.089 105.206 153.089C104.627 153.089 104.142 153.011 103.75 152.856C103.363 152.697 103.069 152.451 102.868 152.118C102.672 151.781 102.574 151.309 102.574 150.703L102.588 146.902ZM112.179 153V148.502C112.179 147.823 112.135 147.351 112.049 147.087C111.967 146.823 111.812 146.69 111.584 146.69C111.352 146.69 111.167 146.905 111.03 147.333C110.898 147.761 110.832 148.324 110.832 149.021V153H109.267V147.183C109.267 146.321 109.253 145.795 109.226 145.604H110.654L110.695 146.472V146.8H110.709C110.864 146.335 111.06 145.998 111.297 145.788C111.534 145.574 111.83 145.467 112.186 145.467C112.587 145.467 112.885 145.576 113.081 145.795C113.282 146.014 113.425 146.351 113.512 146.807H113.525C113.708 146.324 113.924 145.979 114.175 145.774C114.43 145.569 114.751 145.467 115.139 145.467C115.676 145.467 116.062 145.663 116.294 146.055C116.526 146.447 116.643 147.119 116.643 148.071V153H115.084V148.502C115.084 147.823 115.041 147.351 114.954 147.087C114.872 146.823 114.717 146.69 114.489 146.69C114.257 146.69 114.072 146.875 113.936 147.244C113.803 147.609 113.737 148.158 113.737 148.892V153H112.179ZM121.441 153.137C120.293 153.137 119.407 152.799 118.782 152.125C118.158 151.446 117.846 150.493 117.846 149.268C117.846 148.447 117.992 147.755 118.283 147.189C118.579 146.624 118.999 146.196 119.541 145.904C120.083 145.613 120.726 145.467 121.469 145.467C122.549 145.467 123.387 145.827 123.984 146.547C124.581 147.267 124.88 148.29 124.88 149.616V149.671H119.862C119.862 150.341 120.01 150.872 120.307 151.264C120.607 151.656 121.018 151.852 121.537 151.852C121.874 151.852 122.173 151.781 122.433 151.64C122.692 151.494 122.868 151.271 122.959 150.97L124.771 151.127C124.52 151.77 124.103 152.266 123.52 152.617C122.936 152.964 122.243 153.137 121.441 153.137ZM121.441 146.677C120.972 146.677 120.598 146.836 120.32 147.155C120.042 147.47 119.894 147.907 119.876 148.468H123.021C122.989 147.921 122.831 147.486 122.549 147.162C122.271 146.839 121.902 146.677 121.441 146.677ZM131.203 153V148.769C131.203 148.126 131.114 147.654 130.937 147.354C130.763 147.053 130.463 146.902 130.034 146.902C129.56 146.902 129.18 147.105 128.893 147.511C128.61 147.912 128.469 148.42 128.469 149.035V153H126.548V147.258C126.548 146.861 126.541 146.538 126.527 146.287C126.518 146.032 126.507 145.804 126.493 145.604H128.325C128.339 145.69 128.357 145.923 128.38 146.301C128.403 146.674 128.414 146.932 128.414 147.073H128.441C128.701 146.508 129.027 146.098 129.419 145.843C129.811 145.588 130.278 145.46 130.82 145.46C132.352 145.46 133.117 146.408 133.117 148.304V153H131.203ZM136.221 146.902H135.079V145.604H136.316L136.918 143.676H138.121V145.604H140.753V146.902H138.121V150.525C138.121 150.926 138.158 151.198 138.23 151.339C138.308 151.476 138.431 151.585 138.6 151.667C138.768 151.744 139.005 151.783 139.311 151.783C139.876 151.783 140.457 151.722 141.054 151.599V152.87C140.407 152.975 139.949 153.036 139.68 153.055C139.411 153.077 139.131 153.089 138.839 153.089C138.26 153.089 137.775 153.011 137.383 152.856C136.995 152.697 136.701 152.451 136.501 152.118C136.305 151.781 136.207 151.309 136.207 150.703L136.221 146.902Z"
    fill="white"
  />
  <path
    d="M160.878 149.5C160.878 151.694 159.11 153.459 156.946 153.459C154.782 153.459 153.014 151.694 153.014 149.5C153.014 147.306 154.782 145.541 156.946 145.541C159.11 145.541 160.878 147.306 160.878 149.5Z"
    fill="#181F2B"
    stroke="#FFC0C0"
    stroke-width="3.5"
  />
</svg>
