<svg
  width="403"
  height="198"
  viewBox="0 0 403 198"
  fill="none"
  xmlns="http://www.w3.org/2000/svg"
>
  <rect x="0.263672" width="402" height="198" rx="8" fill="#1F1D2B" />
  <path
    d="M19.0801 53.1035C19.1074 53.1992 19.1302 53.3906 19.1484 53.6777C19.1712 53.9648 19.1826 54.1745 19.1826 54.3066H19.21C19.4287 53.8737 19.7204 53.541 20.085 53.3086C20.4541 53.0762 20.8825 52.96 21.3701 52.96C22.1904 52.96 22.833 53.304 23.2979 53.9922C23.7673 54.6803 24.002 55.6123 24.002 56.7881C24.002 57.9958 23.765 58.9391 23.291 59.6182C22.8216 60.2972 22.1562 60.6367 21.2949 60.6367C20.8073 60.6367 20.3835 60.5273 20.0234 60.3086C19.6634 60.0853 19.3877 59.7594 19.1963 59.3311H19.1826L19.1963 60.5479V63.4053H17.2754V54.7168C17.2754 54.2611 17.2572 53.7233 17.2207 53.1035H19.0801ZM19.1689 56.8359C19.1689 57.3783 19.2282 57.834 19.3467 58.2031C19.4652 58.5677 19.6315 58.848 19.8457 59.0439C20.0645 59.2354 20.3197 59.3311 20.6113 59.3311C21.0716 59.3311 21.418 59.1146 21.6504 58.6816C21.8828 58.2487 21.999 57.6175 21.999 56.7881C21.999 55.9495 21.8783 55.3206 21.6367 54.9014C21.3997 54.4821 21.0625 54.2725 20.625 54.2725C20.3424 54.2725 20.0895 54.375 19.8662 54.5801C19.6429 54.7806 19.4697 55.07 19.3467 55.4482C19.2282 55.8265 19.1689 56.2891 19.1689 56.8359ZM32.4443 56.7949C32.4443 58.0208 32.1344 58.9688 31.5146 59.6387C30.8949 60.304 30.0039 60.6367 28.8418 60.6367C27.7207 60.6367 26.8503 60.304 26.2305 59.6387C25.6107 58.9688 25.3008 58.0208 25.3008 56.7949C25.3008 55.5736 25.6084 54.6302 26.2236 53.9648C26.8389 53.2995 27.7253 52.9668 28.8828 52.9668C31.2572 52.9668 32.4443 54.2428 32.4443 56.7949ZM30.4346 56.7949C30.4346 55.9199 30.3184 55.2842 30.0859 54.8877C29.8535 54.4867 29.4616 54.2861 28.9102 54.2861C28.3451 54.2861 27.9372 54.4867 27.6865 54.8877C27.4404 55.2887 27.3174 55.9245 27.3174 56.7949C27.3174 57.6745 27.4427 58.3171 27.6934 58.7227C27.9486 59.1237 28.3245 59.3242 28.8213 59.3242C29.3864 59.3242 29.7965 59.126 30.0518 58.7295C30.307 58.3285 30.4346 57.6836 30.4346 56.7949ZM40.627 58.3398C40.627 59.0553 40.333 59.6182 39.7451 60.0283C39.1618 60.4339 38.3529 60.6367 37.3184 60.6367C36.3021 60.6367 35.5228 60.4772 34.9805 60.1582C34.4427 59.8346 34.085 59.3333 33.9072 58.6543L35.5957 58.4014C35.6914 58.7523 35.8555 59.0007 36.0879 59.1465C36.3249 59.2923 36.735 59.3652 37.3184 59.3652C37.8561 59.3652 38.248 59.2969 38.4941 59.1602C38.7402 59.0234 38.8633 58.8092 38.8633 58.5176C38.8633 58.2806 38.763 58.0938 38.5625 57.957C38.3665 57.8158 38.0316 57.6973 37.5576 57.6016C36.473 57.3874 35.7415 57.1891 35.3633 57.0068C34.985 56.82 34.6956 56.5807 34.4951 56.2891C34.2992 55.9928 34.2012 55.6305 34.2012 55.2021C34.2012 54.4958 34.4723 53.9466 35.0146 53.5547C35.5615 53.1582 36.334 52.96 37.332 52.96C38.2116 52.96 38.918 53.1309 39.4512 53.4727C39.9889 53.8145 40.3239 54.3089 40.4561 54.9561L38.7539 55.1338C38.6992 54.833 38.5648 54.6097 38.3506 54.4639C38.1364 54.3135 37.7969 54.2383 37.332 54.2383C36.8763 54.2383 36.5345 54.2975 36.3066 54.416C36.0788 54.5299 35.9648 54.7236 35.9648 54.9971C35.9648 55.2113 36.0514 55.3822 36.2246 55.5098C36.4023 55.6328 36.6986 55.7354 37.1133 55.8174C37.6921 55.9359 38.2048 56.0589 38.6514 56.1865C39.1025 56.3096 39.4626 56.4577 39.7314 56.6309C40.0049 56.804 40.2214 57.0273 40.3809 57.3008C40.5449 57.5697 40.627 57.916 40.627 58.3398ZM45.7676 60.6367C44.6191 60.6367 43.7327 60.2995 43.1084 59.625C42.484 58.946 42.1719 57.9935 42.1719 56.7676C42.1719 55.9473 42.3177 55.2546 42.6094 54.6895C42.9056 54.1243 43.3249 53.696 43.8672 53.4043C44.4095 53.1126 45.0521 52.9668 45.7949 52.9668C46.875 52.9668 47.7135 53.3268 48.3105 54.0469C48.9076 54.7669 49.2061 55.79 49.2061 57.1162V57.1709H44.1885C44.1885 57.8408 44.3366 58.3717 44.6328 58.7637C44.9336 59.1556 45.3438 59.3516 45.8633 59.3516C46.2005 59.3516 46.499 59.2809 46.7588 59.1396C47.0186 58.9938 47.194 58.7705 47.2852 58.4697L49.0967 58.627C48.846 59.2695 48.429 59.7663 47.8457 60.1172C47.2624 60.4635 46.5697 60.6367 45.7676 60.6367ZM45.7676 54.1768C45.2982 54.1768 44.9245 54.3363 44.6465 54.6553C44.3685 54.9697 44.2204 55.4072 44.2021 55.9678H47.3467C47.3148 55.4209 47.1576 54.9857 46.875 54.6621C46.597 54.3385 46.2279 54.1768 45.7676 54.1768ZM55.3242 59.2012H57.7373V60.5H50.7031V59.2012H53.4033V54.4023H51.4209V53.1035H55.3242V59.2012ZM53.4033 51.7705V50.3555H55.3242V51.7705H53.4033ZM63.8896 60.5C63.8714 60.4316 63.8486 60.2607 63.8213 59.9873C63.7985 59.7093 63.7871 59.4792 63.7871 59.2969H63.7598C63.5182 59.7845 63.2197 60.1309 62.8643 60.3359C62.5088 60.5365 62.0872 60.6367 61.5996 60.6367C60.7839 60.6367 60.1413 60.2949 59.6719 59.6113C59.2025 58.9277 58.9678 57.9958 58.9678 56.8154C58.9678 55.6077 59.2025 54.6667 59.6719 53.9922C60.1458 53.3177 60.8135 52.9805 61.6748 52.9805C62.1624 52.9805 62.5863 53.0921 62.9463 53.3154C63.3063 53.5342 63.582 53.8577 63.7734 54.2861H63.7871L63.7734 53.0693V50.3555H65.6943V58.8867C65.6943 59.3424 65.7126 59.8802 65.749 60.5H63.8896ZM63.8008 56.7676C63.8008 55.9792 63.6732 55.3685 63.418 54.9355C63.1628 54.5026 62.8096 54.2861 62.3584 54.2861C61.9027 54.2861 61.5563 54.5003 61.3193 54.9287C61.0869 55.3525 60.9707 55.9814 60.9707 56.8154C60.9707 57.654 61.0892 58.2829 61.3262 58.7021C61.5677 59.1169 61.9072 59.3242 62.3447 59.3242C62.6273 59.3242 62.8802 59.224 63.1035 59.0234C63.3268 58.8184 63.4977 58.5267 63.6162 58.1484C63.7393 57.7702 63.8008 57.3099 63.8008 56.7676ZM74.4854 56.7949C74.4854 58.0208 74.1755 58.9688 73.5557 59.6387C72.9359 60.304 72.0449 60.6367 70.8828 60.6367C69.7617 60.6367 68.8913 60.304 68.2715 59.6387C67.6517 58.9688 67.3418 58.0208 67.3418 56.7949C67.3418 55.5736 67.6494 54.6302 68.2646 53.9648C68.8799 53.2995 69.7663 52.9668 70.9238 52.9668C73.2982 52.9668 74.4854 54.2428 74.4854 56.7949ZM72.4756 56.7949C72.4756 55.9199 72.3594 55.2842 72.127 54.8877C71.8945 54.4867 71.5026 54.2861 70.9512 54.2861C70.3861 54.2861 69.9782 54.4867 69.7275 54.8877C69.4814 55.2887 69.3584 55.9245 69.3584 56.7949C69.3584 57.6745 69.4837 58.3171 69.7344 58.7227C69.9896 59.1237 70.3656 59.3242 70.8623 59.3242C71.4274 59.3242 71.8376 59.126 72.0928 58.7295C72.348 58.3285 72.4756 57.6836 72.4756 56.7949ZM80.7539 60.5V56.2686C80.7539 55.626 80.665 55.1543 80.4873 54.8535C80.3141 54.5527 80.0133 54.4023 79.585 54.4023C79.111 54.4023 78.7305 54.6051 78.4434 55.0107C78.1608 55.4118 78.0195 55.9199 78.0195 56.5352V60.5H76.0986V54.7578C76.0986 54.3613 76.0918 54.0378 76.0781 53.7871C76.069 53.5319 76.0576 53.304 76.0439 53.1035H77.876C77.8896 53.1901 77.9079 53.4225 77.9307 53.8008C77.9535 54.1745 77.9648 54.432 77.9648 54.5732H77.9922C78.252 54.0081 78.5778 53.598 78.9697 53.3428C79.3617 53.0876 79.8288 52.96 80.3711 52.96C81.9023 52.96 82.668 53.9079 82.668 55.8037V60.5H80.7539ZM87.9111 63.4053C87.1956 62.3753 86.6784 61.3477 86.3594 60.3223C86.0404 59.2969 85.8809 58.1462 85.8809 56.8701C85.8809 55.5986 86.0404 54.4525 86.3594 53.4316C86.6784 52.4062 87.1956 51.3809 87.9111 50.3555H89.832C89.112 51.3945 88.5879 52.429 88.2598 53.459C87.9362 54.4889 87.7744 55.6283 87.7744 56.877C87.7744 58.1211 87.9362 59.2559 88.2598 60.2812C88.5833 61.3021 89.1074 62.3434 89.832 63.4053H87.9111Z"
    fill="white"
  />
  <path
    d="M37.3457 81.6367C36.2246 81.6367 35.3587 81.304 34.748 80.6387C34.1374 79.9688 33.832 79.0368 33.832 77.8428C33.832 76.6214 34.1396 75.6712 34.7549 74.9922C35.3701 74.3086 36.2428 73.9668 37.373 73.9668C38.2435 73.9668 38.9635 74.1855 39.5332 74.623C40.1029 75.0605 40.4606 75.6644 40.6064 76.4346L38.6719 76.5303C38.6172 76.152 38.4805 75.8512 38.2617 75.6279C38.043 75.4001 37.7331 75.2861 37.332 75.2861C36.3431 75.2861 35.8486 76.1133 35.8486 77.7676C35.8486 79.472 36.3522 80.3242 37.3594 80.3242C37.724 80.3242 38.0293 80.2103 38.2754 79.9824C38.5215 79.75 38.6742 79.4059 38.7334 78.9502L40.6611 79.0391C40.5928 79.5449 40.4105 79.9961 40.1143 80.3926C39.8226 80.7891 39.4375 81.0967 38.959 81.3154C38.4805 81.5296 37.9427 81.6367 37.3457 81.6367ZM49.2607 77.7949C49.2607 79.0208 48.9508 79.9688 48.3311 80.6387C47.7113 81.304 46.8203 81.6367 45.6582 81.6367C44.5371 81.6367 43.6667 81.304 43.0469 80.6387C42.4271 79.9688 42.1172 79.0208 42.1172 77.7949C42.1172 76.5736 42.4248 75.6302 43.04 74.9648C43.6553 74.2995 44.5417 73.9668 45.6992 73.9668C48.0736 73.9668 49.2607 75.2428 49.2607 77.7949ZM47.251 77.7949C47.251 76.9199 47.1348 76.2842 46.9023 75.8877C46.6699 75.4867 46.278 75.2861 45.7266 75.2861C45.1615 75.2861 44.7536 75.4867 44.5029 75.8877C44.2568 76.2887 44.1338 76.9245 44.1338 77.7949C44.1338 78.6745 44.2591 79.3171 44.5098 79.7227C44.765 80.1237 45.141 80.3242 45.6377 80.3242C46.2028 80.3242 46.613 80.126 46.8682 79.7295C47.1234 79.3285 47.251 78.6836 47.251 77.7949ZM53.3213 81.5V77.002C53.3213 76.3229 53.278 75.8512 53.1914 75.5869C53.1094 75.3226 52.9544 75.1904 52.7266 75.1904C52.4941 75.1904 52.3096 75.4046 52.1729 75.833C52.0407 76.2614 51.9746 76.8242 51.9746 77.5215V81.5H50.4092V75.6826C50.4092 74.8213 50.3955 74.2949 50.3682 74.1035H51.7969L51.8379 74.9717V75.2998H51.8516C52.0065 74.835 52.2025 74.4977 52.4395 74.2881C52.6764 74.0739 52.9727 73.9668 53.3281 73.9668C53.7292 73.9668 54.0277 74.0762 54.2236 74.2949C54.4242 74.5137 54.5677 74.8509 54.6543 75.3066H54.668C54.8503 74.8236 55.0667 74.4795 55.3174 74.2744C55.5726 74.0693 55.8939 73.9668 56.2812 73.9668C56.819 73.9668 57.2041 74.1628 57.4365 74.5547C57.6689 74.9466 57.7852 75.6188 57.7852 76.5713V81.5H56.2266V77.002C56.2266 76.3229 56.1833 75.8512 56.0967 75.5869C56.0146 75.3226 55.8597 75.1904 55.6318 75.1904C55.3994 75.1904 55.2148 75.375 55.0781 75.7441C54.946 76.1087 54.8799 76.6579 54.8799 77.3916V81.5H53.3213ZM61.7295 81.5V77.002C61.7295 76.3229 61.6862 75.8512 61.5996 75.5869C61.5176 75.3226 61.3626 75.1904 61.1348 75.1904C60.9023 75.1904 60.7178 75.4046 60.5811 75.833C60.4489 76.2614 60.3828 76.8242 60.3828 77.5215V81.5H58.8174V75.6826C58.8174 74.8213 58.8037 74.2949 58.7764 74.1035H60.2051L60.2461 74.9717V75.2998H60.2598C60.4147 74.835 60.6107 74.4977 60.8477 74.2881C61.0846 74.0739 61.3809 73.9668 61.7363 73.9668C62.1374 73.9668 62.4359 74.0762 62.6318 74.2949C62.8324 74.5137 62.9759 74.8509 63.0625 75.3066H63.0762C63.2585 74.8236 63.4749 74.4795 63.7256 74.2744C63.9808 74.0693 64.3021 73.9668 64.6895 73.9668C65.2272 73.9668 65.6123 74.1628 65.8447 74.5547C66.0771 74.9466 66.1934 75.6188 66.1934 76.5713V81.5H64.6348V77.002C64.6348 76.3229 64.5915 75.8512 64.5049 75.5869C64.4229 75.3226 64.2679 75.1904 64.04 75.1904C63.8076 75.1904 63.623 75.375 63.4863 75.7441C63.3542 76.1087 63.2881 76.6579 63.2881 77.3916V81.5H61.7295ZM72.1406 80.2012H74.5537V81.5H67.5195V80.2012H70.2197V75.4023H68.2373V74.1035H72.1406V80.2012ZM70.2197 72.7705V71.3555H72.1406V72.7705H70.2197ZM77.3633 75.4023H76.2217V74.1035H77.459L78.0605 72.1758H79.2637V74.1035H81.8955V75.4023H79.2637V79.0254C79.2637 79.4264 79.3001 79.6976 79.373 79.8389C79.4505 79.9756 79.5736 80.085 79.7422 80.167C79.9108 80.2445 80.1478 80.2832 80.4531 80.2832C81.0182 80.2832 81.5993 80.2217 82.1963 80.0986V81.3701C81.5492 81.4749 81.0911 81.5365 80.8223 81.5547C80.5534 81.5775 80.2731 81.5889 79.9814 81.5889C79.4027 81.5889 78.9173 81.5114 78.5254 81.3564C78.138 81.1969 77.8441 80.9508 77.6436 80.6182C77.4476 80.2809 77.3496 79.8092 77.3496 79.2031L77.3633 75.4023ZM86.9541 81.5V77.002C86.9541 76.3229 86.9108 75.8512 86.8242 75.5869C86.7422 75.3226 86.5872 75.1904 86.3594 75.1904C86.127 75.1904 85.9424 75.4046 85.8057 75.833C85.6735 76.2614 85.6074 76.8242 85.6074 77.5215V81.5H84.042V75.6826C84.042 74.8213 84.0283 74.2949 84.001 74.1035H85.4297L85.4707 74.9717V75.2998H85.4844C85.6393 74.835 85.8353 74.4977 86.0723 74.2881C86.3092 74.0739 86.6055 73.9668 86.9609 73.9668C87.362 73.9668 87.6605 74.0762 87.8564 74.2949C88.057 74.5137 88.2005 74.8509 88.2871 75.3066H88.3008C88.4831 74.8236 88.6995 74.4795 88.9502 74.2744C89.2054 74.0693 89.5267 73.9668 89.9141 73.9668C90.4518 73.9668 90.8369 74.1628 91.0693 74.5547C91.3018 74.9466 91.418 75.6188 91.418 76.5713V81.5H89.8594V77.002C89.8594 76.3229 89.8161 75.8512 89.7295 75.5869C89.6475 75.3226 89.4925 75.1904 89.2646 75.1904C89.0322 75.1904 88.8477 75.375 88.7109 75.7441C88.5788 76.1087 88.5127 76.6579 88.5127 77.3916V81.5H86.9541ZM96.2168 81.6367C95.0684 81.6367 94.182 81.2995 93.5576 80.625C92.9333 79.946 92.6211 78.9935 92.6211 77.7676C92.6211 76.9473 92.7669 76.2546 93.0586 75.6895C93.3548 75.1243 93.7741 74.696 94.3164 74.4043C94.8587 74.1126 95.5013 73.9668 96.2441 73.9668C97.3242 73.9668 98.1628 74.3268 98.7598 75.0469C99.3568 75.7669 99.6553 76.79 99.6553 78.1162V78.1709H94.6377C94.6377 78.8408 94.7858 79.3717 95.082 79.7637C95.3828 80.1556 95.793 80.3516 96.3125 80.3516C96.6497 80.3516 96.9482 80.2809 97.208 80.1396C97.4678 79.9938 97.6432 79.7705 97.7344 79.4697L99.5459 79.627C99.2952 80.2695 98.8783 80.7663 98.2949 81.1172C97.7116 81.4635 97.0189 81.6367 96.2168 81.6367ZM96.2168 75.1768C95.7474 75.1768 95.3737 75.3363 95.0957 75.6553C94.8177 75.9697 94.6696 76.4072 94.6514 76.9678H97.7959C97.764 76.4209 97.6068 75.9857 97.3242 75.6621C97.0462 75.3385 96.6771 75.1768 96.2168 75.1768ZM105.979 81.5V77.2686C105.979 76.626 105.89 76.1543 105.712 75.8535C105.539 75.5527 105.238 75.4023 104.81 75.4023C104.336 75.4023 103.955 75.6051 103.668 76.0107C103.385 76.4118 103.244 76.9199 103.244 77.5352V81.5H101.323V75.7578C101.323 75.3613 101.316 75.0378 101.303 74.7871C101.294 74.5319 101.282 74.304 101.269 74.1035H103.101C103.114 74.1901 103.132 74.4225 103.155 74.8008C103.178 75.1745 103.189 75.432 103.189 75.5732H103.217C103.477 75.0081 103.802 74.598 104.194 74.3428C104.586 74.0876 105.053 73.96 105.596 73.96C107.127 73.96 107.893 74.9079 107.893 76.8037V81.5H105.979ZM110.996 75.4023H109.854V74.1035H111.092L111.693 72.1758H112.896V74.1035H115.528V75.4023H112.896V79.0254C112.896 79.4264 112.933 79.6976 113.006 79.8389C113.083 79.9756 113.206 80.085 113.375 80.167C113.544 80.2445 113.781 80.2832 114.086 80.2832C114.651 80.2832 115.232 80.2217 115.829 80.0986V81.3701C115.182 81.4749 114.724 81.5365 114.455 81.5547C114.186 81.5775 113.906 81.5889 113.614 81.5889C113.035 81.5889 112.55 81.5114 112.158 81.3564C111.771 81.1969 111.477 80.9508 111.276 80.6182C111.08 80.2809 110.982 79.8092 110.982 79.2031L110.996 75.4023Z"
    fill="white"
  />
  <path
    d="M134.878 78C134.878 80.194 133.11 81.9586 130.946 81.9586C128.782 81.9586 127.014 80.194 127.014 78C127.014 75.806 128.782 74.0414 130.946 74.0414C133.11 74.0414 134.878 75.806 134.878 78Z"
    fill="#181F2B"
    stroke="#FFC0C0"
    stroke-width="3.5"
  />
  <path
    d="M146.392 83.9814L147.547 79.4561H149.7L147.574 83.9814H146.392Z"
    fill="white"
  />
  <path
    d="M35.8965 95.1035C35.9238 95.1992 35.9466 95.3906 35.9648 95.6777C35.9876 95.9648 35.999 96.1745 35.999 96.3066H36.0264C36.2451 95.8737 36.5368 95.541 36.9014 95.3086C37.2705 95.0762 37.6989 94.96 38.1865 94.96C39.0068 94.96 39.6494 95.304 40.1143 95.9922C40.5837 96.6803 40.8184 97.6123 40.8184 98.7881C40.8184 99.9958 40.5814 100.939 40.1074 101.618C39.638 102.297 38.9727 102.637 38.1113 102.637C37.6237 102.637 37.1999 102.527 36.8398 102.309C36.4798 102.085 36.2041 101.759 36.0127 101.331H35.999L36.0127 102.548V105.405H34.0918V96.7168C34.0918 96.2611 34.0736 95.7233 34.0371 95.1035H35.8965ZM35.9854 98.8359C35.9854 99.3783 36.0446 99.834 36.1631 100.203C36.2816 100.568 36.4479 100.848 36.6621 101.044C36.8809 101.235 37.1361 101.331 37.4277 101.331C37.888 101.331 38.2344 101.115 38.4668 100.682C38.6992 100.249 38.8154 99.6175 38.8154 98.7881C38.8154 97.9495 38.6947 97.3206 38.4531 96.9014C38.2161 96.4821 37.8789 96.2725 37.4414 96.2725C37.1589 96.2725 36.9059 96.375 36.6826 96.5801C36.4593 96.7806 36.2861 97.07 36.1631 97.4482C36.0446 97.8265 35.9854 98.2891 35.9854 98.8359ZM44.4893 102.637C43.7738 102.637 43.2155 102.443 42.8145 102.056C42.4134 101.664 42.2129 101.115 42.2129 100.408C42.2129 99.6426 42.4499 99.0615 42.9238 98.665C43.4023 98.264 44.1156 98.0566 45.0635 98.043L46.5879 98.0156V97.6396C46.5879 97.1702 46.5081 96.8148 46.3486 96.5732C46.1891 96.3317 45.9316 96.2109 45.5762 96.2109C45.2435 96.2109 44.9974 96.2952 44.8379 96.4639C44.6829 96.6279 44.5872 96.8923 44.5508 97.2568L42.5479 97.1611C42.7939 95.6982 43.8307 94.9668 45.6582 94.9668C46.5788 94.9668 47.2829 95.1924 47.7705 95.6436C48.2627 96.0947 48.5088 96.7578 48.5088 97.6328V100.312C48.5088 100.727 48.5544 101.014 48.6455 101.174C48.7412 101.329 48.8984 101.406 49.1172 101.406C49.263 101.406 49.4043 101.393 49.541 101.365V102.404C49.4271 102.432 49.3245 102.457 49.2334 102.479C49.1423 102.502 49.0511 102.521 48.96 102.534C48.8688 102.548 48.7708 102.559 48.666 102.568C48.5658 102.577 48.4473 102.582 48.3105 102.582C47.8275 102.582 47.4697 102.464 47.2373 102.227C47.0094 101.99 46.8727 101.641 46.8271 101.181H46.7861C46.499 101.696 46.1709 102.067 45.8018 102.295C45.4372 102.523 44.9997 102.637 44.4893 102.637ZM46.5879 99.0752L45.6719 99.0889C45.2617 99.098 44.9632 99.1413 44.7764 99.2188C44.5941 99.2917 44.4551 99.4124 44.3594 99.5811C44.2637 99.7451 44.2158 99.9707 44.2158 100.258C44.2158 100.951 44.4893 101.297 45.0361 101.297C45.4782 101.297 45.8473 101.124 46.1436 100.777C46.4398 100.426 46.5879 99.9844 46.5879 99.4512V99.0752ZM52.1387 96.4023H50.9971V95.1035H52.2344L52.8359 93.1758H54.0391V95.1035H56.6709V96.4023H54.0391V100.025C54.0391 100.426 54.0755 100.698 54.1484 100.839C54.2259 100.976 54.349 101.085 54.5176 101.167C54.6862 101.244 54.9232 101.283 55.2285 101.283C55.7936 101.283 56.3747 101.222 56.9717 101.099V102.37C56.3245 102.475 55.8665 102.536 55.5977 102.555C55.3288 102.577 55.0485 102.589 54.7568 102.589C54.1781 102.589 53.6927 102.511 53.3008 102.356C52.9134 102.197 52.6195 101.951 52.4189 101.618C52.223 101.281 52.125 100.809 52.125 100.203L52.1387 96.4023ZM61.1758 96.5801C61.4355 96.015 61.7614 95.6048 62.1533 95.3496C62.5452 95.0944 63.0124 94.9668 63.5547 94.9668C64.3203 94.9668 64.8945 95.1992 65.2773 95.6641C65.6602 96.1289 65.8516 96.8444 65.8516 97.8105V102.5H63.9375V98.2549C63.9375 97.5667 63.8441 97.0882 63.6572 96.8193C63.4749 96.5459 63.1742 96.4092 62.7549 96.4092C62.29 96.4092 61.9141 96.6097 61.627 97.0107C61.3444 97.4072 61.2031 97.9176 61.2031 98.542V102.5H59.2822V92.3555H61.2031V95.124C61.2031 95.6208 61.1849 96.1061 61.1484 96.5801H61.1758ZM66.6787 104.004V103.348H75.1416V104.004H66.6787ZM80.5488 101.201H82.9619V102.5H75.9277V101.201H78.6279V96.4023H76.6455V95.1035H80.5488V101.201ZM78.6279 93.7705V92.3555H80.5488V93.7705H78.6279ZM89.1621 102.5V98.2686C89.1621 97.626 89.0732 97.1543 88.8955 96.8535C88.7223 96.5527 88.4215 96.4023 87.9932 96.4023C87.5192 96.4023 87.1387 96.6051 86.8516 97.0107C86.569 97.4118 86.4277 97.9199 86.4277 98.5352V102.5H84.5068V96.7578C84.5068 96.3613 84.5 96.0378 84.4863 95.7871C84.4772 95.5319 84.4658 95.304 84.4521 95.1035H86.2842C86.2979 95.1901 86.3161 95.4225 86.3389 95.8008C86.3617 96.1745 86.373 96.432 86.373 96.5732H86.4004C86.6602 96.0081 86.986 95.598 87.3779 95.3428C87.7699 95.0876 88.237 94.96 88.7793 94.96C90.3105 94.96 91.0762 95.9079 91.0762 97.8037V102.5H89.1621ZM97.5225 102.5C97.5042 102.432 97.4814 102.261 97.4541 101.987C97.4313 101.709 97.4199 101.479 97.4199 101.297H97.3926C97.151 101.785 96.8525 102.131 96.4971 102.336C96.1416 102.536 95.7201 102.637 95.2324 102.637C94.4167 102.637 93.7741 102.295 93.3047 101.611C92.8353 100.928 92.6006 99.9958 92.6006 98.8154C92.6006 97.6077 92.8353 96.6667 93.3047 95.9922C93.7786 95.3177 94.4463 94.9805 95.3076 94.9805C95.7952 94.9805 96.2191 95.0921 96.5791 95.3154C96.9391 95.5342 97.2148 95.8577 97.4062 96.2861H97.4199L97.4062 95.0693V92.3555H99.3271V100.887C99.3271 101.342 99.3454 101.88 99.3818 102.5H97.5225ZM97.4336 98.7676C97.4336 97.9792 97.306 97.3685 97.0508 96.9355C96.7956 96.5026 96.4424 96.2861 95.9912 96.2861C95.5355 96.2861 95.1891 96.5003 94.9521 96.9287C94.7197 97.3525 94.6035 97.9814 94.6035 98.8154C94.6035 99.654 94.722 100.283 94.959 100.702C95.2005 101.117 95.54 101.324 95.9775 101.324C96.2601 101.324 96.513 101.224 96.7363 101.023C96.9596 100.818 97.1305 100.527 97.249 100.148C97.3721 99.7702 97.4336 99.3099 97.4336 98.7676ZM104.625 102.637C103.477 102.637 102.59 102.299 101.966 101.625C101.341 100.946 101.029 99.9935 101.029 98.7676C101.029 97.9473 101.175 97.2546 101.467 96.6895C101.763 96.1243 102.182 95.696 102.725 95.4043C103.267 95.1126 103.91 94.9668 104.652 94.9668C105.732 94.9668 106.571 95.3268 107.168 96.0469C107.765 96.7669 108.063 97.79 108.063 99.1162V99.1709H103.046C103.046 99.8408 103.194 100.372 103.49 100.764C103.791 101.156 104.201 101.352 104.721 101.352C105.058 101.352 105.356 101.281 105.616 101.14C105.876 100.994 106.051 100.771 106.143 100.47L107.954 100.627C107.703 101.27 107.286 101.766 106.703 102.117C106.12 102.464 105.427 102.637 104.625 102.637ZM104.625 96.1768C104.156 96.1768 103.782 96.3363 103.504 96.6553C103.226 96.9697 103.078 97.4072 103.06 97.9678H106.204C106.172 97.4209 106.015 96.9857 105.732 96.6621C105.454 96.3385 105.085 96.1768 104.625 96.1768ZM114.729 102.5L112.938 99.8203L111.133 102.5H109.089L111.864 98.6787L109.219 95.1035H111.29L112.938 97.5234L114.578 95.1035H116.663L114.018 98.6582L116.813 102.5H114.729ZM118.926 104.981L120.081 100.456H122.234L120.108 104.981H118.926Z"
    fill="white"
  />
  <path
    d="M40.627 121.34C40.627 122.055 40.333 122.618 39.7451 123.028C39.1618 123.434 38.3529 123.637 37.3184 123.637C36.3021 123.637 35.5228 123.477 34.9805 123.158C34.4427 122.835 34.085 122.333 33.9072 121.654L35.5957 121.401C35.6914 121.752 35.8555 122.001 36.0879 122.146C36.3249 122.292 36.735 122.365 37.3184 122.365C37.8561 122.365 38.248 122.297 38.4941 122.16C38.7402 122.023 38.8633 121.809 38.8633 121.518C38.8633 121.281 38.763 121.094 38.5625 120.957C38.3665 120.816 38.0316 120.697 37.5576 120.602C36.473 120.387 35.7415 120.189 35.3633 120.007C34.985 119.82 34.6956 119.581 34.4951 119.289C34.2992 118.993 34.2012 118.631 34.2012 118.202C34.2012 117.496 34.4723 116.947 35.0146 116.555C35.5615 116.158 36.334 115.96 37.332 115.96C38.2116 115.96 38.918 116.131 39.4512 116.473C39.9889 116.814 40.3239 117.309 40.4561 117.956L38.7539 118.134C38.6992 117.833 38.5648 117.61 38.3506 117.464C38.1364 117.313 37.7969 117.238 37.332 117.238C36.8763 117.238 36.5345 117.298 36.3066 117.416C36.0788 117.53 35.9648 117.724 35.9648 117.997C35.9648 118.211 36.0514 118.382 36.2246 118.51C36.4023 118.633 36.6986 118.735 37.1133 118.817C37.6921 118.936 38.2048 119.059 38.6514 119.187C39.1025 119.31 39.4626 119.458 39.7314 119.631C40.0049 119.804 40.2214 120.027 40.3809 120.301C40.5449 120.57 40.627 120.916 40.627 121.34ZM46.916 122.201H49.3291V123.5H42.2949V122.201H44.9951V117.402H43.0127V116.104H46.916V122.201ZM44.9951 114.771V113.355H46.916V114.771H44.9951ZM54.1074 126.467C53.2598 126.467 52.5693 126.291 52.0361 125.94C51.5029 125.59 51.1748 125.102 51.0518 124.478L52.9727 124.252C53.041 124.548 53.1823 124.783 53.3965 124.956C53.6107 125.129 53.8659 125.216 54.1621 125.216C54.6224 125.216 54.971 125.049 55.208 124.717C55.445 124.389 55.5635 123.899 55.5635 123.247V122.844L55.5771 122.058H55.5635C55.1396 122.965 54.3923 123.418 53.3213 123.418C52.5055 123.418 51.8721 123.101 51.4209 122.468C50.9697 121.83 50.7441 120.921 50.7441 119.74C50.7441 118.546 50.9788 117.623 51.4482 116.972C51.9176 116.315 52.5898 115.987 53.4648 115.987C53.9434 115.987 54.3626 116.099 54.7227 116.322C55.0827 116.541 55.363 116.865 55.5635 117.293H55.5977C55.5977 117.133 55.6068 116.917 55.625 116.644C55.6478 116.37 55.6706 116.19 55.6934 116.104H57.5117C57.4844 116.596 57.4707 117.165 57.4707 117.812V123.274C57.4707 124.309 57.179 125.1 56.5957 125.646C56.0169 126.193 55.1875 126.467 54.1074 126.467ZM55.5771 119.699C55.5771 118.952 55.4495 118.366 55.1943 117.942C54.9391 117.519 54.5905 117.307 54.1484 117.307C53.6927 117.307 53.3441 117.514 53.1025 117.929C52.8656 118.339 52.7471 118.943 52.7471 119.74C52.7471 120.533 52.8701 121.123 53.1162 121.511C53.3623 121.894 53.7018 122.085 54.1348 122.085C54.5996 122.085 54.9551 121.871 55.2012 121.442C55.4518 121.014 55.5771 120.433 55.5771 119.699ZM63.9375 123.5V119.269C63.9375 118.626 63.8486 118.154 63.6709 117.854C63.4977 117.553 63.1969 117.402 62.7686 117.402C62.2946 117.402 61.9141 117.605 61.627 118.011C61.3444 118.412 61.2031 118.92 61.2031 119.535V123.5H59.2822V117.758C59.2822 117.361 59.2754 117.038 59.2617 116.787C59.2526 116.532 59.2412 116.304 59.2275 116.104H61.0596C61.0732 116.19 61.0915 116.423 61.1143 116.801C61.137 117.174 61.1484 117.432 61.1484 117.573H61.1758C61.4355 117.008 61.7614 116.598 62.1533 116.343C62.5452 116.088 63.0124 115.96 63.5547 115.96C65.0859 115.96 65.8516 116.908 65.8516 118.804V123.5H63.9375ZM69.7139 123.637C68.9984 123.637 68.4401 123.443 68.0391 123.056C67.638 122.664 67.4375 122.115 67.4375 121.408C67.4375 120.643 67.6745 120.062 68.1484 119.665C68.627 119.264 69.3402 119.057 70.2881 119.043L71.8125 119.016V118.64C71.8125 118.17 71.7327 117.815 71.5732 117.573C71.4137 117.332 71.1562 117.211 70.8008 117.211C70.4681 117.211 70.222 117.295 70.0625 117.464C69.9076 117.628 69.8118 117.892 69.7754 118.257L67.7725 118.161C68.0186 116.698 69.0553 115.967 70.8828 115.967C71.8034 115.967 72.5075 116.192 72.9951 116.644C73.4873 117.095 73.7334 117.758 73.7334 118.633V121.312C73.7334 121.727 73.779 122.014 73.8701 122.174C73.9658 122.329 74.123 122.406 74.3418 122.406C74.4876 122.406 74.6289 122.393 74.7656 122.365V123.404C74.6517 123.432 74.5492 123.457 74.458 123.479C74.3669 123.502 74.2757 123.521 74.1846 123.534C74.0934 123.548 73.9954 123.559 73.8906 123.568C73.7904 123.577 73.6719 123.582 73.5352 123.582C73.0521 123.582 72.6943 123.464 72.4619 123.227C72.234 122.99 72.0973 122.641 72.0518 122.181H72.0107C71.7236 122.696 71.3955 123.067 71.0264 123.295C70.6618 123.523 70.2243 123.637 69.7139 123.637ZM71.8125 120.075L70.8965 120.089C70.4863 120.098 70.1878 120.141 70.001 120.219C69.8187 120.292 69.6797 120.412 69.584 120.581C69.4883 120.745 69.4404 120.971 69.4404 121.258C69.4404 121.951 69.7139 122.297 70.2607 122.297C70.7028 122.297 71.0719 122.124 71.3682 121.777C71.6644 121.426 71.8125 120.984 71.8125 120.451V120.075ZM77.3633 117.402H76.2217V116.104H77.459L78.0605 114.176H79.2637V116.104H81.8955V117.402H79.2637V121.025C79.2637 121.426 79.3001 121.698 79.373 121.839C79.4505 121.976 79.5736 122.085 79.7422 122.167C79.9108 122.244 80.1478 122.283 80.4531 122.283C81.0182 122.283 81.5993 122.222 82.1963 122.099V123.37C81.5492 123.475 81.0911 123.536 80.8223 123.555C80.5534 123.577 80.2731 123.589 79.9814 123.589C79.4027 123.589 78.9173 123.511 78.5254 123.356C78.138 123.197 77.8441 122.951 77.6436 122.618C77.4476 122.281 77.3496 121.809 77.3496 121.203L77.3633 117.402ZM86.373 116.104V120.253C86.373 120.882 86.4733 121.365 86.6738 121.702C86.8789 122.035 87.1706 122.201 87.5488 122.201C87.959 122.201 88.2962 122.001 88.5605 121.6C88.8294 121.194 88.9639 120.684 88.9639 120.068V116.104H90.8848V121.846C90.8848 122.475 90.903 123.026 90.9395 123.5H89.1074C89.0527 122.844 89.0254 122.354 89.0254 122.03H88.9912C88.5036 123.101 87.7562 123.637 86.749 123.637C86.0016 123.637 85.432 123.4 85.04 122.926C84.6481 122.447 84.4521 121.739 84.4521 120.8V116.104H86.373ZM99.3271 117.703C98.8167 117.617 98.3337 117.573 97.8779 117.573C97.167 117.573 96.6019 117.842 96.1826 118.38C95.7679 118.918 95.5605 119.626 95.5605 120.506V123.5H93.6465V118.708C93.6465 118.362 93.6146 117.954 93.5508 117.484C93.4915 117.015 93.4049 116.555 93.291 116.104H95.1436C95.3076 116.696 95.4124 117.215 95.458 117.662H95.4854C95.7132 117.042 96.0208 116.605 96.4082 116.35C96.7956 116.094 97.2992 115.967 97.9189 115.967C98.3929 115.967 98.8623 116.006 99.3271 116.083V117.703ZM104.625 123.637C103.477 123.637 102.59 123.299 101.966 122.625C101.341 121.946 101.029 120.993 101.029 119.768C101.029 118.947 101.175 118.255 101.467 117.689C101.763 117.124 102.182 116.696 102.725 116.404C103.267 116.113 103.91 115.967 104.652 115.967C105.732 115.967 106.571 116.327 107.168 117.047C107.765 117.767 108.063 118.79 108.063 120.116V120.171H103.046C103.046 120.841 103.194 121.372 103.49 121.764C103.791 122.156 104.201 122.352 104.721 122.352C105.058 122.352 105.356 122.281 105.616 122.14C105.876 121.994 106.051 121.771 106.143 121.47L107.954 121.627C107.703 122.27 107.286 122.766 106.703 123.117C106.12 123.464 105.427 123.637 104.625 123.637ZM104.625 117.177C104.156 117.177 103.782 117.336 103.504 117.655C103.226 117.97 103.078 118.407 103.06 118.968H106.204C106.172 118.421 106.015 117.986 105.732 117.662C105.454 117.339 105.085 117.177 104.625 117.177Z"
    fill="white"
  />
  <path
    d="M18.3623 147.405C19.0915 146.339 19.6156 145.298 19.9346 144.281C20.2581 143.26 20.4199 142.126 20.4199 140.877C20.4199 139.624 20.2559 138.482 19.9277 137.452C19.5996 136.418 19.0778 135.385 18.3623 134.355H20.2832C21.0033 135.39 21.5205 136.42 21.835 137.445C22.154 138.471 22.3135 139.612 22.3135 140.87C22.3135 142.137 22.154 143.283 21.835 144.309C21.5205 145.334 21.0033 146.366 20.2832 147.405H18.3623ZM33.7705 138.744V137.22H40.791V138.744H33.7705ZM33.7705 142.511V141H40.791V142.511H33.7705ZM42.1787 143.646V142.094L47.8662 139.879L42.1787 137.657V136.099L49.1992 138.771V140.973L42.1787 143.646ZM63.9375 144.5V140.269C63.9375 139.626 63.8486 139.154 63.6709 138.854C63.4977 138.553 63.1969 138.402 62.7686 138.402C62.2946 138.402 61.9141 138.605 61.627 139.011C61.3444 139.412 61.2031 139.92 61.2031 140.535V144.5H59.2822V138.758C59.2822 138.361 59.2754 138.038 59.2617 137.787C59.2526 137.532 59.2412 137.304 59.2275 137.104H61.0596C61.0732 137.19 61.0915 137.423 61.1143 137.801C61.137 138.174 61.1484 138.432 61.1484 138.573H61.1758C61.4355 138.008 61.7614 137.598 62.1533 137.343C62.5452 137.088 63.0124 136.96 63.5547 136.96C65.0859 136.96 65.8516 137.908 65.8516 139.804V144.5H63.9375ZM69.5566 137.104V141.253C69.5566 141.882 69.6569 142.365 69.8574 142.702C70.0625 143.035 70.3542 143.201 70.7324 143.201C71.1426 143.201 71.4798 143.001 71.7441 142.6C72.013 142.194 72.1475 141.684 72.1475 141.068V137.104H74.0684V142.846C74.0684 143.475 74.0866 144.026 74.123 144.5H72.291C72.2363 143.844 72.209 143.354 72.209 143.03H72.1748C71.6872 144.101 70.9398 144.637 69.9326 144.637C69.1852 144.637 68.6156 144.4 68.2236 143.926C67.8317 143.447 67.6357 142.739 67.6357 141.8V137.104H69.5566ZM80.5488 143.201H82.9619V144.5H75.9277V143.201H78.6279V135.654H76.6455V134.355H80.5488V143.201ZM88.957 143.201H91.3701V144.5H84.3359V143.201H87.0361V135.654H85.0537V134.355H88.957V143.201ZM97.3652 143.201H99.7783V144.5H92.7441V143.201H95.4443V138.402H93.4619V137.104H97.3652V143.201ZM95.4443 135.771V134.355H97.3652V135.771H95.4443ZM104.81 138.402V144.5H102.896V138.402H101.146V137.104H102.896V136.536C102.896 135.743 103.144 135.148 103.641 134.752C104.142 134.351 104.855 134.15 105.78 134.15C106.505 134.15 107.25 134.214 108.016 134.342V135.6C107.332 135.513 106.699 135.47 106.115 135.47C105.669 135.47 105.338 135.563 105.124 135.75C104.914 135.932 104.81 136.254 104.81 136.714V137.104H107.838V138.402H104.81ZM114.182 143.201H116.595V144.5H109.561V143.201H112.261V138.402H110.278V137.104H114.182V143.201ZM112.261 135.771V134.355H114.182V135.771H112.261ZM121.441 144.637C120.293 144.637 119.407 144.299 118.782 143.625C118.158 142.946 117.846 141.993 117.846 140.768C117.846 139.947 117.992 139.255 118.283 138.689C118.579 138.124 118.999 137.696 119.541 137.404C120.083 137.113 120.726 136.967 121.469 136.967C122.549 136.967 123.387 137.327 123.984 138.047C124.581 138.767 124.88 139.79 124.88 141.116V141.171H119.862C119.862 141.841 120.01 142.372 120.307 142.764C120.607 143.156 121.018 143.352 121.537 143.352C121.874 143.352 122.173 143.281 122.433 143.14C122.692 142.994 122.868 142.771 122.959 142.47L124.771 142.627C124.52 143.27 124.103 143.766 123.52 144.117C122.936 144.464 122.243 144.637 121.441 144.637ZM121.441 138.177C120.972 138.177 120.598 138.336 120.32 138.655C120.042 138.97 119.894 139.407 119.876 139.968H123.021C122.989 139.421 122.831 138.986 122.549 138.662C122.271 138.339 121.902 138.177 121.441 138.177ZM132.96 138.703C132.45 138.617 131.966 138.573 131.511 138.573C130.8 138.573 130.235 138.842 129.815 139.38C129.401 139.918 129.193 140.626 129.193 141.506V144.5H127.279V139.708C127.279 139.362 127.247 138.954 127.184 138.484C127.124 138.015 127.038 137.555 126.924 137.104H128.776C128.94 137.696 129.045 138.215 129.091 138.662H129.118C129.346 138.042 129.654 137.605 130.041 137.35C130.428 137.094 130.932 136.967 131.552 136.967C132.026 136.967 132.495 137.006 132.96 137.083V138.703Z"
    fill="white"
  />
  <path
    d="M151.878 141C151.878 143.194 150.11 144.959 147.946 144.959C145.782 144.959 144.014 143.194 144.014 141C144.014 138.806 145.782 137.041 147.946 137.041C150.11 137.041 151.878 138.806 151.878 141Z"
    fill="#181F2B"
    stroke="#FFBDE9"
    stroke-width="3.5"
  />
</svg>
