<svg
  width="425"
  height="425"
  viewBox="0 0 425 425"
  fill="none"
  xmlns="http://www.w3.org/2000/svg"
>
  <path
    d="M42.2724 286.927V281.359H43.8084V286.831C43.8084 287.463 43.9764 287.947 44.3124 288.283C44.6484 288.619 45.1244 288.787 45.7404 288.787C46.3644 288.787 46.8444 288.619 47.1804 288.283C47.5164 287.939 47.6844 287.455 47.6844 286.831V281.359H49.2204V286.927C49.2204 287.607 49.0764 288.199 48.7884 288.703C48.5084 289.199 48.1084 289.587 47.5884 289.867C47.0684 290.139 46.4524 290.275 45.7404 290.275C45.0364 290.275 44.4244 290.139 43.9044 289.867C43.3844 289.595 42.9804 289.207 42.6924 288.703C42.4124 288.199 42.2724 287.607 42.2724 286.927ZM54.4457 282.091V290.131H52.9097V282.091H54.4457ZM50.3417 282.775V281.359H57.0137V282.775H50.3417ZM60.3958 285.751L57.4798 281.359H59.3038L60.3718 282.943C60.5478 283.199 60.7118 283.463 60.8638 283.735C61.0238 283.999 61.1878 284.279 61.3558 284.575L63.3958 281.359H65.1838L62.3158 285.739L65.1958 290.131H63.3838L62.3998 288.679C62.1998 288.383 62.0198 288.095 61.8598 287.815C61.6998 287.535 61.5278 287.239 61.3438 286.927L59.2198 290.131H57.4198L60.3958 285.751ZM73.9376 285.739C73.9376 286.627 73.7576 287.415 73.3976 288.103C73.0376 288.783 72.5376 289.315 71.8976 289.699C71.2576 290.083 70.5176 290.275 69.6776 290.275C68.8456 290.275 68.1096 290.083 67.4696 289.699C66.8296 289.315 66.3296 288.783 65.9696 288.103C65.6176 287.423 65.4416 286.639 65.4416 285.751C65.4416 284.855 65.6216 284.067 65.9816 283.387C66.3416 282.699 66.8376 282.163 67.4696 281.779C68.1096 281.395 68.8496 281.203 69.6896 281.203C70.5296 281.203 71.2656 281.395 71.8976 281.779C72.5376 282.163 73.0376 282.695 73.3976 283.375C73.7576 284.055 73.9376 284.843 73.9376 285.739ZM72.3296 285.739C72.3296 285.115 72.2216 284.575 72.0056 284.119C71.7896 283.663 71.4856 283.311 71.0936 283.063C70.7016 282.807 70.2336 282.679 69.6896 282.679C69.1536 282.679 68.6856 282.807 68.2856 283.063C67.8936 283.311 67.5896 283.663 67.3736 284.119C67.1576 284.575 67.0496 285.115 67.0496 285.739C67.0496 286.363 67.1576 286.907 67.3736 287.371C67.5896 287.827 67.8936 288.179 68.2856 288.427C68.6856 288.675 69.1536 288.799 69.6896 288.799C70.2336 288.799 70.7016 288.675 71.0936 288.427C71.4856 288.171 71.7896 287.815 72.0056 287.359C72.2216 286.895 72.3296 286.355 72.3296 285.739Z"
    fill="white"
  />
  <g filter="url(#filter0_d_1157_37978)">
    <g clip-path="url(#clip0_1157_37978)">
      <rect
        x="20.5732"
        y="178.627"
        width="80"
        height="80"
        rx="8"
        fill="#F7F8F7"
      />
      <rect
        x="20.5732"
        y="172.921"
        width="122"
        height="54.3464"
        fill="url(#paint0_linear_1157_37978)"
      />
      <path
        d="M32.3464 248.036C33.6104 248.036 34.6824 247.476 35.0824 246.58L35.2424 247.844H36.5224V242.932C36.5224 240.82 35.2104 239.796 33.2744 239.796C31.2584 239.796 29.9144 240.868 29.9144 242.5H31.2264C31.2264 241.556 31.9464 240.996 33.2104 240.996C34.2664 240.996 35.0504 241.46 35.0504 242.772V242.996L32.5864 243.188C30.7464 243.332 29.6744 244.228 29.6744 245.668C29.6744 247.092 30.6664 248.036 32.3464 248.036ZM32.7784 246.868C31.8024 246.868 31.1944 246.452 31.1944 245.62C31.1944 244.852 31.7384 244.34 33.0664 244.212L35.0664 244.052V244.468C35.0664 245.94 34.2024 246.868 32.7784 246.868ZM40.3012 247.844V236.068H38.7972V247.844H40.3012ZM43.4112 238.164C43.9552 238.164 44.4032 237.716 44.4032 237.172C44.4032 236.612 43.9552 236.18 43.4112 236.18C42.8672 236.18 42.4192 236.612 42.4192 237.172C42.4192 237.716 42.8672 238.164 43.4112 238.164ZM42.6752 247.844H44.1792V240.02H42.6752V247.844ZM46.0107 243.94C46.0107 246.404 47.5307 248.036 49.8347 248.036C51.7227 248.036 53.1787 246.9 53.4827 245.204H51.9787C51.7067 246.132 50.9067 246.692 49.8347 246.692C48.4107 246.692 47.4987 245.604 47.4987 243.924C47.4987 242.228 48.4747 241.14 49.8987 241.14C50.9067 241.14 51.7067 241.668 51.9627 242.66H53.4667C53.1947 240.916 51.8187 239.796 49.8507 239.796C47.5627 239.796 46.0107 241.492 46.0107 243.94ZM58.6056 248.036C60.5416 248.036 61.8536 247.092 62.2376 245.412H60.8296C60.5736 246.308 59.8056 246.788 58.6376 246.788C57.1496 246.788 56.2856 245.876 56.1736 244.228L62.2216 244.212V243.652C62.2216 241.332 60.7656 239.796 58.5416 239.796C56.2696 239.796 54.7176 241.492 54.7176 243.94C54.7176 246.372 56.3016 248.036 58.6056 248.036ZM58.5416 241.06C59.8696 241.06 60.7176 241.924 60.7176 243.22H56.2056C56.3976 241.844 57.2296 241.06 58.5416 241.06ZM64.6971 248.036C65.3051 248.036 65.8331 247.524 65.8331 246.916C65.8331 246.292 65.3051 245.78 64.6971 245.78C64.0731 245.78 63.5451 246.292 63.5451 246.916C63.5451 247.524 64.0731 248.036 64.6971 248.036ZM71.0506 248.036C72.9866 248.036 74.2986 247.092 74.6826 245.412H73.2746C73.0186 246.308 72.2506 246.788 71.0826 246.788C69.5946 246.788 68.7306 245.876 68.6186 244.228L74.6666 244.212V243.652C74.6666 241.332 73.2106 239.796 70.9866 239.796C68.7146 239.796 67.1626 241.492 67.1626 243.94C67.1626 246.372 68.7466 248.036 71.0506 248.036ZM70.9866 241.06C72.3146 241.06 73.1626 241.924 73.1626 243.22H68.6506C68.8426 241.844 69.6746 241.06 70.9866 241.06ZM78.6364 247.844V241.284H80.1724V240.02H78.6364V237.572H77.1324V240.02H75.5964V241.284H77.1324V247.844H78.6364ZM83.1861 247.828V243.572C83.1861 242.228 83.9701 241.172 85.4261 241.172C86.5461 241.172 87.2981 241.812 87.2981 243.396V247.844H88.8021V243.06C88.8021 241.06 87.8421 239.796 85.8421 239.796C84.6261 239.796 83.6821 240.372 83.1861 241.22V236.068H81.6821V247.828H83.1861Z"
        fill="#1F1D2B"
      />
      <g clip-path="url(#clip1_1157_37978)">
        <path
          d="M32.3607 199.714C32.6331 200.282 33.314 201.416 33.314 201.416L41.11 188.767L33.5182 193.974C33.0756 194.274 32.7012 194.675 32.4288 195.142C31.7139 196.577 31.7139 198.246 32.3607 199.714Z"
          fill="url(#paint1_linear_1157_37978)"
        />
        <path
          d="M29.2963 203.853C29.4665 206.289 30.7261 208.558 32.7007 210.027L41.1096 215.767C41.1096 215.767 35.8328 208.325 31.407 200.916C30.9645 200.148 30.6581 199.28 30.5219 198.379C30.4538 197.979 30.4538 197.578 30.5219 197.178C30.4198 197.378 30.1814 197.812 30.1814 197.812C29.7389 198.713 29.4325 199.681 29.2623 200.682C29.1601 201.75 29.1601 202.818 29.2963 203.853Z"
          fill="#A0A8D4"
        />
        <path
          d="M50.7444 204.854C50.4721 204.286 49.7912 203.152 49.7912 203.152L41.9951 215.767L49.621 210.594C50.0636 210.294 50.438 209.893 50.7104 209.426C51.3913 207.991 51.4253 206.322 50.7444 204.854Z"
          fill="url(#paint2_linear_1157_37978)"
        />
        <path
          d="M53.8426 200.682C53.6724 198.246 52.4127 195.976 50.4382 194.508L42.0293 188.767C42.0293 188.767 47.3061 196.21 51.7318 203.619C52.1744 204.387 52.4808 205.254 52.617 206.155C52.6851 206.556 52.6851 206.956 52.617 207.357C52.7191 207.157 52.9574 206.723 52.9574 206.723C53.4 205.822 53.7064 204.854 53.8766 203.886C53.9447 202.785 53.9447 201.75 53.8426 200.682Z"
          fill="#A0A8D4"
        />
        <path
          d="M32.4283 195.142C32.7007 194.675 33.0411 194.274 33.5178 193.974L41.1096 188.767L33.3135 201.383C33.3135 201.383 32.6326 200.248 32.3603 199.681C31.7134 198.246 31.7134 196.577 32.4283 195.142ZM29.2963 203.853C29.4665 206.289 30.7261 208.558 32.7007 210.027L41.1096 215.767C41.1096 215.767 35.8327 208.325 31.407 200.916C30.9645 200.148 30.6581 199.28 30.5219 198.379C30.4538 197.979 30.4538 197.578 30.5219 197.178C30.4198 197.378 30.1814 197.812 30.1814 197.812C29.7389 198.713 29.4325 199.681 29.2623 200.682C29.1601 201.75 29.1601 202.818 29.2963 203.853ZM50.744 204.854C50.4717 204.286 49.7908 203.152 49.7908 203.152L41.9947 215.767L49.6206 210.594C50.0631 210.294 50.4376 209.893 50.71 209.426C51.3909 207.991 51.4249 206.322 50.744 204.854ZM53.808 200.715C53.6378 198.279 52.3781 196.01 50.4036 194.541L42.0288 188.767C42.0288 188.767 47.3056 196.21 51.7313 203.619C52.1739 204.387 52.4803 205.254 52.6165 206.155C52.6845 206.556 52.6845 206.956 52.6165 207.357C52.7186 207.157 52.9569 206.723 52.9569 206.723C53.3995 205.822 53.7059 204.854 53.8761 203.886C53.9442 202.785 53.9442 201.75 53.808 200.715Z"
          fill="#F7F8F7"
        />
      </g>
    </g>
  </g>
  <circle cx="99.3389" cy="179.1" r="10.7764" fill="white" />
  <path
    fill-rule="evenodd"
    clip-rule="evenodd"
    d="M99.3389 190.882C106.107 190.882 111.594 185.396 111.594 178.627C111.594 171.859 106.107 166.373 99.3389 166.373C92.5707 166.373 87.084 171.859 87.084 178.627C87.084 185.396 92.5707 190.882 99.3389 190.882ZM95.767 181.885C95.0373 181.885 94.4394 181.713 93.9734 181.369C93.5135 181.02 93.2835 180.523 93.2835 179.879C93.2835 179.745 93.2989 179.579 93.3295 179.383C93.4093 178.941 93.5227 178.411 93.6698 177.792C94.0868 176.105 95.163 175.262 96.8983 175.262C97.3705 175.262 97.7936 175.342 98.1676 175.501C98.5417 175.655 98.836 175.888 99.0506 176.2C99.2652 176.507 99.3726 176.875 99.3726 177.304C99.3726 177.433 99.3572 177.595 99.3265 177.792C99.2346 178.337 99.1242 178.868 98.9954 179.383C98.7808 180.223 98.4098 180.851 97.8825 181.268C97.3551 181.679 96.65 181.885 95.767 181.885ZM95.8957 180.56C96.2392 180.56 96.5303 180.459 96.7695 180.257C97.0148 180.054 97.1896 179.745 97.2938 179.328C97.4349 178.751 97.5422 178.248 97.6158 177.819C97.6403 177.69 97.6525 177.559 97.6525 177.424C97.6525 176.866 97.3613 176.587 96.7788 176.587C96.4353 176.587 96.141 176.688 95.8957 176.89C95.6566 177.093 95.4849 177.402 95.3807 177.819C95.2703 178.23 95.1599 178.733 95.0495 179.328C95.025 179.45 95.0128 179.579 95.0128 179.714C95.0128 180.278 95.3071 180.56 95.8957 180.56ZM99.6385 181.728C99.6753 181.771 99.7274 181.793 99.7949 181.793H101.046C101.107 181.793 101.165 181.771 101.221 181.728C101.276 181.685 101.309 181.63 101.322 181.563L101.745 179.548H102.987C103.79 179.548 104.421 179.38 104.881 179.042C105.347 178.705 105.657 178.184 105.81 177.479C105.847 177.313 105.866 177.154 105.866 177C105.866 176.467 105.657 176.059 105.24 175.777C104.829 175.495 104.283 175.354 103.603 175.354H101.156C101.095 175.354 101.037 175.376 100.981 175.418C100.926 175.461 100.892 175.517 100.88 175.584L99.6109 181.563C99.5986 181.624 99.6078 181.679 99.6385 181.728ZM103.722 178.067C103.532 178.208 103.308 178.279 103.051 178.279H101.993L102.343 176.633H103.446C103.698 176.633 103.876 176.682 103.98 176.78C104.084 176.872 104.136 177.007 104.136 177.184C104.136 177.264 104.127 177.356 104.109 177.46C104.047 177.724 103.919 177.926 103.722 178.067Z"
    fill="#EF570D"
  />
  <g filter="url(#filter1_d_1157_37978)">
    <path
      fill-rule="evenodd"
      clip-rule="evenodd"
      d="M304.473 281.527L297.195 288.805C292.351 293.648 292.453 301.73 297.416 306.693L301.167 310.444C308.21 317.487 308.36 328.787 301.488 335.659L297.868 339.279C292.987 344.16 293.088 352.159 298.093 357.164L305.519 364.59C310.52 369.591 318.519 369.692 323.4 364.812L327.02 361.191C328.198 360.013 329.506 359.042 330.9 358.276V339.128C329.396 338.306 327.979 337.256 326.703 335.98C319.656 328.933 319.517 317.63 326.426 310.721L330.047 307.1C334.886 302.261 334.781 294.182 329.814 289.215L322.354 281.755C317.391 276.792 309.313 276.687 304.473 281.527Z"
      fill="#1F1D2B"
    />
    <g clip-path="url(#clip2_1157_37978)">
      <rect
        x="289.868"
        y="331.932"
        width="50"
        height="50"
        rx="8"
        fill="#1F1D2B"
      />
      <path
        fill-rule="evenodd"
        clip-rule="evenodd"
        d="M312.982 356.53V357.756C312.982 358.577 313.65 359.25 314.466 359.25H315.684C316.5 359.25 317.167 358.577 317.167 357.756V356.53C317.167 355.708 316.5 355.035 315.684 355.035H314.466C313.65 355.035 312.982 355.708 312.982 356.53Z"
        fill="white"
      />
      <path
        fill-rule="evenodd"
        clip-rule="evenodd"
        d="M312.983 352.716C312.983 353.916 312.046 354.892 310.892 354.892C309.738 354.892 308.801 355.867 308.801 357.074C308.801 358.275 307.864 359.25 306.704 359.25C305.55 359.25 304.613 358.275 304.613 357.074C304.613 355.867 305.55 354.892 306.704 354.892C307.864 354.892 308.801 353.916 308.801 352.716C308.801 351.515 307.864 350.54 306.704 350.54H306.096C305.283 350.54 304.613 349.843 304.613 348.997V347.725C304.613 346.879 305.283 346.182 306.096 346.182H307.318C308.131 346.182 308.801 346.879 308.801 347.725V348.364C308.801 349.565 309.738 350.54 310.892 350.54C312.046 350.54 312.983 351.515 312.983 352.716Z"
        fill="white"
      />
      <path
        fill-rule="evenodd"
        clip-rule="evenodd"
        d="M317.168 364.957V366.188C317.168 367.007 316.476 367.681 315.636 367.681H314.374C313.534 367.681 312.842 367.007 312.842 366.188V365.575C312.842 364.407 311.874 363.462 310.681 363.462C309.49 363.462 308.522 364.407 308.522 365.575C308.522 366.738 307.553 367.681 306.355 367.681C305.163 367.681 304.195 366.738 304.195 365.575C304.195 364.407 305.163 363.462 306.355 363.462C307.553 363.462 308.522 362.519 308.522 361.356V360.744C308.522 359.918 309.207 359.25 310.053 359.25H311.31C312.156 359.25 312.842 359.918 312.842 360.744V361.356C312.842 362.519 313.81 363.462 315.002 363.462H315.636C316.476 363.462 317.168 364.137 317.168 364.957Z"
        fill="white"
      />
      <mask
        id="mask0_1157_37978"
        style="mask-type: alpha"
        maskUnits="userSpaceOnUse"
        x="317"
        y="354"
        width="9"
        height="14"
      >
        <path
          d="M317.171 354.612H325.54V367.681H317.171V354.612Z"
          fill="#1F1D2B"
        />
      </mask>
      <g mask="url(#mask0_1157_37978)">
        <path
          fill-rule="evenodd"
          clip-rule="evenodd"
          d="M325.54 365.506C325.54 366.706 324.603 367.681 323.443 367.681C322.289 367.681 321.352 366.706 321.352 365.506C321.352 364.298 320.415 363.322 319.261 363.322H318.652C317.834 363.322 317.17 362.632 317.17 361.779V360.514C317.17 359.661 317.834 358.971 318.652 358.971H319.261C320.415 358.971 321.352 357.995 321.352 356.795C321.352 355.588 322.289 354.613 323.443 354.613C324.603 354.613 325.54 355.588 325.54 356.795C325.54 357.995 324.603 358.971 323.443 358.971C322.289 358.971 321.352 359.946 321.352 361.147C321.352 362.347 322.289 363.322 323.443 363.322C324.603 363.322 325.54 364.298 325.54 365.506Z"
          fill="white"
        />
      </g>
      <mask
        id="mask1_1157_37978"
        style="mask-type: alpha"
        maskUnits="userSpaceOnUse"
        x="312"
        y="346"
        width="14"
        height="9"
      >
        <path
          d="M312.566 346.182H325.539V354.613H312.566V346.182Z"
          fill="#1F1D2B"
        />
      </mask>
      <g mask="url(#mask1_1157_37978)">
        <path
          fill-rule="evenodd"
          clip-rule="evenodd"
          d="M325.539 347.676V348.907C325.539 349.726 324.847 350.4 324.007 350.4H323.373C322.181 350.4 321.213 351.344 321.213 352.507C321.213 353.669 320.245 354.613 319.053 354.613C317.861 354.613 316.893 353.669 316.893 352.507C316.893 351.344 315.925 350.4 314.726 350.4H314.098C313.259 350.4 312.566 349.726 312.566 348.907V347.676C312.566 346.857 313.259 346.182 314.098 346.182H315.361C316.201 346.182 316.893 346.857 316.893 347.676V348.294C316.893 349.457 317.861 350.4 319.053 350.4C320.245 350.4 321.213 349.457 321.213 348.294V347.676C321.213 346.857 321.905 346.182 322.745 346.182H324.007C324.847 346.182 325.539 346.857 325.539 347.676Z"
          fill="white"
        />
      </g>
    </g>
    <rect
      x="212.053"
      y="110.102"
      width="203.844"
      height="204.797"
      rx="8"
      fill="#F7F8F7"
    />
    <rect
      x="241.185"
      y="139.369"
      width="145.581"
      height="146.261"
      rx="8"
      fill="white"
    />
    <path d="M306.869 264.084L278.813 220.913" stroke="#C2C8D4" />
    <path
      d="M398.396 125.725V134.596L405.895 137.947L398.396 125.725Z"
      fill="#F7F8F7"
    />
    <path
      d="M398.396 125.725L390.896 137.947L398.396 134.596V125.725Z"
      fill="white"
    />
    <path
      d="M398.396 143.696V149.725L405.9 139.343L398.396 143.696Z"
      fill="#F7F8F7"
    />
    <path
      d="M398.396 149.725V143.695L390.896 139.343L398.396 149.725Z"
      fill="white"
    />
    <path
      d="M398.396 142.301L405.895 137.947L398.396 134.599V142.301Z"
      fill="#E2E5EB"
    />
    <path
      d="M390.896 137.947L398.396 142.301V134.599L390.896 137.947Z"
      fill="#F7F8F7"
    />
    <path d="M270.646 263.728L262.479 247.315" stroke="#C2C8D4" />
    <path d="M287.339 264.084L295.507 248.742" stroke="#C2C8D4" />
    <path
      d="M252.534 264.441L314.327 160.259L375.409 264.441"
      stroke="#C2C8D4"
    />
    <ellipse
      cx="278.103"
      cy="220.913"
      rx="5.68206"
      ry="5.70862"
      fill="#FF6E6E"
    />
    <ellipse
      cx="350.55"
      cy="220.913"
      rx="5.68206"
      ry="5.70862"
      fill="#C2C8D4"
    />
    <ellipse
      cx="262.478"
      cy="248.029"
      rx="5.68206"
      ry="5.70862"
      fill="#FF8D8D"
    />
    <ellipse
      cx="296.214"
      cy="248.029"
      rx="5.68206"
      ry="5.70862"
      fill="#FF8D8D"
    />
    <ellipse
      cx="332.794"
      cy="248.029"
      rx="5.68206"
      ry="5.70862"
      fill="#C2C8D4"
    />
    <ellipse
      cx="365.111"
      cy="248.029"
      rx="5.68206"
      ry="5.70862"
      fill="#C2C8D4"
    />
    <ellipse
      cx="253.245"
      cy="263.014"
      rx="5.68206"
      ry="5.70862"
      fill="#FFC0C0"
    />
    <ellipse
      cx="271.245"
      cy="263.014"
      rx="5.68206"
      ry="5.70862"
      fill="#FFC0C0"
    />
    <ellipse
      cx="287.758"
      cy="263.014"
      rx="5.68206"
      ry="5.70862"
      fill="#FFC0C0"
    />
    <ellipse
      cx="306.514"
      cy="263.014"
      rx="5.68206"
      ry="5.70862"
      fill="#FFC0C0"
    />
    <ellipse
      cx="324.271"
      cy="263.014"
      rx="5.68206"
      ry="5.70862"
      fill="#C2C8D4"
    />
    <ellipse
      cx="340.606"
      cy="263.014"
      rx="5.68206"
      ry="5.70862"
      fill="#C2C8D4"
    />
    <ellipse
      cx="356.941"
      cy="263.014"
      rx="5.68206"
      ry="5.70862"
      fill="#C2C8D4"
    />
    <ellipse
      cx="374.698"
      cy="263.014"
      rx="5.68206"
      ry="5.70862"
      fill="#C2C8D4"
    />
    <path d="M323.916 263.728L350.196 221.626" stroke="#C2C8D4" />
    <path d="M341.139 264.084L332.971 247.672" stroke="#C2C8D4" />
    <path d="M356.232 264.084L364.4 248.742" stroke="#C2C8D4" />
    <path
      d="M252.747 157.834C251.929 157.834 251.291 157.613 250.833 157.17C250.375 156.722 250.146 156.095 250.146 155.287C250.146 154.412 250.416 153.748 250.958 153.295C251.505 152.837 252.32 152.6 253.403 152.584L255.146 152.553V152.123C255.146 151.587 255.054 151.181 254.872 150.905C254.69 150.628 254.396 150.49 253.989 150.49C253.609 150.49 253.328 150.587 253.146 150.78C252.968 150.967 252.859 151.269 252.817 151.686L250.528 151.576C250.81 149.905 251.994 149.069 254.083 149.069C255.135 149.069 255.94 149.326 256.497 149.842C257.06 150.358 257.341 151.115 257.341 152.115V155.178C257.341 155.652 257.393 155.98 257.497 156.162C257.606 156.339 257.786 156.428 258.036 156.428C258.203 156.428 258.364 156.412 258.521 156.381V157.569C258.39 157.6 258.273 157.628 258.169 157.655C258.065 157.681 257.961 157.701 257.856 157.717C257.752 157.733 257.64 157.746 257.521 157.756C257.406 157.767 257.271 157.772 257.114 157.772C256.562 157.772 256.153 157.636 255.888 157.365C255.627 157.095 255.471 156.696 255.419 156.17H255.372C255.044 156.759 254.669 157.183 254.247 157.444C253.83 157.704 253.33 157.834 252.747 157.834ZM255.146 153.764L254.099 153.78C253.63 153.79 253.289 153.839 253.075 153.928C252.867 154.011 252.708 154.149 252.599 154.342C252.489 154.53 252.435 154.787 252.435 155.115C252.435 155.907 252.747 156.303 253.372 156.303C253.877 156.303 254.299 156.105 254.638 155.709C254.976 155.308 255.146 154.803 255.146 154.194V153.764Z"
      fill="white"
    />
    <rect
      x="212.053"
      y="110.102"
      width="203.844"
      height="204.797"
      rx="8"
      fill="#1F1D2B"
    />
    <rect
      x="241.185"
      y="139.369"
      width="145.581"
      height="146.261"
      rx="8"
      fill="#2B2F40"
    />
    <path d="M252.534 256.395L314.327 152.212L375.409 256.395" stroke="white" />
    <path d="M323.916 255.681L350.196 213.58" stroke="white" />
    <path d="M306.869 256.038L278.813 212.866" stroke="white" />
    <path d="M270.646 255.681L262.479 239.269" stroke="white" />
    <path d="M341.139 256.038L332.971 239.625" stroke="white" />
    <path d="M287.339 256.038L295.507 240.696" stroke="white" />
    <ellipse
      cx="278.103"
      cy="212.866"
      rx="5.68206"
      ry="5.70862"
      fill="#FF6E6E"
    />
    <ellipse
      cx="350.55"
      cy="212.866"
      rx="5.68206"
      ry="5.70862"
      fill="#FF6E6E"
    />
    <ellipse
      cx="262.478"
      cy="239.982"
      rx="5.68206"
      ry="5.70862"
      fill="#FF8D8D"
    />
    <ellipse
      cx="296.214"
      cy="239.982"
      rx="5.68206"
      ry="5.70862"
      fill="#FF8D8D"
    />
    <ellipse
      cx="332.794"
      cy="239.982"
      rx="5.68206"
      ry="5.70862"
      fill="#FF8D8D"
    />
    <ellipse cx="365.111" cy="239.982" rx="5.68206" ry="5.70862" fill="white" />
    <ellipse
      cx="253.245"
      cy="254.967"
      rx="5.68206"
      ry="5.70862"
      fill="#FFC0C0"
    />
    <ellipse
      cx="271.245"
      cy="254.967"
      rx="5.68206"
      ry="5.70862"
      fill="#FFC0C0"
    />
    <ellipse
      cx="287.758"
      cy="254.967"
      rx="5.68206"
      ry="5.70862"
      fill="#FFC0C0"
    />
    <ellipse
      cx="306.514"
      cy="254.967"
      rx="5.68206"
      ry="5.70862"
      fill="#FFC0C0"
    />
    <path
      d="M330.553 254.967C330.553 258.12 327.409 260.676 324.271 260.676C321.133 260.676 318.589 258.12 318.589 254.967C318.589 251.815 321.133 249.259 324.271 249.259C327.409 249.259 330.553 251.815 330.553 254.967Z"
      fill="#FFC0C0"
    />
    <ellipse cx="340.606" cy="254.967" rx="5.68206" ry="5.70862" fill="white" />
    <ellipse cx="356.941" cy="254.967" rx="5.68206" ry="5.70862" fill="white" />
    <ellipse cx="374.698" cy="254.967" rx="5.68206" ry="5.70862" fill="white" />
    <path d="M356.232 256.038L364.4 240.696" stroke="white" />
    <path
      d="M255.7 157.678C255.679 157.6 255.653 157.405 255.622 157.092C255.596 156.774 255.583 156.511 255.583 156.303H255.552C255.276 156.86 254.935 157.256 254.528 157.49C254.122 157.72 253.64 157.834 253.083 157.834C252.151 157.834 251.416 157.444 250.88 156.662C250.343 155.881 250.075 154.816 250.075 153.467C250.075 152.087 250.343 151.011 250.88 150.24C251.422 149.47 252.185 149.084 253.169 149.084C253.726 149.084 254.211 149.212 254.622 149.467C255.034 149.717 255.349 150.087 255.567 150.576H255.583L255.567 149.186V146.084H257.763V155.834C257.763 156.355 257.784 156.97 257.825 157.678H255.7ZM255.599 153.412C255.599 152.511 255.453 151.813 255.161 151.319C254.869 150.824 254.466 150.576 253.95 150.576C253.429 150.576 253.034 150.821 252.763 151.311C252.497 151.795 252.364 152.514 252.364 153.467C252.364 154.425 252.5 155.144 252.771 155.623C253.047 156.097 253.435 156.334 253.935 156.334C254.257 156.334 254.547 156.22 254.802 155.99C255.057 155.756 255.252 155.423 255.388 154.99C255.528 154.558 255.599 154.032 255.599 153.412Z"
      fill="white"
    />
    <path
      d="M319.186 152.024L313.972 161.054L308.758 152.024L319.186 152.024Z"
      fill="#E63535"
      stroke="#E63535"
      stroke-width="2.5"
    />
    <path
      fill-rule="evenodd"
      clip-rule="evenodd"
      d="M396.8 139.83C403.568 139.83 409.055 134.343 409.055 127.575C409.055 120.807 403.568 115.32 396.8 115.32C390.032 115.32 384.545 120.807 384.545 127.575C384.545 134.343 390.032 139.83 396.8 139.83ZM393.228 130.832C392.498 130.832 391.9 130.66 391.434 130.317C390.974 129.967 390.744 129.471 390.744 128.827C390.744 128.692 390.76 128.526 390.79 128.33C390.87 127.889 390.984 127.358 391.131 126.739C391.548 125.052 392.624 124.209 394.359 124.209C394.831 124.209 395.255 124.289 395.629 124.448C396.003 124.602 396.297 124.835 396.512 125.148C396.726 125.454 396.834 125.822 396.834 126.251C396.834 126.38 396.818 126.543 396.787 126.739C396.696 127.285 396.585 127.815 396.456 128.33C396.242 129.17 395.871 129.799 395.343 130.216C394.816 130.626 394.111 130.832 393.228 130.832ZM393.357 129.507C393.7 129.507 393.991 129.406 394.23 129.204C394.476 129.001 394.651 128.692 394.755 128.275C394.896 127.698 395.003 127.196 395.077 126.766C395.101 126.638 395.113 126.506 395.113 126.371C395.113 125.813 394.822 125.534 394.24 125.534C393.896 125.534 393.602 125.635 393.357 125.837C393.118 126.04 392.946 126.349 392.842 126.766C392.731 127.177 392.621 127.68 392.51 128.275C392.486 128.397 392.474 128.526 392.474 128.661C392.474 129.225 392.768 129.507 393.357 129.507ZM397.099 130.675C397.136 130.718 397.188 130.74 397.256 130.74H398.507C398.568 130.74 398.626 130.718 398.682 130.675C398.737 130.633 398.77 130.577 398.783 130.51L399.206 128.496H400.447C401.251 128.496 401.882 128.327 402.342 127.99C402.808 127.652 403.118 127.131 403.271 126.426C403.308 126.261 403.326 126.101 403.326 125.948C403.326 125.414 403.118 125.007 402.701 124.724C402.29 124.442 401.744 124.301 401.064 124.301H398.617C398.556 124.301 398.497 124.323 398.442 124.366C398.387 124.409 398.353 124.464 398.341 124.531L397.072 130.51C397.06 130.571 397.069 130.626 397.099 130.675ZM401.183 127.015C400.993 127.156 400.769 127.226 400.512 127.226H399.454L399.804 125.58H400.907C401.159 125.58 401.337 125.629 401.441 125.727C401.545 125.819 401.597 125.954 401.597 126.132C401.597 126.211 401.588 126.303 401.57 126.408C401.508 126.671 401.38 126.874 401.183 127.015Z"
      fill="#EF570D"
    />
  </g>
  <defs>
    <filter
      id="filter0_d_1157_37978"
      x="16.5732"
      y="178.627"
      width="88"
      height="88"
      filterUnits="userSpaceOnUse"
      color-interpolation-filters="sRGB"
    >
      <feFlood flood-opacity="0" result="BackgroundImageFix" />
      <feColorMatrix
        in="SourceAlpha"
        type="matrix"
        values="0 0 0 0 0 0 0 0 0 0 0 0 0 0 0 0 0 0 127 0"
        result="hardAlpha"
      />
      <feOffset dy="4" />
      <feGaussianBlur stdDeviation="2" />
      <feComposite in2="hardAlpha" operator="out" />
      <feColorMatrix
        type="matrix"
        values="0 0 0 0 0 0 0 0 0 0 0 0 0 0 0 0 0 0 0.25 0"
      />
      <feBlend
        mode="normal"
        in2="BackgroundImageFix"
        result="effect1_dropShadow_1157_37978"
      />
      <feBlend
        mode="normal"
        in="SourceGraphic"
        in2="effect1_dropShadow_1157_37978"
        result="shape"
      />
    </filter>
    <filter
      id="filter1_d_1157_37978"
      x="208.053"
      y="110.102"
      width="211.844"
      height="279.83"
      filterUnits="userSpaceOnUse"
      color-interpolation-filters="sRGB"
    >
      <feFlood flood-opacity="0" result="BackgroundImageFix" />
      <feColorMatrix
        in="SourceAlpha"
        type="matrix"
        values="0 0 0 0 0 0 0 0 0 0 0 0 0 0 0 0 0 0 127 0"
        result="hardAlpha"
      />
      <feOffset dy="4" />
      <feGaussianBlur stdDeviation="2" />
      <feComposite in2="hardAlpha" operator="out" />
      <feColorMatrix
        type="matrix"
        values="0 0 0 0 0 0 0 0 0 0 0 0 0 0 0 0 0 0 0.25 0"
      />
      <feBlend
        mode="normal"
        in2="BackgroundImageFix"
        result="effect1_dropShadow_1157_37978"
      />
      <feBlend
        mode="normal"
        in="SourceGraphic"
        in2="effect1_dropShadow_1157_37978"
        result="shape"
      />
    </filter>
    <linearGradient
      id="paint0_linear_1157_37978"
      x1="108.902"
      y1="236.792"
      x2="87.4331"
      y2="144.564"
      gradientUnits="userSpaceOnUse"
    >
      <stop stop-color="#8CDDFF" />
      <stop offset="1" stop-color="#5033FF" stop-opacity="0.86" />
    </linearGradient>
    <linearGradient
      id="paint1_linear_1157_37978"
      x1="41.4646"
      y1="189.084"
      x2="31.6763"
      y2="199.908"
      gradientUnits="userSpaceOnUse"
    >
      <stop offset="0.58" stop-color="#A0A8D4" />
      <stop offset="0.73" stop-color="#8791C7" />
      <stop offset="0.91" stop-color="#6470B4" />
    </linearGradient>
    <linearGradient
      id="paint2_linear_1157_37978"
      x1="41.6746"
      y1="215.473"
      x2="51.4594"
      y2="204.657"
      gradientUnits="userSpaceOnUse"
    >
      <stop offset="0.58" stop-color="#A0A8D4" />
      <stop offset="0.73" stop-color="#8791C7" />
      <stop offset="0.91" stop-color="#6470B4" />
    </linearGradient>
    <clipPath id="clip0_1157_37978">
      <rect
        x="20.5732"
        y="178.627"
        width="80"
        height="80"
        rx="8"
        fill="white"
      />
    </clipPath>
    <clipPath id="clip1_1157_37978">
      <rect
        width="33"
        height="36"
        fill="white"
        transform="translate(25.0732 188.767)"
      />
    </clipPath>
    <clipPath id="clip2_1157_37978">
      <rect
        x="289.868"
        y="331.932"
        width="50"
        height="50"
        rx="8"
        fill="white"
      />
    </clipPath>
  </defs>
</svg>
