<svg
  width="403"
  height="198"
  viewBox="0 0 403 198"
  fill="none"
  xmlns="http://www.w3.org/2000/svg"
>
  <rect x="0.263672" width="402" height="198" rx="8" fill="#1F1D2B" />
  <path
    d="M19.4824 18.5469C19.5137 18.6562 19.5397 18.875 19.5605 19.2031C19.5866 19.5312 19.5996 19.7708 19.5996 19.9219H19.6309C19.8809 19.4271 20.2142 19.0469 20.6309 18.7812C21.0527 18.5156 21.5423 18.3828 22.0996 18.3828C23.0371 18.3828 23.7715 18.776 24.3027 19.5625C24.8392 20.349 25.1074 21.4141 25.1074 22.7578C25.1074 24.138 24.8366 25.2161 24.2949 25.9922C23.7585 26.7682 22.998 27.1562 22.0137 27.1562C21.4564 27.1562 20.972 27.0312 20.5605 26.7812C20.1491 26.526 19.834 26.1536 19.6152 25.6641H19.5996L19.6152 27.0547V30.3203H17.4199V20.3906C17.4199 19.8698 17.3991 19.2552 17.3574 18.5469H19.4824ZM19.584 22.8125C19.584 23.4323 19.6517 23.9531 19.7871 24.375C19.9225 24.7917 20.1126 25.112 20.3574 25.3359C20.6074 25.5547 20.8991 25.6641 21.2324 25.6641C21.7585 25.6641 22.1543 25.4167 22.4199 24.9219C22.6855 24.4271 22.8184 23.7057 22.8184 22.7578C22.8184 21.7995 22.6803 21.0807 22.4043 20.6016C22.1335 20.1224 21.748 19.8828 21.248 19.8828C20.9251 19.8828 20.6361 20 20.3809 20.2344C20.1257 20.4635 19.9277 20.7943 19.7871 21.2266C19.6517 21.6589 19.584 22.1875 19.584 22.8125ZM34.7559 22.7656C34.7559 24.1667 34.4017 25.25 33.6934 26.0156C32.985 26.776 31.9668 27.1562 30.6387 27.1562C29.3574 27.1562 28.3626 26.776 27.6543 26.0156C26.946 25.25 26.5918 24.1667 26.5918 22.7656C26.5918 21.3698 26.9434 20.2917 27.6465 19.5312C28.3496 18.7708 29.3626 18.3906 30.6855 18.3906C33.3991 18.3906 34.7559 19.849 34.7559 22.7656ZM32.459 22.7656C32.459 21.7656 32.3262 21.0391 32.0605 20.5859C31.7949 20.1276 31.347 19.8984 30.7168 19.8984C30.071 19.8984 29.6048 20.1276 29.3184 20.5859C29.0371 21.0443 28.8965 21.7708 28.8965 22.7656C28.8965 23.7708 29.0397 24.5052 29.3262 24.9688C29.6178 25.4271 30.0475 25.6562 30.6152 25.6562C31.2611 25.6562 31.7298 25.4297 32.0215 24.9766C32.3132 24.5182 32.459 23.7812 32.459 22.7656ZM44.1074 24.5312C44.1074 25.349 43.7715 25.9922 43.0996 26.4609C42.4329 26.9245 41.5085 27.1562 40.3262 27.1562C39.1647 27.1562 38.2741 26.974 37.6543 26.6094C37.0397 26.2396 36.6309 25.6667 36.4277 24.8906L38.3574 24.6016C38.4668 25.0026 38.6543 25.2865 38.9199 25.4531C39.1908 25.6198 39.6595 25.7031 40.3262 25.7031C40.9408 25.7031 41.3887 25.625 41.6699 25.4688C41.9512 25.3125 42.0918 25.0677 42.0918 24.7344C42.0918 24.4635 41.9772 24.25 41.748 24.0938C41.5241 23.9323 41.1413 23.7969 40.5996 23.6875C39.36 23.4427 38.5241 23.2161 38.0918 23.0078C37.6595 22.7943 37.3288 22.5208 37.0996 22.1875C36.8757 21.849 36.7637 21.4349 36.7637 20.9453C36.7637 20.138 37.0736 19.5104 37.6934 19.0625C38.3184 18.6094 39.2012 18.3828 40.3418 18.3828C41.347 18.3828 42.1543 18.5781 42.7637 18.9688C43.3783 19.3594 43.7611 19.9245 43.9121 20.6641L41.9668 20.8672C41.9043 20.5234 41.7507 20.2682 41.5059 20.1016C41.2611 19.9297 40.873 19.8438 40.3418 19.8438C39.821 19.8438 39.4303 19.9115 39.1699 20.0469C38.9095 20.1771 38.7793 20.3984 38.7793 20.7109C38.7793 20.9557 38.8783 21.151 39.0762 21.2969C39.2793 21.4375 39.6178 21.5547 40.0918 21.6484C40.7533 21.7839 41.3392 21.9245 41.8496 22.0703C42.3652 22.2109 42.7767 22.3802 43.084 22.5781C43.3965 22.776 43.6439 23.0312 43.8262 23.3438C44.0137 23.651 44.1074 24.0469 44.1074 24.5312ZM49.9824 27.1562C48.6699 27.1562 47.6569 26.7708 46.9434 26C46.2298 25.224 45.873 24.1354 45.873 22.7344C45.873 21.7969 46.0397 21.0052 46.373 20.3594C46.7116 19.7135 47.1908 19.224 47.8105 18.8906C48.4303 18.5573 49.1647 18.3906 50.0137 18.3906C51.248 18.3906 52.2064 18.8021 52.8887 19.625C53.571 20.4479 53.9121 21.6172 53.9121 23.1328V23.1953H48.1777C48.1777 23.9609 48.347 24.5677 48.6855 25.0156C49.0293 25.4635 49.498 25.6875 50.0918 25.6875C50.4772 25.6875 50.8184 25.6068 51.1152 25.4453C51.4121 25.2786 51.6126 25.0234 51.7168 24.6797L53.7871 24.8594C53.5007 25.5938 53.0241 26.1615 52.3574 26.5625C51.6908 26.9583 50.8991 27.1562 49.9824 27.1562ZM49.9824 19.7734C49.446 19.7734 49.0189 19.9557 48.7012 20.3203C48.3835 20.6797 48.2142 21.1797 48.1934 21.8203H51.7871C51.7507 21.1953 51.571 20.6979 51.248 20.3281C50.9303 19.9583 50.5085 19.7734 49.9824 19.7734ZM60.9043 25.5156H63.6621V27H55.623V25.5156H58.709V20.0312H56.4434V18.5469H60.9043V25.5156ZM58.709 17.0234V15.4062H60.9043V17.0234H58.709ZM70.6934 27C70.6725 26.9219 70.6465 26.7266 70.6152 26.4141C70.5892 26.0964 70.5762 25.8333 70.5762 25.625H70.5449C70.2689 26.1823 69.9277 26.5781 69.5215 26.8125C69.1152 27.0417 68.6335 27.1562 68.0762 27.1562C67.1439 27.1562 66.4095 26.7656 65.873 25.9844C65.3366 25.2031 65.0684 24.138 65.0684 22.7891C65.0684 21.4089 65.3366 20.3333 65.873 19.5625C66.4147 18.7917 67.1777 18.4062 68.1621 18.4062C68.7194 18.4062 69.2038 18.5339 69.6152 18.7891C70.0267 19.0391 70.3418 19.4089 70.5605 19.8984H70.5762L70.5605 18.5078V15.4062H72.7559V25.1562C72.7559 25.6771 72.7767 26.2917 72.8184 27H70.6934ZM70.5918 22.7344C70.5918 21.8333 70.446 21.1354 70.1543 20.6406C69.8626 20.1458 69.459 19.8984 68.9434 19.8984C68.4225 19.8984 68.0267 20.1432 67.7559 20.6328C67.4902 21.1172 67.3574 21.8359 67.3574 22.7891C67.3574 23.7474 67.4928 24.4661 67.7637 24.9453C68.0397 25.4193 68.4277 25.6562 68.9277 25.6562C69.2507 25.6562 69.5397 25.5417 69.7949 25.3125C70.0501 25.0781 70.2454 24.7448 70.3809 24.3125C70.5215 23.8802 70.5918 23.3542 70.5918 22.7344ZM82.8027 22.7656C82.8027 24.1667 82.4486 25.25 81.7402 26.0156C81.0319 26.776 80.0137 27.1562 78.6855 27.1562C77.4043 27.1562 76.4095 26.776 75.7012 26.0156C74.9928 25.25 74.6387 24.1667 74.6387 22.7656C74.6387 21.3698 74.9902 20.2917 75.6934 19.5312C76.3965 18.7708 77.4095 18.3906 78.7324 18.3906C81.446 18.3906 82.8027 19.849 82.8027 22.7656ZM80.5059 22.7656C80.5059 21.7656 80.373 21.0391 80.1074 20.5859C79.8418 20.1276 79.3939 19.8984 78.7637 19.8984C78.1178 19.8984 77.6517 20.1276 77.3652 20.5859C77.084 21.0443 76.9434 21.7708 76.9434 22.7656C76.9434 23.7708 77.0866 24.5052 77.373 24.9688C77.6647 25.4271 78.0944 25.6562 78.6621 25.6562C79.3079 25.6562 79.7767 25.4297 80.0684 24.9766C80.36 24.5182 80.5059 23.7812 80.5059 22.7656ZM89.9668 27V22.1641C89.9668 21.4297 89.8652 20.8906 89.6621 20.5469C89.4642 20.2031 89.1204 20.0312 88.6309 20.0312C88.0892 20.0312 87.6543 20.263 87.3262 20.7266C87.0033 21.1849 86.8418 21.7656 86.8418 22.4688V27H84.6465V20.4375C84.6465 19.9844 84.6387 19.6146 84.623 19.3281C84.6126 19.0365 84.5996 18.776 84.584 18.5469H86.6777C86.6934 18.6458 86.7142 18.9115 86.7402 19.3438C86.7663 19.7708 86.7793 20.0651 86.7793 20.2266H86.8105C87.1074 19.5807 87.4798 19.112 87.9277 18.8203C88.3757 18.5286 88.9095 18.3828 89.5293 18.3828C91.2793 18.3828 92.1543 19.4661 92.1543 21.6328V27H89.9668ZM98.1465 30.3203C97.3288 29.1432 96.7376 27.9688 96.373 26.7969C96.0085 25.625 95.8262 24.3099 95.8262 22.8516C95.8262 21.3984 96.0085 20.0885 96.373 18.9219C96.7376 17.75 97.3288 16.5781 98.1465 15.4062H100.342C99.5189 16.5938 98.9199 17.776 98.5449 18.9531C98.1751 20.1302 97.9902 21.4323 97.9902 22.8594C97.9902 24.2812 98.1751 25.5781 98.5449 26.75C98.9147 27.9167 99.5137 29.1068 100.342 30.3203H98.1465ZM30.748 51.1562C29.4668 51.1562 28.4772 50.776 27.7793 50.0156C27.0814 49.25 26.7324 48.1849 26.7324 46.8203C26.7324 45.4245 27.084 44.3385 27.7871 43.5625C28.4902 42.7812 29.4876 42.3906 30.7793 42.3906C31.7741 42.3906 32.597 42.6406 33.248 43.1406C33.8991 43.6406 34.3079 44.3307 34.4746 45.2109L32.2637 45.3203C32.2012 44.888 32.0449 44.5443 31.7949 44.2891C31.5449 44.0286 31.1908 43.8984 30.7324 43.8984C29.6022 43.8984 29.0371 44.8438 29.0371 46.7344C29.0371 48.6823 29.6126 49.6562 30.7637 49.6562C31.1803 49.6562 31.5293 49.526 31.8105 49.2656C32.0918 49 32.2663 48.6068 32.334 48.0859L34.5371 48.1875C34.459 48.7656 34.2507 49.2812 33.9121 49.7344C33.5788 50.1875 33.1387 50.5391 32.5918 50.7891C32.0449 51.0339 31.4303 51.1562 30.748 51.1562ZM38.7637 44.2344C39.0605 43.5885 39.4329 43.1198 39.8809 42.8281C40.3288 42.5365 40.8626 42.3906 41.4824 42.3906C42.3574 42.3906 43.0137 42.6562 43.4512 43.1875C43.8887 43.7188 44.1074 44.5365 44.1074 45.6406V51H41.9199V46.1484C41.9199 45.362 41.8132 44.8151 41.5996 44.5078C41.3913 44.1953 41.0475 44.0391 40.5684 44.0391C40.0371 44.0391 39.6074 44.2682 39.2793 44.7266C38.9564 45.1797 38.7949 45.763 38.7949 46.4766V51H36.5996V39.4062H38.7949V42.5703C38.7949 43.138 38.7741 43.6927 38.7324 44.2344H38.7637ZM48.5215 51.1562C47.7038 51.1562 47.0658 50.9349 46.6074 50.4922C46.1491 50.0443 45.9199 49.4167 45.9199 48.6094C45.9199 47.7344 46.1908 47.0703 46.7324 46.6172C47.2793 46.1589 48.0944 45.9219 49.1777 45.9062L50.9199 45.875V45.4453C50.9199 44.9089 50.8288 44.5026 50.6465 44.2266C50.4642 43.9505 50.1699 43.8125 49.7637 43.8125C49.3835 43.8125 49.1022 43.9089 48.9199 44.1016C48.7428 44.2891 48.6335 44.5911 48.5918 45.0078L46.3027 44.8984C46.584 43.2266 47.7689 42.3906 49.8574 42.3906C50.9095 42.3906 51.7142 42.6484 52.2715 43.1641C52.834 43.6797 53.1152 44.4375 53.1152 45.4375V48.5C53.1152 48.974 53.1673 49.3021 53.2715 49.4844C53.3809 49.6615 53.5605 49.75 53.8105 49.75C53.9772 49.75 54.1387 49.7344 54.2949 49.7031V50.8906C54.1647 50.9219 54.0475 50.9505 53.9434 50.9766C53.8392 51.0026 53.735 51.0234 53.6309 51.0391C53.5267 51.0547 53.4147 51.0677 53.2949 51.0781C53.1803 51.0885 53.0449 51.0938 52.8887 51.0938C52.3366 51.0938 51.9277 50.9583 51.6621 50.6875C51.4017 50.4167 51.2454 50.0182 51.1934 49.4922H51.1465C50.8184 50.0807 50.4434 50.5052 50.0215 50.7656C49.6048 51.026 49.1048 51.1562 48.5215 51.1562ZM50.9199 47.0859L49.873 47.1016C49.4043 47.112 49.0632 47.1615 48.8496 47.25C48.6413 47.3333 48.4824 47.4714 48.373 47.6641C48.2637 47.8516 48.209 48.1094 48.209 48.4375C48.209 49.2292 48.5215 49.625 49.1465 49.625C49.6517 49.625 50.0736 49.4271 50.4121 49.0312C50.7507 48.6302 50.9199 48.125 50.9199 47.5156V47.0859ZM60.9043 49.5156H63.6621V51H55.623V49.5156H58.709V44.0312H56.4434V42.5469H60.9043V49.5156ZM58.709 41.0234V39.4062H60.9043V41.0234H58.709ZM70.748 51V46.1641C70.748 45.4297 70.6465 44.8906 70.4434 44.5469C70.2454 44.2031 69.9017 44.0312 69.4121 44.0312C68.8704 44.0312 68.4355 44.263 68.1074 44.7266C67.7845 45.1849 67.623 45.7656 67.623 46.4688V51H65.4277V44.4375C65.4277 43.9844 65.4199 43.6146 65.4043 43.3281C65.3939 43.0365 65.3809 42.776 65.3652 42.5469H67.459C67.4746 42.6458 67.4954 42.9115 67.5215 43.3438C67.5475 43.7708 67.5605 44.0651 67.5605 44.2266H67.5918C67.8887 43.5807 68.2611 43.112 68.709 42.8203C69.1569 42.5286 69.6908 42.3828 70.3105 42.3828C72.0605 42.3828 72.9355 43.4661 72.9355 45.6328V51H70.748ZM73.8809 52.7188V51.9688H83.5527V52.7188H73.8809ZM89.7324 49.5156H92.4902V51H84.4512V49.5156H87.5371V44.0312H85.2715V42.5469H89.7324V49.5156ZM87.5371 41.0234V39.4062H89.7324V41.0234H87.5371ZM99.5215 51C99.5007 50.9219 99.4746 50.7266 99.4434 50.4141C99.4173 50.0964 99.4043 49.8333 99.4043 49.625H99.373C99.097 50.1823 98.7559 50.5781 98.3496 50.8125C97.9434 51.0417 97.4616 51.1562 96.9043 51.1562C95.972 51.1562 95.2376 50.7656 94.7012 49.9844C94.1647 49.2031 93.8965 48.138 93.8965 46.7891C93.8965 45.4089 94.1647 44.3333 94.7012 43.5625C95.2428 42.7917 96.0059 42.4062 96.9902 42.4062C97.5475 42.4062 98.0319 42.5339 98.4434 42.7891C98.8548 43.0391 99.1699 43.4089 99.3887 43.8984H99.4043L99.3887 42.5078V39.4062H101.584V49.1562C101.584 49.6771 101.605 50.2917 101.646 51H99.5215ZM99.4199 46.7344C99.4199 45.8333 99.2741 45.1354 98.9824 44.6406C98.6908 44.1458 98.2871 43.8984 97.7715 43.8984C97.2507 43.8984 96.8548 44.1432 96.584 44.6328C96.3184 45.1172 96.1855 45.8359 96.1855 46.7891C96.1855 47.7474 96.321 48.4661 96.5918 48.9453C96.8678 49.4193 97.2559 49.6562 97.7559 49.6562C98.0788 49.6562 98.3678 49.5417 98.623 49.3125C98.8783 49.0781 99.0736 48.7448 99.209 48.3125C99.3496 47.8802 99.4199 47.3542 99.4199 46.7344ZM107.639 51.1562C106.326 51.1562 105.313 50.7708 104.6 50C103.886 49.224 103.529 48.1354 103.529 46.7344C103.529 45.7969 103.696 45.0052 104.029 44.3594C104.368 43.7135 104.847 43.224 105.467 42.8906C106.087 42.5573 106.821 42.3906 107.67 42.3906C108.904 42.3906 109.863 42.8021 110.545 43.625C111.227 44.4479 111.568 45.6172 111.568 47.1328V47.1953H105.834C105.834 47.9609 106.003 48.5677 106.342 49.0156C106.686 49.4635 107.154 49.6875 107.748 49.6875C108.133 49.6875 108.475 49.6068 108.771 49.4453C109.068 49.2786 109.269 49.0234 109.373 48.6797L111.443 48.8594C111.157 49.5938 110.68 50.1615 110.014 50.5625C109.347 50.9583 108.555 51.1562 107.639 51.1562ZM107.639 43.7734C107.102 43.7734 106.675 43.9557 106.357 44.3203C106.04 44.6797 105.87 45.1797 105.85 45.8203H109.443C109.407 45.1953 109.227 44.6979 108.904 44.3281C108.587 43.9583 108.165 43.7734 107.639 43.7734ZM118.795 51V46.1641C118.795 45.4297 118.693 44.8906 118.49 44.5469C118.292 44.2031 117.949 44.0312 117.459 44.0312C116.917 44.0312 116.482 44.263 116.154 44.7266C115.831 45.1849 115.67 45.7656 115.67 46.4688V51H113.475V44.4375C113.475 43.9844 113.467 43.6146 113.451 43.3281C113.441 43.0365 113.428 42.776 113.412 42.5469H115.506C115.521 42.6458 115.542 42.9115 115.568 43.3438C115.594 43.7708 115.607 44.0651 115.607 44.2266H115.639C115.936 43.5807 116.308 43.112 116.756 42.8203C117.204 42.5286 117.738 42.3828 118.357 42.3828C120.107 42.3828 120.982 43.4661 120.982 45.6328V51H118.795ZM124.529 44.0312H123.225V42.5469H124.639L125.326 40.3438H126.701V42.5469H129.709V44.0312H126.701V48.1719C126.701 48.6302 126.743 48.9401 126.826 49.1016C126.915 49.2578 127.055 49.3828 127.248 49.4766C127.441 49.5651 127.712 49.6094 128.061 49.6094C128.706 49.6094 129.37 49.5391 130.053 49.3984V50.8516C129.313 50.9714 128.79 51.0417 128.482 51.0625C128.175 51.0885 127.855 51.1016 127.521 51.1016C126.86 51.1016 126.305 51.013 125.857 50.8359C125.415 50.6536 125.079 50.3724 124.85 49.9922C124.626 49.6068 124.514 49.0677 124.514 48.375L124.529 44.0312ZM137.779 49.5156H140.537V51H132.498V49.5156H135.584V44.0312H133.318V42.5469H137.779V49.5156ZM135.584 41.0234V39.4062H137.779V41.0234H135.584ZM146.287 44.0312V51H144.1V44.0312H142.1V42.5469H144.1V41.8984C144.1 40.9922 144.383 40.3125 144.951 39.8594C145.524 39.401 146.339 39.1719 147.396 39.1719C148.225 39.1719 149.076 39.2448 149.951 39.3906V40.8281C149.17 40.7292 148.446 40.6797 147.779 40.6797C147.269 40.6797 146.891 40.7865 146.646 41C146.407 41.2083 146.287 41.5755 146.287 42.1016V42.5469H149.748V44.0312H146.287ZM156.998 49.5156H159.756V51H151.717V49.5156H154.803V44.0312H152.537V42.5469H156.998V49.5156ZM154.803 41.0234V39.4062H156.998V41.0234H154.803ZM165.295 51.1562C163.982 51.1562 162.969 50.7708 162.256 50C161.542 49.224 161.186 48.1354 161.186 46.7344C161.186 45.7969 161.352 45.0052 161.686 44.3594C162.024 43.7135 162.503 43.224 163.123 42.8906C163.743 42.5573 164.477 42.3906 165.326 42.3906C166.561 42.3906 167.519 42.8021 168.201 43.625C168.883 44.4479 169.225 45.6172 169.225 47.1328V47.1953H163.49C163.49 47.9609 163.66 48.5677 163.998 49.0156C164.342 49.4635 164.811 49.6875 165.404 49.6875C165.79 49.6875 166.131 49.6068 166.428 49.4453C166.725 49.2786 166.925 49.0234 167.029 48.6797L169.1 48.8594C168.813 49.5938 168.337 50.1615 167.67 50.5625C167.003 50.9583 166.212 51.1562 165.295 51.1562ZM165.295 43.7734C164.758 43.7734 164.331 43.9557 164.014 44.3203C163.696 44.6797 163.527 45.1797 163.506 45.8203H167.1C167.063 45.1953 166.883 44.6979 166.561 44.3281C166.243 43.9583 165.821 43.7734 165.295 43.7734ZM178.459 44.375C177.876 44.276 177.324 44.2266 176.803 44.2266C175.99 44.2266 175.344 44.5339 174.865 45.1484C174.391 45.763 174.154 46.5729 174.154 47.5781V51H171.967V45.5234C171.967 45.1276 171.93 44.6615 171.857 44.125C171.79 43.5885 171.691 43.0625 171.561 42.5469H173.678C173.865 43.224 173.985 43.8177 174.037 44.3281H174.068C174.329 43.6198 174.68 43.1198 175.123 42.8281C175.566 42.5365 176.141 42.3906 176.85 42.3906C177.391 42.3906 177.928 42.4349 178.459 42.5234V44.375ZM183.295 51V48.6172H185.553V51H183.295ZM183.295 44.9062V42.5234H185.553V44.9062H183.295ZM206.201 44.4062H204.646L204.357 39.3984H206.506L206.201 44.4062ZM202.639 44.4062H201.084L200.795 39.3984H202.928L202.639 44.4062ZM213.342 51.1562C212.029 51.1562 211.016 50.7708 210.303 50C209.589 49.224 209.232 48.1354 209.232 46.7344C209.232 45.7969 209.399 45.0052 209.732 44.3594C210.071 43.7135 210.55 43.224 211.17 42.8906C211.79 42.5573 212.524 42.3906 213.373 42.3906C214.607 42.3906 215.566 42.8021 216.248 43.625C216.93 44.4479 217.271 45.6172 217.271 47.1328V47.1953H211.537C211.537 47.9609 211.706 48.5677 212.045 49.0156C212.389 49.4635 212.857 49.6875 213.451 49.6875C213.837 49.6875 214.178 49.6068 214.475 49.4453C214.771 49.2786 214.972 49.0234 215.076 48.6797L217.146 48.8594C216.86 49.5938 216.383 50.1615 215.717 50.5625C215.05 50.9583 214.258 51.1562 213.342 51.1562ZM213.342 43.7734C212.805 43.7734 212.378 43.9557 212.061 44.3203C211.743 44.6797 211.574 45.1797 211.553 45.8203H215.146C215.11 45.1953 214.93 44.6979 214.607 44.3281C214.29 43.9583 213.868 43.7734 213.342 43.7734ZM220.623 44.0312H219.318V42.5469H220.732L221.42 40.3438H222.795V42.5469H225.803V44.0312H222.795V48.1719C222.795 48.6302 222.837 48.9401 222.92 49.1016C223.008 49.2578 223.149 49.3828 223.342 49.4766C223.535 49.5651 223.805 49.6094 224.154 49.6094C224.8 49.6094 225.464 49.5391 226.146 49.3984V50.8516C225.407 50.9714 224.883 51.0417 224.576 51.0625C224.269 51.0885 223.949 51.1016 223.615 51.1016C222.954 51.1016 222.399 51.013 221.951 50.8359C221.508 50.6536 221.173 50.3724 220.943 49.9922C220.719 49.6068 220.607 49.0677 220.607 48.375L220.623 44.0312ZM230.951 44.2344C231.248 43.5885 231.62 43.1198 232.068 42.8281C232.516 42.5365 233.05 42.3906 233.67 42.3906C234.545 42.3906 235.201 42.6562 235.639 43.1875C236.076 43.7188 236.295 44.5365 236.295 45.6406V51H234.107V46.1484C234.107 45.362 234.001 44.8151 233.787 44.5078C233.579 44.1953 233.235 44.0391 232.756 44.0391C232.225 44.0391 231.795 44.2682 231.467 44.7266C231.144 45.1797 230.982 45.763 230.982 46.4766V51H228.787V39.4062H230.982V42.5703C230.982 43.138 230.962 43.6927 230.92 44.2344H230.951ZM242.17 51.1562C240.857 51.1562 239.844 50.7708 239.131 50C238.417 49.224 238.061 48.1354 238.061 46.7344C238.061 45.7969 238.227 45.0052 238.561 44.3594C238.899 43.7135 239.378 43.224 239.998 42.8906C240.618 42.5573 241.352 42.3906 242.201 42.3906C243.436 42.3906 244.394 42.8021 245.076 43.625C245.758 44.4479 246.1 45.6172 246.1 47.1328V47.1953H240.365C240.365 47.9609 240.535 48.5677 240.873 49.0156C241.217 49.4635 241.686 49.6875 242.279 49.6875C242.665 49.6875 243.006 49.6068 243.303 49.4453C243.6 49.2786 243.8 49.0234 243.904 48.6797L245.975 48.8594C245.688 49.5938 245.212 50.1615 244.545 50.5625C243.878 50.9583 243.087 51.1562 242.17 51.1562ZM242.17 43.7734C241.633 43.7734 241.206 43.9557 240.889 44.3203C240.571 44.6797 240.402 45.1797 240.381 45.8203H243.975C243.938 45.1953 243.758 44.6979 243.436 44.3281C243.118 43.9583 242.696 43.7734 242.17 43.7734ZM255.334 44.375C254.751 44.276 254.199 44.2266 253.678 44.2266C252.865 44.2266 252.219 44.5339 251.74 45.1484C251.266 45.763 251.029 46.5729 251.029 47.5781V51H248.842V45.5234C248.842 45.1276 248.805 44.6615 248.732 44.125C248.665 43.5885 248.566 43.0625 248.436 42.5469H250.553C250.74 43.224 250.86 43.8177 250.912 44.3281H250.943C251.204 43.6198 251.555 43.1198 251.998 42.8281C252.441 42.5365 253.016 42.3906 253.725 42.3906C254.266 42.3906 254.803 42.4349 255.334 42.5234V44.375ZM261.389 51.1562C260.076 51.1562 259.063 50.7708 258.35 50C257.636 49.224 257.279 48.1354 257.279 46.7344C257.279 45.7969 257.446 45.0052 257.779 44.3594C258.118 43.7135 258.597 43.224 259.217 42.8906C259.837 42.5573 260.571 42.3906 261.42 42.3906C262.654 42.3906 263.613 42.8021 264.295 43.625C264.977 44.4479 265.318 45.6172 265.318 47.1328V47.1953H259.584C259.584 47.9609 259.753 48.5677 260.092 49.0156C260.436 49.4635 260.904 49.6875 261.498 49.6875C261.883 49.6875 262.225 49.6068 262.521 49.4453C262.818 49.2786 263.019 49.0234 263.123 48.6797L265.193 48.8594C264.907 49.5938 264.43 50.1615 263.764 50.5625C263.097 50.9583 262.305 51.1562 261.389 51.1562ZM261.389 43.7734C260.852 43.7734 260.425 43.9557 260.107 44.3203C259.79 44.6797 259.62 45.1797 259.6 45.8203H263.193C263.157 45.1953 262.977 44.6979 262.654 44.3281C262.337 43.9583 261.915 43.7734 261.389 43.7734ZM269.357 42.5469V47.2891C269.357 48.0078 269.472 48.5599 269.701 48.9453C269.936 49.3255 270.269 49.5156 270.701 49.5156C271.17 49.5156 271.555 49.2865 271.857 48.8281C272.165 48.3646 272.318 47.7812 272.318 47.0781V42.5469H274.514V49.1094C274.514 49.8281 274.535 50.4583 274.576 51H272.482C272.42 50.25 272.389 49.6901 272.389 49.3203H272.35C271.792 50.5443 270.938 51.1562 269.787 51.1562C268.933 51.1562 268.282 50.8854 267.834 50.3438C267.386 49.7969 267.162 48.987 267.162 47.9141V42.5469H269.357ZM279.631 51V45.8594C279.631 45.0833 279.581 44.5443 279.482 44.2422C279.389 43.9401 279.212 43.7891 278.951 43.7891C278.686 43.7891 278.475 44.0339 278.318 44.5234C278.167 45.013 278.092 45.6562 278.092 46.4531V51H276.303V44.3516C276.303 43.3672 276.287 42.7656 276.256 42.5469H277.889L277.936 43.5391V43.9141H277.951C278.128 43.3828 278.352 42.9974 278.623 42.7578C278.894 42.513 279.232 42.3906 279.639 42.3906C280.097 42.3906 280.438 42.5156 280.662 42.7656C280.891 43.0156 281.055 43.401 281.154 43.9219H281.17C281.378 43.3698 281.626 42.9766 281.912 42.7422C282.204 42.5078 282.571 42.3906 283.014 42.3906C283.628 42.3906 284.068 42.6146 284.334 43.0625C284.6 43.5104 284.732 44.2786 284.732 45.3672V51H282.951V45.8594C282.951 45.0833 282.902 44.5443 282.803 44.2422C282.709 43.9401 282.532 43.7891 282.271 43.7891C282.006 43.7891 281.795 44 281.639 44.4219C281.488 44.8385 281.412 45.4661 281.412 46.3047V51H279.631ZM298.85 51V45.8594C298.85 45.0833 298.8 44.5443 298.701 44.2422C298.607 43.9401 298.43 43.7891 298.17 43.7891C297.904 43.7891 297.693 44.0339 297.537 44.5234C297.386 45.013 297.311 45.6562 297.311 46.4531V51H295.521V44.3516C295.521 43.3672 295.506 42.7656 295.475 42.5469H297.107L297.154 43.5391V43.9141H297.17C297.347 43.3828 297.571 42.9974 297.842 42.7578C298.113 42.513 298.451 42.3906 298.857 42.3906C299.316 42.3906 299.657 42.5156 299.881 42.7656C300.11 43.0156 300.274 43.401 300.373 43.9219H300.389C300.597 43.3698 300.844 42.9766 301.131 42.7422C301.423 42.5078 301.79 42.3906 302.232 42.3906C302.847 42.3906 303.287 42.6146 303.553 43.0625C303.818 43.5104 303.951 44.2786 303.951 45.3672V51H302.17V45.8594C302.17 45.0833 302.12 44.5443 302.021 44.2422C301.928 43.9401 301.751 43.7891 301.49 43.7891C301.225 43.7891 301.014 44 300.857 44.4219C300.706 44.8385 300.631 45.4661 300.631 46.3047V51H298.85ZM307.975 51.1562C307.157 51.1562 306.519 50.9349 306.061 50.4922C305.602 50.0443 305.373 49.4167 305.373 48.6094C305.373 47.7344 305.644 47.0703 306.186 46.6172C306.732 46.1589 307.548 45.9219 308.631 45.9062L310.373 45.875V45.4453C310.373 44.9089 310.282 44.5026 310.1 44.2266C309.917 43.9505 309.623 43.8125 309.217 43.8125C308.837 43.8125 308.555 43.9089 308.373 44.1016C308.196 44.2891 308.087 44.5911 308.045 45.0078L305.756 44.8984C306.037 43.2266 307.222 42.3906 309.311 42.3906C310.363 42.3906 311.167 42.6484 311.725 43.1641C312.287 43.6797 312.568 44.4375 312.568 45.4375V48.5C312.568 48.974 312.62 49.3021 312.725 49.4844C312.834 49.6615 313.014 49.75 313.264 49.75C313.43 49.75 313.592 49.7344 313.748 49.7031V50.8906C313.618 50.9219 313.501 50.9505 313.396 50.9766C313.292 51.0026 313.188 51.0234 313.084 51.0391C312.98 51.0547 312.868 51.0677 312.748 51.0781C312.633 51.0885 312.498 51.0938 312.342 51.0938C311.79 51.0938 311.381 50.9583 311.115 50.6875C310.855 50.4167 310.699 50.0182 310.646 49.4922H310.6C310.271 50.0807 309.896 50.5052 309.475 50.7656C309.058 51.026 308.558 51.1562 307.975 51.1562ZM310.373 47.0859L309.326 47.1016C308.857 47.112 308.516 47.1615 308.303 47.25C308.094 47.3333 307.936 47.4714 307.826 47.6641C307.717 47.8516 307.662 48.1094 307.662 48.4375C307.662 49.2292 307.975 49.625 308.6 49.625C309.105 49.625 309.527 49.4271 309.865 49.0312C310.204 48.6302 310.373 48.125 310.373 47.5156V47.0859ZM320.357 49.5156H323.115V51H315.076V49.5156H318.162V44.0312H315.896V42.5469H320.357V49.5156ZM318.162 41.0234V39.4062H320.357V41.0234H318.162ZM330.201 51V46.1641C330.201 45.4297 330.1 44.8906 329.896 44.5469C329.699 44.2031 329.355 44.0312 328.865 44.0312C328.324 44.0312 327.889 44.263 327.561 44.7266C327.238 45.1849 327.076 45.7656 327.076 46.4688V51H324.881V44.4375C324.881 43.9844 324.873 43.6146 324.857 43.3281C324.847 43.0365 324.834 42.776 324.818 42.5469H326.912C326.928 42.6458 326.949 42.9115 326.975 43.3438C327.001 43.7708 327.014 44.0651 327.014 44.2266H327.045C327.342 43.5807 327.714 43.112 328.162 42.8203C328.61 42.5286 329.144 42.3828 329.764 42.3828C331.514 42.3828 332.389 43.4661 332.389 45.6328V51H330.201ZM339.811 51V46.1641C339.811 45.4297 339.709 44.8906 339.506 44.5469C339.308 44.2031 338.964 44.0312 338.475 44.0312C337.933 44.0312 337.498 44.263 337.17 44.7266C336.847 45.1849 336.686 45.7656 336.686 46.4688V51H334.49V44.4375C334.49 43.9844 334.482 43.6146 334.467 43.3281C334.456 43.0365 334.443 42.776 334.428 42.5469H336.521C336.537 42.6458 336.558 42.9115 336.584 43.3438C336.61 43.7708 336.623 44.0651 336.623 44.2266H336.654C336.951 43.5807 337.324 43.112 337.771 42.8203C338.219 42.5286 338.753 42.3828 339.373 42.3828C341.123 42.3828 341.998 43.4661 341.998 45.6328V51H339.811ZM347.873 51.1562C346.561 51.1562 345.548 50.7708 344.834 50C344.12 49.224 343.764 48.1354 343.764 46.7344C343.764 45.7969 343.93 45.0052 344.264 44.3594C344.602 43.7135 345.081 43.224 345.701 42.8906C346.321 42.5573 347.055 42.3906 347.904 42.3906C349.139 42.3906 350.097 42.8021 350.779 43.625C351.462 44.4479 351.803 45.6172 351.803 47.1328V47.1953H346.068C346.068 47.9609 346.238 48.5677 346.576 49.0156C346.92 49.4635 347.389 49.6875 347.982 49.6875C348.368 49.6875 348.709 49.6068 349.006 49.4453C349.303 49.2786 349.503 49.0234 349.607 48.6797L351.678 48.8594C351.391 49.5938 350.915 50.1615 350.248 50.5625C349.581 50.9583 348.79 51.1562 347.873 51.1562ZM347.873 43.7734C347.337 43.7734 346.91 43.9557 346.592 44.3203C346.274 44.6797 346.105 45.1797 346.084 45.8203H349.678C349.641 45.1953 349.462 44.6979 349.139 44.3281C348.821 43.9583 348.399 43.7734 347.873 43.7734ZM355.154 44.0312H353.85V42.5469H355.264L355.951 40.3438H357.326V42.5469H360.334V44.0312H357.326V48.1719C357.326 48.6302 357.368 48.9401 357.451 49.1016C357.54 49.2578 357.68 49.3828 357.873 49.4766C358.066 49.5651 358.337 49.6094 358.686 49.6094C359.331 49.6094 359.995 49.5391 360.678 49.3984V50.8516C359.938 50.9714 359.415 51.0417 359.107 51.0625C358.8 51.0885 358.48 51.1016 358.146 51.1016C357.485 51.1016 356.93 51.013 356.482 50.8359C356.04 50.6536 355.704 50.3724 355.475 49.9922C355.251 49.6068 355.139 49.0677 355.139 48.375L355.154 44.0312ZM369.561 44.4062H368.006L367.717 39.3984H369.865L369.561 44.4062ZM365.998 44.4062H364.443L364.154 39.3984H366.287L365.998 44.4062ZM373.826 53.8359L375.146 48.6641H377.607L375.178 53.8359H373.826ZM29.3027 75.1562C28.485 75.1562 27.847 74.9349 27.3887 74.4922C26.9303 74.0443 26.7012 73.4167 26.7012 72.6094C26.7012 71.7344 26.972 71.0703 27.5137 70.6172C28.0605 70.1589 28.8757 69.9219 29.959 69.9062L31.7012 69.875V69.4453C31.7012 68.9089 31.61 68.5026 31.4277 68.2266C31.2454 67.9505 30.9512 67.8125 30.5449 67.8125C30.1647 67.8125 29.8835 67.9089 29.7012 68.1016C29.5241 68.2891 29.4147 68.5911 29.373 69.0078L27.084 68.8984C27.3652 67.2266 28.5501 66.3906 30.6387 66.3906C31.6908 66.3906 32.4954 66.6484 33.0527 67.1641C33.6152 67.6797 33.8965 68.4375 33.8965 69.4375V72.5C33.8965 72.974 33.9486 73.3021 34.0527 73.4844C34.1621 73.6615 34.3418 73.75 34.5918 73.75C34.7585 73.75 34.9199 73.7344 35.0762 73.7031V74.8906C34.946 74.9219 34.8288 74.9505 34.7246 74.9766C34.6204 75.0026 34.5163 75.0234 34.4121 75.0391C34.3079 75.0547 34.196 75.0677 34.0762 75.0781C33.9616 75.0885 33.8262 75.0938 33.6699 75.0938C33.1178 75.0938 32.709 74.9583 32.4434 74.6875C32.1829 74.4167 32.0267 74.0182 31.9746 73.4922H31.9277C31.5996 74.0807 31.2246 74.5052 30.8027 74.7656C30.3861 75.026 29.8861 75.1562 29.3027 75.1562ZM31.7012 71.0859L30.6543 71.1016C30.1855 71.112 29.8444 71.1615 29.6309 71.25C29.4225 71.3333 29.2637 71.4714 29.1543 71.6641C29.0449 71.8516 28.9902 72.1094 28.9902 72.4375C28.9902 73.2292 29.3027 73.625 29.9277 73.625C30.4329 73.625 30.8548 73.4271 31.1934 73.0312C31.5319 72.6302 31.7012 72.125 31.7012 71.5156V71.0859ZM39.3965 75V69.8594C39.3965 69.0833 39.347 68.5443 39.248 68.2422C39.1543 67.9401 38.9772 67.7891 38.7168 67.7891C38.4512 67.7891 38.2402 68.0339 38.084 68.5234C37.9329 69.013 37.8574 69.6562 37.8574 70.4531V75H36.0684V68.3516C36.0684 67.3672 36.0527 66.7656 36.0215 66.5469H37.6543L37.7012 67.5391V67.9141H37.7168C37.8939 67.3828 38.1178 66.9974 38.3887 66.7578C38.6595 66.513 38.998 66.3906 39.4043 66.3906C39.8626 66.3906 40.2038 66.5156 40.4277 66.7656C40.6569 67.0156 40.821 67.401 40.9199 67.9219H40.9355C41.1439 67.3698 41.3913 66.9766 41.6777 66.7422C41.9694 66.5078 42.3366 66.3906 42.7793 66.3906C43.3939 66.3906 43.834 66.6146 44.0996 67.0625C44.3652 67.5104 44.498 68.2786 44.498 69.3672V75H42.7168V69.8594C42.7168 69.0833 42.6673 68.5443 42.5684 68.2422C42.4746 67.9401 42.2975 67.7891 42.0371 67.7891C41.7715 67.7891 41.5605 68 41.4043 68.4219C41.2533 68.8385 41.1777 69.4661 41.1777 70.3047V75H39.3965ZM53.9746 70.7656C53.9746 72.1667 53.6204 73.25 52.9121 74.0156C52.2038 74.776 51.1855 75.1562 49.8574 75.1562C48.5762 75.1562 47.5814 74.776 46.873 74.0156C46.1647 73.25 45.8105 72.1667 45.8105 70.7656C45.8105 69.3698 46.1621 68.2917 46.8652 67.5312C47.5684 66.7708 48.5814 66.3906 49.9043 66.3906C52.6178 66.3906 53.9746 67.849 53.9746 70.7656ZM51.6777 70.7656C51.6777 69.7656 51.5449 69.0391 51.2793 68.5859C51.0137 68.1276 50.5658 67.8984 49.9355 67.8984C49.2897 67.8984 48.8236 68.1276 48.5371 68.5859C48.2559 69.0443 48.1152 69.7708 48.1152 70.7656C48.1152 71.7708 48.2585 72.5052 48.5449 72.9688C48.8366 73.4271 49.2663 73.6562 49.834 73.6562C50.4798 73.6562 50.9486 73.4297 51.2402 72.9766C51.5319 72.5182 51.6777 71.7812 51.6777 70.7656ZM57.9512 66.5469V71.2891C57.9512 72.0078 58.0658 72.5599 58.2949 72.9453C58.5293 73.3255 58.8626 73.5156 59.2949 73.5156C59.7637 73.5156 60.1491 73.2865 60.4512 72.8281C60.7585 72.3646 60.9121 71.7812 60.9121 71.0781V66.5469H63.1074V73.1094C63.1074 73.8281 63.1283 74.4583 63.1699 75H61.0762C61.0137 74.25 60.9824 73.6901 60.9824 73.3203H60.9434C60.3861 74.5443 59.5319 75.1562 58.3809 75.1562C57.5267 75.1562 56.8757 74.8854 56.4277 74.3438C55.9798 73.7969 55.7559 72.987 55.7559 71.9141V66.5469H57.9512ZM70.748 75V70.1641C70.748 69.4297 70.6465 68.8906 70.4434 68.5469C70.2454 68.2031 69.9017 68.0312 69.4121 68.0312C68.8704 68.0312 68.4355 68.263 68.1074 68.7266C67.7845 69.1849 67.623 69.7656 67.623 70.4688V75H65.4277V68.4375C65.4277 67.9844 65.4199 67.6146 65.4043 67.3281C65.3939 67.0365 65.3809 66.776 65.3652 66.5469H67.459C67.4746 66.6458 67.4954 66.9115 67.5215 67.3438C67.5475 67.7708 67.5605 68.0651 67.5605 68.2266H67.5918C67.8887 67.5807 68.2611 67.112 68.709 66.8203C69.1569 66.5286 69.6908 66.3828 70.3105 66.3828C72.0605 66.3828 72.9355 67.4661 72.9355 69.6328V75H70.748ZM76.4824 68.0312H75.1777V66.5469H76.5918L77.2793 64.3438H78.6543V66.5469H81.6621V68.0312H78.6543V72.1719C78.6543 72.6302 78.696 72.9401 78.7793 73.1016C78.8678 73.2578 79.0085 73.3828 79.2012 73.4766C79.3939 73.5651 79.6647 73.6094 80.0137 73.6094C80.6595 73.6094 81.3236 73.5391 82.0059 73.3984V74.8516C81.2663 74.9714 80.7428 75.0417 80.4355 75.0625C80.1283 75.0885 79.8079 75.1016 79.4746 75.1016C78.8132 75.1016 78.2585 75.013 77.8105 74.8359C77.3678 74.6536 77.0319 74.3724 76.8027 73.9922C76.5788 73.6068 76.4668 73.0677 76.4668 72.375L76.4824 68.0312ZM87.2012 75V72.6172H89.459V75H87.2012ZM87.2012 68.9062V66.5234H89.459V68.9062H87.2012ZM110.107 68.4062H108.553L108.264 63.3984H110.412L110.107 68.4062ZM106.545 68.4062H104.99L104.701 63.3984H106.834L106.545 68.4062ZM113.318 75V73.4766C113.579 72.9036 113.949 72.3307 114.428 71.7578C114.912 71.1797 115.615 70.5156 116.537 69.7656C117.256 69.1771 117.722 68.7708 117.936 68.5469C118.149 68.3229 118.316 68.1068 118.436 67.8984C118.561 67.6849 118.623 67.4688 118.623 67.25C118.623 66.875 118.501 66.5807 118.256 66.3672C118.011 66.1536 117.652 66.0469 117.178 66.0469C116.709 66.0469 116.35 66.1745 116.1 66.4297C115.855 66.6797 115.696 67.0573 115.623 67.5625L113.412 67.4375C113.537 66.4167 113.917 65.638 114.553 65.1016C115.193 64.5651 116.063 64.2969 117.162 64.2969C118.298 64.2969 119.196 64.5573 119.857 65.0781C120.519 65.5938 120.85 66.2865 120.85 67.1562C120.85 67.724 120.67 68.2786 120.311 68.8203C119.956 69.3568 119.423 69.9036 118.709 70.4609C117.699 71.2422 117.019 71.8047 116.67 72.1484C116.321 72.4922 116.068 72.8411 115.912 73.1953H121.021V75H113.318ZM126.857 75.1562C125.545 75.1562 124.532 74.7708 123.818 74C123.105 73.224 122.748 72.1354 122.748 70.7344C122.748 69.7969 122.915 69.0052 123.248 68.3594C123.587 67.7135 124.066 67.224 124.686 66.8906C125.305 66.5573 126.04 66.3906 126.889 66.3906C128.123 66.3906 129.081 66.8021 129.764 67.625C130.446 68.4479 130.787 69.6172 130.787 71.1328V71.1953H125.053C125.053 71.9609 125.222 72.5677 125.561 73.0156C125.904 73.4635 126.373 73.6875 126.967 73.6875C127.352 73.6875 127.693 73.6068 127.99 73.4453C128.287 73.2786 128.488 73.0234 128.592 72.6797L130.662 72.8594C130.376 73.5938 129.899 74.1615 129.232 74.5625C128.566 74.9583 127.774 75.1562 126.857 75.1562ZM126.857 67.7734C126.321 67.7734 125.894 67.9557 125.576 68.3203C125.258 68.6797 125.089 69.1797 125.068 69.8203H128.662C128.626 69.1953 128.446 68.6979 128.123 68.3281C127.805 67.9583 127.383 67.7734 126.857 67.7734ZM134.139 68.0312H132.834V66.5469H134.248L134.936 64.3438H136.311V66.5469H139.318V68.0312H136.311V72.1719C136.311 72.6302 136.352 72.9401 136.436 73.1016C136.524 73.2578 136.665 73.3828 136.857 73.4766C137.05 73.5651 137.321 73.6094 137.67 73.6094C138.316 73.6094 138.98 73.5391 139.662 73.3984V74.8516C138.923 74.9714 138.399 75.0417 138.092 75.0625C137.785 75.0885 137.464 75.1016 137.131 75.1016C136.469 75.1016 135.915 75.013 135.467 74.8359C135.024 74.6536 134.688 74.3724 134.459 73.9922C134.235 73.6068 134.123 73.0677 134.123 72.375L134.139 68.0312ZM144.467 68.2344C144.764 67.5885 145.136 67.1198 145.584 66.8281C146.032 66.5365 146.566 66.3906 147.186 66.3906C148.061 66.3906 148.717 66.6562 149.154 67.1875C149.592 67.7188 149.811 68.5365 149.811 69.6406V75H147.623V70.1484C147.623 69.362 147.516 68.8151 147.303 68.5078C147.094 68.1953 146.751 68.0391 146.271 68.0391C145.74 68.0391 145.311 68.2682 144.982 68.7266C144.66 69.1797 144.498 69.763 144.498 70.4766V75H142.303V63.4062H144.498V66.5703C144.498 67.138 144.477 67.6927 144.436 68.2344H144.467ZM158.154 68.4062H156.6L156.311 63.3984H158.459L158.154 68.4062ZM154.592 68.4062H153.037L152.748 63.3984H154.881L154.592 68.4062ZM162.42 77.8359L163.74 72.6641H166.201L163.771 77.8359H162.42ZM29.0918 90.5469C29.123 90.6562 29.1491 90.875 29.1699 91.2031C29.196 91.5312 29.209 91.7708 29.209 91.9219H29.2402C29.4902 91.4271 29.8236 91.0469 30.2402 90.7812C30.6621 90.5156 31.1517 90.3828 31.709 90.3828C32.6465 90.3828 33.3809 90.776 33.9121 91.5625C34.4486 92.349 34.7168 93.4141 34.7168 94.7578C34.7168 96.138 34.446 97.2161 33.9043 97.9922C33.3678 98.7682 32.6074 99.1562 31.623 99.1562C31.0658 99.1562 30.5814 99.0312 30.1699 98.7812C29.7585 98.526 29.4434 98.1536 29.2246 97.6641H29.209L29.2246 99.0547V102.32H27.0293V92.3906C27.0293 91.8698 27.0085 91.2552 26.9668 90.5469H29.0918ZM29.1934 94.8125C29.1934 95.4323 29.2611 95.9531 29.3965 96.375C29.5319 96.7917 29.722 97.112 29.9668 97.3359C30.2168 97.5547 30.5085 97.6641 30.8418 97.6641C31.3678 97.6641 31.7637 97.4167 32.0293 96.9219C32.2949 96.4271 32.4277 95.7057 32.4277 94.7578C32.4277 93.7995 32.2897 93.0807 32.0137 92.6016C31.7428 92.1224 31.3574 91.8828 30.8574 91.8828C30.5345 91.8828 30.2454 92 29.9902 92.2344C29.735 92.4635 29.5371 92.7943 29.3965 93.2266C29.2611 93.6589 29.1934 94.1875 29.1934 94.8125ZM38.7324 90.5469V95.2891C38.7324 96.0078 38.847 96.5599 39.0762 96.9453C39.3105 97.3255 39.6439 97.5156 40.0762 97.5156C40.5449 97.5156 40.9303 97.2865 41.2324 96.8281C41.5397 96.3646 41.6934 95.7812 41.6934 95.0781V90.5469H43.8887V97.1094C43.8887 97.8281 43.9095 98.4583 43.9512 99H41.8574C41.7949 98.25 41.7637 97.6901 41.7637 97.3203H41.7246C41.1673 98.5443 40.3132 99.1562 39.1621 99.1562C38.3079 99.1562 37.6569 98.8854 37.209 98.3438C36.7611 97.7969 36.5371 96.987 36.5371 95.9141V90.5469H38.7324ZM46.1855 99C46.2272 98.2917 46.248 97.6771 46.248 97.1562V87.4062H48.4434V90.4844L48.4277 91.875H48.4434C48.6569 91.401 48.9772 91.0339 49.4043 90.7734C49.8366 90.513 50.3418 90.3828 50.9199 90.3828C51.8887 90.3828 52.6335 90.7656 53.1543 91.5312C53.6751 92.2969 53.9355 93.3802 53.9355 94.7812C53.9355 96.1042 53.6595 97.1641 53.1074 97.9609C52.5553 98.7578 51.8027 99.1562 50.8496 99.1562C50.3079 99.1562 49.8314 99.0286 49.4199 98.7734C49.0137 98.513 48.6934 98.1302 48.459 97.625H48.4277C48.4277 97.7969 48.4147 98.0365 48.3887 98.3438C48.3678 98.6458 48.3418 98.8646 48.3105 99H46.1855ZM48.4121 94.7266C48.4121 95.3516 48.4798 95.8802 48.6152 96.3125C48.7559 96.7448 48.9512 97.0781 49.2012 97.3125C49.4564 97.5417 49.748 97.6562 50.0762 97.6562C50.5762 97.6562 50.9616 97.4167 51.2324 96.9375C51.5085 96.4583 51.6465 95.7396 51.6465 94.7812C51.6465 93.8281 51.5111 93.1068 51.2402 92.6172C50.9746 92.1224 50.5814 91.875 50.0605 91.875C49.5501 91.875 49.1465 92.125 48.8496 92.625C48.5579 93.125 48.4121 93.8255 48.4121 94.7266ZM60.9043 97.5156H63.6621V99H55.623V97.5156H58.709V88.8906H56.4434V87.4062H60.9043V97.5156ZM70.5137 97.5156H73.2715V99H65.2324V97.5156H68.3184V92.0312H66.0527V90.5469H70.5137V97.5156ZM68.3184 89.0234V87.4062H70.5137V89.0234H68.3184ZM78.7949 99.1562C77.5137 99.1562 76.5241 98.776 75.8262 98.0156C75.1283 97.25 74.7793 96.1849 74.7793 94.8203C74.7793 93.4245 75.1309 92.3385 75.834 91.5625C76.5371 90.7812 77.5345 90.3906 78.8262 90.3906C79.821 90.3906 80.6439 90.6406 81.2949 91.1406C81.946 91.6406 82.3548 92.3307 82.5215 93.2109L80.3105 93.3203C80.248 92.888 80.0918 92.5443 79.8418 92.2891C79.5918 92.0286 79.2376 91.8984 78.7793 91.8984C77.6491 91.8984 77.084 92.8438 77.084 94.7344C77.084 96.6823 77.6595 97.6562 78.8105 97.6562C79.2272 97.6562 79.5762 97.526 79.8574 97.2656C80.1387 97 80.3132 96.6068 80.3809 96.0859L82.584 96.1875C82.5059 96.7656 82.2975 97.2812 81.959 97.7344C81.6257 98.1875 81.1855 98.5391 80.6387 98.7891C80.0918 99.0339 79.4772 99.1562 78.7949 99.1562ZM83.4902 100.719V99.9688H93.1621V100.719H83.4902ZM99.8887 99L97.6309 95.1719L96.6855 95.8281V99H94.4902V87.4062H96.6855V94.0469L99.7012 90.5469H102.061L99.0918 93.8438L102.287 99H99.8887ZM107.639 99.1562C106.326 99.1562 105.313 98.7708 104.6 98C103.886 97.224 103.529 96.1354 103.529 94.7344C103.529 93.7969 103.696 93.0052 104.029 92.3594C104.368 91.7135 104.847 91.224 105.467 90.8906C106.087 90.5573 106.821 90.3906 107.67 90.3906C108.904 90.3906 109.863 90.8021 110.545 91.625C111.227 92.4479 111.568 93.6172 111.568 95.1328V95.1953H105.834C105.834 95.9609 106.003 96.5677 106.342 97.0156C106.686 97.4635 107.154 97.6875 107.748 97.6875C108.133 97.6875 108.475 97.6068 108.771 97.4453C109.068 97.2786 109.269 97.0234 109.373 96.6797L111.443 96.8594C111.157 97.5938 110.68 98.1615 110.014 98.5625C109.347 98.9583 108.555 99.1562 107.639 99.1562ZM107.639 91.7734C107.102 91.7734 106.675 91.9557 106.357 92.3203C106.04 92.6797 105.87 93.1797 105.85 93.8203H109.443C109.407 93.1953 109.227 92.6979 108.904 92.3281C108.587 91.9583 108.165 91.7734 107.639 91.7734ZM114.896 102.32C114.344 102.32 113.87 102.286 113.475 102.219V100.656L113.873 100.695L114.271 100.719C114.584 100.719 114.842 100.669 115.045 100.57C115.253 100.471 115.438 100.307 115.6 100.078C115.766 99.849 115.951 99.4609 116.154 98.9141L112.654 90.5469H114.975L116.459 94.6641C116.667 95.2318 116.93 96.1016 117.248 97.2734L117.318 96.9844L117.951 94.6953L119.357 90.5469H121.654L118.154 99.4453C117.738 100.518 117.282 101.266 116.787 101.688C116.292 102.109 115.662 102.32 114.896 102.32ZM125.639 99V96.6172H127.896V99H125.639ZM125.639 92.9062V90.5234H127.896V92.9062H125.639ZM21.1934 111.406L19.873 116.266H17.334L19.7637 111.406H21.1934ZM24.7793 111.406L23.459 116.266H20.9199L23.3496 111.406H24.7793ZM34.6465 119.453C34.6465 120.182 34.4824 120.828 34.1543 121.391C33.8314 121.948 33.36 122.383 32.7402 122.695C32.1257 123.003 31.4017 123.156 30.5684 123.156C29.4642 123.156 28.5788 122.909 27.9121 122.414C27.2507 121.914 26.8418 121.193 26.6855 120.25L28.8809 120.07C28.9954 120.539 29.1986 120.88 29.4902 121.094C29.7819 121.307 30.1491 121.414 30.5918 121.414C31.1543 121.414 31.5944 121.247 31.9121 120.914C32.2298 120.581 32.3887 120.109 32.3887 119.5C32.3887 118.958 32.235 118.526 31.9277 118.203C31.6204 117.875 31.1908 117.711 30.6387 117.711C30.0293 117.711 29.5319 117.948 29.1465 118.422H27.0059L27.3887 112.461H34.0059V114.094H29.3809L29.2012 116.641C29.7324 116.172 30.3965 115.938 31.1934 115.938C32.2402 115.938 33.0762 116.26 33.7012 116.906C34.3314 117.547 34.6465 118.396 34.6465 119.453ZM44.459 117.648C44.459 119.367 44.0579 120.69 43.2559 121.617C42.4538 122.539 41.3105 123 39.8262 123H36.5371V112.461H39.3574C41.0658 112.461 42.3418 112.891 43.1855 113.75C44.0345 114.604 44.459 115.904 44.459 117.648ZM42.1387 117.648C42.1387 116.466 41.9147 115.604 41.4668 115.062C41.0241 114.516 40.3079 114.242 39.3184 114.242H38.8418V121.219H39.6387C41.3053 121.219 42.1387 120.029 42.1387 117.648ZM53.5996 114.547C53.5579 115.255 53.5371 115.87 53.5371 116.391V126.32H51.3418V123.055L51.3574 121.664H51.3418C51.1283 122.138 50.8053 122.505 50.373 122.766C49.946 123.026 49.4434 123.156 48.8652 123.156C47.8965 123.156 47.1517 122.773 46.6309 122.008C46.11 121.242 45.8496 120.159 45.8496 118.758C45.8496 117.43 46.1283 116.37 46.6855 115.578C47.2428 114.781 47.9928 114.383 48.9355 114.383C50.0189 114.383 50.8158 114.896 51.3262 115.922H51.3574C51.3574 115.693 51.373 115.424 51.4043 115.117C51.4355 114.805 51.459 114.615 51.4746 114.547H53.5996ZM51.373 118.812C51.373 118.188 51.3027 117.659 51.1621 117.227C51.0267 116.794 50.8314 116.464 50.5762 116.234C50.3262 116 50.0371 115.883 49.709 115.883C49.209 115.883 48.821 116.122 48.5449 116.602C48.2741 117.081 48.1387 117.799 48.1387 118.758C48.1387 119.711 48.2715 120.435 48.5371 120.93C48.8079 121.419 49.2038 121.664 49.7246 121.664C50.235 121.664 50.6361 121.414 50.9277 120.914C51.2246 120.414 51.373 119.714 51.373 118.812ZM59.8027 116.031V123H57.6152V116.031H55.6152V114.547H57.6152V113.898C57.6152 112.992 57.8991 112.312 58.4668 111.859C59.0397 111.401 59.8548 111.172 60.9121 111.172C61.7402 111.172 62.5918 111.245 63.4668 111.391V112.828C62.6855 112.729 61.9616 112.68 61.2949 112.68C60.7845 112.68 60.4069 112.786 60.1621 113C59.9225 113.208 59.8027 113.576 59.8027 114.102V114.547H63.2637V116.031H59.8027ZM72.9512 117.555C72.9512 119.362 72.597 120.747 71.8887 121.711C71.1855 122.674 70.1699 123.156 68.8418 123.156C67.873 123.156 67.1126 122.951 66.5605 122.539C66.0137 122.122 65.6257 121.466 65.3965 120.57L67.459 120.281C67.6621 121.047 68.1309 121.43 68.8652 121.43C69.459 121.43 69.9251 121.159 70.2637 120.617C70.6074 120.07 70.7845 119.253 70.7949 118.164C70.597 118.555 70.2715 118.862 69.8184 119.086C69.3704 119.305 68.8861 119.414 68.3652 119.414C67.4121 119.414 66.6465 119.094 66.0684 118.453C65.4902 117.812 65.2012 116.951 65.2012 115.867C65.2012 114.758 65.5397 113.885 66.2168 113.25C66.8939 112.615 67.8366 112.297 69.0449 112.297C70.3158 112.297 71.2845 112.729 71.9512 113.594C72.6178 114.458 72.9512 115.779 72.9512 117.555ZM70.6309 116.133C70.6309 115.497 70.4772 114.987 70.1699 114.602C69.8626 114.211 69.4694 114.016 68.9902 114.016C68.5163 114.016 68.1361 114.185 67.8496 114.523C67.5684 114.857 67.4277 115.31 67.4277 115.883C67.4277 116.445 67.5684 116.904 67.8496 117.258C68.1361 117.607 68.5189 117.781 68.998 117.781C69.472 117.781 69.8626 117.63 70.1699 117.328C70.4772 117.021 70.6309 116.622 70.6309 116.133ZM78.5996 123.156C77.3184 123.156 76.3861 122.807 75.8027 122.109C75.2194 121.411 74.9277 120.333 74.9277 118.875V112.461H77.2324V118.852C77.2324 119.763 77.3366 120.409 77.5449 120.789C77.7585 121.164 78.1309 121.352 78.6621 121.352C79.2038 121.352 79.597 121.151 79.8418 120.75C80.0866 120.349 80.209 119.69 80.209 118.773V112.461H82.5137V118.758C82.5137 120.247 82.1908 121.354 81.5449 122.078C80.9043 122.797 79.9225 123.156 78.5996 123.156ZM86.498 117.68C86.498 118.852 86.6803 119.755 87.0449 120.391C87.4095 121.026 87.9538 121.344 88.6777 121.344C89.5215 121.344 90.1465 120.708 90.5527 119.438L92.6855 119.844C91.9928 122.052 90.6491 123.156 88.6543 123.156C87.1908 123.156 86.0736 122.693 85.3027 121.766C84.5371 120.833 84.1543 119.471 84.1543 117.68C84.1543 114.091 85.6335 112.297 88.5918 112.297C89.5605 112.297 90.3704 112.552 91.0215 113.062C91.6777 113.573 92.1595 114.331 92.4668 115.336L90.3418 115.852C90.1908 115.299 89.9642 114.872 89.6621 114.57C89.36 114.263 89.0137 114.109 88.623 114.109C87.2064 114.109 86.498 115.299 86.498 117.68ZM99.123 123H96.7871L93.1621 112.461H95.5684L97.3887 118.516C97.5293 118.974 97.722 119.667 97.9668 120.594L98.1309 119.922L98.5293 118.516L100.342 112.461H102.725L99.123 123ZM111.498 120.016C111.498 120.995 111.152 121.763 110.459 122.32C109.766 122.878 108.798 123.156 107.553 123.156C106.318 123.156 105.35 122.88 104.646 122.328C103.949 121.776 103.6 121.01 103.6 120.031C103.6 119.365 103.805 118.799 104.217 118.336C104.633 117.872 105.175 117.586 105.842 117.477V117.445C105.253 117.315 104.774 117.034 104.404 116.602C104.04 116.169 103.857 115.667 103.857 115.094C103.857 114.24 104.18 113.56 104.826 113.055C105.477 112.549 106.376 112.297 107.521 112.297C108.704 112.297 109.615 112.542 110.256 113.031C110.902 113.521 111.225 114.214 111.225 115.109C111.225 115.661 111.04 116.156 110.67 116.594C110.3 117.031 109.818 117.31 109.225 117.43V117.461C109.928 117.576 110.482 117.859 110.889 118.312C111.295 118.766 111.498 119.333 111.498 120.016ZM108.967 115.227C108.967 114.299 108.485 113.836 107.521 113.836C106.574 113.836 106.1 114.299 106.1 115.227C106.1 115.701 106.222 116.062 106.467 116.312C106.717 116.562 107.074 116.688 107.537 116.688C108.49 116.688 108.967 116.201 108.967 115.227ZM109.225 119.836C109.225 119.31 109.079 118.911 108.787 118.641C108.501 118.365 108.074 118.227 107.506 118.227C106.98 118.227 106.574 118.372 106.287 118.664C106.001 118.951 105.857 119.352 105.857 119.867C105.857 121.029 106.428 121.609 107.568 121.609C108.12 121.609 108.535 121.469 108.811 121.188C109.087 120.906 109.225 120.456 109.225 119.836ZM117.037 123.156C115.756 123.156 114.824 122.807 114.24 122.109C113.657 121.411 113.365 120.333 113.365 118.875V112.461H115.67V118.852C115.67 119.763 115.774 120.409 115.982 120.789C116.196 121.164 116.568 121.352 117.1 121.352C117.641 121.352 118.035 121.151 118.279 120.75C118.524 120.349 118.646 119.69 118.646 118.773V112.461H120.951V118.758C120.951 120.247 120.628 121.354 119.982 122.078C119.342 122.797 118.36 123.156 117.037 123.156ZM130.412 116.375C129.829 116.276 129.277 116.227 128.756 116.227C127.943 116.227 127.298 116.534 126.818 117.148C126.344 117.763 126.107 118.573 126.107 119.578V123H123.92V117.523C123.92 117.128 123.883 116.661 123.811 116.125C123.743 115.589 123.644 115.062 123.514 114.547H125.631C125.818 115.224 125.938 115.818 125.99 116.328H126.021C126.282 115.62 126.633 115.12 127.076 114.828C127.519 114.536 128.094 114.391 128.803 114.391C129.344 114.391 129.881 114.435 130.412 114.523V116.375ZM138.014 123V118.164C138.014 117.43 137.912 116.891 137.709 116.547C137.511 116.203 137.167 116.031 136.678 116.031C136.136 116.031 135.701 116.263 135.373 116.727C135.05 117.185 134.889 117.766 134.889 118.469V123H132.693V116.438C132.693 115.984 132.686 115.615 132.67 115.328C132.66 115.036 132.646 114.776 132.631 114.547H134.725C134.74 114.646 134.761 114.911 134.787 115.344C134.813 115.771 134.826 116.065 134.826 116.227H134.857C135.154 115.581 135.527 115.112 135.975 114.82C136.423 114.529 136.956 114.383 137.576 114.383C139.326 114.383 140.201 115.466 140.201 117.633V123H138.014ZM144.404 114.547C144.436 114.656 144.462 114.875 144.482 115.203C144.508 115.531 144.521 115.771 144.521 115.922H144.553C144.803 115.427 145.136 115.047 145.553 114.781C145.975 114.516 146.464 114.383 147.021 114.383C147.959 114.383 148.693 114.776 149.225 115.562C149.761 116.349 150.029 117.414 150.029 118.758C150.029 120.138 149.758 121.216 149.217 121.992C148.68 122.768 147.92 123.156 146.936 123.156C146.378 123.156 145.894 123.031 145.482 122.781C145.071 122.526 144.756 122.154 144.537 121.664H144.521L144.537 123.055V126.32H142.342V116.391C142.342 115.87 142.321 115.255 142.279 114.547H144.404ZM144.506 118.812C144.506 119.432 144.574 119.953 144.709 120.375C144.844 120.792 145.035 121.112 145.279 121.336C145.529 121.555 145.821 121.664 146.154 121.664C146.68 121.664 147.076 121.417 147.342 120.922C147.607 120.427 147.74 119.706 147.74 118.758C147.74 117.799 147.602 117.081 147.326 116.602C147.055 116.122 146.67 115.883 146.17 115.883C145.847 115.883 145.558 116 145.303 116.234C145.048 116.464 144.85 116.794 144.709 117.227C144.574 117.659 144.506 118.188 144.506 118.812ZM157.787 123L155.521 118.977H154.17V123H151.865V112.461H155.725C157.1 112.461 158.128 112.729 158.811 113.266C159.493 113.802 159.834 114.576 159.834 115.586C159.834 116.299 159.641 116.906 159.256 117.406C158.87 117.906 158.337 118.258 157.654 118.461L160.381 123H157.787ZM157.514 115.68C157.514 115.19 157.352 114.831 157.029 114.602C156.706 114.367 156.191 114.25 155.482 114.25H154.17V117.188H155.545C156.857 117.188 157.514 116.685 157.514 115.68ZM165.217 126.391C164.248 126.391 163.459 126.19 162.85 125.789C162.24 125.388 161.865 124.831 161.725 124.117L163.92 123.859C163.998 124.198 164.16 124.466 164.404 124.664C164.649 124.862 164.941 124.961 165.279 124.961C165.805 124.961 166.204 124.771 166.475 124.391C166.745 124.016 166.881 123.456 166.881 122.711V122.25L166.896 121.352H166.881C166.396 122.388 165.542 122.906 164.318 122.906C163.386 122.906 162.662 122.544 162.146 121.82C161.631 121.091 161.373 120.052 161.373 118.703C161.373 117.339 161.641 116.284 162.178 115.539C162.714 114.789 163.482 114.414 164.482 114.414C165.029 114.414 165.508 114.542 165.92 114.797C166.331 115.047 166.652 115.417 166.881 115.906H166.92C166.92 115.724 166.93 115.477 166.951 115.164C166.977 114.852 167.003 114.646 167.029 114.547H169.107C169.076 115.109 169.061 115.76 169.061 116.5V122.742C169.061 123.924 168.727 124.828 168.061 125.453C167.399 126.078 166.451 126.391 165.217 126.391ZM166.896 118.656C166.896 117.802 166.751 117.133 166.459 116.648C166.167 116.164 165.769 115.922 165.264 115.922C164.743 115.922 164.344 116.159 164.068 116.633C163.798 117.102 163.662 117.792 163.662 118.703C163.662 119.609 163.803 120.284 164.084 120.727C164.365 121.164 164.753 121.383 165.248 121.383C165.779 121.383 166.186 121.138 166.467 120.648C166.753 120.159 166.896 119.495 166.896 118.656ZM178.521 114.547C178.48 115.255 178.459 115.87 178.459 116.391V126.32H176.264V123.055L176.279 121.664H176.264C176.05 122.138 175.727 122.505 175.295 122.766C174.868 123.026 174.365 123.156 173.787 123.156C172.818 123.156 172.074 122.773 171.553 122.008C171.032 121.242 170.771 120.159 170.771 118.758C170.771 117.43 171.05 116.37 171.607 115.578C172.165 114.781 172.915 114.383 173.857 114.383C174.941 114.383 175.738 114.896 176.248 115.922H176.279C176.279 115.693 176.295 115.424 176.326 115.117C176.357 114.805 176.381 114.615 176.396 114.547H178.521ZM176.295 118.812C176.295 118.188 176.225 117.659 176.084 117.227C175.949 116.794 175.753 116.464 175.498 116.234C175.248 116 174.959 115.883 174.631 115.883C174.131 115.883 173.743 116.122 173.467 116.602C173.196 117.081 173.061 117.799 173.061 118.758C173.061 119.711 173.193 120.435 173.459 120.93C173.73 121.419 174.126 121.664 174.646 121.664C175.157 121.664 175.558 121.414 175.85 120.914C176.146 120.414 176.295 119.714 176.295 118.812ZM184.029 123.156C183.008 123.156 182.191 122.872 181.576 122.305C180.962 121.737 180.576 120.922 180.42 119.859L182.693 119.523C182.798 120.138 182.967 120.596 183.201 120.898C183.436 121.201 183.717 121.352 184.045 121.352C184.425 121.352 184.727 121.198 184.951 120.891C185.175 120.583 185.287 120.143 185.287 119.57V114.266H182.936V112.461H187.584V119.516C187.584 120.651 187.269 121.542 186.639 122.188C186.008 122.833 185.139 123.156 184.029 123.156ZM198.154 115.789C198.154 116.487 197.995 117.102 197.678 117.633C197.36 118.159 196.899 118.565 196.295 118.852C195.696 119.138 194.977 119.281 194.139 119.281H192.6V123H190.295V112.461H194.045C195.383 112.461 196.402 112.745 197.1 113.312C197.803 113.875 198.154 114.701 198.154 115.789ZM195.834 115.828C195.834 115.26 195.662 114.857 195.318 114.617C194.98 114.372 194.469 114.25 193.787 114.25H192.6V117.508H193.85C194.537 117.508 195.04 117.367 195.357 117.086C195.675 116.799 195.834 116.38 195.834 115.828ZM199.936 123C199.977 122.292 199.998 121.677 199.998 121.156V111.406H202.193V114.484L202.178 115.875H202.193C202.407 115.401 202.727 115.034 203.154 114.773C203.587 114.513 204.092 114.383 204.67 114.383C205.639 114.383 206.383 114.766 206.904 115.531C207.425 116.297 207.686 117.38 207.686 118.781C207.686 120.104 207.41 121.164 206.857 121.961C206.305 122.758 205.553 123.156 204.6 123.156C204.058 123.156 203.581 123.029 203.17 122.773C202.764 122.513 202.443 122.13 202.209 121.625H202.178C202.178 121.797 202.165 122.036 202.139 122.344C202.118 122.646 202.092 122.865 202.061 123H199.936ZM202.162 118.727C202.162 119.352 202.23 119.88 202.365 120.312C202.506 120.745 202.701 121.078 202.951 121.312C203.206 121.542 203.498 121.656 203.826 121.656C204.326 121.656 204.712 121.417 204.982 120.938C205.258 120.458 205.396 119.74 205.396 118.781C205.396 117.828 205.261 117.107 204.99 116.617C204.725 116.122 204.331 115.875 203.811 115.875C203.3 115.875 202.896 116.125 202.6 116.625C202.308 117.125 202.162 117.826 202.162 118.727ZM213.342 123.156C212.029 123.156 211.016 122.771 210.303 122C209.589 121.224 209.232 120.135 209.232 118.734C209.232 117.797 209.399 117.005 209.732 116.359C210.071 115.714 210.55 115.224 211.17 114.891C211.79 114.557 212.524 114.391 213.373 114.391C214.607 114.391 215.566 114.802 216.248 115.625C216.93 116.448 217.271 117.617 217.271 119.133V119.195H211.537C211.537 119.961 211.706 120.568 212.045 121.016C212.389 121.464 212.857 121.688 213.451 121.688C213.837 121.688 214.178 121.607 214.475 121.445C214.771 121.279 214.972 121.023 215.076 120.68L217.146 120.859C216.86 121.594 216.383 122.161 215.717 122.562C215.05 122.958 214.258 123.156 213.342 123.156ZM213.342 115.773C212.805 115.773 212.378 115.956 212.061 116.32C211.743 116.68 211.574 117.18 211.553 117.82H215.146C215.11 117.195 214.93 116.698 214.607 116.328C214.29 115.958 213.868 115.773 213.342 115.773ZM226.85 120.062C226.85 121.047 226.495 121.812 225.787 122.359C225.084 122.906 224.11 123.18 222.865 123.18C221.667 123.18 220.717 122.919 220.014 122.398C219.316 121.872 218.907 121.115 218.787 120.125L221.021 119.93C221.152 120.909 221.764 121.398 222.857 121.398C223.404 121.398 223.831 121.268 224.139 121.008C224.446 120.742 224.6 120.383 224.6 119.93C224.6 119.477 224.41 119.13 224.029 118.891C223.654 118.651 223.115 118.531 222.412 118.531H221.646V116.758H222.365C223.001 116.758 223.488 116.638 223.826 116.398C224.17 116.154 224.342 115.815 224.342 115.383C224.342 114.992 224.199 114.672 223.912 114.422C223.631 114.172 223.253 114.047 222.779 114.047C222.331 114.047 221.962 114.154 221.67 114.367C221.378 114.576 221.212 114.909 221.17 115.367L218.975 115.211C219.089 114.279 219.482 113.56 220.154 113.055C220.831 112.549 221.719 112.297 222.818 112.297C223.589 112.297 224.256 112.414 224.818 112.648C225.386 112.883 225.818 113.214 226.115 113.641C226.417 114.062 226.568 114.552 226.568 115.109C226.568 115.75 226.365 116.284 225.959 116.711C225.553 117.138 224.972 117.424 224.217 117.57V117.602C225.035 117.695 225.678 117.964 226.146 118.406C226.615 118.844 226.85 119.396 226.85 120.062ZM235.701 123H233.795L232.678 119.32C232.548 118.904 232.477 118.638 232.467 118.523C232.462 118.57 232.433 118.693 232.381 118.891C232.329 119.083 231.896 120.453 231.084 123H229.186L227.756 114.547H229.537L230.186 119.289C230.285 120.081 230.334 120.669 230.334 121.055L230.49 120.477L231.717 116.617H233.225L234.318 120.172C234.396 120.432 234.472 120.727 234.545 121.055C234.545 120.732 234.571 120.359 234.623 119.938C234.675 119.516 234.941 117.719 235.42 114.547H237.186L235.701 123ZM240.248 117.68C240.248 118.852 240.43 119.755 240.795 120.391C241.16 121.026 241.704 121.344 242.428 121.344C243.271 121.344 243.896 120.708 244.303 119.438L246.436 119.844C245.743 122.052 244.399 123.156 242.404 123.156C240.941 123.156 239.824 122.693 239.053 121.766C238.287 120.833 237.904 119.471 237.904 117.68C237.904 114.091 239.383 112.297 242.342 112.297C243.311 112.297 244.12 112.552 244.771 113.062C245.428 113.573 245.91 114.331 246.217 115.336L244.092 115.852C243.941 115.299 243.714 114.872 243.412 114.57C243.11 114.263 242.764 114.109 242.373 114.109C240.956 114.109 240.248 115.299 240.248 117.68ZM254.92 123H253.014L251.896 119.32C251.766 118.904 251.696 118.638 251.686 118.523C251.68 118.57 251.652 118.693 251.6 118.891C251.548 119.083 251.115 120.453 250.303 123H248.404L246.975 114.547H248.756L249.404 119.289C249.503 120.081 249.553 120.669 249.553 121.055L249.709 120.477L250.936 116.617H252.443L253.537 120.172C253.615 120.432 253.691 120.727 253.764 121.055C253.764 120.732 253.79 120.359 253.842 119.938C253.894 119.516 254.16 117.719 254.639 114.547H256.404L254.92 123ZM263.678 123L261.311 119.148L258.936 123H256.498L260.084 117.445L256.818 112.461H259.256L261.311 115.82L263.357 112.461H265.779L262.436 117.445L266.1 123H263.678ZM270.771 116.266L272.092 111.406H274.631L272.201 116.266H270.771ZM267.186 116.266L268.506 111.406H271.045L268.615 116.266H267.186ZM277.732 125.836L279.053 120.664H281.514L279.084 125.836H277.732ZM26.9668 147C27.0085 146.292 27.0293 145.677 27.0293 145.156V135.406H29.2246V138.484L29.209 139.875H29.2246C29.4382 139.401 29.7585 139.034 30.1855 138.773C30.6178 138.513 31.123 138.383 31.7012 138.383C32.6699 138.383 33.4147 138.766 33.9355 139.531C34.4564 140.297 34.7168 141.38 34.7168 142.781C34.7168 144.104 34.4408 145.164 33.8887 145.961C33.3366 146.758 32.584 147.156 31.6309 147.156C31.0892 147.156 30.6126 147.029 30.2012 146.773C29.7949 146.513 29.4746 146.13 29.2402 145.625H29.209C29.209 145.797 29.196 146.036 29.1699 146.344C29.1491 146.646 29.123 146.865 29.0918 147H26.9668ZM29.1934 142.727C29.1934 143.352 29.2611 143.88 29.3965 144.312C29.5371 144.745 29.7324 145.078 29.9824 145.312C30.2376 145.542 30.5293 145.656 30.8574 145.656C31.3574 145.656 31.7428 145.417 32.0137 144.938C32.2897 144.458 32.4277 143.74 32.4277 142.781C32.4277 141.828 32.2923 141.107 32.0215 140.617C31.7559 140.122 31.3626 139.875 30.8418 139.875C30.3314 139.875 29.9277 140.125 29.6309 140.625C29.3392 141.125 29.1934 141.826 29.1934 142.727ZM41.6855 145.516H44.4434V147H36.4043V145.516H39.4902V136.891H37.2246V135.406H41.6855V145.516ZM51.2949 145.516H54.0527V147H46.0137V145.516H49.0996V140.031H46.834V138.547H51.2949V145.516ZM49.0996 137.023V135.406H51.2949V137.023H49.0996ZM61.1387 147V142.164C61.1387 141.43 61.0371 140.891 60.834 140.547C60.6361 140.203 60.2923 140.031 59.8027 140.031C59.2611 140.031 58.8262 140.263 58.498 140.727C58.1751 141.185 58.0137 141.766 58.0137 142.469V147H55.8184V140.438C55.8184 139.984 55.8105 139.615 55.7949 139.328C55.7845 139.036 55.7715 138.776 55.7559 138.547H57.8496C57.8652 138.646 57.8861 138.911 57.9121 139.344C57.9382 139.771 57.9512 140.065 57.9512 140.227H57.9824C58.2793 139.581 58.6517 139.112 59.0996 138.82C59.5475 138.529 60.0814 138.383 60.7012 138.383C62.4512 138.383 63.3262 139.466 63.3262 141.633V147H61.1387ZM70.6934 147C70.6725 146.922 70.6465 146.727 70.6152 146.414C70.5892 146.096 70.5762 145.833 70.5762 145.625H70.5449C70.2689 146.182 69.9277 146.578 69.5215 146.812C69.1152 147.042 68.6335 147.156 68.0762 147.156C67.1439 147.156 66.4095 146.766 65.873 145.984C65.3366 145.203 65.0684 144.138 65.0684 142.789C65.0684 141.409 65.3366 140.333 65.873 139.562C66.4147 138.792 67.1777 138.406 68.1621 138.406C68.7194 138.406 69.2038 138.534 69.6152 138.789C70.0267 139.039 70.3418 139.409 70.5605 139.898H70.5762L70.5605 138.508V135.406H72.7559V145.156C72.7559 145.677 72.7767 146.292 72.8184 147H70.6934ZM70.5918 142.734C70.5918 141.833 70.446 141.135 70.1543 140.641C69.8626 140.146 69.459 139.898 68.9434 139.898C68.4225 139.898 68.0267 140.143 67.7559 140.633C67.4902 141.117 67.3574 141.836 67.3574 142.789C67.3574 143.747 67.4928 144.466 67.7637 144.945C68.0397 145.419 68.4277 145.656 68.9277 145.656C69.2507 145.656 69.5397 145.542 69.7949 145.312C70.0501 145.078 70.2454 144.745 70.3809 144.312C70.5215 143.88 70.5918 143.354 70.5918 142.734ZM80.123 145.516H82.8809V147H74.8418V145.516H77.9277V140.031H75.6621V138.547H80.123V145.516ZM77.9277 137.023V135.406H80.123V137.023H77.9277ZM89.9668 147V142.164C89.9668 141.43 89.8652 140.891 89.6621 140.547C89.4642 140.203 89.1204 140.031 88.6309 140.031C88.0892 140.031 87.6543 140.263 87.3262 140.727C87.0033 141.185 86.8418 141.766 86.8418 142.469V147H84.6465V140.438C84.6465 139.984 84.6387 139.615 84.623 139.328C84.6126 139.036 84.5996 138.776 84.584 138.547H86.6777C86.6934 138.646 86.7142 138.911 86.7402 139.344C86.7663 139.771 86.7793 140.065 86.7793 140.227H86.8105C87.1074 139.581 87.4798 139.112 87.9277 138.82C88.3757 138.529 88.9095 138.383 89.5293 138.383C91.2793 138.383 92.1543 139.466 92.1543 141.633V147H89.9668ZM97.9512 150.391C96.9824 150.391 96.1934 150.19 95.584 149.789C94.9746 149.388 94.5996 148.831 94.459 148.117L96.6543 147.859C96.7324 148.198 96.8939 148.466 97.1387 148.664C97.3835 148.862 97.6751 148.961 98.0137 148.961C98.5397 148.961 98.9382 148.771 99.209 148.391C99.4798 148.016 99.6152 147.456 99.6152 146.711V146.25L99.6309 145.352H99.6152C99.1309 146.388 98.2767 146.906 97.0527 146.906C96.1204 146.906 95.3965 146.544 94.8809 145.82C94.3652 145.091 94.1074 144.052 94.1074 142.703C94.1074 141.339 94.3757 140.284 94.9121 139.539C95.4486 138.789 96.2168 138.414 97.2168 138.414C97.7637 138.414 98.2428 138.542 98.6543 138.797C99.0658 139.047 99.3861 139.417 99.6152 139.906H99.6543C99.6543 139.724 99.6647 139.477 99.6855 139.164C99.7116 138.852 99.7376 138.646 99.7637 138.547H101.842C101.811 139.109 101.795 139.76 101.795 140.5V146.742C101.795 147.924 101.462 148.828 100.795 149.453C100.133 150.078 99.1855 150.391 97.9512 150.391ZM99.6309 142.656C99.6309 141.802 99.485 141.133 99.1934 140.648C98.9017 140.164 98.5033 139.922 97.998 139.922C97.4772 139.922 97.0788 140.159 96.8027 140.633C96.5319 141.102 96.3965 141.792 96.3965 142.703C96.3965 143.609 96.5371 144.284 96.8184 144.727C97.0996 145.164 97.4876 145.383 97.9824 145.383C98.5137 145.383 98.9199 145.138 99.2012 144.648C99.4876 144.159 99.6309 143.495 99.6309 142.656ZM106.42 147V144.617H108.678V147H106.42ZM106.42 140.906V138.523H108.678V140.906H106.42ZM126.631 140.266L127.951 135.406H130.49L128.061 140.266H126.631ZM123.045 140.266L124.365 135.406H126.904L124.475 140.266H123.045ZM139.232 144.758V147H137.139V144.758H132.131V143.109L136.779 136.461H139.232V143.125H140.701V144.758H139.232ZM137.139 139.914C137.139 139.633 137.146 139.328 137.162 139C137.183 138.672 137.199 138.461 137.209 138.367C137.074 138.659 136.829 139.081 136.475 139.633L133.975 143.125H137.139V139.914ZM149.896 143.516C149.896 144.646 149.566 145.536 148.904 146.188C148.243 146.833 147.339 147.156 146.193 147.156C144.917 147.156 143.925 146.68 143.217 145.727C142.514 144.768 142.162 143.443 142.162 141.75C142.162 139.906 142.514 138.536 143.217 137.641C143.925 136.745 144.936 136.297 146.248 136.297C147.18 136.297 147.915 136.503 148.451 136.914C148.993 137.326 149.376 137.964 149.6 138.828L147.529 139.117C147.331 138.393 146.889 138.031 146.201 138.031C145.607 138.031 145.144 138.315 144.811 138.883C144.477 139.445 144.311 140.271 144.311 141.359C144.545 140.969 144.87 140.669 145.287 140.461C145.704 140.253 146.175 140.148 146.701 140.148C147.665 140.148 148.438 140.453 149.021 141.062C149.605 141.667 149.896 142.484 149.896 143.516ZM147.693 143.578C147.693 143.01 147.548 142.568 147.256 142.25C146.969 141.927 146.574 141.766 146.068 141.766C145.6 141.766 145.214 141.911 144.912 142.203C144.615 142.49 144.467 142.87 144.467 143.344C144.467 143.932 144.62 144.43 144.928 144.836C145.235 145.242 145.633 145.445 146.123 145.445C146.607 145.445 146.99 145.279 147.271 144.945C147.553 144.612 147.693 144.156 147.693 143.578ZM151.959 147V145.367H154.998V138.406C154.795 138.833 154.389 139.193 153.779 139.484C153.175 139.776 152.54 139.922 151.873 139.922V138.25C152.597 138.25 153.245 138.091 153.818 137.773C154.391 137.456 154.824 137.018 155.115 136.461H157.193V145.367H159.717V147H151.959ZM169.115 143.516C169.115 144.646 168.785 145.536 168.123 146.188C167.462 146.833 166.558 147.156 165.412 147.156C164.136 147.156 163.144 146.68 162.436 145.727C161.732 144.768 161.381 143.443 161.381 141.75C161.381 139.906 161.732 138.536 162.436 137.641C163.144 136.745 164.154 136.297 165.467 136.297C166.399 136.297 167.133 136.503 167.67 136.914C168.212 137.326 168.594 137.964 168.818 138.828L166.748 139.117C166.55 138.393 166.107 138.031 165.42 138.031C164.826 138.031 164.363 138.315 164.029 138.883C163.696 139.445 163.529 140.271 163.529 141.359C163.764 140.969 164.089 140.669 164.506 140.461C164.923 140.253 165.394 140.148 165.92 140.148C166.883 140.148 167.657 140.453 168.24 141.062C168.824 141.667 169.115 142.484 169.115 143.516ZM166.912 143.578C166.912 143.01 166.766 142.568 166.475 142.25C166.188 141.927 165.792 141.766 165.287 141.766C164.818 141.766 164.433 141.911 164.131 142.203C163.834 142.49 163.686 142.87 163.686 143.344C163.686 143.932 163.839 144.43 164.146 144.836C164.454 145.242 164.852 145.445 165.342 145.445C165.826 145.445 166.209 145.279 166.49 144.945C166.771 144.612 166.912 144.156 166.912 143.578ZM178.764 144.016C178.764 144.995 178.417 145.763 177.725 146.32C177.032 146.878 176.063 147.156 174.818 147.156C173.584 147.156 172.615 146.88 171.912 146.328C171.214 145.776 170.865 145.01 170.865 144.031C170.865 143.365 171.071 142.799 171.482 142.336C171.899 141.872 172.441 141.586 173.107 141.477V141.445C172.519 141.315 172.04 141.034 171.67 140.602C171.305 140.169 171.123 139.667 171.123 139.094C171.123 138.24 171.446 137.56 172.092 137.055C172.743 136.549 173.641 136.297 174.787 136.297C175.969 136.297 176.881 136.542 177.521 137.031C178.167 137.521 178.49 138.214 178.49 139.109C178.49 139.661 178.305 140.156 177.936 140.594C177.566 141.031 177.084 141.31 176.49 141.43V141.461C177.193 141.576 177.748 141.859 178.154 142.312C178.561 142.766 178.764 143.333 178.764 144.016ZM176.232 139.227C176.232 138.299 175.751 137.836 174.787 137.836C173.839 137.836 173.365 138.299 173.365 139.227C173.365 139.701 173.488 140.062 173.732 140.312C173.982 140.562 174.339 140.688 174.803 140.688C175.756 140.688 176.232 140.201 176.232 139.227ZM176.49 143.836C176.49 143.31 176.344 142.911 176.053 142.641C175.766 142.365 175.339 142.227 174.771 142.227C174.245 142.227 173.839 142.372 173.553 142.664C173.266 142.951 173.123 143.352 173.123 143.867C173.123 145.029 173.693 145.609 174.834 145.609C175.386 145.609 175.8 145.469 176.076 145.188C176.352 144.906 176.49 144.456 176.49 143.836ZM188.154 138.203C186.826 140.016 185.891 141.602 185.35 142.961C184.808 144.32 184.537 145.667 184.537 147H182.248C182.248 145.646 182.558 144.258 183.178 142.836C183.803 141.409 184.782 139.885 186.115 138.266H180.646V136.461H188.154V138.203ZM198.006 143.453C198.006 144.182 197.842 144.828 197.514 145.391C197.191 145.948 196.719 146.383 196.1 146.695C195.485 147.003 194.761 147.156 193.928 147.156C192.824 147.156 191.938 146.909 191.271 146.414C190.61 145.914 190.201 145.193 190.045 144.25L192.24 144.07C192.355 144.539 192.558 144.88 192.85 145.094C193.141 145.307 193.508 145.414 193.951 145.414C194.514 145.414 194.954 145.247 195.271 144.914C195.589 144.581 195.748 144.109 195.748 143.5C195.748 142.958 195.594 142.526 195.287 142.203C194.98 141.875 194.55 141.711 193.998 141.711C193.389 141.711 192.891 141.948 192.506 142.422H190.365L190.748 136.461H197.365V138.094H192.74L192.561 140.641C193.092 140.172 193.756 139.938 194.553 139.938C195.6 139.938 196.436 140.26 197.061 140.906C197.691 141.547 198.006 142.396 198.006 143.453ZM206.498 144.758V147H204.404V144.758H199.396V143.109L204.045 136.461H206.498V143.125H207.967V144.758H206.498ZM204.404 139.914C204.404 139.633 204.412 139.328 204.428 139C204.449 138.672 204.464 138.461 204.475 138.367C204.339 138.659 204.094 139.081 203.74 139.633L201.24 143.125H204.404V139.914ZM216.107 144.758V147H214.014V144.758H209.006V143.109L213.654 136.461H216.107V143.125H217.576V144.758H216.107ZM214.014 139.914C214.014 139.633 214.021 139.328 214.037 139C214.058 138.672 214.074 138.461 214.084 138.367C213.949 138.659 213.704 139.081 213.35 139.633L210.85 143.125H214.014V139.914ZM225.717 144.758V147H223.623V144.758H218.615V143.109L223.264 136.461H225.717V143.125H227.186V144.758H225.717ZM223.623 139.914C223.623 139.633 223.631 139.328 223.646 139C223.667 138.672 223.683 138.461 223.693 138.367C223.558 138.659 223.313 139.081 222.959 139.633L220.459 143.125H223.623V139.914ZM236.381 143.516C236.381 144.646 236.05 145.536 235.389 146.188C234.727 146.833 233.824 147.156 232.678 147.156C231.402 147.156 230.41 146.68 229.701 145.727C228.998 144.768 228.646 143.443 228.646 141.75C228.646 139.906 228.998 138.536 229.701 137.641C230.41 136.745 231.42 136.297 232.732 136.297C233.665 136.297 234.399 136.503 234.936 136.914C235.477 137.326 235.86 137.964 236.084 138.828L234.014 139.117C233.816 138.393 233.373 138.031 232.686 138.031C232.092 138.031 231.628 138.315 231.295 138.883C230.962 139.445 230.795 140.271 230.795 141.359C231.029 140.969 231.355 140.669 231.771 140.461C232.188 140.253 232.66 140.148 233.186 140.148C234.149 140.148 234.923 140.453 235.506 141.062C236.089 141.667 236.381 142.484 236.381 143.516ZM234.178 143.578C234.178 143.01 234.032 142.568 233.74 142.25C233.454 141.927 233.058 141.766 232.553 141.766C232.084 141.766 231.699 141.911 231.396 142.203C231.1 142.49 230.951 142.87 230.951 143.344C230.951 143.932 231.105 144.43 231.412 144.836C231.719 145.242 232.118 145.445 232.607 145.445C233.092 145.445 233.475 145.279 233.756 144.945C234.037 144.612 234.178 144.156 234.178 143.578ZM245.99 143.516C245.99 144.646 245.66 145.536 244.998 146.188C244.337 146.833 243.433 147.156 242.287 147.156C241.011 147.156 240.019 146.68 239.311 145.727C238.607 144.768 238.256 143.443 238.256 141.75C238.256 139.906 238.607 138.536 239.311 137.641C240.019 136.745 241.029 136.297 242.342 136.297C243.274 136.297 244.008 136.503 244.545 136.914C245.087 137.326 245.469 137.964 245.693 138.828L243.623 139.117C243.425 138.393 242.982 138.031 242.295 138.031C241.701 138.031 241.238 138.315 240.904 138.883C240.571 139.445 240.404 140.271 240.404 141.359C240.639 140.969 240.964 140.669 241.381 140.461C241.798 140.253 242.269 140.148 242.795 140.148C243.758 140.148 244.532 140.453 245.115 141.062C245.699 141.667 245.99 142.484 245.99 143.516ZM243.787 143.578C243.787 143.01 243.641 142.568 243.35 142.25C243.063 141.927 242.667 141.766 242.162 141.766C241.693 141.766 241.308 141.911 241.006 142.203C240.709 142.49 240.561 142.87 240.561 143.344C240.561 143.932 240.714 144.43 241.021 144.836C241.329 145.242 241.727 145.445 242.217 145.445C242.701 145.445 243.084 145.279 243.365 144.945C243.646 144.612 243.787 144.156 243.787 143.578ZM251.553 140.266L252.873 135.406H255.412L252.982 140.266H251.553ZM247.967 140.266L249.287 135.406H251.826L249.396 140.266H247.967Z"
    fill="white"
  />
  <path
    d="M18.6621 182.32C19.4954 181.102 20.0944 179.911 20.459 178.75C20.8288 177.583 21.0137 176.286 21.0137 174.859C21.0137 173.427 20.8262 172.122 20.4512 170.945C20.0762 169.763 19.4798 168.583 18.6621 167.406H20.8574C21.6803 168.589 22.2715 169.766 22.6309 170.938C22.9954 172.109 23.1777 173.414 23.1777 174.852C23.1777 176.299 22.9954 177.609 22.6309 178.781C22.2715 179.953 21.6803 181.133 20.8574 182.32H18.6621ZM36.2715 172.422V170.68H44.2949V172.422H36.2715ZM36.2715 176.727V175H44.2949V176.727H36.2715ZM45.7871 179.156L52.2012 167.406H53.9824L47.5996 179.156H45.7871ZM55.4902 172.422V170.68H63.5137V172.422H55.4902ZM55.4902 176.727V175H63.5137V176.727H55.4902ZM78.7949 179.156C77.5137 179.156 76.5241 178.776 75.8262 178.016C75.1283 177.25 74.7793 176.185 74.7793 174.82C74.7793 173.424 75.1309 172.339 75.834 171.562C76.5371 170.781 77.5345 170.391 78.8262 170.391C79.821 170.391 80.6439 170.641 81.2949 171.141C81.946 171.641 82.3548 172.331 82.5215 173.211L80.3105 173.32C80.248 172.888 80.0918 172.544 79.8418 172.289C79.5918 172.029 79.2376 171.898 78.7793 171.898C77.6491 171.898 77.084 172.844 77.084 174.734C77.084 176.682 77.6595 177.656 78.8105 177.656C79.2272 177.656 79.5762 177.526 79.8574 177.266C80.1387 177 80.3132 176.607 80.3809 176.086L82.584 176.188C82.5059 176.766 82.2975 177.281 81.959 177.734C81.6257 178.188 81.1855 178.539 80.6387 178.789C80.0918 179.034 79.4772 179.156 78.7949 179.156ZM92.4121 174.766C92.4121 176.167 92.0579 177.25 91.3496 178.016C90.6413 178.776 89.623 179.156 88.2949 179.156C87.0137 179.156 86.0189 178.776 85.3105 178.016C84.6022 177.25 84.248 176.167 84.248 174.766C84.248 173.37 84.5996 172.292 85.3027 171.531C86.0059 170.771 87.0189 170.391 88.3418 170.391C91.0553 170.391 92.4121 171.849 92.4121 174.766ZM90.1152 174.766C90.1152 173.766 89.9824 173.039 89.7168 172.586C89.4512 172.128 89.0033 171.898 88.373 171.898C87.7272 171.898 87.2611 172.128 86.9746 172.586C86.6934 173.044 86.5527 173.771 86.5527 174.766C86.5527 175.771 86.696 176.505 86.9824 176.969C87.2741 177.427 87.7038 177.656 88.2715 177.656C88.9173 177.656 89.3861 177.43 89.6777 176.977C89.9694 176.518 90.1152 175.781 90.1152 174.766ZM97.0527 179V173.859C97.0527 173.083 97.0033 172.544 96.9043 172.242C96.8105 171.94 96.6335 171.789 96.373 171.789C96.1074 171.789 95.8965 172.034 95.7402 172.523C95.5892 173.013 95.5137 173.656 95.5137 174.453V179H93.7246V172.352C93.7246 171.367 93.709 170.766 93.6777 170.547H95.3105L95.3574 171.539V171.914H95.373C95.5501 171.383 95.7741 170.997 96.0449 170.758C96.3158 170.513 96.6543 170.391 97.0605 170.391C97.5189 170.391 97.86 170.516 98.084 170.766C98.3132 171.016 98.4772 171.401 98.5762 171.922H98.5918C98.8001 171.37 99.0475 170.977 99.334 170.742C99.6257 170.508 99.9928 170.391 100.436 170.391C101.05 170.391 101.49 170.615 101.756 171.062C102.021 171.51 102.154 172.279 102.154 173.367V179H100.373V173.859C100.373 173.083 100.324 172.544 100.225 172.242C100.131 171.94 99.9538 171.789 99.6934 171.789C99.4277 171.789 99.2168 172 99.0605 172.422C98.9095 172.839 98.834 173.466 98.834 174.305V179H97.0527ZM106.662 179V173.859C106.662 173.083 106.613 172.544 106.514 172.242C106.42 171.94 106.243 171.789 105.982 171.789C105.717 171.789 105.506 172.034 105.35 172.523C105.199 173.013 105.123 173.656 105.123 174.453V179H103.334V172.352C103.334 171.367 103.318 170.766 103.287 170.547H104.92L104.967 171.539V171.914H104.982C105.16 171.383 105.383 170.997 105.654 170.758C105.925 170.513 106.264 170.391 106.67 170.391C107.128 170.391 107.469 170.516 107.693 170.766C107.923 171.016 108.087 171.401 108.186 171.922H108.201C108.41 171.37 108.657 170.977 108.943 170.742C109.235 170.508 109.602 170.391 110.045 170.391C110.66 170.391 111.1 170.615 111.365 171.062C111.631 171.51 111.764 172.279 111.764 173.367V179H109.982V173.859C109.982 173.083 109.933 172.544 109.834 172.242C109.74 171.94 109.563 171.789 109.303 171.789C109.037 171.789 108.826 172 108.67 172.422C108.519 172.839 108.443 173.466 108.443 174.305V179H106.662ZM118.561 177.516H121.318V179H113.279V177.516H116.365V172.031H114.1V170.547H118.561V177.516ZM116.365 169.023V167.406H118.561V169.023H116.365ZM124.529 172.031H123.225V170.547H124.639L125.326 168.344H126.701V170.547H129.709V172.031H126.701V176.172C126.701 176.63 126.743 176.94 126.826 177.102C126.915 177.258 127.055 177.383 127.248 177.477C127.441 177.565 127.712 177.609 128.061 177.609C128.706 177.609 129.37 177.539 130.053 177.398V178.852C129.313 178.971 128.79 179.042 128.482 179.062C128.175 179.089 127.855 179.102 127.521 179.102C126.86 179.102 126.305 179.013 125.857 178.836C125.415 178.654 125.079 178.372 124.85 177.992C124.626 177.607 124.514 177.068 124.514 176.375L124.529 172.031ZM135.49 179V173.859C135.49 173.083 135.441 172.544 135.342 172.242C135.248 171.94 135.071 171.789 134.811 171.789C134.545 171.789 134.334 172.034 134.178 172.523C134.027 173.013 133.951 173.656 133.951 174.453V179H132.162V172.352C132.162 171.367 132.146 170.766 132.115 170.547H133.748L133.795 171.539V171.914H133.811C133.988 171.383 134.212 170.997 134.482 170.758C134.753 170.513 135.092 170.391 135.498 170.391C135.956 170.391 136.298 170.516 136.521 170.766C136.751 171.016 136.915 171.401 137.014 171.922H137.029C137.238 171.37 137.485 170.977 137.771 170.742C138.063 170.508 138.43 170.391 138.873 170.391C139.488 170.391 139.928 170.615 140.193 171.062C140.459 171.51 140.592 172.279 140.592 173.367V179H138.811V173.859C138.811 173.083 138.761 172.544 138.662 172.242C138.568 171.94 138.391 171.789 138.131 171.789C137.865 171.789 137.654 172 137.498 172.422C137.347 172.839 137.271 173.466 137.271 174.305V179H135.49ZM146.076 179.156C144.764 179.156 143.751 178.771 143.037 178C142.324 177.224 141.967 176.135 141.967 174.734C141.967 173.797 142.133 173.005 142.467 172.359C142.805 171.714 143.285 171.224 143.904 170.891C144.524 170.557 145.258 170.391 146.107 170.391C147.342 170.391 148.3 170.802 148.982 171.625C149.665 172.448 150.006 173.617 150.006 175.133V175.195H144.271C144.271 175.961 144.441 176.568 144.779 177.016C145.123 177.464 145.592 177.688 146.186 177.688C146.571 177.688 146.912 177.607 147.209 177.445C147.506 177.279 147.706 177.023 147.811 176.68L149.881 176.859C149.594 177.594 149.118 178.161 148.451 178.562C147.785 178.958 146.993 179.156 146.076 179.156ZM146.076 171.773C145.54 171.773 145.113 171.956 144.795 172.32C144.477 172.68 144.308 173.18 144.287 173.82H147.881C147.844 173.195 147.665 172.698 147.342 172.328C147.024 171.958 146.602 171.773 146.076 171.773ZM157.232 179V174.164C157.232 173.43 157.131 172.891 156.928 172.547C156.73 172.203 156.386 172.031 155.896 172.031C155.355 172.031 154.92 172.263 154.592 172.727C154.269 173.185 154.107 173.766 154.107 174.469V179H151.912V172.438C151.912 171.984 151.904 171.615 151.889 171.328C151.878 171.036 151.865 170.776 151.85 170.547H153.943C153.959 170.646 153.98 170.911 154.006 171.344C154.032 171.771 154.045 172.065 154.045 172.227H154.076C154.373 171.581 154.745 171.112 155.193 170.82C155.641 170.529 156.175 170.383 156.795 170.383C158.545 170.383 159.42 171.466 159.42 173.633V179H157.232ZM162.967 172.031H161.662V170.547H163.076L163.764 168.344H165.139V170.547H168.146V172.031H165.139V176.172C165.139 176.63 165.18 176.94 165.264 177.102C165.352 177.258 165.493 177.383 165.686 177.477C165.878 177.565 166.149 177.609 166.498 177.609C167.144 177.609 167.808 177.539 168.49 177.398V178.852C167.751 178.971 167.227 179.042 166.92 179.062C166.613 179.089 166.292 179.102 165.959 179.102C165.298 179.102 164.743 179.013 164.295 178.836C163.852 178.654 163.516 178.372 163.287 177.992C163.063 177.607 162.951 177.068 162.951 176.375L162.967 172.031Z"
    fill="white"
  />
  <path
    d="M187.878 175C187.878 177.194 186.11 178.959 183.946 178.959C181.782 178.959 180.014 177.194 180.014 175C180.014 172.806 181.782 171.041 183.946 171.041C186.11 171.041 187.878 172.806 187.878 175Z"
    fill="#181F2B"
    stroke="#FFC0C0"
    stroke-width="3.5"
  />
</svg>
