<svg width="241" height="271" viewBox="0 0 241 271" fill="none" xmlns="http://www.w3.org/2000/svg">
<path fill-rule="evenodd" clip-rule="evenodd" d="M270 135.5C270 210.058 209.558 270.5 135 270.5C60.4416 270.5 0 210.058 0 135.5C0 60.9416 60.4416 0.5 135 0.5C209.558 0.5 270 60.9416 270 135.5ZM146.25 239.562C106.875 240.969 85.7812 229.719 67.5 215.656C99.8773 218.055 119.984 208.182 129.563 203.478C131.218 202.666 132.558 202.008 133.594 201.594C136.513 203.186 139.132 204.729 141.602 206.183C152.217 212.435 160.075 217.062 177.187 217.062C201.996 217.062 203.906 198.781 203.906 194.562C203.906 179.094 192.656 170.656 185.625 170.656C170.156 170.656 165.938 176.281 161.719 181.906L158.906 180.5C170.156 167.844 184.219 146.75 185.625 135.5C203.906 145.344 219.375 173.469 213.75 195.969C207.773 219.875 171.562 238.658 146.25 239.562ZM109.762 90.6643C122.346 87.6948 149.065 87.6948 161.793 92.0705L161.721 89.1011C147.659 86.2886 135.704 75.2613 140.699 58.3206C144.846 44.2581 166.492 36.2152 182.815 52.5386C191.717 61.4406 194.065 80.6636 194.065 104.57C202.431 108.632 225.003 124.257 239.065 153.789C244.69 96.1324 217.971 63.7884 187.106 44.2581C158.909 26.4167 137.618 41.4611 132.262 45.6643C118.128 56.7572 109.762 79.2572 109.762 90.6643ZM80.1584 186.132C42.1897 186.132 30.5767 158.007 30.2365 136.913C29.5335 93.3193 59.0646 49.7255 98.4396 37.0693C85.7834 56.7568 80.1584 72.2255 80.1584 100.351C57.6585 110.194 42.1897 125.663 39.3771 136.913C36.5647 146.757 39.3771 157.225 45.0022 162.226C57.6585 173.476 72.7254 167.851 78.7522 160.819C86.5561 151.715 84.3772 139.726 81.5646 134.101H84.3772C87.1897 142.538 99.846 170.663 109.69 179.101C101.252 183.319 88.596 186.132 80.1584 186.132ZM112.497 121.444C129.372 117.226 142.802 117.225 157.497 121.444C157.497 132.694 144.84 152.382 134.997 162.226C125.153 152.382 113.903 134.101 112.497 121.444Z" fill="#D3D8E2" fill-opacity="0.1"/>
</svg>
