<svg width="218" height="270" viewBox="0 0 218 270" fill="none" xmlns="http://www.w3.org/2000/svg">
<g clip-path="url(#clip0_472_12637)">
<path d="M136.424 56.2356C163.125 56.2356 184.77 43.6468 184.77 28.1178C184.77 12.5888 163.125 0 136.424 0C109.723 0 88.0781 12.5888 88.0781 28.1178C88.0781 43.6468 109.723 56.2356 136.424 56.2356Z" fill="#D3D8E2" fill-opacity="0.1"/>
<path d="M136.424 268.099C163.125 268.099 184.77 255.51 184.77 239.981C184.77 224.452 163.125 211.863 136.424 211.863C109.723 211.863 88.0781 224.452 88.0781 239.981C88.0781 255.51 109.723 268.099 136.424 268.099Z" fill="#D3D8E2" fill-opacity="0.1"/>
<path d="M69.0485 95.1521C82.3989 72.0293 82.3122 46.9859 68.855 39.2161C55.3977 31.4464 33.6659 43.8925 20.3155 67.0153C6.96518 90.1381 7.05183 115.181 20.5091 122.951C33.9663 130.721 55.6982 118.275 69.0485 95.1521Z" fill="#D3D8E2" fill-opacity="0.1"/>
<path d="M252.508 201.074C265.858 177.952 265.779 152.913 252.331 145.148C238.883 137.383 217.158 149.834 203.808 172.957C190.457 196.079 190.537 221.119 203.985 228.883C217.433 236.648 239.157 224.197 252.508 201.074Z" fill="#D3D8E2" fill-opacity="0.1"/>
<path d="M68.8628 228.878C82.32 221.108 82.4067 196.064 69.0563 172.942C55.706 149.819 33.9741 137.373 20.5169 145.143C7.05964 152.912 6.97299 177.956 20.3233 201.078C33.6737 224.201 55.4055 236.647 68.8628 228.878Z" fill="#D3D8E2" fill-opacity="0.1"/>
<path d="M252.344 122.965C265.793 115.201 265.872 90.1616 252.521 67.0388C239.171 43.916 217.447 31.4656 203.998 39.2302C190.55 46.9947 190.471 72.0338 203.821 95.1566C217.172 118.279 238.896 130.73 252.344 122.965Z" fill="#D3D8E2" fill-opacity="0.1"/>
</g>
<defs>
<clipPath id="clip0_472_12637">
<rect width="270" height="270" fill="white"/>
</clipPath>
</defs>
</svg>