<svg width="265" height="260" viewBox="0 0 265 260" fill="none" xmlns="http://www.w3.org/2000/svg">
<path d="M65.1663 123.157C65.1663 119.871 67.8429 117.207 71.1448 117.207H292.351C295.653 117.207 298.33 119.871 298.33 123.157C298.33 126.443 295.653 129.107 292.351 129.107H71.1448C67.8429 129.107 65.1663 126.443 65.1663 123.157Z" fill="#D3D8E2" fill-opacity="0.1"/>
<path d="M20.3271 149.336C20.3271 146.05 23.0037 143.386 26.3056 143.386H187.727C191.029 143.386 193.705 146.05 193.705 149.336C193.705 152.622 191.029 155.285 187.727 155.285H26.3056C23.0037 155.285 20.3271 152.622 20.3271 149.336Z" fill="#D3D8E2" fill-opacity="0.1"/>
<path d="M170.389 221.922C167.087 221.922 164.41 224.586 164.41 227.872C164.41 231.158 167.087 233.822 170.389 233.822H270.231C273.533 233.822 276.209 231.158 276.209 227.872C276.209 224.586 273.533 221.922 270.231 221.922H170.389Z" fill="#D3D8E2" fill-opacity="0.1"/>
<path d="M103.429 254.051C103.429 250.765 106.106 248.101 109.408 248.101H208.652C211.953 248.101 214.63 250.765 214.63 254.051C214.63 257.337 211.953 260.001 208.652 260.001H109.408C106.106 260.001 103.429 257.337 103.429 254.051Z" fill="#D3D8E2" fill-opacity="0.1"/>
<path d="M71.1448 169.565C67.8429 169.565 65.1663 172.229 65.1663 175.514C65.1663 178.8 67.8429 181.464 71.1448 181.464H266.046C269.348 181.464 272.024 178.8 272.024 175.514C272.024 172.229 269.348 169.565 266.046 169.565H71.1448Z" fill="#D3D8E2" fill-opacity="0.1"/>
<path d="M31.6863 201.693C31.6863 198.407 34.363 195.744 37.6649 195.744H115.386C118.688 195.744 121.365 198.407 121.365 201.693C121.365 204.979 118.688 207.643 115.386 207.643H37.6649C34.363 207.643 31.6863 204.979 31.6863 201.693Z" fill="#D3D8E2" fill-opacity="0.1"/>
<path d="M138.105 195.744C134.803 195.744 132.126 198.407 132.126 201.693C132.126 204.979 134.803 207.643 138.105 207.643H299.526C302.828 207.643 305.504 204.979 305.504 201.693C305.504 198.407 302.828 195.744 299.526 195.744H138.105Z" fill="#D3D8E2" fill-opacity="0.1"/>
<path d="M56.7963 123.157C56.7963 126.443 54.1196 129.107 50.8177 129.107C47.5158 129.107 44.8392 126.443 44.8392 123.157C44.8392 119.871 47.5158 117.207 50.8177 117.207C54.1196 117.207 56.7963 119.871 56.7963 123.157Z" fill="#D3D8E2" fill-opacity="0.1"/>
<path d="M5.97856 155.285C9.28048 155.285 11.9571 152.622 11.9571 149.336C11.9571 146.05 9.28048 143.386 5.97856 143.386C2.67663 143.386 0 146.05 0 149.336C0 152.622 2.67663 155.285 5.97856 155.285Z" fill="#D3D8E2" fill-opacity="0.1"/>
<path d="M156.04 227.872C156.04 231.158 153.364 233.822 150.062 233.822C146.76 233.822 144.083 231.158 144.083 227.872C144.083 224.586 146.76 221.922 150.062 221.922C153.364 221.922 156.04 224.586 156.04 227.872Z" fill="#D3D8E2" fill-opacity="0.1"/>
<path d="M89.0805 260.001C92.3824 260.001 95.059 257.337 95.059 254.051C95.059 250.765 92.3824 248.101 89.0805 248.101C85.7785 248.101 83.1019 250.765 83.1019 254.051C83.1019 257.337 85.7785 260.001 89.0805 260.001Z" fill="#D3D8E2" fill-opacity="0.1"/>
<path d="M56.7963 175.514C56.7963 178.8 54.1196 181.464 50.8177 181.464C47.5158 181.464 44.8392 178.8 44.8392 175.514C44.8392 172.229 47.5158 169.565 50.8177 169.565C54.1196 169.565 56.7963 172.229 56.7963 175.514Z" fill="#D3D8E2" fill-opacity="0.1"/>
<path d="M17.3378 207.643C20.6397 207.643 23.3164 204.979 23.3164 201.693C23.3164 198.407 20.6397 195.744 17.3378 195.744C14.0359 195.744 11.3593 198.407 11.3593 201.693C11.3593 204.979 14.0359 207.643 17.3378 207.643Z" fill="#D3D8E2" fill-opacity="0.1"/>
<path d="M270.122 58.7659C274.929 70.3156 277.404 82.6945 277.404 95.1958C277.404 97.8246 275.262 99.9556 272.621 99.9556H90.8727C88.2312 99.9556 86.0898 97.8246 86.0898 95.1958C86.0898 82.6945 88.564 70.3156 93.3712 58.7659C98.1785 47.2162 105.225 36.7219 114.107 27.8822C122.99 19.0425 133.535 12.0304 145.14 7.24634C156.746 2.46233 169.185 0 181.747 0C194.309 0 206.747 2.46233 218.353 7.24634C229.959 12.0304 240.504 19.0425 249.386 27.8822C258.269 36.7219 265.315 47.2162 270.122 58.7659Z" fill="#D3D8E2" fill-opacity="0.1"/>
</svg>
