<svg width="241" height="270" viewBox="0 0 241 270" fill="none" xmlns="http://www.w3.org/2000/svg">
<path fill-rule="evenodd" clip-rule="evenodd" d="M62.7684 231.822C33.2924 209.796 14.2105 174.627 14.2105 135C14.2105 68.2899 68.2898 14.2105 135 14.2105C190.057 14.2105 250.182 47.113 264.723 97.5038C248.474 41.194 196.557 0 135 0C60.4417 0 0 60.4417 0 135C0 209.558 60.4417 270 135 270C209.558 270 270 209.558 270 135V127.895L262.583 127.893C262.363 127.892 262.029 127.888 261.595 127.882C260.725 127.868 259.451 127.842 257.862 127.788C254.678 127.68 250.254 127.463 245.298 127.033C235.168 126.151 223.617 124.432 215.749 121.29C203.091 116.235 195.945 109.533 187.779 101.692L187.308 101.238C179.128 93.3805 169.938 84.5524 154.012 77.0574C138.321 69.674 120.972 70.8586 108.223 73.482C101.748 74.8139 96.2027 76.5705 92.2684 77.9954C90.2961 78.7095 88.7152 79.3454 87.6096 79.8109C81.1938 82.5122 74.9666 85.7081 68.6701 88.6732C68.6701 88.6732 81.0239 92.0618 87.1339 93.9534C87.3549 94.0218 87.6998 94.1312 88.1513 94.2831C89.0551 94.5877 90.378 95.0594 91.9786 95.7072C95.2013 97.0119 99.4403 98.9859 103.625 101.676C110.216 105.913 115.68 111.243 117.921 117.787C103.93 119.626 90.8077 125.768 80.9946 131.54C75.0444 135.04 70.0959 138.533 66.6278 141.157C64.8905 142.471 63.5158 143.573 62.5634 144.357C61.7641 145.015 49.1322 156.151 49.1322 156.151C49.1322 156.151 65.4293 157.884 73.4713 159.504C78.8215 160.582 86.0345 162.317 93.5583 164.942C101.117 167.579 108.752 171.034 115.088 175.457C121.438 179.889 126.088 185.013 128.383 190.878C135.067 207.959 128.508 224.598 115.341 233.957C102.329 243.205 82.5476 245.404 62.7684 231.822ZM108.83 252.947C114.15 251.219 119.115 248.709 123.574 245.539C141.492 232.804 150.92 209.475 141.617 185.7C137.962 176.36 130.978 169.218 123.222 163.805C115.453 158.382 106.514 154.412 98.2401 151.525C92.7997 149.627 87.545 148.162 82.9427 147.05C84.5754 145.984 86.3341 144.886 88.1994 143.789C99.1361 137.356 112.91 131.447 126.118 131.447C146.027 131.447 160.855 137.556 175.011 144.112C176.298 144.708 177.59 145.314 178.889 145.923C191.539 151.858 204.826 158.092 220.263 158.092C235.234 158.092 246.894 153.86 254.93 149.482C247.775 209.364 196.809 255.79 135 255.79C126.014 255.79 117.257 254.808 108.83 252.947ZM239.576 140.754C234.255 142.57 227.805 143.882 220.263 143.882C208.153 143.882 197.749 139.03 184.54 132.872C183.377 132.33 182.192 131.777 180.983 131.217C167.757 125.092 152.456 118.602 132.538 117.425C129.865 104.238 119.871 95.2261 111.309 89.7223C110.355 89.1091 109.403 88.5283 108.461 87.9797C109.315 87.7788 110.191 87.585 111.087 87.4006C122.592 85.0331 136.327 84.4413 147.961 89.9154C161.768 96.4131 169.556 103.893 177.659 111.675L177.937 111.941C186.274 119.948 195.093 128.342 210.479 134.487C219.026 137.9 230.089 139.737 239.576 140.754Z" fill="#D3D8E2" fill-opacity="0.1"/>
</svg>
