<?xml version="1.0" encoding="UTF-8"?>
<svg width="40px" height="34px" viewBox="0 0 40 34" version="1.1" xmlns="http://www.w3.org/2000/svg" xmlns:xlink="http://www.w3.org/1999/xlink">
    <!-- Generator: Sketch 59.1 (86144) - https://sketch.com -->
    <title>Acala-logo</title>
    
    <g id="Symbols" stroke="none" stroke-width="1" fill="none" fill-rule="evenodd">
        <g id="Menu-sidebar" transform="translate(-42.000000, -71.000000)" fill="#FFFFFF" fill-rule="nonzero">
            <g id="Acala-Logo-White" transform="translate(42.000000, 71.000000)">
                <path d="M7.61655172,33.5089655 C10.9862243,30.5598442 15.3015356,28.916522 19.7793103,28.8772414 L19.862069,28.8772414 C23.7427166,28.8442085 27.53847,30.0130962 30.7282759,32.2234483 L26.6537931,25.4234483 C24.8861987,24.9206106 23.0570332,24.6671272 21.2193103,24.6703448 L21.1448276,24.6703448 C18.0061452,24.6660083 14.9140248,25.4293311 12.137931,26.8937931 C11.9836773,26.9778989 11.7920942,26.947291 11.6717241,26.8193103 C11.5505939,26.6928855 11.5280697,26.5014299 11.6165517,26.3503448 L19.3406897,13.1917241 L17.1337931,9.48137931 L10.1296552,21.4124138 L3.13655172,33.5089655 L7.61655172,33.5089655 Z" id="Path"></path>
                <path d="M1.31310345,31.4648276 L2.43586207,33.1586207 L9.4537931,21.0206897 L16.7917241,8.51586207 C16.8605932,8.39657687 16.9877789,8.32299836 17.1255172,8.32275862 L17.1255172,8.32275862 C17.26338,8.32256357 17.3911959,8.39485295 17.462069,8.51310345 L20.137931,12.9848276 L20.137931,12.9848276 L24.2758621,19.8813793 C24.2931478,19.909657 24.3061618,19.9403329 24.3144828,19.9724138 C24.3157748,19.9806392 24.3157748,19.9890159 24.3144828,19.9972414 C24.3158187,20.0229712 24.3158187,20.048753 24.3144828,20.0744828 L24.3144828,20.0937931 C24.3118854,20.125503 24.3063443,20.1569026 24.297931,20.1875862 C24.2991657,20.1948907 24.2991657,20.2023507 24.297931,20.2096552 C24.297931,20.2344828 24.2758621,20.2593103 24.262069,20.2841379 C24.2482759,20.3089655 24.262069,20.2841379 24.262069,20.2841379 L24.262069,20.2841379 C24.2429785,20.3114612 24.2207587,20.3364585 24.1958621,20.3586207 L24.1958621,20.3586207 L24.1517241,20.3917241 L24.1213793,20.3917241 L24.1048276,20.3917241 C24.0440249,20.4178791 23.9776184,20.4283144 23.9117241,20.422069 L23.9117241,20.422069 C22.9585945,20.2980936 21.9983996,20.2363536 21.0372414,20.2372414 C19.2353504,20.2397319 17.4416007,20.4790222 15.702069,20.9489655 L12.9655172,25.6248276 C15.5404132,24.4831993 18.3254401,23.8921797 21.142069,23.8896552 L21.2193103,23.8896552 C23.1799082,23.8881533 25.1306604,24.1668322 27.0124138,24.7172414 C27.1074327,24.7453623 27.1882633,24.8084496 27.2386207,24.8937931 L32.3972414,33.5117241 L37.0868966,33.5117241 L23.7931034,11.3103448 L17.257931,0.391724138 L0,29.6468966 L1.31310345,31.4648276 Z" id="Path"></path>
                <polygon id="Path" points="17.9448276 0.0165517241 37.7903448 33.1365517 39.9393103 29.5144828 22.1903448 0"></polygon>
            </g>
        </g>
    </g>
</svg>