<?xml version="1.0" encoding="UTF-8"?>
<svg width="25px" height="26px" viewBox="0 0 25 26" version="1.1" xmlns="http://www.w3.org/2000/svg" xmlns:xlink="http://www.w3.org/1999/xlink">
    <!-- Generator: Sketch 59.1 (86144) - https://sketch.com -->
    <title>Dashboard</title>
    
    <g id="Symbols" stroke="none" stroke-width="1" fill="none" fill-rule="evenodd">
        <g id="Menu-sidebar" transform="translate(-49.000000, -230.000000)" fill="#FFFFFF">
            <g id="Group-9" transform="translate(49.000000, 230.000000)">
                <g id="Icons-/-Menu-/-Outline">
                    <path d="M7.81083333,14.6302 C9.53194444,14.6302 10.9325,16.0867778 10.9325,17.8767333 L10.9325,17.8767333 L10.9325,22.7534667 C10.9325,24.5434222 9.53194444,26 7.81083333,26 L7.81083333,26 L3.12166667,26 C1.40055556,26 0,24.5434222 0,22.7534667 L0,22.7534667 L0,17.8767333 C0,16.0867778 1.40055556,14.6302 3.12166667,14.6302 L3.12166667,14.6302 Z M21.8783333,14.6302 C23.5994444,14.6302 25,16.0867778 25,17.8767333 L25,17.8767333 L25,22.7534667 C25,24.5434222 23.5994444,26 21.8783333,26 L21.8783333,26 L17.1891667,26 C15.4680556,26 14.0675,24.5434222 14.0675,22.7534667 L14.0675,22.7534667 L14.0675,17.8767333 C14.0675,16.0867778 15.4680556,14.6302 17.1891667,14.6302 L17.1891667,14.6302 Z M7.81083333,15.5500222 L3.12166667,15.5500222 C1.88777778,15.5500222 0.884166667,16.5934889 0.884166667,17.8767333 L0.884166667,17.8767333 L0.884166667,22.7534667 C0.884166667,24.0367111 1.88805556,25.0804667 3.12166667,25.0804667 L3.12166667,25.0804667 L7.81083333,25.0804667 C9.04444444,25.0804667 10.0480556,24.0364222 10.0480556,22.7534667 L10.0480556,22.7534667 L10.0480556,17.8767333 C10.0480556,16.5932 9.04416667,15.5500222 7.81083333,15.5500222 L7.81083333,15.5500222 Z M21.8783333,15.5500222 L17.1891667,15.5500222 C15.9552778,15.5500222 14.9519444,16.5934889 14.9519444,17.8767333 L14.9519444,17.8767333 L14.9519444,22.7534667 C14.9519444,24.0367111 15.9555556,25.0804667 17.1891667,25.0804667 L17.1891667,25.0804667 L21.8780556,25.0804667 C23.1122222,25.0804667 24.1155556,24.0364222 24.1155556,22.7534667 L24.1158333,22.7534667 L24.1158333,17.8767333 C24.1158333,16.5932 23.1122222,15.5500222 21.8783333,15.5500222 L21.8783333,15.5500222 Z M7.81083333,1.10134124e-13 C9.53194444,1.10134124e-13 10.9325,1.45657778 10.9325,3.24653333 L10.9325,3.24653333 L10.9325,8.12326667 C10.9325,9.91322222 9.53194444,11.3695111 7.81083333,11.3695111 L7.81083333,11.3695111 L3.12166667,11.3695111 C1.40055556,11.3695111 0,9.91322222 0,8.12326667 L0,8.12326667 L0,3.24653333 C0,1.45657778 1.40055556,1.10134124e-13 3.12166667,1.10134124e-13 L3.12166667,1.10134124e-13 Z M21.8783333,1.10134124e-13 C23.5994444,1.10134124e-13 25,1.45657778 25,3.24653333 L25,3.24653333 L25,8.12326667 C25,9.91322222 23.5994444,11.3695111 21.8783333,11.3695111 L21.8783333,11.3695111 L17.1891667,11.3695111 C15.4680556,11.3695111 14.0675,9.91322222 14.0675,8.12326667 L14.0675,8.12326667 L14.0675,3.24653333 C14.0675,1.45657778 15.4680556,1.10134124e-13 17.1891667,1.10134124e-13 L17.1891667,1.10134124e-13 Z M7.81083333,0.919244444 L3.12166667,0.919244444 C1.88777778,0.919244444 0.884166667,1.96328889 0.884166667,3.24653333 L0.884166667,3.24653333 L0.884166667,8.12326667 C0.884166667,9.40622222 1.88805556,10.4499778 3.12166667,10.4499778 L3.12166667,10.4499778 L7.81083333,10.4499778 C9.04444444,10.4499778 10.0480556,9.40593333 10.0480556,8.12326667 L10.0480556,8.12326667 L10.0480556,3.24653333 C10.0480556,1.963 9.04416667,0.919244444 7.81083333,0.919244444 L7.81083333,0.919244444 Z M21.8783333,0.919244444 L17.1891667,0.919244444 C15.9552778,0.919244444 14.9519444,1.96328889 14.9519444,3.24653333 L14.9519444,3.24653333 L14.9519444,8.12326667 C14.9519444,9.40622222 15.9555556,10.4499778 17.1891667,10.4499778 L17.1891667,10.4499778 L21.8780556,10.4499778 C23.1122222,10.4499778 24.1155556,9.40593333 24.1155556,8.12326667 L24.1158333,8.12326667 L24.1158333,3.24653333 C24.1158333,1.963 23.1122222,0.919244444 21.8783333,0.919244444 L21.8783333,0.919244444 Z" id="Shape"></path>
                </g>
            </g>
        </g>
    </g>
</svg>