<?xml version="1.0" encoding="UTF-8"?>
<svg width="24px" height="24px" viewBox="0 0 24 24" version="1.1" xmlns="http://www.w3.org/2000/svg" xmlns:xlink="http://www.w3.org/1999/xlink">
    <title>Faucet</title>
    <defs>
        <path d="M-1.77635684e-15,11.9885825 C-1.77635684e-15,18.6096937 5.36747113,23.9771648 11.9885823,23.9771648 C18.6096935,23.9771648 23.9771646,18.6096937 23.9771646,11.9885825 C23.9771646,7.70547451 21.6921538,3.74771951 17.9828735,1.6061655 C14.2735932,-0.535388501 9.7035714,-0.535388501 5.9942911,1.6061655 C2.2850108,3.74771951 -1.77635684e-15,7.70547451 -1.77635684e-15,11.9885825 Z" id="path-1"></path>
    </defs>
    <g id="renBTC" stroke="none" stroke-width="1" fill="none" fill-rule="evenodd">
        <g id="Faucet">
            <g id="Path" fill="#173DC9" fill-rule="nonzero">
                <path d="M-1.77635684e-15,11.9885825 C-1.77635684e-15,18.6096937 5.36747113,23.9771648 11.9885823,23.9771648 C18.6096935,23.9771648 23.9771646,18.6096937 23.9771646,11.9885825 C23.9771646,7.70547451 21.6921538,3.74771951 17.9828735,1.6061655 C14.2735932,-0.535388501 9.7035714,-0.535388501 5.9942911,1.6061655 C2.2850108,3.74771951 -1.77635684e-15,7.70547451 -1.77635684e-15,11.9885825 Z" id="path-1"></path>
            </g>
            <g id="Group-12-Clipped">
                <g id="Group-12">
                    <g transform="translate(5.000000, 5.000000)" id="Group">
                        <g>
                            <circle id="Oval" fill="#FFFFFF" fill-rule="nonzero" cx="6.80362656" cy="10.9624057" r="1"></circle>
                            <circle id="Oval-Copy-16" fill="#FFFFFF" fill-rule="nonzero" cx="4.65413524" cy="10.9624057" r="1"></circle>
                            <circle id="Oval-Copy-18" fill="#FFFFFF" fill-rule="nonzero" cx="4.65413524" cy="12.6819988" r="1"></circle>
                            <circle id="Oval-Copy-20" fill="#FFFFFF" fill-rule="nonzero" cx="2.07474566" cy="12.6819988" r="1"></circle>
                            <circle id="Oval-Copy-19" fill="#FFFFFF" fill-rule="nonzero" cx="4.65413524" cy="14.4015918" r="1"></circle>
                            <circle id="Oval-Copy-17" fill="#FFFFFF" fill-rule="nonzero" cx="2.50464392" cy="10.9624057" r="1"></circle>
                            <circle id="Oval-Copy-14" fill="#FFFFFF" fill-rule="nonzero" cx="7.66342309" cy="12.6819988" r="1"></circle>
                            <circle id="Oval-Copy-15" fill="#FFFFFF" fill-rule="nonzero" cx="8.09332135" cy="14.4015918" r="1"></circle>
                            <circle id="Oval-Copy-21" fill="#FFFFFF" fill-rule="nonzero" cx="1.6448474" cy="14.4015918" r="1"></circle>
                            <path d="M5.86816794,6.97074705 L7.42697904,6.97074705 L12.8350992,6.97074705 L18.9993625,6.97074705 L18.9993625,4.57255426 L12.8032867,4.57255426 C12.3897246,3.64525305 11.5626003,2.97375906 10.5446012,2.84585545 L10.5446012,1.91855423 C10.6718511,1.85460243 10.7672885,1.75867472 10.862726,1.662747 C11.403538,1.88657833 12.0715999,2.04645785 12.3897246,2.04645785 C12.9623491,2.04645785 13.4077237,1.5987952 13.4077237,1.02322893 C13.4077237,0.447662655 12.9623491,4.50555105e-14 12.3897246,4.50555105e-14 C12.0715999,4.50555105e-14 11.3081006,0.15987952 10.7672885,0.415686751 C10.7036636,0.383710847 10.6718511,0.319759039 10.6082262,0.287783135 C10.3219139,0.127903616 9.97197676,0.127903616 9.68566452,0.287783135 C9.62203958,0.319759039 9.55841463,0.383710847 9.49478969,0.447662655 C8.95397768,0.191855423 8.15866589,4.50555105e-14 7.8087287,4.50555105e-14 C7.23610421,4.50555105e-14 6.79072961,0.447662655 6.79072961,1.02322893 C6.79072961,1.5987952 7.23610421,2.04645785 7.8087287,2.04645785 C8.12685342,2.04645785 8.85854026,1.88657833 9.39935228,1.6307711 C9.46297722,1.72669881 9.52660216,1.79065062 9.62203958,1.85460243 L9.62203958,2.84585545 C8.66766543,3.00573497 7.87235364,3.67722895 7.45879151,4.57255426 L5.804543,4.57255426 C4.53204413,4.57255426 3.51404505,5.62775909 3.51404505,6.90679525 L3.51404505,9.14510852 L5.86816794,9.14510852 L5.86816794,6.97074705 Z" id="Shape" fill="#FFFFFF" fill-rule="nonzero"></path>
                            <rect id="Rectangle" fill="#FFFFFF" fill-rule="nonzero" x="3.14949132" y="8.16806701" width="3.00928785" height="1.28969479" rx="0.429898264"></rect>
                        </g>
                    </g>
                </g>
            </g>
        </g>
    </g>
</svg>