<?xml version="1.0" encoding="UTF-8"?>
<svg width="18px" height="22px" viewBox="0 0 18 22" version="1.1" xmlns="http://www.w3.org/2000/svg" xmlns:xlink="http://www.w3.org/1999/xlink">
    <!-- Generator: Sketch 63.1 (92452) - https://sketch.com -->
    <title>Governance</title>
    
    <g id="Page-1" stroke="none" stroke-width="1" fill="none" fill-rule="evenodd">
        <g id="Deposit-Liquidity" transform="translate(-22.000000, -364.000000)" fill="#173DC9" fill-rule="nonzero">
            <g id="政府融资" transform="translate(22.000000, 364.000000)">
                <path d="M17.4418605,19.1799363 L16.6569767,19.1799363 L16.6569767,9.29986067 C16.6569767,9.05901672 16.4634811,8.86469944 16.2236555,8.86469944 L14.8201308,8.86469944 C14.5803052,8.86469944 14.3868096,9.05901672 14.3868096,9.29986067 C14.3868096,9.54070462 14.5803052,9.73502189 14.8201308,9.73502189 L15.7903343,9.73502189 L15.7903343,19.1799363 L13.7872456,19.1799363 L13.7872456,7.17331807 C13.7872456,6.93247412 13.59375,6.73815685 13.3539244,6.73815685 L9.32321948,6.73815685 L9.32321948,4.32424363 L11.100109,4.32424363 C11.1491642,4.51308718 11.3181323,4.6526672 11.5198038,4.6526672 L13.8499273,4.6526672 C14.0897529,4.6526672 14.2832485,4.45834992 14.2832485,4.21750597 L14.2832485,1.96506768 C14.2832485,1.72422373 14.0897529,1.52990645 13.8499273,1.52990645 L11.953125,1.52990645 L11.953125,1.34379976 C11.953125,1.10295581 11.7596294,0.908638535 11.5198038,0.908638535 L9.32049419,0.908638535 L9.32049419,0.437898089 C9.32049419,0.19705414 9.12699855,0.00273686306 8.88717297,0.00273686306 C8.64734738,0.00273686306 8.45385174,0.19705414 8.45385174,0.437898089 L8.45385174,6.73815685 L4.40406977,6.73815685 C4.16424419,6.73815685 3.97074855,6.93247412 3.97074855,7.17331807 L3.97074855,19.1799363 L1.9622093,19.1799363 L1.9622093,9.73502189 L2.93241279,9.73502189 C3.17223837,9.73502189 3.36573401,9.54070462 3.36573401,9.29986067 C3.36573401,9.05901672 3.17223837,8.86469944 2.93241279,8.86469944 L1.52616279,8.86469944 C1.28633721,8.86469944 1.09284157,9.05901672 1.09284157,9.29986067 L1.09284157,19.1799363 L0.436046512,19.1799363 C0.19622093,19.1799363 0.0027252907,19.3742536 0.0027252907,19.6150975 L0.0027252907,21.4597432 C0.0027252907,21.7005872 0.19622093,21.8949045 0.436046512,21.8949045 L17.4418605,21.8949045 C17.681686,21.8949045 17.8752097,21.7005872 17.8752097,21.4597432 L17.8752097,19.6150975 C17.877907,19.3742536 17.681686,19.1799363 17.4418605,19.1799363 Z M13.4166061,2.4002289 L13.4166061,3.77960788 L11.9558503,3.77960788 L11.9558503,2.4002289 L13.4166061,2.4002289 Z M11.0864826,1.77896099 L11.0864826,3.45118432 L9.32321948,3.45118432 L9.32321948,1.77896099 L11.0864826,1.77896099 Z M4.83739099,7.6084793 L12.9178779,7.6084793 L12.9178779,19.1799363 L11.953125,19.1799363 L11.953125,13.1862062 C11.953125,11.4619825 10.5577762,10.0607086 8.84084302,10.0607086 C7.12390988,10.0607086 5.72856105,11.4619825 5.72856105,13.1862062 L5.72856105,19.1799363 L4.83739099,19.1799363 L4.83739099,7.6084793 Z M6.59792878,19.1799363 L6.59792878,13.1862062 C6.59792878,11.9436704 7.60356105,10.9337679 8.84084302,10.9337679 C10.078125,10.9337679 11.0837573,11.9436704 11.0837573,13.1862062 L11.0837573,19.1799363 L6.59792878,19.1799363 Z M17.0085392,21.0218451 L0.869367733,21.0218451 L0.869367733,20.0502588 L17.0085392,20.0502588 L17.0085392,21.0218451 Z" id="Shape"></path>
                <path d="M8.93895349,12.4280951 C9.17877907,12.4280951 9.37227471,12.2337779 9.37227471,11.9929339 L9.37227471,9.9047074 C9.37227471,9.66386346 9.17877907,9.46954618 8.93895349,9.46954618 C8.69912791,9.46954618 8.50563227,9.66386346 8.50563227,9.9047074 L8.50563227,11.9929339 C8.50563227,12.231041 8.69912791,12.4280951 8.93895349,12.4280951 Z" id="Path"></path>
                <path d="M8.93895349,9.46680932 C8.69912791,9.46680932 8.50563227,9.66112659 8.50563227,9.90197054 L8.50563227,11.9901971 C8.50563227,12.231041 8.69912791,12.4253583 8.93895349,12.4253583 C9.17877907,12.4253583 9.37227471,12.231041 9.37227471,11.9901971 L9.37227471,9.90197054 C9.37227471,9.66386346 9.17877907,9.46680932 8.93895349,9.46680932 L8.93895349,9.46680932 Z" id="Path"></path>
            </g>
        </g>
    </g>
</svg>