<?xml version="1.0" encoding="UTF-8"?>
<svg width="24px" height="24px" viewBox="0 0 24 24" version="1.1" xmlns="http://www.w3.org/2000/svg" xmlns:xlink="http://www.w3.org/1999/xlink">
    <title>Guide</title>
    <g id="renBTC" stroke="none" stroke-width="1" fill="none" fill-rule="evenodd">
        <g id="Balance03" transform="translate(-60.000000, -680.000000)" fill="#173DC9" fill-rule="nonzero">
            <g id="æŒ‡å—" transform="translate(60.000000, 680.000000)">
                <path d="M11.9446536,10.7360693 C11.2584714,10.7360693 10.7332341,11.264119 10.7332341,11.9474774 C10.7304217,12.6336596 11.2556476,13.1588855 11.9446536,13.1588855 C12.5884789,13.1588855 13.1560617,12.6308358 13.1560617,11.9474774 C13.153238,11.2612952 12.5828313,10.7360693 11.9446536,10.7360693 L11.9446536,10.7360693 Z" id="Path"></path>
                <path d="M22.9461596,7.29668675 C22.3418675,5.87067018 21.4834337,4.59713855 20.3878012,3.50150602 C19.2921687,2.40587349 18.0129895,1.54179217 16.5926205,0.94314759 C15.1157756,0.324736446 13.5513931,0.00564759036 11.9446536,0.00564759036 C10.3322666,0.00564759036 8.77070783,0.321912651 7.29668675,0.94314759 C5.87349398,1.54743976 4.59713855,2.40869729 3.50432982,3.49868223 C2.40869729,4.59713855 1.54461596,5.87349398 0.945971386,7.29386295 C0.324736446,8.76788404 0.00564759036,10.3294428 0.00564759036,11.9418298 C0.00564759036,13.5542169 0.321912651,15.1157756 0.945971386,16.5897967 C1.55026355,18.0158133 2.40869729,19.2893449 3.50432982,20.3849774 C4.59996235,21.4806099 5.87631777,22.3446913 7.29668675,22.9433358 C8.77070783,23.5645708 10.3322666,23.8836596 11.9446536,23.8836596 C13.5542169,23.8836596 15.1185994,23.5673946 16.5897967,22.9461596 C18.0158133,22.3418675 19.2893449,21.4834337 20.3849774,20.3878012 C21.4806099,19.2921687 22.3446913,18.0129895 22.9461596,16.5926205 C23.5673946,15.1185994 23.8864834,13.5570407 23.8864834,11.9446536 C23.8836596,10.3322666 23.5645708,8.77070783 22.9461596,7.29668675 Z M16.9907756,7.64966114 L14.0032003,13.7885919 C13.924134,13.9100151 13.8394202,14.0314383 13.7208208,14.0709714 L7.66095633,16.9794804 C7.58189006,17.0190136 7.4971762,17.0585467 7.41810994,17.0585467 C7.25432982,17.0585467 7.09337349,17.0190136 6.9719503,16.8947666 C6.76863705,16.7338102 6.72910392,16.4514307 6.85052711,16.2085843 L9.79856928,10.0301205 C9.83810241,9.90869729 9.9623494,9.7872741 10.0809488,9.74774096 L16.1831702,6.88158886 C16.4231928,6.76016566 16.7083961,6.7996988 16.8721762,7.00301205 C17.0698419,7.20067771 17.1121988,7.48588102 16.9907756,7.64966114 Z" id="Shape"></path>
            </g>
        </g>
    </g>
</svg>