<?xml version="1.0" encoding="UTF-8"?>
<svg width="20px" height="20px" viewBox="0 0 20 20" version="1.1" xmlns="http://www.w3.org/2000/svg" xmlns:xlink="http://www.w3.org/1999/xlink">
    <!-- Generator: Sketch 63.1 (92452) - https://sketch.com -->
    <title>Loan</title>
    
    <g id="Page-1" stroke="none" stroke-width="1" fill="none" fill-rule="evenodd">
        <g id="Wallet" transform="translate(-21.000000, -249.000000)" fill="#173DC9" fill-rule="nonzero">
            <g id="å¸-(1)-copy" transform="translate(21.000000, 249.000000)">
                <path d="M11.7602,18.6872 C11.0122,18.7748 10.2144,18.8236 9.379,18.8236 C5.0392,18.8236 1.7044,17.5162 1.1766,16.2268 L1.1766,14.2486 C2.7332,15.508 5.7392,16.3244 9.379,16.3244 C9.804,16.3244 10.2188,16.3122 10.625,16.2904 C10.5788441,16.0191602 10.5554294,15.7445385 10.555,15.4694 C10.555,15.3502 10.5608,15.2326 10.569,15.1154 C10.1834,15.1364 9.7866,15.1478 9.3788,15.1478 C4.8276,15.1478 1.569,13.7834 1.1764,12.4642 L1.1764,10.4176 C2.733,11.677 5.739,12.493 9.3788,12.493 C10.1702,12.493 10.9292,12.4524 11.6518,12.379 C12.2535319,11.6362086 13.0581594,11.0842952 13.9678,10.7904 C12.6888,11.1142 11.1302,11.3166 9.3788,11.3166 C4.8276,11.3166 1.569,9.9526 1.1764,8.6332 L1.1764,6.2052 C2.8866,7.5442 6.2022,8.2502 9.3788,8.2502 C12.5554,8.2502 15.8714,7.5444 17.5812,6.2052 L17.5812,8.634 C17.3566,9.3868 16.1976,10.1536 14.3996,10.6734 C14.7508211,10.594623 15.1096527,10.5547827 15.4696,10.5546 C16.013,10.5546 16.5352,10.6448 17.0242,10.8082 C17.2176383,10.6895228 17.4036509,10.559147 17.5812,10.4178 L17.5812,11.0324 C18.0093281,11.2372371 18.4056206,11.5028467 18.7578,11.821 L18.7578,4.137 L18.7578,4.125 C18.7578,1.4458 13.9254,0 9.379,0 C4.859,0 0.0566,1.4292 0.0008,4.0786 L0,4.0782 L0,15.9714 L0.0024,15.9722 C0.1184,18.589 4.8878,20 9.379,20 C10.5876,20 11.8154,19.8968 12.9676,19.6964 C12.5139204,19.4264978 12.1063096,19.0857981 11.7602,18.6872 L11.7602,18.6872 Z M9.379,1.1764 C14.1154,1.1764 17.6544,2.7332 17.6544,4.125 C17.6544,5.517 14.1154,7.0736 9.379,7.0736 C4.6426,7.0736 1.1036,5.517 1.1036,4.125 C1.1036,2.7332 4.6426,1.1764 9.379,1.1764 Z" id="Shape"></path>
                <path d="M15.4696,20 C12.9712,20 10.9388,17.9676 10.9388,15.4692 C10.9388,12.9708 12.9712,10.9384 15.4696,10.9384 C17.9676,10.9384 20,12.9708 20,15.4692 C20,17.9676 17.9676,20 15.4696,20 Z M15.4696,11.8602 C13.4798,11.8602 11.8606,13.4794 11.8606,15.4692 C11.8606,17.459 13.4798,19.0778 15.4696,19.0778 C17.4594,19.0778 19.0782,17.459 19.0782,15.4692 C19.0782,13.4794 17.4594,11.8602 15.4696,11.8602 Z" id="Shape"></path>
                <path d="M13.7238,12.818 L15.36,12.818 C16.1056,12.818 16.6468,12.9238 16.9836,13.136 C17.3206,13.3486 17.4888,13.6856 17.4888,14.1486 C17.4888,14.4626 17.4152,14.7204 17.2678,14.9216 C17.1204,15.1232 16.9242,15.2442 16.6798,15.2848 L16.6798,15.3208 C17.013,15.395 17.2534,15.534 17.4008,15.738 C17.5482,15.942 17.6218,16.2126 17.6218,16.5506 C17.6218,17.0302 17.4486,17.4042 17.1022,17.6728 C16.7558,17.9412 16.2852,18.0756 15.6906,18.0756 L13.7236,18.0756 L13.7236,12.818 L13.7238,12.818 Z M14.8384,14.9 L15.4858,14.9 C15.7878,14.9 16.0066,14.8532 16.142,14.7598 C16.2774,14.6664 16.3452,14.5118 16.3452,14.2958 C16.3452,14.0946 16.2716,13.95 16.1242,13.8626 C15.9768,13.7752 15.7436,13.7314 15.4248,13.7314 L14.8384,13.7314 L14.8384,14.9 Z M14.8384,15.7848 L14.8384,17.1548 L15.565,17.1548 C15.8718,17.1548 16.0984,17.0962 16.2444,16.9786 C16.3906,16.861 16.464,16.6814 16.464,16.4392 C16.464,16.0028 16.1522,15.785 15.529,15.785 L14.8384,15.785 L14.8384,15.7848 Z" id="Shape"></path>
            </g>
        </g>
    </g>
</svg>