<?xml version="1.0" encoding="UTF-8"?>
<svg width="25px" height="25px" viewBox="0 0 25 25" version="1.1" xmlns="http://www.w3.org/2000/svg" xmlns:xlink="http://www.w3.org/1999/xlink">
    <!-- Generator: Sketch 59.1 (86144) - https://sketch.com -->
    <title>States</title>
    
    <defs>
        <path d="M24.4883841,23.9213378 C24.7708528,23.9213378 25,24.1625461 25,24.4606689 C25,24.7581141 24.7708528,25 24.4883841,25 L24.4883841,25 L0.511278502,25 C0.229147263,25 0,24.7581141 0,24.4606689 C0,24.1625461 0.229147263,23.9213378 0.511278502,23.9213378 L0.511278502,23.9213378 Z M5.41685228,14.6052619 C6.38271305,14.6052619 7.1683608,15.2717559 7.1683608,16.0915109 L7.1683608,16.0915109 L7.1683608,19.9563037 C7.1683608,20.7755132 6.38271305,21.4425527 5.41685228,21.4425527 L5.41685228,21.4425527 L3.10108128,21.4425527 C2.13555799,21.4425527 1.34991023,20.7755132 1.34991023,19.9563037 L1.34991023,19.9563037 L1.34991023,16.0915109 C1.34991023,15.2717559 2.13555799,14.6052619 3.10108128,14.6052619 L3.10108128,14.6052619 Z M13.5163137,10.5919626 C14.4814995,10.5919626 15.2671472,11.2536973 15.2671472,12.066995 L15.2671472,12.066995 L15.2671472,19.9417733 C15.2671472,20.7548003 14.4814995,21.4168057 13.5163137,21.4168057 L13.5163137,21.4168057 L11.2002052,21.4168057 C10.2350194,21.4168057 9.44937162,20.7548003 9.44937162,19.9417733 L9.44937162,19.9417733 L9.44937162,12.066995 C9.44937162,11.2536973 10.2350194,10.5919626 11.2002052,10.5919626 L11.2002052,10.5919626 Z M21.9542652,6.12770354 C22.9197884,6.12770354 23.7054362,6.80722557 23.7054362,7.64238454 L23.7054362,7.64238454 L23.7054362,19.8773941 C23.7054362,20.7122751 22.9197884,21.3920751 21.9542652,21.3920751 L21.9542652,21.3920751 L19.6378192,21.3920751 C18.6716209,21.3920751 17.8859732,20.7122751 17.8863106,19.8773941 L17.8863106,19.8773941 L17.8863106,7.64238454 C17.8863106,6.80694764 18.6719584,6.12770354 19.6378192,6.12770354 L19.6378192,6.12770354 Z M5.41685228,15.4732858 L3.10108128,15.4732858 C2.69914551,15.4732858 2.37212975,15.7506281 2.37212975,16.0915109 L2.37212975,16.0915109 L2.37212975,19.9563037 C2.37212975,20.296641 2.69914551,20.574256 3.10108128,20.574256 L3.10108128,20.574256 L5.41685228,20.574256 C5.81878805,20.574256 6.14546633,20.296641 6.14546633,19.9563037 L6.14546633,19.9563037 L6.14546633,16.0915109 C6.14546633,15.7506281 5.81878805,15.4732858 5.41685228,15.4732858 L5.41685228,15.4732858 Z M13.5163137,11.4534357 L11.2002052,11.4534357 C10.7986069,11.4534357 10.4722661,11.7286848 10.4722661,12.066995 L10.4722661,12.066995 L10.4722661,19.9417733 C10.4722661,20.2795422 10.7986069,20.555062 11.2002052,20.555062 L11.2002052,20.555062 L13.5163137,20.555062 C13.917912,20.555062 14.2442528,20.2795422 14.2442528,19.9417733 L14.2442528,19.9417733 L14.2442528,12.066995 C14.2442528,11.7286848 13.917912,11.4534357 13.5163137,11.4534357 L13.5163137,11.4534357 Z M21.9542652,7.01233283 L19.6374817,7.01233283 C19.2362209,7.01233283 18.9088677,7.29498064 18.9088677,7.64238454 L18.9088677,7.64238454 L18.9092051,7.64238454 L18.9092051,19.8773941 C18.9092051,20.2242421 19.2365584,20.5071678 19.6378192,20.5071678 L19.6378192,20.5071678 L21.9542652,20.5071678 C22.355526,20.5071678 22.6825417,20.2242421 22.6825417,19.8773941 L22.6825417,19.8773941 L22.6825417,7.64238454 C22.6825417,7.29498064 22.355526,7.01233283 21.9542652,7.01233283 L21.9542652,7.01233283 Z M10.3347245,0.000274826063 L10.4265157,0.00592062518 L16.0019824,0.882333697 C16.218643,0.91621128 16.4099928,1.03749303 16.5405966,1.22348096 C16.6715379,1.40980766 16.7258718,1.63814257 16.6931364,1.86647748 L16.6931364,1.86647748 L15.8615917,7.74559323 C15.8241317,8.01288736 15.6054463,8.20531203 15.3567253,8.20531203 C15.331077,8.20531203 15.3054287,8.20327938 15.2801179,8.19921407 C15.0013614,8.15517321 14.8083243,7.88110356 14.849834,7.58636859 L14.849834,7.58636859 L15.5467252,2.66361701 L3.7913694,11.7526337 C3.70058793,11.8230991 3.59461998,11.8569767 3.48966446,11.8569767 C3.33239992,11.8569767 3.17682276,11.7807521 3.07692941,11.6371112 C2.90987802,11.3969191 2.95881226,11.0594984 3.18627213,10.883335 L3.18627213,10.883335 L14.9281288,1.80414273 L10.2756632,1.07238694 C9.99589429,1.02868486 9.80353209,0.754276433 9.8453793,0.459541461 C9.88722652,0.165145265 10.1484342,-0.0377814569 10.4265157,0.00592062518 Z" id="path-1"></path>
    </defs>
    <g id="Symbols" stroke="none" stroke-width="1" fill="none" fill-rule="evenodd">
        <g id="Menu-sidebar" transform="translate(-49.000000, -559.000000)">
            <g id="Icons-/-Tradeview-/-Outline" transform="translate(49.000000, 559.000000)">
                <mask id="mask-2" fill="white">
                    <use xlink:href="#path-1"></use>
                </mask>
                <use id="Shape" fill="#FFFFFF" fill-rule="evenodd" xlink:href="#path-1"></use>
            </g>
        </g>
    </g>
</svg>