<?xml version="1.0" encoding="UTF-8"?>
<svg width="24px" height="24px" viewBox="0 0 24 24" version="1.1" xmlns="http://www.w3.org/2000/svg" xmlns:xlink="http://www.w3.org/1999/xlink">
    <!-- Generator: Sketch 63.1 (92452) - https://sketch.com -->
    <title>Twitter</title>
    
    <g id="Page-1" stroke="none" stroke-width="1" fill="none" fill-rule="evenodd">
        <g id="Deposit-Liquidity" transform="translate(-21.000000, -628.000000)" fill="#173DC9" fill-rule="nonzero">
            <g id="推特_twitter43" transform="translate(21.000000, 628.000000)">
                <path d="M24,12 C24,5.37272728 18.6272727,0 12,0 C5.37272728,0 0,5.37272728 0,12 C0,18.6272727 5.37272728,24 12,24 C18.6272727,24 24,18.6272727 24,12 Z M5.53854546,16.2643636 C5.74581818,16.2905455 5.95745456,16.3047273 6.17127274,16.3047273 C7.4138182,16.3069091 8.55709092,15.8585455 9.46363638,15.1058182 C8.3029091,15.0785455 7.32436366,14.2581818 6.98727274,13.1323636 C7.14872728,13.1661818 7.31563638,13.1858182 7.4858182,13.1869091 C7.72800002,13.188 7.96145456,13.1552727 8.18400002,13.092 C6.97090913,12.8236364 6.0567273,11.6727273 6.0567273,10.3014545 C6.0567273,10.2894545 6.0567273,10.2774545 6.0567273,10.2654545 C6.41454548,10.4814545 6.82254548,10.6123636 7.2578182,10.632 C6.54763636,10.1181818 6.07963636,9.24545454 6.07963636,8.26363636 C6.07963636,7.74436364 6.21054546,7.26 6.43854546,6.84545454 C7.74654546,8.57454544 9.70036364,9.72218182 11.9029091,9.8650909 C11.8570909,9.65890908 11.8341818,9.444 11.8341818,9.22472726 C11.8341818,7.67454544 13.0210909,6.43745454 14.4850909,6.46145454 C15.2476364,6.47454544 15.9370909,6.82472726 16.4203636,7.37454544 C17.0247273,7.25890908 17.592,7.03636362 18.1036364,6.72545454 C17.9061818,7.37236364 17.4850909,7.91127272 16.9374545,8.24836364 C17.4741818,8.18836364 17.9847273,8.04654546 18.4603636,7.83163636 C18.1047273,8.38472726 17.6552727,8.868 17.1370909,9.25418182 C17.1425455,9.37418182 17.1447273,9.49418182 17.1447273,9.61418182 C17.1447273,13.2949091 14.4774546,17.5396364 9.60109092,17.5374564 C8.10545454,17.5385455 6.71127272,17.0694545 5.53854546,16.2643636 Z" id="Shape"></path>
            </g>
        </g>
    </g>
</svg>