<?xml version="1.0" encoding="UTF-8"?>
<svg width="24px" height="24px" viewBox="0 0 24 24" version="1.1" xmlns="http://www.w3.org/2000/svg" xmlns:xlink="http://www.w3.org/1999/xlink">
    <title>Wallet-gary</title>
    <g id="renBTC" stroke="none" stroke-width="1" fill="none" fill-rule="evenodd">
        <g id="Balance03" transform="translate(-888.000000, -564.000000)">
            <g id="wallet-icon.38831795" transform="translate(888.000000, 564.000000)">
                <path d="M12,24 C18.6273931,24 24,18.6273931 24,12 C24,5.37258207 18.6273931,0 12,0 C5.37258207,0 0,5.37258207 0,12 C0,18.6273931 5.37258207,24 12,24 Z" id="Path" fill="#EBEDF2"></path>
                <g id="Group" opacity="0.2" transform="translate(6.620690, 6.620690)" fill="#001C3A">
                    <path d="M6.55448276,4.15613793 L6.55448276,6.25655172 C6.55448276,6.65875862 6.8822069,7.00137931 7.29931034,7.00137931 L11.9172414,7.00137931 L11.9172414,9.42951724 C11.9172414,9.98068966 11.4703448,10.4275862 10.934069,10.4275862 L0.983172414,10.4275862 C0.446896552,10.4275862 0,9.98068966 0,9.42951724 L0,0.998068966 C0,0.446896552 0.446896552,0 0.983172414,0 L10.934069,0 C11.4852414,0 11.9172414,0.446896552 11.9172414,0.998068966 L11.9172414,3.4262069 L7.29931034,3.4262069 C6.8822069,3.4262069 6.55448276,3.75393103 6.55448276,4.15613793 Z" id="Path" fill-rule="nonzero"></path>
                    <path d="M7.59724138,4.02206897 L12.662069,4.02206897 C12.7514483,4.02206897 12.8110345,4.08165517 12.8110345,4.15613793 L12.8110345,6.25655172 C12.8110345,6.34593103 12.7365517,6.40551724 12.662069,6.40551724 L7.59724138,6.40551724 C7.50786207,6.40551724 7.44827586,6.33103448 7.44827586,6.25655172 L7.44827586,4.15613793 C7.44827586,4.08165517 7.52275862,4.02206897 7.59724138,4.02206897 Z M8.04413793,5.2137931 C8.04413793,5.37765517 8.1782069,5.51172414 8.34206897,5.51172414 C8.50593103,5.51172414 8.64,5.37765517 8.64,5.2137931 C8.64,5.04993103 8.50593103,4.91586207 8.34206897,4.91586207 C8.1782069,4.91586207 8.04413793,5.04993103 8.04413793,5.2137931 Z" id="Shape" opacity="0.75"></path>
                </g>
            </g>
        </g>
    </g>
</svg>