<svg width="1440" height="9947" viewBox="0 0 1440 9947" fill="none" xmlns="http://www.w3.org/2000/svg">
<g opacity="0.5" clip-path="url(#clip0_927_271274)">
<rect width="1440" height="9947" fill="white"/>
<g filter="url(#filter0_f_927_271274)">
<path fill-rule="evenodd" clip-rule="evenodd" d="M831.977 2534.53C908.929 2630.91 1005.25 2753.59 1031.04 3429C1058.64 4151.79 1003.03 4923.72 943.686 5460.14C887.908 5964.3 809.766 6252.13 732.91 6123.67C663.503 6007.66 617.87 5439.59 585.539 4861.54C558.578 4379.51 543.154 3767.74 575.96 3317.57C604.459 2926.51 669.965 3185.85 718.465 3037.51C760.386 2909.3 788.212 2479.71 831.977 2534.53Z" fill="#B8D6FF"/>
<path d="M43.9315 4925.08C-72.2345 5876.69 61.9654 8680.31 214.115 8061.55C366.265 7442.79 428.744 8514.95 428.744 8514.95C562.482 8749.66 564.364 10033 836.498 8061.55C1108.63 6090.06 867.838 4642.37 672.878 4429.01C557.753 4060.95 410.016 3885.99 407.239 5106.44C403.768 6632.01 189.139 3735.57 43.9315 4925.08Z" fill="#A2B9EE"/>
<path d="M850.42 5996.76C759.988 6737.95 731.976 7692.22 850.42 7210.29C968.863 6728.35 1017.5 7563.43 1017.5 7563.43C1121.61 7746.23 1116.08 6802.76 1249.84 7064.5C1513.39 7580.23 1316.94 5568.84 1165.17 5402.66C1075.55 5115.99 1034.11 3720.04 918.373 4381C808.833 5006.55 963.459 5070.29 850.42 5996.76Z" fill="#E7E2FF"/>
<path d="M798.757 2637.34C682.591 3588.95 933.146 2513.57 992.733 3062.99C1052.32 3612.4 942.981 5100.62 942.981 5100.62C1076.72 5335.33 1031.26 2966.97 1203.08 3303.02C1541.63 3965.18 1471.74 1142.7 1276.78 929.332C1161.66 561.277 1091.66 -372.685 942.981 475.93C802.268 1279.08 943.964 1447.83 798.757 2637.34Z" fill="#A4B5F2"/>
</g>
<g filter="url(#filter1_f_927_271274)">
<path fill-rule="evenodd" clip-rule="evenodd" d="M1056.09 2030.99C1155.52 2044.49 1279.99 2061.69 1313.31 2156.34C1348.98 2257.64 1277.13 2365.82 1200.44 2441C1128.36 2511.66 1027.39 2551.99 928.072 2533.99C838.384 2517.73 779.417 2438.12 737.639 2357.11C702.8 2289.55 682.869 2203.82 725.261 2140.73C762.087 2085.92 846.734 2122.27 909.406 2101.48C963.576 2083.51 999.533 2023.3 1056.09 2030.99Z" fill="#B8D6FF"/>
<path d="M37.7684 2366.01C-112.342 2499.38 61.0719 2892.3 257.68 2805.58C454.288 2718.86 535.025 2869.12 535.025 2869.12C707.84 2902.01 710.273 3081.88 1061.92 2805.58C1413.58 2529.28 1102.42 2326.39 850.495 2296.49C701.73 2244.91 510.824 2220.39 507.236 2391.43C502.75 2605.23 225.406 2199.31 37.7684 2366.01Z" fill="#A2B9EE"/>
<path d="M1079.91 2516.21C963.055 2620.08 926.858 2753.82 1079.91 2686.28C1232.96 2618.74 1295.82 2735.77 1295.82 2735.77C1430.35 2761.39 1423.2 2629.16 1596.04 2665.85C1936.6 2738.12 1682.75 2456.23 1486.63 2432.94C1370.82 2392.77 1317.28 2197.13 1167.72 2289.76C1026.17 2377.43 1225.98 2386.36 1079.91 2516.21Z" fill="#E7E2FF"/>
<path d="M1013.16 2045.4C863.047 2178.76 1186.81 2028.05 1263.81 2105.05C1340.81 2182.05 1199.52 2390.62 1199.52 2390.62C1372.34 2423.51 1313.59 2091.59 1535.62 2138.69C1973.1 2231.49 1882.79 1835.93 1630.87 1806.02C1482.1 1754.44 1391.65 1623.55 1199.52 1742.48C1017.69 1855.04 1200.79 1878.69 1013.16 2045.4Z" fill="#C6BBFA"/>
</g>
<g filter="url(#filter2_f_927_271274)">
<path fill-rule="evenodd" clip-rule="evenodd" d="M1104.09 2722.99C1203.52 2736.49 1327.99 2753.69 1361.31 2848.34C1396.98 2949.64 1325.13 3057.82 1248.44 3133C1176.36 3203.66 1075.39 3243.99 976.072 3225.99C886.384 3209.73 827.417 3130.12 785.639 3049.11C750.8 2981.55 730.869 2895.82 773.261 2832.73C810.087 2777.92 894.734 2814.27 957.406 2793.48C1011.58 2775.51 1047.53 2715.3 1104.09 2722.99Z" fill="#B8D6FF"/>
<path d="M85.7684 3058.01C-64.3416 3191.38 109.072 3584.3 305.68 3497.58C502.288 3410.86 583.025 3561.12 583.025 3561.12C755.84 3594.01 758.273 3773.88 1109.92 3497.58C1461.58 3221.28 1150.42 3018.39 898.495 2988.49C749.73 2936.91 558.824 2912.39 555.236 3083.43C550.75 3297.23 273.406 2891.31 85.7684 3058.01Z" fill="#A2B9EE"/>
<path d="M1127.91 3208.21C1011.06 3312.08 974.858 3445.82 1127.91 3378.28C1280.96 3310.74 1343.82 3427.77 1343.82 3427.77C1478.35 3453.39 1471.2 3321.16 1644.04 3357.85C1984.6 3430.12 1730.75 3148.23 1534.63 3124.94C1418.82 3084.77 1365.28 2889.13 1215.72 2981.76C1074.17 3069.43 1273.98 3078.36 1127.91 3208.21Z" fill="#E7E2FF"/>
<path d="M1061.16 2737.4C911.047 2870.76 1234.81 2720.05 1311.81 2797.05C1388.81 2874.05 1247.52 3082.62 1247.52 3082.62C1420.34 3115.51 1361.59 2783.59 1583.62 2830.69C2021.1 2923.49 1930.79 2527.93 1678.87 2498.02C1530.1 2446.44 1439.65 2315.55 1247.52 2434.48C1065.69 2547.04 1248.79 2570.69 1061.16 2737.4Z" fill="#C6BBFA"/>
</g>
</g>
<defs>
<filter id="filter0_f_927_271274" x="-358.829" y="-228.829" width="2157.66" height="9729.66" filterUnits="userSpaceOnUse" color-interpolation-filters="sRGB">
<feFlood flood-opacity="0" result="BackgroundImageFix"/>
<feBlend mode="normal" in="SourceGraphic" in2="BackgroundImageFix" result="shape"/>
<feGaussianBlur stdDeviation="179.414" result="effect1_foregroundBlur_927_271274"/>
</filter>
<filter id="filter1_f_927_271274" x="-377.829" y="1335.17" width="2578.43" height="1980.66" filterUnits="userSpaceOnUse" color-interpolation-filters="sRGB">
<feFlood flood-opacity="0" result="BackgroundImageFix"/>
<feBlend mode="normal" in="SourceGraphic" in2="BackgroundImageFix" result="shape"/>
<feGaussianBlur stdDeviation="179.414" result="effect1_foregroundBlur_927_271274"/>
</filter>
<filter id="filter2_f_927_271274" x="-329.829" y="2027.17" width="2578.43" height="1980.66" filterUnits="userSpaceOnUse" color-interpolation-filters="sRGB">
<feFlood flood-opacity="0" result="BackgroundImageFix"/>
<feBlend mode="normal" in="SourceGraphic" in2="BackgroundImageFix" result="shape"/>
<feGaussianBlur stdDeviation="179.414" result="effect1_foregroundBlur_927_271274"/>
</filter>
<clipPath id="clip0_927_271274">
<rect width="1440" height="9947" fill="white"/>
</clipPath>
</defs>
</svg>
