<?xml version="1.0" encoding="UTF-8"?>
<svg width="32px" height="29px" viewBox="0 0 32 29" version="1.1" xmlns="http://www.w3.org/2000/svg" xmlns:xlink="http://www.w3.org/1999/xlink">
    <title>Alert</title>
    <g id="shutdown" stroke="none" stroke-width="1" fill="none" fill-rule="evenodd">
        <g id="Self-Serviced-Loan02" transform="translate(-320.000000, -115.000000)" fill="#FFFFFF" fill-rule="nonzero">
            <g id="警告" transform="translate(320.000000, 115.000000)">
                <path d="M31.3452778,24.0952365 L18.7905597,2.02386346 C17.2549408,-0.674621155 14.745292,-0.674621155 13.2100758,2.02386346 L0.655295694,24.0952365 C-0.879920498,26.7964881 0.376050022,29 3.44434508,29 L28.5561045,29 C31.6245235,29 32.879193,26.7963308 31.3452778,24.0952365 Z M14.2758866,8.28639031 C14.7270473,7.79126042 15.3006238,7.54364831 16.0001473,7.54364831 C16.7000426,7.54364831 17.2730925,7.78865066 17.7247178,8.27648582 C18.1734004,8.76542148 18.3976643,9.37688975 18.3976643,10.1121798 C18.3976643,10.7448091 17.4611149,15.3967725 17.1487252,18.7810876 L14.892922,18.7810876 C14.6189422,15.396741 13.6027234,10.7448091 13.6027234,10.1121798 C13.6027853,9.38805195 13.8274209,8.7790991 14.2758866,8.28639031 L14.2758866,8.28639031 Z M17.6931226,24.3788506 C17.2185754,24.8479773 16.6538889,25.0817546 16.0003022,25.0817546 C15.3468705,25.0817546 14.7820291,24.8479773 14.3075747,24.3788506 C13.8344214,23.9108244 13.5992541,23.3439106 13.5992541,22.6781091 C13.5992541,22.0157664 13.8344214,21.4427212 14.3075747,20.9624324 C14.7820291,20.4819863 15.3468705,20.2417632 16.0003022,20.2417632 C16.6538889,20.2417632 17.2185754,20.4819863 17.6931226,20.9624324 C18.1659662,21.4427212 18.4016911,22.0157664 18.4016911,22.6781091 C18.4016911,23.3439106 18.1659662,23.9108244 17.6931226,24.3788506 L17.6931226,24.3788506 Z" id="Shape"></path>
            </g>
        </g>
    </g>
</svg>