<?xml version="1.0" encoding="UTF-8"?>
<svg width="16px" height="16px" viewBox="0 0 16 16" version="1.1" xmlns="http://www.w3.org/2000/svg" xmlns:xlink="http://www.w3.org/1999/xlink">
    <title>Checked-circle</title>
    <g id="Page-1" stroke="none" stroke-width="1" fill="none" fill-rule="evenodd">
        <g id="Wallet_transfer" transform="translate(-364.000000, -875.000000)">
            <g id="Group-4" transform="translate(364.000000, 875.000000)">
                <circle id="Oval" fill="#173DC9" cx="8" cy="8" r="8"></circle>
                <g id="勾" fill="#FFFFFF" fill-rule="nonzero">
                    <path d="M7.9787234,15.9574468 C5.12820005,15.9574468 2.49420784,14.4367108 1.06894615,11.9680851 C-0.356315541,9.49945951 -0.356315541,6.4579873 1.06894615,3.98936167 C2.49420784,1.52073604 5.12820005,1.20943444e-15 7.9787234,1.20943444e-15 C12.3852506,1.20943444e-15 15.9574467,3.57219619 15.9574467,7.9787234 C15.9574467,12.3852506 12.3852506,15.9574468 7.9787234,15.9574468 L7.9787234,15.9574468 Z M7.9787234,14.893617 C11.7977137,14.893617 14.893617,11.7977137 14.893617,7.9787234 C14.893617,4.15973311 11.7977137,1.06382979 7.9787234,1.06382979 C4.15973311,1.06382979 1.06382979,4.15973311 1.06382979,7.9787234 C1.06382979,11.7977137 4.15973311,14.893617 7.9787234,14.893617 Z" id="Shape"></path>
                    <path d="M6.94361702,11.0489488 C6.81008711,11.0491996 6.6812063,10.9999217 6.58191489,10.9106383 L3.79468085,8.3787234 C3.69472966,8.29052222 3.63608053,8.16464027 3.63284989,8.03137643 C3.62961926,7.89811259 3.6820997,7.76953659 3.77765957,7.67659574 C3.98211442,7.47797875 4.305263,7.47101434 4.51808511,7.6606383 L6.89787234,9.82340426 L11.2159574,4.84680851 C11.4055183,4.63456222 11.7268557,4.60484316 11.9521277,4.7787234 C12.0588295,4.85876922 12.1272962,4.97970351 12.1410287,5.11238373 C12.1547612,5.24506395 12.1125141,5.3774572 12.0244681,5.47765957 L7.34787234,10.8680851 C7.24564469,10.9840337 7.09819202,11.0499993 6.94361702,11.0489488 L6.94361702,11.0489488 Z" id="Path"></path>
                </g>
            </g>
        </g>
    </g>
</svg>