<?xml version="1.0" encoding="UTF-8"?>
<svg width="457px" height="310px" viewBox="0 0 457 310" version="1.1" xmlns="http://www.w3.org/2000/svg" xmlns:xlink="http://www.w3.org/1999/xlink">
    <!-- Generator: Sketch 63.1 (92452) - https://sketch.com -->
    <title>Coming-soon</title>
    
    <defs>
        <filter x="-55.6%" y="-50.0%" width="211.1%" height="200.0%" filterUnits="objectBoundingBox" id="filter-1">
            <feOffset dx="-2" dy="2" in="SourceAlpha" result="shadowOffsetOuter1"></feOffset>
            <feColorMatrix values="0 0 0 0 0.639215686   0 0 0 0 0.694117647   0 0 0 0 0.749019608  0 0 0 0.3 0" type="matrix" in="shadowOffsetOuter1" result="shadowMatrixOuter1"></feColorMatrix>
            <feMerge>
                <feMergeNode in="shadowMatrixOuter1"></feMergeNode>
                <feMergeNode in="SourceGraphic"></feMergeNode>
            </feMerge>
        </filter>
        <filter x="-55.6%" y="-50.0%" width="211.1%" height="200.0%" filterUnits="objectBoundingBox" id="filter-2">
            <feOffset dx="-2" dy="2" in="SourceAlpha" result="shadowOffsetOuter1"></feOffset>
            <feColorMatrix values="0 0 0 0 0.639215686   0 0 0 0 0.694117647   0 0 0 0 0.749019608  0 0 0 0.3 0" type="matrix" in="shadowOffsetOuter1" result="shadowMatrixOuter1"></feColorMatrix>
            <feMerge>
                <feMergeNode in="shadowMatrixOuter1"></feMergeNode>
                <feMergeNode in="SourceGraphic"></feMergeNode>
            </feMerge>
        </filter>
    </defs>
    <g id="Page-1" stroke="none" stroke-width="1" fill="none" fill-rule="evenodd">
        <g id="Liquid-DOT_Vote-for-Validators" transform="translate(-542.000000, -258.000000)">
            <g id="Group" transform="translate(542.000000, 259.000000)">
                <path d="M0,308.89846 L0,281.628686 L13.942441,272.663025 L37.6582597,272.663025 L37.6582597,234.362011 L45.9684705,234.362011 L45.9684705,217.689095 L86.823815,217.689095 L86.823815,190.33077 L100.915369,177.586107 L131.485263,177.586107 L131.485263,159.886536 L138.821058,159.886536 L138.821058,153.726394 L145.107,153.726394 C148.294292,143.744162 153.34899,138.753046 160.271095,138.753046 C167.1932,138.753046 172.504784,143.441933 176.205847,152.819709 L183.067608,152.819709 L183.067608,159.886536 L190.459165,159.886536 L190.459165,171.426957 L219.792711,190.33077 L219.792711,159.886536 L223.71401,159.886536 L223.71401,116 C251.780174,126.192923 265.813256,134.41923 265.813256,140.678921 C265.813256,146.938612 265.813256,153.341151 265.813256,159.886536 L272.344151,159.886536 L272.344151,218.641074 L287.465801,209.050563 L323.010627,209.050563 L323.010627,206.839846 L330.645603,206.839846 L330.645603,199.483575 L337.315595,199.483575 L337.315595,180.203344 L344.970004,175.577868 L344.970004,156.87857 L351.381236,156.87857 L351.381236,146.386999 L360.90271,121.362381 L371.906178,146.386999 L371.906178,156.87857 L378.499974,156.87857 L378.499974,175.577868 L385.803572,180.203344 L385.803572,199.483575 L392.293046,199.483575 L392.293046,206.839846 L399.367544,206.839846 L399.367544,246.348928 L456.202343,267.291671 L456.202343,308.89846 L0,308.89846 Z" id="Path-88" fill="#F0F2F5"></path>
                <rect id="Rectangle" fill="#A3B1BF" x="152" y="176.414583" width="4" height="14"></rect>
                <rect id="Rectangle" stroke="#A3B1BF" stroke-width="1.6" x="130.8" y="268.214583" width="47.4" height="5.4"></rect>
                <rect id="Rectangle" fill="#E4E8ED" x="373" y="52.4145829" width="12" height="25"></rect>
                <rect id="Rectangle-Copy-27" fill="#E4E8ED" x="147" y="52.4145829" width="14" height="25"></rect>
                <rect id="Rectangle-Copy-26" fill="#E4E8ED" x="387" y="52.4145829" width="7" height="14"></rect>
                <polygon id="Rectangle" stroke="#A3B1BF" stroke-width="1.6" fill="#F0F2F5" points="56 49.4145829 284 45.4145829 301.978666 45.4145829 397 49.4145829 397 56.4145829 301.978666 60.0562571 284 60.0562571 56 56.4145829"></polygon>
                <polygon id="Rectangle" stroke="#A3B1BF" stroke-width="1.6" points="277 219.414583 284.05741 202.75561 301.965482 202.75561 309 219.414583 309 307.414583 277 307.414583"></polygon>
                <polygon id="Rectangle" stroke="#A3B1BF" stroke-width="1.6" fill="#F0F2F5" points="290.793653 3.69482223e-13 295.215591 3.69482223e-13 298 3.81607903 298 22.4145829 298 31.4145829 298 40.4106396 301.978666 45.4145829 284.271627 45.4145829 288 40.4161961 288 3.83056826"></polygon>
                <rect id="Rectangle" stroke="#A3B1BF" stroke-width="1.6" fill="#F0F2F5" x="284" y="60.4145829" width="18" height="247"></rect>
                <polyline id="Path-79" stroke="#A3B1BF" stroke-width="1.6" points="60.8779478 49.8545294 288 3.83056826 298.046342 3.83056826 395.417453 49.2659414"></polyline>
                <polygon id="Path-80" stroke="#A3B1BF" stroke-width="1.6" fill="#F0F2F5" points="60.8779478 49.8545294 60.8779478 56.1255701 68.9265787 49.2457229 82.6936103 56.6884964 97.2938217 48.8379669 111.696336 57.152131 126.152657 48.447009 140.690502 57.6563936 155.212043 47.7629731 169.311694 57.9443803 184.183382 47.2699287 198.278957 58.4071785 213.066674 46.929206 227.02325 58.985482 241.799147 46.2570562 256.042689 59.2186073 270.546702 46.0450735 284 60.0562571 302 45.4145829 316.455558 59.2186073 330.762689 46.929206 344.99441 57.9443803 359.182923 48.1047884 373.712615 57.152131 387.645957 49.2457229 394.848233 55.8108427 394.848233 49.8545294 387.645957 56.6884964 373.712615 48.640404 359.182923 57.3565891 344.99441 47.5010999 330.762689 58.6308161 316.455558 46.2570562 301.978666 60.0562571 284 45.6240635 270.546702 59.7396323 256.042689 46.0450735 241.799147 59.2186073 227.02325 46.929206 213.066674 58.6308161 198.278957 47.2699287 184.183382 57.9443803 169.311694 47.5010999 155.212043 57.9443803 140.690502 48.1047884 126.152657 57.3565891 111.696336 48.447009 97.2938217 56.6884964 82.6936103 49.2457229 68.9265787 56.6884964"></polygon>
                <polygon id="Path-81" stroke="#A3B1BF" stroke-width="1.6" fill="#F0F2F5" stroke-linecap="square" stroke-linejoin="bevel" points="288 40.4161961 298 40.4161961 288 33.4863458 298 26.1398657 288 18.8394126 298 11.704363 288 3.83056826 298 3.83056826 288 11.704363 298 18.8394126 288 26.1398657 298 33.4863458"></polygon>
                <polyline id="Path-82" stroke="#A3B1BF" stroke-width="1.6" fill="#F0F2F5" stroke-linejoin="bevel" points="284.271627 60.6 301.978666 73.4791961 284.271627 87.4683336 301.978666 101.181634 284.271627 114.300249 302 129.340838 284.271627 143.180683 302 156.93415 284.271627 170.366637 301.978666 184.235273 284.271627 197.62546 301.978666 211.140414 284.271627 224.677762 301.978666 238.358004 284.271627 252.152349 301.978666 265.726309 284.271627 279.183323 301.978666 292.80527 284 307.414583 301.978666 307.414583 284 292.80527 301.978666 279.183323 284 265.726309 302 252.152349 284.271627 238.358004 301.978666 224.677762 284.271627 211.140414 301.978666 197.62546 284.271627 184.235273 301.978666 170.366637 284.271627 156.93415 301.503649 143.180683 284.271627 129.340838 301.503649 114.300249 284.271627 101.181634 301.978666 87.4683336 284.271627 73.4791961 301.978666 60.6"></polyline>
                <polyline id="Path-83" stroke="#A3B1BF" stroke-width="1.6" stroke-linejoin="bevel" points="277 219.414583 309 219.414583 277 234.179047 309 234.179047 277 248.394393 309 248.394393 277 262.825921 309 262.825921 277 277.115813 309 277.115813 277 291.494165 309 291.494165 277 307.414583 309 307.414583"></polyline>
                <polyline id="Path-84" stroke="#A3B1BF" stroke-width="1.6" stroke-linecap="square" stroke-linejoin="bevel" points="277 219.414583 309 234.179047 277 234.179047 309 248.394393 277 248.394393 309 262.825921 277 262.825921 309 277.115813 277 277.115813 309 291.494165 277 291.494165 309 307.414583"></polyline>
                <polyline id="Path-85" stroke="#A3B1BF" stroke-width="1.6" points="154 77.4145829 154 189.479949 130.443358 271.90006 178.057095 271.90006"></polyline>
                <line x1="154.250226" y1="190.145252" x2="178.057095" y2="271.90006" id="Path-86" stroke="#A3B1BF" stroke-width="1.6"></line>
                <rect id="Rectangle" fill="#A3B1BF" x="129" y="271.414583" width="51" height="5"></rect>
                <line x1="174.353383" y1="268.654322" x2="174.353383" y2="271.654322" id="Path-87" stroke="#A3B1BF" stroke-width="1.6"></line>
                <line x1="170" y1="268.654322" x2="170" y2="271.654322" id="Path-87-Copy" stroke="#A3B1BF" stroke-width="1.6"></line>
                <line x1="166" y1="268.654322" x2="166" y2="271.654322" id="Path-87-Copy-2" stroke="#A3B1BF" stroke-width="1.6"></line>
                <line x1="162" y1="268.654322" x2="162" y2="271.654322" id="Path-87-Copy-3" stroke="#A3B1BF" stroke-width="1.6"></line>
                <line x1="158" y1="268.654322" x2="158" y2="271.654322" id="Path-87-Copy-4" stroke="#A3B1BF" stroke-width="1.6"></line>
                <line x1="154" y1="268.654322" x2="154" y2="271.654322" id="Path-87-Copy-5" stroke="#A3B1BF" stroke-width="1.6"></line>
                <line x1="150" y1="268.654322" x2="150" y2="271.654322" id="Path-87-Copy-6" stroke="#A3B1BF" stroke-width="1.6"></line>
                <line x1="146" y1="268.654322" x2="146" y2="271.654322" id="Path-87-Copy-7" stroke="#A3B1BF" stroke-width="1.6"></line>
                <line x1="142" y1="268.654322" x2="142" y2="271.654322" id="Path-87-Copy-8" stroke="#A3B1BF" stroke-width="1.6"></line>
                <line x1="138" y1="268.654322" x2="138" y2="271.654322" id="Path-87-Copy-9" stroke="#A3B1BF" stroke-width="1.6"></line>
                <line x1="134" y1="268.654322" x2="134" y2="271.654322" id="Path-87-Copy-10" stroke="#A3B1BF" stroke-width="1.6"></line>
                <g id="Group-6" filter="url(#filter-1)" transform="translate(376.000000, 65.000000)">
                    <ellipse id="Oval-191" stroke="#A3B1BF" stroke-width="1.64189189" fill="#F7FAFC" cx="4.38" cy="4.93125" rx="4.38" ry="4.38333333"></ellipse>
                    <polygon id="Path-301" fill="#A3B1BF" points="4.0041131 9.13310534 7.56201455 8.23226901 2.34303487 0.44644438 0.446211571 3.63004005 0.788921826 7.80592737"></polygon>
                </g>
                <g id="Group-6-Copy-12" filter="url(#filter-2)" transform="translate(151.000000, 65.000000)">
                    <ellipse id="Oval-191" stroke="#A3B1BF" stroke-width="1.64189189" fill="#F7FAFC" cx="4.38" cy="4.93125" rx="4.38" ry="4.38333333"></ellipse>
                    <polygon id="Path-301" fill="#A3B1BF" points="4.0041131 9.13310534 7.56201455 8.23226901 2.34303487 0.44644438 0.446211571 3.63004005 0.788921826 7.80592737"></polygon>
                </g>
                <path d="M333.952144,276.988906 C327.984048,283.025398 325,288.281129 325,292.756098 C325,299.468551 330.5984,301.585791 333.952144,301.585791 C337.305889,301.585791 342.727939,299.887614 342.727939,292.756098 C342.727939,288.001753 339.802674,282.746023 333.952144,276.988906 Z" id="Path-90" stroke="#A3B1BF" fill="#DEE2E9"></path>
                <path d="M186.952144,276.988906 C180.984048,283.025398 178,288.281129 178,292.756098 C178,299.468551 183.5984,301.585791 186.952144,301.585791 C190.305889,301.585791 195.727939,299.887614 195.727939,292.756098 C195.727939,288.001753 192.802674,282.746023 186.952144,276.988906 Z" id="Path-90-Copy" stroke="#A3B1BF" fill="#DEE2E9"></path>
                <path d="M349.854075,255 C344.928872,260.240748 342.172745,264.537384 341.585696,267.889907 C340.998647,271.242431 341.649594,274.168504 343.538536,276.668127 C339.980173,280.595573 338.200991,284.680975 338.200991,288.924333 C338.200991,295.289371 342.792168,300.194092 349.854075,300.194092 C356.915982,300.194092 361.553919,295.457277 361.553919,288.924333 C361.553919,284.569038 360.001255,280.483636 356.895927,276.668127 C358.769633,273.605086 359.23806,270.679013 358.301207,267.889907 C357.364353,265.100802 354.548643,260.804166 349.854075,255 Z" id="Path-89" stroke="#A3B1BF" fill="#DEE2E9"></path>
                <path d="M202.854075,255 C197.928872,260.240748 195.172745,264.537384 194.585696,267.889907 C193.998647,271.242431 194.649594,274.168504 196.538536,276.668127 C192.980173,280.595573 191.200991,284.680975 191.200991,288.924333 C191.200991,295.289371 195.792168,300.194092 202.854075,300.194092 C209.915982,300.194092 214.553919,295.457277 214.553919,288.924333 C214.553919,284.569038 213.001255,280.483636 209.895927,276.668127 C211.769633,273.605086 212.23806,270.679013 211.301207,267.889907 C210.364353,265.100802 207.548643,260.804166 202.854075,255 Z" id="Path-89-Copy" stroke="#A3B1BF" fill="#DEE2E9"></path>
                <line x1="349.877455" y1="268.105683" x2="349.877455" y2="307.741886" id="Path-91" stroke="#A3B1BF" stroke-width="2"></line>
                <polyline id="Path-92" stroke="#A3B1BF" stroke-width="2" points="330.514175 290.553629 333.863969 297.488508 333.863969 307.741886"></polyline>
                <polyline id="Path-92-Copy" stroke="#A3B1BF" stroke-width="2" points="183.514175 290.553629 186.863969 297.488508 186.863969 307.741886"></polyline>
                <line x1="346.28056" y1="271.838609" x2="349.202115" y2="276.988906" id="Path-93" stroke="#A3B1BF"></line>
                <line x1="199.28056" y1="271.838609" x2="202.202115" y2="276.988906" id="Path-93-Copy" stroke="#A3B1BF"></line>
                <line x1="354.904682" y1="286.165984" x2="350.498527" y2="292.732712" id="Path-94" stroke="#A3B1BF"></line>
                <line x1="207.904682" y1="286.165984" x2="203.498527" y2="292.732712" id="Path-94-Copy-2" stroke="#A3B1BF"></line>
                <line x1="338.87783" y1="293.783979" x2="334.471675" y2="300.350707" id="Path-94-Copy" stroke="#A3B1BF"></line>
                <line x1="202.877455" y1="268.105683" x2="202.877455" y2="307.741886" id="Path-91-Copy" stroke="#A3B1BF" stroke-width="2"></line>
                <line x1="191.87783" y1="293.783979" x2="187.471675" y2="300.350707" id="Path-94-Copy-3" stroke="#A3B1BF"></line>
            </g>
        </g>
    </g>
</svg>