<?xml version="1.0" encoding="UTF-8"?>
<svg width="18px" height="20px" viewBox="0 0 18 20" version="1.1" xmlns="http://www.w3.org/2000/svg" xmlns:xlink="http://www.w3.org/1999/xlink">
    <!-- Generator: Sketch 63.1 (92452) - https://sketch.com -->
    <title>Copy</title>
    
    <g id="Page-1" stroke="none" stroke-width="1" fill="none" fill-rule="evenodd">
        <g id="Wallet" transform="translate(-786.000000, -125.000000)" fill="#333333" fill-rule="nonzero">
            <g id="拷贝" transform="translate(786.000000, 125.000000)">
                <path d="M16.2229054,2.51269323 C16.9111556,2.51269323 17.471001,3.07253857 17.471001,3.76078883 L17.471001,18.7302317 C17.471001,19.4184819 16.9111556,19.9757592 16.2229054,19.9783273 L3.7470856,19.9783273 C3.05883535,19.9783273 2.5015581,19.4184819 2.49899001,18.7302317 L2.49899001,3.76078883 C2.49899001,3.07253857 3.05883535,2.51269323 3.7470856,2.51269323 L16.2229054,2.51269323 Z M16.2229054,3.76078883 L3.7470856,3.76078883 L3.7470856,18.7302317 L16.2229054,18.7302317 L16.2229054,3.76078883 Z" id="Shape"></path>
                <path d="M13.7267142,0.0190701358 C14.4149644,0.0190701358 14.9748098,0.578915476 14.9748098,1.26716573 L14.9748098,3.76078883 L3.7470856,3.76078883 L3.7470856,17.4821361 L1.25346253,17.4821361 C0.565212272,17.4821361 0.0079350267,16.9222907 0.00536693232,16.2340405 L0.00536693232,1.26459764 C0.00536693232,0.576347381 0.565212272,0.0165020415 1.25346253,0.0165020415 L13.7267142,0.0165020415 L13.7267142,0.0190701358 Z M13.7267142,1.26459764 L1.25346253,1.26459764 L1.25346253,16.2340405 L2.50155812,16.2340405 L2.50155812,3.76078883 L3.74965372,2.51269323 L13.7292823,2.51269323 L13.7292823,1.26459764 L13.7267142,1.26459764 Z" id="Shape"></path>
                <path d="M9.38149248,14.4081228 L9.38149248,8.17021298 C9.38149248,7.82608786 9.66141516,7.54616518 10.0055403,7.54616518 C10.3496654,7.54616518 10.6295881,7.82608786 10.6295881,8.17021298 L10.6295881,14.4081228 C10.6295881,14.752248 10.3496654,15.0321706 10.0055403,15.0321706 C9.66141516,15.0321706 9.38149248,14.752248 9.38149248,14.4081228 L9.38149248,14.4081228 Z" id="Path"></path>
                <path d="M13.1232112,11.8708421 L6.88786939,11.8708421 C6.54374427,11.8708421 6.26382159,11.5909194 6.26382159,11.2467943 C6.26382159,10.9026692 6.54374427,10.6227465 6.88786939,10.6227465 L13.1257792,10.6227465 C13.4699044,10.6227465 13.749827,10.9026692 13.749827,11.2467943 C13.749827,11.5909194 13.4699044,11.8708421 13.1232112,11.8708421 Z" id="Path"></path>
            </g>
        </g>
    </g>
</svg>