<?xml version="1.0" encoding="UTF-8"?>
<svg width="21px" height="21px" viewBox="0 0 21 21" version="1.1" xmlns="http://www.w3.org/2000/svg" xmlns:xlink="http://www.w3.org/1999/xlink">
    <title>Edit</title>
    <g id="Page-1" stroke="none" stroke-width="1" fill="none" fill-rule="evenodd">
        <g id="Wallet-Copy" transform="translate(-715.000000, -113.000000)">
            <g id="Group-3" transform="translate(716.000000, 113.000000)">
                <g id="编辑-(1)" transform="translate(5.000000, 0.000000)" fill="#333333" fill-rule="nonzero">
                    <path d="M14.0066964,0.819196429 C14.3325893,1.13169643 14.5758929,1.44866071 14.7366071,1.77455357 C14.8995536,2.10044643 14.9866071,2.4375 15,2.78794643 C15,3.125 14.921875,3.46428571 14.765625,3.80133929 C14.609375,4.13839286 14.3683036,4.47767857 14.0446429,4.81473214 C13.9017857,4.97098214 13.3883929,5.484375 12.5044643,6.35491071 C11.6205357,7.22544643 10.671875,8.15848214 9.65848214,9.15178571 C8.64508929,10.1450893 7.71205357,11.0647321 6.86160714,11.9107143 C6.01116071,12.7544643 5.54017857,13.2232143 5.44866071,13.3147321 C5.41071429,13.3415179 5.375,13.3660714 5.34151786,13.3928571 C5.30803571,13.4196429 5.27232143,13.4375 5.234375,13.4508929 C5.078125,13.4888393 4.76116071,13.5870536 4.27901786,13.7433036 C3.796875,13.8995536 3.296875,14.0580357 2.77901786,14.2209821 C2.25892857,14.3839286 1.796875,14.5334821 1.39508929,14.6696429 C0.993303571,14.8058036 0.783482143,14.875 0.772321429,14.875 C0.745535714,14.875 0.720982143,14.8772321 0.694196429,14.8839286 C0.667410714,14.890625 0.642857143,14.8928571 0.616071429,14.8928571 C0.551339286,14.8928571 0.486607143,14.8794643 0.421875,14.8549107 C0.357142857,14.828125 0.299107143,14.7901786 0.245535714,14.7388393 C0.180803571,14.6741071 0.136160714,14.59375 0.109375,14.4955357 C0.0825892857,14.3973214 0.0825892857,14.3035714 0.109375,14.2120536 C0.109375,14.1986607 0.171875,13.9933036 0.294642857,13.5982143 C0.417410714,13.203125 0.558035714,12.7477679 0.714285714,12.234375 C0.870535714,11.7209821 1.02008929,11.2165179 1.16294643,10.7232143 C1.30580357,10.2299107 1.41071429,9.87946429 1.47544643,9.66964286 C1.48883929,9.63169643 1.50446429,9.59151786 1.52455357,9.55357143 C1.54464286,9.515625 1.57366071,9.47544643 1.61160714,9.4375 L2.90848214,8.140625 C3.77232143,7.27678571 4.73214286,6.32142857 5.78348214,5.27455357 C6.83705357,4.22767857 7.81026786,3.25446429 8.70758929,2.35044643 C9.60491071,1.44642857 10.0915179,0.964285714 10.1696429,0.897321429 C10.2745536,0.792410714 10.5044643,0.620535714 10.8616071,0.381696429 C11.21875,0.142857143 11.6517857,0.0200892857 12.1584821,0.0200892857 C12.4955357,0.0200892857 12.8214286,0.0892857143 13.1339286,0.225446429 C13.4397321,0.361607143 13.7321429,0.558035714 14.0066964,0.819196429 Z M13.1473214,3.9375 C13.3549107,3.72991071 13.5089286,3.53125 13.6049107,3.34375 C13.7008929,3.15625 13.75,2.97767857 13.75,2.80803571 C13.7366071,2.63839286 13.6808036,2.46428571 13.5848214,2.28125 C13.4866071,2.09821429 13.3415179,1.91741071 13.1473214,1.734375 C12.9776786,1.578125 12.8125,1.46205357 12.6495536,1.38392857 C12.4866071,1.30580357 12.3214286,1.26785714 12.1517857,1.26785714 C11.8660714,1.26785714 11.6160714,1.34598214 11.4017857,1.50223214 C11.1875,1.65848214 11.0669643,1.75 11.0401786,1.77455357 L7.13169643,5.68303571 C6.16294643,6.65178571 5.234375,7.578125 4.34375,8.45982143 C3.453125,9.34375 2.87946429,9.91517857 2.61830357,10.1741071 C2.52678571,10.5 2.39508929,10.9575893 2.21875,11.5491071 C2.04241071,12.140625 1.87053571,12.7098214 1.703125,13.2544643 C2.22321429,13.0848214 2.77901786,12.90625 3.37053571,12.71875 C3.96205357,12.53125 4.39955357,12.390625 4.68526786,12.2991071 L5.07589286,11.9285714 C6.32366071,10.6941964 7.43080357,9.59821429 8.39955357,8.64285714 C9.36830357,7.6875 10.1897321,6.875 10.8660714,6.20535714 C11.5424107,5.53571429 12.0714286,5.01339286 12.4553571,4.63616071 C12.8392857,4.26339286 13.0691964,4.02901786 13.1473214,3.9375 Z" id="Shape"></path>
                </g>
                <path d="M17,10.8780277 L17,10.8780277 L17,18.8 C17,19.4627417 16.4627417,20 15.8,20 L1.2,20 C0.5372583,20 0,19.4627417 0,18.8 L0,3.2 C0,2.5372583 0.5372583,2 1.2,2 L10.9967458,2 L10.9967458,2" id="Path" stroke="#333333" stroke-width="1.3" stroke-linecap="round" stroke-linejoin="round"></path>
            </g>
        </g>
    </g>
</svg>