<?xml version="1.0" encoding="UTF-8"?>
<svg width="24px" height="24px" viewBox="0 0 24 24" version="1.1" xmlns="http://www.w3.org/2000/svg" xmlns:xlink="http://www.w3.org/1999/xlink">
    <!-- Generator: Sketch 63.1 (92452) - https://sketch.com -->
    <title>Error</title>
    
    <g id="Page-1" stroke="none" stroke-width="1" fill="none" fill-rule="evenodd">
        <g id="Artboard" transform="translate(-97.000000, -201.000000)" fill="#F35600">
            <path d="M113.809375,217.823438 C113.478906,218.151563 112.944531,218.151563 112.616406,217.821094 L109,214.195312 L105.383594,217.821094 C105.055469,218.151563 104.521094,218.151563 104.190625,217.823438 C103.860156,217.495313 103.860156,216.960938 104.188281,216.630469 L107.809375,213 L104.188281,209.369531 C103.860156,209.039062 103.860156,208.504687 104.190625,208.176562 C104.354687,208.0125 104.570312,207.930469 104.785938,207.930469 C105.001563,207.930469 105.219531,208.0125 105.383594,208.178906 L109,211.804688 L112.616406,208.176562 C112.780469,208.010156 112.998437,207.928125 113.214062,207.928125 C113.429688,207.928125 113.645312,208.010156 113.809375,208.174219 C114.139844,208.502344 114.139844,209.036719 113.811719,209.367188 L110.190625,213 L113.809375,216.630469 C114.139844,216.960938 114.139844,217.495313 113.809375,217.823438 L113.809375,217.823438 Z M109,225 C102.371875,225 97,219.628125 97,213 C97,206.371875 102.371875,201 109,201 C115.628125,201 121,206.371875 121,213 C121,219.628125 115.628125,225 109,225 L109,225 Z M116.291406,205.708594 C115.344531,204.761719 114.240625,204.016406 113.0125,203.498437 C111.742188,202.959375 110.392188,202.6875 109,202.6875 C107.607812,202.6875 106.257812,202.959375 104.9875,203.496094 C103.759375,204.016406 102.657813,204.759375 101.708594,205.70625 C100.761719,206.653125 100.016406,207.757031 99.4984375,208.985156 C98.959375,210.257812 98.6875,211.607812 98.6875,213 C98.6875,214.392188 98.959375,215.742188 99.4960938,217.0125 C100.016406,218.240625 100.759375,219.342187 101.70625,220.291406 C102.653125,221.238281 103.757031,221.983594 104.985156,222.501563 C106.257812,223.040625 107.607812,223.3125 109,223.3125 C110.392188,223.3125 111.742188,223.040625 113.0125,222.503906 C114.240625,221.983594 115.342187,221.240625 116.291406,220.29375 C117.238281,219.346875 117.983594,218.242969 118.501563,217.014844 C119.040625,215.742188 119.3125,214.392188 119.3125,213 C119.3125,211.607812 119.040625,210.257812 118.503906,208.9875 C117.983594,207.759375 117.240625,206.655469 116.291406,205.708594 L116.291406,205.708594 Z" id="Shape" transform="translate(109.000000, 213.000000) scale(1, -1) translate(-109.000000, -213.000000) "></path>
        </g>
    </g>
</svg>