<?xml version="1.0" encoding="UTF-8"?>
<svg width="24px" height="24px" viewBox="0 0 24 24" version="1.1" xmlns="http://www.w3.org/2000/svg" xmlns:xlink="http://www.w3.org/1999/xlink">
    <!-- Generator: Sketch 63.1 (92452) - https://sketch.com -->
    <title>Information</title>
    
    <g id="Page-1" stroke="none" stroke-width="1" fill="none" fill-rule="evenodd">
        <g id="Artboard" transform="translate(-97.000000, -320.000000)" fill="#108EE9">
            <path d="M109,344 C102.371875,344 97,338.628125 97,332 C97,325.371875 102.371875,320 109,320 C115.628125,320 121,325.371875 121,332 C121,338.628125 115.628125,344 109,344 L109,344 Z M116.291406,324.708594 C115.344531,323.761719 114.240625,323.016406 113.0125,322.498438 C111.742188,321.959375 110.392188,321.6875 109,321.6875 C107.607812,321.6875 106.257812,321.959375 104.9875,322.496094 C103.759375,323.016406 102.657813,323.759375 101.708594,324.70625 C100.761719,325.653125 100.016406,326.757031 99.4984375,327.985156 C98.959375,329.257812 98.6875,330.607813 98.6875,332 C98.6875,333.392187 98.959375,334.742188 99.4960938,336.0125 C100.016406,337.240625 100.759375,338.342188 101.70625,339.291406 C102.653125,340.238281 103.757031,340.983594 104.985156,341.501562 C106.257812,342.040625 107.607812,342.3125 109,342.3125 C110.392188,342.3125 111.742188,342.040625 113.0125,341.503906 C114.240625,340.983594 115.342187,340.240625 116.291406,339.29375 C117.238281,338.346875 117.983594,337.242969 118.501563,336.014844 C119.040625,334.742188 119.3125,333.392187 119.3125,332 C119.3125,330.607813 119.040625,329.257812 118.503906,327.9875 C117.983594,326.759375 117.240625,325.655469 116.291406,324.708594 L116.291406,324.708594 Z M111.770313,327.4625 L109.773438,327.4625 L109.773438,335.667969 C109.773438,336.134375 109.396094,336.511719 108.929688,336.511719 L108.929688,336.511719 L108.085938,336.511719 L106.679688,336.511719 C106.213281,336.511719 105.835938,336.134375 105.835938,335.667969 L105.835938,335.667969 C105.835938,335.201563 106.213281,334.824219 106.679688,334.824219 L108.085938,334.824219 L108.085938,327.4625 L106.089062,327.4625 C105.622656,327.4625 105.245312,327.085156 105.245312,326.61875 L105.245312,326.61875 C105.245312,326.152344 105.622656,325.775 106.089062,325.775 L108.085938,325.775 L109.773438,325.775 L111.770313,325.775 C112.236719,325.775 112.614063,326.152344 112.614063,326.61875 L112.614063,326.61875 C112.614063,327.085156 112.236719,327.4625 111.770313,327.4625 L111.770313,327.4625 Z M108.085938,338.832031 C108.085938,339.298022 108.463697,339.675781 108.929688,339.675781 C109.395678,339.675781 109.773438,339.298022 109.773438,338.832031 C109.773438,338.366041 109.395678,337.988281 108.929688,337.988281 C108.463697,337.988281 108.085938,338.366041 108.085938,338.832031 L108.085938,338.832031 Z" id="Shape" transform="translate(109.000000, 332.000000) scale(1, -1) translate(-109.000000, -332.000000) "></path>
        </g>
    </g>
</svg>