<?xml version="1.0" encoding="UTF-8"?>
<svg width="40" height="40" viewBox="0 0 28 28" fill="none" xmlns="http://www.w3.org/2000/svg">
	<path d="M14 0C6.26798 0 0 6.26798 0 14C0 21.7319 6.26798 28 14 28C21.732 28 28 21.7319 28 14C28 6.26798 21.732 0 14 0ZM20.297 11.6177L13.8815 18.0321C13.6536 18.2599 13.3551 18.3739 13.0566 18.3739C12.7581 18.3739 12.4596 18.2599 12.2318 18.0321L9.31396 15.1143C8.85824 14.6585 8.85824 13.9202 9.31396 13.4645C9.76969 13.0088 10.508 13.0088 10.9637 13.4645L13.0566 15.5575L18.6473 9.96794C19.103 9.51221 19.8413 9.51221 20.297 9.96794C20.7528 10.4237 20.7528 11.1619 20.297 11.6177Z" fill="#52B684"/>
</svg>
