<?xml version="1.0" encoding="UTF-8"?>
<svg width="40px" height="40px" viewBox="0 0 40 40" version="1.1" xmlns="http://www.w3.org/2000/svg" xmlns:xlink="http://www.w3.org/1999/xlink">
    <title>Notification-icon-info</title>
    <g id="Page-1" stroke="none" stroke-width="1" fill="none" fill-rule="evenodd">
        <g id="Artboard-Copy" transform="translate(-72.000000, -206.000000)" fill="#108EE9">
            <path d="M92,246 C80.953125,246 72,237.046875 72,226 C72,214.953125 80.953125,206 92,206 C103.046875,206 112,214.953125 112,226 C112,237.046875 103.046875,246 92,246 L92,246 Z M93.546875,220.8125 L93.546875,227.488281 C93.546875,228.265625 92.9179688,228.894531 92.140625,228.894531 L90.734375,228.894531 L89.390625,228.894531 C88.6132813,228.894531 87.984375,228.265625 87.984375,227.488281 C87.984375,226.710938 88.6132813,226.082031 89.390625,226.082031 L90.734375,226.082031 L90.734375,220.8125 L88.40625,220.8125 C87.6289063,220.8125 87,220.183594 87,219.40625 C87,218.628906 87.6289063,218 88.40625,218 L90.734375,218 L93.546875,218 L95.875,218 C96.6523438,218 97.28125,218.628906 97.28125,219.40625 C97.28125,220.183594 96.6523438,220.8125 95.875,220.8125 L93.546875,220.8125 Z M90,233 C90,234.104569 90.8954305,235 92,235 C93.1045695,235 94,234.104569 94,233 C94,231.895431 93.1045695,231 92,231 C90.8954305,231 90,231.895431 90,233 L90,233 Z" id="Shape-Copy-4" transform="translate(92.000000, 226.000000) scale(1, -1) translate(-92.000000, -226.000000) "></path>
        </g>
    </g>
</svg>