<?xml version="1.0" encoding="UTF-8"?>
<svg width="40px" height="40px" viewBox="0 0 40 40" version="1.1" xmlns="http://www.w3.org/2000/svg" xmlns:xlink="http://www.w3.org/1999/xlink">
    <title>Notification-icon-error</title>
    <g id="Page-1" stroke="none" stroke-width="1" fill="none" fill-rule="evenodd">
        <g id="Artboard-Copy" transform="translate(-954.000000, -206.000000)" fill="#F35600">
            <path d="M979.705612,220.290857 C979.31356,219.902587 978.679603,219.902587 978.290331,220.293631 L974,224.584025 L969.709669,220.293631 C969.320397,219.902587 968.68644,219.902587 968.294388,220.290857 C967.902335,220.679128 967.902335,221.311455 968.291607,221.7025 L972.587499,225.99844 L968.291607,230.294381 C967.902335,230.685425 967.902335,231.317752 968.294388,231.706023 C968.489024,231.900159 968.744831,231.997227 969.000638,231.997227 C969.256445,231.997227 969.515033,231.900159 969.709669,231.70325 L974,227.412856 L978.290331,231.706023 C978.484967,231.902932 978.743555,232 978.999362,232 C979.255169,232 979.510976,231.902932 979.705612,231.708797 C980.097665,231.320526 980.097665,230.688199 979.708393,230.297155 L975.412501,225.99844 L979.705612,221.7025 C980.064994,221.344042 980.094942,220.782841 979.795458,220.392729 L979.705612,220.290857 Z M974,206 C962.953125,206 954,214.953125 954,226 C954,237.046875 962.953125,246 974,246 C985.046875,246 994,237.046875 994,226 C994,215.123077 985.320237,206.275976 974.508344,206.006332 L974,206 Z" id="Shape"></path>
        </g>
    </g>
</svg>