<?xml version="1.0" encoding="UTF-8"?>
<svg width="40px" height="40px" viewBox="0 0 40 40" version="1.1" xmlns="http://www.w3.org/2000/svg" xmlns:xlink="http://www.w3.org/1999/xlink">
    <title>Notification-icon-success</title>
    <g id="Page-1" stroke="none" stroke-width="1" fill="none" fill-rule="evenodd">
        <g id="Artboard-Copy" transform="translate(-513.000000, -206.000000)" fill="#8FCE65">
            <path d="M533,206 C544.046875,206 553,214.953125 553,226 C553,237.046875 544.046875,246 533,246 C521.953125,246 513,237.046875 513,226 C513,214.953125 521.953125,206 533,206 Z M541.506114,220.506329 C540.847599,219.831224 539.777769,219.831224 539.119254,220.506329 L539.119254,220.506329 L531.061774,228.806658 L526.880746,224.505047 C526.222231,223.829942 525.152401,223.830038 524.493886,224.505047 C523.835371,225.180056 523.835371,226.287927 524.493886,226.963032 L524.493886,226.963032 L529.86831,232.493671 C530.526825,233.168776 531.596654,233.168776 532.25517,232.493671 L532.255307,232.493671 L541.506114,222.964313 C542.164629,222.289305 542.164629,221.181433 541.506114,220.506329 Z" id="Combined-Shape"></path>
        </g>
    </g>
</svg>