<?xml version="1.0" encoding="UTF-8"?>
<svg width="24px" height="24px" viewBox="0 0 24 24" version="1.1" xmlns="http://www.w3.org/2000/svg" xmlns:xlink="http://www.w3.org/1999/xlink">
    <!-- Generator: Sketch 63.1 (92452) - https://sketch.com -->
    <title>Success</title>
    
    <g id="Page-1" stroke="none" stroke-width="1" fill="none" fill-rule="evenodd">
        <g id="Artboard" transform="translate(-97.000000, -82.000000)" fill="#8FCE65">
            <path d="M113.905469,98.8375 L106.229687,91.1382813 L104.228125,94.6421875 C103.996094,95.0476563 103.482812,95.1882813 103.077344,94.95625 C102.671875,94.7242188 102.53125,94.2109375 102.763281,93.8054688 L105.313281,89.340625 C105.467969,89.06875 105.753906,88.9140625 106.046875,88.9140625 C106.189844,88.9140625 106.332813,88.9492188 106.464062,89.0242188 C106.539062,89.06875 106.607031,89.1203125 106.663281,89.18125 C106.665625,89.1835938 106.670312,89.1882813 106.672656,89.190625 L115.098437,97.6421875 C115.426562,97.9726562 115.426562,98.5070313 115.096094,98.8351563 C114.767969,99.1679688 114.235938,99.1679688 113.905469,98.8375 L113.905469,98.8375 Z M109,106 C102.371875,106 97,100.628125 97,94 C97,87.371875 102.371875,82 109,82 C115.628125,82 121,87.371875 121,94 C121,100.628125 115.628125,106 109,106 L109,106 Z M116.291406,86.7085938 C115.344531,85.7617188 114.240625,85.0164063 113.0125,84.4984375 C111.742188,83.959375 110.392188,83.6875 109,83.6875 C107.607812,83.6875 106.257812,83.959375 104.9875,84.4960938 C103.759375,85.0164063 102.657813,85.759375 101.708594,86.70625 C100.761719,87.653125 100.016406,88.7570312 99.4984375,89.9851563 C98.959375,91.2578125 98.6875,92.6078125 98.6875,94 C98.6875,95.3921875 98.959375,96.7421875 99.4960938,98.0125 C100.016406,99.240625 100.759375,100.342187 101.70625,101.291406 C102.653125,102.238281 103.757031,102.983594 104.985156,103.501563 C106.257812,104.040625 107.607812,104.3125 109,104.3125 C110.392188,104.3125 111.742188,104.040625 113.0125,103.503906 C114.240625,102.983594 115.342187,102.240625 116.291406,101.29375 C117.238281,100.346875 117.983594,99.2429688 118.501563,98.0148437 C119.040625,96.7421875 119.3125,95.3921875 119.3125,94 C119.3125,92.6078125 119.040625,91.2578125 118.503906,89.9875 C117.983594,88.759375 117.240625,87.6554687 116.291406,86.7085938 L116.291406,86.7085938 Z" id="Shape-Copy-3" transform="translate(109.000000, 94.000000) scale(1, -1) translate(-109.000000, -94.000000) "></path>
        </g>
    </g>
</svg>