<?xml version="1.0" encoding="UTF-8"?>
<svg width="38px" height="32px" viewBox="0 0 38 32" version="1.1" xmlns="http://www.w3.org/2000/svg" xmlns:xlink="http://www.w3.org/1999/xlink">
    <!-- Generator: Sketch 63.1 (92452) - https://sketch.com -->
    <title>Swap</title>
    
    <g id="Page-1" stroke="none" stroke-width="1" fill="none" fill-rule="evenodd">
        <g id="Swap02" transform="translate(-719.000000, -163.000000)" fill="#173DC9" fill-rule="nonzero">
            <g id="切换" transform="translate(719.000000, 163.000000)">
                <path d="M1.50493709,10.7761018 L36.4950108,10.7761018 C37.1034727,10.7761018 37.6521141,10.4121163 37.8853049,9.85341564 C38.1184957,9.29471495 37.9891709,8.65140495 37.5590252,8.22416933 L29.7207635,0.437992794 C29.1328665,-0.145997598 28.1805276,-0.145997598 27.5926827,0.437992794 C27.0047857,1.02146601 27.0047857,1.96845929 27.5926827,2.55193251 L32.8619929,7.78622825 L1.50493709,7.78622825 C0.674061459,7.78622825 0,8.45534512 0,9.28116504 C0,10.106985 0.674061459,10.7761018 1.50493709,10.7761018 Z" id="Shape"></path>
                <path d="M36.4950108,21.1784436 L1.50493709,21.1784436 C0.896326803,21.1784436 0.347640474,21.5426216 0.114643032,22.1011298 C-0.118300985,22.6597826 0.0104757699,23.302817 0.440922723,23.7303761 L8.27918447,31.5165527 C8.57313295,31.8085479 8.95819193,31.9545455 9.3432509,31.9545455 C9.72830988,31.9545455 10.1133689,31.8085479 10.4073173,31.5165527 C10.9952143,30.9330794 10.9952143,29.9860862 10.4073173,29.4026129 L5.13800705,24.1683172 L36.4950629,24.1683172 C37.3259385,24.1683172 38,23.4992003 38,22.6733804 C38,21.8475605 37.3258865,21.1784436 36.4950108,21.1784436 L36.4950108,21.1784436 Z" id="Path" opacity="0.496442522"></path>
            </g>
        </g>
    </g>
</svg>