<?xml version="1.0" encoding="UTF-8"?>
<svg width="32px" height="32px" viewBox="0 0 32 32" version="1.1" xmlns="http://www.w3.org/2000/svg" xmlns:xlink="http://www.w3.org/1999/xlink">
    <title>Switch</title>
    <g id="Page-1" stroke="none" stroke-width="1" fill="none" fill-rule="evenodd">
        <g id="Wallet_transfer" transform="translate(-261.000000, -375.000000)" fill="#173DC9" fill-rule="nonzero">
            <g id="转换-copy" transform="translate(277.000000, 391.000000) rotate(-270.000000) translate(-277.000000, -391.000000) translate(261.000000, 375.000000)">
                <path d="M15.9801136,31.9602273 C7.15511364,31.9602273 0,24.8051136 0,15.9801136 C0,7.15511364 7.15511364,0 15.9801136,0 C24.8051136,0 31.9602273,7.15511364 31.9602273,15.9801136 C31.9602273,24.8051136 24.8051136,31.9602273 15.9801136,31.9602273 Z M15.9801136,2.10113636 C8.31477273,2.10113636 2.10113636,8.31477273 2.10113636,15.9801136 C2.10113636,23.6451705 8.31477273,29.8590909 15.9801136,29.8590909 C23.6451705,29.8590909 29.8590909,23.6454545 29.8590909,15.9801136 C29.8590909,8.31477273 23.6451705,2.10113636 15.9801136,2.10113636 Z M26.5335227,13.359375 C26.3991477,13.6698864 26.1323864,13.9159091 25.7957386,14.0397727 C25.6065341,14.1136364 25.4053977,14.1394886 25.2045455,14.1321023 L6.65852273,14.1321023 C5.92301136,14.1321023 5.32670455,13.5818182 5.32670455,12.9034091 C5.32670455,12.2247159 5.92301136,11.675 6.65852273,11.675 L22.0142045,11.675 L20.3696023,10.1576705 C19.8295455,9.659375 19.8295455,8.85142045 20.3696023,8.353125 C20.9096591,7.85482955 21.7855114,7.85482955 22.3258523,8.353125 L26.2394886,11.9636364 C26.6482955,12.340625 26.7454545,12.8948864 26.5335227,13.359375 L26.5335227,13.359375 Z M5.32670455,18.9599432 C5.32670455,18.2684659 5.92301136,17.7079545 6.65852273,17.7079545 L25.3019886,17.7079545 C26.0375,17.7079545 26.6338068,18.26875 26.6338068,18.9599432 C26.6338068,19.6519886 26.0375,20.2122159 25.3019886,20.2122159 L9.89289773,20.2122159 L11.5522727,21.7724432 C12.0704545,22.2951705 12.0403409,23.1133523 11.4846591,23.6008523 C10.95625,24.0642045 10.1363636,24.0642045 9.60795455,23.6008523 L5.71818182,19.9431818 C5.446875,19.6849432 5.30511364,19.3301136 5.328125,18.9676136 L5.32670455,18.9599432 Z" id="Shape"></path>
            </g>
        </g>
    </g>
</svg>