<svg width="14" height="14" viewBox="0 0 14 14" fill="none"
  xmlns="http://www.w3.org/2000/svg">
  <rect x="0.666016" y="0.333984" width="13.3333" height="13.3333" rx="3.33333" fill="#F6F4FF"/>
  <g clip-path="url(#clip0_364_13410)">
    <path d="M11.5012 9.38605C11.5016 8.96958 11.3126 8.56999 10.9757 8.27501C10.6387 7.98002 10.1815 7.81374 9.7042 7.81267L7.71174 7.81267C7.6992 7.65063 7.69131 7.48495 7.69131 7.31319C7.69131 7.14143 7.68342 6.97656 7.67228 6.81371L9.7042 6.81371C10.1773 6.80709 10.6285 6.63843 10.9604 6.34412C11.2923 6.04981 11.4783 5.65345 11.4783 5.24054C11.4783 4.82762 11.2923 4.43126 10.9604 4.13695C10.6285 3.84264 10.1773 3.67398 9.7042 3.66736L4.94216 3.66736C4.46903 3.67398 4.01785 3.84264 3.68595 4.13695C3.35405 4.43126 3.16803 4.82762 3.16803 5.24054C3.16803 5.65345 3.35405 6.04981 3.68595 6.34412C4.01785 6.63843 4.46903 6.80709 4.94216 6.81371L6.81372 6.85746C6.94393 6.85746 6.95505 7.14143 6.95505 7.31319C6.95505 7.48495 6.96294 7.64982 6.97408 7.81267L4.94216 7.81267C4.46903 7.8193 4.01785 7.98795 3.68595 8.28226C3.35405 8.57657 3.16803 8.97293 3.16803 9.38585C3.16803 9.79876 3.35405 10.1951 3.68595 10.4894C4.01785 10.7837 4.46903 10.9524 4.94216 10.959L9.7042 10.959C10.1814 10.958 10.6386 10.7917 10.9755 10.4968C11.3124 10.2019 11.5015 9.80245 11.5012 9.38605ZM10.765 5.24033C10.7651 5.48612 10.6535 5.72192 10.4546 5.89598C10.2557 6.07004 9.98587 6.16816 9.7042 6.16881L7.59429 6.16881C7.51786 5.70853 7.37223 5.25906 7.16116 4.832C7.0681 4.64697 6.94896 4.47278 6.8065 4.31348L9.7042 4.31348C9.98554 4.31412 10.2551 4.41202 10.4539 4.58573C10.6528 4.75945 10.7646 4.99483 10.765 5.24033ZM4.94216 6.16881C4.65997 6.16881 4.38933 6.07098 4.18979 5.89686C3.99025 5.72274 3.87815 5.48658 3.87815 5.24033C3.87815 4.99409 3.99025 4.75793 4.18979 4.5838C4.38933 4.40968 4.65997 4.31186 4.94216 4.31186L5.41985 4.31186C5.84183 4.31186 6.24153 4.60353 6.49036 5.09247C6.66069 5.437 6.78183 5.79848 6.85106 6.16881L4.94216 6.16881ZM3.8814 9.38605C3.88128 9.14026 3.99289 8.90447 4.19176 8.7304C4.39062 8.55634 4.66049 8.45822 4.94216 8.45758L7.05207 8.45758C7.1285 8.91785 7.27413 9.36733 7.48519 9.79438C7.57826 9.97942 7.6974 10.1536 7.83986 10.3129L4.94216 10.3129C4.66082 10.3123 4.39122 10.2144 4.19241 10.0407C3.9936 9.86694 3.88177 9.63156 3.8814 9.38605ZM8.15879 9.53391C7.98845 9.18939 7.86731 8.8279 7.79808 8.45758L9.7042 8.45758C9.98639 8.45758 10.257 8.5554 10.4566 8.72952C10.6561 8.90364 10.7682 9.1398 10.7682 9.38605C10.7682 9.6323 10.6561 9.86846 10.4566 10.0426C10.257 10.2167 9.98639 10.3145 9.7042 10.3145L9.22651 10.3145C8.80638 10.3145 8.40668 10.0229 8.15879 9.53391Z" fill="url(#paint0_linear_364_13410)"/>
    <path opacity="0.8" d="M11.5012 5.24029C11.5016 5.65677 11.3126 6.05635 10.9757 6.35134C10.6387 6.64632 10.1814 6.8126 9.70417 6.81367L7.71167 6.81367C7.69914 6.97571 7.69124 7.14139 7.69124 7.31315C7.69124 7.48491 7.68335 7.64978 7.67221 7.81263L9.70417 7.81263C10.1773 7.81926 10.6285 7.98791 10.9604 8.28222C11.2923 8.57653 11.4783 8.97289 11.4783 9.38581C11.4783 9.79872 11.2923 10.1951 10.9604 10.4894C10.6285 10.7837 10.1773 10.9524 9.70417 10.959L4.94204 10.959C4.46891 10.9524 4.01772 10.7837 3.68581 10.4894C3.3539 10.1951 3.16789 9.79872 3.16789 9.38581C3.16789 8.97289 3.3539 8.57653 3.68581 8.28222C4.01772 7.98791 4.46891 7.81926 4.94204 7.81263L6.81364 7.76888C6.94385 7.76888 6.95497 7.48491 6.95497 7.31315C6.95497 7.14139 6.96286 6.97652 6.974 6.81367L4.94204 6.81367C4.46891 6.80705 4.01772 6.63839 3.68581 6.34408C3.3539 6.04977 3.16789 5.65341 3.16789 5.24049C3.16789 4.82758 3.3539 4.43122 3.68581 4.13691C4.01772 3.8426 4.46891 3.67394 4.94204 3.66732L9.70417 3.66732C10.1814 3.66839 10.6386 3.83461 10.9755 4.12951C11.3124 4.42441 11.5015 4.82389 11.5012 5.24029ZM10.7649 9.38601C10.7651 9.14022 10.6535 8.90443 10.4546 8.73036C10.2557 8.5563 9.98584 8.45818 9.70417 8.45754L7.59422 8.45754C7.51779 8.91781 7.37215 9.36728 7.16109 9.79434C7.06802 9.97938 6.94888 10.1536 6.80641 10.3129L9.70417 10.3129C9.98552 10.3122 10.2551 10.2143 10.4539 10.0406C10.6527 9.8669 10.7646 9.63152 10.7649 9.38601ZM4.94204 8.45754C4.65985 8.45754 4.38921 8.55536 4.18966 8.72948C3.99012 8.9036 3.87802 9.13976 3.87802 9.38601C3.87802 9.63226 3.99012 9.86842 4.18966 10.0425C4.38921 10.2167 4.65985 10.3145 4.94204 10.3145L5.41974 10.3145C5.84173 10.3145 6.24144 10.0228 6.49027 9.53387C6.6606 9.18935 6.78175 8.82786 6.85098 8.45754L4.94204 8.45754ZM3.88127 5.24029C3.88114 5.48608 3.99276 5.72187 4.19163 5.89594C4.3905 6.07 4.66037 6.16812 4.94204 6.16876L7.05199 6.16876C7.12843 5.70849 7.27406 5.25902 7.48512 4.83196C7.57819 4.64693 7.69733 4.47274 7.8398 4.31344L4.94204 4.31344C4.66069 4.31408 4.3911 4.41198 4.19228 4.58569C3.99347 4.75941 3.88164 4.99478 3.88127 5.24029ZM8.15873 5.09243C7.98839 5.43695 7.86725 5.79844 7.79802 6.16876L9.70417 6.16876C9.98636 6.16876 10.257 6.07094 10.4565 5.89682C10.6561 5.7227 10.7682 5.48654 10.7682 5.24029C10.7682 4.99405 10.6561 4.75788 10.4565 4.58376C10.257 4.40964 9.98636 4.31182 9.70417 4.31182L9.22647 4.31182C8.80634 4.31182 8.40663 4.60349 8.15873 5.09243Z" fill="url(#paint1_linear_364_13410)"/>
  </g>
  <defs>
    <linearGradient id="paint0_linear_364_13410" x1="3.78888" y1="4.12916" x2="10.0765" y2="11.315" gradientUnits="userSpaceOnUse">
      <stop stop-color="#8E59FF"/>
      <stop offset="1" stop-color="#6888F9"/>
    </linearGradient>
    <linearGradient id="paint1_linear_364_13410" x1="3.78875" y1="10.4972" x2="10.0763" y2="3.31123" gradientUnits="userSpaceOnUse">
      <stop stop-color="#8E59FF"/>
      <stop offset="1" stop-color="#6888F9"/>
    </linearGradient>
    <clipPath id="clip0_364_13410">
      <rect width="7.29167" height="8.33333" fill="white" transform="translate(11.5012 3.66736) rotate(90)"/>
    </clipPath>
  </defs>
</svg>
