<svg width="40" height="40" viewBox="0 0 40 40" fill="none"
  xmlns="http://www.w3.org/2000/svg">
  <rect width="40" height="40" rx="20" fill="white"/>
  <g clip-path="url(#clip0_358_6590)">
    <path d="M20.1586 11.2484C23.1254 11.2484 25.5304 9.84965 25.5304 8.1242C25.5304 6.39875 23.1254 5 20.1586 5C17.1919 5 14.7869 6.39875 14.7869 8.1242C14.7869 9.84965 17.1919 11.2484 20.1586 11.2484Z" fill="#E6007A"/>
    <path d="M20.1586 34.7884C23.1254 34.7884 25.5304 33.3897 25.5304 31.6642C25.5304 29.9388 23.1254 28.54 20.1586 28.54C17.1919 28.54 14.7869 29.9388 14.7869 31.6642C14.7869 33.3897 17.1919 34.7884 20.1586 34.7884Z" fill="#E6007A"/>
    <path d="M12.6727 15.5724C14.1561 13.0032 14.1464 10.2206 12.6512 9.35728C11.1559 8.49397 8.74128 9.87687 7.25791 12.4461C5.77453 15.0153 5.78416 17.7979 7.27941 18.6612C8.77466 19.5245 11.1893 18.1416 12.6727 15.5724Z" fill="#E6007A"/>
    <path d="M33.0562 27.3427C34.5396 24.7735 34.5308 21.9914 33.0366 21.1287C31.5423 20.266 29.1285 21.6493 27.6451 24.2185C26.1617 26.7877 26.1705 29.5699 27.6648 30.4326C29.159 31.2953 31.5729 29.9119 33.0562 27.3427Z" fill="#E6007A"/>
    <path d="M12.6512 30.4312C14.1464 29.5679 14.1561 26.7853 12.6727 24.2161C11.1893 21.6469 8.77466 20.264 7.27941 21.1273C5.78416 21.9906 5.77453 24.7732 7.2579 27.3424C8.74128 29.9116 11.1559 31.2945 12.6512 30.4312Z" fill="#E6007A"/>
    <path d="M33.0383 18.6631C34.5325 17.8003 34.5413 15.0182 33.0579 12.449C31.5746 9.87981 29.1607 8.49644 27.6665 9.35916C26.1723 10.2219 26.1634 13.004 27.6468 15.5732C29.1302 18.1424 31.544 19.5258 33.0383 18.6631Z" fill="#E6007A"/>
  </g>
  <defs>
    <clipPath id="clip0_358_6590">
      <rect width="30" height="30" fill="white" transform="translate(5 5)"/>
    </clipPath>
  </defs>
</svg>
