<svg width="40" height="40" viewBox="0 0 40 40" fill="none"
  xmlns="http://www.w3.org/2000/svg">
  <path fill-rule="evenodd" clip-rule="evenodd" d="M11.9743 30.758C8.69915 28.3107 6.57895 24.403 6.57895 20C6.57895 12.5878 12.5878 6.57895 20 6.57895C26.1175 6.57895 32.798 10.2348 34.4136 15.8338C32.6082 9.57711 26.8396 5 20 5C11.7157 5 5 11.7157 5 20C5 28.2843 11.7157 35 20 35C28.2843 35 35 28.2843 35 20V19.2105L34.1759 19.2104C34.1514 19.2102 34.1144 19.2098 34.0661 19.2091C33.9694 19.2076 33.8278 19.2046 33.6513 19.1986C33.2976 19.1866 32.806 19.1626 32.2553 19.1147C31.1298 19.0168 29.8464 18.8258 28.9721 18.4766C27.5657 17.915 26.7717 17.1704 25.8644 16.2991L25.8119 16.2487C24.9031 15.3756 23.882 14.3947 22.1124 13.5619C20.3691 12.7416 18.4413 12.8732 17.0247 13.1647C16.3054 13.3127 15.6892 13.5078 15.252 13.6662C15.0329 13.7455 14.8572 13.8162 14.7344 13.8679C14.0215 14.168 13.3296 14.5231 12.63 14.8526C12.63 14.8526 14.0027 15.2291 14.6815 15.4393C14.7061 15.4469 14.7444 15.459 14.7946 15.4759C14.895 15.5097 15.042 15.5622 15.2198 15.6341C15.5779 15.7791 16.0489 15.9984 16.5139 16.2973C17.2462 16.7681 17.8533 17.3604 18.1023 18.0875C16.5478 18.2918 15.0897 18.9742 13.9994 19.6156C13.3383 20.0045 12.7884 20.3926 12.4031 20.6841C12.2101 20.8301 12.0573 20.9525 11.9515 21.0397C11.8627 21.1128 10.4591 22.3501 10.4591 22.3501C10.4591 22.3501 12.2699 22.5426 13.1635 22.7227C13.7579 22.8425 14.5594 23.0352 15.3954 23.3269C16.2352 23.6199 17.0836 24.0038 17.7876 24.4952C18.4931 24.9877 19.0098 25.557 19.2648 26.2087C20.0074 28.1065 19.2787 29.9553 17.8156 30.9952C16.3699 32.0228 14.1719 32.2671 11.9743 30.758ZM17.0922 33.1052C17.6833 32.9132 18.235 32.6343 18.7304 32.2822C20.7213 30.8671 21.7689 28.275 20.7352 25.6334C20.3291 24.5956 19.5531 23.802 18.6913 23.2005C17.8282 22.598 16.8349 22.1569 15.9156 21.8361C15.3111 21.6252 14.7272 21.4624 14.2159 21.3388C14.3973 21.2205 14.5927 21.0985 14.7999 20.9765C16.0151 20.2617 17.5455 19.6052 19.0132 19.6052C21.2252 19.6052 22.8727 20.284 24.4457 21.0125C24.5887 21.0786 24.7322 21.146 24.8765 21.2137C26.2822 21.8731 27.7585 22.5658 29.4737 22.5658C31.1371 22.5658 32.4327 22.0955 33.3256 21.6092C32.5306 28.2627 26.8677 33.4211 20 33.4211C19.0015 33.4211 18.0285 33.312 17.0922 33.1052ZM31.6195 20.6394C31.0283 20.8411 30.3117 20.9868 29.4737 20.9868C28.1281 20.9868 26.9721 20.4478 25.5044 19.7635C25.3753 19.7033 25.2436 19.6419 25.1092 19.5797C23.6397 18.8991 21.9395 18.178 19.7264 18.0473C19.4295 16.582 18.3189 15.5807 17.3677 14.9691C17.2617 14.901 17.1559 14.8365 17.0512 14.7755C17.1461 14.7532 17.2435 14.7317 17.343 14.7112C18.6213 14.4481 20.1475 14.3824 21.4401 14.9906C22.9742 15.7126 23.8396 16.5436 24.7399 17.4083L24.7707 17.4379C25.6972 18.3276 26.677 19.2602 28.3866 19.943C29.3363 20.3223 30.5654 20.5263 31.6195 20.6394Z" fill="url(#paint0_linear_358_12487)"/>
  <defs>
    <linearGradient id="paint0_linear_358_12487" x1="5" y1="35" x2="35.538" y2="34.442" gradientUnits="userSpaceOnUse">
      <stop stop-color="#29CCB9"/>
      <stop offset="0.494792" stop-color="#0091FF"/>
      <stop offset="1" stop-color="#FF66B7"/>
    </linearGradient>
  </defs>
</svg>
