<svg width="40" height="40" viewBox="0 0 40 40" fill="none"
  xmlns="http://www.w3.org/2000/svg">
  <path d="M39.9491 18.6439C39.2005 7.62266 29.6604 -0.701257 18.6423 0.0474021C13.1536 0.421398 8.33358 2.97804 4.96955 6.808L4.95955 6.80133C4.93555 6.832 4.91489 6.86266 4.89422 6.89333C1.55353 10.7473 -0.326484 15.8679 0.0468516 21.3578C0.0815186 21.8818 0.142852 22.3952 0.218186 22.9045C0.218186 22.9292 0.224853 22.9492 0.228186 22.9732C0.27952 23.3085 0.338187 23.6445 0.402854 23.9731C0.464152 24.2769 0.532616 24.5792 0.608189 24.8798C2.91887 34.0904 11.5476 40.6136 21.357 39.9463C32.3751 39.197 40.7025 29.6578 39.9531 18.6372L39.9491 18.6439ZM35.5958 18.9412C35.6884 20.2972 35.6024 21.6252 35.3598 22.9052C35.3598 22.8985 35.3531 22.8918 35.3531 22.8845C33.9011 19.3419 31.0331 16.7819 28.5137 15.3679C29.0237 9.36464 26.987 6.832 24.6804 6.42133C24.2334 6.33737 23.774 6.34566 23.3304 6.4457C22.8867 6.54573 22.4682 6.73539 22.1006 7.00304C21.7329 7.27069 21.4238 7.61067 21.1923 8.00211C20.9608 8.39355 20.8118 8.82818 20.7543 9.2793C20.6982 9.71449 20.7284 10.1565 20.8432 10.58C20.9581 11.0035 21.1554 11.4001 21.4238 11.7473C21.6922 12.0944 22.0264 12.3852 22.4073 12.603C22.7882 12.8208 23.2084 12.9614 23.6437 13.0166C23.8044 13.0373 23.9617 13.0439 24.1157 13.0406C24.1269 13.2549 24.1327 13.4694 24.133 13.6839C22.0003 13.1573 20.0083 13.0506 18.191 13.2153C17.5076 13.2601 16.8275 13.3458 16.1543 13.4719C16.381 11.4453 17.1436 9.16597 18.619 7.50266C20.0457 5.89067 22.1683 4.97002 24.4817 5.20601C24.9204 5.25068 25.389 5.36001 25.8097 5.50068C25.8304 5.50734 25.851 5.51401 25.8684 5.51734C31.2284 7.70132 35.1751 12.7906 35.5924 18.9412H35.5958ZM21.655 21.9945C21.655 21.9945 21.655 21.9978 21.6517 22.0012C21.146 22.7278 20.573 23.4053 19.9403 24.0245C18.9821 23.0123 18.1708 21.8705 17.5303 20.6325C17.4996 20.5672 17.4656 20.5092 17.4343 20.4439V20.4372C17.059 19.6349 16.7588 18.7996 16.5376 17.9419C17.9576 17.6066 19.351 17.4832 20.683 17.5486L20.895 17.5586H20.9017C21.737 17.6272 22.6063 17.7812 23.5064 18.0279C23.0885 19.4326 22.4658 20.7681 21.6583 21.9912L21.655 21.9945ZM14.823 5.24735L14.813 5.26068C12.4683 8.28665 11.6876 12.0479 11.7223 14.9366C6.26623 17.4966 5.09555 20.5259 5.88956 22.7298C5.90956 22.7918 5.93423 22.8498 5.95823 22.9085C6.30031 23.7256 6.95283 24.3735 7.77239 24.7098C8.59194 25.0461 9.51148 25.0432 10.3289 24.7018C11.1461 24.3597 11.794 23.7072 12.1303 22.8877C12.4665 22.0681 12.4637 21.1486 12.1223 20.3312C12.0601 20.186 11.9882 20.0453 11.9069 19.9099C12.0783 19.7965 12.2629 19.6845 12.4616 19.5679C13.0703 21.6798 13.971 23.4632 15.0216 24.9551C15.4016 25.5198 15.8123 26.0638 16.2603 26.5878C14.3916 27.4058 12.0369 27.8851 9.85626 27.4398C7.74824 27.0091 5.88956 25.6331 4.93489 23.5105C4.752 23.0942 4.61432 22.6595 4.52422 22.2138C4.46793 21.8311 4.42568 21.4464 4.39755 21.0605C3.91088 13.8966 8.35424 7.51999 14.823 5.24735ZM21.059 35.5964C16.805 35.887 12.8276 34.4364 9.82226 31.8551C13.615 32.3724 17.2636 31.1671 19.749 29.6924C24.6944 33.1391 27.9051 32.6391 29.4177 30.8491C29.7141 30.5036 29.9367 30.1012 30.0719 29.6666C30.2072 29.232 30.2521 28.7743 30.204 28.3217C30.156 27.869 30.0159 27.431 29.7924 27.0345C29.5689 26.638 29.2667 26.2913 28.9044 26.0158C28.5554 25.7498 28.1574 25.5551 27.7331 25.4429C27.3089 25.3308 26.8667 25.3033 26.4318 25.3621C25.9969 25.4209 25.5779 25.5649 25.1987 25.7857C24.8195 26.0065 24.4875 26.2999 24.2217 26.6491C24.1264 26.7758 24.0404 26.9131 23.965 27.0498C23.7837 26.9571 23.5917 26.8545 23.397 26.7418C24.7905 25.3042 25.9324 23.6426 26.775 21.8265C27.0767 21.2118 27.3419 20.5798 27.5691 19.9339C29.2124 21.1458 30.8071 22.9425 31.5124 25.0538C32.1938 27.0938 31.9331 29.3938 30.5711 31.2804C30.302 31.6464 29.9945 31.9826 29.6537 32.2831L29.6404 32.2964C27.1791 34.235 24.1892 35.3842 21.063 35.593L21.059 35.5964Z" fill="url(#paint0_linear_358_13381)"/>
  <path style="mix-blend-mode:overlay" opacity="0.9" d="M24.6804 6.41822C24.3053 6.34698 23.9205 6.34246 23.5437 6.40489C25.4578 7.44488 26.8504 10.3442 26.1184 16.0668C25.876 17.9279 25.3292 19.7365 24.4997 21.4201C23.7849 22.9564 22.8547 24.383 21.7371 25.6567C22.2669 26.0552 22.8213 26.4199 23.3971 26.7487C24.7907 25.3113 25.9328 23.65 26.7758 21.8341C27.6072 20.1512 28.1541 18.3423 28.3944 16.4808C29.2678 9.66952 27.1251 6.85621 24.6811 6.42089L24.6804 6.41822Z" fill="url(#paint1_radial_358_13381)"/>
  <g style="mix-blend-mode:overlay" opacity="0.8">
    <path d="M26.1176 16.0634C26.8503 10.3435 25.457 7.44153 23.5436 6.40088C23.4683 6.41088 23.3969 6.42821 23.3209 6.44554C25.1936 7.52353 26.5416 10.4188 25.8196 16.0634C25.5772 17.9245 25.0304 19.7331 24.201 21.4167C23.512 22.8987 22.6216 24.2784 21.5549 25.5167C21.6163 25.5647 21.6749 25.6093 21.7363 25.6533C22.8529 24.3788 23.7829 22.9521 24.4983 21.4161C25.3299 19.7333 25.8771 17.925 26.1176 16.0634Z" fill="white"/>
  </g>
  <path style="mix-blend-mode:overlay" opacity="0.5" d="M18.8443 29.0384C18.663 28.9018 18.4916 28.7578 18.3176 28.6138C15.4936 29.7918 11.5809 30.5304 7.69287 29.6271C8.32606 30.4381 9.03798 31.1844 9.81822 31.8551C13.6109 32.3724 17.2596 31.1671 19.745 29.6924C19.4395 29.479 19.1381 29.2599 18.841 29.0351L18.8443 29.0384Z" fill="url(#paint2_radial_358_13381)"/>
  <path style="mix-blend-mode:overlay" opacity="0.6" d="M18.3203 28.6138C18.235 28.5418 18.1463 28.4704 18.0643 28.3984C15.2197 29.5344 11.287 30.2158 7.40894 29.2471C7.50494 29.3738 7.60094 29.5038 7.69627 29.6271C11.5816 30.5304 15.4963 29.7918 18.3203 28.6138Z" fill="url(#paint3_linear_358_13381)"/>
  <path style="mix-blend-mode:overlay" opacity="0.9" d="M5.89301 22.7337C5.91301 22.795 5.93768 22.8537 5.96168 22.9117C6.08834 23.213 6.25234 23.483 6.45101 23.7263C6.39634 21.5497 8.21036 18.8897 13.5291 16.6651C15.2619 15.9443 17.1017 15.5141 18.9744 15.3917C20.6629 15.2412 22.3642 15.3335 24.0265 15.6657C24.1125 14.9471 24.1465 14.2764 24.1398 13.6838C22.1984 13.195 20.1885 13.0366 18.1944 13.2151C16.3215 13.3378 14.4816 13.768 12.7484 14.4884C6.41368 17.1377 5.04767 20.3997 5.89368 22.737V22.7337H5.89301Z" fill="url(#paint4_radial_358_13381)"/>
  <g style="mix-blend-mode:overlay" opacity="0.8">
    <path d="M13.529 16.6685C8.21028 18.8939 6.3956 21.5532 6.45093 23.7298C6.49893 23.7878 6.55026 23.8431 6.6016 23.8978C6.5976 21.7378 8.43228 19.1232 13.6796 16.9252C15.4125 16.2045 17.2523 15.7743 19.125 15.6519C20.753 15.5079 22.3931 15.5887 23.9991 15.8919C24.0098 15.8168 24.019 15.7414 24.0264 15.6659C22.3639 15.3355 20.6628 15.2435 18.9744 15.3926C17.1017 15.5153 15.2619 15.9455 13.529 16.6659V16.6685Z" fill="white"/>
  </g>
  <path style="mix-blend-mode:overlay" opacity="0.4" d="M28.401 16.4771C28.3743 16.7031 28.3363 16.9218 28.2983 17.1444C30.7284 18.9998 33.3264 22.0217 34.4904 25.8377C34.8751 24.8829 35.1652 23.8926 35.3564 22.8811C33.9084 19.3384 31.0404 16.7811 28.521 15.3678C28.4903 15.7278 28.4523 16.0938 28.4043 16.4771H28.401Z" fill="url(#paint5_radial_358_13381)"/>
  <path style="mix-blend-mode:overlay" opacity="0.5" d="M28.2984 17.1447C28.2777 17.254 28.2604 17.3673 28.2397 17.4767C30.6464 19.3726 33.2031 22.4366 34.3018 26.2799C34.3665 26.1332 34.4285 25.9852 34.4865 25.8386C33.3231 22.0219 30.7284 19.0033 28.2944 17.1447H28.2984Z" fill="url(#paint6_linear_358_13381)"/>
  <path style="mix-blend-mode:overlay" opacity="0.9" d="M29.4177 30.8458C29.665 30.5544 29.8618 30.2236 29.9997 29.8671C28.141 31.0031 24.933 30.7604 20.3437 27.2651C18.8517 26.1256 17.5587 24.7469 16.517 23.1852C15.5422 21.7986 14.7711 20.2797 14.2269 18.6746C13.5629 18.9586 12.9643 19.2666 12.4509 19.5679C12.9996 21.4934 13.8672 23.3132 15.0176 24.9518C16.0443 26.4851 17.3243 27.8718 18.8443 29.0318C24.307 33.1937 27.8157 32.7451 29.4137 30.8451H29.4177V30.8458Z" fill="url(#paint7_radial_358_13381)"/>
  <g style="mix-blend-mode:overlay" opacity="0.8">
    <path d="M20.347 27.2659C24.9331 30.7599 28.1437 31.0032 30.0018 29.8666C30.0291 29.7952 30.0531 29.7232 30.0738 29.6546C28.2051 30.7399 25.0217 30.4552 20.497 27.0093C19.0051 25.8697 17.7121 24.4911 16.6703 22.9293C15.7316 21.592 14.9819 20.1316 14.4423 18.5894C14.3703 18.62 14.3023 18.6474 14.2336 18.678C14.7775 20.2833 15.5485 21.8025 16.523 23.1893C17.5497 24.7226 18.8297 26.1093 20.3497 27.2693L20.3464 27.2659H20.347Z" fill="white"/>
  </g>
  <path style="mix-blend-mode:overlay" opacity="0.3" d="M12.7449 14.4816C12.9536 14.3956 13.1622 14.317 13.3742 14.2383C13.7649 11.2057 15.0822 7.44437 17.8076 4.53174C16.7876 4.6784 15.7843 4.9184 14.8122 5.25706C12.4669 8.28303 11.6869 12.0443 11.7216 14.9336C12.0462 14.7803 12.3856 14.629 12.7416 14.4823L12.7449 14.4816Z" fill="url(#paint8_radial_358_13381)"/>
  <path style="mix-blend-mode:overlay" opacity="0.4" d="M13.3735 14.2385C13.4802 14.2012 13.5829 14.1599 13.6889 14.1225C14.1269 11.0892 15.5029 7.34527 18.2789 4.46997C18.1216 4.4873 17.9636 4.50797 17.8062 4.52864C15.0815 7.44461 13.7642 11.2026 13.3742 14.2352V14.2385H13.3735Z" fill="url(#paint9_linear_358_13381)"/>
  <path style="mix-blend-mode:multiply" opacity="0.4" d="M18.6423 0.0480893C13.1523 0.421419 8.33358 2.97806 4.96889 6.80802L4.89355 6.89335C5.54689 7.54401 7.68957 8.824 8.55558 9.35799C10.2813 7.49891 12.4337 6.08805 14.827 5.24737C14.995 5.02804 15.1723 4.81271 15.3576 4.60404C17.6163 2.05407 20.7003 0.708749 24.2804 0.708749C24.6777 0.708749 25.489 0.774082 25.5057 0.774082C23.2781 0.133273 20.9554 -0.112658 18.643 0.0474227L18.6423 0.0480893Z" fill="url(#paint10_linear_358_13381)"/>
  <path style="mix-blend-mode:multiply" opacity="0.4" d="M21.059 35.5998C16.8049 35.8905 12.8276 34.4398 9.82222 31.8592C9.53997 31.8223 9.25913 31.7754 8.98022 31.7185C5.64286 31.0372 2.93217 29.0386 1.14549 25.9413C0.948757 25.599 0.769417 25.247 0.608154 24.8866C2.91884 34.0972 11.5476 40.6211 21.3536 39.9531C21.3983 38.9438 21.1003 36.5998 21.0556 35.5998H21.059Z" fill="url(#paint11_linear_358_13381)"/>
  <path style="mix-blend-mode:multiply" opacity="0.4" d="M39.9497 18.6441C39.3337 18.5821 36.335 18.8187 35.5964 18.9414C35.6884 20.2974 35.603 21.6254 35.3597 22.9054C35.4624 23.1587 35.5617 23.4187 35.6504 23.682C36.729 26.9133 36.3524 30.2573 34.5657 33.3579C34.3679 33.6995 34.1532 34.0311 33.9224 34.3513C33.9224 34.3513 33.9324 34.3439 33.9357 34.3373C37.9991 30.384 40.3637 24.7434 39.9497 18.6474V18.6441Z" fill="url(#paint12_linear_358_13381)"/>
  <path style="mix-blend-mode:multiply" opacity="0.5" d="M24.4858 5.20245C24.9238 5.24711 25.3924 5.35645 25.8138 5.49711C25.8338 5.50378 25.8551 5.51044 25.8718 5.51378C27.5887 6.21454 29.1682 7.21347 30.5371 8.46441C30.5371 8.46441 30.5438 8.46775 30.5471 8.47108C31.2045 7.72175 32.4672 6.8971 32.4672 6.8971C32.4672 6.8971 30.5338 4.91845 27.5731 4.30246C25.5024 3.87113 20.8304 3.45713 17.8831 8.47108L17.9104 8.44441C18.1297 8.11508 18.3591 7.79375 18.6224 7.49909C20.0497 5.88711 22.1718 4.96578 24.4858 5.20245Z" fill="url(#paint13_linear_358_13381)"/>
  <path style="mix-blend-mode:multiply" opacity="0.5" d="M30.571 31.2837C30.3019 31.6498 29.9944 31.9859 29.6536 32.2864C29.6403 32.2997 29.623 32.3137 29.609 32.3277C28.1436 33.4634 26.489 34.3311 24.7216 34.891C24.7183 34.891 24.7149 34.891 24.7109 34.8944C25.0329 35.839 25.1149 37.345 25.1149 37.345C25.1149 37.345 27.795 36.661 29.8083 34.405C31.215 32.827 33.9117 28.9871 31.043 23.9285C31.043 23.9285 31.047 23.9451 31.0536 23.9658C31.2317 24.3191 31.3923 24.6811 31.5157 25.0545C32.197 27.0944 31.9363 29.3944 30.5743 31.2804L30.571 31.2837Z" fill="url(#paint14_linear_358_13381)"/>
  <path style="mix-blend-mode:multiply" opacity="0.5" d="M4.9422 23.5177C4.75904 23.1012 4.62114 22.6663 4.53087 22.2204C4.52753 22.2004 4.52087 22.179 4.51753 22.1584C4.2642 20.3137 4.3462 18.4451 4.7402 16.6451V16.6344C3.76086 16.4424 2.41619 15.7584 2.41619 15.7584C2.41619 15.7584 1.66951 18.4251 2.61819 21.293C3.28219 23.3017 5.25687 27.5563 11.0716 27.601C11.0716 27.601 11.0549 27.597 11.0342 27.5903C10.6409 27.5663 10.2476 27.5256 9.86091 27.447C7.75222 27.0156 5.89354 25.6397 4.9382 23.5177H4.9422Z" fill="url(#paint15_linear_358_13381)"/>
  <path style="mix-blend-mode:multiply" opacity="0.6" d="M23.6438 13.0139C23.8045 13.0339 23.9618 13.0406 24.1158 13.0373C24.1158 13.0373 24.0098 10.96 23.7564 9.89198C23.4998 8.82733 23.1231 8.11867 22.7124 7.71867C22.4151 7.43134 21.4804 7.07468 20.7551 9.27199C20.6988 9.70717 20.7289 10.1492 20.8437 10.5727C20.9585 10.9962 21.1557 11.393 21.424 11.7402C21.6924 12.0874 22.0265 12.3783 22.4074 12.5962C22.7883 12.814 23.2085 12.9547 23.6438 13.0099V13.0133V13.0139Z" fill="url(#paint16_linear_358_13381)"/>
  <path style="mix-blend-mode:multiply" opacity="0.5" d="M12.127 20.3377C12.0646 20.1927 11.9924 20.0522 11.911 19.917C11.911 19.917 10.1616 21.0463 9.36764 21.799C8.57364 22.5523 8.14897 23.2336 8.00897 23.791C7.90963 24.1916 8.06697 25.1776 10.333 24.7083C11.1501 24.3662 11.798 23.7137 12.1343 22.8941C12.4706 22.0746 12.4677 21.1551 12.1263 20.3377H12.127Z" fill="url(#paint17_linear_358_13381)"/>
  <path style="mix-blend-mode:multiply" opacity="0.6" d="M24.2257 26.6459C24.1297 26.7726 24.0443 26.9099 23.969 27.0459C23.969 27.0459 25.821 27.9946 26.8717 28.3059C27.9224 28.6179 28.723 28.6453 29.2744 28.4873C29.6717 28.3746 30.445 27.7413 28.9077 26.0166C28.5587 25.7507 28.1608 25.5561 27.7366 25.444C27.3124 25.3319 26.8703 25.3045 26.4355 25.3633C26.0007 25.4221 25.5817 25.566 25.2026 25.7868C24.8234 26.0075 24.4914 26.3008 24.2257 26.6499V26.6459Z" fill="url(#paint18_linear_358_13381)"/>
  <path style="mix-blend-mode:multiply" opacity="0.3" d="M23.507 18.0311C23.087 19.4278 22.4977 20.6978 21.7757 21.8164C21.7377 21.8744 21.7003 21.9331 21.659 21.9944C21.659 21.9944 21.659 21.9978 21.6557 22.0011C21.15 22.7278 20.577 23.4052 19.9443 24.0244C20.403 24.5104 20.8957 24.9824 21.4403 25.4311C22.0589 25.9176 22.7132 26.3568 23.3977 26.745C24.7913 25.3077 25.9335 23.6464 26.7764 21.8304C27.0779 21.2155 27.3428 20.5833 27.5697 19.9371C26.8651 19.4204 26.153 19.0065 25.4964 18.7258C24.849 18.4484 24.1832 18.2163 23.5037 18.0311H23.5077H23.507Z" fill="url(#paint19_linear_358_13381)"/>
  <path style="mix-blend-mode:multiply" opacity="0.3" d="M9.82303 31.8592C13.6151 32.3758 17.2638 31.1712 19.7491 29.6959C19.4437 29.4825 19.1423 29.2633 18.8451 29.0385C17.8999 28.3155 17.0329 27.4955 16.2584 26.5919C14.3891 27.4092 12.0344 27.8886 9.8537 27.4432C7.74569 27.0126 5.88701 25.6366 4.93167 23.5146C4.74874 23.0981 4.61106 22.6632 4.521 22.2173C5.07233 26.0846 7.02301 29.4592 9.8197 31.8585L9.82303 31.8592Z" fill="url(#paint20_linear_358_13381)"/>
  <path style="mix-blend-mode:multiply" opacity="0.3" d="M19.9436 24.0241C18.9856 23.012 18.1746 21.8704 17.5342 20.6328C17.5035 20.5674 17.4689 20.5094 17.4382 20.4441V20.4374C17.0629 19.6352 16.7627 18.7998 16.5415 17.9421C15.8909 18.0961 15.2375 18.2881 14.5802 18.5348C13.8505 18.8264 13.1434 19.1718 12.4648 19.5681C13.0742 21.6801 13.9742 23.4634 15.0249 24.9554C15.4049 25.5201 15.8162 26.0641 16.2649 26.588C17.0649 26.2387 17.7809 25.8247 18.3516 25.3967C18.9137 24.9745 19.4467 24.5148 19.9469 24.0207L19.9436 24.0241Z" fill="url(#paint21_linear_358_13381)"/>
  <path style="mix-blend-mode:multiply" opacity="0.3" d="M14.8137 5.26084C12.469 8.2868 11.6884 12.0481 11.723 14.9367C12.0609 14.7781 12.4021 14.6265 12.7464 14.4821C13.8435 14.0238 14.9861 13.683 16.1551 13.4654C16.3817 11.4388 17.1444 9.15946 18.6197 7.49615C20.0464 5.88416 22.1691 4.96284 24.4831 5.1995C24.9211 5.24417 25.3898 5.3535 25.8111 5.49417C25.8311 5.50083 25.8518 5.5075 25.8691 5.51083C23.6728 4.61464 21.3002 4.23422 18.9337 4.39885C17.4964 4.49818 16.1204 4.78884 14.8197 5.2475C14.8164 5.25084 14.813 5.2575 14.8097 5.26084H14.8137Z" fill="url(#paint22_linear_358_13381)"/>
  <path style="mix-blend-mode:multiply" opacity="0.3" d="M35.3564 22.8779C33.9057 19.3353 31.037 16.7746 28.5177 15.3613C28.487 15.7213 28.4497 16.0907 28.3977 16.4773C28.2449 17.6564 27.9685 18.8161 27.573 19.9373C29.2163 21.1493 30.811 22.9459 31.5164 25.0579C32.197 27.0979 31.937 29.3978 30.575 31.2838C30.3059 31.6499 29.9984 31.986 29.6577 32.2865L29.6443 32.2998C32.581 29.9932 34.6577 26.6665 35.3704 22.9019C35.3704 22.8953 35.3637 22.8879 35.3637 22.8812L35.3564 22.8779Z" fill="url(#paint23_linear_358_13381)"/>
  <path style="mix-blend-mode:multiply" opacity="0.3" d="M16.1442 15.8747C16.228 16.5719 16.3594 17.2627 16.5375 17.942C17.9582 17.6066 19.3509 17.4833 20.6829 17.5486L20.8949 17.5586H20.9016C21.7369 17.6273 22.6062 17.7813 23.5069 18.028C23.6982 17.388 23.8596 16.7233 23.9756 16.032C24.1023 15.17 24.1396 14.372 24.1363 13.6774C22.0042 13.1507 20.0122 13.044 18.1949 13.2087C17.5115 13.2535 16.8314 13.3392 16.1582 13.4654C16.0622 14.3347 16.0582 15.1593 16.1475 15.872L16.1442 15.8747Z" fill="url(#paint24_linear_358_13381)"/>
  <defs>
    <linearGradient id="paint0_linear_358_13381" x1="6.35156" y1="33.649" x2="31.8506" y2="8.14619" gradientUnits="userSpaceOnUse">
      <stop stop-color="#E6007A"/>
      <stop offset="0.21" stop-color="#703AC2"/>
      <stop offset="0.46" stop-color="#0070EB"/>
      <stop offset="0.77" stop-color="#0297FB"/>
      <stop offset="1" stop-color="#0AE2FF"/>
    </linearGradient>
    <radialGradient id="paint1_radial_358_13381" cx="0" cy="0" r="1" gradientUnits="userSpaceOnUse" gradientTransform="translate(25.7004 15.9501) scale(7.60539 7.60525)">
      <stop stop-color="white"/>
      <stop offset="1" stop-color="white" stop-opacity="0"/>
    </radialGradient>
    <radialGradient id="paint2_radial_358_13381" cx="0" cy="0" r="1" gradientUnits="userSpaceOnUse" gradientTransform="translate(14.4603 30.0584) scale(4.42562 4.42555)">
      <stop stop-color="white"/>
      <stop offset="1" stop-color="white" stop-opacity="0"/>
    </radialGradient>
    <linearGradient id="paint3_linear_358_13381" x1="7.81961" y1="29.3091" x2="12.085" y2="29.2504" gradientUnits="userSpaceOnUse">
      <stop stop-color="white" stop-opacity="0"/>
      <stop offset="1" stop-color="white"/>
    </linearGradient>
    <radialGradient id="paint4_radial_358_13381" cx="0" cy="0" r="1" gradientUnits="userSpaceOnUse" gradientTransform="translate(13.6432 17.0851) rotate(-120) scale(7.60529 7.60535)">
      <stop stop-color="white"/>
      <stop offset="1" stop-color="white" stop-opacity="0"/>
    </radialGradient>
    <radialGradient id="paint5_radial_358_13381" cx="0" cy="0" r="1" gradientUnits="userSpaceOnUse" gradientTransform="translate(31.4822 19.7658) rotate(-120) scale(4.42556 4.4256)">
      <stop stop-color="white"/>
      <stop offset="1" stop-color="white" stop-opacity="0"/>
    </radialGradient>
    <linearGradient id="paint6_linear_358_13381" x1="34.1518" y1="25.8886" x2="31.9685" y2="22.2246" gradientUnits="userSpaceOnUse">
      <stop stop-color="white" stop-opacity="0"/>
      <stop offset="1" stop-color="white"/>
    </linearGradient>
    <radialGradient id="paint7_radial_358_13381" cx="0" cy="0" r="1" gradientUnits="userSpaceOnUse" gradientTransform="translate(20.2941 26.6079) rotate(120) scale(7.60529 7.60536)">
      <stop stop-color="white"/>
      <stop offset="1" stop-color="white" stop-opacity="0"/>
    </radialGradient>
    <radialGradient id="paint8_radial_358_13381" cx="0" cy="0" r="1" gradientUnits="userSpaceOnUse" gradientTransform="translate(14.0552 10.1737) rotate(120) scale(4.42556 4.4256)">
      <stop stop-color="white"/>
      <stop offset="1" stop-color="white" stop-opacity="0"/>
    </radialGradient>
    <linearGradient id="paint9_linear_358_13381" x1="18.0216" y1="4.79597" x2="15.9423" y2="8.52063" gradientUnits="userSpaceOnUse">
      <stop stop-color="white" stop-opacity="0"/>
      <stop offset="1" stop-color="white"/>
    </linearGradient>
    <linearGradient id="paint10_linear_358_13381" x1="18.951" y1="2.90273" x2="12.4336" y2="4.79877" gradientUnits="userSpaceOnUse">
      <stop stop-color="#231F20"/>
      <stop offset="1" stop-color="white"/>
    </linearGradient>
    <linearGradient id="paint11_linear_358_13381" x1="6.63887" y1="27.7519" x2="12.0881" y2="33.4399" gradientUnits="userSpaceOnUse">
      <stop stop-color="#231F20"/>
      <stop offset="1" stop-color="white"/>
    </linearGradient>
    <linearGradient id="paint12_linear_358_13381" x1="35.8837" y1="26.896" x2="37.7797" y2="21.132" gradientUnits="userSpaceOnUse">
      <stop stop-color="#231F20"/>
      <stop offset="1" stop-color="white"/>
    </linearGradient>
    <linearGradient id="paint13_linear_358_13381" x1="21.9184" y1="6.20177" x2="30.6538" y2="8.20115" gradientUnits="userSpaceOnUse">
      <stop stop-color="#231F20"/>
      <stop offset="1" stop-color="white"/>
    </linearGradient>
    <linearGradient id="paint14_linear_358_13381" x1="30.991" y1="28.5604" x2="24.8877" y2="35.1271" gradientUnits="userSpaceOnUse">
      <stop stop-color="#231F20"/>
      <stop offset="1" stop-color="white"/>
    </linearGradient>
    <linearGradient id="paint15_linear_358_13381" x1="7.08889" y1="25.241" x2="4.45562" y2="16.6751" gradientUnits="userSpaceOnUse">
      <stop stop-color="#231F20"/>
      <stop offset="1" stop-color="white"/>
    </linearGradient>
    <linearGradient id="paint16_linear_358_13381" x1="23.8285" y1="9.42265" x2="21.0665" y2="12.1887" gradientUnits="userSpaceOnUse">
      <stop stop-color="#231F20"/>
      <stop offset="1" stop-color="white"/>
    </linearGradient>
    <linearGradient id="paint17_linear_358_13381" x1="8.92631" y1="21.9676" x2="12.701" y2="22.9817" gradientUnits="userSpaceOnUse">
      <stop stop-color="#231F20"/>
      <stop offset="1" stop-color="white"/>
    </linearGradient>
    <linearGradient id="paint18_linear_358_13381" x1="27.241" y1="28.6026" x2="26.2297" y2="24.8293" gradientUnits="userSpaceOnUse">
      <stop stop-color="#231F20"/>
      <stop offset="1" stop-color="white"/>
    </linearGradient>
    <linearGradient id="paint19_linear_358_13381" x1="21.495" y1="25.2457" x2="23.155" y2="22.9564" gradientUnits="userSpaceOnUse">
      <stop stop-color="#231F20"/>
      <stop offset="1" stop-color="white"/>
    </linearGradient>
    <linearGradient id="paint20_linear_358_13381" x1="15.7857" y1="24.2539" x2="12.4691" y2="25.8353" gradientUnits="userSpaceOnUse">
      <stop stop-color="#231F20"/>
      <stop offset="1" stop-color="white"/>
    </linearGradient>
    <linearGradient id="paint21_linear_358_13381" x1="14.5802" y1="18.7328" x2="15.6068" y2="20.8655" gradientUnits="userSpaceOnUse">
      <stop stop-color="#231F20"/>
      <stop offset="1" stop-color="white"/>
    </linearGradient>
    <linearGradient id="paint22_linear_358_13381" x1="19.3557" y1="12.1474" x2="18.6471" y2="9.70012" gradientUnits="userSpaceOnUse">
      <stop stop-color="#231F20"/>
      <stop offset="1" stop-color="white"/>
    </linearGradient>
    <linearGradient id="paint23_linear_358_13381" x1="27.0157" y1="23.3566" x2="29.069" y2="23.8293" gradientUnits="userSpaceOnUse">
      <stop stop-color="#231F20"/>
      <stop offset="1" stop-color="white"/>
    </linearGradient>
    <linearGradient id="paint24_linear_358_13381" x1="23.7942" y1="16.4193" x2="21.1896" y2="15.9466" gradientUnits="userSpaceOnUse">
      <stop stop-color="#231F20"/>
      <stop offset="1" stop-color="white"/>
    </linearGradient>
  </defs>
</svg>
