<svg width="40" height="40" viewBox="0 0 40 40" fill="none"
  xmlns="http://www.w3.org/2000/svg">
  <circle cx="20" cy="20" r="20" fill="#1D1336"/>
  <path d="M11.4408 19.4987C11.4408 19.258 11.6369 19.0629 11.8788 19.0629H28.0841C28.326 19.0629 28.5221 19.258 28.5221 19.4987C28.5221 19.7395 28.326 19.9346 28.0841 19.9346H11.8788C11.6369 19.9346 11.4408 19.7395 11.4408 19.4987Z" fill="#E1147B"/>
  <path d="M8.15589 21.4166C8.15589 21.1759 8.35198 20.9807 8.59388 20.9807H20.4194C20.6613 20.9807 20.8574 21.1759 20.8574 21.4166C20.8574 21.6573 20.6613 21.8524 20.4194 21.8524H8.59388C8.35198 21.8524 8.15589 21.6573 8.15589 21.4166Z" fill="#E1147B"/>
  <path d="M19.1493 26.7342C18.9074 26.7342 18.7113 26.9294 18.7113 27.1701C18.7113 27.4108 18.9074 27.606 19.1493 27.606H26.4636C26.7055 27.606 26.9016 27.4108 26.9016 27.1701C26.9016 26.9294 26.7055 26.7342 26.4636 26.7342H19.1493Z" fill="#E1147B"/>
  <path d="M14.2439 29.0879C14.2439 28.8472 14.4399 28.6521 14.6818 28.6521H21.9524C22.1943 28.6521 22.3904 28.8472 22.3904 29.0879C22.3904 29.3287 22.1943 29.5238 21.9524 29.5238H14.6818C14.4399 29.5238 14.2439 29.3287 14.2439 29.0879Z" fill="#E1147B"/>
  <path d="M11.8788 22.8985C11.6369 22.8985 11.4408 23.0937 11.4408 23.3344C11.4408 23.5751 11.6369 23.7703 11.8788 23.7703H26.157C26.3989 23.7703 26.595 23.5751 26.595 23.3344C26.595 23.0937 26.3989 22.8985 26.157 22.8985H11.8788Z" fill="#E1147B"/>
  <path d="M8.98806 25.2523C8.98806 25.0115 9.18415 24.8164 9.42604 24.8164H15.1198C15.3617 24.8164 15.5578 25.0115 15.5578 25.2523C15.5578 25.493 15.3617 25.6881 15.1198 25.6881H9.42604C9.18415 25.6881 8.98806 25.493 8.98806 25.2523Z" fill="#E1147B"/>
  <path d="M16.7842 24.8164C16.5423 24.8164 16.3462 25.0115 16.3462 25.2523C16.3462 25.493 16.5423 25.6881 16.7842 25.6881H28.6097C28.8516 25.6881 29.0477 25.493 29.0477 25.2523C29.0477 25.0115 28.8516 24.8164 28.6097 24.8164H16.7842Z" fill="#E1147B"/>
  <path d="M10.8276 19.4987C10.8276 19.7395 10.6315 19.9346 10.3896 19.9346C10.1477 19.9346 9.95162 19.7395 9.95162 19.4987C9.95162 19.258 10.1477 19.0629 10.3896 19.0629C10.6315 19.0629 10.8276 19.258 10.8276 19.4987Z" fill="#E1147B"/>
  <path d="M7.10473 21.8524C7.34663 21.8524 7.54271 21.6573 7.54271 21.4166C7.54271 21.1759 7.34663 20.9807 7.10473 20.9807C6.86284 20.9807 6.66675 21.1759 6.66675 21.4166C6.66675 21.6573 6.86284 21.8524 7.10473 21.8524Z" fill="#E1147B"/>
  <path d="M18.0981 27.1701C18.0981 27.4108 17.902 27.606 17.6601 27.606C17.4182 27.606 17.2221 27.4108 17.2221 27.1701C17.2221 26.9294 17.4182 26.7342 17.6601 26.7342C17.902 26.7342 18.0981 26.9294 18.0981 27.1701Z" fill="#E1147B"/>
  <path d="M13.1927 29.5238C13.4346 29.5238 13.6307 29.3287 13.6307 29.0879C13.6307 28.8472 13.4346 28.6521 13.1927 28.6521C12.9508 28.6521 12.7547 28.8472 12.7547 29.0879C12.7547 29.3287 12.9508 29.5238 13.1927 29.5238Z" fill="#E1147B"/>
  <path d="M10.8276 23.3344C10.8276 23.5751 10.6315 23.7703 10.3896 23.7703C10.1477 23.7703 9.95162 23.5751 9.95162 23.3344C9.95162 23.0937 10.1477 22.8985 10.3896 22.8985C10.6315 22.8985 10.8276 23.0937 10.8276 23.3344Z" fill="#E1147B"/>
  <path d="M7.9369 25.6881C8.1788 25.6881 8.37488 25.493 8.37488 25.2523C8.37488 25.0115 8.1788 24.8164 7.9369 24.8164C7.695 24.8164 7.49892 25.0115 7.49892 25.2523C7.49892 25.493 7.695 25.6881 7.9369 25.6881Z" fill="#E1147B"/>
  <path d="M26.4559 14.7813C26.8081 15.6275 26.9893 16.5343 26.9893 17.4502C26.9893 17.6427 26.8325 17.7989 26.639 17.7989H13.3243C13.1308 17.7989 12.9739 17.6427 12.9739 17.4502C12.9739 16.5343 13.1551 15.6275 13.5073 14.7813C13.8595 13.9352 14.3757 13.1664 15.0264 12.5188C15.6771 11.8712 16.4497 11.3575 17.2999 11.0071C18.1501 10.6566 19.0613 10.4762 19.9816 10.4762C20.9019 10.4762 21.8131 10.6566 22.6634 11.0071C23.5136 11.3575 24.2861 11.8712 24.9368 12.5188C25.5876 13.1664 26.1037 13.9352 26.4559 14.7813Z" fill="#53CBC7"/>
</svg>
