<svg width="120" height="121" viewBox="0 0 120 121" fill="none" xmlns="http://www.w3.org/2000/svg">
<rect x="11" y="20.5" width="48" height="48" rx="24" fill="white" fill-opacity="0.1"/>
<g clip-path="url(#clip0_341_57755)">
<path d="M43 48.4799C43.0007 47.6803 42.6378 46.9131 41.9909 46.3467C41.344 45.7803 40.4661 45.4611 39.5497 45.459L35.7242 45.459C35.7001 45.1479 35.685 44.8298 35.685 44.5C35.685 44.1702 35.6698 43.8537 35.6484 43.541L39.5497 43.541C40.4581 43.5283 41.3244 43.2045 41.9616 42.6394C42.5989 42.0743 42.956 41.3133 42.956 40.5205C42.956 39.7277 42.5989 38.9667 41.9616 38.4016C41.3244 37.8365 40.4581 37.5127 39.5497 37.5L30.4066 37.5C29.4982 37.5127 28.6319 37.8365 27.9947 38.4016C27.3574 38.9667 27.0003 39.7277 27.0003 40.5205C27.0003 41.3133 27.3574 42.0743 27.9947 42.6394C28.6319 43.2045 29.4982 43.5283 30.4066 43.541L34 43.625C34.25 43.625 34.2713 44.1702 34.2713 44.5C34.2713 44.8298 34.2865 45.1463 34.3079 45.459L30.4066 45.459C29.4982 45.4717 28.6319 45.7955 27.9947 46.3606C27.3574 46.9257 27.0003 47.6867 27.0003 48.4795C27.0003 49.2723 27.3574 50.0333 27.9947 50.5984C28.6319 51.1635 29.4982 51.4873 30.4066 51.5L39.5497 51.5C40.4659 51.4979 41.3438 51.1788 41.9906 50.6126C42.6375 50.0464 43.0005 49.2794 43 48.4799ZM41.5864 40.5201C41.5866 40.992 41.3723 41.4447 40.9905 41.779C40.6087 42.1132 40.0905 42.3015 39.5497 42.3028L35.4987 42.3028C35.3519 41.4191 35.0723 40.5561 34.6671 39.7361C34.4884 39.3808 34.2597 39.0464 33.9861 38.7406L39.5497 38.7406C40.0899 38.7418 40.6075 38.9297 40.9892 39.2633C41.371 39.5968 41.5857 40.0487 41.5864 40.5201ZM30.4066 42.3028C29.8648 42.3028 29.3452 42.115 28.9621 41.7806C28.5789 41.4463 28.3637 40.9929 28.3637 40.5201C28.3637 40.0473 28.5789 39.5939 28.9621 39.2596C29.3452 38.9253 29.8648 38.7374 30.4066 38.7374L31.3238 38.7374C32.134 38.7374 32.9014 39.2974 33.3791 40.2362C33.7062 40.8977 33.9388 41.5918 34.0717 42.3028L30.4066 42.3028ZM28.3699 48.4799C28.3697 48.008 28.584 47.5553 28.9658 47.221C29.3476 46.8868 29.8658 46.6985 30.4066 46.6972L34.4576 46.6972C34.6044 47.5809 34.884 48.4439 35.2892 49.2639C35.4679 49.6192 35.6967 49.9536 35.9702 50.2594L30.4066 50.2594C29.8664 50.2582 29.3488 50.0703 28.9671 49.7367C28.5854 49.4032 28.3707 48.9513 28.3699 48.4799ZM36.5825 48.7638C36.2555 48.1023 36.0229 47.4082 35.89 46.6972L39.5497 46.6972C40.0915 46.6972 40.6111 46.885 40.9943 47.2194C41.3774 47.5537 41.5926 48.0071 41.5926 48.4799C41.5926 48.9527 41.3774 49.4061 40.9943 49.7404C40.6111 50.0747 40.0915 50.2626 39.5497 50.2626L38.6326 50.2626C37.8259 50.2626 37.0585 49.7026 36.5825 48.7638Z" fill="url(#paint0_linear_341_57755)" fill-opacity="0.4"/>
<path opacity="0.8" d="M43 40.5201C43.0007 41.3197 42.6378 42.0869 41.9909 42.6533C41.344 43.2197 40.466 43.5389 39.5497 43.541L35.7241 43.541C35.7 43.8521 35.6848 44.1702 35.6848 44.5C35.6848 44.8298 35.6697 45.1463 35.6483 45.459L39.5497 45.459C40.4581 45.4717 41.3244 45.7955 41.9616 46.3606C42.5989 46.9257 42.956 47.6867 42.956 48.4795C42.956 49.2723 42.5989 50.0333 41.9616 50.5984C41.3244 51.1635 40.4581 51.4873 39.5497 51.5L30.4064 51.5C29.498 51.4873 28.6317 51.1635 27.9944 50.5984C27.3572 50.0333 27 49.2723 27 48.4795C27 47.6867 27.3572 46.9257 27.9944 46.3606C28.6317 45.7955 29.498 45.4717 30.4064 45.459L33.9998 45.375C34.2498 45.375 34.2712 44.8298 34.2712 44.5C34.2712 44.1702 34.2863 43.8537 34.3077 43.541L30.4064 43.541C29.498 43.5283 28.6317 43.2045 27.9944 42.6394C27.3572 42.0743 27 41.3133 27 40.5205C27 39.7277 27.3572 38.9667 27.9944 38.4016C28.6317 37.8365 29.498 37.5127 30.4064 37.5L39.5497 37.5C40.4659 37.5021 41.3437 37.8212 41.9906 38.3874C42.6375 38.9536 43.0005 39.7206 43 40.5201ZM41.5863 48.4799C41.5866 48.008 41.3723 47.5553 40.9905 47.221C40.6086 46.8868 40.0905 46.6985 39.5497 46.6972L35.4986 46.6972C35.3518 47.5809 35.0722 48.4439 34.6669 49.2639C34.4883 49.6192 34.2595 49.9536 33.986 50.2594L39.5497 50.2594C40.0898 50.2582 40.6075 50.0703 40.9892 49.7367C41.3709 49.4032 41.5856 48.9513 41.5863 48.4799ZM30.4064 46.6972C29.8646 46.6972 29.3449 46.885 28.9618 47.2194C28.5787 47.5537 28.3635 48.0071 28.3635 48.4799C28.3635 48.9527 28.5787 49.4061 28.9618 49.7404C29.3449 50.0747 29.8646 50.2626 30.4064 50.2626L31.3236 50.2626C32.1338 50.2626 32.9012 49.7026 33.379 48.7638C33.706 48.1023 33.9386 47.4082 34.0715 46.6972L30.4064 46.6972ZM28.3697 40.5201C28.3695 40.992 28.5838 41.4447 28.9656 41.779C29.3474 42.1132 29.8656 42.3015 30.4064 42.3028L34.4575 42.3028C34.6042 41.4191 34.8838 40.5561 35.2891 39.7361C35.4678 39.3808 35.6965 39.0464 35.9701 38.7406L30.4064 38.7406C29.8662 38.7418 29.3486 38.9297 28.9668 39.2633C28.5851 39.5968 28.3704 40.0487 28.3697 40.5201ZM36.5824 40.2362C36.2554 40.8977 36.0228 41.5918 35.8899 42.3028L39.5497 42.3028C40.0915 42.3028 40.6111 42.115 40.9942 41.7806C41.3774 41.4463 41.5926 40.9929 41.5926 40.5201C41.5926 40.0473 41.3774 39.5939 40.9942 39.2596C40.6111 38.9253 40.0915 38.7374 39.5497 38.7374L38.6325 38.7374C37.8258 38.7374 37.0584 39.2974 36.5824 40.2362Z" fill="url(#paint1_linear_341_57755)" fill-opacity="0.4"/>
</g>
<rect x="61" y="20.5" width="48" height="48" rx="24" fill="white" fill-opacity="0.1"/>
<g clip-path="url(#clip1_341_57755)">
<path d="M93 48.4799C93.0007 47.6803 92.6378 46.9131 91.9909 46.3467C91.344 45.7803 90.4661 45.4611 89.5497 45.459L85.7242 45.459C85.7001 45.1479 85.685 44.8298 85.685 44.5C85.685 44.1702 85.6698 43.8537 85.6484 43.541L89.5497 43.541C90.4581 43.5283 91.3244 43.2045 91.9616 42.6394C92.5989 42.0743 92.956 41.3133 92.956 40.5205C92.956 39.7277 92.5989 38.9667 91.9616 38.4016C91.3244 37.8365 90.4581 37.5127 89.5497 37.5L80.4066 37.5C79.4982 37.5127 78.6319 37.8365 77.9947 38.4016C77.3574 38.9667 77.0003 39.7277 77.0003 40.5205C77.0003 41.3133 77.3574 42.0743 77.9947 42.6394C78.6319 43.2045 79.4982 43.5283 80.4066 43.541L84 43.625C84.25 43.625 84.2713 44.1702 84.2713 44.5C84.2713 44.8298 84.2865 45.1463 84.3079 45.459L80.4066 45.459C79.4982 45.4717 78.6319 45.7955 77.9947 46.3606C77.3574 46.9257 77.0003 47.6867 77.0003 48.4795C77.0003 49.2723 77.3574 50.0333 77.9947 50.5984C78.6319 51.1635 79.4982 51.4873 80.4066 51.5L89.5497 51.5C90.4659 51.4979 91.3438 51.1788 91.9906 50.6126C92.6375 50.0464 93.0005 49.2794 93 48.4799ZM91.5864 40.5201C91.5866 40.992 91.3723 41.4447 90.9905 41.779C90.6087 42.1132 90.0905 42.3015 89.5497 42.3028L85.4987 42.3028C85.3519 41.4191 85.0723 40.5561 84.6671 39.7361C84.4884 39.3808 84.2597 39.0464 83.9861 38.7406L89.5497 38.7406C90.0899 38.7418 90.6075 38.9297 90.9892 39.2633C91.371 39.5968 91.5857 40.0487 91.5864 40.5201ZM80.4066 42.3028C79.8648 42.3028 79.3452 42.115 78.9621 41.7806C78.5789 41.4463 78.3637 40.9929 78.3637 40.5201C78.3637 40.0473 78.5789 39.5939 78.9621 39.2596C79.3452 38.9253 79.8648 38.7374 80.4066 38.7374L81.3238 38.7374C82.134 38.7374 82.9014 39.2974 83.3791 40.2362C83.7062 40.8977 83.9388 41.5918 84.0717 42.3028L80.4066 42.3028ZM78.3699 48.4799C78.3697 48.008 78.584 47.5553 78.9658 47.221C79.3476 46.8868 79.8658 46.6985 80.4066 46.6972L84.4576 46.6972C84.6044 47.5809 84.884 48.4439 85.2892 49.2639C85.4679 49.6192 85.6967 49.9536 85.9702 50.2594L80.4066 50.2594C79.8664 50.2582 79.3488 50.0703 78.9671 49.7367C78.5854 49.4032 78.3707 48.9513 78.3699 48.4799ZM86.5825 48.7638C86.2555 48.1023 86.0229 47.4082 85.89 46.6972L89.5497 46.6972C90.0915 46.6972 90.6111 46.885 90.9943 47.2194C91.3774 47.5537 91.5926 48.0071 91.5926 48.4799C91.5926 48.9527 91.3774 49.4061 90.9943 49.7404C90.6111 50.0747 90.0915 50.2626 89.5497 50.2626L88.6326 50.2626C87.8259 50.2626 87.0585 49.7026 86.5825 48.7638Z" fill="url(#paint2_linear_341_57755)" fill-opacity="0.4"/>
<path opacity="0.8" d="M93 40.5201C93.0007 41.3197 92.6378 42.0869 91.9909 42.6533C91.344 43.2197 90.466 43.5389 89.5497 43.541L85.7241 43.541C85.7 43.8521 85.6848 44.1702 85.6848 44.5C85.6848 44.8298 85.6697 45.1463 85.6483 45.459L89.5497 45.459C90.4581 45.4717 91.3244 45.7955 91.9616 46.3606C92.5989 46.9257 92.956 47.6867 92.956 48.4795C92.956 49.2723 92.5989 50.0333 91.9616 50.5984C91.3244 51.1635 90.4581 51.4873 89.5497 51.5L80.4064 51.5C79.498 51.4873 78.6317 51.1635 77.9944 50.5984C77.3572 50.0333 77 49.2723 77 48.4795C77 47.6867 77.3572 46.9257 77.9944 46.3606C78.6317 45.7955 79.498 45.4717 80.4064 45.459L83.9998 45.375C84.2498 45.375 84.2712 44.8298 84.2712 44.5C84.2712 44.1702 84.2863 43.8537 84.3077 43.541L80.4064 43.541C79.498 43.5283 78.6317 43.2045 77.9944 42.6394C77.3572 42.0743 77 41.3133 77 40.5205C77 39.7277 77.3572 38.9667 77.9944 38.4016C78.6317 37.8365 79.498 37.5127 80.4064 37.5L89.5497 37.5C90.4659 37.5021 91.3437 37.8212 91.9906 38.3874C92.6375 38.9536 93.0005 39.7206 93 40.5201ZM91.5863 48.4799C91.5866 48.008 91.3723 47.5553 90.9905 47.221C90.6086 46.8868 90.0905 46.6985 89.5497 46.6972L85.4986 46.6972C85.3518 47.5809 85.0722 48.4439 84.6669 49.2639C84.4883 49.6192 84.2595 49.9536 83.986 50.2594L89.5497 50.2594C90.0898 50.2582 90.6075 50.0703 90.9892 49.7367C91.3709 49.4032 91.5856 48.9513 91.5863 48.4799ZM80.4064 46.6972C79.8646 46.6972 79.3449 46.885 78.9618 47.2194C78.5787 47.5537 78.3635 48.0071 78.3635 48.4799C78.3635 48.9527 78.5787 49.4061 78.9618 49.7404C79.3449 50.0747 79.8646 50.2626 80.4064 50.2626L81.3236 50.2626C82.1338 50.2626 82.9012 49.7026 83.379 48.7638C83.706 48.1023 83.9386 47.4082 84.0715 46.6972L80.4064 46.6972ZM78.3697 40.5201C78.3695 40.992 78.5838 41.4447 78.9656 41.779C79.3474 42.1132 79.8656 42.3015 80.4064 42.3028L84.4575 42.3028C84.6042 41.4191 84.8838 40.5561 85.2891 39.7361C85.4678 39.3808 85.6965 39.0464 85.9701 38.7406L80.4064 38.7406C79.8662 38.7418 79.3486 38.9297 78.9668 39.2633C78.5851 39.5968 78.3704 40.0487 78.3697 40.5201ZM86.5824 40.2362C86.2554 40.8977 86.0228 41.5918 85.8899 42.3028L89.5497 42.3028C90.0915 42.3028 90.6111 42.115 90.9942 41.7806C91.3774 41.4463 91.5926 40.9929 91.5926 40.5201C91.5926 40.0473 91.3774 39.5939 90.9942 39.2596C90.6111 38.9253 90.0915 38.7374 89.5497 38.7374L88.6325 38.7374C87.8258 38.7374 87.0584 39.2974 86.5824 40.2362Z" fill="url(#paint3_linear_341_57755)" fill-opacity="0.4"/>
</g>
<rect x="36" y="64.5" width="48" height="48" rx="24" fill="white" fill-opacity="0.1"/>
<g clip-path="url(#clip2_341_57755)">
<path d="M68 92.4799C68.0007 91.6803 67.6378 90.9131 66.9909 90.3467C66.344 89.7803 65.4661 89.4611 64.5497 89.459L60.7242 89.459C60.7001 89.1479 60.685 88.8298 60.685 88.5C60.685 88.1702 60.6698 87.8537 60.6484 87.541L64.5497 87.541C65.4581 87.5283 66.3244 87.2045 66.9616 86.6394C67.5989 86.0743 67.956 85.3133 67.956 84.5205C67.956 83.7277 67.5989 82.9667 66.9616 82.4016C66.3244 81.8365 65.4581 81.5127 64.5497 81.5L55.4066 81.5C54.4982 81.5127 53.6319 81.8365 52.9947 82.4016C52.3574 82.9667 52.0003 83.7277 52.0003 84.5205C52.0003 85.3133 52.3574 86.0743 52.9947 86.6394C53.6319 87.2045 54.4982 87.5283 55.4066 87.541L59 87.625C59.25 87.625 59.2713 88.1702 59.2713 88.5C59.2713 88.8298 59.2865 89.1463 59.3079 89.459L55.4066 89.459C54.4982 89.4717 53.6319 89.7955 52.9947 90.3606C52.3574 90.9257 52.0003 91.6867 52.0003 92.4795C52.0003 93.2723 52.3574 94.0333 52.9947 94.5984C53.6319 95.1635 54.4982 95.4873 55.4066 95.5L64.5497 95.5C65.4659 95.4979 66.3438 95.1788 66.9906 94.6126C67.6375 94.0464 68.0005 93.2794 68 92.4799ZM66.5864 84.5201C66.5866 84.992 66.3723 85.4447 65.9905 85.779C65.6087 86.1132 65.0905 86.3015 64.5497 86.3028L60.4987 86.3028C60.3519 85.4191 60.0723 84.5561 59.6671 83.7361C59.4884 83.3808 59.2597 83.0464 58.9861 82.7406L64.5497 82.7406C65.0899 82.7418 65.6075 82.9297 65.9892 83.2633C66.371 83.5968 66.5857 84.0487 66.5864 84.5201ZM55.4066 86.3028C54.8648 86.3028 54.3452 86.115 53.9621 85.7806C53.5789 85.4463 53.3637 84.9929 53.3637 84.5201C53.3637 84.0473 53.5789 83.5939 53.9621 83.2596C54.3452 82.9253 54.8648 82.7374 55.4066 82.7374L56.3238 82.7374C57.134 82.7374 57.9014 83.2974 58.3791 84.2362C58.7062 84.8977 58.9388 85.5918 59.0717 86.3028L55.4066 86.3028ZM53.3699 92.4799C53.3697 92.008 53.584 91.5553 53.9658 91.221C54.3476 90.8868 54.8658 90.6985 55.4066 90.6972L59.4576 90.6972C59.6044 91.5809 59.884 92.4439 60.2892 93.2639C60.4679 93.6192 60.6967 93.9536 60.9702 94.2594L55.4066 94.2594C54.8664 94.2582 54.3488 94.0703 53.9671 93.7367C53.5854 93.4032 53.3707 92.9513 53.3699 92.4799ZM61.5825 92.7638C61.2555 92.1023 61.0229 91.4082 60.89 90.6972L64.5497 90.6972C65.0915 90.6972 65.6111 90.885 65.9943 91.2194C66.3774 91.5537 66.5926 92.0071 66.5926 92.4799C66.5926 92.9527 66.3774 93.4061 65.9943 93.7404C65.6111 94.0747 65.0915 94.2626 64.5497 94.2626L63.6326 94.2626C62.8259 94.2626 62.0585 93.7026 61.5825 92.7638Z" fill="url(#paint4_linear_341_57755)" fill-opacity="0.4"/>
<path opacity="0.8" d="M68 84.5201C68.0007 85.3197 67.6378 86.0869 66.9909 86.6533C66.344 87.2197 65.466 87.5389 64.5497 87.541L60.7241 87.541C60.7 87.8521 60.6848 88.1702 60.6848 88.5C60.6848 88.8298 60.6697 89.1463 60.6483 89.459L64.5497 89.459C65.4581 89.4717 66.3244 89.7955 66.9616 90.3606C67.5989 90.9257 67.956 91.6867 67.956 92.4795C67.956 93.2723 67.5989 94.0333 66.9616 94.5984C66.3244 95.1635 65.4581 95.4873 64.5497 95.5L55.4064 95.5C54.498 95.4873 53.6317 95.1635 52.9944 94.5984C52.3572 94.0333 52 93.2723 52 92.4795C52 91.6867 52.3572 90.9257 52.9944 90.3606C53.6317 89.7955 54.498 89.4717 55.4064 89.459L58.9998 89.375C59.2498 89.375 59.2712 88.8298 59.2712 88.5C59.2712 88.1702 59.2863 87.8537 59.3077 87.541L55.4064 87.541C54.498 87.5283 53.6317 87.2045 52.9944 86.6394C52.3572 86.0743 52 85.3133 52 84.5205C52 83.7277 52.3572 82.9667 52.9944 82.4016C53.6317 81.8365 54.498 81.5127 55.4064 81.5L64.5497 81.5C65.4659 81.5021 66.3437 81.8212 66.9906 82.3874C67.6375 82.9536 68.0005 83.7206 68 84.5201ZM66.5863 92.4799C66.5866 92.008 66.3723 91.5553 65.9905 91.221C65.6086 90.8868 65.0905 90.6985 64.5497 90.6972L60.4986 90.6972C60.3518 91.5809 60.0722 92.4439 59.6669 93.2639C59.4883 93.6192 59.2595 93.9536 58.986 94.2594L64.5497 94.2594C65.0898 94.2582 65.6075 94.0703 65.9892 93.7367C66.3709 93.4032 66.5856 92.9513 66.5863 92.4799ZM55.4064 90.6972C54.8646 90.6972 54.3449 90.885 53.9618 91.2194C53.5787 91.5537 53.3635 92.0071 53.3635 92.4799C53.3635 92.9527 53.5787 93.4061 53.9618 93.7404C54.3449 94.0747 54.8646 94.2626 55.4064 94.2626L56.3236 94.2626C57.1338 94.2626 57.9012 93.7026 58.379 92.7638C58.706 92.1023 58.9386 91.4082 59.0715 90.6972L55.4064 90.6972ZM53.3697 84.5201C53.3695 84.992 53.5838 85.4447 53.9656 85.779C54.3474 86.1132 54.8656 86.3015 55.4064 86.3028L59.4575 86.3028C59.6042 85.4191 59.8838 84.5561 60.2891 83.7361C60.4678 83.3808 60.6965 83.0464 60.9701 82.7406L55.4064 82.7406C54.8662 82.7418 54.3486 82.9297 53.9668 83.2633C53.5851 83.5968 53.3704 84.0487 53.3697 84.5201ZM61.5824 84.2362C61.2554 84.8977 61.0228 85.5918 60.8899 86.3028L64.5497 86.3028C65.0915 86.3028 65.6111 86.115 65.9942 85.7806C66.3774 85.4463 66.5926 84.9929 66.5926 84.5201C66.5926 84.0473 66.3774 83.5939 65.9942 83.2596C65.6111 82.9253 65.0915 82.7374 64.5497 82.7374L63.6325 82.7374C62.8258 82.7374 62.0584 83.2974 61.5824 84.2362Z" fill="url(#paint5_linear_341_57755)" fill-opacity="0.4"/>
</g>
<defs>
<linearGradient id="paint0_linear_341_57755" x1="28.1923" y1="38.3867" x2="40.2645" y2="52.1835" gradientUnits="userSpaceOnUse">
<stop stop-color="white"/>
<stop offset="1" stop-color="white"/>
</linearGradient>
<linearGradient id="paint1_linear_341_57755" x1="28.192" y1="50.6133" x2="40.2642" y2="36.8163" gradientUnits="userSpaceOnUse">
<stop stop-color="white"/>
<stop offset="1" stop-color="white"/>
</linearGradient>
<linearGradient id="paint2_linear_341_57755" x1="78.1923" y1="38.3867" x2="90.2645" y2="52.1835" gradientUnits="userSpaceOnUse">
<stop stop-color="white"/>
<stop offset="1" stop-color="white"/>
</linearGradient>
<linearGradient id="paint3_linear_341_57755" x1="78.192" y1="50.6133" x2="90.2642" y2="36.8163" gradientUnits="userSpaceOnUse">
<stop stop-color="white"/>
<stop offset="1" stop-color="white"/>
</linearGradient>
<linearGradient id="paint4_linear_341_57755" x1="53.1923" y1="82.3867" x2="65.2645" y2="96.1835" gradientUnits="userSpaceOnUse">
<stop stop-color="white"/>
<stop offset="1" stop-color="white"/>
</linearGradient>
<linearGradient id="paint5_linear_341_57755" x1="53.192" y1="94.6133" x2="65.2642" y2="80.8163" gradientUnits="userSpaceOnUse">
<stop stop-color="white"/>
<stop offset="1" stop-color="white"/>
</linearGradient>
<clipPath id="clip0_341_57755">
<rect width="14" height="16" fill="white" transform="translate(43 37.5) rotate(90)"/>
</clipPath>
<clipPath id="clip1_341_57755">
<rect width="14" height="16" fill="white" transform="translate(93 37.5) rotate(90)"/>
</clipPath>
<clipPath id="clip2_341_57755">
<rect width="14" height="16" fill="white" transform="translate(68 81.5) rotate(90)"/>
</clipPath>
</defs>
</svg>
