<svg width="120" height="121" viewBox="0 0 120 121" fill="none"
  xmlns="http://www.w3.org/2000/svg">
  <rect y="0.5" width="120" height="120" rx="60" fill="white" fill-opacity="0.1" />
  <g clip-path="url(#clip0_341_57760)">
    <path d="M52 50.4799C52.0007 49.6803 51.6378 48.9131 50.9909 48.3467C50.344 47.7803 49.4661 47.4611 48.5497 47.459L44.7242 47.459C44.7001 47.1479 44.685 46.8298 44.685 46.5C44.685 46.1702 44.6698 45.8537 44.6484 45.541L48.5497 45.541C49.4581 45.5283 50.3244 45.2045 50.9616 44.6394C51.5989 44.0743 51.956 43.3133 51.956 42.5205C51.956 41.7277 51.5989 40.9667 50.9616 40.4016C50.3244 39.8365 49.4581 39.5127 48.5497 39.5L39.4066 39.5C38.4982 39.5127 37.6319 39.8365 36.9947 40.4016C36.3574 40.9667 36.0003 41.7277 36.0003 42.5205C36.0003 43.3133 36.3574 44.0743 36.9947 44.6394C37.6319 45.2045 38.4982 45.5283 39.4066 45.541L43 45.625C43.25 45.625 43.2713 46.1702 43.2713 46.5C43.2713 46.8298 43.2865 47.1463 43.3079 47.459L39.4066 47.459C38.4982 47.4717 37.6319 47.7955 36.9947 48.3606C36.3574 48.9257 36.0003 49.6867 36.0003 50.4795C36.0003 51.2723 36.3574 52.0333 36.9947 52.5984C37.6319 53.1635 38.4982 53.4873 39.4066 53.5L48.5497 53.5C49.4659 53.4979 50.3438 53.1788 50.9906 52.6126C51.6375 52.0464 52.0005 51.2794 52 50.4799ZM50.5864 42.5201C50.5866 42.992 50.3723 43.4447 49.9905 43.779C49.6087 44.1132 49.0905 44.3015 48.5497 44.3028L44.4987 44.3028C44.3519 43.4191 44.0723 42.5561 43.6671 41.7361C43.4884 41.3808 43.2597 41.0464 42.9861 40.7406L48.5497 40.7406C49.0899 40.7418 49.6075 40.9297 49.9892 41.2633C50.371 41.5968 50.5857 42.0487 50.5864 42.5201ZM39.4066 44.3028C38.8648 44.3028 38.3452 44.115 37.9621 43.7806C37.5789 43.4463 37.3637 42.9929 37.3637 42.5201C37.3637 42.0473 37.5789 41.5939 37.9621 41.2596C38.3452 40.9253 38.8648 40.7374 39.4066 40.7374L40.3238 40.7374C41.134 40.7374 41.9014 41.2974 42.3791 42.2362C42.7062 42.8977 42.9388 43.5918 43.0717 44.3028L39.4066 44.3028ZM37.3699 50.4799C37.3697 50.008 37.584 49.5553 37.9658 49.221C38.3476 48.8868 38.8658 48.6985 39.4066 48.6972L43.4576 48.6972C43.6044 49.5809 43.884 50.4439 44.2892 51.2639C44.4679 51.6192 44.6967 51.9536 44.9702 52.2594L39.4066 52.2594C38.8664 52.2582 38.3488 52.0703 37.9671 51.7367C37.5854 51.4032 37.3707 50.9513 37.3699 50.4799ZM45.5825 50.7638C45.2555 50.1023 45.0229 49.4082 44.89 48.6972L48.5497 48.6972C49.0915 48.6972 49.6111 48.885 49.9943 49.2194C50.3774 49.5537 50.5926 50.0071 50.5926 50.4799C50.5926 50.9527 50.3774 51.4061 49.9943 51.7404C49.6111 52.0747 49.0915 52.2626 48.5497 52.2626L47.6326 52.2626C46.8259 52.2626 46.0585 51.7026 45.5825 50.7638Z" fill="url(#paint0_linear_341_57760)" fill-opacity="0.4" />
    <path opacity="0.8" d="M52 42.5201C52.0007 43.3197 51.6378 44.0869 50.9909 44.6533C50.344 45.2197 49.466 45.5389 48.5497 45.541L44.7241 45.541C44.7 45.8521 44.6848 46.1702 44.6848 46.5C44.6848 46.8298 44.6697 47.1463 44.6483 47.459L48.5497 47.459C49.4581 47.4717 50.3244 47.7955 50.9616 48.3606C51.5989 48.9257 51.956 49.6867 51.956 50.4795C51.956 51.2723 51.5989 52.0333 50.9616 52.5984C50.3244 53.1635 49.4581 53.4873 48.5497 53.5L39.4064 53.5C38.498 53.4873 37.6317 53.1635 36.9944 52.5984C36.3572 52.0333 36 51.2723 36 50.4795C36 49.6867 36.3572 48.9257 36.9944 48.3606C37.6317 47.7955 38.498 47.4717 39.4064 47.459L42.9998 47.375C43.2498 47.375 43.2712 46.8298 43.2712 46.5C43.2712 46.1702 43.2863 45.8537 43.3077 45.541L39.4064 45.541C38.498 45.5283 37.6317 45.2045 36.9944 44.6394C36.3572 44.0743 36 43.3133 36 42.5205C36 41.7277 36.3572 40.9667 36.9944 40.4016C37.6317 39.8365 38.498 39.5127 39.4064 39.5L48.5497 39.5C49.4659 39.5021 50.3437 39.8212 50.9906 40.3874C51.6375 40.9536 52.0005 41.7206 52 42.5201ZM50.5863 50.4799C50.5866 50.008 50.3723 49.5553 49.9905 49.221C49.6086 48.8868 49.0905 48.6985 48.5497 48.6972L44.4986 48.6972C44.3518 49.5809 44.0722 50.4439 43.6669 51.2639C43.4883 51.6192 43.2595 51.9536 42.986 52.2594L48.5497 52.2594C49.0898 52.2582 49.6075 52.0703 49.9892 51.7367C50.3709 51.4032 50.5856 50.9513 50.5863 50.4799ZM39.4064 48.6972C38.8646 48.6972 38.3449 48.885 37.9618 49.2194C37.5787 49.5537 37.3635 50.0071 37.3635 50.4799C37.3635 50.9527 37.5787 51.4061 37.9618 51.7404C38.3449 52.0747 38.8646 52.2626 39.4064 52.2626L40.3236 52.2626C41.1338 52.2626 41.9012 51.7026 42.379 50.7638C42.706 50.1023 42.9386 49.4082 43.0715 48.6972L39.4064 48.6972ZM37.3697 42.5201C37.3695 42.992 37.5838 43.4447 37.9656 43.779C38.3474 44.1132 38.8656 44.3015 39.4064 44.3028L43.4575 44.3028C43.6042 43.4191 43.8838 42.5561 44.2891 41.7361C44.4678 41.3808 44.6965 41.0464 44.9701 40.7406L39.4064 40.7406C38.8662 40.7418 38.3486 40.9297 37.9668 41.2633C37.5851 41.5968 37.3704 42.0487 37.3697 42.5201ZM45.5824 42.2362C45.2554 42.8977 45.0228 43.5918 44.8899 44.3028L48.5497 44.3028C49.0915 44.3028 49.6111 44.115 49.9942 43.7806C50.3774 43.4463 50.5926 42.9929 50.5926 42.5201C50.5926 42.0473 50.3774 41.5939 49.9942 41.2596C49.6111 40.9253 49.0915 40.7374 48.5497 40.7374L47.6325 40.7374C46.8258 40.7374 46.0584 41.2974 45.5824 42.2362Z" fill="url(#paint1_linear_341_57760)" fill-opacity="0.4" />
  </g>
  <g clip-path="url(#clip1_341_57760)">
    <path d="M84 50.4799C84.0007 49.6803 83.6378 48.9131 82.9909 48.3467C82.344 47.7803 81.4661 47.4611 80.5497 47.459L76.7242 47.459C76.7001 47.1479 76.685 46.8298 76.685 46.5C76.685 46.1702 76.6698 45.8537 76.6484 45.541L80.5497 45.541C81.4581 45.5283 82.3244 45.2045 82.9616 44.6394C83.5989 44.0743 83.956 43.3133 83.956 42.5205C83.956 41.7277 83.5989 40.9667 82.9616 40.4016C82.3244 39.8365 81.4581 39.5127 80.5497 39.5L71.4066 39.5C70.4982 39.5127 69.6319 39.8365 68.9947 40.4016C68.3574 40.9667 68.0003 41.7277 68.0003 42.5205C68.0003 43.3133 68.3574 44.0743 68.9947 44.6394C69.6319 45.2045 70.4982 45.5283 71.4066 45.541L75 45.625C75.25 45.625 75.2713 46.1702 75.2713 46.5C75.2713 46.8298 75.2865 47.1463 75.3079 47.459L71.4066 47.459C70.4982 47.4717 69.6319 47.7955 68.9947 48.3606C68.3574 48.9257 68.0003 49.6867 68.0003 50.4795C68.0003 51.2723 68.3574 52.0333 68.9947 52.5984C69.6319 53.1635 70.4982 53.4873 71.4066 53.5L80.5497 53.5C81.4659 53.4979 82.3438 53.1788 82.9906 52.6126C83.6375 52.0464 84.0005 51.2794 84 50.4799ZM82.5864 42.5201C82.5866 42.992 82.3723 43.4447 81.9905 43.779C81.6087 44.1132 81.0905 44.3015 80.5497 44.3028L76.4987 44.3028C76.3519 43.4191 76.0723 42.5561 75.6671 41.7361C75.4884 41.3808 75.2597 41.0464 74.9861 40.7406L80.5497 40.7406C81.0899 40.7418 81.6075 40.9297 81.9892 41.2633C82.371 41.5968 82.5857 42.0487 82.5864 42.5201ZM71.4066 44.3028C70.8648 44.3028 70.3452 44.115 69.9621 43.7806C69.5789 43.4463 69.3637 42.9929 69.3637 42.5201C69.3637 42.0473 69.5789 41.5939 69.9621 41.2596C70.3452 40.9253 70.8648 40.7374 71.4066 40.7374L72.3238 40.7374C73.134 40.7374 73.9014 41.2974 74.3791 42.2362C74.7062 42.8977 74.9388 43.5918 75.0717 44.3028L71.4066 44.3028ZM69.3699 50.4799C69.3697 50.008 69.584 49.5553 69.9658 49.221C70.3476 48.8868 70.8658 48.6985 71.4066 48.6972L75.4576 48.6972C75.6044 49.5809 75.884 50.4439 76.2892 51.2639C76.4679 51.6192 76.6967 51.9536 76.9702 52.2594L71.4066 52.2594C70.8664 52.2582 70.3488 52.0703 69.9671 51.7367C69.5854 51.4032 69.3707 50.9513 69.3699 50.4799ZM77.5825 50.7638C77.2555 50.1023 77.0229 49.4082 76.89 48.6972L80.5497 48.6972C81.0915 48.6972 81.6111 48.885 81.9943 49.2194C82.3774 49.5537 82.5926 50.0071 82.5926 50.4799C82.5926 50.9527 82.3774 51.4061 81.9943 51.7404C81.6111 52.0747 81.0915 52.2626 80.5497 52.2626L79.6326 52.2626C78.8259 52.2626 78.0585 51.7026 77.5825 50.7638Z" fill="url(#paint2_linear_341_57760)" fill-opacity="0.4" />
    <path opacity="0.8" d="M84 42.5201C84.0007 43.3197 83.6378 44.0869 82.9909 44.6533C82.344 45.2197 81.466 45.5389 80.5497 45.541L76.7241 45.541C76.7 45.8521 76.6848 46.1702 76.6848 46.5C76.6848 46.8298 76.6697 47.1463 76.6483 47.459L80.5497 47.459C81.4581 47.4717 82.3244 47.7955 82.9616 48.3606C83.5989 48.9257 83.956 49.6867 83.956 50.4795C83.956 51.2723 83.5989 52.0333 82.9616 52.5984C82.3244 53.1635 81.4581 53.4873 80.5497 53.5L71.4064 53.5C70.498 53.4873 69.6317 53.1635 68.9944 52.5984C68.3572 52.0333 68 51.2723 68 50.4795C68 49.6867 68.3572 48.9257 68.9944 48.3606C69.6317 47.7955 70.498 47.4717 71.4064 47.459L74.9998 47.375C75.2498 47.375 75.2712 46.8298 75.2712 46.5C75.2712 46.1702 75.2863 45.8537 75.3077 45.541L71.4064 45.541C70.498 45.5283 69.6317 45.2045 68.9944 44.6394C68.3572 44.0743 68 43.3133 68 42.5205C68 41.7277 68.3572 40.9667 68.9944 40.4016C69.6317 39.8365 70.498 39.5127 71.4064 39.5L80.5497 39.5C81.4659 39.5021 82.3437 39.8212 82.9906 40.3874C83.6375 40.9536 84.0005 41.7206 84 42.5201ZM82.5863 50.4799C82.5866 50.008 82.3723 49.5553 81.9905 49.221C81.6086 48.8868 81.0905 48.6985 80.5497 48.6972L76.4986 48.6972C76.3518 49.5809 76.0722 50.4439 75.6669 51.2639C75.4883 51.6192 75.2595 51.9536 74.986 52.2594L80.5497 52.2594C81.0898 52.2582 81.6075 52.0703 81.9892 51.7367C82.3709 51.4032 82.5856 50.9513 82.5863 50.4799ZM71.4064 48.6972C70.8646 48.6972 70.3449 48.885 69.9618 49.2194C69.5787 49.5537 69.3635 50.0071 69.3635 50.4799C69.3635 50.9527 69.5787 51.4061 69.9618 51.7404C70.3449 52.0747 70.8646 52.2626 71.4064 52.2626L72.3236 52.2626C73.1338 52.2626 73.9012 51.7026 74.379 50.7638C74.706 50.1023 74.9386 49.4082 75.0715 48.6972L71.4064 48.6972ZM69.3697 42.5201C69.3695 42.992 69.5838 43.4447 69.9656 43.779C70.3474 44.1132 70.8656 44.3015 71.4064 44.3028L75.4575 44.3028C75.6042 43.4191 75.8838 42.5561 76.2891 41.7361C76.4678 41.3808 76.6965 41.0464 76.9701 40.7406L71.4064 40.7406C70.8662 40.7418 70.3486 40.9297 69.9668 41.2633C69.5851 41.5968 69.3704 42.0487 69.3697 42.5201ZM77.5824 42.2362C77.2554 42.8977 77.0228 43.5918 76.8899 44.3028L80.5497 44.3028C81.0915 44.3028 81.6111 44.115 81.9942 43.7806C82.3774 43.4463 82.5926 42.9929 82.5926 42.5201C82.5926 42.0473 82.3774 41.5939 81.9942 41.2596C81.6111 40.9253 81.0915 40.7374 80.5497 40.7374L79.6325 40.7374C78.8258 40.7374 78.0584 41.2974 77.5824 42.2362Z" fill="url(#paint3_linear_341_57760)" fill-opacity="0.4" />
  </g>
  <g clip-path="url(#clip2_341_57760)">
    <path d="M68 78.4799C68.0007 77.6803 67.6378 76.9131 66.9909 76.3467C66.344 75.7803 65.4661 75.4611 64.5497 75.459L60.7242 75.459C60.7001 75.1479 60.685 74.8298 60.685 74.5C60.685 74.1702 60.6698 73.8537 60.6484 73.541L64.5497 73.541C65.4581 73.5283 66.3244 73.2045 66.9616 72.6394C67.5989 72.0743 67.956 71.3133 67.956 70.5205C67.956 69.7277 67.5989 68.9667 66.9616 68.4016C66.3244 67.8365 65.4581 67.5127 64.5497 67.5L55.4066 67.5C54.4982 67.5127 53.6319 67.8365 52.9947 68.4016C52.3574 68.9667 52.0003 69.7277 52.0003 70.5205C52.0003 71.3133 52.3574 72.0743 52.9947 72.6394C53.6319 73.2045 54.4982 73.5283 55.4066 73.541L59 73.625C59.25 73.625 59.2713 74.1702 59.2713 74.5C59.2713 74.8298 59.2865 75.1463 59.3079 75.459L55.4066 75.459C54.4982 75.4717 53.6319 75.7955 52.9947 76.3606C52.3574 76.9257 52.0003 77.6867 52.0003 78.4795C52.0003 79.2723 52.3574 80.0333 52.9947 80.5984C53.6319 81.1635 54.4982 81.4873 55.4066 81.5L64.5497 81.5C65.4659 81.4979 66.3438 81.1788 66.9906 80.6126C67.6375 80.0464 68.0005 79.2794 68 78.4799ZM66.5864 70.5201C66.5866 70.992 66.3723 71.4447 65.9905 71.779C65.6087 72.1132 65.0905 72.3015 64.5497 72.3028L60.4987 72.3028C60.3519 71.4191 60.0723 70.5561 59.6671 69.7361C59.4884 69.3808 59.2597 69.0464 58.9861 68.7406L64.5497 68.7406C65.0899 68.7418 65.6075 68.9297 65.9892 69.2633C66.371 69.5968 66.5857 70.0487 66.5864 70.5201ZM55.4066 72.3028C54.8648 72.3028 54.3452 72.115 53.9621 71.7806C53.5789 71.4463 53.3637 70.9929 53.3637 70.5201C53.3637 70.0473 53.5789 69.5939 53.9621 69.2596C54.3452 68.9253 54.8648 68.7374 55.4066 68.7374L56.3238 68.7374C57.134 68.7374 57.9014 69.2974 58.3791 70.2362C58.7062 70.8977 58.9388 71.5918 59.0717 72.3028L55.4066 72.3028ZM53.3699 78.4799C53.3697 78.008 53.584 77.5553 53.9658 77.221C54.3476 76.8868 54.8658 76.6985 55.4066 76.6972L59.4576 76.6972C59.6044 77.5809 59.884 78.4439 60.2892 79.2639C60.4679 79.6192 60.6967 79.9536 60.9702 80.2594L55.4066 80.2594C54.8664 80.2582 54.3488 80.0703 53.9671 79.7367C53.5854 79.4032 53.3707 78.9513 53.3699 78.4799ZM61.5825 78.7638C61.2555 78.1023 61.0229 77.4082 60.89 76.6972L64.5497 76.6972C65.0915 76.6972 65.6111 76.885 65.9943 77.2194C66.3774 77.5537 66.5926 78.0071 66.5926 78.4799C66.5926 78.9527 66.3774 79.4061 65.9943 79.7404C65.6111 80.0747 65.0915 80.2626 64.5497 80.2626L63.6326 80.2626C62.8259 80.2626 62.0585 79.7026 61.5825 78.7638Z" fill="url(#paint4_linear_341_57760)" fill-opacity="0.4" />
    <path opacity="0.8" d="M68 70.5201C68.0007 71.3197 67.6378 72.0869 66.9909 72.6533C66.344 73.2197 65.466 73.5389 64.5497 73.541L60.7241 73.541C60.7 73.8521 60.6848 74.1702 60.6848 74.5C60.6848 74.8298 60.6697 75.1463 60.6483 75.459L64.5497 75.459C65.4581 75.4717 66.3244 75.7955 66.9616 76.3606C67.5989 76.9257 67.956 77.6867 67.956 78.4795C67.956 79.2723 67.5989 80.0333 66.9616 80.5984C66.3244 81.1635 65.4581 81.4873 64.5497 81.5L55.4064 81.5C54.498 81.4873 53.6317 81.1635 52.9944 80.5984C52.3572 80.0333 52 79.2723 52 78.4795C52 77.6867 52.3572 76.9257 52.9944 76.3606C53.6317 75.7955 54.498 75.4717 55.4064 75.459L58.9998 75.375C59.2498 75.375 59.2712 74.8298 59.2712 74.5C59.2712 74.1702 59.2863 73.8537 59.3077 73.541L55.4064 73.541C54.498 73.5283 53.6317 73.2045 52.9944 72.6394C52.3572 72.0743 52 71.3133 52 70.5205C52 69.7277 52.3572 68.9667 52.9944 68.4016C53.6317 67.8365 54.498 67.5127 55.4064 67.5L64.5497 67.5C65.4659 67.5021 66.3437 67.8212 66.9906 68.3874C67.6375 68.9536 68.0005 69.7206 68 70.5201ZM66.5863 78.4799C66.5866 78.008 66.3723 77.5553 65.9905 77.221C65.6086 76.8868 65.0905 76.6985 64.5497 76.6972L60.4986 76.6972C60.3518 77.5809 60.0722 78.4439 59.6669 79.2639C59.4883 79.6192 59.2595 79.9536 58.986 80.2594L64.5497 80.2594C65.0898 80.2582 65.6075 80.0703 65.9892 79.7367C66.3709 79.4032 66.5856 78.9513 66.5863 78.4799ZM55.4064 76.6972C54.8646 76.6972 54.3449 76.885 53.9618 77.2194C53.5787 77.5537 53.3635 78.0071 53.3635 78.4799C53.3635 78.9527 53.5787 79.4061 53.9618 79.7404C54.3449 80.0747 54.8646 80.2626 55.4064 80.2626L56.3236 80.2626C57.1338 80.2626 57.9012 79.7026 58.379 78.7638C58.706 78.1023 58.9386 77.4082 59.0715 76.6972L55.4064 76.6972ZM53.3697 70.5201C53.3695 70.992 53.5838 71.4447 53.9656 71.779C54.3474 72.1132 54.8656 72.3015 55.4064 72.3028L59.4575 72.3028C59.6042 71.4191 59.8838 70.5561 60.2891 69.7361C60.4678 69.3808 60.6965 69.0464 60.9701 68.7406L55.4064 68.7406C54.8662 68.7418 54.3486 68.9297 53.9668 69.2633C53.5851 69.5968 53.3704 70.0487 53.3697 70.5201ZM61.5824 70.2362C61.2554 70.8977 61.0228 71.5918 60.8899 72.3028L64.5497 72.3028C65.0915 72.3028 65.6111 72.115 65.9942 71.7806C66.3774 71.4463 66.5926 70.9929 66.5926 70.5201C66.5926 70.0473 66.3774 69.5939 65.9942 69.2596C65.6111 68.9253 65.0915 68.7374 64.5497 68.7374L63.6325 68.7374C62.8258 68.7374 62.0584 69.2974 61.5824 70.2362Z" fill="url(#paint5_linear_341_57760)" fill-opacity="0.4" />
  </g>
  <defs>
    <linearGradient id="paint0_linear_341_57760" x1="37.1923" y1="40.3867" x2="49.2645" y2="54.1835" gradientUnits="userSpaceOnUse">
      <stop stop-color="white" />
      <stop offset="1" stop-color="white" />
    </linearGradient>
    <linearGradient id="paint1_linear_341_57760" x1="37.192" y1="52.6133" x2="49.2642" y2="38.8163" gradientUnits="userSpaceOnUse">
      <stop stop-color="white" />
      <stop offset="1" stop-color="white" />
    </linearGradient>
    <linearGradient id="paint2_linear_341_57760" x1="69.1923" y1="40.3867" x2="81.2645" y2="54.1835" gradientUnits="userSpaceOnUse">
      <stop stop-color="white" />
      <stop offset="1" stop-color="white" />
    </linearGradient>
    <linearGradient id="paint3_linear_341_57760" x1="69.192" y1="52.6133" x2="81.2642" y2="38.8163" gradientUnits="userSpaceOnUse">
      <stop stop-color="white" />
      <stop offset="1" stop-color="white" />
    </linearGradient>
    <linearGradient id="paint4_linear_341_57760" x1="53.1923" y1="68.3867" x2="65.2645" y2="82.1835" gradientUnits="userSpaceOnUse">
      <stop stop-color="white" />
      <stop offset="1" stop-color="white" />
    </linearGradient>
    <linearGradient id="paint5_linear_341_57760" x1="53.192" y1="80.6133" x2="65.2642" y2="66.8163" gradientUnits="userSpaceOnUse">
      <stop stop-color="white" />
      <stop offset="1" stop-color="white" />
    </linearGradient>
    <clipPath id="clip0_341_57760">
      <rect width="14" height="16" fill="white" transform="translate(52 39.5) rotate(90)" />
    </clipPath>
    <clipPath id="clip1_341_57760">
      <rect width="14" height="16" fill="white" transform="translate(84 39.5) rotate(90)" />
    </clipPath>
    <clipPath id="clip2_341_57760">
      <rect width="14" height="16" fill="white" transform="translate(68 67.5) rotate(90)" />
    </clipPath>
  </defs>
</svg>
