<svg width="102" height="36" viewBox="0 0 102 36" fill="none" xmlns="http://www.w3.org/2000/svg">
  <path d="M32.3995 14.4047C30.4113 14.4047 28.799 16.0167 28.799 18.0047C28.799 19.9926 27.1868 21.6047 25.1986 21.6047H24.1513C22.747 21.6047 21.5981 22.7534 21.5981 24.1575V26.2518C21.5981 27.6559 22.747 28.8047 24.1513 28.8047H26.2459C27.6501 28.8047 28.799 27.6559 28.799 26.2518V25.2047C28.799 23.2167 30.4113 21.6047 32.3995 21.6047C34.3877 21.6047 36 19.9926 36 18.0047C36 16.0167 34.3877 14.4047 32.3995 14.4047Z" fill="#B5A9F2" />
  <path d="M21.6005 31.3529V33.4495C21.6005 34.8536 20.4515 36 19.0496 36H16.9527C15.5485 36 14.4019 34.8512 14.4019 33.4495V32.4024C14.4019 30.4145 12.7896 28.8024 10.8014 28.8024C8.81324 28.8024 7.20094 27.1903 7.20094 25.2024C7.20094 23.2145 8.81324 21.6024 10.8014 21.6024C12.7896 21.6024 14.4019 19.9903 14.4019 18.0024C14.4019 19.9903 16.0142 21.6024 18.0024 21.6024C16.0142 21.6024 14.4019 23.2145 14.4019 25.2024C14.4019 27.1903 16.0142 28.8024 18.0024 28.8024H19.0496C20.4515 28.8024 21.6005 29.9488 21.6005 31.3529Z" fill="#F4C328" />
  <path d="M21.6005 18.0023C21.6005 19.9903 19.9882 21.6023 18 21.6023C16.0118 21.6023 14.3995 19.9903 14.3995 18.0023C14.3995 16.0144 12.7872 14.4023 10.799 14.4023H9.75177C8.34751 14.4023 7.20094 13.2536 7.20094 11.8519V9.75521C7.20094 8.35114 8.34988 7.20471 9.75177 7.20471H11.8487C13.2529 7.20471 14.3995 8.3535 14.3995 9.75521V10.8023C14.3995 12.7903 16.0118 14.4023 18 14.4023C19.9882 14.4047 21.6005 16.0168 21.6005 18.0023Z" fill="#DD4800" />
  <path d="M4.64776 14.4047H2.55319C1.14894 14.4047 0 15.5535 0 16.9575V19.0518C0 20.4559 1.14894 21.6047 2.55319 21.6047H4.64776C6.05201 21.6047 7.20095 20.4559 7.20095 19.0518V16.9575C7.20095 15.5535 6.05201 14.4047 4.64776 14.4047Z" fill="#67A0EE" />
  <path d="M16.9527 7.20473H18C19.9882 7.20473 21.5981 8.81445 21.6005 10.8024C21.6005 12.7903 23.2128 14.4024 25.201 14.4024C27.1891 14.4024 28.8014 12.7903 28.8014 10.8024C28.8014 8.81445 27.1891 7.20236 25.201 7.20236C23.2128 7.20236 21.6005 5.59029 21.6005 3.60237V3.60473V2.55286C21.6005 1.14879 20.4515 0 19.0473 0H16.9527C15.5485 0 14.3995 1.14879 14.3995 2.55286V4.64714C14.4019 6.05594 15.5485 7.20473 16.9527 7.20473Z" fill="#007D0D" />
  <path d="M57.3735 23.1326C57.3735 23.1617 57.3735 23.1792 57.3735 23.187C57.3735 23.1947 57.3521 23.1967 57.3074 23.1967C57.2783 23.1967 57.2647 23.1928 57.2647 23.187C57.2647 23.1792 57.2569 23.1695 57.2433 23.1539L55.6581 16.881C55.4696 16.1292 55.1627 15.5638 54.7353 15.187C54.3079 14.8101 53.7543 14.6216 53.0743 14.6216C52.408 14.6216 51.8582 14.814 51.425 15.1967C50.9917 15.5794 50.6654 16.1544 50.4478 16.9218L48.8626 23.152C48.8762 23.152 48.88 23.1559 48.8742 23.1637C48.8664 23.1714 48.849 23.1753 48.8198 23.1753C48.7907 23.1753 48.7732 23.1714 48.7654 23.1637C48.7577 23.1559 48.7538 23.1462 48.7538 23.1306L46.8868 14.9461H44L46.0631 23.7173C46.1933 24.2244 46.3992 24.6479 46.6829 24.9878C46.9645 25.3278 47.2987 25.5823 47.6814 25.7474C48.0641 25.9126 48.4526 25.9961 48.8431 25.9961C49.4648 25.9961 50.0049 25.8077 50.4614 25.4308C50.9179 25.0539 51.2385 24.4827 51.4269 23.7154L53.0335 17.3123C53.018 17.2987 53.0257 17.2909 53.0549 17.2909C53.0976 17.2909 53.1132 17.2987 53.0976 17.3123L54.7042 23.7154C54.8927 24.4827 55.2152 25.0539 55.6697 25.4308C56.1263 25.8077 56.6644 25.9961 57.2861 25.9961C57.6765 25.9961 58.0631 25.9126 58.4478 25.7474C58.8305 25.5804 59.1646 25.3278 59.4463 24.9878C59.728 24.6479 59.9262 24.2244 60.0427 23.7173L62.0185 14.9461H59.1744L57.3735 23.1326Z" fill="white" />
  <path d="M71.4424 15.3074C70.6459 14.8081 69.6765 14.5575 68.5342 14.5575C67.4347 14.5575 66.4633 14.8159 65.626 15.3287C64.7868 15.8436 64.1321 16.5293 63.662 17.3899C63.1918 18.2506 62.9568 19.1947 62.9568 20.2243C62.9568 21.3666 63.2093 22.3691 63.7164 23.2316C64.2234 24.0922 64.9208 24.7663 65.8125 25.2501C66.7023 25.7338 67.7047 25.9786 68.8198 25.9786C69.9621 25.9786 70.9665 25.7144 71.8271 25.186C72.6877 24.6575 73.3502 23.9077 73.8125 22.9383L71.4463 21.7455C71.1996 22.237 70.8422 22.6216 70.372 22.8955C69.9019 23.1714 69.3754 23.3093 68.7984 23.3093C68.1904 23.3093 67.6659 23.1753 67.2249 22.9072C66.7839 22.6391 66.4439 22.2661 66.205 21.7901C66.0709 21.522 65.9893 21.2306 65.9407 20.9218H73.9233V20.0106C73.9233 19.0257 73.7096 18.1204 73.2822 17.2967C72.849 16.4672 72.237 15.8066 71.4424 15.3074ZM66.0573 19.2025C66.1447 18.8411 66.2924 18.5109 66.5022 18.2156C66.712 17.9203 66.9859 17.6833 67.3278 17.5104C67.6678 17.3375 68.0622 17.2501 68.5109 17.2501C68.9441 17.2501 69.3288 17.3336 69.661 17.5007C69.9932 17.6677 70.2652 17.8989 70.475 18.1962C70.6848 18.4934 70.8111 18.8295 70.8538 19.2044H66.0573V19.2025Z" fill="white" />
  <path d="M85.1093 15.3618C84.2623 14.8839 83.2812 14.645 82.168 14.645C81.3871 14.645 80.6625 14.8179 79.9961 15.1656C79.7241 15.3074 79.4871 15.4823 79.2579 15.6629V10H76.1749V20.3332C76.1749 21.4191 76.4274 22.3885 76.9344 23.2433C77.4415 24.0981 78.1311 24.7703 79.0073 25.2618C79.8835 25.7533 80.8781 26 81.9913 26C83.1064 26 84.101 25.7436 84.9772 25.2288C85.8533 24.7139 86.543 24.0262 87.05 23.1656C87.5571 22.305 87.8096 21.3609 87.8096 20.3332C87.8096 19.22 87.5707 18.2312 87.0928 17.3706C86.6168 16.508 85.9563 15.8397 85.1093 15.3618ZM84.3808 21.7008C84.1496 22.1205 83.8271 22.4565 83.4153 22.711C83.0034 22.9636 82.5275 23.0899 81.9932 23.0899C81.4726 23.0899 81.0063 22.9636 80.5925 22.711C80.1807 22.4565 79.8543 22.1205 79.6154 21.7008C79.3764 21.2812 79.256 20.8247 79.256 20.3332C79.256 19.8281 79.3764 19.3618 79.6154 18.9344C79.8543 18.507 80.1807 18.171 80.5925 17.9242C81.0044 17.6775 81.4706 17.5551 81.9932 17.5551C82.5275 17.5551 83.0034 17.6775 83.4153 17.9242C83.8271 18.171 84.1496 18.507 84.3808 18.9344C84.612 19.3618 84.7285 19.8281 84.7285 20.3332C84.7285 20.8247 84.612 21.2812 84.3808 21.7008Z" fill="white" />
  <path d="M100.795 17.3706C100.317 16.51 99.6542 15.8397 98.8091 15.3618C97.9621 14.8839 96.9811 14.645 95.8679 14.645C95.0869 14.645 94.3623 14.8179 93.696 15.1656C93.424 15.3074 93.187 15.4823 92.9577 15.6629V10H89.8747V20.3332C89.8747 21.4191 90.1272 22.3885 90.6343 23.2433C91.1413 24.0981 91.831 24.7703 92.7071 25.2618C93.5833 25.7533 94.578 26 95.6911 26C96.8062 26 97.8009 25.7436 98.677 25.2288C99.5532 24.7139 100.243 24.0262 100.75 23.1656C101.257 22.305 101.509 21.3609 101.509 20.3332C101.511 19.2181 101.272 18.2312 100.795 17.3706ZM98.0806 21.7008C97.8494 22.1205 97.5269 22.4565 97.1151 22.711C96.7032 22.9636 96.2273 23.0899 95.693 23.0899C95.1724 23.0899 94.7062 22.9636 94.2924 22.711C93.8805 22.4565 93.5541 22.1205 93.3152 21.7008C93.0762 21.2812 92.9558 20.8247 92.9558 20.3332C92.9558 19.8281 93.0762 19.3618 93.3152 18.9344C93.5541 18.507 93.8805 18.171 94.2924 17.9242C94.7042 17.6775 95.1705 17.5551 95.693 17.5551C96.2273 17.5551 96.7032 17.6775 97.1151 17.9242C97.5269 18.171 97.8494 18.507 98.0806 18.9344C98.3118 19.3618 98.4284 19.8281 98.4284 20.3332C98.4284 20.8247 98.3118 21.2812 98.0806 21.7008Z" fill="white" />
</svg>
  