<svg width="102" height="37" viewBox="0 0 102 37" fill="none" xmlns="http://www.w3.org/2000/svg">
  <path d="M32.3995 15.4034C30.4113 15.4034 28.799 17.0155 28.799 19.0034C28.799 20.9913 27.1868 22.6034 25.1986 22.6034H24.1513C22.747 22.6034 21.5981 23.7522 21.5981 25.1562V27.2505C21.5981 28.6546 22.747 29.8034 24.1513 29.8034H26.2459C27.6501 29.8034 28.799 28.6546 28.799 27.2505V26.2034C28.799 24.2155 30.4113 22.6034 32.3995 22.6034C34.3877 22.6034 36 20.9913 36 19.0034C36 17.0155 34.3877 15.4034 32.3995 15.4034Z" fill="#B5A9F2" />
  <path d="M21.6005 32.3516V34.4482C21.6005 35.8523 20.4515 36.9987 19.0496 36.9987H16.9527C15.5484 36.9987 14.4019 35.8499 14.4019 34.4482V33.4011C14.4019 31.4132 12.7896 29.8011 10.8014 29.8011C8.81322 29.8011 7.20093 28.189 7.20093 26.2011C7.20093 24.2132 8.81322 22.6011 10.8014 22.6011C12.7896 22.6011 14.4019 20.989 14.4019 19.0011C14.4019 20.989 16.0142 22.6011 18.0023 22.6011C16.0142 22.6011 14.4019 24.2132 14.4019 26.2011C14.4019 28.189 16.0142 29.8011 18.0023 29.8011H19.0496C20.4515 29.8011 21.6005 30.9475 21.6005 32.3516Z" fill="#F4C328" />
  <path d="M21.6005 19.0011C21.6005 20.989 19.9882 22.6011 18 22.6011C16.0118 22.6011 14.3995 20.989 14.3995 19.0011C14.3995 17.0131 12.7872 15.4011 10.799 15.4011H9.75175C8.3475 15.4011 7.20093 14.2523 7.20093 12.8506V10.7539C7.20093 9.34985 8.34986 8.20343 9.75175 8.20343H11.8487C13.2529 8.20343 14.3995 9.35222 14.3995 10.7539V11.8011C14.3995 13.789 16.0118 15.4011 18 15.4011C19.9882 15.4034 21.6005 17.0155 21.6005 19.0011Z" fill="#DD4800" />
  <path d="M4.64776 15.4034H2.55319C1.14894 15.4034 0 16.5522 0 17.9562V20.0505C0 21.4546 1.14894 22.6034 2.55319 22.6034H4.64776C6.05201 22.6034 7.20095 21.4546 7.20095 20.0505V17.9562C7.20095 16.5522 6.05201 15.4034 4.64776 15.4034Z" fill="#67A0EE" />
  <path d="M16.9527 8.20345H18C19.9882 8.20345 21.5981 9.81317 21.6005 11.8011C21.6005 13.789 23.2128 15.4011 25.201 15.4011C27.1891 15.4011 28.8014 13.789 28.8014 11.8011C28.8014 9.81317 27.1891 8.20108 25.201 8.20108C23.2128 8.20108 21.6005 6.589 21.6005 4.60109V4.60345V3.55158C21.6005 2.14751 20.4515 0.998718 19.0473 0.998718H16.9527C15.5485 0.998718 14.3995 2.14751 14.3995 3.55158V5.64586C14.4019 7.05466 15.5485 8.20345 16.9527 8.20345Z" fill="#007D0D" />
  <path d="M57.3735 24.1313C57.3735 24.1604 57.3735 24.1779 57.3735 24.1857C57.3735 24.1935 57.3521 24.1954 57.3074 24.1954C57.2783 24.1954 57.2647 24.1915 57.2647 24.1857C57.2647 24.1779 57.2569 24.1682 57.2433 24.1527L55.6581 17.8797C55.4696 17.1279 55.1627 16.5626 54.7353 16.1857C54.3079 15.8088 53.7543 15.6204 53.0743 15.6204C52.408 15.6204 51.8582 15.8127 51.425 16.1954C50.9917 16.5781 50.6654 17.1531 50.4478 17.9205L48.8626 24.1507C48.8762 24.1507 48.88 24.1546 48.8742 24.1624C48.8664 24.1701 48.849 24.174 48.8198 24.174C48.7907 24.174 48.7732 24.1701 48.7654 24.1624C48.7577 24.1546 48.7538 24.1449 48.7538 24.1293L46.8868 15.9448H44L46.0631 24.716C46.1933 25.2231 46.3992 25.6466 46.6829 25.9866C46.9645 26.3265 47.2987 26.581 47.6814 26.7462C48.0641 26.9113 48.4526 26.9948 48.8431 26.9948C49.4648 26.9948 50.0049 26.8064 50.4614 26.4295C50.9179 26.0526 51.2385 25.4815 51.4269 24.7141L53.0335 18.311C53.018 18.2974 53.0257 18.2896 53.0549 18.2896C53.0976 18.2896 53.1132 18.2974 53.0976 18.311L54.7042 24.7141C54.8927 25.4815 55.2152 26.0526 55.6697 26.4295C56.1263 26.8064 56.6644 26.9948 57.2861 26.9948C57.6765 26.9948 58.0631 26.9113 58.4478 26.7462C58.8305 26.5791 59.1646 26.3265 59.4463 25.9866C59.728 25.6466 59.9262 25.2231 60.0427 24.716L62.0185 15.9448H59.1744L57.3735 24.1313Z" fill="#242424" />
  <path d="M71.4424 16.3061C70.6459 15.8068 69.6765 15.5562 68.5342 15.5562C67.4347 15.5562 66.4633 15.8146 65.626 16.3275C64.7868 16.8423 64.1321 17.528 63.662 18.3887C63.1918 19.2493 62.9568 20.1934 62.9568 21.223C62.9568 22.3653 63.2093 23.3678 63.7164 24.2303C64.2234 25.0909 64.9208 25.7651 65.8125 26.2488C66.7023 26.7325 67.7047 26.9773 68.8198 26.9773C69.9621 26.9773 70.9665 26.7131 71.8271 26.1847C72.6877 25.6563 73.3502 24.9064 73.8125 23.937L71.4463 22.7442C71.1996 23.2357 70.8422 23.6203 70.372 23.8942C69.9019 24.1701 69.3754 24.308 68.7984 24.308C68.1904 24.308 67.6659 24.174 67.2249 23.9059C66.7839 23.6378 66.4439 23.2648 66.205 22.7889C66.0709 22.5208 65.9893 22.2294 65.9407 21.9205H73.9233V21.0093C73.9233 20.0244 73.7096 19.1191 73.2822 18.2954C72.849 17.4659 72.237 16.8054 71.4424 16.3061ZM66.0573 20.2012C66.1447 19.8398 66.2924 19.5096 66.5022 19.2143C66.712 18.919 66.9859 18.682 67.3278 18.5091C67.6678 18.3362 68.0622 18.2488 68.5109 18.2488C68.9441 18.2488 69.3288 18.3323 69.661 18.4994C69.9932 18.6665 70.2652 18.8976 70.475 19.1949C70.6848 19.4921 70.8111 19.8282 70.8538 20.2031H66.0573V20.2012Z" fill="#242424" />
  <path d="M85.1093 16.3605C84.2623 15.8826 83.2812 15.6437 82.168 15.6437C81.3871 15.6437 80.6625 15.8166 79.9961 16.1643C79.7241 16.3061 79.4871 16.481 79.2579 16.6617V10.9987H76.1749V21.3319C76.1749 22.4179 76.4274 23.3873 76.9344 24.242C77.4415 25.0968 78.1311 25.769 79.0073 26.2605C79.8835 26.752 80.8781 26.9987 81.9913 26.9987C83.1064 26.9987 84.101 26.7423 84.9772 26.2275C85.8533 25.7127 86.543 25.0249 87.05 24.1643C87.5571 23.3037 87.8096 22.3596 87.8096 21.3319C87.8096 20.2187 87.5707 19.2299 87.0928 18.3693C86.6168 17.5067 85.9563 16.8384 85.1093 16.3605ZM84.3808 22.6995C84.1496 23.1192 83.8271 23.4553 83.4153 23.7097C83.0034 23.9623 82.5275 24.0886 81.9932 24.0886C81.4726 24.0886 81.0063 23.9623 80.5925 23.7097C80.1807 23.4553 79.8543 23.1192 79.6154 22.6995C79.3764 22.2799 79.256 21.8234 79.256 21.3319C79.256 20.8268 79.3764 20.3605 79.6154 19.9332C79.8543 19.5058 80.1807 19.1697 80.5925 18.923C81.0044 18.6762 81.4706 18.5538 81.9932 18.5538C82.5275 18.5538 83.0034 18.6762 83.4153 18.923C83.8271 19.1697 84.1496 19.5058 84.3808 19.9332C84.612 20.3605 84.7285 20.8268 84.7285 21.3319C84.7285 21.8234 84.612 22.2799 84.3808 22.6995Z" fill="#242424" />
  <path d="M100.795 18.3693C100.317 17.5087 99.6542 16.8384 98.8091 16.3605C97.9621 15.8826 96.9811 15.6437 95.8679 15.6437C95.0869 15.6437 94.3623 15.8166 93.696 16.1643C93.424 16.3061 93.187 16.481 92.9577 16.6617V10.9987H89.8747V21.3319C89.8747 22.4179 90.1272 23.3873 90.6343 24.242C91.1413 25.0968 91.831 25.769 92.7071 26.2605C93.5833 26.752 94.5779 26.9987 95.6911 26.9987C96.8062 26.9987 97.8009 26.7423 98.677 26.2275C99.5532 25.7127 100.243 25.0249 100.75 24.1643C101.257 23.3037 101.509 22.3596 101.509 21.3319C101.511 20.2168 101.272 19.2299 100.795 18.3693ZM98.0806 22.6995C97.8494 23.1192 97.5269 23.4553 97.1151 23.7097C96.7032 23.9623 96.2273 24.0886 95.693 24.0886C95.1724 24.0886 94.7062 23.9623 94.2924 23.7097C93.8805 23.4553 93.5541 23.1192 93.3152 22.6995C93.0762 22.2799 92.9558 21.8234 92.9558 21.3319C92.9558 20.8268 93.0762 20.3605 93.3152 19.9332C93.5541 19.5058 93.8805 19.1697 94.2924 18.923C94.7042 18.6762 95.1705 18.5538 95.693 18.5538C96.2273 18.5538 96.7032 18.6762 97.1151 18.923C97.5269 19.1697 97.8494 19.5058 98.0806 19.9332C98.3118 20.3605 98.4284 20.8268 98.4284 21.3319C98.4284 21.8234 98.3118 22.2799 98.0806 22.6995Z" fill="#242424" />
</svg>
  