<svg width="96" height="28" viewBox="0 0 96 28" fill="none" xmlns="http://www.w3.org/2000/svg">
  <path fill-rule="evenodd" clip-rule="evenodd" d="M11.5294 13.4761V15.0737C11.5294 16.1431 12.4052 17.0196 13.4764 17.0196H15.0734C16.1438 17.0196 17.0196 16.1431 17.0196 15.0737V13.4761C17.0196 12.4059 16.1438 11.5294 15.0734 11.5294H13.4764C12.4052 11.5294 11.5294 12.4059 11.5294 13.4761Z" fill="#B5A9F2" />
  <path fill-rule="evenodd" clip-rule="evenodd" d="M11.5294 8.5098C11.5294 10.073 10.3002 11.3436 8.78614 11.3436C7.27286 11.3436 6.04368 12.6133 6.04368 14.1858C6.04368 15.749 4.81369 17.0196 3.29146 17.0196C1.77819 17.0196 0.549011 15.749 0.549011 14.1858C0.549011 12.6133 1.77819 11.3436 3.29146 11.3436C4.81369 11.3436 6.04368 10.073 6.04368 8.5098C6.04368 6.94575 4.81369 5.676 3.29146 5.676H2.49372C1.42734 5.676 0.549011 4.76784 0.549011 3.66628V2.00973C0.549011 0.908161 1.42734 0 2.49372 0H4.09735C5.16454 0 6.04368 0.908161 6.04368 2.00973V2.84221C6.04368 4.40626 7.27286 5.676 8.78614 5.676C10.3002 5.676 11.5294 6.94575 11.5294 8.5098Z" fill="#DD4800" />
  <path fill-rule="evenodd" clip-rule="evenodd" d="M17.0196 24.4516V26.0553C17.0196 27.1216 16.1114 28 15.0098 28H13.354C12.2515 28 11.3433 27.1216 11.3433 26.0553V25.2575C11.3433 23.7353 10.0735 22.5053 8.50938 22.5053C6.94609 22.5053 5.67629 23.7353 5.67629 25.2575C5.67629 26.7716 4.40564 28 2.8331 28C1.26981 28 0 26.7716 0 25.2575C0 23.7353 1.26981 22.5053 2.8331 22.5053C4.40564 22.5053 5.67629 21.2769 5.67629 19.7629V18.9651C5.67629 17.8898 6.57524 17.0196 7.68527 17.0196H9.3335C10.4444 17.0196 11.3433 17.8898 11.3433 18.9651V19.7629C11.3433 21.2769 12.614 22.5053 14.1773 22.5053H15.0098C16.1114 22.5053 17.0196 23.3845 17.0196 24.4516Z" fill="#007D0D" />
  <mask id="mask0_225_2192" style="mask-type:alpha" maskUnits="userSpaceOnUse" x="17" y="10" width="11" height="18">
    <path d="M17.0196 10.9803H28V28H17.0196V10.9803Z" fill="white" />
  </mask>
  <g mask="url(#mask0_225_2192)">
    <path fill-rule="evenodd" clip-rule="evenodd" d="M28.0002 25.1669C28.0002 26.7301 26.7711 28 25.249 28C23.735 28 22.5059 26.7301 22.5059 25.1669C22.5059 23.5943 21.2767 22.3237 19.7627 22.3237H18.9642C17.8906 22.3237 17.0196 21.4247 17.0196 20.3138V18.6665C17.0196 17.5556 17.8906 16.6566 18.9642 16.6566H19.7627C21.2767 16.6566 22.5059 15.386 22.5059 13.8227C22.5059 12.2502 23.735 10.9803 25.249 10.9803C26.7711 10.9803 28.0002 12.2502 28.0002 13.8227C28.0002 15.386 26.7711 16.6566 25.249 16.6566C23.735 16.6566 22.5059 17.9264 22.5059 19.4906C22.5059 21.0539 23.735 22.3237 25.249 22.3237C26.7711 22.3237 28.0002 23.5943 28.0002 25.1669Z" fill="#67A0EE" />
  </g>
  <mask id="mask1_225_2192" style="mask-type:alpha" maskUnits="userSpaceOnUse" x="10" y="0" width="18" height="11">
    <path d="M10.9804 0H28V10.9804H10.9804V0Z" fill="white" />
  </mask>
  <g mask="url(#mask1_225_2192)">
    <path fill-rule="evenodd" clip-rule="evenodd" d="M28.0003 1.94528V3.54952C28.0003 4.61494 27.0921 5.49398 25.9897 5.49398H25.158C23.5939 5.49398 22.3242 6.723 22.3242 8.2369C22.3242 9.7508 21.0544 10.9806 19.4903 10.9806C17.9262 10.9806 16.6565 9.7508 16.6565 8.2369C16.6565 6.723 15.3867 5.49398 13.8142 5.49398H12.9893C11.8886 5.49398 10.9804 4.61494 10.9804 3.54952V1.94528C10.9804 0.879037 11.8886 0 12.9893 0H14.6467C15.7483 0 16.6565 0.879037 16.6565 1.94528V2.75106C16.6565 4.26577 17.9262 5.49398 19.4903 5.49398C21.0544 5.49398 22.3242 4.26577 22.3242 2.75106V1.94528C22.3242 0.879037 23.2323 0 24.3339 0H25.9897C27.0921 0 28.0003 0.879037 28.0003 1.94528Z" fill="#F4C328" />
  </g>
  <path fill-rule="evenodd" clip-rule="evenodd" d="M49.8753 19.2616V19.317C49.8753 19.3244 49.8527 19.3285 49.8075 19.3285C49.7774 19.3285 49.7624 19.3244 49.7624 19.317C49.7624 19.3104 49.7548 19.2988 49.7398 19.2831L48.0957 12.854C47.9008 12.083 47.5812 11.5045 47.1386 11.1186C46.6951 10.7335 46.1212 10.5402 45.415 10.5402C44.7248 10.5402 44.1542 10.7377 43.7032 11.1302C43.2531 11.5235 42.9151 12.1127 42.69 12.8986L41.0451 19.2831C41.0602 19.2831 41.0644 19.2872 41.0568 19.2947C41.0493 19.3029 41.0301 19.3062 41.0008 19.3062C40.9698 19.3062 40.9514 19.3029 40.9439 19.2947C40.9363 19.2872 40.933 19.2765 40.933 19.2616L38.9961 10.874H36L38.1394 19.8624C38.2749 20.3813 38.4891 20.8152 38.7819 21.1639C39.0748 21.5126 39.4195 21.7721 39.8177 21.9423C40.216 22.1126 40.6176 22.1985 41.0225 22.1985C41.6684 22.1985 42.2282 22.0051 42.7009 21.62C43.1744 21.2341 43.5083 20.6491 43.7032 19.8624L45.3707 13.2986C45.3548 13.2845 45.3623 13.2771 45.3933 13.2771C45.4376 13.2771 45.4527 13.2845 45.4376 13.2986L47.1043 19.8624C47.2992 20.6491 47.6339 21.2341 48.1074 21.62C48.5802 22.0051 49.1399 22.1985 49.785 22.1985C50.1907 22.1985 50.5923 22.1126 50.9906 21.9423C51.388 21.7721 51.7336 21.5126 52.0264 21.1639C52.3192 20.8152 52.525 20.3813 52.6464 19.8624L54.6954 10.874H51.7444L49.8753 19.2616Z" fill="white" />
  <path fill-rule="evenodd" clip-rule="evenodd" d="M92.1104 17.7928C91.8702 18.2233 91.5356 18.5679 91.108 18.8274C90.6805 19.0869 90.1885 19.2175 89.633 19.2175C89.0925 19.2175 88.6072 19.0869 88.1797 18.8274C87.7521 18.5679 87.4141 18.2233 87.1665 17.7928C86.918 17.3631 86.7942 16.8962 86.7942 16.3921C86.7942 15.8723 86.918 15.3947 87.1665 14.9559C87.4141 14.5188 87.7521 14.1742 88.1797 13.9213C88.6072 13.6701 89.0925 13.5437 89.633 13.5437C90.1885 13.5437 90.6805 13.6701 91.108 13.9213C91.5356 14.1742 91.8702 14.5188 92.1104 14.9559C92.3505 15.3947 92.471 15.8723 92.471 16.3921C92.471 16.8962 92.3505 17.3631 92.1104 17.7928ZM94.9257 13.3544C94.4304 12.4727 93.7435 11.786 92.865 11.2968C91.9865 10.8076 90.9691 10.563 89.8129 10.563C89.0021 10.563 88.2508 10.7406 87.5606 11.096C87.2819 11.2398 87.0301 11.4075 86.7942 11.5901V5.80145H83.5956V16.3921C83.5956 17.5036 83.8583 18.4985 84.3846 19.3728C84.91 20.2479 85.6262 20.938 86.5356 21.442C87.4434 21.9453 88.4759 22.1982 89.633 22.1982C90.7884 22.1982 91.8209 21.9345 92.7295 21.4082C93.6381 20.8818 94.3551 20.1777 94.8814 19.2943C95.406 18.4126 95.6695 17.4449 95.6695 16.3921C95.6695 15.2493 95.4219 14.237 94.9257 13.3544Z" fill="white" />
  <path fill-rule="evenodd" clip-rule="evenodd" d="M58.8854 15.2347C58.9758 14.8644 59.1297 14.5265 59.3472 14.2224C59.5648 13.9183 59.8501 13.677 60.2032 13.4993C60.5562 13.3216 60.9654 13.2324 61.4306 13.2324C61.8815 13.2324 62.2789 13.3183 62.6245 13.4885C62.97 13.6588 63.252 13.8968 63.4695 14.2C63.687 14.5041 63.8184 14.8487 63.8636 15.2347H58.8854ZM64.4718 11.2408C63.646 10.7293 62.6395 10.4731 61.4531 10.4731C60.3119 10.4731 59.3054 10.7376 58.4353 11.2631C57.5635 11.7904 56.8841 12.4953 56.3963 13.377C55.9085 14.2595 55.6642 15.2272 55.6642 16.2808C55.6642 17.4526 55.9269 18.4798 56.4532 19.3615C56.9786 20.2441 57.7032 20.9333 58.626 21.4307C59.5497 21.9274 60.5897 22.1753 61.746 22.1753C62.9324 22.1753 63.9724 21.9051 64.8659 21.3638C65.7595 20.8225 66.4464 20.0548 66.9275 19.0615L64.4718 17.8369C64.2167 18.3426 63.8443 18.7351 63.3566 19.0169C62.8688 19.2987 62.3241 19.4392 61.7242 19.4392C61.0934 19.4392 60.5487 19.3028 60.0902 19.0277C59.6325 18.7541 59.2795 18.3715 59.0318 17.8823C58.8929 17.6071 58.8017 17.3096 58.7507 16.9923H67.0396V16.0577C67.0396 15.0487 66.8179 14.1224 66.3753 13.277C65.9318 12.4308 65.2976 11.7524 64.4718 11.2408Z" fill="white" />
  <path fill-rule="evenodd" clip-rule="evenodd" d="M77.8968 17.7928C77.6566 18.2233 77.322 18.5679 76.8944 18.8274C76.4669 19.0869 75.9749 19.2175 75.4194 19.2175C74.8789 19.2175 74.3936 19.0869 73.9661 18.8274C73.5386 18.5679 73.2005 18.2233 72.9529 17.7928C72.7044 17.3631 72.5806 16.8962 72.5806 16.3921C72.5806 15.8723 72.7044 15.3947 72.9529 14.9559C73.2005 14.5188 73.5386 14.1742 73.9661 13.9213C74.3936 13.6701 74.8789 13.5437 75.4194 13.5437C75.9749 13.5437 76.4669 13.6701 76.8944 13.9213C77.322 14.1742 77.6566 14.5188 77.8968 14.9559C78.1369 15.3947 78.2574 15.8723 78.2574 16.3921C78.2574 16.8962 78.1369 17.3631 77.8968 17.7928ZM78.6514 11.2968C77.7729 10.8076 76.7555 10.563 75.5993 10.563C74.7885 10.563 74.0372 10.7406 73.347 11.096C73.0684 11.2398 72.8165 11.4075 72.5806 11.5901V5.80145H69.382V16.3921C69.382 17.5036 69.6447 18.4985 70.171 19.3728C70.6964 20.2479 71.4126 20.938 72.322 21.442C73.2298 21.9453 74.2623 22.1982 75.4194 22.1982C76.5748 22.1982 77.6073 21.9345 78.5159 21.4082C79.4245 20.8818 80.1415 20.1777 80.6678 19.2943C81.1924 18.4126 81.456 17.4449 81.456 16.3921C81.456 15.2493 81.2083 14.237 80.7122 13.3544C80.2168 12.4727 79.5299 11.786 78.6514 11.2968Z" fill="white" />
</svg>
  