<svg width="96" height="29" viewBox="0 0 96 29" fill="none" xmlns="http://www.w3.org/2000/svg">
  <path fill-rule="evenodd" clip-rule="evenodd" d="M11.5294 14.4749V16.0724C11.5294 17.1418 12.4052 18.0183 13.4764 18.0183H15.0734C16.1438 18.0183 17.0196 17.1418 17.0196 16.0724V14.4749C17.0196 13.4046 16.1438 12.5281 15.0734 12.5281H13.4764C12.4052 12.5281 11.5294 13.4046 11.5294 14.4749Z" fill="#B5A9F2" />
  <path fill-rule="evenodd" clip-rule="evenodd" d="M11.5294 9.50852C11.5294 11.0717 10.3002 12.3423 8.78614 12.3423C7.27286 12.3423 6.04368 13.6121 6.04368 15.1845C6.04368 16.7477 4.81369 18.0183 3.29146 18.0183C1.77819 18.0183 0.549011 16.7477 0.549011 15.1845C0.549011 13.6121 1.77819 12.3423 3.29146 12.3423C4.81369 12.3423 6.04368 11.0717 6.04368 9.50852C6.04368 7.94447 4.81369 6.67472 3.29146 6.67472H2.49372C1.42734 6.67472 0.549011 5.76656 0.549011 4.665V3.00844C0.549011 1.90688 1.42734 0.998718 2.49372 0.998718H4.09735C5.16454 0.998718 6.04368 1.90688 6.04368 3.00844V3.84093C6.04368 5.40498 7.27286 6.67472 8.78614 6.67472C10.3002 6.67472 11.5294 7.94447 11.5294 9.50852Z" fill="#DD4800" />
  <path fill-rule="evenodd" clip-rule="evenodd" d="M17.0196 25.4504V27.054C17.0196 28.1204 16.1114 28.9987 15.0098 28.9987H13.354C12.2515 28.9987 11.3433 28.1204 11.3433 27.054V26.2562C11.3433 24.734 10.0735 23.504 8.50938 23.504C6.94609 23.504 5.67629 24.734 5.67629 26.2562C5.67629 27.7703 4.40564 28.9987 2.8331 28.9987C1.26981 28.9987 0 27.7703 0 26.2562C0 24.734 1.26981 23.504 2.8331 23.504C4.40564 23.504 5.67629 22.2757 5.67629 20.7616V19.9638C5.67629 18.8885 6.57524 18.0183 7.68527 18.0183H9.3335C10.4444 18.0183 11.3433 18.8885 11.3433 19.9638V20.7616C11.3433 22.2757 12.614 23.504 14.1773 23.504H15.0098C16.1114 23.504 17.0196 24.3832 17.0196 25.4504Z" fill="#007D0D" />
  <mask id="mask0_163_4544" style="mask-type:alpha" maskUnits="userSpaceOnUse" x="17" y="11" width="11" height="18">
    <path d="M17.0196 11.9791H28V28.9987H17.0196V11.9791Z" fill="white" />
  </mask>
  <g mask="url(#mask0_163_4544)">
    <path fill-rule="evenodd" clip-rule="evenodd" d="M28.0002 26.1656C28.0002 27.7289 26.7711 28.9987 25.249 28.9987C23.735 28.9987 22.5059 27.7289 22.5059 26.1656C22.5059 24.5931 21.2767 23.3224 19.7627 23.3224H18.9642C17.8906 23.3224 17.0196 22.4235 17.0196 21.3126V19.6652C17.0196 18.5544 17.8906 17.6554 18.9642 17.6554H19.7627C21.2767 17.6554 22.5059 16.3848 22.5059 14.8215C22.5059 13.2489 23.735 11.9791 25.249 11.9791C26.7711 11.9791 28.0002 13.2489 28.0002 14.8215C28.0002 16.3848 26.7711 17.6554 25.249 17.6554C23.735 17.6554 22.5059 18.9252 22.5059 20.4893C22.5059 22.0526 23.735 23.3224 25.249 23.3224C26.7711 23.3224 28.0002 24.5931 28.0002 26.1656Z" fill="#67A0EE" />
  </g>
  <mask id="mask1_163_4544" style="mask-type:alpha" maskUnits="userSpaceOnUse" x="10" y="0" width="18" height="12">
    <path d="M10.9804 0.998718H28V11.9791H10.9804V0.998718Z" fill="white" />
  </mask>
  <g mask="url(#mask1_163_4544)">
    <path fill-rule="evenodd" clip-rule="evenodd" d="M28.0003 2.94399V4.54824C28.0003 5.61366 27.0921 6.4927 25.9897 6.4927H25.158C23.5939 6.4927 22.3242 7.72172 22.3242 9.23562C22.3242 10.7495 21.0544 11.9794 19.4903 11.9794C17.9262 11.9794 16.6565 10.7495 16.6565 9.23562C16.6565 7.72172 15.3867 6.4927 13.8142 6.4927H12.9893C11.8886 6.4927 10.9804 5.61366 10.9804 4.54824V2.94399C10.9804 1.87776 11.8886 0.998718 12.9893 0.998718H14.6467C15.7483 0.998718 16.6565 1.87776 16.6565 2.94399V3.74978C16.6565 5.26449 17.9262 6.4927 19.4903 6.4927C21.0544 6.4927 22.3242 5.26449 22.3242 3.74978V2.94399C22.3242 1.87776 23.2323 0.998718 24.3339 0.998718H25.9897C27.0921 0.998718 28.0003 1.87776 28.0003 2.94399Z" fill="#F4C328" />
  </g>
  <path fill-rule="evenodd" clip-rule="evenodd" d="M49.8753 20.2603V20.3157C49.8753 20.3231 49.8527 20.3273 49.8075 20.3273C49.7774 20.3273 49.7624 20.3231 49.7624 20.3157C49.7624 20.3091 49.7548 20.2975 49.7398 20.2818L48.0957 13.8527C47.9008 13.0817 47.5812 12.5032 47.1386 12.1173C46.6951 11.7322 46.1212 11.5389 45.415 11.5389C44.7248 11.5389 44.1542 11.7364 43.7032 12.1289C43.2531 12.5223 42.9151 13.1114 42.69 13.8973L41.0451 20.2818C41.0602 20.2818 41.0644 20.2859 41.0568 20.2934C41.0493 20.3016 41.0301 20.3049 41.0008 20.3049C40.9698 20.3049 40.9514 20.3016 40.9439 20.2934C40.9363 20.2859 40.933 20.2752 40.933 20.2603L38.9961 11.8727H36L38.1394 20.8611C38.2749 21.38 38.4891 21.8139 38.7819 22.1626C39.0748 22.5113 39.4195 22.7708 39.8177 22.941C40.216 23.1113 40.6176 23.1972 41.0225 23.1972C41.6684 23.1972 42.2282 23.0038 42.7009 22.6188C43.1744 22.2329 43.5083 21.6478 43.7032 20.8611L45.3707 14.2973C45.3548 14.2832 45.3623 14.2758 45.3933 14.2758C45.4376 14.2758 45.4527 14.2832 45.4376 14.2973L47.1043 20.8611C47.2992 21.6478 47.6339 22.2329 48.1074 22.6188C48.5802 23.0038 49.1399 23.1972 49.785 23.1972C50.1907 23.1972 50.5923 23.1113 50.9906 22.941C51.388 22.7708 51.7336 22.5113 52.0264 22.1626C52.3192 21.8139 52.525 21.38 52.6464 20.8611L54.6954 11.8727H51.7444L49.8753 20.2603Z" fill="#282324" />
  <path fill-rule="evenodd" clip-rule="evenodd" d="M92.1104 18.7915C91.8702 19.2221 91.5356 19.5667 91.108 19.8261C90.6805 20.0856 90.1885 20.2162 89.633 20.2162C89.0925 20.2162 88.6072 20.0856 88.1797 19.8261C87.7521 19.5667 87.4141 19.2221 87.1665 18.7915C86.918 18.3618 86.7942 17.8949 86.7942 17.3908C86.7942 16.8711 86.918 16.3934 87.1665 15.9546C87.4141 15.5175 87.7521 15.1729 88.1797 14.92C88.6072 14.6688 89.0925 14.5424 89.633 14.5424C90.1885 14.5424 90.6805 14.6688 91.108 14.92C91.5356 15.1729 91.8702 15.5175 92.1104 15.9546C92.3505 16.3934 92.471 16.8711 92.471 17.3908C92.471 17.8949 92.3505 18.3618 92.1104 18.7915ZM94.9257 14.3531C94.4304 13.4714 93.7435 12.7847 92.865 12.2955C91.9865 11.8063 90.9691 11.5617 89.8129 11.5617C89.0021 11.5617 88.2508 11.7393 87.5606 12.0947C87.2819 12.2385 87.0301 12.4062 86.7942 12.5888V6.80017H83.5956V17.3908C83.5956 18.5023 83.8583 19.4972 84.3846 20.3715C84.91 21.2467 85.6262 21.9367 86.5356 22.4408C87.4434 22.944 88.4759 23.1969 89.633 23.1969C90.7884 23.1969 91.8209 22.9333 92.7295 22.4069C93.6381 21.8805 94.3551 21.1764 94.8814 20.293C95.406 19.4113 95.6695 18.4436 95.6695 17.3908C95.6695 16.248 95.4219 15.2357 94.9257 14.3531Z" fill="#282324" />
  <path fill-rule="evenodd" clip-rule="evenodd" d="M58.8854 16.2334C58.9758 15.8632 59.1297 15.5252 59.3472 15.2211C59.5648 14.917 59.8501 14.6757 60.2032 14.498C60.5562 14.3203 60.9654 14.2311 61.4306 14.2311C61.8815 14.2311 62.2789 14.317 62.6245 14.4873C62.97 14.6575 63.252 14.8955 63.4695 15.1988C63.687 15.5029 63.8184 15.8475 63.8636 16.2334H58.8854ZM64.4718 12.2396C63.646 11.728 62.6395 11.4719 61.4531 11.4719C60.3119 11.4719 59.3054 11.7363 58.4353 12.2619C57.5635 12.7891 56.8841 13.494 56.3963 14.3757C55.9085 15.2583 55.6642 16.2259 55.6642 17.2795C55.6642 18.4513 55.9269 19.4785 56.4532 20.3602C56.9786 21.2428 57.7032 21.932 58.626 22.4294C59.5497 22.9261 60.5897 23.174 61.746 23.174C62.9324 23.174 63.9724 22.9038 64.8659 22.3625C65.7595 21.8212 66.4464 21.0535 66.9275 20.0603L64.4718 18.8356C64.2167 19.3413 63.8443 19.7338 63.3566 20.0156C62.8688 20.2974 62.3241 20.4379 61.7242 20.4379C61.0934 20.4379 60.5487 20.3016 60.0902 20.0264C59.6325 19.7529 59.2795 19.3702 59.0318 18.881C58.8929 18.6059 58.8017 18.3084 58.7507 17.991H67.0396V17.0564C67.0396 16.0474 66.8179 15.1211 66.3753 14.2757C65.9318 13.4295 65.2976 12.7511 64.4718 12.2396Z" fill="#282324" />
  <path fill-rule="evenodd" clip-rule="evenodd" d="M77.8968 18.7915C77.6566 19.2221 77.322 19.5667 76.8944 19.8261C76.4669 20.0856 75.9749 20.2162 75.4194 20.2162C74.8789 20.2162 74.3936 20.0856 73.9661 19.8261C73.5386 19.5667 73.2005 19.2221 72.9529 18.7915C72.7044 18.3618 72.5806 17.8949 72.5806 17.3908C72.5806 16.8711 72.7044 16.3934 72.9529 15.9546C73.2005 15.5175 73.5386 15.1729 73.9661 14.92C74.3936 14.6688 74.8789 14.5424 75.4194 14.5424C75.9749 14.5424 76.4669 14.6688 76.8944 14.92C77.322 15.1729 77.6566 15.5175 77.8968 15.9546C78.1369 16.3934 78.2574 16.8711 78.2574 17.3908C78.2574 17.8949 78.1369 18.3618 77.8968 18.7915ZM78.6514 12.2955C77.7729 11.8063 76.7555 11.5617 75.5993 11.5617C74.7885 11.5617 74.0372 11.7393 73.347 12.0947C73.0684 12.2385 72.8165 12.4062 72.5806 12.5888V6.80017H69.382V17.3908C69.382 18.5023 69.6447 19.4972 70.171 20.3715C70.6964 21.2467 71.4126 21.9367 72.322 22.4408C73.2298 22.944 74.2623 23.1969 75.4194 23.1969C76.5748 23.1969 77.6073 22.9333 78.5159 22.4069C79.4245 21.8805 80.1415 21.1764 80.6678 20.293C81.1924 19.4113 81.456 18.4436 81.456 17.3908C81.456 16.248 81.2083 15.2357 80.7122 14.3531C80.2168 13.4714 79.5299 12.7847 78.6514 12.2955Z" fill="#282324" />
</svg>
  