<?xml version="1.0" encoding="UTF-8"?>
<svg width="68px" height="68px" viewBox="0 0 68 68" version="1.1" xmlns="http://www.w3.org/2000/svg" xmlns:xlink="http://www.w3.org/1999/xlink">
    <title>Mandala-logo-small</title>
    <g id="shutdown" stroke="none" stroke-width="1" fill="none" fill-rule="evenodd">
        <g id="mandala-small-2" fill-rule="nonzero">
            <g id="mandala-small">
                <rect id="Rectangle" fill="#173DC9" x="0" y="0" width="68" height="68"></rect>
                <path d="M27.4699142,18.9591078 C28.0502343,18.9591078 28.5226388,19.4194318 28.5393253,19.9935703 L28.5397814,20.0249978 L28.5397814,25.3648698 L32.9554504,29.5853649 C33.2895761,29.5314156 33.684121,29.5028491 34.0606153,29.4998411 L34.1268657,29.4995756 C34.5808594,29.4995756 35.0749577,29.5768185 35.5325248,29.7115673 L35.6073241,29.7341898 L37.5632727,27.7856601 L37.5650125,27.7873199 L39.71395,25.6463832 L39.71395,20.0249978 C39.71395,19.4468351 40.1759915,18.9761868 40.7522724,18.9595622 L40.7838171,18.9591078 L48.1540134,18.9591078 C48.7343335,18.9591078 49.2067379,19.4194318 49.2234245,19.9935703 L49.2238806,20.0249978 L49.2238806,27.3677956 C49.2238806,27.9459583 48.761839,28.4166066 48.1855581,28.4332311 L48.1540134,28.4336855 L46.8647046,28.4336855 L46.8645753,28.5498536 L46.8649864,28.5499836 L46.8649423,30.0698267 L46.8916306,30.0845974 C48.3251747,30.8890218 49.2039794,32.4278558 49.2235468,34.1771487 L49.2238806,34.2368644 C49.2238806,35.959536 48.2784199,37.5197622 46.8072086,38.3540636 L46.7729337,38.3732282 L46.7729337,39.566196 L48.1540134,39.5663145 C48.7343335,39.5663145 49.2067379,40.0266384 49.2234245,40.600777 L49.2238806,40.6322044 L49.2238806,47.9750022 C49.2238806,48.5531649 48.761839,49.0238132 48.1855581,49.0404378 L48.1540134,49.0408922 L40.7838171,49.0408922 C40.203497,49.0408922 39.7310926,48.5805682 39.7144061,48.0064297 L39.71395,47.9750022 L39.71395,40.6322044 C39.71395,40.0540417 40.1759915,39.5833934 40.7522724,39.5667689 L40.7838171,39.5663145 L42.5779844,39.566196 L42.5779844,38.5515871 L42.5578666,38.5425448 C40.8860677,37.7816646 39.7385668,36.1322898 39.7143411,34.2961584 L39.71395,34.2368644 C39.71395,32.3591894 40.7938525,30.6989238 42.4420028,29.9368044 L42.507492,29.9071009 L42.507492,29.1035382 L38.6911307,32.9055772 L38.6974104,32.9263181 C38.8116002,33.3222253 38.8737725,33.7337465 38.8810981,34.1529283 L38.881831,34.2368644 C38.881831,36.8531969 36.7529605,38.9741533 34.1268657,38.9741533 C31.5007708,38.9741533 29.3719004,36.8531969 29.3719004,34.2368644 C29.3719004,33.7622376 29.4421334,33.2968393 29.5783555,32.8522079 L29.5995443,32.7845301 L26.3139186,29.5110672 L26.3234969,29.50119 L25.9245505,29.1036566 L25.9245505,30.0460218 L25.9445467,30.0561098 C27.498786,30.8534304 28.5179263,32.4188974 28.5394342,34.179988 L28.5397814,34.2368644 C28.5397814,35.9652797 27.5384277,37.5380451 26.0236009,38.3702561 L25.9245505,38.4230882 L25.9245505,39.5568399 L27.4699142,39.5663145 C28.0502343,39.5663145 28.5226388,40.0266384 28.5393253,40.600777 L28.5397814,40.6322044 L28.5397814,47.9750022 C28.5397814,48.5531649 28.0777398,49.0238132 27.5014589,49.0404378 L27.4699142,49.0408922 L20.0997179,49.0408922 C19.5193979,49.0408922 19.0469934,48.5805682 19.0303069,48.0064297 L19.0298507,47.9750022 L19.0298507,40.6322044 C19.0298507,40.0540417 19.4918924,39.5833934 20.0681732,39.5667689 L20.0997179,39.5663145 L21.6017068,39.5661196 L21.6018115,38.4464193 L21.5841077,38.4373283 C20.0506774,37.6393831 19.0512814,36.0596094 19.0301912,34.293887 L19.0298507,34.2368644 C19.0298507,32.4446345 20.0381776,30.8383996 21.5889289,30.0338392 L21.6791986,29.9882269 L21.6791783,28.4336825 L20.0997179,28.4336855 C19.5193979,28.4336855 19.0469934,27.9733616 19.0303069,27.399223 L19.0298507,27.3677956 L19.0298507,20.0249978 C19.0298507,19.4468351 19.4918924,18.9761868 20.0681732,18.9595622 L20.0997179,18.9591078 L27.4699142,18.9591078 Z M27.4699142,19.9065656 L20.0997179,19.9065656 C20.038755,19.9065656 19.9885104,19.9522852 19.9816436,20.0111861 L19.9808438,20.0249978 L19.9808438,27.3677956 C19.9808438,27.4285318 20.026734,27.4785898 20.0858547,27.485431 L20.0997179,27.4862278 L22.6330101,27.4862278 L22.6330101,30.3466153 L22.6300916,30.3464485 L22.6302391,30.6106082 L22.3359826,30.7314741 C20.9225687,31.3120343 19.9808438,32.687537 19.9808438,34.2368644 C19.9808438,35.7418776 20.8693787,37.0843968 22.2199368,37.6923142 L22.2672361,37.7132218 L22.5528395,37.8371686 L22.5528187,38.1340684 L22.5655884,38.1341015 L22.5655884,40.5137722 L20.0997179,40.5137722 C20.038755,40.5137722 19.9885104,40.5594918 19.9816436,40.6183927 L19.9808438,40.6322044 L19.9808438,47.9750022 C19.9808438,48.0357385 20.026734,48.0857964 20.0858547,48.0926376 L20.0997179,48.0934344 L27.4699142,48.0934344 C27.5308771,48.0934344 27.5811218,48.0477148 27.5879886,47.9888139 L27.5887884,47.9750022 L27.5887884,40.6322044 C27.5887884,40.5711567 27.5424263,40.5208971 27.4804814,40.5144598 L27.4669803,40.5137632 L24.9735574,40.498435 L24.9735574,37.8185307 L25.2557389,37.6934297 C26.6477352,37.0763088 27.5887884,35.7209186 27.5887884,34.2368644 C27.5887884,32.7423879 26.6835142,31.4139898 25.3090744,30.8027265 L24.9735574,30.6583625 L24.9735574,26.8162739 L30.4118851,32.2343849 L30.4020747,32.2441738 L30.7063538,32.547266 L30.5907139,32.8369127 C30.4145318,33.2782013 30.3228934,33.7508147 30.3228934,34.2368644 C30.3228934,36.3299304 32.0259898,38.0266955 34.1268657,38.0266955 C36.2277415,38.0266955 37.9308379,36.3299304 37.9308379,34.2368644 C37.9308379,33.8142317 37.861562,33.401682 37.7275194,33.0108439 L37.7016285,32.9378191 L37.5977759,32.6542366 L42.4586489,27.805886 L42.4620075,27.8088917 L43.4584851,26.8162739 L43.4584851,30.5589374 L43.1448205,30.6720465 C41.6611781,31.2070559 40.664943,32.6181425 40.664943,34.2368644 C40.664943,35.792148 41.6923765,37.2023951 43.1703164,37.7719794 L43.5290109,37.905195 L43.5290109,40.5137722 L40.7838171,40.5137722 C40.7228542,40.5137722 40.6726095,40.5594918 40.6657428,40.6183927 L40.664943,40.6322044 L40.664943,47.9750022 C40.664943,48.0357385 40.7108332,48.0857964 40.7699539,48.0926376 L40.7838171,48.0934344 L48.1540134,48.0934344 C48.2149763,48.0934344 48.265221,48.0477148 48.2720878,47.9888139 L48.2728875,47.9750022 L48.2728875,40.6322044 C48.2728875,40.5714682 48.2269973,40.5214102 48.1678766,40.514569 L48.1540134,40.5137722 L45.8219711,40.5137722 L45.8219711,37.7868037 L46.0923148,37.6579917 C47.4102937,37.0300075 48.2728875,35.7057948 48.2728875,34.2368644 C48.2728875,32.721714 47.4925863,31.4188473 46.2344558,30.8107882 L46.188214,30.788853 L45.9139933,30.6612083 L45.9137614,27.4862278 L48.1540134,27.4862278 C48.2149763,27.4862278 48.265221,27.4405082 48.2720878,27.3816073 L48.2728875,27.3677956 L48.2728875,20.0249978 C48.2728875,19.9642615 48.2269973,19.9142036 48.1678766,19.9073624 L48.1540134,19.9065656 L40.7838171,19.9065656 C40.7228542,19.9065656 40.6726095,19.9522852 40.6657428,20.0111861 L40.664943,20.0249978 L40.664943,26.0389207 L36.08721,30.5996361 L36.0853064,30.5977898 L35.8509223,30.8315526 L35.5625554,30.7211326 C35.1173762,30.5506669 34.5868794,30.4470334 34.1268657,30.4470334 C33.6576312,30.4470334 33.1351585,30.4953627 32.8387791,30.5763081 L32.8056007,30.5857918 L32.53344,30.6673021 L28.7257604,26.8737774 L28.7350464,26.8642841 L27.5887884,25.7689407 L27.5887884,20.0249978 C27.5887884,19.9642615 27.5428982,19.9142036 27.4837774,19.9073624 L27.4699142,19.9065656 Z M44.4689153,21.20932 C45.9132674,21.20932 47.0841462,22.3758461 47.0841462,23.8148289 C47.0841462,25.0500732 46.2213536,26.0845505 45.0634181,26.3527216 L45.0634181,31.6989717 C46.2213536,31.9671428 47.0841462,33.0016202 47.0841462,34.2368644 C47.0841462,35.4721087 46.2213536,36.5065861 45.0634181,36.7747572 L45.0634181,41.7657106 C46.2213536,42.0338817 47.0841462,43.068359 47.0841462,44.3036033 C47.0841462,45.7425861 45.9132674,46.9091122 44.4689153,46.9091122 C43.0245631,46.9091122 41.8536843,45.7425861 41.8536843,44.3036033 C41.8536843,42.9851618 42.8366141,41.8954424 44.1122266,41.7221259 L44.1122266,36.8183418 C42.8366141,36.6450254 41.8536843,35.555306 41.8536843,34.2368644 C41.8536843,32.9184229 42.8366141,31.8287035 44.1122266,31.6553871 L44.1122266,26.3963063 C43.7633673,26.3489071 43.4363987,26.232967 43.1454397,26.0625524 L36.3378246,32.8446143 C36.5938648,33.2473562 36.7420966,33.724864 36.7420966,34.2368644 C36.7420966,35.6758473 35.5712179,36.8423734 34.1268657,36.8423734 C32.6825135,36.8423734 31.5116347,35.6758473 31.5116347,34.2368644 C31.5116347,33.6317884 31.7186587,33.0748856 32.0659873,32.6326275 L25.3273719,25.9190598 C25.0166379,26.1455454 24.6538611,26.3053653 24.2602527,26.3773872 L24.2602527,31.6743062 C25.4776096,31.8970563 26.400047,32.9596374 26.400047,34.2368644 C26.400047,35.5140915 25.4776096,36.5766726 24.2602527,36.7994227 L24.2602527,41.741045 C25.4776096,41.9637951 26.400047,43.0263763 26.400047,44.3036033 C26.400047,45.7425861 25.2291682,46.9091122 23.7848161,46.9091122 C22.3404639,46.9091122 21.1695852,45.7425861 21.1695852,44.3036033 C21.1695852,43.0263763 22.0920225,41.9637951 23.3093795,41.741045 L23.3093795,36.7994227 C22.0920225,36.5766726 21.1695852,35.5140915 21.1695852,34.2368644 C21.1695852,32.9596374 22.0920225,31.8970563 23.3093795,31.6743062 L23.3093795,26.3773872 C22.0920225,26.1546371 21.1695852,25.092056 21.1695852,23.8148289 C21.1695852,22.3758461 22.3404639,21.20932 23.7848161,21.20932 C25.2291682,21.20932 26.400047,22.3758461 26.400047,23.8148289 C26.400047,24.3366188 26.2460927,24.8225844 25.9809706,25.2300981 L32.7793867,32.0033723 C33.1729224,31.767205 33.6339702,31.6313555 34.1268657,31.6313555 C34.7135388,31.6313555 35.2550928,31.8238157 35.6913883,32.1488201 L42.4250577,25.440507 C42.0674824,24.9948708 41.8536843,24.4297246 41.8536843,23.8148289 C41.8536843,22.3758461 43.0245631,21.20932 44.4689153,21.20932 Z M44.4689153,42.6455522 C43.5497821,42.6455522 42.8046774,43.387887 42.8046774,44.3036033 C42.8046774,45.2193197 43.5497821,45.9616545 44.4689153,45.9616545 C45.3880485,45.9616545 46.1331532,45.2193197 46.1331532,44.3036033 C46.1331532,43.387887 45.3880485,42.6455522 44.4689153,42.6455522 Z M23.7848161,42.6455522 C22.8656829,42.6455522 22.1205782,43.387887 22.1205782,44.3036033 C22.1205782,45.2193197 22.8656829,45.9616545 23.7848161,45.9616545 C24.7039492,45.9616545 25.4490539,45.2193197 25.4490539,44.3036033 C25.4490539,43.387887 24.7039492,42.6455522 23.7848161,42.6455522 Z M23.7848161,32.5788133 C22.8656829,32.5788133 22.1205782,33.3211481 22.1205782,34.2368644 C22.1205782,35.1525808 22.8656829,35.8949156 23.7848161,35.8949156 C24.7039492,35.8949156 25.4490539,35.1525808 25.4490539,34.2368644 C25.4490539,33.3211481 24.7039492,32.5788133 23.7848161,32.5788133 Z M44.4689153,32.5788133 C43.5497821,32.5788133 42.8046774,33.3211481 42.8046774,34.2368644 C42.8046774,35.1525808 43.5497821,35.8949156 44.4689153,35.8949156 C45.3880485,35.8949156 46.1331532,35.1525808 46.1331532,34.2368644 C46.1331532,33.3211481 45.3880485,32.5788133 44.4689153,32.5788133 Z M34.1268657,32.5788133 C33.2077325,32.5788133 32.4626278,33.3211481 32.4626278,34.2368644 C32.4626278,35.1525808 33.2077325,35.8949156 34.1268657,35.8949156 C35.0459989,35.8949156 35.7911036,35.1525808 35.7911036,34.2368644 C35.7911036,33.3211481 35.0459989,32.5788133 34.1268657,32.5788133 Z M23.7848161,22.1567778 C22.8656829,22.1567778 22.1205782,22.8991126 22.1205782,23.8148289 C22.1205782,24.7305453 22.8656829,25.47288 23.7848161,25.47288 C24.7039492,25.47288 25.4490539,24.7305453 25.4490539,23.8148289 C25.4490539,22.8991126 24.7039492,22.1567778 23.7848161,22.1567778 Z M44.4689153,22.1567778 C43.5497821,22.1567778 42.8046774,22.8991126 42.8046774,23.8148289 C42.8046774,24.7305453 43.5497821,25.47288 44.4689153,25.47288 C45.3880485,25.47288 46.1331532,24.7305453 46.1331532,23.8148289 C46.1331532,22.8991126 45.3880485,22.1567778 44.4689153,22.1567778 Z" id="Shape" fill="#FFFFFF"></path>
            </g>
        </g>
    </g>
</svg>