<?xml version="1.0" encoding="UTF-8"?>
<svg width="180px" height="24px" viewBox="0 0 180 24" version="1.1" xmlns="http://www.w3.org/2000/svg" xmlns:xlink="http://www.w3.org/1999/xlink">
    <!-- Generator: Sketch 63.1 (92452) - https://sketch.com -->
    <title>Mandala-logo</title>
    
    <defs>
        <polygon id="path-1" points="0.241704 0.260355853 12.314664 0.260355853 12.314664 12.2809365 0.241704 12.2809365"></polygon>
        <polygon id="path-3" points="0.299808 0.260283612 13.225248 0.260283612 13.225248 12.2809365 0.299808 12.2809365"></polygon>
        <polygon id="path-5" points="0.10296 0.260283612 13.0284 0.260283612 13.0284 12.2809365 0.10296 12.2809365"></polygon>
        <polygon id="path-7" points="0.264672 0.260283612 13.190112 0.260283612 13.190112 12.2809365 0.264672 12.2809365"></polygon>
        <polygon id="path-9" points="0.690768 0.260283612 13.616208 0.260283612 13.616208 12.2809365 0.690768 12.2809365"></polygon>
        <polygon id="path-11" points="0.494568 0.260283612 13.420008 0.260283612 13.420008 12.2809365 0.494568 12.2809365"></polygon>
    </defs>
    <g id="Page-1" stroke="none" stroke-width="1" fill="none" fill-rule="evenodd">
        <g id="Deposit-Liquidity" transform="translate(-108.000000, -126.000000)">
            <g id="acala-mandala-logo" transform="translate(108.000000, 126.000000)">
                <path d="M5.114664,7.93709699 L-0.000216,23.1936321 L4.699944,23.1936321 L5.573304,20.0273177 L10.206504,20.0273177 L11.058984,23.1936321 L15.897384,23.1936321 L10.759464,7.93709699 L5.114664,7.93709699 Z M7.257384,13.9244147 L7.878744,11.451612 L7.925544,11.451612 L8.570664,13.9482542 L9.385704,16.9758662 L6.414984,16.9758662 L7.257384,13.9244147 Z" id="Fill-1" fill="#173DC9"></path>
                <g id="Group-36" transform="translate(15.840000, 0.308324)">
                    <g id="Group-4" transform="translate(0.000000, 10.836120)">
                        <g id="Fill-2-Clipped">
                            <mask id="mask-2" fill="white">
                                <use xlink:href="#path-1"></use>
                            </mask>
                            <g id="path-1"></g>
                            <path d="M5.679144,3.75103144 C5.939784,3.56609498 6.263064,3.47362676 6.646824,3.47362676 C7.061544,3.47362676 7.387704,3.62749967 7.626024,3.93596789 C7.863624,4.24443612 7.991064,4.71400134 8.006184,5.34610836 L12.314664,4.02843612 C12.253464,3.3963291 12.007224,2.79167358 11.577384,2.21374716 C11.147544,1.63582074 10.513944,1.16553311 9.676584,0.803606689 C8.839224,0.441680268 7.775784,0.260355853 6.485544,0.260355853 C5.241384,0.260355853 4.150584,0.495138462 3.213864,0.965426087 C2.276424,1.43571371 1.547064,2.11766689 1.025064,3.01128562 C0.503064,3.90490435 0.241704,4.99140602 0.241704,6.27079064 C0.241704,7.55017525 0.503064,8.63667692 1.025064,9.53029565 C1.547064,10.4239144 2.292264,11.1058676 3.259944,11.5761552 C4.227624,12.0464428 5.371704,12.2812254 6.692904,12.2812254 C7.798824,12.2812254 8.758584,12.119406 9.572904,11.7957672 C10.386504,11.4721284 11.028024,11.0408508 11.496744,10.501212 C11.964744,9.96157324 12.230424,9.36052977 12.291624,8.69808161 L8.121384,7.38040936 C8.090424,7.73511171 8.013384,8.03924548 7.890984,8.29353311 C7.767864,8.54782074 7.610904,8.74070368 7.418664,8.87145953 C7.226424,9.00293779 6.977304,9.06795452 6.669864,9.06795452 C6.331464,9.06795452 6.028344,8.98704482 5.759784,8.82522542 C5.490504,8.66340602 5.283144,8.3823893 5.137704,7.98145284 C4.991544,7.58051639 4.918824,7.02570702 4.918824,6.31702475 C4.918824,5.62351304 4.980024,5.06870368 5.103144,4.65259666 C5.225544,4.23648963 5.417784,3.93596789 5.679144,3.75103144" id="Fill-2" fill="#173DC9" mask="url(#mask-2)"></path>
                        </g>
                    </g>
                    <g id="Group-7" transform="translate(12.960000, 10.836120)">
                        <g id="Fill-5-Clipped">
                            <mask id="mask-4" fill="white">
                                <use xlink:href="#path-3"></use>
                            </mask>
                            <g id="path-3"></g>
                            <path d="M7.038288,8.82515318 C6.907248,9.04909967 6.735168,9.21019666 6.519888,9.31061137 C6.304608,9.41102609 6.074208,9.46087224 5.828688,9.46087224 C5.491008,9.46087224 5.229648,9.38357458 5.045328,9.22970167 C4.861728,9.07582876 4.769568,8.85260468 4.769568,8.55930702 C4.769568,8.2515612 4.857408,8.01244415 5.033808,7.84267826 C5.210208,7.67291237 5.498208,7.54215652 5.897808,7.44968829 L7.234128,7.15566823 L7.234128,8.00449766 C7.234128,8.32813645 7.169328,8.6019291 7.038288,8.82515318 M11.865168,8.53618997 L11.865168,4.67564147 C11.865168,3.28861806 11.381328,2.20572843 10.413648,1.42769498 C9.446688,0.649661538 8.055648,0.260283612 6.243408,0.260283612 C4.476528,0.260283612 3.102048,0.607039465 2.119248,1.30055117 C1.136448,1.99406288 0.568368,2.95703278 0.415008,4.19018328 L4.331088,4.90681204 C4.423248,4.33683211 4.599648,3.93589565 4.861728,3.70472508 C5.122368,3.47355452 5.475168,3.35796923 5.920848,3.35796923 C6.335568,3.35796923 6.658848,3.48511304 6.888528,3.73940067 C7.118928,3.99368829 7.234128,4.34405619 7.234128,4.79122676 L7.234128,5.16760134 L3.432528,5.9470796 C2.387808,6.1630796 1.604448,6.54451104 1.083168,7.09137391 C0.560448,7.63823679 0.299808,8.32813645 0.299808,9.1603505 C0.299808,10.1623304 0.636768,10.9324174 1.312848,11.4727786 C1.988208,12.011695 2.925648,12.2811532 4.123728,12.2811532 C4.861728,12.2811532 5.537088,12.1540094 6.151968,11.8997217 C6.765408,11.6454341 7.257888,11.2871197 7.625808,10.8247786 C7.717968,10.7091933 7.799328,10.5892736 7.867728,10.4650194 C8.020368,10.9150796 8.268768,11.2921766 8.640288,11.5760829 C9.253728,12.0463706 10.083168,12.2811532 11.128608,12.2811532 C11.865168,12.2811532 12.495168,12.1496749 13.017888,11.8881632 L13.225248,9.39152107 C13.101408,9.45292575 12.925728,9.4839893 12.694608,9.4839893 C12.141648,9.4839893 11.865168,9.16829699 11.865168,8.53618997" id="Fill-5" fill="#173DC9" mask="url(#mask-4)"></path>
                        </g>
                    </g>
                    <path d="M32.981472,19.9730649 C32.596992,19.9730649 32.328432,19.8654261 32.175072,19.6494261 C32.020992,19.4341485 31.944672,19.0794462 31.944672,18.5860415 L31.944672,6.56517191 L27.290592,6.56517191 L27.290592,19.2564361 C27.290592,20.6434595 27.582192,21.6338809 28.166112,22.2269779 C28.749312,22.8207973 29.709792,23.1169846 31.046112,23.1169846 C31.537152,23.1169846 32.032512,23.0548575 32.532192,22.9320482 C33.030432,22.8092388 33.418512,22.6474194 33.694992,22.44659 L33.949152,19.8112455 C33.779232,19.8733726 33.622272,19.9152722 33.476112,19.9383893 C33.329952,19.9615064 33.165792,19.9730649 32.981472,19.9730649" id="Fill-8" fill="#173DC9"></path>
                    <g id="Group-12" transform="translate(34.560000, 10.836120)">
                        <g id="Fill-10-Clipped">
                            <mask id="mask-6" fill="white">
                                <use xlink:href="#path-5"></use>
                            </mask>
                            <g id="path-5"></g>
                            <path d="M6.84144,8.82515318 C6.7104,9.04909967 6.53832,9.21019666 6.32304,9.31061137 C6.10776,9.41102609 5.87736,9.46087224 5.63184,9.46087224 C5.29416,9.46087224 5.0328,9.38357458 4.84848,9.22970167 C4.66488,9.07582876 4.57272,8.85260468 4.57272,8.55930702 C4.57272,8.2515612 4.66056,8.01244415 4.83696,7.84267826 C5.01336,7.67291237 5.30136,7.54215652 5.70096,7.44968829 L7.03728,7.15566823 L7.03728,8.00449766 C7.03728,8.32813645 6.97248,8.6019291 6.84144,8.82515318 M11.66832,8.53618997 L11.66832,4.67564147 C11.66832,3.28861806 11.18448,2.20572843 10.2168,1.42769498 C9.24984,0.649661538 7.8588,0.260283612 6.04656,0.260283612 C4.27968,0.260283612 2.9052,0.607039465 1.9224,1.30055117 C0.9396,1.99406288 0.37152,2.95703278 0.21816,4.19018328 L4.13424,4.90681204 C4.2264,4.33683211 4.4028,3.93589565 4.66488,3.70472508 C4.92552,3.47355452 5.27832,3.35796923 5.724,3.35796923 C6.13872,3.35796923 6.462,3.48511304 6.69168,3.73940067 C6.92208,3.99368829 7.03728,4.34405619 7.03728,4.79122676 L7.03728,5.16760134 L3.23568,5.9470796 C2.19096,6.1630796 1.4076,6.54451104 0.88632,7.09137391 C0.3636,7.63823679 0.10296,8.32813645 0.10296,9.1603505 C0.10296,10.1623304 0.43992,10.9324174 1.116,11.4727786 C1.79136,12.011695 2.7288,12.2811532 3.92688,12.2811532 C4.66488,12.2811532 5.34024,12.1540094 5.95512,11.8997217 C6.56856,11.6454341 7.06104,11.2871197 7.42896,10.8247786 C7.52112,10.7091933 7.60248,10.5892736 7.67088,10.4650194 C7.82352,10.9150796 8.07192,11.2921766 8.44344,11.5760829 C9.05688,12.0463706 9.88632,12.2811532 10.93176,12.2811532 C11.66832,12.2811532 12.29832,12.1496749 12.82104,11.8881632 L13.0284,9.39152107 C12.90456,9.45292575 12.72888,9.4839893 12.49776,9.4839893 C11.9448,9.4839893 11.66832,9.16829699 11.66832,8.53618997" id="Fill-10" fill="#173DC9" mask="url(#mask-6)"></path>
                        </g>
                    </g>
                    <polygon id="Fill-13" fill="#173DC9" points="64.868184 14.864412 64.107144 17.8927465 64.061784 17.8927465 63.300744 14.864412 61.250904 7.62877324 54.615384 7.62877324 54.615384 22.8860308 58.762584 22.8860308 58.762584 16.7831278 58.670424 11.8591946 58.738824 11.8591946 62.033544 22.8860308 65.812824 22.8860308 69.152904 11.8591946 69.199704 11.8591946 69.107544 16.7831278 69.107544 22.8860308 73.254024 22.8860308 73.254024 7.62877324 66.918744 7.62877324"></polygon>
                    <g id="Group-17" transform="translate(74.880000, 10.836120)">
                        <g id="Fill-15-Clipped">
                            <mask id="mask-8" fill="white">
                                <use xlink:href="#path-7"></use>
                            </mask>
                            <g id="path-7"></g>
                            <path d="M7.003152,8.82515318 C6.872112,9.04909967 6.700032,9.21019666 6.484752,9.31061137 C6.269472,9.41102609 6.039072,9.46087224 5.793552,9.46087224 C5.455872,9.46087224 5.194512,9.38357458 5.010192,9.22970167 C4.826592,9.07582876 4.734432,8.85260468 4.734432,8.55930702 C4.734432,8.2515612 4.822272,8.01244415 4.998672,7.84267826 C5.175072,7.67291237 5.463072,7.54215652 5.862672,7.44968829 L7.198992,7.15566823 L7.198992,8.00449766 C7.198992,8.32813645 7.134192,8.6019291 7.003152,8.82515318 M11.830032,8.53618997 L11.830032,4.67564147 C11.830032,3.28861806 11.346192,2.20572843 10.378512,1.42769498 C9.411552,0.649661538 8.020512,0.260283612 6.208272,0.260283612 C4.441392,0.260283612 3.066912,0.607039465 2.084112,1.30055117 C1.101312,1.99406288 0.533232,2.95703278 0.379872,4.19018328 L4.295952,4.90681204 C4.388112,4.33683211 4.564512,3.93589565 4.826592,3.70472508 C5.087232,3.47355452 5.440032,3.35796923 5.885712,3.35796923 C6.300432,3.35796923 6.623712,3.48511304 6.853392,3.73940067 C7.083792,3.99368829 7.198992,4.34405619 7.198992,4.79122676 L7.198992,5.16760134 L3.397392,5.9470796 C2.352672,6.1630796 1.569312,6.54451104 1.048032,7.09137391 C0.525312,7.63823679 0.264672,8.32813645 0.264672,9.1603505 C0.264672,10.1623304 0.601632,10.9324174 1.277712,11.4727786 C1.953072,12.011695 2.890512,12.2811532 4.088592,12.2811532 C4.826592,12.2811532 5.501952,12.1540094 6.116832,11.8997217 C6.730272,11.6454341 7.222752,11.2871197 7.590672,10.8247786 C7.682832,10.7091933 7.764192,10.5892736 7.832592,10.4650194 C7.985232,10.9150796 8.233632,11.2921766 8.605152,11.5760829 C9.218592,12.0463706 10.048032,12.2811532 11.093472,12.2811532 C11.830032,12.2811532 12.460032,12.1496749 12.982752,11.8881632 L13.190112,9.39152107 C13.066272,9.45292575 12.890592,9.4839893 12.659472,9.4839893 C12.106512,9.4839893 11.830032,9.16829699 11.830032,8.53618997" id="Fill-15" fill="#173DC9" mask="url(#mask-8)"></path>
                        </g>
                    </g>
                    <path d="M99.485856,11.5472589 C98.924976,11.2467371 98.252496,11.0964763 97.469136,11.0964763 C96.670656,11.0964763 95.967936,11.2582957 95.360976,11.5819344 C94.754736,11.9055732 94.258656,12.3794729 93.875616,13.0036334 C93.731616,13.2369712 93.612096,13.4963157 93.504096,13.7686635 L93.391056,11.3276468 L89.198496,11.3276468 L89.198496,22.8854528 L93.852576,22.8854528 L93.852576,16.7832722 C93.852576,16.2595264 93.917376,15.8354729 94.047696,15.5118341 C94.178736,15.1881953 94.363056,14.9534127 94.601376,14.8067639 C94.838976,14.6601151 95.103936,14.5871518 95.395536,14.5871518 C95.780016,14.5871518 96.075936,14.7070716 96.283296,14.9454662 C96.490656,15.1845833 96.593616,15.6274194 96.593616,16.274697 L96.593616,22.8854528 L101.247696,22.8854528 L101.247696,15.07261 C101.247696,14.2093324 101.094336,13.4811452 100.787616,12.8880482 C100.480176,12.2949512 100.046016,11.8477806 99.485856,11.5472589" id="Fill-18" fill="#173DC9"></path>
                    <path d="M110.82096,18.5861137 C110.68992,18.9870502 110.50992,19.2875719 110.27952,19.4876789 C110.04984,19.6885084 109.76472,19.7882007 109.42704,19.7882007 C108.90504,19.7882007 108.49752,19.5880936 108.20592,19.1871572 C107.91432,18.7869431 107.76816,18.0934314 107.76816,17.1066221 C107.76816,16.1205351 107.91792,15.4306355 108.21744,15.0376455 C108.51696,14.6446555 108.92016,14.4481605 109.42704,14.4481605 C109.78056,14.4481605 110.07576,14.5485753 110.31408,14.7486823 C110.5524,14.9495117 110.7288,15.245699 110.844,15.638689 C110.9592,16.0316789 111.0168,16.5135251 111.0168,17.083505 C111.0168,17.6845485 110.952,18.1858997 110.82096,18.5861137 L110.82096,18.5861137 Z M111.0168,13.3118127 C110.82024,12.8682542 110.5668,12.4723746 110.25648,12.1248963 C109.6416,11.4393311 108.78984,11.0961873 107.69904,11.0961873 C106.7616,11.0961873 105.9444,11.3353043 105.24528,11.8128161 C104.54616,12.2910502 104.01264,12.9802274 103.644,13.8817926 C103.27608,14.7833579 103.09176,15.874194 103.09176,17.1528562 C103.09176,18.4011773 103.27176,19.4725084 103.6332,20.3661271 C103.99392,21.2604682 104.51592,21.941699 105.1992,22.4119866 C105.8832,22.8829967 106.6932,23.1170569 107.62992,23.1170569 C108.39816,23.1170569 109.06992,22.9480134 109.64592,22.609204 C110.22192,22.2696722 110.68992,21.796495 111.05136,21.1867826 C111.15864,21.006903 111.25008,20.8161873 111.33288,20.6211371 L111.4776,22.8858863 L115.67088,22.8858863 L115.67088,6.56524415 L111.0168,6.56524415 L111.0168,13.3118127 Z" id="Fill-20" fill="#173DC9"></path>
                    <g id="Group-24" transform="translate(116.640000, 10.836120)">
                        <g id="Fill-22-Clipped">
                            <mask id="mask-10" fill="white">
                                <use xlink:href="#path-9"></use>
                            </mask>
                            <g id="path-9"></g>
                            <path d="M7.429248,8.82515318 C7.298208,9.04909967 7.126128,9.21019666 6.910848,9.31061137 C6.695568,9.41102609 6.465168,9.46087224 6.219648,9.46087224 C5.881968,9.46087224 5.620608,9.38357458 5.436288,9.22970167 C5.252688,9.07582876 5.160528,8.85260468 5.160528,8.55930702 C5.160528,8.2515612 5.248368,8.01244415 5.424768,7.84267826 C5.601168,7.67291237 5.889168,7.54215652 6.288768,7.44968829 L7.625088,7.15566823 L7.625088,8.00449766 C7.625088,8.32813645 7.560288,8.6019291 7.429248,8.82515318 M12.256128,8.53618997 L12.256128,4.67564147 C12.256128,3.28861806 11.772288,2.20572843 10.804608,1.42769498 C9.837648,0.649661538 8.446608,0.260283612 6.634368,0.260283612 C4.867488,0.260283612 3.493008,0.607039465 2.510208,1.30055117 C1.527408,1.99406288 0.959328,2.95703278 0.805968,4.19018328 L4.722048,4.90681204 C4.814208,4.33683211 4.990608,3.93589565 5.252688,3.70472508 C5.513328,3.47355452 5.866128,3.35796923 6.311808,3.35796923 C6.726528,3.35796923 7.049808,3.48511304 7.279488,3.73940067 C7.509888,3.99368829 7.625088,4.34405619 7.625088,4.79122676 L7.625088,5.16760134 L3.823488,5.9470796 C2.778768,6.1630796 1.995408,6.54451104 1.474128,7.09137391 C0.951408,7.63823679 0.690768,8.32813645 0.690768,9.1603505 C0.690768,10.1623304 1.027728,10.9324174 1.703808,11.4727786 C2.379168,12.011695 3.316608,12.2811532 4.514688,12.2811532 C5.252688,12.2811532 5.928048,12.1540094 6.542928,11.8997217 C7.156368,11.6454341 7.648848,11.2871197 8.016768,10.8247786 C8.108928,10.7091933 8.190288,10.5892736 8.258688,10.4650194 C8.411328,10.9150796 8.659728,11.2921766 9.031248,11.5760829 C9.644688,12.0463706 10.474128,12.2811532 11.519568,12.2811532 C12.256128,12.2811532 12.886128,12.1496749 13.408848,11.8881632 L13.616208,9.39152107 C13.492368,9.45292575 13.316688,9.4839893 13.085568,9.4839893 C12.532608,9.4839893 12.256128,9.16829699 12.256128,8.53618997" id="Fill-22" fill="#173DC9" mask="url(#mask-10)"></path>
                        </g>
                    </g>
                    <path d="M137.052432,19.9730649 C136.667952,19.9730649 136.399392,19.8654261 136.246032,19.6494261 C136.091952,19.4341485 136.015632,19.0794462 136.015632,18.5860415 L136.015632,6.56517191 L131.361552,6.56517191 L131.361552,19.2564361 C131.361552,20.6434595 131.653152,21.6338809 132.237072,22.2269779 C132.820272,22.8207973 133.780752,23.1169846 135.117072,23.1169846 C135.608112,23.1169846 136.103472,23.0548575 136.603152,22.9320482 C137.101392,22.8092388 137.489472,22.6474194 137.765952,22.44659 L138.020112,19.8112455 C137.850192,19.8733726 137.693232,19.9152722 137.547072,19.9383893 C137.400912,19.9615064 137.236752,19.9730649 137.052432,19.9730649" id="Fill-25" fill="#173DC9"></path>
                    <g id="Group-29" transform="translate(138.240000, 10.836120)">
                        <g id="Fill-27-Clipped">
                            <mask id="mask-12" fill="white">
                                <use xlink:href="#path-11"></use>
                            </mask>
                            <g id="path-11"></g>
                            <path d="M7.233048,8.82515318 C7.102008,9.04909967 6.929928,9.21019666 6.714648,9.31061137 C6.499368,9.41102609 6.268968,9.46087224 6.023448,9.46087224 C5.685768,9.46087224 5.424408,9.38357458 5.240088,9.22970167 C5.056488,9.07582876 4.964328,8.85260468 4.964328,8.55930702 C4.964328,8.2515612 5.052168,8.01244415 5.228568,7.84267826 C5.404968,7.67291237 5.692968,7.54215652 6.092568,7.44968829 L7.428888,7.15566823 L7.428888,8.00449766 C7.428888,8.32813645 7.364088,8.6019291 7.233048,8.82515318 M12.889368,9.4839893 C12.336408,9.4839893 12.059928,9.16829699 12.059928,8.53618997 L12.059928,4.67564147 C12.059928,3.28861806 11.576088,2.20572843 10.608408,1.42769498 C9.641448,0.649661538 8.250408,0.260283612 6.438168,0.260283612 C4.671288,0.260283612 3.296808,0.607039465 2.314008,1.30055117 C1.331208,1.99406288 0.763128,2.95703278 0.609768,4.19018328 L4.525848,4.90681204 C4.618008,4.33683211 4.794408,3.93589565 5.056488,3.70472508 C5.317128,3.47355452 5.669928,3.35796923 6.115608,3.35796923 C6.530328,3.35796923 6.853608,3.48511304 7.083288,3.73940067 C7.313688,3.99368829 7.428888,4.34405619 7.428888,4.79122676 L7.428888,5.16760134 L3.627288,5.9470796 C2.582568,6.1630796 1.799208,6.54451104 1.277928,7.09137391 C0.755208,7.63823679 0.494568,8.32813645 0.494568,9.1603505 C0.494568,10.1623304 0.831528,10.9324174 1.507608,11.4727786 C2.182968,12.011695 3.120408,12.2811532 4.318488,12.2811532 C5.056488,12.2811532 5.731848,12.1540094 6.346728,11.8997217 C6.960168,11.6454341 7.452648,11.2871197 7.820568,10.8247786 C7.912728,10.7091933 7.993368,10.5892736 8.062488,10.4650194 C8.215128,10.9150796 8.463528,11.2921766 8.835048,11.5760829 C9.448488,12.0463706 10.277928,12.2811532 11.323368,12.2811532 C12.059928,12.2811532 12.689928,12.1496749 13.212648,11.8881632 L13.420008,9.39152107 C13.296168,9.45292575 13.120488,9.4839893 12.889368,9.4839893" id="Fill-27" fill="#173DC9" mask="url(#mask-12)"></path>
                        </g>
                    </g>
                    <path d="M152.021232,6.19334849 C152.050752,6.97138194 152.103312,7.74797057 152.178912,8.52166957 C152.670672,9.12271304 153.181152,9.70858595 153.708912,10.2800107 C154.278432,10.8095358 154.861632,11.3210007 155.460672,11.8144054 C156.232512,11.8902582 157.005792,11.942994 157.781232,11.9726127 C158.556672,11.942994 159.330672,11.8902582 160.102512,11.8144054 C160.700832,11.3210007 161.284752,10.8095358 161.854272,10.2800107 C162.382032,9.70858595 162.892512,9.12271304 163.383552,8.52166957 C163.459872,7.74797057 163.511712,6.97138194 163.541232,6.19334849 C163.511712,5.41531505 163.459872,4.63872642 163.383552,3.86502742 C162.892512,3.26398395 162.382032,2.67811104 161.854272,2.10668629 C161.284752,1.5771612 160.700832,1.06497391 160.102512,0.572291639 C159.330672,0.495716388 158.556672,0.44370301 157.781232,0.414084281 C157.005792,0.44370301 156.232512,0.495716388 155.460672,0.572291639 C154.861632,1.06497391 154.278432,1.5771612 153.708912,2.10668629 C153.181152,2.67811104 152.670672,3.26398395 152.178912,3.86502742 C152.103312,4.63872642 152.050752,5.41531505 152.021232,6.19334849 M154.343232,7.62227157 C153.922032,7.12525485 153.484272,6.6434087 153.015552,6.19334849 C153.484272,5.74328829 153.922032,5.26144214 154.343232,4.76442542 C154.395792,4.11425819 154.426032,3.46264615 154.410912,2.81175652 C155.060352,2.82620468 155.709072,2.79586355 156.357072,2.74312776 C156.853152,2.32124147 157.332672,1.88201739 157.781232,1.41100736 C158.229792,1.88201739 158.710032,2.32124147 159.206112,2.74312776 C159.854112,2.79586355 160.502832,2.82620468 161.152272,2.81175652 C161.137152,3.46264615 161.167392,4.11425819 161.219952,4.76442542 C161.640432,5.26144214 162.078912,5.74328829 162.547632,6.19334849 C162.078912,6.6434087 161.640432,7.12525485 161.219952,7.62227157 C161.167392,8.2724388 161.137152,8.92332843 161.152272,9.57494047 C160.502832,9.5597699 159.854112,9.59011104 159.206112,9.64284682 C158.710032,10.0654555 158.229792,10.5046796 157.781232,10.9756896 C157.332672,10.5046796 156.853152,10.0654555 156.357072,9.64284682 C155.709072,9.59011104 155.060352,9.5597699 154.410912,9.57494047 C154.426032,8.92332843 154.395792,8.2724388 154.343232,7.62227157 M155.649312,11.3571211 C155.121552,10.921509 154.603872,10.4721712 154.097712,10.0098301 C154.797552,9.96937525 155.497392,9.98599064 156.195792,10.034392 C156.723552,10.4960107 157.230432,10.9800241 157.696992,11.5052147 C157.012992,11.4734288 156.330432,11.424305 155.649312,11.3571211 M159.913152,11.3571211 C159.232752,11.424305 158.549472,11.4734288 157.866192,11.5052147 C158.332752,10.9800241 158.838912,10.4960107 159.367392,10.034392 C160.065792,9.98599064 160.765632,9.96937525 161.464752,10.0098301 C160.959312,10.4721712 160.441632,10.921509 159.913152,11.3571211 M162.927792,8.33239866 C162.494352,8.86264615 162.046512,9.38205753 161.584992,9.88918796 C161.544672,9.18700736 161.561232,8.48554916 161.609472,7.78409097 C162.069552,7.25456589 162.552672,6.74599064 163.076112,6.27859264 C163.044432,6.96415786 162.994752,7.64900067 162.927792,8.33239866 M162.927792,4.05429833 C162.994752,4.73697391 163.044432,5.42253913 163.076112,6.10810435 C162.552672,5.63998395 162.069552,5.1321311 161.609472,4.60188361 C161.561232,3.90114783 161.544672,3.19896722 161.584992,2.49750903 C162.046512,3.00463946 162.494352,3.52405084 162.927792,4.05429833 M159.913152,1.02957592 C160.441632,1.46518796 160.959312,1.91452575 161.464752,2.37686689 C160.765632,2.41732174 160.065792,2.40070635 159.367392,2.35230502 C158.838912,1.89068629 158.332752,1.40667291 157.866192,0.880759866 C158.549472,0.913268227 159.232752,0.962391973 159.913152,1.02957592 M155.649312,1.02957592 C156.330432,0.962391973 157.012992,0.913268227 157.696992,0.880759866 C157.230432,1.40667291 156.723552,1.89068629 156.195792,2.35230502 C155.497392,2.40070635 154.797552,2.41732174 154.097712,2.37686689 C154.603872,1.91452575 155.121552,1.46518796 155.649312,1.02957592 M152.635392,4.05429833 C153.068832,3.52405084 153.516672,3.00463946 153.978192,2.49750903 C154.017792,3.19896722 154.001952,3.90114783 153.953712,4.60188361 C153.493632,5.1321311 153.010512,5.63998395 152.487072,6.10810435 C152.518752,5.42253913 152.568432,4.73697391 152.635392,4.05429833 M152.635392,8.33239866 C152.568432,7.64900067 152.518752,6.96415786 152.487072,6.27859264 C153.010512,6.74599064 153.493632,7.25456589 153.953712,7.78409097 C154.001952,8.48554916 154.017792,9.18700736 153.978192,9.88918796 C153.516672,9.38205753 153.068832,8.86264615 152.635392,8.33239866" id="Fill-30" fill="#173DC9"></path>
                    <path d="M155.892672,10.7680696 C155.881872,10.7615679 155.871072,10.752899 155.860272,10.7435077 C155.737152,10.6105846 155.884032,10.4205913 156.025872,10.446598 C156.143952,10.5282301 156.114432,10.7673472 155.933712,10.7738488 C155.918592,10.7731264 155.905632,10.7709592 155.892672,10.7680696 M159.669792,10.7680696 C159.657552,10.7709592 159.644592,10.7731264 159.629472,10.7738488 C159.448032,10.7673472 159.419232,10.5282301 159.537312,10.446598 C159.678432,10.4205913 159.826032,10.6105846 159.702192,10.7435077 C159.692112,10.752899 159.681312,10.7615679 159.669792,10.7680696 M162.340992,8.08865819 C162.334512,8.09949431 162.326592,8.11033043 162.316512,8.12044415 C162.183312,8.24469833 161.995392,8.09660468 162.021312,7.95501271 C162.101952,7.83653779 162.340272,7.86615652 162.346752,8.04748094 C162.346032,8.0619291 162.343872,8.07565485 162.340992,8.08865819 M162.340992,4.29818328 C162.343872,4.31118662 162.346032,4.32418997 162.346752,4.33863813 C162.340272,4.52068495 162.101952,4.55030368 162.021312,4.43182876 C161.995392,4.29023679 162.183312,4.14214314 162.316512,4.26639732 C162.326592,4.27651104 162.334512,4.28734716 162.340992,4.29818328 M159.669792,1.61877191 C159.681312,1.62527358 159.692112,1.63322007 159.702192,1.64333378 C159.826032,1.77625686 159.678432,1.96552776 159.537312,1.94024348 C159.419232,1.85861137 159.448032,1.61949431 159.629472,1.61299264 C159.644592,1.61371505 159.657552,1.61588227 159.669792,1.61877191 M155.892672,1.61877191 C155.905632,1.61588227 155.918592,1.61371505 155.933712,1.61299264 C156.114432,1.61949431 156.143952,1.85861137 156.025872,1.94024348 C155.884032,1.96552776 155.737152,1.77625686 155.860272,1.64333378 C155.871072,1.63322007 155.881872,1.62527358 155.892672,1.61877191 M153.222192,4.29818328 C153.228672,4.28734716 153.237312,4.27651104 153.246672,4.26639732 C153.379152,4.14214314 153.567792,4.29023679 153.541872,4.43182876 C153.460512,4.55030368 153.222912,4.52068495 153.216432,4.33863813 C153.217152,4.32418997 153.218592,4.31118662 153.222192,4.29818328 M153.222192,8.08865819 C153.218592,8.07565485 153.217152,8.0619291 153.216432,8.04748094 C153.222912,7.86615652 153.460512,7.83653779 153.541872,7.95501271 C153.567792,8.09660468 153.379152,8.24469833 153.246672,8.12044415 C153.237312,8.11033043 153.228672,8.09949431 153.222192,8.08865819 M156.123792,10.2096482 C155.970432,10.1655813 155.791872,10.2067585 155.678832,10.3180094 C155.517552,10.4776615 155.519712,10.7319492 155.656512,10.9024375 C155.662272,10.9111064 155.668752,10.9190528 155.677392,10.9269993 C155.685312,10.9356682 155.693952,10.9421699 155.701872,10.9479492 C155.730672,10.9710662 155.761632,10.9905712 155.794752,11.0057418 C155.828592,11.0180227 155.864592,11.0266916 155.901312,11.0310261 C155.910672,11.0324709 155.921472,11.0339157 155.933712,11.0331933 C155.944512,11.0339157 155.955312,11.0324709 155.966112,11.0303037 C156.181392,11.0071866 156.362832,10.8287518 156.361392,10.6019157 C156.359952,10.442986 156.262752,10.2869458 156.123792,10.2096482 M159.439392,10.2096482 C159.300432,10.2869458 159.203232,10.442986 159.201783,10.6019157 C159.200352,10.8287518 159.381072,11.0071866 159.597792,11.0303037 C159.607152,11.0324709 159.618672,11.0339157 159.629472,11.0331933 C159.641712,11.0339157 159.652512,11.0324709 159.661872,11.0310261 C159.698592,11.0266916 159.734592,11.0180227 159.768432,11.0057418 C159.801552,10.9905712 159.832512,10.9710662 159.861312,10.9479492 C159.869232,10.9421699 159.877872,10.9356682 159.885792,10.9269993 C159.894432,10.9190528 159.900912,10.9111064 159.906672,10.9024375 C160.043472,10.7319492 160.045632,10.4776615 159.884352,10.3180094 C159.771312,10.2067585 159.592752,10.1655813 159.439392,10.2096482 M161.784432,7.85676522 C161.740512,8.01063813 161.781552,8.18979532 161.892432,8.30249097 C162.051552,8.46503278 162.304992,8.46214314 162.474912,8.32560803 C162.482832,8.31982876 162.491472,8.31332709 162.499392,8.30465819 C162.508032,8.29671171 162.514512,8.28804281 162.520272,8.28009632 C162.543312,8.2512 162.562752,8.21941405 162.577872,8.18690569 C162.590832,8.1522301 162.598752,8.11683211 162.602352,8.0799893 C162.604512,8.06987559 162.605952,8.05903946 162.605232,8.04748094 C162.605952,8.03592241 162.604512,8.0258087 162.602352,8.01497258 C162.579312,7.79825017 162.401472,7.61620334 162.175392,7.61837057 C162.016992,7.61909298 161.861472,7.71734047 161.784432,7.85676522 M161.784432,4.53007625 C161.861472,4.669501 162.016992,4.76702609 162.175392,4.7684709 C162.401472,4.76991572 162.579312,4.5885913 162.602352,4.37114649 C162.604512,4.36103278 162.605952,4.35019666 162.605232,4.33863813 C162.605952,4.3270796 162.604512,4.31624348 162.602352,4.30685217 C162.598752,4.27000936 162.590832,4.23388896 162.577872,4.19993579 C162.562752,4.16670502 162.543312,4.13564147 162.520272,4.10674515 C162.514512,4.09879866 162.508032,4.09012977 162.499392,4.08218328 C162.491472,4.07351438 162.482832,4.06701271 162.474912,4.06123344 C162.304992,3.92397592 162.051552,3.9218087 161.892432,4.08362809 C161.781552,4.19704615 161.740512,4.37620334 161.784432,4.53007625 M159.439392,2.17719331 C159.592752,2.22053779 159.771312,2.18008294 159.884352,2.06883211 C160.045632,1.90917993 160.043472,1.65489231 159.906672,1.48440401 C159.900912,1.47573512 159.894432,1.46706622 159.885792,1.45984214 C159.877872,1.45117324 159.869232,1.44467157 159.861312,1.43889231 C159.832512,1.41577525 159.801552,1.39627023 159.768432,1.38037726 C159.734592,1.36809632 159.698592,1.36014983 159.661872,1.35581538 C159.652512,1.35364816 159.641712,1.35292575 159.629472,1.35292575 C159.618672,1.35292575 159.607152,1.35364816 159.597792,1.35581538 C159.381072,1.37965485 159.200352,1.55736722 159.201783,1.78492575 C159.203232,1.94385552 159.300432,2.09989565 159.439392,2.17719331 M156.123792,2.17719331 C156.262752,2.09989565 156.359952,1.94385552 156.361392,1.78492575 C156.362832,1.55736722 156.181392,1.37965485 155.966112,1.35581538 C155.955312,1.35364816 155.944512,1.35292575 155.933712,1.35292575 C155.921472,1.35292575 155.910672,1.35364816 155.901312,1.35581538 C155.864592,1.36014983 155.828592,1.36809632 155.794752,1.38037726 C155.761632,1.39627023 155.730672,1.41577525 155.701872,1.43889231 C155.693952,1.44467157 155.685312,1.45117324 155.677392,1.45984214 C155.668752,1.46706622 155.662272,1.47573512 155.656512,1.48440401 C155.519712,1.65489231 155.517552,1.90917993 155.678832,2.06883211 C155.791872,2.18008294 155.970432,2.22053779 156.123792,2.17719331 M153.778752,4.53007625 C153.822672,4.37620334 153.781632,4.19704615 153.670752,4.08362809 C153.511632,3.9218087 153.258192,3.92397592 153.088272,4.06123344 C153.079632,4.06701271 153.071712,4.07351438 153.063072,4.08218328 C153.055152,4.09012977 153.048672,4.09879866 153.042912,4.10674515 C153.019872,4.13564147 152.999712,4.16670502 152.985312,4.19993579 C152.972352,4.23388896 152.964432,4.27000936 152.960112,4.30685217 C152.958672,4.31624348 152.957232,4.3270796 152.957952,4.33863813 C152.957232,4.35019666 152.958672,4.36103278 152.960832,4.37114649 C152.983872,4.5885913 153.161712,4.76991572 153.387792,4.7684709 C153.546192,4.76702609 153.701712,4.669501 153.778752,4.53007625 M153.778752,7.85676522 C153.701712,7.71734047 153.546192,7.61909298 153.387792,7.61837057 C153.161712,7.61620334 152.983872,7.79825017 152.960832,8.01497258 C152.958672,8.0258087 152.957232,8.03592241 152.957952,8.04748094 C152.957232,8.05903946 152.958672,8.06987559 152.960112,8.0799893 C152.964432,8.11683211 152.972352,8.1522301 152.985312,8.18690569 C152.999712,8.21941405 153.019872,8.2512 153.042912,8.28009632 C153.048672,8.28804281 153.055152,8.29671171 153.063072,8.30465819 C153.071712,8.31332709 153.079632,8.31982876 153.088272,8.32560803 C153.258192,8.46214314 153.511632,8.46503278 153.670752,8.30249097 C153.781632,8.18979532 153.822672,8.01063813 153.778752,7.85676522" id="Fill-32" fill="#173DC9"></path>
                    <path d="M155.426472,7.17185017 C155.283192,7.0035291 155.137032,6.83665284 154.988712,6.67338863 C155.208312,6.73190368 155.449512,6.72395719 155.722392,6.61126154 C155.958552,6.51373645 156.142152,6.36925485 156.283272,6.1937097 C156.142152,6.01744214 155.958552,5.87296054 155.722392,5.77471304 C155.449512,5.6627398 155.208312,5.65479331 154.988712,5.71330836 C155.137032,5.55004415 155.283192,5.38316789 155.426472,5.21484682 C155.443752,4.99306756 155.458152,4.7720107 155.468232,4.55095385 C155.583432,4.74889365 155.758392,4.91432508 156.031272,5.02846555 C156.266712,5.12671304 156.498552,5.15488696 156.722472,5.13032508 C156.746232,4.9063786 156.718152,4.6730408 156.620232,4.43681338 C156.506472,4.16302074 156.341592,3.98747559 156.144312,3.87261271 C156.365352,3.86177659 156.585672,3.84805084 156.805992,3.83071304 C156.973752,3.68623144 157.140072,3.54030502 157.302792,3.39076656 C157.244472,3.61182341 157.252392,3.8538301 157.364712,4.12762274 C157.461912,4.36385017 157.605912,4.54878662 157.781592,4.6903786 C157.957272,4.54878662 158.101272,4.36385017 158.198472,4.12762274 C158.310792,3.8538301 158.318712,3.61182341 158.260392,3.39076656 C158.422392,3.54030502 158.589432,3.68623144 158.757192,3.83071304 C158.977512,3.84805084 159.197832,3.86177659 159.418152,3.87261271 C159.221592,3.98747559 159.055992,4.16302074 158.942952,4.43681338 C158.844312,4.6730408 158.816232,4.9063786 158.840712,5.13032508 C159.064632,5.15488696 159.296472,5.12671304 159.531912,5.02846555 C159.804792,4.91432508 159.979752,4.74889365 160.094232,4.55095385 C160.105032,4.7720107 160.119432,4.99306756 160.135992,5.21484682 C160.279992,5.38316789 160.425432,5.55004415 160.574472,5.71330836 C160.354152,5.65479331 160.113672,5.6627398 159.840792,5.77471304 C159.604632,5.87296054 159.420312,6.01744214 159.279192,6.1937097 C159.420312,6.36925485 159.604632,6.51373645 159.840792,6.61126154 C160.113672,6.72395719 160.354152,6.73190368 160.574472,6.67338863 C160.425432,6.83665284 160.279992,7.0035291 160.135992,7.17185017 C160.119432,7.39290702 160.105032,7.61468629 160.094232,7.83574314 C159.979752,7.63780334 159.804792,7.47237191 159.531912,7.35823144 C159.296472,7.25998395 159.064632,7.23181003 158.840712,7.2556495 C158.816232,7.48031839 158.844312,7.71365619 158.942952,7.94988361 C159.055992,8.22295385 159.221592,8.3992214 159.418152,8.51408428 C159.197832,8.5249204 158.977512,8.53864615 158.757192,8.55598395 C158.589432,8.70046555 158.422392,8.84639197 158.260392,8.99593043 C158.318712,8.77487358 158.310792,8.53286689 158.198472,8.25907425 C158.101272,8.02212441 157.957272,7.83791037 157.781592,7.69631839 C157.605912,7.83791037 157.461912,8.02212441 157.364712,8.25907425 C157.252392,8.53286689 157.244472,8.77487358 157.302792,8.99593043 C157.140072,8.84639197 156.973752,8.70046555 156.805992,8.55598395 C156.585672,8.53864615 156.365352,8.5249204 156.144312,8.51408428 C156.341592,8.3992214 156.506472,8.22295385 156.620232,7.94988361 C156.718152,7.71365619 156.746232,7.48031839 156.722472,7.2556495 C156.498552,7.23181003 156.266712,7.25998395 156.031272,7.35823144 C155.758392,7.47237191 155.583432,7.63780334 155.468232,7.83574314 C155.458152,7.61468629 155.443752,7.39290702 155.426472,7.17185017 M157.497912,6.1937097 C157.477752,6.24211104 157.455432,6.29051237 157.433112,6.3381913 C157.482792,6.3555291 157.532472,6.37431171 157.580712,6.39453913 C157.600872,6.44366288 157.619592,6.49278662 157.636872,6.54263278 C157.685112,6.52023813 157.732632,6.49856589 157.781592,6.47833846 C157.830552,6.49856589 157.878072,6.52023813 157.925592,6.54263278 C157.943592,6.49278662 157.961592,6.44366288 157.982472,6.39453913 C158.030712,6.37431171 158.080392,6.3555291 158.129352,6.3381913 C158.107752,6.29051237 158.085432,6.24211104 158.065272,6.1937097 C158.085432,6.14458595 158.107752,6.09618462 158.129352,6.04850569 C158.080392,6.03044548 158.030712,6.01238528 157.982472,5.99215786 C157.961592,5.94303411 157.943592,5.89318796 157.925592,5.84406421 C157.878072,5.86645886 157.830552,5.8881311 157.781592,5.90835853 C157.732632,5.8881311 157.685112,5.86645886 157.636872,5.84406421 C157.619592,5.89318796 157.600872,5.94303411 157.580712,5.99215786 C157.532472,6.01238528 157.482792,6.03044548 157.433112,6.04850569 C157.455432,6.09618462 157.477752,6.14458595 157.497912,6.1937097 M156.469752,7.50921472 C156.461112,7.60312776 156.439512,7.69848562 156.404232,7.79456589 C156.246552,8.23378997 155.916072,8.38766288 155.536632,8.44545552 C155.594232,8.06474649 155.747592,7.73388361 156.185352,7.57495385 C156.281832,7.53955585 156.376152,7.51860602 156.469752,7.50921472 M157.781592,8.05463278 C157.841352,8.12687358 157.893192,8.20922809 157.936392,8.30241873 C158.133672,8.72502742 158.009112,9.06817124 157.781592,9.37808428 C157.554072,9.06817124 157.428792,8.72502742 157.626792,8.30241873 C157.669992,8.20922809 157.721832,8.12687358 157.781592,8.05463278 M159.093432,7.50921472 C159.186312,7.51860602 159.281352,7.53955585 159.377112,7.57495385 C159.815592,7.73388361 159.968952,8.06474649 160.026552,8.44545552 C159.647112,8.38766288 159.316632,8.23378997 159.158952,7.79456589 C159.123672,7.69848562 159.102072,7.60312776 159.093432,7.50921472 M159.636312,6.1937097 C159.708312,6.13374983 159.791112,6.08173645 159.883272,6.03766957 C160.304472,5.83972977 160.647192,5.96542876 160.956072,6.1937097 C160.647192,6.42126823 160.304472,6.54696722 159.883272,6.34902742 C159.791112,6.30496054 159.708312,6.25294716 159.636312,6.1937097 M159.093432,4.87748227 C159.102072,4.78356923 159.123672,4.68821137 159.158952,4.5921311 C159.316632,4.15290702 159.647112,3.99903411 160.026552,3.94124147 C159.968952,4.32122809 159.815592,4.65281338 159.377112,4.81174314 C159.281352,4.84714114 159.186312,4.86809097 159.093432,4.87748227 M157.781592,4.33206421 C157.721832,4.25982341 157.669992,4.17674649 157.626792,4.08427826 C157.428792,3.66166957 157.554072,3.31852575 157.781592,3.0078903 C158.009112,3.31852575 158.133672,3.66166957 157.936392,4.08427826 C157.893192,4.17674649 157.841352,4.25982341 157.781592,4.33206421 M156.469752,4.87748227 C156.376152,4.86809097 156.281832,4.84714114 156.185352,4.81174314 C155.747592,4.65281338 155.594232,4.32122809 155.536632,3.94124147 C155.916072,3.99903411 156.246552,4.15290702 156.404232,4.5921311 C156.439512,4.68821137 156.461112,4.78356923 156.469752,4.87748227 M155.926152,6.1937097 C155.854152,6.25294716 155.772072,6.30496054 155.679912,6.34902742 C155.257992,6.54696722 154.915992,6.42126823 154.607112,6.1937097 C154.915992,5.96542876 155.257992,5.83972977 155.679912,6.03766957 C155.772072,6.08173645 155.854152,6.13374983 155.926152,6.1937097 M153.821592,6.1937097 C154.203192,6.57080669 154.560312,6.97391037 154.903752,7.38929498 C154.953432,7.92676656 154.985112,8.46496054 154.982232,9.00243211 C155.517192,8.99954247 156.053592,9.03060602 156.589272,9.08045217 C157.003272,9.42576321 157.405032,9.78407759 157.781592,10.1662314 C158.158152,9.78407759 158.559912,9.42576321 158.973192,9.08045217 C159.509592,9.03060602 160.045272,8.99954247 160.580952,9.00243211 C160.578072,8.46496054 160.609032,7.92676656 160.658712,7.38929498 C161.002872,6.97391037 161.359992,6.57080669 161.740872,6.1937097 C161.359992,5.81516789 161.002872,5.41278662 160.658712,4.99740201 C160.609032,4.45993043 160.578072,3.92173645 160.580952,3.38426488 C160.045272,3.38715452 159.509592,3.35609097 158.973192,3.30624482 C158.559912,2.96093378 158.158152,2.6026194 157.781592,2.22046555 C157.405032,2.6026194 157.003272,2.96093378 156.589272,3.30624482 C156.053592,3.35609097 155.517192,3.38715452 154.982232,3.38426488 C154.985112,3.92173645 154.953432,4.45993043 154.903752,4.99740201 C154.560312,5.41278662 154.203192,5.81516789 153.821592,6.1937097" id="Fill-34" fill="#173DC9"></path>
                </g>
            </g>
        </g>
    </g>
</svg>