<?xml version="1.0" encoding="UTF-8"?>
<svg width="14px" height="16px" viewBox="0 0 14 16" version="1.1" xmlns="http://www.w3.org/2000/svg" xmlns:xlink="http://www.w3.org/1999/xlink">
    <title>Network</title>
    <g id="Testnet" stroke="none" stroke-width="1" fill="none" fill-rule="evenodd">
        <g id="aUSD" transform="translate(-80.000000, -136.000000)" fill="#173DC9" fill-rule="nonzero">
            <g id="网络" transform="translate(80.000000, 136.000000)">
                <path d="M8.79177688,7.85571781 L8.82099513,7.86094721 C8.83801143,7.86634263 8.86357741,7.87447726 8.89702899,7.87447726 C9.10512605,7.87447726 9.28068461,7.73818074 9.32326691,7.54585487 C9.37323676,7.36191267 9.39656156,7.16734564 9.39656156,6.93376563 C9.39656156,5.54490239 8.2817855,4.41510215 6.91176471,4.41510215 C5.54174392,4.41510215 4.42696785,5.5374318 4.42696785,6.91683232 C4.42696785,7.13613526 4.45037566,7.32871011 4.49860237,7.50567978 C4.55620882,7.71618403 4.72562491,7.84700213 4.94052849,7.84700213 C4.97339903,7.84700213 5.00377937,7.84359888 5.05009697,7.83455118 C5.28558616,7.76964017 5.41673627,7.54427776 5.36759647,7.28073241 C5.33912528,7.18303386 5.32410112,7.05711314 5.32410112,6.91683232 C5.32410112,6.032067 6.03637912,5.31223542 6.91184772,5.31223542 C7.78731632,5.31223542 8.49959432,6.032067 8.4995943,6.91683232 C8.4995943,7.04433017 8.48307603,7.17357114 8.44804733,7.31675719 C8.40646112,7.56801759 8.5460779,7.78914665 8.79177687,7.85571781 L8.79177688,7.85571781 Z" id="Path"></path>
                <path d="M9.84961055,9.40694158 C9.87592358,9.51817017 9.94465289,9.61404257 10.0357939,9.66866079 C10.1074284,9.71614046 10.1948342,9.7412914 10.2883824,9.7412914 C10.4395371,9.7412914 10.5846323,9.66459347 10.6665596,9.54191 C11.189998,8.77434974 11.4667414,7.87248509 11.4667414,6.93393164 C11.4667414,4.40364726 9.43084322,2.34508831 6.928532,2.34508831 C4.42622079,2.34508831 2.39056819,4.40348125 2.39056819,6.93376562 C2.38944099,7.85714448 2.66769258,8.75926298 3.18876125,9.52157344 C3.27273109,9.64607008 3.4127887,9.72103881 3.56295414,9.7218679 C3.65608733,9.7218679 3.74664732,9.69248364 3.80774004,9.64400789 C3.91764051,9.57013219 3.98927506,9.4603977 4.0092796,9.33547307 C4.02853708,9.21752096 4.00114496,9.10073094 3.93639996,9.01830557 C3.51207119,8.39102614 3.28770487,7.66438803 3.28770489,6.9167493 C3.28770489,4.88110013 4.921022,3.22503925 6.928532,3.22503926 C8.93620801,3.22503926 10.5695251,4.88110013 10.5695251,6.9167493 C10.5695251,7.663973 10.3462379,8.38953202 9.9229052,9.01647943 C9.84496219,9.13866487 9.81889818,9.27728557 9.84961055,9.40694158 L9.84961055,9.40694158 Z" id="Path"></path>
                <path d="M6.91176471,0.00322849265 C3.10882607,0.00322849265 0.0149281801,3.09704338 0.0149281801,6.899982 C0.0149281801,8.76289485 0.737249945,10.5017131 2.04850221,11.7957 C2.1320145,11.879823 2.24572202,11.9270218 2.36425858,11.9267692 C2.4822959,11.9271297 2.59555214,11.8801588 2.67868686,11.7963641 C2.7677709,11.7075728 2.81619547,11.5859106 2.8124932,11.4601881 C2.80842588,11.3442282 2.76061419,11.238063 2.68416528,11.1717408 C1.54141605,10.0458419 0.912144449,8.52865077 0.912144467,6.89989901 C0.912144467,3.59167857 3.60354428,0.900112757 6.91176471,0.900112739 C10.2199851,0.900112721 12.9113849,3.59159555 12.9113849,6.89989901 C12.9113849,8.51204949 12.289999,10.021355 11.1616099,11.1497442 C10.9793278,11.3322752 10.9793278,11.5970657 11.1616099,11.7794308 C11.241462,11.8591999 11.3564259,11.9050195 11.4767852,11.9050195 L11.4768682,11.9050195 C11.5969785,11.9050195 11.7111953,11.8595319 11.7900514,11.7805099 C13.0917579,10.4959027 13.8086012,8.76256283 13.8086012,6.899982 C13.8086012,3.09704336 10.7147033,0.00322849265 6.91176471,0.00322849265 Z" id="Path"></path>
                <path d="M7.53422976,9.205153 C7.47429914,9.11558908 7.41511557,9.05424735 7.34323202,9.00718272 L7.27541579,8.96310631 L7.27541579,7.36265974 C7.27541579,7.16219926 7.1123082,6.99909165 6.91176471,6.99909165 C6.71122121,6.99909165 6.54811362,7.16219925 6.54811362,7.36265974 L6.54811362,8.94285274 L6.48436471,8.9875932 C6.40534261,9.04246044 6.34250675,9.1209845 6.28714147,9.19021184 L2.75322662,14.7700687 C2.6080484,14.9877115 2.59991379,15.2852895 2.73147893,15.5294113 C2.86179899,15.771458 3.10260059,15.9159722 3.37535965,15.9159722 L10.4480867,15.9159722 C10.7210118,15.9159722 10.9616474,15.771624 11.0917185,15.5296603 C11.2241967,15.2841274 11.2168921,15.0079651 11.0716309,14.7718118 L7.53422976,9.205153 L7.53422976,9.205153 Z M6.91176471,9.58009294 L8.09991844,11.4661646 L5.72361097,11.4661646 L6.91176471,9.58009294 L6.91176471,9.58009294 Z M3.35967143,15.18867 L5.25072346,12.1933837 L8.55446154,12.1933837 L10.463941,15.18867 L3.35967143,15.18867 Z" id="Shape"></path>
            </g>
        </g>
    </g>
</svg>