<?xml version="1.0" encoding="UTF-8"?>
<svg width="24px" height="24px" viewBox="0 0 24 24" version="1.1" xmlns="http://www.w3.org/2000/svg" xmlns:xlink="http://www.w3.org/1999/xlink">
    <title>Setting</title>
    <g id="最新" stroke="none" stroke-width="1" fill="none" fill-rule="evenodd">
        <g id="Swap" transform="translate(-1376.000000, -35.000000)" fill="#173DC9" fill-rule="nonzero">
            <g id="设-置" transform="translate(1376.000000, 35.000000)">
                <path d="M21.8839286,12 C21.8839286,10.5964286 22.7651786,9.40714286 24,8.93303571 C23.7053571,7.77589286 23.25,6.68571429 22.6553571,5.68392857 C21.4446429,6.22232143 19.9821429,6.00267857 18.9910714,5.00892857 C18,4.01785714 17.7803571,2.55267857 18.31875,1.34464286 C17.3142857,0.75 16.2241071,0.294642857 15.0669643,0 C14.5901786,1.23482143 13.4008929,2.11607143 12,2.11607143 C10.5964286,2.11607143 9.40714286,1.23482143 8.93303571,0 C7.77589286,0.294642857 6.68571429,0.75 5.68392857,1.34464286 C6.22232143,2.55535714 6.00267857,4.01785714 5.01160714,5.00892857 C4.02053571,6 2.55535714,6.21964286 1.34732143,5.68392857 C0.75,6.68571429 0.294642857,7.77589286 0,8.93303571 C1.23482143,9.40982143 2.11607143,10.5991071 2.11607143,12 C2.11607143,13.4035714 1.23482143,14.5928571 0,15.0669643 C0.294642857,16.2241071 0.75,17.3142857 1.34464286,18.3160714 C2.55535714,17.7776786 4.01785714,17.9973214 5.00892857,18.9910714 C6,19.9821429 6.21964286,21.4473214 5.68125,22.6553571 C6.68571429,23.25 7.77589286,23.7053571 8.93303571,24 C9.40982143,22.7651786 10.5991071,21.8839286 12,21.8839286 C13.4035714,21.8839286 14.5928571,22.7651786 15.0669643,24 C16.2241071,23.7053571 17.3142857,23.25 18.3160714,22.6553571 C17.7776786,21.4446429 17.9973214,19.9821429 18.9883929,18.9910714 C19.9794643,18 21.4446429,17.7803571 22.6526786,18.3160714 C23.25,17.3142857 23.7053571,16.2241071 24,15.0669643 C22.7651786,14.5928571 21.8839286,13.4035714 21.8839286,12 Z M12,15.2946429 C10.18125,15.2946429 8.70535714,13.81875 8.70535714,12 C8.70535714,10.18125 10.18125,8.70535714 12,8.70535714 C13.81875,8.70535714 15.2946429,10.18125 15.2946429,12 C15.2946429,13.81875 13.81875,15.2946429 12,15.2946429 Z" id="Shape"></path>
            </g>
        </g>
    </g>
</svg>