<?xml version="1.0" encoding="UTF-8"?>
<svg width="24px" height="20px" viewBox="0 0 24 20" version="1.1" xmlns="http://www.w3.org/2000/svg" xmlns:xlink="http://www.w3.org/1999/xlink">
    <title>Withdrawn-icon</title>
    <g id="最新" stroke="none" stroke-width="1" fill="none" fill-rule="evenodd">
        <g id="Add-Liquidity01" transform="translate(-603.000000, -411.000000)" fill-rule="nonzero">
            <g id="Group" transform="translate(603.000000, 411.000000)">
                <g id="取款" fill="#0155FF">
                    <path d="M18.2494602,12.785983 C18.0512113,12.786272 17.861199,12.8653128 17.7212332,13.0057134 C17.5812674,13.1461139 17.5028163,13.3363704 17.503142,13.5346193 L17.503142,17.3245739 C17.503142,17.9274375 17.053142,18.4178011 16.4997784,18.4178011 L2.51036932,18.4178011 C1.95700568,18.4178011 1.50686932,17.926892 1.50686932,17.3245739 L1.50686932,2.59730114 C1.50686932,1.9944375 1.95686932,1.50407386 2.51036932,1.50407386 L16.4997784,1.50407386 C17.053142,1.50407386 17.503142,1.99498295 17.503142,2.59730114 L17.503142,6.44098295 C17.4995055,6.70999642 17.6409392,6.96014598 17.8733245,7.09571345 C18.1057098,7.23128092 18.3930743,7.23128092 18.6254596,7.09571345 C18.8578449,6.96014598 18.9992786,6.70999642 18.9957105,6.44098295 L18.9957105,2.59730114 C18.9957105,1.16889205 17.8759602,0.00639204545 16.5001875,0.00639204545 L2.51036932,0.00639204545 C1.13459659,0.00639204545 0.0149147727,1.16889205 0.0149147727,2.59730114 L0.0149147727,17.3245739 C0.0149147727,18.752983 1.13459659,19.915483 2.51036932,19.915483 L16.4997784,19.915483 C17.8759602,19.915483 18.995233,18.7532557 18.995233,17.3245739 L18.995233,13.5346193 C18.9959115,13.1219959 18.6620832,12.7868858 18.2494602,12.785983 Z M23.8785511,10.339892 C23.878014,10.17502 23.8227074,10.0150001 23.7213239,9.88498295 C23.6845114,9.80457084 23.6364885,9.72978172 23.5786875,9.66284659 L21.044642,6.8094375 C20.8687846,6.6030314 20.594913,6.50808699 20.3290334,6.56135388 C20.0631538,6.61462078 19.8469933,6.80773926 19.7642202,7.06595997 C19.681447,7.32418069 19.7450516,7.60697838 19.9304148,7.80489205 L21.5160511,9.59057386 L14.496733,9.59057386 C14.0832349,9.59057386 13.7480284,9.92578031 13.7480284,10.3392784 C13.7480284,10.7527765 14.0832349,11.087983 14.496733,11.087983 L21.376142,11.087983 L19.9396875,12.6473011 C19.6596255,12.9510174 19.6779167,13.4240285 19.9805966,13.7052102 C20.1256559,13.8400369 20.3184532,13.9115165 20.5163459,13.9038393 C20.7142385,13.8961621 20.9009187,13.8099607 21.0350966,13.6643011 L23.5032784,10.9861193 C23.7350337,10.8534212 23.8781637,10.6069485 23.8785511,10.339892 L23.8785511,10.339892 Z" id="Shape"></path>
                </g>
                <path d="M4,13.9162802 L4,12.9912131 L5.174,12.991 L5.174,7.001 L4,7.00146448 L4,6.07639735 L5.284,6.076 L5.28464843,5 L6.19470779,5 L6.194,6.076 L7.582,6.076 L7.58260832,5 L8.49266766,5 L8.49298033,6.08783936 C8.83267803,6.11728267 9.16730143,6.19540796 9.48676945,6.32047839 C9.83407291,6.46926137 10.1264479,6.72546529 10.3223912,7.05272149 C10.5191001,7.36104767 10.6249155,7.72014713 10.6273451,8.08762508 C10.6268393,8.4222721 10.5327346,8.74987479 10.3560082,9.03221869 C10.1588688,9.34475037 9.87816292,9.59367762 9.54679974,9.74981694 C9.9721516,9.86061113 10.3500338,10.1101136 10.6225427,10.4600927 C10.8761222,10.8019564 11.0089354,11.220725 10.999533,11.6487674 C11.0016042,12.0037152 10.9235655,12.354418 10.7714179,12.6739077 C10.6415084,12.9597099 10.4474058,13.2105196 10.2047318,13.4061508 C9.95104264,13.5905912 9.66368641,13.7217021 9.35950521,13.7917989 C9.07431668,13.8588164 8.78419689,13.9006162 8.49239135,13.9168542 L8.49266766,14.9975592 L7.58260832,14.9975592 L7.582,13.922 L6.194,13.918 L6.19470779,15 L5.28464843,15 L5.284,13.916 L4,13.9162802 Z M7.9812095,10.2965584 L6.19951021,10.2965584 L6.19710899,12.9912131 L8.11807859,12.9912131 C8.35077572,12.9971604 8.58357839,12.9849203 8.81443009,12.9546009 C9.02201647,12.9210249 9.22156552,12.8481681 9.40272702,12.7398096 C9.56802734,12.6326471 9.70228864,12.4826927 9.79172337,12.3053454 C9.89643492,12.1013438 9.94926516,11.8739517 9.94540094,11.6438858 C9.95101257,11.3721669 9.87385311,11.105328 9.72448943,10.8799121 C9.57435828,10.6639034 9.3582738,10.5043155 9.10977916,10.4259214 C8.74186047,10.3268054 8.36160369,10.2832182 7.9812095,10.2965584 Z M7.7362859,7.00146448 L6.19710899,7.00146448 L6.19710899,9.37149133 L7.86355012,9.37149133 C8.19096955,9.38363324 8.51857577,9.35328515 8.8384422,9.28118134 C9.07072729,9.21876394 9.27651254,9.08074019 9.42433793,8.88821089 C9.56055707,8.68784885 9.62960492,8.44818757 9.62123732,8.20478399 C9.62522294,7.96324656 9.56196014,7.72548336 9.43874521,7.51891627 C9.31746985,7.32208876 9.12958915,7.1771183 8.91047857,7.11130095 C8.5257177,7.02120299 8.13076121,6.98425793 7.7362859,7.00146448 Z" id="Combined-Shape" fill="#FA9D3B"></path>
            </g>
        </g>
    </g>
</svg>