<svg width="28" height="28" viewBox="0 0 28 28" fill="none" xmlns="http://www.w3.org/2000/svg">
<path fill-rule="evenodd" clip-rule="evenodd" d="M11.5294 13.4761V15.0737C11.5294 16.1431 12.4052 17.0196 13.4764 17.0196H15.0734C16.1438 17.0196 17.0196 16.1431 17.0196 15.0737V13.4761C17.0196 12.4059 16.1438 11.5294 15.0734 11.5294H13.4764C12.4052 11.5294 11.5294 12.4059 11.5294 13.4761Z" fill="#B5A9F2"/>
<path fill-rule="evenodd" clip-rule="evenodd" d="M11.5294 8.5098C11.5294 10.073 10.3002 11.3436 8.78614 11.3436C7.27286 11.3436 6.04368 12.6133 6.04368 14.1858C6.04368 15.749 4.81369 17.0196 3.29146 17.0196C1.77819 17.0196 0.549011 15.749 0.549011 14.1858C0.549011 12.6133 1.77819 11.3436 3.29146 11.3436C4.81369 11.3436 6.04368 10.073 6.04368 8.5098C6.04368 6.94575 4.81369 5.676 3.29146 5.676H2.49372C1.42734 5.676 0.549011 4.76784 0.549011 3.66628V2.00973C0.549011 0.908161 1.42734 0 2.49372 0H4.09735C5.16454 0 6.04368 0.908161 6.04368 2.00973V2.84221C6.04368 4.40626 7.27286 5.676 8.78614 5.676C10.3002 5.676 11.5294 6.94575 11.5294 8.5098Z" fill="#DD4800"/>
<path fill-rule="evenodd" clip-rule="evenodd" d="M17.0196 24.4516V26.0553C17.0196 27.1216 16.1114 28 15.0098 28H13.354C12.2515 28 11.3433 27.1216 11.3433 26.0553V25.2575C11.3433 23.7353 10.0735 22.5053 8.50938 22.5053C6.94609 22.5053 5.67629 23.7353 5.67629 25.2575C5.67629 26.7716 4.40564 28 2.8331 28C1.26981 28 0 26.7716 0 25.2575C0 23.7353 1.26981 22.5053 2.8331 22.5053C4.40564 22.5053 5.67629 21.2769 5.67629 19.7629V18.9651C5.67629 17.8898 6.57524 17.0196 7.68527 17.0196H9.3335C10.4444 17.0196 11.3433 17.8898 11.3433 18.9651V19.7629C11.3433 21.2769 12.614 22.5053 14.1773 22.5053H15.0098C16.1114 22.5053 17.0196 23.3845 17.0196 24.4516Z" fill="#007D0D"/>
<mask id="mask0_1821_16118" style="mask-type:alpha" maskUnits="userSpaceOnUse" x="17" y="10" width="11" height="18">
<path d="M17.0196 10.9804H28V28H17.0196V10.9804Z" fill="white"/>
</mask>
<g mask="url(#mask0_1821_16118)">
<path fill-rule="evenodd" clip-rule="evenodd" d="M28.0002 25.1669C28.0002 26.7302 26.7711 28 25.249 28C23.735 28 22.5058 26.7302 22.5058 25.1669C22.5058 23.5943 21.2767 22.3237 19.7627 22.3237H18.9642C17.8906 22.3237 17.0196 21.4247 17.0196 20.3139V18.6665C17.0196 17.5556 17.8906 16.6567 18.9642 16.6567H19.7627C21.2767 16.6567 22.5058 15.386 22.5058 13.8227C22.5058 12.2502 23.735 10.9804 25.249 10.9804C26.7711 10.9804 28.0002 12.2502 28.0002 13.8227C28.0002 15.386 26.7711 16.6567 25.249 16.6567C23.735 16.6567 22.5058 17.9265 22.5058 19.4906C22.5058 21.0539 23.735 22.3237 25.249 22.3237C26.7711 22.3237 28.0002 23.5943 28.0002 25.1669Z" fill="#67A0EE"/>
</g>
<mask id="mask1_1821_16118" style="mask-type:alpha" maskUnits="userSpaceOnUse" x="10" y="0" width="18" height="11">
<path d="M10.9804 0H28V10.9804H10.9804V0Z" fill="white"/>
</mask>
<g mask="url(#mask1_1821_16118)">
<path fill-rule="evenodd" clip-rule="evenodd" d="M28.0003 1.94525V3.54949C28.0003 4.61491 27.0921 5.49395 25.9897 5.49395H25.158C23.5939 5.49395 22.3242 6.72297 22.3242 8.23687C22.3242 9.75077 21.0544 10.9806 19.4903 10.9806C17.9263 10.9806 16.6565 9.75077 16.6565 8.23687C16.6565 6.72297 15.3867 5.49395 13.8142 5.49395H12.9893C11.8886 5.49395 10.9804 4.61491 10.9804 3.54949V1.94525C10.9804 0.879007 11.8886 -3.05176e-05 12.9893 -3.05176e-05H14.6467C15.7483 -3.05176e-05 16.6565 0.879007 16.6565 1.94525V2.75103C16.6565 4.26574 17.9263 5.49395 19.4903 5.49395C21.0544 5.49395 22.3242 4.26574 22.3242 2.75103V1.94525C22.3242 0.879007 23.2324 -3.05176e-05 24.3339 -3.05176e-05H25.9897C27.0921 -3.05176e-05 28.0003 0.879007 28.0003 1.94525Z" fill="#F4C328"/>
</g>
</svg>
