<svg viewBox="0 0 56 56" fill="none" xmlns="http://www.w3.org/2000/svg">
  <circle cx="28" cy="28" r="28" fill="#2D374B" />
  <path
    d="M32.5536 26.1606L35.7849 20.6775L44.4947 34.2431L44.4988 36.8465L44.4704 18.9317C44.4498 18.4937 44.2172 18.093 43.8463 17.8566L28.1654 8.8371C27.7988 8.65678 27.3334 8.65895 26.9674 8.84278C26.9179 8.86769 26.8716 8.8945 26.8272 8.92401L26.7725 8.95839L11.5516 17.7786L11.4926 17.8057C11.4165 17.8404 11.3399 17.8851 11.2676 17.9365C10.979 18.1433 10.7873 18.4495 10.7253 18.7926C10.7161 18.8446 10.709 18.8976 10.7061 18.9512L10.7299 33.55L18.8427 20.9759C19.8639 19.3086 22.0894 18.7712 24.1555 18.8007L26.58 18.8646L12.2937 41.7757L13.9777 42.7452L28.4351 18.8879L34.8254 18.8646L20.4054 43.324L26.4145 46.7806L27.1326 47.1932C27.4363 47.3167 27.7942 47.3229 28.1005 47.2122L44.0017 37.9972L40.9615 39.7589L32.5536 26.1606ZM33.7863 43.9172L27.7171 34.3912L31.4222 28.104L39.3931 40.6678L33.7863 43.9172Z"
    fill="#2D374B" />
  <path d="M27.7153 34.3915L33.7848 43.9173L39.3914 40.6681L31.4204 28.1042L27.7153 34.3915Z"
    fill="#28A0F0" />
  <path
    d="M44.4979 36.8467L44.4938 34.2433L35.784 20.6777L32.5527 26.1608L40.9609 39.7591L44.0011 37.9974C44.2992 37.7554 44.4798 37.3999 44.4987 37.0165L44.4979 36.8467Z"
    fill="#28A0F0" />
  <path
    d="M8 39.3018L12.2932 41.7756L26.5794 18.8646L24.1549 18.8007C22.0892 18.7714 19.8637 19.3086 18.8422 20.9758L10.7294 33.5499L8 37.7434V39.3018V39.3018Z"
    fill="white" />
  <path
    d="M34.8248 18.8646L28.4344 18.8879L13.9771 42.7452L19.0305 45.6546L20.4045 43.324L34.8248 18.8646Z"
    fill="white" />
  <path
    d="M47.191 18.8316C47.1377 17.4952 46.414 16.272 45.2807 15.5596L29.3943 6.42371C28.2732 5.85921 26.8726 5.8584 25.7493 6.42344C25.6167 6.49031 10.3002 15.3734 10.3002 15.3734C10.0882 15.4749 9.8841 15.5959 9.69214 15.7335C8.68038 16.4588 8.06362 17.5856 8 18.8235V37.7438L10.7294 33.5502L10.7055 18.9512C10.7088 18.8979 10.7155 18.8451 10.7248 18.7934C10.7865 18.4498 10.9784 18.1436 11.267 17.9365C11.3393 17.8851 26.917 8.86771 26.9666 8.8428C27.3329 8.65896 27.798 8.6568 28.1646 8.83711L43.8455 17.8566C44.2164 18.093 44.449 18.4937 44.4695 18.9317V37.016C44.4506 37.3994 44.299 37.7549 44.0009 37.9969L40.9607 39.7586L39.392 40.6678L33.7855 43.917L28.0996 47.2119C27.7934 47.3226 27.4352 47.3164 27.1317 47.1929L20.4046 43.3238L19.0303 45.6543L25.076 49.135C25.2758 49.2487 25.4539 49.3494 25.6001 49.4317C25.8265 49.5587 25.9808 49.6434 26.0352 49.67C26.4649 49.8787 27.083 50 27.6402 50C28.1508 50 28.649 49.9063 29.1203 49.7217L45.6354 40.1577C46.5832 39.4232 47.141 38.3156 47.191 37.1159V18.8316Z"
    fill="#96BEDC" />
</svg>
