<svg width="48" height="48" viewBox="0 0 48 48" fill="none" xmlns="http://www.w3.org/2000/svg">
    <rect width="48" height="48" rx="24" fill="#2C374B" />
    <path
        d="M28.2819 22.4114L31.0726 17.676L38.5947 29.3917L38.5982 31.6402L38.5737 16.1683C38.5559 15.79 38.355 15.4439 38.0347 15.2398L24.4921 7.45021C24.1755 7.29448 23.7736 7.29635 23.4575 7.45512C23.4147 7.47663 23.3747 7.49978 23.3363 7.52527L23.2891 7.55496L10.1438 15.1725L10.0928 15.1958C10.0271 15.2258 9.96095 15.2644 9.89852 15.3088C9.64927 15.4874 9.48372 15.7519 9.43018 16.0481C9.42223 16.093 9.41615 16.1389 9.41357 16.1851L9.43415 28.7931L16.4407 17.9337C17.3226 16.4938 19.2447 16.0297 21.029 16.0551L23.1229 16.1103L10.7847 35.8972L12.2391 36.7345L24.725 16.1304L30.2439 16.1103L17.7903 37.2344L22.98 40.2196L23.6001 40.576C23.8624 40.6826 24.1716 40.688 24.436 40.5923L38.1689 32.6339L35.5433 34.1554L28.2819 22.4114ZM29.3465 37.7467L24.1049 29.5196L27.3048 24.0898L34.1888 34.9403L29.3465 37.7467Z"
        fill="#2D374B" />
    <path d="M24.1038 29.52L29.3456 37.7468L34.1876 34.9407L27.3036 24.0901L24.1038 29.52Z"
        fill="#28A0F0" />
    <path
        d="M38.5975 31.6402L38.594 29.3917L31.0719 17.676L28.2812 22.4114L35.5429 34.1554L38.1685 32.6339C38.4259 32.4249 38.5819 32.1179 38.5982 31.7868L38.5975 31.6402Z"
        fill="#28A0F0" />
    <path
        d="M7.07666 33.761L10.7844 35.8974L23.1225 16.1106L21.0286 16.0554C19.2446 16.0302 17.3225 16.4941 16.4403 17.9339L9.43383 28.7934L7.07666 32.4151V33.761Z"
        fill="white" />
    <path
        d="M30.2436 16.1106L24.7247 16.1307L12.2388 36.7347L16.6031 39.2474L17.7897 37.2346L30.2436 16.1106Z"
        fill="white" />
    <path
        d="M40.9235 16.0818C40.8774 14.9277 40.2524 13.8712 39.2736 13.2561L25.5536 5.36593C24.5853 4.87841 23.3758 4.87771 22.4056 5.3657C22.2911 5.42345 9.06322 13.0952 9.06322 13.0952C8.88014 13.1829 8.70383 13.2874 8.53805 13.4062C7.66426 14.0326 7.13161 15.0058 7.07666 16.0748V32.4151L9.43383 28.7934L9.41325 16.1852C9.41606 16.1391 9.4219 16.0935 9.42985 16.0488C9.48317 15.7521 9.64895 15.4877 9.8982 15.3088C9.96063 15.2644 23.4141 7.47666 23.4569 7.45514C23.7733 7.29638 24.175 7.29451 24.4916 7.45023L38.0341 15.2398C38.3545 15.4439 38.5553 15.79 38.5731 16.1683V31.7865C38.5567 32.1176 38.4258 32.4246 38.1683 32.6337L35.5427 34.1552L34.188 34.9403L29.346 37.7465L24.4354 40.5921C24.171 40.6877 23.8616 40.6823 23.5995 40.5757L17.7897 37.2342L16.6028 39.2469L21.8241 42.2529C21.9967 42.3511 22.1505 42.4381 22.2768 42.5092C22.4723 42.6189 22.6055 42.6921 22.6525 42.715C23.0236 42.8952 23.5574 43 24.0386 43C24.4796 43 24.9099 42.9191 25.317 42.7596L39.5799 34.4998C40.3985 33.8655 40.8802 32.9089 40.9235 31.8728V16.0818Z"
        fill="#96BEDC" />
</svg>