<svg width="48" height="48" viewBox="0 0 48 48" fill="none" xmlns="http://www.w3.org/2000/svg">
    <path fill-rule="evenodd" clip-rule="evenodd"
        d="M24 0C37.2558 0 48 10.7442 48 24C48 37.2558 37.2558 48 24 48C10.7442 48 0 37.2558 0 24C0 10.7442 10.7442 0 24 0Z"
        fill="#F0B90B" />
    <path
        d="M32.558 22.6844L32.5407 18.969H32.5541L29.3984 17.1113L23.9907 20.2998L18.6157 17.1113L15.4618 18.969V22.6844L20.8695 25.8575V32.219L24.0099 34.0594L27.1503 32.219V25.8575L32.558 22.6844Z"
        fill="white" />
    <path
        d="M23.9926 7.59399L15.4599 12.6248L18.6003 14.4825L23.9926 11.294L29.4003 14.4825L32.5407 12.6248L23.9926 7.59399Z"
        fill="white" />
    <path
        d="M13.208 30.3459L13.1907 23.9998L10.0522 22.144V32.2209L18.6003 37.2344V33.519L13.208 30.3459Z"
        fill="white" />
    <path
        d="M13.1907 21.3517V17.6536L16.3464 15.7959L13.1907 13.9382L10.0503 15.7959V19.494L13.1907 21.3517Z"
        fill="white" />
    <path d="M23.9926 13.9382L20.8522 15.7959L23.9926 17.6536L27.1484 15.7959L23.9926 13.9382Z"
        fill="white" />
    <path d="M18.6003 27.1728L15.4599 25.3152V29.0305L18.6003 30.8709V27.1728Z" fill="white" />
    <path
        d="M23.9926 36.7075L20.8522 34.8498V38.5478L23.9926 40.4055L27.1484 38.5478V34.8498L23.9926 36.7075Z"
        fill="white" />
    <path
        d="M34.7926 13.9382L31.6522 15.7959L34.7926 17.6536V21.3517L37.9484 19.494V15.7959L34.7926 13.9382Z"
        fill="white" />
    <path
        d="M37.9503 22.1421L34.8099 23.9998L34.7926 30.3459L29.4022 33.5171V37.2325L37.9503 32.219V22.1421Z"
        fill="white" />
    <path d="M32.5407 29.0305L29.4003 30.8709V27.1728L32.5407 25.3151V29.0305Z" fill="white" />
</svg>