<svg width="48" height="48" viewBox="0 0 48 48" fill="none" xmlns="http://www.w3.org/2000/svg">
    <g clip-path="url(#clip0_9783_962)">
        <path
            d="M46.1277 29.5624L46.0998 29.6742C43.0008 41.8475 30.6421 49.2418 18.438 46.1988C6.20201 43.1474 -1.24704 30.7496 1.80576 18.5107L1.80583 18.5104C4.85596 6.2691 17.253 -1.18031 29.4904 1.87109L29.4904 1.87111C41.7308 4.92254 49.1795 17.3217 46.1277 29.5624Z"
            fill="white" stroke="#0052FF" stroke-width="2.304" />
        <path
            d="M34.5826 20.5807C35.0603 17.3868 32.6287 15.67 29.3036 14.5247L30.3823 10.1983L27.7487 9.54205L26.6986 13.7545C26.0063 13.5818 25.2953 13.4191 24.5886 13.2578L25.6463 9.01756L23.0143 8.36133L21.935 12.6863C21.3621 12.5559 20.7994 12.4269 20.2534 12.2911L20.2565 12.2775L16.6247 11.3706L15.9241 14.1834C15.9241 14.1834 17.878 14.6313 17.8368 14.6589C18.9033 14.925 19.0962 15.631 19.0641 16.1906L17.8354 21.1194C17.9089 21.138 18.0041 21.165 18.1092 21.2072C18.0214 21.1854 17.9279 21.1616 17.8308 21.1384L16.1086 28.0429C15.9783 28.3669 15.6475 28.8531 14.9019 28.6685C14.9282 28.7067 12.9877 28.1908 12.9877 28.1908L11.6802 31.2054L15.1074 32.0598C15.745 32.2197 16.3698 32.387 16.985 32.5443L15.8952 36.9203L18.5258 37.5765L19.605 33.247C20.3237 33.442 21.0211 33.622 21.7038 33.7916L20.6282 38.1008L23.2619 38.757L24.3516 34.3892C28.8425 35.2391 32.2192 34.8965 33.6406 30.8345C34.7859 27.5641 33.5836 25.6778 31.2209 24.4477C32.9418 24.0508 34.2379 22.919 34.5835 20.581L34.5827 20.5804L34.5826 20.5807ZM28.5654 29.0183C27.7515 32.2887 22.2452 30.5208 20.46 30.0775L21.9062 24.28C23.6913 24.7257 29.416 25.6076 28.5655 29.0183H28.5654ZM29.3799 20.5333C28.6374 23.508 24.0545 21.9967 22.5678 21.6261L23.879 16.3682C25.3657 16.7388 30.1533 17.4304 29.3801 20.5333H29.3799Z"
            fill="#0052FF" />
    </g>
    <defs>
        <clipPath id="clip0_9783_962">
            <rect width="48" height="48" fill="white" />
        </clipPath>
    </defs>
</svg>