<svg width="48" height="48" viewBox="0 0 48 48" fill="none" xmlns="http://www.w3.org/2000/svg">
    <g clip-path="url(#clip0_12_12)">
        <path
            d="M24.0017 45.7479C26.8577 45.7479 29.6857 45.1853 32.3243 44.0924C34.9629 42.9995 37.3603 41.3975 39.3798 39.3781C41.3993 37.3586 43.0012 34.9611 44.0942 32.3225C45.1871 29.684 45.7496 26.856 45.7496 24C45.7496 21.144 45.1871 18.316 44.0942 15.6775C43.0012 13.0389 41.3993 10.6414 39.3798 8.62194C37.3603 6.60246 34.9629 5.00052 32.3243 3.90759C29.6857 2.81466 26.8577 2.25213 24.0017 2.25213C18.2339 2.25213 12.7022 4.54342 8.62368 8.62194C4.54517 12.7005 2.25388 18.2321 2.25388 24C2.25388 29.7679 4.54517 35.2995 8.62368 39.3781C12.7022 43.4566 18.2339 45.7479 24.0017 45.7479ZM48 24C48 30.3652 45.4714 36.4697 40.9706 40.9706C36.4697 45.4714 30.3652 48 24 48C17.6348 48 11.5303 45.4714 7.02944 40.9706C2.52856 36.4697 0 30.3652 0 24C0 17.6348 2.52856 11.5303 7.02944 7.02944C11.5303 2.52856 17.6348 0 24 0C30.3652 0 36.4697 2.52856 40.9706 7.02944C45.4714 11.5303 48 17.6348 48 24Z"
            fill="#0052FF" />
        <path d="M24.0029 6.00037V18.7502L34.5024 23.566L24.0029 6.00037Z" fill="#0052FF"
            fill-opacity="0.6" />
        <path d="M24.0034 6.00037L13.5039 23.566L24.0034 18.7642V6.00037Z" fill="#0052FF" />
        <path d="M24.0029 31.8291V40.4981L34.5024 25.5749L24.0029 31.8291Z" fill="#0052FF"
            fill-opacity="0.6" />
        <path d="M24.0034 40.4981V31.8291L13.5039 25.5749L24.0034 40.4981Z" fill="#0052FF" />
        <path d="M24.0029 29.8342L34.5024 23.566L24.0029 18.7643V29.8342Z" fill="#0052FF"
            fill-opacity="0.2" />
        <path d="M13.5039 23.566L24.0034 29.8342V18.7502L13.5039 23.566Z" fill="#0052FF"
            fill-opacity="0.6" />
    </g>
    <defs>
        <clipPath id="clip0_12_12">
            <rect width="48" height="48" fill="white" />
        </clipPath>
    </defs>
</svg>