<svg viewBox="0 0 40 40" fill="none" xmlns="http://www.w3.org/2000/svg">
<rect width="40" height="40" rx="20" fill="white"/>
<g clip-path="url(#clip0_257_1751)">
<path d="M20.1579 11.2484C23.1246 11.2484 25.5297 9.84965 25.5297 8.1242C25.5297 6.39875 23.1246 5 20.1579 5C17.1912 5 14.7861 6.39875 14.7861 8.1242C14.7861 9.84965 17.1912 11.2484 20.1579 11.2484Z" fill="#E6007A"/>
<path d="M20.1579 34.7887C23.1246 34.7887 25.5297 33.3899 25.5297 31.6645C25.5297 29.939 23.1246 28.5403 20.1579 28.5403C17.1912 28.5403 14.7861 29.939 14.7861 31.6645C14.7861 33.3899 17.1912 34.7887 20.1579 34.7887Z" fill="#E6007A"/>
<path d="M12.6719 15.5728C14.1553 13.0036 14.1457 10.221 12.6504 9.35765C11.1552 8.49434 8.74054 9.87724 7.25717 12.4464C5.7738 15.0156 5.78343 17.7982 7.27868 18.6615C8.77393 19.5249 11.1886 18.142 12.6719 15.5728Z" fill="#E6007A"/>
<path d="M33.056 27.3421C34.5394 24.7729 34.5305 21.9908 33.0363 21.1281C31.5421 20.2653 29.1282 21.6487 27.6449 24.2179C26.1615 26.7871 26.1703 29.5692 27.6645 30.432C29.1588 31.2947 31.5726 29.9113 33.056 27.3421Z" fill="#E6007A"/>
<path d="M12.6514 30.4307C14.1467 29.5674 14.1563 26.7848 12.6729 24.2156C11.1896 21.6464 8.7749 20.2635 7.27965 21.1268C5.7844 21.9901 5.77478 24.7727 7.25815 27.3419C8.74152 29.9111 11.1562 31.294 12.6514 30.4307Z" fill="#E6007A"/>
<path d="M33.0383 18.6625C34.5325 17.7997 34.5413 15.0176 33.0579 12.4484C31.5746 9.8792 29.1607 8.49583 27.6665 9.35855C26.1723 10.2213 26.1634 13.0034 27.6468 15.5726C29.1302 18.1418 31.544 19.5252 33.0383 18.6625Z" fill="#E6007A"/>
</g>
<defs>
<clipPath id="clip0_257_1751">
<rect width="30" height="30" fill="white" transform="translate(5 5)"/>
</clipPath>
</defs>
</svg>
