<svg width="48" height="48" viewBox="0 0 48 48" fill="none" xmlns="http://www.w3.org/2000/svg">
    <g clip-path="url(#clip0_22_21)">
        <path
            d="M40.093 6.14978C40.3118 6.35758 40.5228 6.57132 40.7319 6.78871C40.9379 6.99609 41.1453 7.20177 41.3547 7.40581C41.8781 7.91753 42.3621 8.44362 42.8085 9.02499C42.868 9.1013 42.868 9.1013 42.9287 9.17914C44.684 11.4393 46.0018 13.9713 46.8817 16.6922C46.9164 16.7986 46.9164 16.7986 46.9518 16.9072C48.7594 22.5504 48.2381 28.9391 45.6837 34.2629C45.654 34.326 45.6243 34.3892 45.5936 34.4542C44.6164 36.5229 43.3197 38.3768 41.7799 40.0661C41.6258 40.236 41.4755 40.4085 41.3259 40.5824C40.8485 41.1291 40.3265 41.6208 39.7735 42.0899C39.669 42.1798 39.669 42.1798 39.5623 42.2714C34.5558 46.5207 28.1945 48.3945 21.6806 47.8952C17.2335 47.5126 12.7401 45.788 9.26438 42.9684C9.1883 42.9077 9.11222 42.8469 9.03383 42.7843C8.60365 42.4376 8.18774 42.078 7.77967 41.7055C7.5931 41.5362 7.40322 41.3713 7.2128 41.2063C6.93978 40.9638 6.69803 40.71 6.4628 40.4311C6.2815 40.2207 6.09066 40.0206 5.89999 39.8187C2.99167 36.6827 1.13143 32.5471 0.33926 28.3777C0.323373 28.2944 0.307486 28.211 0.291117 28.1252C0.0461619 26.7641 -0.0304691 25.4159 -0.025133 24.035C-0.0249146 23.9171 -0.0249146 23.9171 -0.0246918 23.7968C-0.0208434 22.5592 0.0245925 21.3482 0.239426 20.1265C0.253556 20.0461 0.267687 19.9657 0.282245 19.8828C1.30687 14.2553 4.27127 8.78613 8.86505 5.27124C8.94216 5.20968 9.01927 5.14811 9.09872 5.08468C12.3207 2.54081 16.0897 0.925933 20.1263 0.23963C20.2036 0.226323 20.281 0.213016 20.3607 0.199306C27.47 -0.962722 34.7527 1.42488 40.093 6.14978Z"
            fill="#0E0B31" />
        <path
            d="M40.093 6.14978C40.3118 6.35758 40.5228 6.57132 40.7319 6.78871C40.9379 6.99609 41.1453 7.20177 41.3547 7.40581C41.8781 7.91753 42.3621 8.44362 42.8085 9.02499C42.868 9.1013 42.868 9.1013 42.9287 9.17914C44.684 11.4393 46.0018 13.9713 46.8817 16.6922C46.9164 16.7986 46.9164 16.7986 46.9518 16.9072C48.7594 22.5504 48.2381 28.9391 45.6837 34.2629C45.654 34.326 45.6243 34.3892 45.5936 34.4542C44.6164 36.5229 43.3197 38.3768 41.7799 40.0661C41.6258 40.236 41.4755 40.4085 41.3259 40.5824C40.8485 41.1291 40.3265 41.6208 39.7735 42.0899C39.669 42.1798 39.669 42.1798 39.5623 42.2714C34.5558 46.5207 28.1945 48.3945 21.6806 47.8952C17.2335 47.5126 12.7401 45.788 9.26438 42.9684C9.1883 42.9077 9.11222 42.8469 9.03383 42.7843C8.60365 42.4376 8.18774 42.078 7.77967 41.7055C7.5931 41.5362 7.40322 41.3713 7.2128 41.2063C6.93978 40.9638 6.69803 40.71 6.4628 40.4311C6.2815 40.2207 6.09066 40.0206 5.89999 39.8187C2.99167 36.6827 1.13143 32.5471 0.33926 28.3777C0.323373 28.2944 0.307486 28.211 0.291117 28.1252C0.0461619 26.7641 -0.0304691 25.4159 -0.025133 24.035C-0.0249146 23.9171 -0.0249146 23.9171 -0.0246918 23.7968C-0.0208434 22.5592 0.0245925 21.3482 0.239426 20.1265C0.253556 20.0461 0.267687 19.9657 0.282245 19.8828C1.30687 14.2553 4.27127 8.78613 8.86505 5.27124C8.94216 5.20968 9.01927 5.14811 9.09872 5.08468C12.3207 2.54081 16.0897 0.925933 20.1263 0.23963C20.2036 0.226323 20.281 0.213016 20.3607 0.199306C27.47 -0.962722 34.7527 1.42488 40.093 6.14978ZM19.9066 2.61068C19.8352 2.62393 19.7637 2.63718 19.69 2.65083C18.8066 2.82357 17.9473 3.07802 17.0913 3.35444C17.0254 3.37572 16.9595 3.39701 16.8915 3.41894C14.6466 4.16011 12.5502 5.32167 10.702 6.78871C10.5829 6.8823 10.5829 6.8823 10.4615 6.97777C9.20872 7.98211 8.01223 9.11202 7.02811 10.3827C6.96531 10.4611 6.90251 10.5394 6.8378 10.6201C5.94946 11.7367 5.2135 12.9539 4.55224 14.2163C4.52458 14.2689 4.49693 14.3215 4.46843 14.3757C3.31706 16.5998 2.71154 19.0147 2.39583 21.4842C2.38742 21.5492 2.37901 21.6142 2.37035 21.6812C2.28305 22.4767 2.293 23.2806 2.29101 24.0799C2.2908 24.1598 2.29059 24.2396 2.29037 24.3219C2.29001 25.613 2.36897 26.8462 2.63543 28.1132C2.64822 28.1771 2.66102 28.2411 2.6742 28.307C2.7536 28.6993 2.84935 29.085 2.9549 29.4709C2.97028 29.5293 2.98566 29.5876 3.0015 29.6478C3.74471 32.4397 5.06573 35.1791 6.91896 37.4062C7.02704 37.5362 7.13349 37.6673 7.23995 37.7986C8.19101 38.954 9.26381 40.0724 10.4624 40.9717C10.5578 41.0463 10.6532 41.121 10.7485 41.1957C12.515 42.5675 14.5114 43.6434 16.6121 44.406C16.6721 44.428 16.732 44.45 16.7938 44.4727C17.7532 44.8206 18.7277 45.0795 19.7269 45.2846C19.838 45.3084 19.838 45.3084 19.9512 45.3327C21.2274 45.5973 22.4868 45.6337 23.7852 45.634C23.8638 45.6341 23.9424 45.6343 24.0234 45.6344C25.4819 45.6341 26.9549 45.5814 28.3825 45.2596C28.462 45.2424 28.5415 45.2251 28.6234 45.2074C29.2926 45.0581 29.9402 44.866 30.5888 44.6456C30.6635 44.6232 30.7381 44.6007 30.815 44.5776C33.7031 43.6934 36.4117 42.0266 38.6061 39.9678C38.7737 39.8122 38.9432 39.6642 39.1196 39.5192C39.3636 39.3127 39.5675 39.0833 39.7738 38.8397C39.959 38.6258 40.1534 38.422 40.3476 38.2163C42.1078 36.314 43.3933 33.951 44.3259 31.5474C44.3475 31.493 44.3691 31.4386 44.3913 31.3826C45.8039 27.7866 45.9947 23.5795 45.2844 19.807C45.2698 19.7281 45.2553 19.6491 45.2403 19.5678C44.9196 17.88 44.3631 16.2374 43.6071 14.6955C43.5721 14.624 43.5371 14.5525 43.5011 14.4787C42.7738 13.0079 41.921 11.6595 40.8917 10.3827C40.8303 10.305 40.769 10.2273 40.7057 10.1472C40.2283 9.56084 39.7073 9.0222 39.1745 8.48589C39.1054 8.41598 39.0362 8.34608 38.9649 8.27405C38.4871 7.79854 37.9873 7.36489 37.4574 6.94845C37.3969 6.90086 37.3365 6.85327 37.2742 6.80424C34.1062 4.34619 30.4047 2.88961 26.4358 2.39604C26.3759 2.38774 26.3161 2.37945 26.2545 2.3709C25.5948 2.28979 24.9291 2.30131 24.2656 2.30137C24.053 2.3012 23.8405 2.29975 23.6279 2.29823C22.3793 2.29409 21.1357 2.38128 19.9066 2.61068Z"
            fill="#0F0B31" />
        <path
            d="M20.2063 11.8203C20.9706 11.8203 21.7349 11.8203 22.5224 11.8203C22.5224 13.059 22.5224 14.2978 22.5224 15.5741C23.1023 15.5741 23.6821 15.5741 24.2795 15.5741C24.2795 14.3353 24.2795 13.0966 24.2795 11.8203C25.0702 11.8203 25.8609 11.8203 26.6755 11.8203C26.6755 13.0854 26.6755 14.3505 26.6755 15.6539C26.8864 15.6539 27.0972 15.6539 27.3144 15.6539C28.6281 15.7974 29.9483 16.1796 30.9883 17.0117C31.0608 17.0611 31.1333 17.1105 31.208 17.1614C31.894 17.8093 32.2487 18.6969 32.2852 19.6251C32.3112 20.8668 32.1967 21.8959 31.3078 22.8419C31.0269 23.0751 30.7364 23.2838 30.4292 23.4809C30.5205 23.5085 30.5205 23.5085 30.6136 23.5367C31.6509 23.8643 32.6783 24.3798 33.2224 25.379C33.2495 25.4379 33.2766 25.4967 33.3045 25.5574C33.3357 25.6245 33.3668 25.6917 33.399 25.7608C33.9166 27.1148 33.7204 28.7719 33.1868 30.0886C32.6198 31.338 31.6631 31.9858 30.4492 32.5258C29.2266 32.9805 27.9691 33.0649 26.6755 33.0649C26.6755 34.3564 26.6755 35.6478 26.6755 36.9784C25.8848 36.9784 25.0941 36.9784 24.2795 36.9784C24.2795 35.7133 24.2795 34.4482 24.2795 33.1448C23.6733 33.1448 23.0671 33.1448 22.4426 33.1448C22.4426 34.4099 22.4426 35.675 22.4426 36.9784C21.6782 36.9784 20.9139 36.9784 20.1264 36.9784C20.1264 35.7133 20.1264 34.4482 20.1264 33.1448C18.5978 33.1448 17.0691 33.1448 15.4941 33.1448C15.6779 31.5829 15.6779 31.5829 15.7837 30.9834C15.7944 30.9209 15.8051 30.8585 15.8161 30.7942C15.8416 30.6459 15.8675 30.4976 15.8935 30.3494C15.9811 30.3477 15.9811 30.3477 16.0704 30.3459C16.3359 30.3399 16.6014 30.3322 16.8669 30.3245C17.0047 30.3218 17.0047 30.3218 17.1453 30.319C17.2341 30.3162 17.3229 30.3133 17.4144 30.3104C17.5367 30.3073 17.5367 30.3073 17.6615 30.3041C17.9227 30.2646 18.0769 30.1846 18.2895 30.03C18.3935 29.8219 18.3804 29.6689 18.3816 29.4358C18.3823 29.3436 18.383 29.2513 18.3837 29.1562C18.3841 29.0545 18.3844 28.9528 18.3848 28.8479C18.3854 28.7401 18.386 28.6323 18.3867 28.5245C18.3888 28.1698 18.39 27.8151 18.3912 27.4605C18.3916 27.3384 18.392 27.2163 18.3925 27.0943C18.3942 26.5865 18.3957 26.0786 18.3966 25.5708C18.3979 24.843 18.4005 24.1152 18.4051 23.3875C18.4082 22.8758 18.4097 22.3641 18.4102 21.8524C18.4105 21.5467 18.4114 21.2412 18.414 20.9355C18.4164 20.6479 18.4169 20.3603 18.416 20.0726C18.416 19.917 18.4179 19.7615 18.4199 19.6059C18.4275 19.0382 18.4275 19.0382 18.1763 18.5493C17.8255 18.2434 17.6136 18.1898 17.1476 18.1766C17.0609 18.1737 16.9741 18.1709 16.8847 18.168C16.7202 18.1639 16.7202 18.1639 16.5524 18.1597C16.2032 18.1499 15.8539 18.14 15.4941 18.1298C15.4941 17.3128 15.4941 16.4957 15.4941 15.6539C17.0491 15.6539 18.6042 15.6539 20.2063 15.6539C20.2063 14.3888 20.2063 13.1237 20.2063 11.8203Z"
            fill="#6C71EC" />
        <path
            d="M23.8498 1.40768C23.9162 1.40775 23.9827 1.40782 24.0511 1.40789C28.831 1.42427 33.5503 2.94266 37.3772 5.83031C37.4265 5.86714 37.4757 5.90397 37.5265 5.94192C39.0255 7.06868 40.4753 8.41031 41.6102 9.90352C41.6832 9.99642 41.7563 10.0893 41.8295 10.1821C44.3642 13.4376 45.8985 17.3205 46.4022 21.4044C46.41 21.4676 46.4178 21.5308 46.4259 21.596C46.5025 22.3109 46.4979 23.0274 46.497 23.7455C46.497 23.8464 46.497 23.8464 46.497 23.9493C46.4948 25.4085 46.406 26.8355 46.116 28.268C46.0937 28.3784 46.072 28.4888 46.051 28.5994C45.285 32.6185 43.2337 36.2971 40.492 39.2945C40.4193 39.3756 40.3466 39.4567 40.274 39.5379C39.8641 39.9939 39.4455 40.4185 38.9746 40.812C38.8943 40.8829 38.8143 40.9539 38.7343 41.0251C37.5566 42.0672 36.2635 42.9064 34.9013 43.6872C34.845 43.7198 34.7886 43.7525 34.7306 43.7861C31.5451 45.6137 27.7877 46.5236 24.1293 46.5075C24.0582 46.5073 23.9872 46.5072 23.914 46.507C18.7627 46.4871 13.8409 44.7688 9.82315 41.5308C9.74634 41.4704 9.66954 41.4099 9.59041 41.3477C8.98828 40.8584 8.4362 40.3204 7.88637 39.7737C7.81267 39.7008 7.73896 39.6278 7.66302 39.5526C6.4181 38.302 5.32301 36.8488 4.47206 35.3012C4.43566 35.2354 4.39925 35.1695 4.36174 35.1017C3.07101 32.7486 2.14072 30.2865 1.70667 27.634C1.68938 27.532 1.67208 27.4301 1.65426 27.3251C1.47417 26.2379 1.41798 25.17 1.41716 24.0699C1.4171 24.005 1.41705 23.9401 1.41699 23.8733C1.42053 21.1699 1.82201 18.2675 2.9418 15.7831C3.04273 15.5554 3.12526 15.3243 3.20917 15.0899C3.89061 13.3122 4.97021 11.6286 6.14927 10.1431C6.21166 10.0637 6.27405 9.98437 6.33833 9.90258C7.34447 8.6476 8.47487 7.46007 9.74328 6.46924C9.80773 6.41633 9.87218 6.36341 9.93858 6.30889C10.7785 5.62019 11.6817 5.02101 12.6185 4.47257C12.7029 4.42285 12.7029 4.42285 12.789 4.37211C14.9019 3.13793 17.1754 2.32697 19.5669 1.83696C19.6253 1.82462 19.6836 1.81228 19.7437 1.79957C21.1007 1.51357 22.4648 1.40405 23.8498 1.40768ZM19.9063 2.61067C19.8349 2.62392 19.7634 2.63717 19.6897 2.65082C18.8063 2.82357 17.9469 3.07802 17.091 3.35444C17.0251 3.37572 16.9591 3.39701 16.8912 3.41894C14.6463 4.1601 12.5499 5.32167 10.7017 6.78871C10.5826 6.8823 10.5826 6.8823 10.4611 6.97777C9.20841 7.9821 8.01193 9.11201 7.0278 10.3827C6.965 10.4611 6.9022 10.5394 6.8375 10.6201C5.94915 11.7367 5.21319 12.9539 4.55193 14.2163C4.52427 14.2689 4.49662 14.3215 4.46813 14.3757C3.31676 16.5998 2.71124 19.0147 2.39552 21.4842C2.38711 21.5492 2.3787 21.6142 2.37004 21.6812C2.28275 22.4767 2.2927 23.2806 2.2907 24.0799C2.29049 24.1598 2.29028 24.2396 2.29007 24.3219C2.2897 25.613 2.36866 26.8462 2.63513 28.1132C2.64792 28.1771 2.66071 28.2411 2.67389 28.307C2.7533 28.6993 2.84904 29.085 2.95459 29.4709C2.96997 29.5293 2.98535 29.5876 3.0012 29.6478C3.74441 32.4397 5.06543 35.1791 6.91865 37.4062C7.02673 37.5362 7.13318 37.6673 7.23964 37.7986C8.1907 38.954 9.2635 40.0724 10.4621 40.9717C10.5575 41.0463 10.6529 41.121 10.7482 41.1957C12.5147 42.5675 14.5111 43.6434 16.6118 44.406C16.6718 44.428 16.7317 44.45 16.7935 44.4727C17.7529 44.8206 18.7274 45.0795 19.7266 45.2846C19.8377 45.3084 19.8377 45.3084 19.9509 45.3327C21.2271 45.5973 22.4865 45.6337 23.7849 45.634C23.8635 45.6341 23.9421 45.6343 24.0231 45.6344C25.4816 45.6341 26.9546 45.5814 28.3822 45.2596C28.4617 45.2424 28.5412 45.2251 28.6231 45.2074C29.2923 45.0581 29.9399 44.866 30.5885 44.6456C30.6632 44.6232 30.7378 44.6007 30.8147 44.5776C33.7028 43.6934 36.4114 42.0266 38.6058 39.9678C38.7733 39.8122 38.9429 39.6643 39.1193 39.5192C39.3633 39.3127 39.5672 39.0833 39.7735 38.8397C39.9587 38.6259 40.1531 38.422 40.3473 38.2163C42.1075 36.314 43.393 33.951 44.3256 31.5474C44.3472 31.493 44.3688 31.4386 44.391 31.3826C45.8036 27.7866 45.9944 23.5795 45.284 19.807C45.2695 19.7281 45.255 19.6491 45.24 19.5678C44.9193 17.88 44.3628 16.2374 43.6068 14.6955C43.5718 14.624 43.5368 14.5525 43.5008 14.4787C42.7735 13.0079 41.9207 11.6595 40.8914 10.3827C40.83 10.305 40.7686 10.2273 40.7054 10.1472C40.2279 9.56084 39.707 9.02219 39.1742 8.48588C39.1051 8.41598 39.0359 8.34607 38.9646 8.27405C38.4868 7.79854 37.987 7.36489 37.4571 6.94845C37.3966 6.90086 37.3362 6.85327 37.2739 6.80423C34.1059 4.34619 30.4044 2.88961 26.4355 2.39603C26.3756 2.38774 26.3158 2.37944 26.2542 2.3709C25.5945 2.28979 24.9288 2.30131 24.2652 2.30137C24.0527 2.30119 23.8402 2.29974 23.6276 2.29823C22.379 2.29409 21.1354 2.38128 19.9063 2.61067Z"
            fill="#E98E41" />
        <path
            d="M22.5225 25.2379C27.2873 25.1848 27.2873 25.1848 28.5125 26.356C28.9688 26.8911 29.0346 27.3567 29.0182 28.0435C28.9662 28.6498 28.7315 29.0614 28.2729 29.4559C26.9746 30.3733 25.3876 30.3623 23.8702 30.3544C23.2031 30.3519 23.2031 30.3519 22.5225 30.3494C22.5225 28.6626 22.5225 26.9758 22.5225 25.2379Z"
            fill="#0E0B32" />
        <path
            d="M22.5225 18.2895C26.3682 18.2272 26.3682 18.2272 27.4633 19.2236C27.8908 19.6786 27.9939 20.1829 27.9781 20.7956C27.9193 21.2946 27.7498 21.7313 27.3744 22.0732C27.2767 22.1461 27.1769 22.2161 27.0749 22.2829C27.0309 22.3121 26.987 22.3413 26.9417 22.3715C25.9767 22.9253 24.8398 22.9667 23.7604 22.9418C23.3519 22.9352 22.9434 22.9286 22.5225 22.9218C22.5225 21.3931 22.5225 19.8645 22.5225 18.2895Z"
            fill="#0E0B32" />
    </g>
    <defs>
        <clipPath id="clip0_22_21">
            <rect width="48" height="48" fill="white" />
        </clipPath>
    </defs>
</svg>