<svg width="48" height="48" viewBox="0 0 48 48" fill="none" xmlns="http://www.w3.org/2000/svg">
    <g clip-path="url(#clip0_21_14)">
        <mask id="mask0_21_14" style="mask-type:luminance" maskUnits="userSpaceOnUse" x="0" y="0"
            width="48" height="48">
            <path d="M47.273 0H0.727539V48H47.273V0Z" fill="white" />
        </mask>
        <g mask="url(#mask0_21_14)">
            <path
                d="M24.0003 48C36.8535 48 47.273 37.2549 47.273 24C47.273 10.7452 36.8535 0 24.0003 0C11.1471 0 0.727539 10.7452 0.727539 24C0.727539 37.2549 11.1471 48 24.0003 48Z"
                fill="black" />
            <path
                d="M40.6365 26.4656C40.6365 26.4563 40.6365 26.4563 40.6365 26.4656C40.6365 26.4468 40.6365 26.4375 40.6457 26.4375C40.6547 26.4093 40.6549 26.3813 40.6549 26.3438C40.6549 26.3343 40.6549 26.325 40.6549 26.3063C40.6549 26.2782 40.6547 26.25 40.6457 26.222C40.6457 26.2125 40.6457 26.2125 40.6457 26.2032L39.4639 21.1125C39.4184 20.925 39.2821 20.7843 39.1002 20.7375L34.2093 19.5188C34.2002 19.5188 34.1912 19.5188 34.182 19.5188C34.1548 19.5093 34.1366 19.5095 34.1094 19.5095C34.1003 19.5095 34.0821 19.5095 34.0729 19.5095C34.0457 19.5095 34.0184 19.5188 33.982 19.5188C33.973 19.5188 33.9638 19.5188 33.9548 19.5188H33.9456C33.9093 19.5281 33.8821 19.5468 33.8457 19.5656C33.8365 19.5656 33.8365 19.575 33.8275 19.575C33.8002 19.5938 33.773 19.6125 33.7548 19.6313L33.7458 19.6407L27.8275 25.5657C27.773 25.5845 27.7184 25.622 27.6821 25.6595C27.6365 25.7063 27.6002 25.7625 27.582 25.8188L25.4639 27.947L24.2821 23.7563C24.2821 23.7468 24.2729 23.7282 24.2639 23.7188C24.2547 23.7 24.2547 23.6907 24.2457 23.6813C24.2184 23.625 24.1912 23.5782 24.1456 23.5407C24.1002 23.5032 24.0547 23.475 24.0002 23.447C23.9912 23.4375 23.973 23.4375 23.9638 23.4281C23.9548 23.4281 23.9366 23.4188 23.9275 23.4093L19.973 22.425L28.3366 13.8375L27.0639 8.09063L21.6729 6.84375L7.3457 21.5625L8.55479 27.1125L13.4548 28.425L14.6547 33.3093C14.7002 33.4968 14.8457 33.6375 15.0275 33.675L19.5638 34.6125L20.9002 39.5345C20.9002 39.5438 20.9093 39.5532 20.9184 39.572C20.9274 39.5813 20.9274 39.6 20.9366 39.6093C20.9638 39.6563 20.9912 39.7125 21.0275 39.75V39.7595C21.0639 39.797 21.1184 39.8345 21.173 39.8532C21.1912 39.8625 21.2002 39.8625 21.2184 39.8718C21.2275 39.8813 21.2457 39.8813 21.2547 39.8907L26.0547 41.1563C26.0911 41.1657 26.1366 41.175 26.173 41.175C26.2184 41.175 26.2547 41.1657 26.2911 41.1563C26.3003 41.1563 26.3002 41.1563 26.3093 41.1563C26.3184 41.1563 26.3275 41.1468 26.3275 41.1468C26.3456 41.1375 26.3638 41.1375 26.373 41.1282C26.3912 41.1188 26.4002 41.1093 26.4184 41.1093C26.4275 41.1 26.4457 41.0907 26.4547 41.0813C26.4639 41.072 26.4821 41.0625 26.4911 41.0531C26.5002 41.0438 26.5003 41.0438 26.5093 41.0345L40.5003 26.7L40.5093 26.6907C40.5274 26.672 40.5458 26.6438 40.564 26.6156C40.564 26.6063 40.573 26.6063 40.573 26.597C40.6093 26.5313 40.6275 26.4938 40.6365 26.4656ZM34.2729 31.6407L33.3366 27.7595L35.6457 25.3782L39.2547 26.5313L34.2729 31.6407ZM26.4093 39.7032L25.3638 35.9906L29.573 31.65L33.1094 32.8406L26.4093 39.7032ZM20.6639 34.9218L23.9912 35.972L21.6184 38.4188L20.6639 34.9218ZM27.782 27.0375L28.7912 31.0313L24.7638 35.1843L20.8729 33.9563L27.782 27.0375ZM33.8639 20.9438L34.9548 24.675L32.6821 27.0188L29.0002 25.8188L33.8639 20.9438ZM33.3274 31.8563L30.3456 30.8532L32.5366 28.5938L33.3274 31.8563ZM29.5912 30.2063L28.7274 26.7845L31.9093 27.8157L29.5912 30.2063ZM24.573 36.7968L25.4639 39.947L22.3184 39.1218L24.573 36.7968ZM39.5003 25.575L35.9002 24.4218L34.8184 20.7L38.5912 21.6375L39.5003 25.575ZM20.2275 33.2063L19.3456 29.4656L20.6911 28.0125L24.3366 29.0906L20.2275 33.2063ZM20.7638 26.475L19.7912 23.4093L22.8911 24.1781L20.7638 26.475ZM21.4547 27.1875L23.5912 24.8718L24.5002 28.0782L21.4547 27.1875ZM20.0002 27.3L18.6547 28.7532L14.8093 27.7406L18.8275 23.6156L20.0002 27.3ZM15.4911 14.6156L16.5184 18.1313L12.2912 22.5282L8.80934 21.4782L15.4911 14.6156ZM22.4911 11.9156L20.2729 14.2313L16.6821 13.3969L21.582 8.37188L22.4911 11.9156ZM22.0093 18.9281L21.0639 14.8313L23.1638 12.6469L26.8911 13.9125L22.0093 18.9281ZM17.3002 17.325L16.4365 14.3719L19.4639 15.075L17.3002 17.325ZM20.2547 15.6657L21.0275 19.0313L18.0002 18.0188L20.2547 15.6657ZM12.1821 24.0657L13.1366 27.3L9.90934 26.4375L12.1821 24.0657ZM12.9639 23.2595L17.2275 18.825L20.9093 20.0625L14.0912 27.0657L12.9639 23.2595ZM27.1366 12.9281L23.4365 11.6719L22.5002 8.0625L26.2457 8.93438L27.1366 12.9281ZM8.53661 22.4438L11.5093 23.3438L9.2457 25.697L8.53661 22.4438ZM15.5184 32.7468L14.5275 28.7063L18.4002 29.7282L19.3002 33.525L15.5184 32.7468Z"
                fill="url(#paint0_linear_21_14)" />
        </g>
    </g>
    <defs>
        <linearGradient id="paint0_linear_21_14" x1="14.7884" y1="33.5411" x2="33.8313" y2="15.0751"
            gradientUnits="userSpaceOnUse">
            <stop stop-color="#34A3ED" />
            <stop offset="0.9988" stop-color="#8165F5" />
        </linearGradient>
        <clipPath id="clip0_21_14">
            <rect width="48" height="48" fill="white" />
        </clipPath>
    </defs>
</svg>