<svg width="48" height="48" viewBox="0 0 48 48" fill="none" xmlns="http://www.w3.org/2000/svg">
    <g clip-path="url(#clip0_20_2)">
        <path
            d="M24 48C37.2548 48 48 37.2548 48 24C48 10.7452 37.2548 0 24 0C10.7452 0 0 10.7452 0 24C0 37.2548 10.7452 48 24 48Z"
            fill="white" />
        <path
            d="M11.6719 38.0906V9.90937C11.7281 9.90937 11.7844 9.90937 11.8406 9.90937C14.0719 9.90937 16.3125 9.90937 18.5438 9.90937C18.6 9.90937 18.6469 9.90937 18.7219 9.90937V31.0406H22.2562V24.0094C22.3031 24.0094 22.3219 24 22.35 24C23.4562 24 24.5719 24 25.6781 24C25.7156 24 25.7531 24.0094 25.7906 24.0094C25.7813 24.0563 25.7719 24.1125 25.7719 24.1594C25.7719 26.4 25.7719 28.6406 25.7719 30.8812V31.05H32.7844V38.0812H32.5969C25.6875 38.0812 18.7781 38.0812 11.8687 38.0812C11.8031 38.0906 11.7375 38.0906 11.6719 38.0906Z"
            fill="#1F0472" />
        <path
            d="M32.8121 16.9406C32.8121 19.2656 32.8121 21.5906 32.8121 23.9156C32.8121 23.9344 32.8121 23.9625 32.8027 23.9906C32.7465 23.9906 32.6902 24 32.6246 24C30.3934 24 28.1621 24 25.9402 24C25.884 24 25.8277 24.0094 25.7809 24.0188C25.7809 23.9531 25.7715 23.8875 25.7715 23.8312C25.7715 20.4281 25.7715 17.025 25.7715 13.6219V13.4344H22.3965V9.92813H29.2871V16.95C29.334 16.95 29.3715 16.9594 29.3996 16.9594C30.5059 16.9594 31.6215 16.9594 32.7277 16.9594C32.7559 16.95 32.784 16.95 32.8121 16.9406Z"
            fill="#1F0472" />
        <path
            d="M32.8125 16.95C32.8125 16.2563 32.8125 15.5531 32.8125 14.8594C32.8125 13.2656 32.8125 11.6719 32.8125 10.0781V9.91875H36.3187V16.9406C36.2812 16.9406 36.2531 16.95 36.2156 16.95C35.1094 16.95 34.0031 16.95 32.8875 16.95C32.8687 16.95 32.8406 16.9406 32.8125 16.95Z"
            fill="#1F0472" />
    </g>
    <defs>
        <clipPath id="clip0_20_2">
            <rect width="48" height="48" fill="white" />
        </clipPath>
    </defs>
</svg>