<svg viewBox="0 0 24 24" fill="none" xmlns="http://www.w3.org/2000/svg">
  <path
    d="M20.4531 20.5429C19.3362 21.6619 18.0058 22.5445 16.5412 23.1381C15.0766 23.7316 13.5077 24.024 11.9279 23.9978C10.3572 24.0282 8.79687 23.7375 7.34222 23.1434C5.88757 22.5494 4.56919 21.6645 3.46768 20.5429C2.34046 19.4438 1.45113 18.1243 0.85502 16.6663C0.258911 15.2084 -0.0312253 13.6432 0.00266036 12.0681C0.00266036 8.61906 1.15767 5.74583 3.46768 3.44843C4.56995 2.3284 5.88866 1.44516 7.34327 0.852655C8.79789 0.260147 10.3579 -0.0291883 11.9279 0.00232325C13.5071 -0.0250223 15.0756 0.26597 16.5402 0.857987C18.0047 1.45001 19.3354 2.33095 20.4531 3.44843C22.8163 5.74583 23.9979 8.61906 23.9979 12.0681C24.0285 13.65 23.729 15.2208 23.1186 16.6801C22.5082 18.1394 21.6004 19.4551 20.4531 20.5429V20.5429Z"
    fill="#627EEA" />
  <path d="M12 3.77148L7.20001 11.9512L12 9.70958V3.77148Z" fill="white" />
  <path d="M12 9.70947L7.20001 11.9511L12 14.8632V9.70947Z" fill="#C0CCF7" />
  <path d="M12 3.77148V9.70958L16.7954 11.9512L12 3.77148Z" fill="#C0CCF7" />
  <path d="M12 9.70947V14.8632L16.7954 11.9511L12 9.70947Z" fill="#8198EE" />
  <path d="M7.20001 12.8848L12 19.8323V15.7993L7.20001 12.8848Z" fill="white" />
  <path d="M16.8 12.8848L12 15.7993V19.8323L16.8 12.8848Z" fill="#C0CCF7" />
</svg>
