<svg width="48" height="48" viewBox="0 0 48 48" fill="none" xmlns="http://www.w3.org/2000/svg">
    <rect x="1.5" y="1.5" width="45" height="45" rx="22.5" fill="white" />
    <rect x="1.5" y="1.5" width="45" height="45" rx="22.5" stroke="#ABE730" stroke-width="3" />
    <g filter="url(#filter0_i_9828_32360)">
        <path
            d="M24.0266 10.4841L23.8435 11.1002V28.9762L24.0266 29.157L32.3946 24.2522L24.0266 10.4841Z"
            fill="#6B6B6B" />
        <path d="M24.0266 10.4841L15.658 24.2522L24.0266 29.157V20.4806V10.4841Z" fill="#A2A2A2" />
        <path
            d="M24.0266 30.7281L23.9233 30.8526V37.2205L24.0266 37.5189L32.3999 25.8257L24.0266 30.7281Z"
            fill="#4F4E4E" />
        <path d="M24.0266 37.5189V30.7281L15.658 25.8257L24.0266 37.5189Z" fill="#A2A2A2" />
        <path d="M24.0266 29.1571L32.3947 24.2523L24.0266 20.4807V29.1571Z" fill="#797979" />
        <path d="M15.658 24.2523L24.0266 29.1571V20.4807L15.658 24.2523Z" fill="#D4D4D4" />
        <g style="mix-blend-mode:overlay">
            <path
                d="M24.0263 10.4841L23.8435 11.1002V28.9762L24.0263 29.157L32.3946 24.2522L24.0263 10.4841Z"
                fill="#ACE730" />
            <path d="M24.0264 10.4841L15.658 24.2522L24.0264 29.157V20.4806V10.4841Z" fill="#ACE730" />
            <path
                d="M24.0266 30.7281L23.9233 30.8526V37.2205L24.0266 37.5189L32.3999 25.8257L24.0266 30.7281Z"
                fill="#ACE730" />
            <path d="M24.0266 37.5189V30.7281L15.658 25.8257L24.0266 37.5189Z" fill="#ACE730" />
            <path d="M24.0264 29.1571L32.3947 24.2523L24.0264 20.4807V29.1571Z" fill="#ACE730" />
            <path d="M15.658 24.2523L24.0264 29.1571V20.4807L15.658 24.2523Z" fill="#ACE730" />
        </g>
    </g>
    <defs>
        <filter id="filter0_i_9828_32360" x="15.658" y="10.4841" width="16.7419" height="27.0347"
            filterUnits="userSpaceOnUse" color-interpolation-filters="sRGB">
            <feFlood flood-opacity="0" result="BackgroundImageFix" />
            <feBlend mode="normal" in="SourceGraphic" in2="BackgroundImageFix" result="shape" />
            <feColorMatrix in="SourceAlpha" type="matrix"
                values="0 0 0 0 0 0 0 0 0 0 0 0 0 0 0 0 0 0 127 0" result="hardAlpha" />
            <feOffset />
            <feGaussianBlur stdDeviation="10.6725" />
            <feComposite in2="hardAlpha" operator="arithmetic" k2="-1" k3="1" />
            <feColorMatrix type="matrix"
                values="0 0 0 0 0.67451 0 0 0 0 0.905882 0 0 0 0 0.188235 0 0 0 0.5 0" />
            <feBlend mode="normal" in2="shape" result="effect1_innerShadow_9828_32360" />
        </filter>
    </defs>
</svg>