<svg viewBox="0 0 40 40" fill="none" xmlns="http://www.w3.org/2000/svg">
  <circle cx="20" cy="20" r="20" fill="#1D1336"/>
  <path d="M11.441 19.4986C11.441 19.2579 11.6371 19.0627 11.879 19.0627H28.0844C28.3263 19.0627 28.5224 19.2579 28.5224 19.4986C28.5224 19.7393 28.3263 19.9345 28.0844 19.9345H11.879C11.6371 19.9345 11.441 19.7393 11.441 19.4986Z" fill="#E1147B"/>
  <path d="M8.15614 21.4165C8.15614 21.1757 8.35222 20.9806 8.59412 20.9806H20.4197C20.6616 20.9806 20.8577 21.1757 20.8577 21.4165C20.8577 21.6572 20.6616 21.8523 20.4197 21.8523H8.59412C8.35222 21.8523 8.15614 21.6572 8.15614 21.4165Z" fill="#E1147B"/>
  <path d="M19.1495 26.7341C18.9076 26.7341 18.7115 26.9292 18.7115 27.17C18.7115 27.4107 18.9076 27.6058 19.1495 27.6058H26.4638C26.7057 27.6058 26.9018 27.4107 26.9018 27.17C26.9018 26.9292 26.7057 26.7341 26.4638 26.7341H19.1495Z" fill="#E1147B"/>
  <path d="M14.2441 29.0878C14.2441 28.8471 14.4402 28.6519 14.6821 28.6519H21.9526C22.1945 28.6519 22.3906 28.8471 22.3906 29.0878C22.3906 29.3285 22.1945 29.5237 21.9526 29.5237H14.6821C14.4402 29.5237 14.2441 29.3285 14.2441 29.0878Z" fill="#E1147B"/>
  <path d="M11.879 22.8984C11.6371 22.8984 11.441 23.0936 11.441 23.3343C11.441 23.575 11.6371 23.7702 11.879 23.7702H26.1573C26.3992 23.7702 26.5952 23.575 26.5952 23.3343C26.5952 23.0936 26.3992 22.8984 26.1573 22.8984H11.879Z" fill="#E1147B"/>
  <path d="M8.9883 25.2521C8.9883 25.0114 9.18439 24.8163 9.42629 24.8163H15.1201C15.362 24.8163 15.5581 25.0114 15.5581 25.2521C15.5581 25.4929 15.362 25.688 15.1201 25.688H9.42629C9.18439 25.688 8.9883 25.4929 8.9883 25.2521Z" fill="#E1147B"/>
  <path d="M16.7844 24.8163C16.5425 24.8163 16.3464 25.0114 16.3464 25.2521C16.3464 25.4929 16.5425 25.688 16.7844 25.688H28.61C28.8519 25.688 29.0479 25.4929 29.0479 25.2521C29.0479 25.0114 28.8519 24.8163 28.61 24.8163H16.7844Z" fill="#E1147B"/>
  <path d="M10.8278 19.4986C10.8278 19.7393 10.6317 19.9345 10.3899 19.9345C10.148 19.9345 9.95187 19.7393 9.95187 19.4986C9.95187 19.2579 10.148 19.0627 10.3899 19.0627C10.6317 19.0627 10.8278 19.2579 10.8278 19.4986Z" fill="#E1147B"/>
  <path d="M7.10498 21.8523C7.34687 21.8523 7.54296 21.6572 7.54296 21.4165C7.54296 21.1757 7.34687 20.9806 7.10498 20.9806C6.86308 20.9806 6.66699 21.1757 6.66699 21.4165C6.66699 21.6572 6.86308 21.8523 7.10498 21.8523Z" fill="#E1147B"/>
  <path d="M18.0984 27.17C18.0984 27.4107 17.9023 27.6058 17.6604 27.6058C17.4185 27.6058 17.2224 27.4107 17.2224 27.17C17.2224 26.9292 17.4185 26.7341 17.6604 26.7341C17.9023 26.7341 18.0984 26.9292 18.0984 27.17Z" fill="#E1147B"/>
  <path d="M13.1929 29.5237C13.4348 29.5237 13.6309 29.3285 13.6309 29.0878C13.6309 28.8471 13.4348 28.6519 13.1929 28.6519C12.951 28.6519 12.755 28.8471 12.755 29.0878C12.755 29.3285 12.951 29.5237 13.1929 29.5237Z" fill="#E1147B"/>
  <path d="M10.8278 23.3343C10.8278 23.575 10.6317 23.7702 10.3899 23.7702C10.148 23.7702 9.95187 23.575 9.95187 23.3343C9.95187 23.0936 10.148 22.8984 10.3899 22.8984C10.6317 22.8984 10.8278 23.0936 10.8278 23.3343Z" fill="#E1147B"/>
  <path d="M7.93714 25.688C8.17904 25.688 8.37513 25.4929 8.37513 25.2521C8.37513 25.0114 8.17904 24.8163 7.93714 24.8163C7.69525 24.8163 7.49916 25.0114 7.49916 25.2521C7.49916 25.4929 7.69525 25.688 7.93714 25.688Z" fill="#E1147B"/>
  <path d="M26.4557 14.7812C26.8078 15.6273 26.9891 16.5342 26.9891 17.45C26.9891 17.6426 26.8322 17.7987 26.6387 17.7987H13.324C13.1305 17.7987 12.9736 17.6426 12.9736 17.45C12.9736 16.5342 13.1549 15.6273 13.5071 14.7812C13.8592 13.9351 14.3754 13.1663 15.0261 12.5187C15.6769 11.8711 16.4494 11.3574 17.2996 11.0069C18.1498 10.6565 19.0611 10.4761 19.9814 10.4761C20.9016 10.4761 21.8129 10.6565 22.6631 11.0069C23.5133 11.3574 24.2859 11.8711 24.9366 12.5187C25.5873 13.1663 26.1035 13.9351 26.4557 14.7812Z" fill="#53CBC7"/>
</svg>
