<svg width="48" height="48" viewBox="0 0 48 48" fill="none" xmlns="http://www.w3.org/2000/svg">
    <g clip-path="url(#clip0_21_7)">
        <path
            d="M48 24C48 10.7452 37.2548 0 24 0C10.7452 0 0 10.7452 0 24C0 37.2548 10.7452 48 24 48C37.2548 48 48 37.2548 48 24Z"
            fill="white" />
        <path
            d="M36.3146 19.958C36.2833 19.9961 36.2436 20.0265 36.1988 20.0471L30.3905 22.6761L25.0366 25.1056C24.9869 25.1283 24.9324 25.1383 24.878 25.1345C24.8235 25.1306 24.7709 25.1132 24.725 25.0837C24.6791 25.0542 24.6413 25.0136 24.6151 24.9658C24.5889 24.9179 24.5752 24.8642 24.5752 24.8096L24.603 5.55449C24.6038 5.4884 24.6248 5.42414 24.6635 5.37053C24.6862 5.33255 24.7712 5.27962 24.811 5.2579C24.8759 5.23119 24.9471 5.22299 25.015 5.2409C25.0829 5.25882 25.1431 5.29843 25.1864 5.3537L36.3189 19.5491C36.3495 19.5878 36.3709 19.633 36.3815 19.6811C36.392 19.7294 36.3915 19.7793 36.38 19.8273C36.3683 19.8752 36.3461 19.9199 36.3146 19.958Z"
            fill="black" />
        <path
            d="M30.0532 24.2121L35.8608 21.5737C35.9298 21.5416 36.0077 21.5345 36.0813 21.5538C36.1548 21.573 36.2193 21.6174 36.2635 21.6792C36.3078 21.7411 36.329 21.8164 36.3234 21.8922C36.318 21.968 36.2862 22.0396 36.2334 22.0944L25.1253 33.8521C25.0885 33.8919 25.0422 33.9214 24.9906 33.9379C24.9601 33.9439 24.8857 33.9537 24.8317 33.945C24.7602 33.9309 24.6955 33.8929 24.6485 33.8369C24.5993 33.7785 24.5727 33.7045 24.5733 33.6281V26.9004C24.5732 26.8378 24.5912 26.7766 24.6252 26.7241C24.6592 26.6716 24.7077 26.63 24.7647 26.6044L30.0532 24.2121Z"
            fill="black" />
        <path
            d="M11.7385 28.7545C11.7698 28.7926 11.8095 28.823 11.8543 28.8435L17.6626 31.4726L23.0165 33.902C23.0662 33.9248 23.1207 33.9347 23.1751 33.9309C23.2296 33.9271 23.2822 33.9096 23.3281 33.8801C23.3741 33.8507 23.4119 33.8102 23.438 33.7622C23.4642 33.7143 23.4779 33.6606 23.4779 33.606L23.4501 14.3509C23.4493 14.2849 23.4283 14.2206 23.3896 14.167C23.3593 14.1355 23.2876 14.0689 23.2421 14.0543C23.1772 14.0276 23.106 14.0194 23.0381 14.0374C22.9702 14.0553 22.91 14.0949 22.8667 14.1502L11.7342 28.3455C11.7036 28.3843 11.6822 28.4294 11.6716 28.4776C11.6611 28.5258 11.6616 28.5758 11.6731 28.6238C11.6848 28.6717 11.707 28.7164 11.7385 28.7545Z"
            fill="black" />
        <path
            d="M17.9996 33.0086L12.192 30.3702C12.1231 30.338 12.0451 30.331 11.9716 30.3503C11.898 30.3695 11.8335 30.4139 11.7893 30.4757C11.745 30.5375 11.7239 30.6129 11.7294 30.6887C11.7348 30.7646 11.7666 30.836 11.8194 30.8909L22.9275 42.6486C22.9643 42.6884 23.0107 42.718 23.0622 42.7344C23.0927 42.7404 23.1671 42.7502 23.2211 42.7415C23.2926 42.7274 23.3573 42.6893 23.4043 42.6334C23.4535 42.575 23.4801 42.5009 23.4795 42.4246V35.6969C23.4796 35.6343 23.4616 35.5731 23.4276 35.5205C23.3936 35.468 23.3451 35.4265 23.2881 35.4009L17.9996 33.0086Z"
            fill="black" />
    </g>
    <defs>
        <clipPath id="clip0_21_7">
            <rect width="48" height="48" fill="white" />
        </clipPath>
    </defs>
</svg>