<svg
  width="200"
  height="200"
  viewBox="0 0 200 200"
  fill="none"
  xmlns="http://www.w3.org/2000/svg"
>
  <rect width="200" height="200" rx="100" fill="#2362C0" />
  <path
    d="M99.1304 50.5999H119.224C121.965 50.5999 124.418 52.1917 125.375 54.592L143.012 98.8295C143.148 99.1707 143.149 99.5461 143.016 99.8884L142.917 100.143L142.916 100.145L125.354 145.305C124.411 147.729 121.945 149.343 119.185 149.343H99.0941C97.9643 149.343 97.1725 148.301 97.5448 147.304L115.654 98.8295L97.5892 52.6596C97.1977 51.6592 97.9904 50.5999 99.1304 50.5999Z"
    fill="#D631B9"
  />
  <path
    d="M46.6786 50.5999H66.772C69.5133 50.5999 71.9659 52.1917 72.9229 54.592L90.5598 98.8295C90.6958 99.1707 90.6974 99.5461 90.5643 99.8884L90.4655 100.143L90.4645 100.145L72.9019 145.305C71.959 147.729 69.4934 149.343 66.7327 149.343H46.6423C45.5125 149.343 44.7207 148.301 45.093 147.304L63.2024 98.8295L45.1374 52.6596C44.7459 51.6592 45.5386 50.5999 46.6786 50.5999Z"
    fill="#D631B9"
  />
  <path
    d="M112.765 89.3999H84.3999V110.8H112.765L117.4 99.7942L112.765 89.3999Z"
    fill="#D631B9"
  />
  <path
    d="M110.73 50.5999H130.824C133.565 50.5999 136.018 52.1917 136.975 54.592L154.612 98.8295C154.748 99.1707 154.749 99.5461 154.616 99.8884L154.517 100.143L154.517 100.145L136.954 145.305C136.011 147.729 133.545 149.343 130.785 149.343H110.694C109.564 149.343 108.773 148.301 109.145 147.304L127.254 98.8295L109.189 52.6596C108.798 51.6592 109.59 50.5999 110.73 50.5999Z"
    fill="white"
  />
  <path
    d="M58.2786 50.5999H78.3721C81.1134 50.5999 83.566 52.1917 84.523 54.592L102.16 98.8295C102.296 99.1707 102.298 99.5461 102.164 99.8884L102.066 100.143L102.065 100.145L84.502 145.305C83.5591 147.729 81.0935 149.343 78.3328 149.343H58.2424C57.1126 149.343 56.3208 148.301 56.6931 147.304L74.8025 98.8295L56.7375 52.6596C56.346 51.6592 57.1387 50.5999 58.2786 50.5999Z"
    fill="white"
  />
  <path
    d="M124.365 89.3999H96V110.8H124.365L129 99.7942L124.365 89.3999Z"
    fill="white"
  />
</svg>
