<svg width="48" height="48" viewBox="0 0 48 48" fill="none" xmlns="http://www.w3.org/2000/svg">
    <g clip-path="url(#clip0_9828_791)">
        <mask id="mask0_9828_791" style="mask-type:alpha" maskUnits="userSpaceOnUse" x="0" y="0"
            width="48" height="48">
            <path
                d="M24 48C37.2548 48 48 37.2548 48 24C48 10.7452 37.2548 0 24 0C10.7452 0 0 10.7452 0 24C0 37.2548 10.7452 48 24 48Z"
                fill="#162E2F" />
        </mask>
        <g mask="url(#mask0_9828_791)">
            <path
                d="M24 48C37.2548 48 48 37.2548 48 24C48 10.7452 37.2548 0 24 0C10.7452 0 0 10.7452 0 24C0 37.2548 10.7452 48 24 48Z"
                fill="#162E2F" />
            <path
                d="M-9 7.5H28.2V14.94L31.92 19.59L28.2 24.24L34.71 28.4251L28.2 32.61V40.98H-9V7.5Z"
                fill="url(#paint0_linear_9828_791)" />
            <path d="M18 15H0V19.5H18V15Z" fill="url(#paint1_linear_9828_791)" />
            <path d="M0 33H18V28.5H0V33Z" fill="url(#paint2_linear_9828_791)" />
            <path
                d="M35.6565 17.7862C35.299 14.1318 32.1446 12.9119 28.1638 12.5697L28.1553 7.5L25.0716 7.50562L25.0802 12.4418C24.2695 12.4431 23.441 12.4606 22.6176 12.4784L22.6099 7.50945L19.5279 7.51462L19.5355 12.5829C18.8681 12.5978 18.2124 12.6114 17.5731 12.6128L17.5728 12.5969L13.3198 12.6025L13.3262 15.8985C13.3262 15.8985 15.6032 15.8513 15.5654 15.8931C16.8142 15.8913 17.2221 16.6164 17.3417 17.2425C17.3496 21.8751 17.3573 26.4975 17.3645 31.1311C17.3105 31.5245 17.0806 32.1525 16.2079 32.1552C16.2476 32.1902 13.9665 32.1585 13.9665 32.1585L13.3599 35.845L17.3727 35.8382C18.1197 35.838 18.8544 35.8493 19.5759 35.8524L19.5859 40.98L22.6661 40.9752L22.6574 35.9018C23.5032 35.9181 24.3214 35.9234 25.1208 35.9213L25.1278 40.9711L28.2117 40.9654L28.2038 35.8471C33.3874 35.5407 37.0137 34.2278 37.4558 29.3547C37.8129 25.4311 35.9661 23.6839 33.0223 22.9815C34.8087 22.0673 35.9237 20.4603 35.6577 17.7864L35.6566 17.7859L35.6565 17.7862ZM31.3608 28.7573C31.3689 32.5891 24.8122 32.1645 22.7223 32.1699L22.7119 25.3762C24.8021 25.3733 31.3543 24.7606 31.3608 28.7573ZM29.9105 19.1746C29.9155 22.6608 24.4473 22.2633 22.7066 22.2663L22.6965 16.1049C24.4371 16.1019 29.9042 15.5388 29.9107 19.1746H29.9105Z"
                fill="#C4FDF2" />
        </g>
    </g>
    <defs>
        <linearGradient id="paint0_linear_9828_791" x1="34.71" y1="24.24" x2="-9" y2="24.24"
            gradientUnits="userSpaceOnUse">
            <stop stop-color="#4E988D" />
            <stop offset="1" stop-color="#264C4A" />
        </linearGradient>
        <linearGradient id="paint1_linear_9828_791" x1="9" y1="15" x2="9" y2="19.5"
            gradientUnits="userSpaceOnUse">
            <stop stop-opacity="0.1" />
            <stop offset="1" stop-opacity="0" />
        </linearGradient>
        <linearGradient id="paint2_linear_9828_791" x1="9" y1="33" x2="9" y2="28.5"
            gradientUnits="userSpaceOnUse">
            <stop stop-opacity="0.1" />
            <stop offset="1" stop-opacity="0" />
        </linearGradient>
        <clipPath id="clip0_9828_791">
            <rect width="48" height="48" fill="white" />
        </clipPath>
    </defs>
</svg>