<svg width="48" height="48" viewBox="0 0 48 48" fill="none" xmlns="http://www.w3.org/2000/svg">
    <path
        d="M23.9848 29.6048L9.92362 21.5729L9.53962 22.1619C5.20877 28.8054 6.176 37.5062 11.865 43.0804C18.5596 49.6399 29.4137 49.6399 36.1083 43.0804C41.7973 37.5062 42.7645 28.8054 38.4337 22.1619L38.0496 21.5727L23.9848 29.6048Z"
        fill="url(#paint0_radial_13_7639)" />
    <path opacity="0.6"
        d="M24.0028 11.6636L11.8818 18.5944L24.0028 25.5164L36.115 18.5945L24.0028 11.6636Z"
        fill="url(#paint1_radial_13_7639)" />
    <path d="M24.0192 13.4717L9.93457 21.5759L23.9877 29.6115L38.0539 21.5733L24.0192 13.4717Z"
        fill="url(#paint2_diamond_13_7639)" />
    <path d="M24.0028 0.00915527L11.8818 18.5945L24.0028 25.5165V0.00915527Z"
        fill="url(#paint3_linear_13_7639)" />
    <path d="M24.002 25.5177L36.124 18.5946L24.0026 0L24.002 25.5177Z"
        fill="url(#paint4_linear_13_7639)" />
    <defs>
        <radialGradient id="paint0_radial_13_7639" cx="0" cy="0" r="1"
            gradientUnits="userSpaceOnUse"
            gradientTransform="translate(23.9713 48.0121) rotate(-90) scale(22.8174 29.8211)">
            <stop offset="0.203695" stop-color="#56F2FF" />
            <stop offset="1" stop-color="#4A8CEA" />
        </radialGradient>
        <radialGradient id="paint1_radial_13_7639" cx="0" cy="0" r="1"
            gradientUnits="userSpaceOnUse"
            gradientTransform="translate(23.9985 18.59) rotate(90.1607) scale(6.90766 13.0778)">
            <stop stop-color="#EEFF83" />
            <stop offset="0.689596" stop-color="#5699EC" />
        </radialGradient>
        <radialGradient id="paint2_diamond_13_7639" cx="0" cy="0" r="1"
            gradientUnits="userSpaceOnUse"
            gradientTransform="translate(23.9943 21.5416) rotate(90.16) scale(8.04807 15.175)">
            <stop stop-color="#56F2FF" />
            <stop offset="1" stop-color="#5699EC" />
        </radialGradient>
        <linearGradient id="paint3_linear_13_7639" x1="17.9423" y1="0.00915527" x2="17.9423"
            y2="25.5165" gradientUnits="userSpaceOnUse">
            <stop offset="0.377179" stop-color="#FFE336" />
            <stop offset="1" stop-color="#13C0B6" stop-opacity="0.7" />
        </linearGradient>
        <linearGradient id="paint4_linear_13_7639" x1="30.063" y1="0" x2="30.063" y2="25.5177"
            gradientUnits="userSpaceOnUse">
            <stop offset="0.408817" stop-color="#FF7F72" />
            <stop offset="1" stop-color="#2978EF" stop-opacity="0.7" />
        </linearGradient>
    </defs>
</svg>