<svg
  width="48"
  height="48"
  viewBox="0 0 48 48"
  fill="none"
  xmlns="http://www.w3.org/2000/svg"
>
  <g clip-path="url(#clip0_9881_963)">
    <path
      d="M24 48C37.2548 48 48 37.2548 48 24C48 10.7452 37.2548 0 24 0C10.7452 0 0 10.7452 0 24C0 37.2548 10.7452 48 24 48Z"
      fill="white"
    />
    <path
      d="M15.3267 19.6021L23.9998 15.5789V4.58228L15.3267 19.6021Z"
      fill="#FF596E"
    />
    <path d="M24 15.5791V24.3411L32.6732 19.6023L24 15.5791Z" fill="#FF596E" />
    <path
      d="M23.9998 15.5791V24.3411L15.3267 19.6023L23.9998 15.5791Z"
      fill="#800010"
    />
    <path
      d="M32.6732 19.6021L24 15.5789V4.58228L32.6732 19.6021Z"
      fill="#800010"
    />
    <path
      d="M23.9995 27.7234V37.0622L15.1597 22.8928L23.9995 27.7234Z"
      fill="#FF596E"
    />
    <path d="M24 27.7234V37.0622L32.8398 22.8928L24 27.7234Z" fill="#800010" />
    <path
      d="M34.2993 25.0332L36.3019 30.6531L40.6878 23.3267L34.2993 25.0332Z"
      fill="#800010"
    />
    <path
      d="M36.3018 30.6531L40.6877 29.3537V23.3267L36.3018 30.6531Z"
      fill="#FF596E"
    />
    <path
      d="M40.6876 29.3538L34.2991 40.028L29.4463 42.1056L36.3017 30.6531L40.6876 29.3538Z"
      fill="#800010"
    />
    <path
      d="M7.3125 29.3538L13.7009 40.028L18.5538 42.1056L11.6984 30.6531L7.3125 29.3538Z"
      fill="#FF596E"
    />
    <path
      d="M23.9998 42.1054L13.7008 25.033L11.6982 30.6529L18.5536 42.1054H23.9998Z"
      fill="#800010"
    />
    <path
      d="M13.7009 25.0332L11.6984 30.6531L7.3125 23.3267L13.7009 25.0332Z"
      fill="#FF596E"
    />
    <path
      d="M11.6984 30.6531L7.3125 29.3537V23.3267L11.6984 30.6531Z"
      fill="#800010"
    />
    <path
      d="M24 42.1054L34.299 25.033L36.3016 30.6529L29.4462 42.1054H24Z"
      fill="#FF596E"
    />
  </g>
  <defs>
    <clipPath id="clip0_9881_963">
      <rect width="48" height="48" fill="white" />
    </clipPath>
  </defs>
</svg>
