<svg
  width="48"
  height="48"
  viewBox="0 0 48 48"
  fill="none"
  xmlns="http://www.w3.org/2000/svg"
>
  <path
    fill-rule="evenodd"
    clip-rule="evenodd"
    d="M0 24V24C0 37.2548 10.7452 48 24 48V48V48C37.2548 48 48 37.2548 48 24V24V24C48 10.7452 37.2548 0 24 0V0V0C10.7452 0 0 10.7452 0 24V24Z"
    fill="#FFC6D1"
  />
  <path
    fill-rule="evenodd"
    clip-rule="evenodd"
    d="M0 24V24C0 37.2548 10.7452 48 24 48V48V48C37.2548 48 48 37.2548 48 24V24V24C48 10.7452 37.2548 0 24 0V0V0C10.7452 0 0 10.7452 0 24V24ZM24.84 7.2C25.0447 7.596 25.1582 7.92 25.0922 7.92C25.0262 7.92 24.8047 7.596 24.6 7.2C24.3953 6.804 24.2818 6.48 24.3478 6.48C24.4138 6.48 24.6353 6.804 24.84 7.2ZM23.76 7.2C23.6186 7.464 23.4492 7.68 23.3832 7.68C23.3172 7.68 23.3786 7.464 23.52 7.2C23.6614 6.936 23.8308 6.72 23.8968 6.72C23.9628 6.72 23.9014 6.936 23.76 7.2ZM22.7045 9.15792C22.2686 9.78024 22.1875 9.57624 22.5794 8.84376C22.7222 8.57712 22.895 8.41512 22.9639 8.484C23.0328 8.55264 22.9159 8.856 22.7045 9.15792ZM21.84 10.8C21.6986 11.064 21.5292 11.28 21.4632 11.28C21.3972 11.28 21.4586 11.064 21.6 10.8C21.7414 10.536 21.9108 10.32 21.9768 10.32C22.0428 10.32 21.9814 10.536 21.84 10.8ZM19.92 14.3542C19.92 14.461 19.7563 14.7578 19.5562 15.0142C19.2187 15.4462 19.2127 15.432 19.4746 14.82C19.7573 14.1598 19.92 13.9894 19.92 14.3542ZM19.0594 16.0766C18.9041 16.2319 18.823 16.1508 18.823 15.84C18.823 15.5292 18.9041 15.4481 19.0594 15.6034C19.2149 15.7589 19.2149 15.9211 19.0594 16.0766ZM18.12 17.76C17.7854 18.42 17.4578 18.96 17.3918 18.96C17.3258 18.96 17.5454 18.42 17.88 17.76C18.2146 17.1 18.5422 16.56 18.6082 16.56C18.6742 16.56 18.4546 17.1 18.12 17.76ZM30.713 19.6894C30.1481 20.0467 29.8618 19.9541 30.3737 19.5797C30.6298 19.3925 30.8904 19.2902 30.9526 19.3526C31.015 19.415 30.9072 19.5665 30.713 19.6894ZM29.04 20.2524C29.04 20.3033 28.7431 20.5255 28.38 20.7466L28.3622 20.7574C28.2951 20.7983 28.2274 20.7058 28.2866 20.6542V20.6542C28.8396 20.172 29.04 20.065 29.04 20.2524ZM21.2462 21.5537C21.1726 21.6276 20.9789 21.5539 20.8159 21.3898C20.5807 21.1526 20.6083 21.1253 20.9503 21.2554C21.187 21.3456 21.3202 21.4798 21.2462 21.5537ZM27.6 21.2203C27.6 21.3696 26.0174 22.3202 25.7717 22.3188C25.6553 22.3181 25.992 22.0514 26.52 21.7262C27.5525 21.0902 27.6 21.0682 27.6 21.2203ZM18.9 22.5022C19.1969 22.6963 19.44 22.9092 19.44 22.9752C19.44 23.0412 19.1969 22.9397 18.9 22.7496C17.9534 22.1438 17.448 22.0265 17.6105 22.4498C17.6933 22.6654 17.6537 22.7626 17.5174 22.6783C17.3868 22.5977 17.28 22.3687 17.28 22.1698C17.28 21.7586 17.9832 21.9029 18.9 22.5022ZM12.24 22.3234C12.4961 22.4911 12.3746 22.5161 11.82 22.4098V22.4098C11.4153 22.3321 11.04 22.6422 11.04 23.0542V24.8184C11.04 26.7394 11.1362 27.5393 11.4262 28.0284V28.0284C11.4716 28.1052 11.3656 28.1799 11.3062 28.1134V28.1134C10.8581 27.6118 10.8 27.252 10.8 24.9734C10.8 23.5579 10.872 22.3279 10.9601 22.2401C11.1912 22.0087 11.8229 22.05 12.24 22.3234ZM37.375 22.225C37.2953 22.3046 37.0882 22.3133 36.9151 22.2439C36.7236 22.1674 36.7805 22.1105 37.0601 22.099C37.313 22.0886 37.4546 22.1453 37.375 22.225ZM25.2 22.68C25.0356 22.878 24.7858 23.04 24.6446 23.04C24.5038 23.04 24.5978 22.8814 24.8542 22.6877C25.4561 22.2322 25.5737 22.2298 25.2 22.68ZM13.8 22.8C13.8816 22.932 13.8338 23.04 13.6942 23.04C13.5545 23.04 13.44 22.932 13.44 22.8C13.44 22.668 13.4875 22.56 13.5458 22.56C13.6042 22.56 13.7184 22.668 13.8 22.8ZM37.5989 23.58C37.5324 23.7451 37.4779 23.61 37.4779 23.28C37.4779 22.95 37.5324 22.8151 37.5989 22.98C37.6656 23.1451 37.6656 23.4151 37.5989 23.58ZM21.12 24.1526C21.12 24.2186 20.796 24.042 20.4 23.76C20.004 23.478 19.68 23.1934 19.68 23.1274C19.68 23.0614 20.004 23.238 20.4 23.52C20.796 23.802 21.12 24.0866 21.12 24.1526ZM33.12 23.3201C33.12 23.4739 33.049 23.5289 32.9621 23.442C32.8752 23.3551 32.6323 23.4182 32.4221 23.5822C32.0839 23.8457 32.0779 23.8315 32.3693 23.46C32.7468 22.9788 33.12 22.9092 33.12 23.3201ZM15.775 23.425C15.6953 23.5046 15.4882 23.5133 15.3151 23.4439C15.1236 23.3674 15.1805 23.3105 15.4601 23.299C15.713 23.2886 15.8546 23.3453 15.775 23.425ZM18.8098 24.5875C19.087 25.0106 19.1179 25.2223 18.9202 25.3445C18.7512 25.4491 18.7116 25.4078 18.8172 25.2372C18.9113 25.0848 18.8866 24.96 18.7622 24.96C18.6377 24.96 18.4795 24.744 18.4104 24.48C18.2453 23.8483 18.3425 23.8745 18.8098 24.5875ZM31.7662 24.7126C31.5346 25.1045 31.3039 25.3838 31.2535 25.3334C31.1508 25.2307 31.915 24 32.0813 24C32.1394 24 31.9978 24.3206 31.7662 24.7126ZM22.6034 24.6509C22.8252 24.715 23.0683 24.9274 23.1434 25.1232C23.2414 25.3786 23.0254 25.326 22.38 24.9379C21.2806 24.2767 21.0878 24.1046 21.72 24.349C21.984 24.451 22.3814 24.5868 22.6034 24.6509ZM25.92 24.8258C25.92 24.8842 25.812 24.9984 25.68 25.08C25.548 25.1616 25.44 25.1138 25.44 24.9742C25.44 24.8345 25.548 24.72 25.68 24.72C25.812 24.72 25.92 24.7675 25.92 24.8258ZM37.6118 26.58C37.5569 26.9431 37.512 26.646 37.512 25.92C37.512 25.194 37.5569 24.8969 37.6118 25.26C37.6668 25.6231 37.6668 26.2169 37.6118 26.58ZM31.2 25.7858C31.2 25.8442 31.092 25.9584 30.96 26.04C30.828 26.1216 30.72 26.0738 30.72 25.9342C30.72 25.7945 30.828 25.68 30.96 25.68C31.092 25.68 31.2 25.7275 31.2 25.7858ZM20.4869 27.72L20.5285 27.7911C20.5719 27.8652 20.4706 27.9381 20.4142 27.8734V27.8734C20.1425 27.5618 19.92 27.1927 19.92 27.0535C19.92 26.7583 19.932 26.7725 20.4869 27.72ZM28.32 27.6828C28.32 27.7284 28.0886 27.9713 27.8059 28.2228C27.2938 28.6783 27.2933 28.6781 27.6238 28.14C27.9058 27.6811 28.32 27.409 28.32 27.6828ZM19.1537 28.6862C19.0798 28.7602 18.9456 28.627 18.8554 28.3903C18.7253 28.0483 18.7526 28.0207 18.9898 28.2559C19.1539 28.4189 19.2276 28.6126 19.1537 28.6862ZM21.36 29.04C21.5014 29.304 21.5628 29.52 21.4968 29.52C21.4308 29.52 21.2614 29.304 21.12 29.04C20.9786 28.776 20.9172 28.56 20.9832 28.56C21.0492 28.56 21.2186 28.776 21.36 29.04ZM12.4608 30.24C12.7301 30.8057 12.7253 30.8134 12.3732 30.3742C12.168 30.1178 12 29.803 12 29.6741C12 29.3693 12.1109 29.5054 12.4608 30.24ZM20.2469 30.12C20.3227 30.318 20.2918 30.48 20.1782 30.48C20.0645 30.48 19.9092 30.318 19.8331 30.12C19.7573 29.922 19.7882 29.76 19.9018 29.76C20.0155 29.76 20.1708 29.922 20.2469 30.12ZM22.08 30.24C22.2214 30.504 22.2828 30.72 22.2168 30.72C22.1508 30.72 21.9814 30.504 21.84 30.24C21.6986 29.976 21.6372 29.76 21.7032 29.76C21.7692 29.76 21.9386 29.976 22.08 30.24ZM26.4 30.48C26.2586 30.744 26.0892 30.96 26.0232 30.96C25.9572 30.96 26.0186 30.744 26.16 30.48C26.3014 30.216 26.4708 30 26.5368 30C26.6028 30 26.5414 30.216 26.4 30.48ZM28.4028 30.3703C28.3246 30.5741 28.2091 30.6893 28.1462 30.6264C28.0834 30.5635 28.103 30.3967 28.1902 30.2561C28.4268 29.873 28.565 29.9474 28.4028 30.3703ZM13.32 31.68C13.5247 32.076 13.6382 32.4 13.5722 32.4C13.5062 32.4 13.2847 32.076 13.08 31.68C12.8753 31.284 12.7618 30.96 12.8278 30.96C12.8938 30.96 13.1153 31.284 13.32 31.68ZM26.0153 31.3999C26.0832 31.5101 25.9865 31.6001 25.8 31.6001C25.6135 31.6001 25.5168 31.5101 25.5847 31.3999C25.6526 31.29 25.7496 31.2 25.8 31.2C25.8504 31.2 25.9474 31.29 26.0153 31.3999ZM23.04 31.92C23.1814 32.184 23.2428 32.4 23.1768 32.4C23.1108 32.4 22.9414 32.184 22.8 31.92C22.6586 31.656 22.5972 31.44 22.6632 31.44C22.7292 31.44 22.8986 31.656 23.04 31.92ZM27.589 32.1806C27.4416 32.4559 27.2604 32.6206 27.1862 32.5464C27.1123 32.4722 27.1882 32.2469 27.3552 32.0458C27.7867 31.5259 27.9034 31.5931 27.589 32.1806ZM14.3861 33.5102C14.6686 33.9888 14.8546 34.4256 14.7996 34.4806C14.7067 34.5732 13.68 32.983 13.68 32.7463C13.68 32.4605 13.9198 32.7199 14.3861 33.5102ZM26.6638 33.78C26.4072 34.2751 26.022 34.896 25.8072 35.16C25.4642 35.5817 25.4664 35.5378 25.824 34.8C26.2954 33.8275 26.8918 32.88 27.0324 32.88C27.0859 32.88 26.9201 33.2851 26.6638 33.78ZM21.9269 33.48C22.0027 33.678 21.9718 33.84 21.8582 33.84C21.7445 33.84 21.5892 33.678 21.5131 33.48C21.4373 33.282 21.4682 33.12 21.5818 33.12C21.6955 33.12 21.8508 33.282 21.9269 33.48ZM22.5672 34.8134C22.9318 35.4948 22.6831 35.3837 22.2026 34.6505C21.9758 34.3042 21.9089 34.0942 22.0538 34.1839C22.1988 34.2734 22.4297 34.5566 22.5672 34.8134ZM16.68 36.45C16.944 36.5904 17.0287 36.7087 16.8684 36.7128C16.4875 36.7222 14.88 35.3086 14.88 34.9642C14.88 34.8178 15.1769 35.035 15.54 35.4463C15.9031 35.8579 16.416 36.3096 16.68 36.45ZM25.44 35.8658C25.44 35.9242 25.332 36.0384 25.2 36.12C25.068 36.2016 24.96 36.1538 24.96 36.0142C24.96 35.8745 25.068 35.76 25.2 35.76C25.332 35.76 25.44 35.8075 25.44 35.8658ZM32.64 36.12C32.4756 36.318 32.2258 36.48 32.0846 36.48C31.9438 36.48 32.0378 36.3214 32.2942 36.1277C32.8961 35.6722 33.0137 35.6698 32.64 36.12ZM24.6763 37.08C24.5261 37.41 24.3226 37.68 24.2242 37.68C24.1258 37.68 24.1699 37.411 24.3226 37.0819C24.4752 36.7529 24.6787 36.4829 24.775 36.4819C24.871 36.481 24.8268 36.75 24.6763 37.08ZM18.3583 37.1974C18.4423 37.3332 18.3461 37.3735 18.1325 37.2917C17.7168 37.1321 17.6407 36.96 17.9858 36.96C18.1102 36.96 18.2777 37.0668 18.3583 37.1974ZM27.535 38.065C27.4553 38.1446 27.2482 38.1533 27.0751 38.0839C26.8836 38.0074 26.9405 37.9505 27.2201 37.939C27.473 37.9286 27.6146 37.9853 27.535 38.065ZM28.495 38.065C28.4153 38.1446 28.2082 38.1533 28.0351 38.0839C27.8436 38.0074 27.9005 37.9505 28.1801 37.939C28.433 37.9286 28.5746 37.9853 28.495 38.065Z"
    fill="#F498A3"
  />
  <path
    fill-rule="evenodd"
    clip-rule="evenodd"
    d="M0 24V24C0 37.2548 10.7452 48 24 48V48V48C37.2548 48 48 37.2548 48 24V24V24C48 10.7452 37.2548 0 24 0V0V0C10.7452 0 0 10.7452 0 24V24ZM24.8515 7.22232C25.0627 7.63056 25.188 8.01192 25.1299 8.07C25.0721 8.12808 24.889 7.848 24.7231 7.44768C24.5575 7.04736 24.3538 6.72024 24.271 6.72072C24.1351 6.72144 23.4835 7.85976 22.0046 10.68C21.389 11.8541 20.16 13.5941 20.16 13.2917C20.16 13.1705 20.4274 12.678 20.7542 12.197C21.0811 11.7158 21.8494 10.368 22.4618 9.20112C24.0878 6.1032 24.2174 5.99592 24.8515 7.22232ZM26.88 11.04C27.0214 11.304 27.0828 11.52 27.0168 11.52C26.9508 11.52 26.7814 11.304 26.64 11.04C26.4986 10.776 26.4372 10.56 26.5032 10.56C26.5692 10.56 26.7386 10.776 26.88 11.04ZM28.3126 13.8C28.3126 13.932 28.2079 13.878 28.08 13.68C27.9521 13.482 27.8474 13.212 27.8474 13.08C27.8474 12.948 27.9521 13.002 28.08 13.2C28.2079 13.398 28.3126 13.668 28.3126 13.8ZM19.0738 16.1362C18.4368 17.3592 17.7732 18.63 17.5992 18.96C17.4252 19.29 17.2824 19.4069 17.2814 19.2199C17.2807 19.033 17.6599 18.1886 18.1243 17.3438C18.5887 16.499 18.8959 15.6905 18.8071 15.547C18.7186 15.4032 18.7555 15.3535 18.8894 15.4363C19.0234 15.5191 19.327 15.1567 19.5641 14.6311C19.8012 14.1053 20.0484 13.7285 20.1137 13.7938C20.179 13.8588 19.711 14.9129 19.0738 16.1362ZM30.96 19.4165C30.96 19.6082 29.6782 20.1761 29.3042 20.1499C29.1845 20.1415 30.7128 19.2415 30.9 19.2101C30.9329 19.2046 30.96 19.2974 30.96 19.4165ZM29.04 20.2519C29.04 20.4161 26.0138 22.32 25.7527 22.32C25.613 22.32 25.3644 22.482 25.2 22.68C25.0356 22.878 24.7255 23.04 24.5107 23.0398C24.2957 23.0398 25.2 22.3942 26.52 21.605C29.01 20.1168 29.04 20.1007 29.04 20.2519ZM21.2462 21.5537C21.1726 21.6276 20.9789 21.5539 20.8159 21.3898C20.5807 21.1526 20.6083 21.1253 20.9503 21.2554C21.187 21.3456 21.3202 21.4798 21.2462 21.5537ZM31.2 21.84C31.2 21.972 31.0855 22.08 30.9458 22.08C30.8062 22.08 30.7584 21.972 30.84 21.84C30.9216 21.708 31.0358 21.6 31.0942 21.6C31.1525 21.6 31.2 21.708 31.2 21.84ZM19.8377 23.1667C20.6506 23.731 21.6998 24.3319 22.1695 24.5016C22.6392 24.6715 23.0815 24.9622 23.1528 25.1479C23.2723 25.459 20.2008 23.9304 19.92 23.5387C19.7693 23.3287 17.52 22.0805 17.52 22.2067C17.52 22.2578 18.114 23.3002 18.84 24.523C19.566 25.7458 20.16 26.8766 20.16 27.036C20.16 27.1954 20.303 27.4687 20.4778 27.6434C20.9839 28.1498 24.3684 33.84 24.1632 33.84C23.9417 33.84 20.4806 28.1177 19.7743 26.5841C19.4172 25.8084 19.033 25.2749 18.8933 25.3613C18.7572 25.4453 18.7171 25.3987 18.8045 25.2576C18.8916 25.1165 18.8813 24.9648 18.7814 24.9204C18.5796 24.8309 17.28 22.3032 17.28 22.0001C17.28 21.6449 18.348 22.1321 19.8377 23.1667ZM12.48 22.4635C13.0406 22.806 13.0445 22.8211 12.54 22.6951C12.2431 22.6207 11.784 22.4935 11.52 22.4119C11.0599 22.2701 11.04 22.3747 11.04 24.9178C11.04 26.5634 11.1386 27.6326 11.2999 27.7322C11.4427 27.8206 11.7523 28.3423 11.9878 28.8917C13.2466 31.8281 16.1909 36.438 16.8295 36.4721C17.159 36.4896 19.2329 37.487 19.1378 37.5821C19.0817 37.6382 18.3437 37.3697 17.4979 36.985C16.0212 36.3134 15.3014 35.7122 14.7382 34.68C13.3668 32.1667 12.84 31.2156 12.4781 30.6C12.2453 30.204 11.9736 29.61 11.8742 29.28C11.7751 28.95 11.4929 28.4225 11.2469 28.1076C10.8746 27.6307 10.8 27.1073 10.8 24.9677C10.8 23.5555 10.872 22.3279 10.9601 22.2401C11.2198 21.9804 11.8378 22.0711 12.48 22.4635ZM37.375 22.225C37.2953 22.3046 37.0882 22.3133 36.9151 22.2439C36.7236 22.1674 36.7805 22.1105 37.0601 22.099C37.313 22.0886 37.4546 22.1453 37.375 22.225ZM13.8 22.8C13.8816 22.932 13.7736 23.04 13.56 23.04C13.3464 23.04 13.2384 22.932 13.32 22.8C13.4016 22.668 13.5096 22.56 13.56 22.56C13.6104 22.56 13.7184 22.668 13.8 22.8ZM29.52 22.7059C29.52 22.9044 29.0539 23.0167 28.9471 22.8439C28.8778 22.7318 28.9783 22.6399 29.1706 22.6399C29.3628 22.6399 29.52 22.6697 29.52 22.7059ZM37.5898 25.187C37.5641 27.2546 37.4945 27.642 37.0817 28.0116C36.8186 28.2473 36.7378 28.2833 36.9017 28.092C37.0997 27.8609 37.2 26.868 37.2 25.1378C37.2 23.7046 37.2943 22.59 37.4098 22.6613C37.525 22.7326 37.6061 23.8692 37.5898 25.187ZM33.12 23.2942C33.12 23.4338 33.0211 23.4874 32.9004 23.4127C32.7797 23.3381 32.4722 23.6287 32.2169 24.0586C31.9618 24.4884 30.9655 26.166 30.0034 27.787C29.0412 29.4077 28.2074 30.6874 28.1506 30.6307C28.0939 30.5738 28.6488 29.5553 29.3837 28.3673C30.1186 27.179 30.72 26.0885 30.72 25.9435C30.72 25.7986 30.828 25.68 30.96 25.68C31.092 25.68 31.2 25.5646 31.2 25.4232C31.2 25.2821 31.5293 24.6881 31.9315 24.1032C32.6321 23.0849 33.12 22.7527 33.12 23.2942ZM16.1321 23.7C16.3334 23.9311 16.6262 24.39 16.7825 24.72C17.0503 25.2859 17.0453 25.2936 16.6932 24.8542C16.488 24.5978 16.32 24.2957 16.32 24.1826C16.32 24.0694 15.9689 23.8243 15.54 23.6378C14.939 23.3767 14.8754 23.2966 15.2628 23.2894C15.5393 23.2843 15.9305 23.4689 16.1321 23.7ZM28.0752 23.6458C27.9082 23.8469 27.7092 23.9491 27.6326 23.8728C27.5563 23.7965 27.6528 23.6335 27.847 23.5106C28.355 23.1893 28.4215 23.2286 28.0752 23.6458ZM30.24 23.76C30.0986 24.024 29.9292 24.24 29.8632 24.24C29.7972 24.24 29.8586 24.024 30 23.76C30.1414 23.496 30.3108 23.28 30.3768 23.28C30.4428 23.28 30.3814 23.496 30.24 23.76ZM26.4 24.5916C26.4 24.6528 26.184 24.8186 25.92 24.96C25.6308 25.1148 25.44 25.1251 25.44 24.9862C25.44 24.859 25.6289 24.7058 25.86 24.6454C26.0911 24.5851 26.3069 24.5232 26.34 24.5078C26.3731 24.4925 26.4 24.5302 26.4 24.5916ZM23.8548 25.4808C23.7382 25.6697 23.8121 25.7114 24.0806 25.6082C24.3002 25.524 24.48 25.5598 24.48 25.6874C24.48 25.9754 23.8351 25.9958 23.6606 25.7134C23.5906 25.5998 23.6021 25.4378 23.6866 25.3534C23.9383 25.1016 24.041 25.1794 23.8548 25.4808ZM19.1866 28.6498C19.128 28.7066 18.8755 28.4666 18.6254 28.1165L18.6208 28.1099C18.5686 28.037 18.667 27.9515 18.732 28.0133V28.0133C19.0409 28.3066 19.2454 28.5931 19.1866 28.6498ZM28.32 27.6828C28.32 27.7284 28.0884 27.9713 27.805 28.2228C27.2928 28.6776 27.2916 28.6771 27.5736 28.14C27.8074 27.6941 28.32 27.3802 28.32 27.6828ZM19.68 29.28C19.68 29.412 19.6325 29.52 19.5742 29.52C19.5158 29.52 19.4016 29.412 19.32 29.28C19.2384 29.148 19.2862 29.04 19.4258 29.04C19.5655 29.04 19.68 29.148 19.68 29.28ZM20.2438 30.1123C20.3182 30.306 20.2879 30.5208 20.1768 30.5897C20.0657 30.6583 19.9183 30.4999 19.8497 30.2374C19.7062 29.6887 20.0405 29.5826 20.2438 30.1123ZM26.4 30.48C26.2586 30.744 26.0892 30.96 26.0232 30.96C25.9572 30.96 26.0186 30.744 26.16 30.48C26.3014 30.216 26.4708 30 26.5368 30C26.6028 30 26.5414 30.216 26.4 30.48ZM26.0153 31.3999C26.0832 31.5101 25.9865 31.6001 25.8 31.6001C25.6135 31.6001 25.5168 31.5101 25.5847 31.3999C25.6526 31.29 25.7496 31.2 25.8 31.2C25.8504 31.2 25.9474 31.29 26.0153 31.3999ZM21.12 32.4859C21.12 32.7907 21.0091 32.6546 20.6592 31.92C20.3899 31.3543 20.3947 31.3466 20.7468 31.7858C20.952 32.0422 21.12 32.357 21.12 32.4859ZM26.1672 34.788C25.2161 36.3787 24.3497 37.68 24.2417 37.68C24.1334 37.68 24.1699 37.411 24.3226 37.0819C24.4752 36.7529 24.6811 36.4829 24.78 36.4819C24.8789 36.481 24.96 36.318 24.96 36.12C24.96 35.922 25.0464 35.76 25.1522 35.76C25.2578 35.76 25.5814 35.3011 25.871 34.74C26.3666 33.7805 26.9906 32.6813 27.4471 31.9639C27.5575 31.7902 27.7039 31.704 27.7721 31.7722C27.8405 31.8403 27.1181 33.1975 26.1672 34.788ZM24.96 32.88C24.8186 33.144 24.6492 33.36 24.5832 33.36C24.5172 33.36 24.5786 33.144 24.72 32.88C24.8614 32.616 25.0308 32.4 25.0968 32.4C25.1628 32.4 25.1014 32.616 24.96 32.88ZM34.3498 33.1841C34.1126 33.4193 34.0853 33.3917 34.2154 33.0497C34.3056 32.813 34.4398 32.6798 34.5137 32.7538C34.5876 32.8274 34.5139 33.0211 34.3498 33.1841ZM21.9269 33.48C22.0027 33.678 21.9718 33.84 21.8582 33.84C21.7445 33.84 21.5892 33.678 21.5131 33.48C21.4373 33.282 21.4682 33.12 21.5818 33.12C21.6955 33.12 21.8508 33.282 21.9269 33.48ZM22.7762 35.1737C23.0537 35.6441 23.1835 35.9688 23.0645 35.8951C22.9457 35.8217 22.6212 35.3767 22.3438 34.9063C22.0663 34.4359 21.9365 34.1112 22.0555 34.1849C22.1743 34.2583 22.4988 34.7033 22.7762 35.1737ZM32.64 36.12C32.4756 36.318 32.2258 36.48 32.0846 36.48C31.9438 36.48 32.0378 36.3214 32.2942 36.1277C32.8961 35.6722 33.0137 35.6698 32.64 36.12ZM23.76 36.72C23.9014 36.984 23.9628 37.2 23.8968 37.2C23.8308 37.2 23.6614 36.984 23.52 36.72C23.3786 36.456 23.3172 36.24 23.3832 36.24C23.4492 36.24 23.6186 36.456 23.76 36.72ZM28.8 37.92C28.602 38.0479 28.278 38.1526 28.08 38.1526C27.7601 38.1526 27.7601 38.1269 28.08 37.92C28.278 37.7921 28.602 37.6874 28.8 37.6874C29.1199 37.6874 29.1199 37.7131 28.8 37.92ZM27.535 38.065C27.4553 38.1446 27.2482 38.1533 27.0751 38.0839C26.8836 38.0074 26.9405 37.9505 27.2201 37.939C27.473 37.9286 27.6146 37.9853 27.535 38.065Z"
    fill="#DB7E89"
  />
  <path
    fill-rule="evenodd"
    clip-rule="evenodd"
    d="M0 24V24C0 37.2548 10.7452 48 24 48V48V48C37.2548 48 48 37.2548 48 24V24V24C48 10.7452 37.2548 0 24 0V0V0C10.7452 0 0 10.7452 0 24V24ZM24.8515 7.22232C25.0627 7.63056 25.1916 8.00832 25.1381 8.06184C25.0846 8.11536 24.8964 7.88952 24.7198 7.55952C24.3523 6.87312 24 6.774 24 7.35744C24 7.57584 23.7372 8.09904 23.4161 8.52C23.0952 8.9412 22.5127 9.9456 22.122 10.7522C21.731 11.5589 21.1838 12.5083 20.9057 12.8618C20.6275 13.2154 20.4 13.7138 20.4 13.9694C20.4 14.225 20.238 14.5963 20.04 14.7943C19.842 14.9923 19.68 15.3626 19.68 15.617C19.68 15.8717 19.5742 16.08 19.4446 16.08C19.3152 16.08 19.1414 16.35 19.0586 16.68C18.9758 17.01 18.8386 17.28 18.7536 17.28C18.6686 17.28 18.3341 17.7799 18.0098 18.391C17.6858 19.0018 17.3796 19.3788 17.3294 19.2286C17.2795 19.0783 17.6278 18.2472 18.1034 17.3818C18.5794 16.5161 18.8959 15.6905 18.8071 15.547C18.7178 15.4025 18.756 15.3538 18.8923 15.4382C19.0318 15.5244 19.4275 14.941 19.8036 14.0952C20.1691 13.273 20.6573 12.3295 20.8884 11.999C21.1195 11.6686 21.8184 10.4266 22.4419 9.23904C24.0902 6.09864 24.216 5.99352 24.8515 7.22232ZM25.8485 8.79144C25.7652 8.87496 25.807 9.17184 25.9416 9.45144C26.1766 9.93936 26.1718 9.94152 25.8209 9.50472C25.4851 9.08616 25.5022 8.64 25.8542 8.64C25.9344 8.64 25.9318 8.70816 25.8485 8.79144ZM27.0967 11.4144C27.3739 11.8843 27.4918 12.2016 27.3588 12.1193C27.0986 11.9585 26.3196 10.56 26.4902 10.56C26.5464 10.56 26.8195 10.9445 27.0967 11.4144ZM28.4026 13.98C28.6078 14.4751 28.7215 14.88 28.6555 14.88C28.5286 14.88 27.84 13.333 27.84 13.0476C27.84 12.7567 28.0174 13.0507 28.4026 13.98ZM29.9266 16.8C30.0761 17.196 30.1565 17.52 30.1054 17.52C30.0542 17.52 29.8447 17.196 29.64 16.8C29.4353 16.404 29.3549 16.08 29.4612 16.08C29.5678 16.08 29.777 16.404 29.9266 16.8ZM30.96 19.0754C30.96 19.5185 30.7627 19.7076 30.06 19.9385C29.5651 20.101 28.4592 20.7034 27.6026 21.277C26.7461 21.8506 25.9222 22.32 25.7719 22.32C25.6217 22.32 25.3644 22.482 25.2 22.68C24.8174 23.1408 24.24 23.1454 24.24 22.6874C24.24 22.4573 24.3785 22.3882 24.6394 22.4882C24.9293 22.5996 24.985 22.5545 24.8424 22.3236C24.7205 22.1266 24.7392 22.0637 24.8918 22.158C25.0272 22.2415 25.3846 22.0963 25.6858 21.835C25.987 21.5738 26.3789 21.36 26.5567 21.36C26.7346 21.36 26.88 21.2758 26.88 21.173C26.88 21.0701 27.6367 20.629 28.5617 20.1929C29.4866 19.7566 30.1831 19.302 30.1092 19.1825C30.0355 19.0632 30.1601 19.0366 30.3862 19.1232C30.7164 19.2499 30.7704 19.1786 30.661 18.7601C30.5861 18.4738 30.6228 18.2998 30.7423 18.3739C30.8621 18.4478 30.96 18.7637 30.96 19.0754ZM18.9401 20.0724C19.2694 20.3606 18.4882 20.093 18.1058 19.7868C17.6666 19.4347 17.6743 19.4299 18.24 19.6992C18.57 19.8564 18.8851 20.0244 18.9401 20.0724ZM20.4101 20.795C20.9378 21.1445 21.3235 21.4764 21.2671 21.5328C21.2107 21.5892 20.7065 21.3034 20.1463 20.8978C18.8993 19.9944 19.0886 19.9207 20.4101 20.795ZM31.2 21.84C31.2 21.972 31.0855 22.08 30.9458 22.08C30.8062 22.08 30.7584 21.972 30.84 21.84C30.9216 21.708 31.0358 21.6 31.0942 21.6C31.1525 21.6 31.2 21.708 31.2 21.84ZM19.8 23.1379C20.592 23.6866 21.618 24.289 22.08 24.4766C22.542 24.6641 23.0386 24.9742 23.1835 25.1654C23.3424 25.3752 23.5718 25.4364 23.7607 25.3195C23.9822 25.1827 24.0166 25.219 23.8776 25.4436C23.735 25.6745 23.7907 25.7196 24.0806 25.6082C24.3002 25.524 24.48 25.5482 24.48 25.6618C24.48 26.2135 23.6316 26.1072 22.7275 25.4422C22.1873 25.045 21.6216 24.72 21.4702 24.72C21.3185 24.72 20.881 24.4466 20.4974 24.1128C20.0988 23.7655 19.6118 23.5524 19.361 23.6153C19.055 23.6918 18.9619 23.6213 19.0536 23.3825C19.1258 23.1941 19.0802 23.04 18.9526 23.04C18.8246 23.04 18.72 23.197 18.72 23.3887C18.72 23.8781 19.2377 24.96 19.4719 24.96C19.579 24.96 19.8394 25.554 20.0503 26.28C20.2613 27.006 20.5121 27.6 20.6074 27.6C20.7029 27.6 21.3372 28.5538 22.0171 29.7197C22.697 30.8854 23.4214 31.9786 23.6268 32.149C23.832 32.3194 24 32.6616 24 32.9093C24 33.324 24.4733 33.5878 24.4853 33.18C24.4882 33.0811 24.7109 32.73 24.9797 32.4V32.4C25.0472 32.3172 25.177 32.4001 25.1303 32.4962L25.1102 32.5375C24.4452 33.9053 24.1426 33.9562 23.4293 32.8202C21.1416 29.178 20.335 27.8014 19.7743 26.5841C19.4172 25.8084 19.033 25.2749 18.8933 25.3613C18.7572 25.4453 18.7171 25.3987 18.8045 25.2576C18.8916 25.1165 18.8813 24.9648 18.7814 24.9204C18.5796 24.8309 17.28 22.3032 17.28 22.0001C17.28 21.6485 18.3425 22.1282 19.8 23.1379ZM12.4846 22.4424C12.8702 22.6418 13.2698 22.7863 13.3728 22.7638C13.4758 22.741 13.8641 22.848 14.2356 23.0014C14.6071 23.1545 15.1034 23.28 15.3384 23.28C15.8366 23.28 16.3435 23.8068 16.8972 24.9C17.4619 26.0148 17.1751 25.8655 16.5228 24.7054C16.0123 23.7967 15.9521 23.76 15.6353 24.1654C15.3281 24.558 15.3094 24.5597 15.4392 24.1824C15.547 23.8694 15.4198 23.7293 14.9316 23.6225C14.5733 23.544 14.118 23.4226 13.92 23.3522C13.722 23.2822 13.128 23.171 12.6 23.1058C12.072 23.0402 11.604 22.8907 11.5601 22.7734C11.5159 22.656 11.381 22.56 11.2601 22.56C11.1391 22.56 11.04 23.694 11.04 25.08C11.04 27.1306 11.1053 27.6 11.3906 27.6C11.5968 27.6 11.8478 27.9953 11.9993 28.5574C12.1411 29.0837 12.7315 30.2076 13.3114 31.0546C13.8912 31.9015 14.3014 32.6587 14.2229 32.7372C14.1442 32.8157 14.2241 32.88 14.4 32.88C14.5759 32.88 14.6494 32.9506 14.5632 33.0367C14.1242 33.4757 16.8302 36.6113 17.4446 36.3758C17.6014 36.3158 17.9964 36.4769 18.3226 36.7334C18.6487 36.99 19.0205 37.2 19.1484 37.2C19.2766 37.2 19.5156 37.362 19.68 37.56C20.1031 38.07 19.865 38.0174 17.9203 37.1729C16.0675 36.3684 15.2856 35.777 14.7984 34.8122C14.4096 34.0426 13.038 31.5526 12.4781 30.6C12.2453 30.204 11.9736 29.61 11.8742 29.28C11.7751 28.95 11.4929 28.4225 11.2469 28.1076C10.8746 27.6307 10.8 27.1073 10.8 24.9677C10.8 23.5555 10.872 22.3279 10.9601 22.2401C11.2157 21.9842 11.7312 22.0526 12.4846 22.4424ZM30.48 22.1938C30.48 22.2564 30.1622 22.4722 29.7737 22.673C29.256 22.9406 29.0218 22.9644 28.8965 22.7621C28.8026 22.6102 28.825 22.547 28.9459 22.6219C29.0669 22.6966 29.4346 22.6092 29.7631 22.4275C30.445 22.05 30.48 22.0385 30.48 22.1938ZM37.4686 22.38C37.6102 23.8685 37.6562 26.4182 37.5518 27C37.481 27.396 37.1472 28.044 36.81 28.44C36.3919 28.9313 36.2808 28.9927 36.4601 28.6334C36.6043 28.3438 36.8299 28.0404 36.9612 27.9593C37.3296 27.7315 37.2437 27.36 36.823 27.36C36.4826 27.36 36.4834 27.3223 36.8294 26.9762C37.1057 26.7 37.2012 26.1984 37.171 25.1842C37.1477 24.4097 37.0368 23.8327 36.9242 23.9021C36.6588 24.0662 36.6667 23.9314 36.9694 23.1355C37.1573 22.6414 37.1424 22.4316 36.9094 22.2835C36.6809 22.1386 36.7099 22.0865 37.02 22.0836C37.2511 22.0817 37.453 22.2151 37.4686 22.38ZM28.8 23.1324C28.8 23.1833 28.53 23.4017 28.2 23.6179C27.87 23.8342 27.6 23.917 27.6 23.8022C27.6 23.6873 27.8431 23.4761 28.14 23.3328C28.7914 23.0189 28.8 23.0162 28.8 23.1324ZM33.2652 23.3208C33.3802 23.5068 33.3103 23.5522 33.0578 23.4554C32.7886 23.352 32.6069 23.5099 32.4379 23.9942C32.3066 24.371 32.2714 24.7596 32.3597 24.858C32.4478 24.9564 32.3851 24.9593 32.22 24.8642C32.0345 24.7574 31.92 24.8345 31.92 25.0658C31.92 25.2715 31.8283 25.44 31.7165 25.44C31.6044 25.44 31.309 25.8989 31.0598 26.46C30.8107 27.0211 30.3893 27.7212 30.1234 28.0162C29.8574 28.3111 29.335 29.1751 28.9625 29.9362C28.5898 30.6972 28.0226 31.8218 27.7025 32.4353C27.3821 33.0487 27.12 33.6643 27.12 33.803C27.12 33.9418 26.8704 34.3246 26.5651 34.6538C25.7376 35.5469 25.1045 36.8448 25.277 37.2943C25.3966 37.6058 25.6798 37.673 26.5913 37.6066C27.2304 37.56 27.8808 37.4431 28.0366 37.3469C28.193 37.2502 28.32 37.2979 28.32 37.4539C28.32 37.7222 28.5463 37.7016 29.64 37.3325C29.904 37.2434 29.742 37.3858 29.28 37.6488C28.5734 38.0513 28.1028 38.113 26.3148 38.0383C25.146 37.9896 24.1702 37.9162 24.1462 37.8749C24.1222 37.8336 23.719 37.206 23.2502 36.48C22.7815 35.754 22.2593 34.89 22.0896 34.56C21.5338 33.4786 22.302 34.4102 23.3038 36.0319C24.1325 37.3742 24.265 37.4942 24.3917 37.02C24.4711 36.7229 24.6314 36.48 24.7481 36.48C24.8645 36.48 24.96 36.318 24.96 36.12C24.96 35.922 25.0464 35.76 25.1522 35.76C25.2578 35.76 25.5814 35.3011 25.871 34.74C26.5558 33.4142 27.2352 32.2423 27.539 31.8626C27.6722 31.6963 27.8642 31.2905 27.9655 30.961C28.0668 30.6317 28.728 29.4271 29.4348 28.2845C30.1416 27.1418 30.72 26.0885 30.72 25.9435C30.72 25.7986 30.828 25.68 30.96 25.68C31.092 25.68 31.2 25.5646 31.2 25.4232C31.2 25.0579 32.6201 23.04 32.8774 23.04C32.9952 23.04 33.1697 23.1662 33.2652 23.3208ZM34.255 23.185C34.1753 23.2646 33.9682 23.2733 33.7951 23.2039C33.6036 23.1274 33.6605 23.0705 33.9401 23.059C34.193 23.0486 34.3346 23.1053 34.255 23.185ZM30.24 23.76C30.0986 24.024 29.9292 24.24 29.8632 24.24C29.7972 24.24 29.8586 24.024 30 23.76C30.1414 23.496 30.3108 23.28 30.3768 23.28C30.4428 23.28 30.3814 23.496 30.24 23.76ZM27.228 24.2004C27.1025 24.3108 26.46 24.7032 25.8 25.0726C25.0193 25.5094 24.7678 25.5862 25.08 25.2922C25.344 25.0435 25.938 24.6578 26.4 24.4354C27.365 23.9705 27.5489 23.9184 27.228 24.2004ZM29.1842 25.98C29.2793 26.1451 29.2692 26.2006 29.1622 26.1038C29.0551 26.0069 28.8158 26.1149 28.6306 26.3438C28.3282 26.7173 28.3205 26.7046 28.5552 26.22C28.8562 25.5991 28.9454 25.565 29.1842 25.98ZM18 26.94C18 27.0545 18.108 27.0816 18.24 27C18.372 26.9184 18.48 26.9057 18.48 26.9717C18.48 27.0377 18.3766 27.1555 18.2503 27.2338C18.1238 27.3118 17.8486 27.0211 17.6386 26.5879C17.3062 25.9018 17.3047 25.8602 17.6285 26.2658C17.8327 26.5222 18 26.8255 18 26.94ZM27.881 28.1652C27.2035 28.8994 25.8912 31.1993 26.0256 31.417C26.088 31.5175 25.9819 31.6001 25.7902 31.6001C25.5259 31.6001 25.5943 31.333 26.0714 30.4999C27.3926 28.1942 27.9478 27.3984 28.1484 27.5222C28.2626 27.5928 28.1424 27.8822 27.881 28.1652ZM19.1592 28.6807C19.0853 28.7546 18.8354 28.5146 18.6036 28.1474L18.5933 28.1312C18.5341 28.0374 18.6578 27.9365 18.7378 28.0133V28.0133C19.0433 28.3066 19.2329 28.607 19.1592 28.6807ZM19.68 29.4C19.68 29.598 19.7765 29.76 19.8943 29.76C20.1847 29.76 20.4266 30.4351 20.189 30.582C20.0846 30.6466 19.8211 30.3262 19.6034 29.8697C19.3858 29.4134 19.314 29.04 19.4438 29.04C19.5737 29.04 19.68 29.202 19.68 29.4ZM35.7898 30.5441C35.5526 30.7793 35.5253 30.7517 35.6554 30.4097C35.7456 30.173 35.8798 30.0398 35.9537 30.1138C36.0276 30.1874 35.9539 30.3811 35.7898 30.5441ZM21.1169 32.52C21.1169 32.652 20.9023 32.436 20.64 32.04C20.3777 31.644 20.1631 31.212 20.1631 31.08C20.1631 30.948 20.3777 31.164 20.64 31.56C20.9023 31.956 21.1169 32.388 21.1169 32.52ZM35.0568 31.8886C34.9248 32.135 34.8941 32.4223 34.9884 32.527C35.0827 32.6314 35.0246 32.639 34.8593 32.544C34.6399 32.4175 34.626 32.2452 34.8077 31.9054C34.9447 31.6495 35.1108 31.44 35.1768 31.44C35.2428 31.44 35.1888 31.6418 35.0568 31.8886ZM34.0661 33.6898C33.3672 34.8739 33.1951 34.7986 33.8674 33.6026C34.1633 33.0761 34.4446 32.6846 34.4923 32.7324C34.5403 32.7804 34.3486 33.2112 34.0661 33.6898ZM21.9338 33.4985C22.1333 34.0181 21.6521 33.906 21.3629 33.3655C21.1591 32.9846 21.1776 32.9172 21.456 33.024C21.6468 33.0972 21.8618 33.3108 21.9338 33.4985ZM33.2628 35.5572C33.3629 35.719 33.3293 35.7694 33.1822 35.6784C33.0437 35.5927 32.8697 35.6808 32.7955 35.8738C32.665 36.2141 30.9787 37.0586 30.7954 36.8755C30.7454 36.8256 31.0243 36.6523 31.415 36.4903C31.8058 36.3286 32.3119 35.9899 32.5399 35.7382C33.0266 35.2001 33.0401 35.1967 33.2628 35.5572Z"
    fill="#FF5A6E"
  />
  <path
    fill-rule="evenodd"
    clip-rule="evenodd"
    d="M0 24V24C0 37.2548 10.7452 48 24 48V48V48C37.2548 48 48 37.2548 48 24V24V24C48 10.7452 37.2548 0 24 0V0V0C10.7452 0 0 10.7452 0 24V24ZM24.8515 7.22232C25.0627 7.63056 25.1916 8.00832 25.1381 8.06184C25.0846 8.11536 24.8964 7.88952 24.7198 7.55952C24.5434 7.22976 24.3115 6.96 24.205 6.96C24.0982 6.96 23.9813 8.9244 23.9455 11.3254L23.9319 12.232C23.9 14.3612 22.698 16.2998 20.8051 17.2752V17.2752C19.1141 18.1466 17.6306 19.0171 17.509 19.2098C17.3222 19.5046 17.2867 19.5062 17.2836 19.2199C17.2817 19.033 17.6599 18.1886 18.1243 17.3438C18.5887 16.499 18.8959 15.6905 18.8071 15.547C18.7178 15.4025 18.756 15.3538 18.8923 15.4382C19.0318 15.5244 19.4275 14.941 19.8036 14.0952C20.1691 13.273 20.6573 12.3295 20.8884 11.999C21.1195 11.6686 21.8184 10.4266 22.4419 9.23904C24.0902 6.09864 24.216 5.99352 24.8515 7.22232ZM25.8485 8.79144C25.7652 8.87496 25.807 9.17184 25.9416 9.45144C26.1766 9.93936 26.1718 9.94152 25.8209 9.50472C25.4851 9.08616 25.5022 8.64 25.8542 8.64C25.9344 8.64 25.9318 8.70816 25.8485 8.79144ZM27.0967 11.4144C27.3739 11.8843 27.4918 12.2016 27.3588 12.1193C27.0986 11.9585 26.3196 10.56 26.4902 10.56C26.5464 10.56 26.8195 10.9445 27.0967 11.4144ZM28.4026 13.98C28.6078 14.4751 28.7215 14.88 28.6555 14.88C28.5286 14.88 27.84 13.333 27.84 13.0476C27.84 12.7567 28.0174 13.0507 28.4026 13.98ZM26.6587 17.1C27.6526 17.6611 28.987 18.3684 29.6239 18.672C30.7639 19.2154 30.7802 19.2163 30.6535 18.7318C30.5827 18.4608 30.6228 18.2998 30.7423 18.3739C30.8621 18.4478 30.96 18.7637 30.96 19.0754C30.96 19.5185 30.7627 19.7076 30.06 19.9385C29.5651 20.101 28.4592 20.7034 27.6026 21.277C26.7461 21.8506 25.9222 22.32 25.7719 22.32C25.6217 22.32 25.3644 22.482 25.2 22.68C25.0356 22.878 24.7524 23.04 24.5707 23.04C24.305 23.04 24.24 22.3558 24.24 19.56C24.24 16.9008 24.3122 16.08 24.5458 16.08C24.714 16.08 25.6649 16.5389 26.6587 17.1ZM29.9266 16.8C30.0761 17.196 30.1565 17.52 30.1054 17.52C30.0542 17.52 29.8447 17.196 29.64 16.8C29.4353 16.404 29.3549 16.08 29.4612 16.08C29.5678 16.08 29.777 16.404 29.9266 16.8ZM18.9401 20.0724C19.2694 20.3606 18.4882 20.093 18.1058 19.7868C17.6666 19.4347 17.6743 19.4299 18.24 19.6992C18.57 19.8564 18.8851 20.0244 18.9401 20.0724ZM20.4101 20.795C20.9378 21.1445 21.3235 21.4764 21.2671 21.5328C21.2107 21.5892 20.7065 21.3034 20.1463 20.8978C18.8993 19.9944 19.0886 19.9207 20.4101 20.795ZM31.2 21.84C31.2 21.972 31.0855 22.08 30.9458 22.08C30.8062 22.08 30.7584 21.972 30.84 21.84C30.9216 21.708 31.0358 21.6 31.0942 21.6C31.1525 21.6 31.2 21.708 31.2 21.84ZM19.8 23.1379C20.592 23.6866 21.618 24.289 22.08 24.4766C22.542 24.6641 23.0386 24.9742 23.1835 25.1654C23.3424 25.3752 23.5718 25.4364 23.7607 25.3195C23.9822 25.1827 24.0166 25.219 23.8776 25.4436C23.735 25.6745 23.7907 25.7196 24.0806 25.6082C24.3002 25.524 24.48 25.5598 24.48 25.6874C24.48 25.8154 24.372 25.92 24.24 25.92C24.0902 25.92 24 27.3199 24 29.64C24 31.9601 24.0902 33.36 24.24 33.36C24.372 33.36 24.4824 33.2789 24.4853 33.18C24.4882 33.0811 24.7109 32.73 24.9797 32.4V32.4C25.0472 32.3172 25.177 32.4001 25.1303 32.4962L25.1102 32.5375C24.4452 33.9053 24.1426 33.9562 23.4293 32.8202C21.2081 29.2838 20.3412 27.8083 19.7978 26.64C19.4602 25.914 19.0524 25.2108 18.8918 25.0774C18.5851 24.8225 17.28 22.3308 17.28 22.0001C17.28 21.6485 18.3425 22.1282 19.8 23.1379ZM12.4846 22.4424C12.8702 22.6418 13.2698 22.7863 13.3728 22.7638C13.4758 22.741 13.8641 22.848 14.2356 23.0014C14.6071 23.1545 15.1034 23.28 15.3384 23.28C15.8465 23.28 16.349 23.8133 16.9217 24.96C17.4348 25.9877 17.1559 25.7618 16.4335 24.5647V24.5647C16.2188 24.2089 15.6881 24.258 15.5425 24.6473L15.3912 25.0514C15.1102 25.8031 14.8762 26.549 14.8716 26.7091C14.8668 26.869 14.7307 27.2381 14.569 27.5292C14.2903 28.0301 14.2145 27.9574 13.1374 26.1574C12.5119 25.1117 12 24.1498 12 24.0194C12 23.6126 11.453 22.56 11.2414 22.56C11.1307 22.56 11.04 23.694 11.04 25.08C11.04 27.1601 11.1029 27.6 11.4 27.6C11.598 27.6 11.7602 27.6811 11.7605 27.78C11.7607 27.8789 12.1562 27.9883 12.6394 28.0229C13.1225 28.0574 13.6622 28.2058 13.8389 28.3524C14.0155 28.4988 14.16 28.531 14.16 28.4234C14.16 28.1705 15.5479 30.4939 16.3205 32.04C16.6502 32.7 16.9846 33.294 17.0638 33.36C17.1427 33.426 17.477 33.966 17.8068 34.56C18.1366 35.154 18.7382 36.1258 19.1441 36.7193C19.5497 37.3128 19.8461 37.8341 19.8026 37.8775C19.6423 38.0376 16.182 36.4094 15.6538 35.9254C15.3533 35.6498 14.9686 35.1492 14.7984 34.8122C14.4096 34.0426 13.038 31.5526 12.4781 30.6C12.2453 30.204 11.9736 29.61 11.8742 29.28C11.7751 28.95 11.4929 28.4225 11.2469 28.1076C10.8746 27.6307 10.8 27.1073 10.8 24.9677C10.8 23.5555 10.872 22.3279 10.9601 22.2401C11.2157 21.9842 11.7312 22.0526 12.4846 22.4424ZM30.48 22.1938C30.48 22.2564 30.1622 22.4722 29.7737 22.673C29.256 22.9406 29.0218 22.9644 28.8965 22.7621C28.8026 22.6102 28.825 22.547 28.9459 22.6219C29.0669 22.6966 29.4346 22.6092 29.7631 22.4275C30.445 22.05 30.48 22.0385 30.48 22.1938ZM37.4686 22.38C37.6102 23.8685 37.6562 26.4182 37.5518 27C37.481 27.396 37.1448 28.044 36.805 28.44C36.4654 28.836 36.2695 28.998 36.3701 28.8C36.4706 28.602 36.7159 28.2504 36.9151 28.0186C37.4477 27.3984 37.207 27.3379 35.7487 27.726C34.1206 28.1594 34.1765 28.1626 34.5974 27.66C34.7909 27.4289 35.4691 26.1746 36.1046 24.8726C37.0306 22.9759 37.1945 22.464 36.93 22.2965C36.6696 22.1314 36.6886 22.0865 37.02 22.0836C37.2511 22.0817 37.453 22.2151 37.4686 22.38ZM28.8 23.1324C28.8 23.1833 28.53 23.4017 28.2 23.6179C27.87 23.8342 27.6 23.917 27.6 23.8022C27.6 23.6873 27.8431 23.4761 28.14 23.3328C28.7914 23.0189 28.8 23.0162 28.8 23.1324ZM33.2652 23.3208C33.3802 23.5066 33.3103 23.5524 33.0593 23.4559C32.4065 23.2054 32.3861 23.9381 32.993 25.849C33.3137 26.8586 33.5107 27.7903 33.4308 27.9194C33.3504 28.0498 33.4092 28.0781 33.5628 27.9828C34.0044 27.7102 33.8755 28.381 33.36 29.04C33.1018 29.37 32.8882 29.7187 32.8853 29.815C32.8766 30.1003 29.6765 35.6328 29.4696 35.7199C29.3654 35.7641 29.28 35.9093 29.28 36.043C29.28 36.1766 29.0438 36.6175 28.7554 37.0226C28.1861 37.8223 28.1873 37.8228 29.64 37.3325C29.904 37.2434 29.742 37.3858 29.28 37.6488C28.5734 38.0513 28.1028 38.113 26.3148 38.0383C25.146 37.9896 24.1702 37.9162 24.1462 37.8749C24.1222 37.8336 23.719 37.206 23.2502 36.48C22.7815 35.754 22.2593 34.89 22.0896 34.56C21.5338 33.4786 22.302 34.4102 23.3038 36.0319C24.1325 37.3742 24.265 37.4942 24.3917 37.02C24.4711 36.7229 24.6314 36.48 24.7481 36.48C24.8645 36.48 24.96 36.318 24.96 36.12C24.96 35.922 25.0464 35.76 25.1522 35.76C25.2578 35.76 25.5814 35.3011 25.871 34.74C26.5558 33.4142 27.2352 32.2423 27.539 31.8626C27.6722 31.6963 27.8642 31.2905 27.9655 30.961C28.0668 30.6317 28.728 29.4271 29.4348 28.2845C30.1416 27.1418 30.72 26.0885 30.72 25.9435C30.72 25.7986 30.828 25.68 30.96 25.68C31.092 25.68 31.2 25.5646 31.2 25.4232C31.2 25.0579 32.6201 23.04 32.8774 23.04C32.9952 23.04 33.1697 23.1662 33.2652 23.3208ZM34.255 23.185C34.1753 23.2646 33.9682 23.2733 33.7951 23.2039C33.6036 23.1274 33.6605 23.0705 33.9401 23.059C34.193 23.0486 34.3346 23.1053 34.255 23.185ZM30.24 23.76C30.0986 24.024 29.9292 24.24 29.8632 24.24C29.7972 24.24 29.8586 24.024 30 23.76C30.1414 23.496 30.3108 23.28 30.3768 23.28C30.4428 23.28 30.3814 23.496 30.24 23.76ZM27.228 24.2004C27.1025 24.3108 26.46 24.7032 25.8 25.0726C25.0193 25.5094 24.7678 25.5862 25.08 25.2922C25.344 25.0435 25.938 24.6578 26.4 24.4354C27.365 23.9705 27.5489 23.9184 27.228 24.2004ZM29.1842 25.98C29.2793 26.1451 29.2692 26.2006 29.1622 26.1038C29.0551 26.0069 28.8158 26.1149 28.6306 26.3438C28.3282 26.7173 28.3205 26.7046 28.5552 26.22C28.8562 25.5991 28.9454 25.565 29.1842 25.98ZM18 26.94C18 27.0545 18.108 27.0816 18.24 27C18.372 26.9184 18.48 26.9057 18.48 26.9717C18.48 27.0377 18.3766 27.1555 18.2503 27.2338C18.1238 27.3118 17.8486 27.0211 17.6386 26.5879C17.3062 25.9018 17.3047 25.8602 17.6285 26.2658C17.8327 26.5222 18 26.8255 18 26.94ZM27.881 28.1652C27.2035 28.8994 25.8912 31.1993 26.0256 31.417C26.088 31.5175 25.9819 31.6001 25.7902 31.6001C25.5259 31.6001 25.5943 31.333 26.0714 30.4999C27.3926 28.1942 27.9478 27.3984 28.1484 27.5222C28.2626 27.5928 28.1424 27.8822 27.881 28.1652ZM19.1592 28.6807C19.0853 28.7546 18.8354 28.5146 18.6036 28.1474L18.5933 28.1312C18.5341 28.0374 18.6578 27.9365 18.7378 28.0133V28.0133C19.0433 28.3066 19.2329 28.607 19.1592 28.6807ZM19.68 29.4C19.68 29.598 19.7765 29.76 19.8943 29.76C20.1847 29.76 20.4266 30.4351 20.189 30.582C20.0846 30.6466 19.8211 30.3262 19.6034 29.8697C19.3858 29.4134 19.314 29.04 19.4438 29.04C19.5737 29.04 19.68 29.202 19.68 29.4ZM35.7898 30.5441C35.5526 30.7793 35.5253 30.7517 35.6554 30.4097C35.7456 30.173 35.8798 30.0398 35.9537 30.1138C36.0276 30.1874 35.9539 30.3811 35.7898 30.5441ZM21.1169 32.52C21.1169 32.652 20.9023 32.436 20.64 32.04C20.3777 31.644 20.1631 31.212 20.1631 31.08C20.1631 30.948 20.3777 31.164 20.64 31.56C20.9023 31.956 21.1169 32.388 21.1169 32.52ZM35.0568 31.8886C34.9248 32.135 34.8941 32.4223 34.9884 32.527C35.0827 32.6314 35.0246 32.639 34.8593 32.544C34.6399 32.4175 34.626 32.2452 34.8077 31.9054C34.9447 31.6495 35.1108 31.44 35.1768 31.44C35.2428 31.44 35.1888 31.6418 35.0568 31.8886ZM34.0661 33.6898C33.3672 34.8739 33.1951 34.7986 33.8674 33.6026C34.1633 33.0761 34.4446 32.6846 34.4923 32.7324C34.5403 32.7804 34.3486 33.2112 34.0661 33.6898ZM21.9338 33.4985C22.1333 34.0181 21.6521 33.906 21.3629 33.3655C21.1591 32.9846 21.1776 32.9172 21.456 33.024C21.6468 33.0972 21.8618 33.3108 21.9338 33.4985ZM33.2628 35.5572C33.3629 35.719 33.3293 35.7694 33.1822 35.6784C33.0437 35.5927 32.8697 35.6808 32.7955 35.8738C32.665 36.2141 30.9787 37.0586 30.7954 36.8755C30.7454 36.8256 31.0243 36.6523 31.415 36.4903C31.8058 36.3286 32.3119 35.9899 32.5399 35.7382C33.0266 35.2001 33.0401 35.1967 33.2628 35.5572Z"
    fill="#DD4659"
  />
  <path
    fill-rule="evenodd"
    clip-rule="evenodd"
    d="M0 24V24C0 37.2548 10.7452 48 24 48V48V48C37.2548 48 48 37.2548 48 24V24V24C48 10.7452 37.2548 0 24 0V0V0C10.7452 0 0 10.7452 0 24V24ZM24.7114 6.94392C25.0841 7.6404 25.4426 8.64 25.3198 8.64C25.2602 8.64 24.9977 8.23512 24.7363 7.74V7.74C24.6132 7.50683 24.2601 7.59407 24.2597 7.85775L24.2551 11.28L24.2539 12.1817C24.251 14.3563 25.4575 16.3521 27.3845 17.3599V17.3599C29.1091 18.2621 30.5645 18.9554 30.619 18.901C30.6737 18.8465 30.3864 18.1894 29.981 17.441C29.5757 16.6925 29.333 16.0855 29.442 16.092C29.6909 16.1071 30.96 18.7625 30.96 19.2679C30.96 19.4885 30.5897 19.7645 30.06 19.9385C29.5651 20.101 28.4592 20.7034 27.6026 21.277C26.7461 21.8506 25.9222 22.32 25.7719 22.32C25.6217 22.32 25.363 22.4834 25.1971 22.6834C25.0037 22.9164 24.57 23.0242 23.9882 22.9834C23.4893 22.9486 23.124 22.8766 23.1768 22.8238C23.2294 22.7707 23.0851 22.5766 22.8562 22.392C22.5526 22.1474 22.6476 22.1573 23.208 22.4285C23.6306 22.6327 24.0355 22.8 24.108 22.8C24.1807 22.8 24.24 21.234 24.24 19.32C24.24 17.406 24.1894 15.84 24.1277 15.84C23.8166 15.84 18.1205 18.8088 17.58 19.2526C17.0299 19.704 17.2488 18.9365 18.1243 17.3438C18.5887 16.499 18.8959 15.6905 18.8071 15.547C18.7178 15.4025 18.756 15.3538 18.8923 15.4382C19.0318 15.5244 19.4275 14.941 19.8036 14.0952C20.1691 13.273 20.6573 12.3295 20.8884 11.999C21.1195 11.6686 21.8184 10.4266 22.4419 9.23904C24.0132 6.24552 24.2237 6.03264 24.7114 6.94392ZM25.8242 8.84088C25.7558 8.95152 26.1281 9.7884 26.6513 10.7009C27.1745 11.6134 27.3746 12.091 27.096 11.7624C26.4158 10.9596 25.4246 8.97528 25.6109 8.78928C25.8278 8.57232 25.969 8.6064 25.8242 8.84088ZM28.519 14.22C28.921 15.1109 29.2044 15.84 29.149 15.84C29.0078 15.84 27.9403 13.6865 27.7212 12.96C27.4325 12.0019 27.731 12.4735 28.519 14.22ZM20.6702 20.9062C21.1488 21.2218 21.7428 21.6132 21.9902 21.7762C22.349 22.0126 22.2946 22.0135 21.72 21.781C21.324 21.6206 20.5788 21.1903 20.064 20.8248C19.5492 20.459 19.0027 20.16 18.8498 20.16C18.697 20.16 18.3622 19.9975 18.1058 19.7988C17.4014 19.2526 19.6068 20.2049 20.6702 20.9062ZM30.953 22.0894C30.7589 22.2122 30.6833 22.3142 30.7848 22.3164C31.0054 22.3207 30.204 23.9191 29.64 24.6C29.4211 24.864 29.5826 24.4589 29.9988 23.7C30.4147 22.9411 30.6619 22.32 30.5477 22.32C30.4337 22.32 29.4809 22.8655 28.4302 23.5322C27.3797 24.199 26.0069 25.026 25.38 25.3704V25.3704C24.6769 25.7564 24.24 26.4948 24.24 27.2968V29.7182C24.24 31.7652 24.2813 33.395 24.3317 33.3401C24.5064 33.1495 27.4212 28.1942 28.1316 26.88C28.9978 25.2782 29.177 25.0697 29.177 25.6658C29.177 25.9183 29.112 26.0846 29.0326 26.0354C28.8173 25.9025 28.031 27.3266 28.1834 27.5734C28.2557 27.69 28.1489 27.9233 27.9463 28.0915C27.3437 28.5914 25.9008 31.2149 26.0741 31.4952C26.1672 31.6459 26.1223 31.685 25.9663 31.5886C25.8062 31.4897 25.5084 31.7954 25.2266 32.3477C24.426 33.917 24.1618 33.9866 23.4293 32.8202C21.2081 29.2838 20.3412 27.8083 19.7978 26.64C19.4602 25.914 19.0524 25.2108 18.8918 25.0774C18.5851 24.8225 17.28 22.3308 17.28 22.0001C17.28 21.6485 18.3425 22.1282 19.8 23.1379C20.592 23.6866 21.618 24.289 22.08 24.4766C22.542 24.6641 23.0386 24.9742 23.1835 25.1654C23.3424 25.3752 23.5718 25.4364 23.7607 25.3195C23.9681 25.1914 24.0161 25.2197 23.9026 25.4038C23.6623 25.7923 24.6312 25.621 25.1515 25.183C25.3762 24.9938 26.0189 24.6338 26.58 24.383C27.1411 24.1322 27.6 23.8486 27.6 23.7526C27.6 23.6568 27.9226 23.4446 28.3169 23.2812C28.7112 23.118 28.9646 22.8722 28.8799 22.735C28.7952 22.5979 28.8288 22.5494 28.9546 22.6272C29.0803 22.705 29.61 22.5235 30.1318 22.2238C31.0174 21.715 31.7292 21.5986 30.953 22.0894ZM12.4846 22.4424C12.8702 22.6418 13.2698 22.7863 13.3728 22.7638C13.4758 22.741 13.8641 22.848 14.2356 23.0014C14.6071 23.1545 15.1034 23.28 15.3384 23.28C15.887 23.28 16.3001 23.7718 17.2913 25.6051C17.7329 26.4218 18.1798 27.0372 18.2844 26.9726C18.389 26.9078 18.4178 27.0024 18.3487 27.1826C18.2796 27.3629 18.4428 27.7092 18.7116 27.9523C18.9802 28.1954 19.1976 28.5127 19.1947 28.6572C19.1863 29.0666 18.3528 27.9067 17.1072 25.7522V25.7522C16.6613 24.9812 15.5159 25.0903 15.2237 25.9317L15.1805 26.0561V26.0561C14.6788 27.5008 14.8203 29.0913 15.5692 30.4248L16.1078 31.3838C17.0518 33.0648 18.1754 34.98 18.6048 35.64C19.5686 37.1215 19.9831 37.92 19.7887 37.92C19.7071 37.92 18.8664 37.5838 17.9203 37.1729C16.0675 36.3684 15.2856 35.777 14.7984 34.8122C14.4096 34.0426 13.038 31.5526 12.4781 30.6C12.2453 30.204 11.9736 29.61 11.8742 29.28C11.7751 28.95 11.4929 28.4225 11.2469 28.1076C10.8746 27.6307 10.8 27.1073 10.8 24.9677C10.8 23.5555 10.872 22.3279 10.9601 22.2401C11.2157 21.9842 11.7312 22.0526 12.4846 22.4424ZM37.4686 22.38C37.6102 23.8685 37.6562 26.4182 37.5518 27C37.481 27.396 37.1479 28.044 36.8119 28.44L36.7552 28.5069C36.6747 28.6016 36.5253 28.5034 36.5803 28.392V28.392C37.038 27.4661 37.061 27.2196 36.66 27.5434C36.312 27.8246 34.32 28.193 34.32 27.9763C34.32 27.8962 34.5744 27.4277 34.885 26.9352C35.455 26.0323 37.2322 22.32 37.0946 22.32C37.0538 22.32 36.5611 22.482 36 22.68C35.4389 22.878 34.8583 23.0316 34.7098 23.0213C34.3949 22.9997 36.6953 22.1261 37.14 22.0987C37.3051 22.0884 37.453 22.2151 37.4686 22.38ZM11.1022 24.9569L11.1243 25.9206C11.1455 26.8415 11.7706 27.6384 12.66 27.8782V27.8782C13.4851 28.1004 14.16 28.2458 14.16 28.201C14.16 28.1563 13.6922 27.3278 13.1203 26.3599C12.5486 25.392 12.0134 24.33 11.9309 24C11.8483 23.67 11.615 23.184 11.4125 22.92C11.0753 22.4806 11.0491 22.6524 11.1022 24.9569ZM33.2652 23.3208C33.3802 23.5066 33.3103 23.5524 33.0593 23.4559C32.4034 23.2044 32.4281 23.8421 33.1546 25.9337C33.5566 27.0905 33.8004 28.1945 33.7231 28.5065C33.5815 29.0774 30.2052 35.0827 29.1586 36.6247C28.8264 37.1143 28.5934 37.5533 28.6404 37.6006C28.8732 37.8331 32.3834 35.9676 32.8068 35.3866C33.1654 34.8946 33.336 34.807 33.4805 35.041C33.6173 35.2622 33.5808 35.2966 33.3564 35.1576C33.1181 35.0105 33.0818 35.0746 33.2119 35.4132C33.3072 35.6618 33.3094 35.7893 33.2165 35.6964C33.1236 35.6035 32.9278 35.6911 32.7816 35.891C32.6354 36.091 31.6526 36.6504 30.5978 37.134C28.8043 37.9565 28.5326 38.0124 26.4072 37.9968C24.5086 37.9829 24.0938 37.9109 23.8872 37.5602C23.7514 37.3294 23.4194 36.8028 23.1502 36.3902C21.8818 34.4484 21.0986 32.887 21.463 33.0266C21.6703 33.1063 21.8534 33.2678 21.87 33.3857C21.937 33.865 22.0025 34.0015 22.6452 35.0023C23.0131 35.5757 23.5238 36.3857 23.7799 36.8023C24.2302 37.5348 24.2506 37.542 24.391 37.02C24.4706 36.7229 24.6314 36.48 24.7481 36.48C24.8645 36.48 24.96 36.318 24.96 36.12C24.96 35.922 25.0464 35.76 25.1522 35.76C25.2578 35.76 25.5814 35.3011 25.871 34.74C26.5558 33.4142 27.2352 32.2423 27.539 31.8626C27.6722 31.6963 27.8642 31.2905 27.9655 30.961C28.0668 30.6317 28.728 29.4271 29.4348 28.2845C30.1416 27.1418 30.72 26.0885 30.72 25.9435C30.72 25.7986 30.828 25.68 30.96 25.68C31.092 25.68 31.2 25.5646 31.2 25.4232C31.2 25.0579 32.6201 23.04 32.8774 23.04C32.9952 23.04 33.1697 23.1662 33.2652 23.3208ZM34.255 23.185C34.1753 23.2646 33.9682 23.2733 33.7951 23.2039C33.6036 23.1274 33.6605 23.0705 33.9401 23.059C34.193 23.0486 34.3346 23.1053 34.255 23.185ZM19.68 29.297C19.68 29.4386 19.843 29.7173 20.0422 29.9165C20.2414 30.1157 20.3419 30.3799 20.2654 30.5038C20.1888 30.6276 20.3621 31.1105 20.6506 31.577C20.9388 32.0436 21.1171 32.4828 21.0468 32.5531C20.897 32.7029 20.6666 32.2968 19.836 30.4183C19.5007 29.6602 19.3284 29.04 19.4532 29.04C19.578 29.04 19.68 29.1557 19.68 29.297ZM35.8003 30.5357C35.6222 30.7138 35.591 30.6199 35.6954 30.2208C35.7804 29.8963 35.8891 29.7874 35.9491 29.9671C36.0067 30.1404 35.94 30.396 35.8003 30.5357ZM35.1758 31.6495C34.9795 32.0287 34.8958 32.4242 34.9896 32.5282C35.0832 32.6318 35.0254 32.6395 34.861 32.545C34.627 32.4103 34.6414 32.2188 34.927 31.6663C35.1278 31.2778 35.3462 30.96 35.4122 30.96C35.4782 30.96 35.3719 31.2703 35.1758 31.6495ZM34.0661 33.6898C33.3713 34.8674 33.2311 34.7935 33.8518 33.5767C34.1278 33.036 34.4042 32.6443 34.4664 32.7065C34.5286 32.7686 34.3486 33.2112 34.0661 33.6898Z"
    fill="#A61124"
  />
  <path
    fill-rule="evenodd"
    clip-rule="evenodd"
    d="M0 24V24C0 37.2548 10.7452 48 24 48V48V48C37.2548 48 48 37.2548 48 24V24V24C48 10.7452 37.2548 0 24 0V0V0C10.7452 0 0 10.7452 0 24V24ZM25.0418 7.69176C25.3361 8.358 25.6711 8.81712 25.7868 8.71176C25.9025 8.60616 25.9301 8.63736 25.8485 8.78088C25.7669 8.9244 26.1396 9.7884 26.6767 10.7009C27.2141 11.6134 28.0241 13.1664 28.477 14.1521C28.9296 15.1378 29.3767 16.0018 29.4701 16.0721C29.7694 16.2974 30.96 18.833 30.96 19.2451C30.96 19.4921 30.619 19.7549 30.06 19.9385C29.5651 20.101 28.4592 20.7034 27.6026 21.277C26.7461 21.8506 25.9222 22.32 25.7719 22.32C25.6217 22.32 25.363 22.4834 25.1971 22.6834C24.9036 23.0371 22.9678 23.1125 23.184 22.7618C23.2375 22.6747 22.7561 22.3418 22.1141 22.0219C21.4721 21.702 20.6347 21.2239 20.2534 20.9597C19.872 20.6954 19.0469 20.2358 18.42 19.9382C17.7931 19.6406 17.28 19.2809 17.28 19.1386C17.28 18.9962 17.6599 18.1886 18.1243 17.3438C18.5887 16.499 18.8959 15.6905 18.8071 15.547C18.7178 15.4025 18.756 15.3538 18.8923 15.4382C19.0318 15.5244 19.4275 14.941 19.8036 14.0952C20.1691 13.273 20.6573 12.3295 20.8884 11.999C21.1195 11.6686 21.8184 10.4266 22.4419 9.23904C24.1711 5.94456 24.2501 5.89752 25.0418 7.69176ZM24.2626 11.16C24.228 15.2887 24.2484 15.4937 24.7229 15.7882C24.996 15.9576 25.3399 16.0219 25.4868 15.931C25.6426 15.8347 25.6872 15.8743 25.5936 16.0255C25.4453 16.2655 25.9954 16.5778 26.4931 16.5367C26.6105 16.5269 26.7725 16.614 26.8531 16.7302C27.1502 17.1576 28.8449 18.0005 29.0954 17.8457C29.2406 17.7559 29.2853 17.7972 29.1974 17.9395C29.1086 18.083 29.3633 18.3058 29.7845 18.4526C30.4241 18.6756 30.5081 18.6593 30.384 18.3362C30.3048 18.1298 30.24 17.9093 30.24 17.8462C30.24 17.7833 30.1152 17.8087 29.9628 17.9028C29.8001 18.0036 29.7506 17.9693 29.8428 17.82C29.9292 17.6803 29.6434 16.9346 29.2078 16.163C28.7722 15.3914 28.2074 14.2558 27.953 13.6397C27.6986 13.0236 27.3905 12.5813 27.2681 12.6569C27.1459 12.7322 27.1272 12.6626 27.2263 12.5018C27.3257 12.3413 27.2498 12.0276 27.0574 11.8049C26.8651 11.5822 26.2997 10.644 25.8005 9.72C25.3015 8.796 24.791 7.974 24.666 7.89312C24.5412 7.81248 24.4562 7.67472 24.4776 7.58712C24.4987 7.49952 24.467 7.29576 24.4073 7.134C24.3473 6.97224 24.2822 8.784 24.2626 11.16ZM22.8506 16.5365C22.4162 16.759 22.1102 16.9903 22.1702 17.0506C22.2305 17.1108 22.025 17.1751 21.7138 17.1938C21.4025 17.2123 20.8445 17.4379 20.4739 17.6952C20.1034 17.9525 19.3438 18.3694 18.7862 18.6214C17.8483 19.0457 17.2949 19.6034 18.1298 19.283C18.3554 19.1964 18.4723 19.2588 18.4298 19.4434C18.3914 19.6097 18.63 19.8247 18.96 19.9214C19.29 20.0179 20.1449 20.4941 20.8596 20.9791C21.5746 21.4642 22.3092 21.8035 22.4921 21.7332C22.6752 21.6629 22.7642 21.7037 22.6898 21.8239C22.6157 21.9442 22.8967 22.2127 23.3143 22.4213C24.2678 22.897 24.2278 22.9085 24.0394 22.212C23.9518 21.8885 23.934 20.3762 24 18.8513C24.0768 17.0746 24.0338 16.0884 23.88 16.1054C23.748 16.1201 23.2848 16.314 22.8506 16.5365ZM30.7039 22.8314C30.4128 23.4022 29.909 24.2705 29.5846 24.7608C29.2507 25.265 29.0726 25.7786 29.1744 25.9433C29.2766 26.1089 29.2538 26.172 29.1211 26.0902C28.8446 25.9193 27.9934 27.2657 28.1834 27.5734C28.2557 27.69 28.1489 27.9233 27.9463 28.0915C27.3437 28.5914 25.9008 31.2149 26.0741 31.4952C26.1672 31.6459 26.1223 31.685 25.9663 31.5886C25.8062 31.4897 25.5084 31.7954 25.2266 32.3477C24.426 33.917 24.1618 33.9866 23.4293 32.8202C21.2081 29.2838 20.3412 27.8083 19.7978 26.64C19.4602 25.914 19.0524 25.2108 18.8918 25.0774C18.5851 24.8225 17.28 22.3308 17.28 22.0001C17.28 21.6485 18.3425 22.1282 19.8 23.1379C20.592 23.6866 21.618 24.289 22.08 24.4766C22.542 24.6641 23.0386 24.9742 23.1835 25.1654C23.3424 25.3752 23.5718 25.4364 23.7607 25.3195C23.9681 25.1914 24.0161 25.2197 23.9026 25.4038C23.6623 25.7923 24.6312 25.621 25.1515 25.183C25.3762 24.9938 26.0189 24.6338 26.58 24.383C27.1411 24.1322 27.6 23.8486 27.6 23.7526C27.6 23.6568 27.9226 23.4446 28.3169 23.2812C28.7112 23.118 28.9646 22.8722 28.8799 22.735C28.7952 22.5979 28.8288 22.5494 28.9546 22.6272C29.0803 22.705 29.61 22.5235 30.1318 22.2238C30.6533 21.9242 31.1146 21.7049 31.1568 21.7363C31.199 21.7678 30.9953 22.2605 30.7039 22.8314ZM12.4846 22.4424C12.8702 22.6418 13.2698 22.7863 13.3728 22.7638C13.4758 22.741 13.8641 22.848 14.2356 23.0014C14.6071 23.1545 15.1034 23.28 15.3384 23.28C15.887 23.28 16.3001 23.7718 17.2913 25.6051C17.7329 26.4218 18.1798 27.0372 18.2844 26.9726C18.389 26.9078 18.4178 27.0024 18.3487 27.1826C18.2796 27.3629 18.4428 27.7092 18.7116 27.9523C18.9802 28.1954 19.2 28.5396 19.2 28.7172C19.2 28.8948 19.308 29.04 19.44 29.04C19.572 29.04 19.68 29.1557 19.68 29.297C19.68 29.4386 19.843 29.7173 20.0422 29.9165C20.2414 30.1157 20.3482 30.3698 20.2793 30.4812C20.137 30.7116 21.2467 32.9016 21.624 33.1349C21.7603 33.2191 21.8966 33.4392 21.9271 33.624C21.9574 33.8088 22.2818 34.429 22.6483 35.0023C23.0146 35.5757 23.5238 36.3857 23.7799 36.8023C24.2302 37.5348 24.2506 37.542 24.391 37.02C24.4706 36.7229 24.6314 36.48 24.7481 36.48C24.8645 36.48 24.96 36.318 24.96 36.12C24.96 35.922 25.0464 35.76 25.1522 35.76C25.2578 35.76 25.5814 35.3011 25.871 34.74C26.5558 33.4142 27.2352 32.2423 27.539 31.8626C27.6722 31.6963 27.8642 31.2905 27.9655 30.961C28.0668 30.6317 28.728 29.4271 29.4348 28.2845C30.1416 27.1418 30.72 26.0885 30.72 25.9435C30.72 25.7986 30.828 25.68 30.96 25.68C31.092 25.68 31.2 25.5646 31.2 25.4232C31.2 24.8717 32.6906 23.0081 33.0283 23.1377C33.2165 23.2099 34.2422 22.9934 35.3076 22.657C36.3732 22.3202 37.3147 22.1148 37.4002 22.2002C37.4856 22.2854 37.5564 23.5085 37.5576 24.9178C37.56 27.3643 37.5293 27.5201 36.8794 28.3697C36.4891 28.8797 36.2746 29.382 36.3766 29.5466C36.4889 29.7286 36.4524 29.7713 36.2772 29.6628C36.1162 29.5634 36 29.6381 36 29.8414C36 30.0336 35.7365 30.655 35.4144 31.2218C35.0923 31.7887 34.8931 32.3566 34.9716 32.4835C35.0501 32.6102 34.9894 32.6371 34.8372 32.5428C34.6848 32.4487 34.56 32.4881 34.56 32.6306C34.56 32.773 34.2862 33.3235 33.9514 33.8537C33.6166 34.3841 33.4174 34.9385 33.5083 35.0861C33.6168 35.2613 33.564 35.286 33.3564 35.1576C33.1181 35.0105 33.0818 35.0746 33.2119 35.4132C33.3072 35.6618 33.3094 35.7893 33.2165 35.6964C33.1236 35.6035 32.9278 35.6911 32.7816 35.891C32.6354 36.091 31.6526 36.6466 30.5978 37.1254C29.0582 37.8245 28.362 38.003 27.0674 38.0306C24.3391 38.0892 23.9021 37.9769 23.525 37.1196C23.0114 35.952 21.8981 34.5118 21.7255 34.7911C21.6408 34.9279 21.648 35.1751 21.7411 35.34C21.8738 35.5752 21.8429 35.5774 21.5974 35.3501C21.3482 35.1194 21.3449 34.9874 21.5806 34.7035C21.8232 34.411 21.7001 34.0445 20.8982 32.6714C20.3602 31.7501 19.92 30.8698 19.92 30.7152C19.92 30.5606 19.7311 30.1469 19.5 29.796C18.9125 28.9032 18.5902 28.3694 17.8529 27.067C17.5001 26.4439 17.1264 25.9867 17.0222 26.051C16.9183 26.1151 16.7551 26.0414 16.6596 25.8869C16.5511 25.7114 16.5898 25.6702 16.7628 25.7772C17.2224 26.0611 17.0762 25.5823 16.44 24.72C16.11 24.2726 15.84 24.0269 15.84 24.1738C15.84 24.3206 15.7678 24.6293 15.6792 24.8597C15.5597 25.171 15.606 25.2331 15.8592 25.1016C16.1014 24.9756 16.0937 25.0164 15.8321 25.2422C15.6298 25.417 15.3132 26.046 15.1289 26.64C14.9443 27.234 14.7149 27.828 14.6189 27.96C14.4686 28.1662 18.096 34.836 18.8743 35.7854C19.4585 36.4975 20.1394 37.92 19.8962 37.92C19.3894 37.92 16.1878 36.4147 15.6538 35.9254C15.3533 35.6498 14.9686 35.1492 14.7984 34.8122C14.4096 34.0426 13.038 31.5526 12.4781 30.6C12.2453 30.204 11.9736 29.61 11.8742 29.28C11.7751 28.95 11.4929 28.4225 11.2469 28.1076C10.8746 27.6307 10.8 27.1073 10.8 24.9677C10.8 23.5555 10.872 22.3279 10.9601 22.2401C11.2157 21.9842 11.7312 22.0526 12.4846 22.4424ZM28.68 23.4125C27.756 24.0118 26.3753 24.8479 25.6116 25.271V25.271C24.7562 25.7448 24.2294 26.6493 24.2393 27.627L24.2606 29.7312L24.2833 31.9803C24.2873 32.3816 24.8184 32.521 25.019 32.1734V32.1734C25.5535 31.2478 25.6704 30.8544 25.4702 30.6542C25.3214 30.5054 25.2 30.277 25.2 30.1462C25.2 30.0154 25.3445 30.1058 25.5209 30.3473C25.8646 30.8172 25.9723 30.6744 27.7754 27.36C28.0985 26.766 28.59 25.9099 28.8672 25.4575C29.2056 24.9058 29.2579 24.6946 29.0258 24.8158C28.8355 24.9151 28.8982 24.7994 29.165 24.5582C29.7283 24.0492 30.7855 22.3193 30.5318 22.3217C30.4373 22.3224 29.604 22.8134 28.68 23.4125ZM35.0554 22.9678C34.0738 23.281 33.1289 23.4826 32.9554 23.4161C32.6134 23.2848 32.4998 24.2599 32.82 24.5801C32.9189 24.679 33.0055 24.8321 33.0122 24.9199C33.0533 25.4556 33.8834 27.8388 34.0267 27.8326C34.3154 27.8198 35.0683 26.6599 35.105 26.1713C35.124 25.9193 35.2253 25.7662 35.3299 25.8307C35.4876 25.9284 35.6057 25.5833 35.484 25.38C35.4643 25.3469 35.8015 24.6941 36.2333 23.929C36.6648 23.1641 36.978 22.5067 36.929 22.4683C36.8801 22.4297 36.037 22.6546 35.0554 22.9678ZM11.04 25.0546V26.4034C11.04 26.9554 11.4081 27.4396 11.94 27.5873V27.5873C13.0766 27.9031 13.68 27.9074 13.68 27.6C13.68 27.468 13.554 27.36 13.3999 27.36C13.2461 27.36 13.1858 27.2942 13.2665 27.2136C13.3469 27.1332 13.1698 26.6741 12.8726 26.1936C12.5755 25.7131 12.1411 24.8081 11.9074 24.1824C11.2334 22.3793 11.04 22.5739 11.04 25.0546ZM36 27.8786C35.538 28.0049 34.907 28.1827 34.5979 28.2742C34.1935 28.3934 33.5731 29.2726 32.3837 31.4122C31.4748 33.0468 30.7994 34.4945 30.8827 34.6291C30.966 34.764 30.9202 34.8036 30.7805 34.7174C30.641 34.6313 30.2794 34.9656 29.9765 35.4602C29.2901 36.582 28.8 37.4669 28.8 37.5847C28.8 37.7354 31.5542 36.373 31.6399 36.18C31.6841 36.0811 31.8746 36 32.0635 36C32.4826 36 33.4044 34.5557 33.2491 34.1429C33.1877 33.9794 33.2558 33.8714 33.4006 33.9029C33.5453 33.9343 34.3999 32.5289 35.2997 30.78C36.1994 29.0311 36.9139 27.611 36.8878 27.6245C36.8616 27.6379 36.462 27.7524 36 27.8786ZM34.9937 30.8462C34.9198 30.9202 34.7856 30.787 34.6954 30.5503C34.5653 30.2083 34.5926 30.1807 34.8298 30.4159C34.9939 30.5789 35.0676 30.7726 34.9937 30.8462ZM23.52 37.6577C23.52 37.9018 20.8944 38.1439 20.52 37.9344C20.388 37.8605 20.982 37.7376 21.84 37.6615C22.698 37.5852 23.4269 37.5043 23.46 37.4815C23.4931 37.4587 23.52 37.5379 23.52 37.6577Z"
    fill="#7E000D"
  />
  <path
    fill-rule="evenodd"
    clip-rule="evenodd"
    d="M0 24V24C0 37.2548 10.7452 48 24 48V48V48C37.2548 48 48 37.2548 48 24V24V24C48 10.7452 37.2548 0 24 0V0V0C10.7452 0 0 10.7452 0 24V24ZM25.0418 7.69176C25.3361 8.358 25.6711 8.81712 25.7868 8.71176C25.9025 8.60616 25.9301 8.63736 25.8485 8.78088C25.7669 8.9244 26.1396 9.7884 26.6767 10.7009C27.2141 11.6134 28.0241 13.1664 28.477 14.1521C28.9296 15.1378 29.3767 16.0018 29.4701 16.0721C29.7694 16.2974 30.96 18.833 30.96 19.2451C30.96 19.4921 30.619 19.7549 30.06 19.9385C29.5651 20.101 28.4592 20.7034 27.6026 21.277C26.7461 21.8506 25.9222 22.32 25.7719 22.32C25.6217 22.32 25.363 22.4834 25.1971 22.6834C24.9036 23.0371 22.9678 23.1125 23.184 22.7618C23.2375 22.6747 22.7561 22.3418 22.1141 22.0219C21.4721 21.702 20.6347 21.2239 20.2534 20.9597C19.872 20.6954 19.0469 20.2358 18.42 19.9382C17.7931 19.6406 17.28 19.2809 17.28 19.1386C17.28 18.9962 17.6599 18.1886 18.1243 17.3438C18.5887 16.499 18.8959 15.6905 18.8071 15.547C18.7178 15.4025 18.756 15.3538 18.8923 15.4382C19.0318 15.5244 19.4275 14.941 19.8036 14.0952C20.1691 13.273 20.6573 12.3295 20.8884 11.999C21.1195 11.6686 21.8184 10.4266 22.4419 9.23904C24.1711 5.94456 24.2501 5.89752 25.0418 7.69176ZM30.7039 22.8314C30.4128 23.4022 29.909 24.2705 29.5846 24.7608C29.2507 25.265 29.0726 25.7786 29.1744 25.9433C29.2766 26.1089 29.2538 26.172 29.1211 26.0902C28.8446 25.9193 27.9934 27.2657 28.1834 27.5734C28.2557 27.69 28.1489 27.9233 27.9463 28.0915C27.3437 28.5914 25.9008 31.2149 26.0741 31.4952C26.1672 31.6459 26.1223 31.685 25.9663 31.5886C25.8062 31.4897 25.5084 31.7954 25.2266 32.3477C24.426 33.917 24.1618 33.9866 23.4293 32.8202C21.2081 29.2838 20.3412 27.8083 19.7978 26.64C19.4602 25.914 19.0524 25.2108 18.8918 25.0774C18.5851 24.8225 17.28 22.3308 17.28 22.0001C17.28 21.6485 18.3425 22.1282 19.8 23.1379C20.592 23.6866 21.618 24.289 22.08 24.4766C22.542 24.6641 23.0386 24.9742 23.1835 25.1654C23.3424 25.3752 23.5718 25.4364 23.7607 25.3195C23.9681 25.1914 24.0161 25.2197 23.9026 25.4038C23.6623 25.7923 24.6312 25.621 25.1515 25.183C25.3762 24.9938 26.0189 24.6338 26.58 24.383C27.1411 24.1322 27.6 23.8486 27.6 23.7526C27.6 23.6568 27.9226 23.4446 28.3169 23.2812C28.7112 23.118 28.9646 22.8722 28.8799 22.735C28.7952 22.5979 28.8288 22.5494 28.9546 22.6272C29.0803 22.705 29.61 22.5235 30.1318 22.2238C30.6533 21.9242 31.1146 21.7049 31.1568 21.7363C31.199 21.7678 30.9953 22.2605 30.7039 22.8314ZM12.4846 22.4424C12.8702 22.6418 13.2698 22.7863 13.3728 22.7638C13.4758 22.741 13.8641 22.848 14.2356 23.0014C14.6071 23.1545 15.1034 23.28 15.3384 23.28C15.887 23.28 16.3001 23.7718 17.2913 25.6051C17.7329 26.4218 18.1798 27.0372 18.2844 26.9726C18.389 26.9078 18.4178 27.0024 18.3487 27.1826C18.2796 27.3629 18.4428 27.7092 18.7116 27.9523C18.9802 28.1954 19.2 28.5396 19.2 28.7172C19.2 28.8948 19.308 29.04 19.44 29.04C19.572 29.04 19.68 29.1557 19.68 29.297C19.68 29.4386 19.843 29.7173 20.0422 29.9165C20.2414 30.1157 20.3482 30.3698 20.2793 30.4812C20.137 30.7116 21.2467 32.9016 21.624 33.1349C21.7603 33.2191 21.8966 33.4392 21.9271 33.624C21.9574 33.8088 22.2818 34.429 22.6483 35.0023C23.0146 35.5757 23.5238 36.3857 23.7799 36.8023C24.2302 37.5348 24.2506 37.542 24.391 37.02C24.4706 36.7229 24.6314 36.48 24.7481 36.48C24.8645 36.48 24.96 36.318 24.96 36.12C24.96 35.922 25.0464 35.76 25.1522 35.76C25.2578 35.76 25.5814 35.3011 25.871 34.74C26.5558 33.4142 27.2352 32.2423 27.539 31.8626C27.6722 31.6963 27.8642 31.2905 27.9655 30.961C28.0668 30.6317 28.728 29.4271 29.4348 28.2845C30.1416 27.1418 30.72 26.0885 30.72 25.9435C30.72 25.7986 30.828 25.68 30.96 25.68C31.092 25.68 31.2 25.5646 31.2 25.4232C31.2 24.8717 32.6906 23.0081 33.0283 23.1377C33.2165 23.2099 34.2422 22.9934 35.3076 22.657C36.3732 22.3202 37.3147 22.1148 37.4002 22.2002C37.4856 22.2854 37.5564 23.5085 37.5576 24.9178C37.56 27.3643 37.5293 27.5201 36.8794 28.3697C36.4891 28.8797 36.2746 29.382 36.3766 29.5466C36.4889 29.7286 36.4524 29.7713 36.2772 29.6628C36.1162 29.5634 36 29.6381 36 29.8414C36 30.0336 35.7365 30.655 35.4144 31.2218C35.0923 31.7887 34.8931 32.3566 34.9716 32.4835C35.0501 32.6102 34.9894 32.6371 34.8372 32.5428C34.6848 32.4487 34.56 32.4881 34.56 32.6306C34.56 32.773 34.2862 33.3235 33.9514 33.8537C33.6166 34.3841 33.4174 34.9385 33.5083 35.0861C33.6168 35.2613 33.564 35.286 33.3564 35.1576C33.1181 35.0105 33.0818 35.0746 33.2119 35.4132C33.3072 35.6618 33.3094 35.7893 33.2165 35.6964C33.1236 35.6035 32.9278 35.6911 32.7816 35.891C32.6354 36.091 31.6526 36.6475 30.5978 37.1275V37.1275C29.3345 37.7025 27.9609 37.9948 26.5729 37.9839L24.1714 37.9651C19.6824 37.9298 19.655 37.9265 17.9314 37.1777C16.068 36.3686 15.2861 35.7782 14.7984 34.8122C14.4096 34.0426 13.038 31.5526 12.4781 30.6C12.2453 30.204 11.9736 29.61 11.8742 29.28C11.7751 28.95 11.4929 28.4225 11.2469 28.1076C10.8746 27.6307 10.8 27.1073 10.8 24.9677C10.8 23.5555 10.872 22.3279 10.9601 22.2401C11.2157 21.9842 11.7312 22.0526 12.4846 22.4424Z"
    fill="#F5F5F5"
  />
</svg>
