<svg viewBox="0 0 24 24" fill="none" xmlns="http://www.w3.org/2000/svg">
  <circle cx="12" cy="12" r="12" fill="black" />
  <path d="M15.6284 6.61345L13.1213 10.3341C12.948 10.5875 13.2813 10.8942 13.5214 10.6809L15.9885 8.5338C16.0552 8.48046 16.1485 8.52047 16.1485 8.61382V15.3217C16.1485 15.4151 16.0285 15.4551 15.9752 15.3884L8.50713 6.45342C8.26709 6.16003 7.92036 6 7.53362 6H7.2669C6.57344 6 6 6.57344 6 7.28024V16.722C6 17.4288 6.57344 18.0022 7.28024 18.0022C7.72032 18.0022 8.13373 17.7755 8.37377 17.3888L10.8809 13.6681C11.0543 13.4147 10.7209 13.108 10.4808 13.3214L8.01371 15.4551C7.94703 15.5084 7.85368 15.4684 7.85368 15.3751V8.6805C7.85368 8.58715 7.9737 8.54714 8.02704 8.61382L15.4951 17.5488C15.7351 17.8422 16.0952 18.0022 16.4686 18.0022H16.7353C17.4421 18.0022 18.0156 17.4288 18.0156 16.722V7.28024C18.0156 6.57344 17.4421 6 16.7353 6C16.2819 6 15.8685 6.22671 15.6284 6.61345Z" fill="white" />
</svg>
  