<svg viewBox="0 0 24 24" fill="none" xmlns="http://www.w3.org/2000/svg">
  <circle cx="12" cy="12" r="12" fill="#E7EFF3" />
  <path
    fill-rule="evenodd"
    clip-rule="evenodd"
    d="M15.4113 6C13.9842 5.99889 12.8257 7.15355 12.822 8.58067V11.442C12.5553 11.46 12.2827 11.4713 12 11.4713C11.7173 11.4713 11.446 11.4827 11.178 11.4987V8.58067C11.1553 7.167 10.0029 6.03288 8.589 6.03288C7.17515 6.03288 6.02269 7.167 6 8.58067V15.4193C6.02269 16.833 7.17515 17.9671 8.589 17.9671C10.0029 17.9671 11.1553 16.833 11.178 15.4193V12.558C11.4447 12.54 11.7173 12.5287 12 12.5287C12.2827 12.5287 12.554 12.5173 12.822 12.5013V15.4193C12.8447 16.833 13.9971 17.9671 15.411 17.9671C16.8249 17.9671 17.9773 16.833 18 15.4193V8.58067C17.9963 7.15381 16.8382 5.99926 15.4113 6ZM8.58867 7.05733C9.43089 7.05696 10.1145 7.73844 10.1167 8.58066V11.6107C9.35919 11.7204 8.61948 11.9296 7.91667 12.2327C7.61216 12.3663 7.3255 12.5374 7.06333 12.742V8.58066C7.06554 7.73948 7.74748 7.05843 8.58867 7.05733ZM8.58867 16.9473C9.43256 16.9473 10.1167 16.2632 10.1167 15.4193V12.678C9.50722 12.7774 8.91232 12.9514 8.34533 13.196C7.54067 13.5533 7.06067 14.1273 7.06067 14.7333V15.4193C7.06067 16.2632 7.74478 16.9473 8.58867 16.9473ZM15.4113 16.9427C14.5691 16.943 13.8855 16.2616 13.8833 15.4193V12.3893C14.6408 12.2796 15.3805 12.0704 16.0833 11.7673C16.3878 11.6337 16.6745 11.4626 16.9367 11.258V15.4193C16.9345 16.2605 16.2525 16.9416 15.4113 16.9427ZM13.8833 11.318C14.4928 11.2186 15.0877 11.0446 15.6547 10.8C16.4593 10.444 16.9393 9.87 16.9393 9.26666V8.58066C16.9393 7.73677 16.2552 7.05266 15.4113 7.05266C14.5674 7.05266 13.8833 7.73677 13.8833 8.58066V11.318Z"
    fill="url(#paint0_linear_1876_15218)"
  />
  <defs>
    <linearGradient
      id="paint0_linear_1876_15218"
      x1="11.9801"
      y1="22.2812"
      x2="22.3914"
      y2="11.8411"
      gradientUnits="userSpaceOnUse"
    >
      <stop stop-color="#00AEE9" />
      <stop offset="1" stop-color="#69FABD" />
    </linearGradient>
  </defs>
</svg>
