<svg width="48" height="48" viewBox="0 0 48 48" fill="none" xmlns="http://www.w3.org/2000/svg">
    <rect width="48" height="48" rx="24" fill="#8247E5" />
    <rect width="32" height="32" transform="translate(8 8)" fill="#8247E5" />
    <path
        d="M32.1061 18.6096C31.5301 18.2804 30.7894 18.2804 30.131 18.6096L25.5224 21.3253L22.3952 23.0536L17.8689 25.7693C17.2928 26.0985 16.5522 26.0985 15.8938 25.7693L12.355 23.6296C11.779 23.3005 11.3675 22.6421 11.3675 21.9014V17.7866C11.3675 17.1282 11.6967 16.4699 12.355 16.0584L15.8938 14.001C16.4699 13.6718 17.2105 13.6718 17.8689 14.001L21.4076 16.1407C21.9837 16.4699 22.3952 17.1282 22.3952 17.8689V20.5847L25.5224 18.7742V15.9761C25.5224 15.3177 25.1933 14.6593 24.5349 14.2479L17.9512 10.3799C17.3751 10.0508 16.6344 10.0508 15.9761 10.3799L9.22779 14.3302C8.56942 14.6593 8.24023 15.3177 8.24023 15.9761V23.7119C8.24023 24.3703 8.56942 25.0287 9.22779 25.4402L15.8938 29.3081C16.4699 29.6373 17.2105 29.6373 17.8689 29.3081L22.3952 26.6746L25.5224 24.8641L30.0487 22.2306C30.6248 21.9014 31.3655 21.9014 32.0238 22.2306L35.5626 24.288C36.1386 24.6172 36.5501 25.2756 36.5501 26.0162V30.131C36.5501 30.7894 36.2209 31.4478 35.5626 31.8593L32.1061 33.9167C31.5301 34.2458 30.7894 34.2458 30.131 33.9167L26.5923 31.8593C26.0162 31.5301 25.6047 30.8717 25.6047 30.131V27.4976L22.4775 29.3081V32.0239C22.4775 32.6822 22.8067 33.3406 23.465 33.7521L30.131 37.62C30.7071 37.9492 31.4478 37.9492 32.1061 37.62L38.7721 33.7521C39.3482 33.4229 39.7597 32.7645 39.7597 32.0239V24.2057C39.7597 23.5473 39.4305 22.889 38.7721 22.4775L32.1061 18.6096Z"
        fill="white" />
</svg>