<svg width="48" height="48" viewBox="0 0 48 48" fill="none" xmlns="http://www.w3.org/2000/svg">
    <g clip-path="url(#clip0_13_7645)">
        <mask id="mask0_13_7645" style="mask-type:luminance" maskUnits="userSpaceOnUse" x="0" y="0"
            width="48" height="48">
            <path d="M48 0H0V48H48V0Z" fill="white" />
        </mask>
        <g mask="url(#mask0_13_7645)">
            <path
                d="M24 48C37.2548 48 48 37.2548 48 24C48 10.7452 37.2548 0 24 0C10.7452 0 0 10.7452 0 24C0 37.2548 10.7452 48 24 48Z"
                fill="url(#paint0_radial_13_7645)" />
            <mask id="mask1_13_7645" style="mask-type:alpha" maskUnits="userSpaceOnUse" x="0" y="0"
                width="48" height="48">
                <path
                    d="M24 48C37.2548 48 48 37.2548 48 24C48 10.7452 37.2548 0 24 0C10.7452 0 0 10.7452 0 24C0 37.2548 10.7452 48 24 48Z"
                    fill="url(#paint1_radial_13_7645)" />
            </mask>
            <g mask="url(#mask1_13_7645)">
                <path opacity="0.2"
                    d="M-0.799805 13.2C-0.799805 12.6698 -0.369998 12.24 0.160195 12.24H13.2802C13.8104 12.24 14.2402 12.6698 14.2402 13.2V35.52C14.2402 36.0501 13.8104 36.48 13.2802 36.48H0.160195C-0.369998 36.48 -0.799805 36.0501 -0.799805 35.52V13.2Z"
                    fill="url(#paint2_linear_13_7645)" />
                <path opacity="0.2"
                    d="M28.96 32.56C28.96 32.0298 29.3898 31.6 29.92 31.6H47.04C47.5701 31.6 48 32.0298 48 32.56V40.88C48 41.4101 47.5701 41.84 47.04 41.84H29.92C29.3898 41.84 28.96 41.4101 28.96 40.88V32.56Z"
                    fill="#E74310" />
                <path opacity="0.2"
                    d="M40.0808 35.12C40.6109 35.12 41.0408 35.5498 41.0408 36.08V52.24C41.0408 52.7702 40.6109 53.2 40.0808 53.2H33.7608C33.2306 53.2 32.8008 52.7702 32.8008 52.24V36.08C32.8008 35.5498 33.2306 35.12 33.7608 35.12H40.0808Z"
                    fill="#DF3600" />
                <path opacity="0.1"
                    d="M19.4404 15.6C19.9705 15.6 20.4004 16.0298 20.4004 16.56V29.44C20.4004 29.9701 19.9705 30.4 19.4404 30.4H12.3204C11.7902 30.4 11.3604 29.9701 11.3604 29.44V16.56C11.3604 16.0298 11.7902 15.6 12.3204 15.6H19.4404Z"
                    fill="url(#paint3_linear_13_7645)" />
                <path opacity="0.1"
                    d="M4.56055 19.44C4.56055 18.9098 4.99035 18.48 5.52055 18.48H17.2005C17.7307 18.48 18.1605 18.9098 18.1605 19.44V31.68C18.1605 32.2101 17.7307 32.64 17.2005 32.64H5.52055C4.99035 32.64 4.56055 32.2101 4.56055 31.68V19.44Z"
                    fill="url(#paint4_linear_13_7645)" />
                <path opacity="0.2"
                    d="M48.0002 6.56C48.5303 6.56 48.9602 6.98981 48.9602 7.52V23.68C48.9602 24.2102 48.5303 24.64 48.0002 24.64H33.1202C32.59 24.64 32.1602 24.2102 32.1602 23.68V7.52C32.1602 6.98981 32.59 6.56 33.1202 6.56H48.0002Z"
                    fill="#FF9776" />
                <path opacity="0.2"
                    d="M38.9607 -4.15997C39.4908 -4.15997 39.9207 -3.73017 39.9207 -3.19997V14.56C39.9207 15.0902 39.4908 15.52 38.9607 15.52H30.6407C30.1105 15.52 29.6807 15.0902 29.6807 14.56V-3.19997C29.6807 -3.73017 30.1105 -4.15997 30.6407 -4.15997H38.9607Z"
                    fill="#FFCA8C" />
                <path opacity="0.2"
                    d="M43.2802 -0.960022C43.8104 -0.960022 44.2402 -0.530215 44.2402 -2.11549e-05V19.76C44.2402 20.2901 43.8104 20.72 43.2802 20.72H25.2002C24.6701 20.72 24.2402 20.2901 24.2402 19.76V-2.14601e-05C24.2402 -0.530215 24.6701 -0.960022 25.2002 -0.960022H43.2802Z"
                    fill="url(#paint5_linear_13_7645)" />
                <path opacity="0.1"
                    d="M16.9607 -6.56C17.4908 -6.56 17.9207 -6.13019 17.9207 -5.6V7.68C17.9207 8.21016 17.4908 8.64 16.9607 8.64H10.6407C10.1105 8.64 9.68066 8.21016 9.68066 7.68V-5.6C9.68066 -6.13019 10.1105 -6.56 10.6407 -6.56H16.9607Z"
                    fill="#DF3600" />
                <path opacity="0.1"
                    d="M17.6806 34.64C18.2108 34.64 18.6406 35.0699 18.6406 35.6V47.04C18.6406 47.5702 18.2108 48 17.6806 48H1.60062C1.07043 48 0.640625 47.5702 0.640625 47.04L0.640626 35.6C0.640626 35.0699 1.07043 34.64 1.60062 34.64H17.6806Z"
                    fill="#DF3600" />
                <path opacity="0.1"
                    d="M31.8405 28.24C32.3706 28.24 32.8005 28.6698 32.8005 29.2V47.04C32.8005 47.5701 32.3706 48 31.8405 48H13.4405C12.9103 48 12.4805 47.5701 12.4805 47.04V29.2C12.4805 28.6698 12.9103 28.24 13.4405 28.24H31.8405Z"
                    fill="#FFD494" />
                <path opacity="0.2"
                    d="M25.7606 8.39256e-07C26.2907 8.62432e-07 26.7206 0.429807 26.7206 0.96V5.6C26.7206 6.13019 26.2907 6.56 25.7606 6.56H6.56059C6.03039 6.56 5.60059 6.13019 5.60059 5.6V0.96C5.60059 0.429806 6.03039 -2.31755e-08 6.56059 0L25.7606 8.39256e-07Z"
                    fill="#FFD494" />
                <path opacity="0.1"
                    d="M10.6205 47.5326L46.5732 11.5799L45.3402 10.3468L9.38749 46.2996L10.6205 47.5326Z"
                    fill="#DF3600" />
                <path opacity="0.1"
                    d="M7.92327 44.9156L43.876 8.96289L42.2706 7.3575L6.31789 43.3102L7.92327 44.9156Z"
                    fill="#DF3600" />
                <path opacity="0.1"
                    d="M6.4057 43.2381L42.3584 7.2854L40.753 5.68001L4.80031 41.6327L6.4057 43.2381Z"
                    fill="#F45C2C" />
                <path opacity="0.2"
                    d="M4.96527 41.4781L40.918 5.52539L39.5967 4.20412L3.644 40.1568L4.96527 41.4781Z"
                    fill="#F45C2C" />
                <path opacity="0.1"
                    d="M3.64202 40.1539L39.5947 4.20123L38.2735 2.87996L2.32075 38.8327L3.64202 40.1539Z"
                    fill="#FFBC6E" />
                <path opacity="0.1"
                    d="M2.76117 38.3939L38.7139 2.44122L37.3926 1.11995L1.43989 37.0727L2.76117 38.3939Z"
                    fill="#DF3600" />
                <path opacity="0.09"
                    d="M-1.47795 27.834L26.8711 -0.515076L25.5498 -1.83635L-2.79922 26.5127L-1.47795 27.834Z"
                    fill="#FFD5A4" />
                <path opacity="0.08"
                    d="M-2.99845 26.2303L25.3506 -2.11877L24.0293 -3.44005L-4.31973 24.909L-2.99845 26.2303Z"
                    fill="#FFD5A4" />
                <path opacity="0.05"
                    d="M-4.35881 24.3903L23.9902 -3.95874L22.669 -5.28001L-5.68008 23.069L-4.35881 24.3903Z"
                    fill="#FFD5A4" />
                <path opacity="0.2"
                    d="M0.761778 31.687L33.6875 -1.23877L32.3662 -2.56004L-0.559493 30.3657L0.761778 31.687Z"
                    fill="#FFD5A4" />
                <path opacity="0.2"
                    d="M1.64166 33.767L34.5674 0.841248L33.2461 -0.480024L0.32039 32.4457L1.64166 33.767Z"
                    fill="#FFD5A4" />
                <path opacity="0.1"
                    d="M0.2012 29.274L29.4238 0.0513306L28.1026 -1.26994L-1.12007 27.9527L0.2012 29.274Z"
                    fill="#FFD5A4" />
                <path opacity="0.1"
                    d="M10.5668 47.5595L46.5195 11.6068L43.8835 8.97081L7.93083 44.9235L10.5668 47.5595Z"
                    fill="#DF3600" />
                <path opacity="0.1"
                    d="M10.5668 47.5595L46.5195 11.6068L43.8701 8.95738L7.9174 44.9101L10.5668 47.5595Z"
                    fill="#DF3600" />
            </g>
            <path
                d="M23.9641 29.1785L14.833 23.7769L23.9641 8.62933L33.0871 23.7769L23.9641 29.1785Z"
                fill="white" />
            <path
                d="M23.9641 38.3752L14.833 25.5146L23.9641 30.908L33.0953 25.5146L23.9641 38.3752Z"
                fill="white" />
        </g>
    </g>
    <defs>
        <radialGradient id="paint0_radial_13_7645" cx="0" cy="0" r="1"
            gradientUnits="userSpaceOnUse"
            gradientTransform="translate(15.68 11.48) rotate(54.1675) scale(39.7666)">
            <stop stop-color="#FFD794" />
            <stop offset="1" stop-color="#ED5A37" />
        </radialGradient>
        <radialGradient id="paint1_radial_13_7645" cx="0" cy="0" r="1"
            gradientUnits="userSpaceOnUse"
            gradientTransform="translate(15.68 11.48) rotate(54.1675) scale(39.7666)">
            <stop stop-color="#FFD794" />
            <stop offset="1" stop-color="#ED5A37" />
        </radialGradient>
        <linearGradient id="paint2_linear_13_7645" x1="6.7202" y1="12.24" x2="6.7202" y2="36.48"
            gradientUnits="userSpaceOnUse">
            <stop stop-color="#FFE090" />
            <stop offset="1" stop-color="#FFE090" stop-opacity="0" />
        </linearGradient>
        <linearGradient id="paint3_linear_13_7645" x1="15.8404" y1="15.6" x2="15.8404" y2="29.28"
            gradientUnits="userSpaceOnUse">
            <stop stop-color="#DF3600" />
            <stop offset="1" stop-color="#DF3600" stop-opacity="0" />
        </linearGradient>
        <linearGradient id="paint4_linear_13_7645" x1="4.56055" y1="25.6226" x2="17.1313"
            y2="25.6226" gradientUnits="userSpaceOnUse">
            <stop stop-color="#DF3600" />
            <stop offset="1" stop-color="#DF3600" stop-opacity="0" />
        </linearGradient>
        <linearGradient id="paint5_linear_13_7645" x1="34.2402" y1="-0.960022" x2="34.2402"
            y2="20.72" gradientUnits="userSpaceOnUse">
            <stop stop-color="#DF3600" />
            <stop offset="1" stop-color="#DF3600" stop-opacity="0" />
        </linearGradient>
        <clipPath id="clip0_13_7645">
            <rect width="48" height="48" fill="white" />
        </clipPath>
    </defs>
</svg>