<svg
  width="200"
  height="200"
  viewBox="0 0 200 200"
  fill="none"
  xmlns="http://www.w3.org/2000/svg"
>
  <rect width="200" height="200" rx="100" fill="#323150" />
  <path
    d="M91.6302 117.87C90.8693 117.87 90.2606 117.87 89.4997 117.109L78.2389 105.848C77.9345 105.544 77.7824 105.391 77.7824 105.087C77.6302 104.935 77.478 104.326 77.6302 103.718C77.6302 103.413 77.7823 103.261 77.9345 103.109C78.0867 102.957 78.2389 102.804 78.391 102.652C78.6954 102.348 78.8476 102.044 78.9997 101.891C81.7389 99.3045 84.3258 96.7175 87.0649 94.2827C93.1519 88.348 99.2389 82.4132 105.326 76.4784C105.326 76.174 105.782 74.3479 107.152 73.8914C107.608 73.7392 108.217 73.7393 108.521 73.7393C109.282 73.7393 109.891 73.7393 110.652 74.5001L122.521 85.761C122.978 86.3697 123.435 87.1306 123.282 87.8914C123.13 88.6523 122.369 89.1088 122.065 89.261C120.695 90.0219 116.435 94.2827 108.369 102.804C103.5 107.522 98.7823 112.239 93.9128 116.804C93.7606 116.957 93.6084 117.413 93.1519 117.718C92.6954 117.87 92.2389 117.87 91.6302 117.87Z"
    fill="#AF145B"
  />
  <path
    d="M122.37 63.2391L99.2391 40.8696C95.7391 38.1304 91.4783 36 86.6087 36C81.7391 36 76.8696 38.1304 73.3696 41.6304C72 42.3913 72 43 72 43.7609C72 44.5217 72 45.1304 72.7609 45.8913L104.261 76.0217C105.022 76.7826 105.63 76.7826 105.63 77.3913C112.63 85.1522 113.391 96.2609 107 104.022L122.37 89.2609C125.87 86.5217 128 81.5 128 76.6304C128 71.7609 125.87 66.7391 122.37 63.2391Z"
    fill="url(#paint0_linear_9706_837)"
  />
  <path
    d="M95.131 113.761C88.131 106 87.3701 94.8912 94.3701 87.1304L79.0006 101.891C75.5006 105.391 73.3701 110.261 73.3701 115.13C73.3701 120 75.5006 124.869 79.0006 128.369L112.631 162.609C113.392 163.369 114.001 163.369 114.761 163.369C115.522 163.369 116.131 163.369 116.892 162.609C120.392 159.109 122.522 154.239 122.522 149.369C122.522 144.5 120.392 139.63 116.892 136.13L95.8918 115.13C95.7397 114.369 95.131 114.369 95.131 113.761Z"
    fill="url(#paint1_linear_9706_837)"
  />
  <defs>
    <linearGradient
      id="paint0_linear_9706_837"
      x1="72"
      y1="70.0109"
      x2="128"
      y2="70.0109"
      gradientUnits="userSpaceOnUse"
    >
      <stop stop-color="#CB0766" />
      <stop offset="1" stop-color="#E04391" />
    </linearGradient>
    <linearGradient
      id="paint1_linear_9706_837"
      x1="72.8238"
      y1="125.25"
      x2="122.294"
      y2="125.25"
      gradientUnits="userSpaceOnUse"
    >
      <stop stop-color="#CB0766" />
      <stop offset="1" stop-color="#E04391" />
    </linearGradient>
  </defs>
</svg>
