<svg width="48" height="48" viewBox="0 0 48 48" fill="none" xmlns="http://www.w3.org/2000/svg">
    <g clip-path="url(#clip0_9813_33101)">
        <rect width="48" height="48" rx="24" fill="#D8882A" />
        <path
            d="M31.4399 0.959943C31.607 1.0166 31.774 1.07325 31.9461 1.13162C38.0996 3.28072 42.8809 7.64725 45.8399 13.4399C46.4179 14.6877 46.8689 15.9691 47.2799 17.2799C47.3616 17.5284 47.4433 17.7768 47.5274 18.0328C48.6648 22.2293 48.4666 27.3362 47.0399 31.4399C46.955 31.6905 46.955 31.6905 46.8683 31.9461C44.7192 38.0996 40.3526 42.8809 34.5599 45.8399C33.3122 46.4179 32.0308 46.8689 30.7199 47.2799C30.4715 47.3616 30.2231 47.4433 29.9671 47.5274C25.7415 48.6726 20.6964 48.4245 16.5599 47.0399C16.1089 46.8914 16.1089 46.8914 15.6487 46.7399C9.64238 44.6166 5.03478 40.1878 2.15994 34.5599C1.58197 33.3122 1.13098 32.0308 0.719943 30.7199C0.638268 30.4715 0.556593 30.2231 0.472443 29.9671C-0.664877 25.7706 -0.466697 20.6637 0.959943 16.5599C1.0166 16.3929 1.07325 16.2259 1.13162 16.0538C3.28072 9.90027 7.64725 5.11899 13.4399 2.15994C14.6877 1.58197 15.9691 1.13098 17.2799 0.719943C17.5284 0.638268 17.7768 0.556593 18.0328 0.472443C22.2293 -0.664877 27.3362 -0.466697 31.4399 0.959943Z"
            fill="url(#paint0_linear_9813_33101)" />
        <path
            d="M24.72 8.40004C25.1297 8.65035 25.1297 8.65035 25.44 9.12004C25.4533 9.7611 25.4317 10.3327 25.365 10.965C25.3503 11.1335 25.3356 11.3019 25.3205 11.4755C25.2838 11.8907 25.2424 12.3054 25.2 12.72C26.388 12.9576 26.388 12.9576 27.6 13.2C27.6248 12.908 27.6495 12.6159 27.675 12.315C27.7957 11.3285 28.0813 10.5588 28.8 9.84004C30.384 9.98404 30.384 9.98404 30.96 10.56C31.0229 11.7964 30.9231 12.9416 30.72 14.16C31.0071 14.2838 31.2942 14.4075 31.59 14.535C32.9561 15.2156 33.9995 16.3297 34.56 17.76C34.7673 19.5313 34.8327 21.1919 33.7144 22.6538C32.5263 23.9487 31.4231 24.5055 29.76 24.96C29.963 25.0788 30.1659 25.1976 30.375 25.32C31.7309 26.2251 32.8617 27.4764 33.36 29.04C33.5916 30.8174 33.3469 32.3133 32.4 33.84C31.4818 34.9275 30.3996 35.7869 29.04 36.24C28.4804 36.2629 27.9201 36.2712 27.36 36.27C27.063 36.2707 26.766 36.2713 26.46 36.2719C25.68 36.24 25.68 36.24 24.96 36C24.9365 36.1622 24.913 36.3243 24.8888 36.4913C24.5973 38.2302 24.5973 38.2302 24.045 39.03C23.3993 39.4359 23.0692 39.4945 22.32 39.36C21.885 39.12 21.885 39.12 21.6 38.64C21.4896 37.3152 21.662 36.2941 22.08 35.04C21.2088 34.8816 20.3376 34.7232 19.44 34.56C19.3806 34.9362 19.3212 35.3124 19.26 35.7C19.1012 36.4841 18.9846 36.9244 18.525 37.59C17.8793 37.9959 17.5492 38.0545 16.8 37.92C16.365 37.68 16.365 37.68 16.08 37.2C15.9696 35.8752 16.142 34.8541 16.56 33.6C16.3377 33.5606 16.3377 33.5606 16.111 33.5204C12.1173 32.7727 12.1173 32.7727 11.28 31.68C11.296 30.788 11.3396 30.2222 11.91 29.52C12.9278 29.0915 13.8691 29.423 14.88 29.76C14.9011 29.6185 14.9222 29.477 14.9439 29.3312C15.3046 27.1365 15.9196 25.025 16.53 22.89C17.3332 20.0744 18.0742 17.2562 18.72 14.4C18.4942 14.3688 18.2683 14.3375 18.0357 14.3054C17.137 14.1325 16.8434 13.9448 16.32 13.2C16.2122 12.4455 16.199 11.9869 16.56 11.31C18.1225 10.4312 20.2519 11.3154 21.84 11.76C21.8837 11.5778 21.9273 11.3956 21.9722 11.2079C22.0627 10.8501 22.0627 10.8501 22.155 10.485C22.2135 10.2484 22.272 10.0117 22.3322 9.76785C22.7873 8.47391 23.3734 8.23171 24.72 8.40004Z"
            fill="#FEFDFC" />
        <path
            d="M29.4901 17.64C30.1081 18.3671 30.1414 18.7564 30.1595 19.68C29.906 20.4434 29.4685 20.6882 28.8001 21.12C28.1632 21.3875 27.5155 21.5813 26.8501 21.765C26.6698 21.8156 26.4895 21.8661 26.3038 21.9182C23.3608 22.7135 23.3608 22.7135 22.0801 22.56C21.3151 22.065 21.3151 22.065 20.8801 21.36C20.7301 20.64 20.7301 20.64 20.8801 19.92C21.8851 18.5764 23.1241 18.319 24.7051 17.925C25.0566 17.8301 25.0566 17.8301 25.4152 17.7333C28.2505 16.9933 28.2505 16.9933 29.4901 17.64Z"
            fill="#EEBB55" />
        <path
            d="M27.2699 26.535C27.7405 27.3692 27.7653 27.8575 27.5999 28.8C26.4748 29.9832 25.3556 30.3203 23.7899 30.675C23.5835 30.7269 23.3772 30.7787 23.1646 30.8321C21.8938 31.1358 20.7462 31.2869 19.4399 31.2C18.8399 30.825 18.8399 30.825 18.4799 30.24C18.3599 29.4 18.3599 29.4 18.4799 28.56C19.1852 27.6611 19.8703 27.3934 20.9549 27.09C21.2327 27.0115 21.5105 26.9329 21.7968 26.8519C22.0486 26.782 22.3004 26.7121 22.5599 26.64C22.8519 26.541 23.144 26.442 23.4449 26.34C24.7505 26.0444 26.0832 25.8287 27.2699 26.535Z"
            fill="#E7AA48" />
    </g>
    <defs>
        <linearGradient id="paint0_linear_9813_33101" x1="23.9999" y1="-0.262451" x2="23.9999"
            y2="48.2523" gradientUnits="userSpaceOnUse">
            <stop stop-color="#FDDD6F" />
            <stop offset="1" stop-color="#D8872A" />
        </linearGradient>
        <clipPath id="clip0_9813_33101">
            <rect width="48" height="48" rx="24" fill="white" />
        </clipPath>
    </defs>
</svg>