<svg width="48" height="48" viewBox="0 0 48 48" fill="none" xmlns="http://www.w3.org/2000/svg">
    <g clip-path="url(#clip0_8537_34083)">
        <path
            d="M37.1267 40.0832L41.4335 42.2386C42.7039 42.8745 44.2441 42.311 44.7344 40.9582C45.9943 37.4821 46.9794 33.3652 47.3187 29.1298C47.7158 24.1732 47.225 19.1053 45.3035 14.7198L45.3008 14.721C45.2154 14.532 45.1285 14.3436 45.0403 14.1557C44.3792 12.8567 43.1409 11.2636 41.3171 10.2095C39.2616 9.02129 36.406 8.48354 32.6588 9.92114C31.8639 10.2262 31.0545 10.6202 30.2429 11.0904C31.2624 12.8667 31.9926 15.2624 32.0507 18.4214C32.1031 21.2764 31.6508 23.9802 30.958 26.3889L37.526 28.8866C39.0776 29.4766 40.0956 31.0416 39.7875 32.6995C39.4152 34.704 38.7897 36.6551 37.9305 38.5091C37.6874 39.0337 37.42 39.5603 37.1267 40.0832Z"
            fill="#E29200" />
        <path
            d="M14.8621 38.1897C15.4229 38.0168 16.0151 37.7667 16.6367 37.4189C19.269 35.946 21.2597 33.5407 22.6749 31.1812C23.5924 29.6516 24.2824 28.1172 24.7567 26.8209C24.9705 26.2368 25.6043 25.9194 26.1774 26.1374L36.8053 30.1787C37.875 30.5855 38.5491 31.6827 38.3094 32.8201C37.992 34.3263 37.4568 36.0986 36.6307 37.8812C35.2789 40.798 33.1722 43.6918 30.0201 45.5209C27.4156 47.0322 24.7517 47.8119 22.2617 47.9291C19.5486 47.4589 17.7686 46.2527 16.6347 44.642C15.4341 42.9367 14.9003 40.6955 14.8621 38.1897Z"
            fill="#E29200" />
        <path
            d="M21.4489 0.214581C28.1525 -0.588863 33.1334 0.930122 36.9142 3.66432C38.9231 5.11711 40.6101 6.92543 42.0409 8.94178L42.0255 8.93286C39.5851 7.52228 36.2837 6.96323 32.1532 8.54787C26.6083 10.6752 20.6306 16.6698 17.4481 22.783C15.384 26.7481 13.3483 32.8282 13.4253 38.1946C13.4639 40.8844 14.0345 43.4626 15.4682 45.4993C15.9673 46.2083 16.5643 46.842 17.266 47.3871C12.1598 46.0861 5.73479 42.4636 2.27223 34.1138C-0.749452 26.8271 0.687283 18.7611 4.60227 12.2782C8.52323 5.78536 14.8552 1.00488 21.4489 0.214581Z"
            fill="#E29200" />
    </g>
    <defs>
        <clipPath id="clip0_8537_34083">
            <rect width="48" height="48" fill="white" />
        </clipPath>
    </defs>
</svg>