<svg width="48" height="48" viewBox="0 0 48 48" fill="none" xmlns="http://www.w3.org/2000/svg">
    <g clip-path="url(#clip0_14_2)">
        <path
            d="M45.984 29.088L45.9264 29.1552C45.8976 29.184 45.8688 29.2128 45.84 29.2416L29.2128 45.8304C26.3136 48.72 21.6192 48.72 18.7296 45.8304L14.1408 41.2512C13.8144 40.9248 13.8144 40.3968 14.1408 40.08C14.2368 39.984 14.352 39.9168 14.4864 39.8688C19.4112 38.352 23.4048 36.5952 26.4768 34.608C33.792 29.8752 40.3008 28.032 45.984 29.088ZM42.4992 15.4272C48.6336 17.3568 47.9232 21.8784 48 23.6544C41.28 20.1312 33.1968 21.4176 23.7408 27.5328C16.6944 32.0832 10.8 33.9648 6.0384 33.168C1.2864 32.3712 0.2112 26.5536 0 25.0176C5.2224 27.6576 12.2304 26.1408 21.0144 20.4672C29.2032 15.1776 36.3552 13.4976 42.4992 15.4272ZM29.2128 2.16958L33.5232 6.47998C33.8496 6.80638 33.8496 7.33438 33.5232 7.65118C33.408 7.76638 33.264 7.84318 33.1008 7.88158C26.8608 9.13918 21.8592 10.9824 18.1152 13.4016C11.7024 17.5392 6.24 19.4688 1.7184 19.1712L18.7296 2.16958C21.6192 -0.72002 26.3136 -0.72002 29.2128 2.16958Z"
            fill="url(#paint0_linear_14_2)" />
    </g>
    <defs>
        <linearGradient id="paint0_linear_14_2" x1="24.1414" y1="0.000844374" x2="23.6708"
            y2="80.942" gradientUnits="userSpaceOnUse">
            <stop stop-color="#3068EF" />
            <stop offset="1" stop-color="#1322AC" />
        </linearGradient>
        <clipPath id="clip0_14_2">
            <rect width="48" height="48" fill="white" />
        </clipPath>
    </defs>
</svg>