<svg width="48" height="48" viewBox="0 0 48 48" fill="none" xmlns="http://www.w3.org/2000/svg">
    <g clip-path="url(#clip0_9828_32429)">
        <path
            d="M24 48C37.2548 48 48 37.2548 48 24C48 10.7452 37.2548 0 24 0C10.7452 0 0 10.7452 0 24C0 37.2548 10.7452 48 24 48Z"
            fill="black" />
        <path d="M20.0212 21.9893H16.0024V26.008H20.0212V21.9893Z" fill="white" />
        <path d="M16.0026 17.9705H11.9839V21.9892H16.0026V17.9705Z" fill="white" />
        <path d="M11.9831 21.9893H7.96436V26.008H11.9831V21.9893Z" fill="white" />
        <path d="M16.0026 26.0078H11.9839V30.0266H16.0026V26.0078Z" fill="white" />
        <path
            d="M38.8471 18.836C38.5637 15.8804 36.0128 14.8883 32.7909 14.6049V12.7117H30.2962V14.4969C29.6407 14.4969 28.9704 14.5095 28.3038 14.522V12.7102H25.8106V14.6027C25.2705 14.613 21.9524 14.6101 21.9524 14.6101L21.945 16.8096L24.0269 16.8214V31.237H21.9457L21.9272 33.4054C22.5317 33.4054 25.2217 33.4172 25.8047 33.4209V35.2897H28.2979V33.4653C28.9815 33.4801 29.6444 33.486 30.291 33.4853V35.2905H32.7864V33.4298C36.982 33.1908 39.9198 32.1351 40.2846 28.1963C40.5805 25.0239 39.089 23.6093 36.7075 23.0338C38.1546 22.2939 39.0594 20.9985 38.8486 18.8352L38.8471 18.836ZM35.3514 27.7013C35.3514 30.8005 30.0461 30.4461 28.3534 30.4468V24.9529C30.0454 24.9529 35.3485 24.4698 35.3492 27.7013H35.3514ZM34.1936 19.9494C34.1936 22.7689 29.7665 22.4382 28.3571 22.4382V17.4547C29.7687 17.4555 34.1951 17.0086 34.1936 19.9494Z"
            fill="white" />
    </g>
    <defs>
        <clipPath id="clip0_9828_32429">
            <rect width="48" height="48" fill="white" />
        </clipPath>
    </defs>
</svg>