<svg width="48" height="48" viewBox="0 0 48 48" fill="none" xmlns="http://www.w3.org/2000/svg">
    <g clip-path="url(#clip0_14_402)">
        <path
            d="M18.8232 10.9226C18.2243 10.8483 18.1958 10.8235 18.481 10.7988C19.0229 10.7245 20.2778 10.8235 21.1619 10.9969C23.2154 11.418 25.0692 12.5077 27.0371 14.4149L27.5505 14.935L28.292 14.8359C31.4578 14.3901 34.7091 14.7368 37.4186 15.8266C38.1601 16.1238 39.3295 16.7183 39.4721 16.8669C39.5291 16.9164 39.6147 17.2384 39.6717 17.5604C39.8714 18.7245 39.7858 19.5913 39.358 20.2601C39.1298 20.6316 39.1298 20.7307 39.2724 21.0526C39.3865 21.3003 39.7287 21.4737 40.0425 21.4737C40.727 21.4737 41.44 20.5325 41.7822 19.2198L41.9248 18.6997L42.1815 18.9474C43.6361 20.3591 44.7769 22.3158 44.948 23.7028L45.005 24.0743L44.7484 23.7523C44.3205 23.1827 43.9213 22.8111 43.3794 22.4892C42.4097 21.9195 41.3829 21.7461 38.6735 21.6223C36.2207 21.4985 34.8232 21.3251 33.4542 20.9288C31.1156 20.2601 29.9177 19.3932 27.1512 16.1981C25.9248 14.7864 25.1548 14.0186 24.3847 13.3746C22.702 11.9629 21.0193 11.2198 18.8232 10.9226Z"
            fill="#FF007A" />
        <path
            d="M40.0717 14.0681C40.1287 13.1269 40.2713 12.5077 40.585 11.938C40.6991 11.7151 40.8132 11.517 40.8417 11.517C40.8702 11.517 40.8132 11.6903 40.7276 11.8885C40.4995 12.4334 40.4709 13.2012 40.6135 14.0681C40.8132 15.1826 40.8987 15.3312 42.2677 16.5448C42.8952 17.1145 43.6367 17.8328 43.9219 18.13L44.4068 18.6749L43.9219 18.2786C43.323 17.7832 41.954 16.842 41.6403 16.7182C41.4406 16.6191 41.4121 16.6191 41.2695 16.743C41.1554 16.842 41.1269 16.9907 41.1269 17.7089C41.0984 18.8235 40.9273 19.517 40.4995 20.2352C40.2713 20.6068 40.2428 20.5324 40.4424 20.1114C40.585 19.7894 40.6135 19.6408 40.6135 18.5758C40.6135 16.421 40.3283 15.9009 38.5886 15.034C38.1608 14.8111 37.4192 14.4891 36.9914 14.3157C36.5351 14.1424 36.1929 13.9937 36.2214 13.9937C36.2784 13.9442 37.9611 14.3653 38.6171 14.6129C39.6153 14.9597 39.7864 14.9845 39.9005 14.9597C39.9861 14.8854 40.0431 14.6872 40.0717 14.0681Z"
            fill="#FF007A" />
        <path
            d="M19.9924 17.7585C18.7945 16.322 18.0245 14.0929 18.1956 12.4335L18.2527 11.9133L18.5379 11.9629C19.0512 12.0372 19.9354 12.3344 20.3632 12.5573C21.504 13.1517 22.0174 13.9691 22.5022 16C22.6448 16.5944 22.8445 17.2879 22.93 17.5109C23.0726 17.8824 23.6145 18.7492 24.0708 19.2941C24.3846 19.6904 24.1849 19.8886 23.4719 19.839C22.3881 19.74 20.9336 18.8731 19.9924 17.7585Z"
            fill="#FF007A" />
        <path
            d="M38.6171 28.5325C32.9701 26.5511 30.9736 24.8421 30.9736 21.9443C30.9736 21.5233 31.0022 21.1765 31.0022 21.1765C31.0307 21.1765 31.2303 21.3251 31.487 21.4985C32.6278 22.2911 33.9112 22.6378 37.4763 23.0836C39.5583 23.3561 40.7562 23.5542 41.8399 23.8762C45.2909 24.8669 47.43 26.8979 47.9433 29.6471C48.0859 30.4397 48.0004 31.9505 47.7722 32.7431C47.5726 33.3623 47.0022 34.5016 46.8596 34.5264C46.831 34.5264 46.774 34.4025 46.774 34.2044C46.7169 33.1641 46.118 32.1734 45.1198 31.4056C43.9219 30.514 42.3818 29.8452 38.6171 28.5325Z"
            fill="#FF007A" />
        <path
            d="M34.6238 29.3499C34.5668 28.9784 34.4242 28.5078 34.3386 28.3096L34.196 27.9381L34.4527 28.2106C34.8235 28.5821 35.1087 29.0279 35.3654 29.6471C35.565 30.1177 35.565 30.2663 35.565 31.0341C35.565 31.7771 35.5365 31.9505 35.3654 32.3715C35.0802 33.0403 34.7379 33.5109 34.1675 34.031C33.1408 34.9474 31.8003 35.4428 29.8894 35.6657C29.5472 35.6904 28.5775 35.7647 27.7219 35.8143C25.5828 35.9133 24.1568 36.1115 22.8734 36.5078C22.7023 36.5573 22.5311 36.6068 22.5026 36.5821C22.4456 36.5325 23.3297 36.0867 24.0427 35.7895C25.0409 35.3684 26.0677 35.1455 28.3208 34.7988C29.4331 34.6502 30.5739 34.452 30.8591 34.353C33.6827 33.5852 35.0802 31.678 34.6238 29.3499Z"
            fill="#FF007A" />
        <path
            d="M37.2191 33.3375C36.4776 31.9257 36.3064 30.5882 36.7057 29.3251C36.7628 29.2012 36.8198 29.0774 36.8768 29.0774C36.9339 29.0774 37.105 29.1517 37.2761 29.2508C37.6184 29.4489 38.3314 29.7957 40.1567 30.6625C42.4669 31.7523 43.7788 32.5944 44.6915 33.5604C45.49 34.4025 45.9749 35.3684 46.203 36.5573C46.3456 37.226 46.2601 38.8359 46.0604 39.5046C45.433 41.6099 44.007 43.2941 41.925 44.2601C41.6112 44.4087 41.3546 44.5077 41.326 44.5077C41.2975 44.5077 41.4116 44.2601 41.5827 43.9628C42.2672 42.6997 42.3528 41.4861 41.8394 40.1238C41.5257 39.2817 40.8697 38.2662 39.5578 36.5573C37.9891 34.5758 37.6184 34.0557 37.2191 33.3375Z"
            fill="#FF007A" />
        <path
            d="M15.971 40.9165C18.0815 39.3809 20.6769 38.2911 23.0726 37.9443C24.0993 37.7957 25.8106 37.8452 26.7517 38.0682C28.2633 38.4149 29.6323 39.1579 30.3453 40.0744C31.0298 40.966 31.3435 41.7338 31.6573 43.4428C31.7714 44.1115 31.914 44.805 31.9425 44.9536C32.1706 45.8452 32.627 46.5387 33.1974 46.9103C34.0815 47.4799 35.6216 47.5047 37.1332 47.0093C37.3899 46.935 37.6181 46.8607 37.6181 46.8855C37.6751 46.935 36.905 47.3809 36.3917 47.6038C35.6787 47.9257 35.1083 48.0248 34.3382 48.0248C32.9692 48.0248 31.7999 47.4056 30.8587 46.1672C30.6591 45.9196 30.2598 45.2013 29.9175 44.5326C28.9193 42.5264 28.4059 41.9319 27.2366 41.2632C26.2099 40.6935 24.8979 40.5697 23.8997 40.9908C22.5878 41.5357 22.2455 42.997 23.1582 43.8886C23.5289 44.2601 24.2134 44.5573 24.7838 44.6316C25.8391 44.7555 26.7517 44.0372 26.7517 43.1208C26.7517 42.5264 26.4951 42.1796 25.8106 41.9072C24.8979 41.5604 23.8997 41.9567 23.9282 42.7245C23.9282 43.0465 24.0993 43.2446 24.4701 43.3932C24.6983 43.4923 24.6983 43.4923 24.5271 43.4675C23.7001 43.3189 23.5004 42.4273 24.1564 41.8576C24.955 41.1641 26.6377 41.4613 27.2081 42.4273C27.4362 42.8236 27.4648 43.6161 27.2651 44.1115C26.7803 45.2013 25.4113 45.7709 24.0138 45.449C23.0726 45.2261 22.6733 45.0031 21.5325 43.9877C19.5361 42.2044 18.766 41.8576 15.914 41.4861L15.3721 41.4118L15.971 40.9165Z"
            fill="#FF007A" />
        <path fill-rule="evenodd" clip-rule="evenodd"
            d="M0.969989 1.06502C7.61526 8.0743 17.8541 18.9721 18.3675 19.5666C18.7953 20.0619 18.6242 20.5325 17.9112 20.8793C17.5119 21.0774 16.6848 21.2755 16.2855 21.2755C15.8292 21.2755 15.2873 21.0774 14.9165 20.7554C14.6598 20.5325 13.5475 19.1207 11.0377 15.7276C9.12685 13.1269 7.50118 10.9721 7.47266 10.9474C7.35858 10.8978 7.35858 10.8978 10.8381 16.2972C13.0342 19.6904 13.7472 20.904 13.7472 21.0526C13.7472 21.3746 13.6331 21.548 13.1768 21.9938C12.4067 22.7368 12.0645 23.5789 11.8078 25.3375C11.5226 27.2941 10.7525 28.6811 8.55644 31.0341C7.27302 32.4211 7.07338 32.6687 6.75965 33.2384C6.36036 33.9319 6.24628 34.3282 6.18924 35.2198C6.1322 36.161 6.24628 36.7554 6.56001 37.6471C6.84521 38.4396 7.15894 38.9597 7.92899 39.9752C8.58496 40.8669 8.98425 41.5356 8.98425 41.7833C8.98425 41.9814 9.04129 41.9814 10.068 41.7833C12.5208 41.2879 14.5457 40.4458 15.658 39.4056C16.3425 38.7616 16.5137 38.4149 16.5137 37.5232C16.5137 36.9536 16.4851 36.8297 16.314 36.483C16.0288 35.9381 15.4869 35.4923 14.3176 34.7988C12.7775 33.8824 12.1215 33.1393 11.9504 32.1486C11.8078 31.3065 11.9789 30.7368 12.8345 29.1765C13.7187 27.5666 13.9468 26.8978 14.0894 25.2632C14.175 24.2229 14.3176 23.8019 14.6598 23.4799C15.0306 23.1331 15.3443 23.0093 16.2285 22.9102C17.683 22.7368 18.6242 22.4149 19.3657 21.7957C20.0217 21.2755 20.3069 20.7554 20.3354 19.9876L20.3639 19.418L19.9932 19.0712C18.6527 17.7337 0.0858535 0 0.000292043 0C-0.0282285 0 0.4281 0.470588 0.969989 1.06502ZM9.72578 36.2848C10.0395 35.8142 9.86838 35.2198 9.35502 34.9226C8.87017 34.6502 8.12863 34.774 8.12863 35.1455C8.12863 35.2446 8.18567 35.3437 8.3568 35.3932C8.61348 35.517 8.642 35.6409 8.44236 35.9133C8.24272 36.1858 8.24272 36.4334 8.4994 36.6068C8.89869 36.8793 9.44058 36.7306 9.72578 36.2848Z"
            fill="#FF007A" />
        <path fill-rule="evenodd" clip-rule="evenodd"
            d="M21.276 23.257C20.5915 23.4303 19.9355 24.0743 19.7359 24.7183C19.6218 25.1145 19.6788 25.8328 19.8785 26.0557C20.1922 26.4025 20.4774 26.5015 21.276 26.5015C22.8446 26.5015 24.1851 25.9071 24.3277 25.1888C24.4703 24.5944 23.8714 23.7771 23.0443 23.4056C22.6165 23.2074 21.7323 23.1331 21.276 23.257ZM23.1013 24.4953C23.3295 24.1981 23.2439 23.8761 22.8161 23.6532C22.046 23.2322 20.8767 23.5789 20.8767 24.2229C20.8767 24.5449 21.4756 24.8916 22.046 24.8916C22.4168 24.8916 22.9302 24.6935 23.1013 24.4953Z"
            fill="#FF007A" />
    </g>
    <defs>
        <clipPath id="clip0_14_402">
            <rect width="48" height="48" fill="white" />
        </clipPath>
    </defs>
</svg>