<svg width="48" height="48" viewBox="0 0 48 48" fill="none" xmlns="http://www.w3.org/2000/svg">
    <rect width="48" height="48" rx="24" fill="#1F7A55" />
    <path
        d="M40.1778 8.61414C36.6789 8.61414 33.2739 8.61835 29.8676 8.61133C29.022 8.60993 28.367 8.92829 27.8594 9.60989C26.356 11.6309 24.8373 13.6392 23.3241 15.6531C22.6187 16.5942 21.9133 17.5338 21.1981 18.4875C21.1224 18.3922 21.0635 18.3206 21.0073 18.2463C19.6078 16.381 18.197 14.5242 16.8143 12.6476C16.3529 12.0221 15.7934 11.7234 15.0066 11.7318C12.7544 11.7585 10.5022 11.7416 8.25139 11.7416H7.82227C7.93586 11.8959 8.00738 11.9969 8.0817 12.0965C11.0028 15.9687 13.9226 19.8423 16.8521 23.7075C17.0219 23.9333 17.0303 24.0694 16.8563 24.3008C13.9366 28.1744 11.0267 32.0564 8.11536 35.9357C8.04945 36.0254 7.98775 36.118 7.88818 36.2597H8.3173C10.5681 36.2597 12.8203 36.2498 15.0711 36.2667C15.7863 36.2709 16.3206 36.0072 16.7442 35.4364C18.1564 33.536 19.5812 31.6469 21.0018 29.7536C21.0607 29.6764 21.128 29.6049 21.2023 29.5166C21.2795 29.6147 21.3383 29.6862 21.3945 29.7592C23.5414 32.623 25.6941 35.4841 27.8313 38.3535C28.3544 39.0547 29.0192 39.3914 29.8928 39.3886C33.1015 39.3773 36.3101 39.3844 39.5187 39.3844H40.1077C36.233 34.2219 32.403 29.1196 28.5662 24.0091C32.4339 18.8831 36.2877 13.7738 40.1778 8.61414ZM34.7521 36.5878C34.7857 36.6327 34.8208 36.6762 34.9035 36.7814C33.2445 36.7814 31.6598 36.7856 30.0751 36.7701C29.9587 36.7688 29.8157 36.6369 29.7329 36.5289C27.9295 34.1363 26.1316 31.7395 24.3338 29.3426C23.0549 27.6359 21.7759 25.9276 20.4969 24.2195C20.4422 24.1451 20.3903 24.0694 20.33 23.9824C21.2934 22.6991 22.2499 21.4215 23.2077 20.1452C25.3772 17.2562 27.5509 14.3685 29.7147 11.4738C29.8647 11.2732 30.0162 11.2017 30.263 11.2031C31.8001 11.2143 33.337 11.2087 34.9301 11.2087C34.8502 11.3307 34.8011 11.4163 34.7422 11.4948C31.6752 15.5619 28.6097 19.632 25.5342 23.6935C25.3589 23.9249 25.3463 24.0694 25.5287 24.312C28.6097 28.3988 31.6794 32.494 34.7521 36.5878Z"
        fill="white" />
</svg>