<svg width="48" height="48" viewBox="0 0 48 48" fill="none" xmlns="http://www.w3.org/2000/svg">
    <g clip-path="url(#clip0_9792_32705)">
        <rect width="48" height="48" rx="24" fill="white" />
        <path
            d="M39.1392 10.0737L37.8213 11.3917C40.9661 14.8308 42.7101 19.3223 42.7101 23.9826C42.7101 28.6428 40.9661 33.1343 37.8213 36.5734L39.1392 37.8914C42.6367 34.0978 44.5784 29.127 44.5784 23.9672C44.5784 18.8074 42.6367 13.8366 39.1392 10.043V10.0737Z"
            fill="#5A5564" />
        <path
            d="M11.422 10.1878C14.8611 7.04291 19.3526 5.29892 24.0128 5.29892C28.6731 5.29892 33.1646 7.04291 36.6037 10.1878L37.9217 8.86982C34.1281 5.3724 29.1572 3.43066 23.9975 3.43066C18.8377 3.43066 13.8668 5.3724 10.0732 8.86982L11.422 10.1878Z"
            fill="#5A5564" />
        <path
            d="M10.1878 36.5864C7.04664 33.148 5.30494 28.6593 5.30494 24.0021C5.30494 19.345 7.04664 14.8562 10.1878 11.4178L8.86982 10.0999C5.3724 13.8935 3.43066 18.8643 3.43066 24.0241C3.43066 29.1839 5.3724 34.1547 8.86982 37.9483L10.1878 36.5864Z"
            fill="#5A5564" />
        <path
            d="M36.5866 37.8032C33.1475 40.9481 28.656 42.6921 23.9958 42.6921C19.3355 42.6921 14.844 40.9481 11.4049 37.8032L10.0869 39.1212C13.8805 42.6186 18.8513 44.5603 24.0111 44.5603C29.1709 44.5603 34.1417 42.6186 37.9354 39.1212L36.5866 37.8032Z"
            fill="#5A5564" />
        <path
            d="M32.3208 19.6024C32.0572 16.8522 29.6849 15.9297 26.6843 15.6485V11.8616H24.3647V15.5782C23.7541 15.5782 23.1302 15.5782 22.5108 15.5782V11.8616H20.2088V15.6749H15.5037V18.157C15.5037 18.157 17.217 18.1263 17.1906 18.157C17.4996 18.123 17.8096 18.2103 18.0555 18.4004C18.3013 18.5905 18.4638 18.8687 18.5086 19.1762V29.6145C18.502 29.7229 18.4737 29.829 18.4254 29.9263C18.3771 30.0236 18.3098 30.1103 18.2274 30.1812C18.1466 30.2534 18.052 30.3085 17.9493 30.3433C17.8467 30.378 17.738 30.3916 17.63 30.3833C17.6607 30.4096 15.943 30.3833 15.943 30.3833L15.5037 33.1554H20.1648V37.0302H22.4844V33.2125H24.3384V37.0126H26.6624V33.1817C30.5811 32.9445 33.3137 31.978 33.6563 28.3097C33.9331 25.3575 32.5448 24.0395 30.3263 23.5079C31.675 22.8445 32.5097 21.6145 32.3208 19.6024ZM29.0698 27.8528C29.0698 30.7347 24.1319 30.4052 22.5591 30.4052V25.2916C24.1319 25.2959 29.0698 24.8434 29.0698 27.8528ZM27.9935 20.648C27.9935 23.2839 23.8727 22.9632 22.5635 22.9632V18.3152C23.8727 18.3152 27.9935 17.9022 27.9935 20.648Z"
            fill="#F09242" />
        <path
            d="M23.9956 48C19.2492 47.9991 14.6097 46.5909 10.6636 43.9535C6.71748 41.316 3.64202 37.5676 1.82606 33.1824C0.0101028 28.7971 -0.464807 23.9719 0.461378 19.3168C1.38756 14.6616 3.67325 10.3856 7.02945 7.02945C10.3856 3.67325 14.6616 1.38756 19.3168 0.461378C23.9719 -0.464807 28.7971 0.0101028 33.1824 1.82606C37.5676 3.64202 41.316 6.71748 43.9535 10.6636C46.5909 14.6097 47.9991 19.2492 48 23.9956C48.0006 27.1481 47.3801 30.2698 46.174 33.1824C44.9678 36.095 43.1997 38.7414 40.9706 40.9706C38.7414 43.1997 36.095 44.9678 33.1824 46.174C30.2698 47.3801 27.1481 48.0006 23.9956 48ZM23.9956 1.87151C19.6227 1.87498 15.3491 3.17476 11.7147 5.60654C8.08037 8.03833 5.24852 11.493 3.5771 15.5338C1.90568 19.5746 1.46972 24.0203 2.32431 28.3088C3.17891 32.5974 5.2857 36.5363 8.3784 39.6278C11.4711 42.7193 15.4109 44.8245 19.6998 45.6774C23.9887 46.5303 28.4341 46.0926 32.4743 44.4196C36.5145 42.7465 39.968 39.9133 42.3984 36.278C44.8287 32.6427 46.1268 28.3685 46.1285 23.9956C46.1297 21.0892 45.5579 18.211 44.4459 15.5257C43.3339 12.8404 41.7036 10.4006 39.648 8.34583C37.5924 6.29107 35.152 4.66165 32.4662 3.55073C29.7805 2.43982 26.9021 1.8692 23.9956 1.87151Z"
            fill="#282138" />
    </g>
    <defs>
        <clipPath id="clip0_9792_32705">
            <rect width="48" height="48" rx="24" fill="white" />
        </clipPath>
    </defs>
</svg>