<svg viewBox="0 0 24 24" fill="none" xmlns="http://www.w3.org/2000/svg">
  <g clip-path="url(#clip0_4195_59989)">
    <path
      d="M20 15.9799C20.0007 15.1803 19.6378 14.4131 18.9909 13.8467C18.344 13.2803 17.4661 12.9611 16.5497 12.959L12.7242 12.959C12.7001 12.6479 12.685 12.3298 12.685 12C12.685 11.6702 12.6698 11.3537 12.6484 11.041L16.5497 11.041C17.4581 11.0283 18.3244 10.7045 18.9616 10.1394C19.5989 9.57432 19.956 8.81329 19.956 8.0205C19.956 7.22771 19.5989 6.46668 18.9616 5.90162C18.3244 5.33655 17.4581 5.01272 16.5497 5L7.40661 5C6.4982 5.01272 5.63193 5.33654 4.99468 5.90161C4.35743 6.46668 4.00028 7.22771 4.00028 8.0205C4.00028 8.81329 4.35743 9.57431 4.99468 10.1394C5.63193 10.7045 6.4982 11.0283 7.40661 11.041L11 11.125C11.25 11.125 11.2713 11.6702 11.2713 12C11.2713 12.3298 11.2865 12.6463 11.3079 12.959L7.40661 12.959C6.4982 12.9717 5.63193 13.2955 4.99468 13.8606C4.35743 14.4257 4.00028 15.1867 4.00028 15.9795C4.00028 16.7723 4.35743 17.5333 4.99468 18.0984C5.63193 18.6635 6.4982 18.9873 7.40661 19L16.5497 19C17.4659 18.9979 18.3438 18.6788 18.9906 18.1126C19.6375 17.5464 20.0005 16.7794 20 15.9799ZM18.5864 8.02011C18.5866 8.49203 18.3723 8.94475 17.9905 9.27895C17.6087 9.61316 17.0905 9.80154 16.5497 9.80278L12.4987 9.80278C12.3519 8.91905 12.0723 8.05606 11.6671 7.23611C11.4884 6.88085 11.2597 6.54642 10.9861 6.24055L16.5497 6.24056C17.0899 6.24179 17.6075 6.42975 17.9892 6.76328C18.371 7.09681 18.5857 7.54874 18.5864 8.02011ZM7.40661 9.80278C6.8648 9.80278 6.34518 9.61496 5.96206 9.28065C5.57894 8.94633 5.36371 8.4929 5.36371 8.02011C5.36371 7.54732 5.57895 7.09389 5.96206 6.75958C6.34518 6.42526 6.8648 6.23744 7.40661 6.23744L8.32377 6.23744C9.13397 6.23744 9.9014 6.79744 10.3791 7.73622C10.7062 8.3977 10.9388 9.09176 11.0717 9.80278L7.40661 9.80278ZM5.36995 15.9799C5.36971 15.508 5.58401 15.0553 5.96583 14.721C6.34765 14.3868 6.86581 14.1985 7.40661 14.1972L11.4576 14.1972C11.6044 15.0809 11.884 15.9439 12.2892 16.7639C12.4679 17.1192 12.6967 17.4536 12.9702 17.7594L7.40661 17.7594C6.86642 17.7582 6.34881 17.5703 5.96709 17.2367C5.58537 16.9032 5.37066 16.4513 5.36995 15.9799ZM13.5825 16.2638C13.2555 15.6023 13.0229 14.9082 12.89 14.1972L16.5497 14.1972C17.0915 14.1972 17.6111 14.385 17.9943 14.7194C18.3774 15.0537 18.5926 15.5071 18.5926 15.9799C18.5926 16.4527 18.3774 16.9061 17.9943 17.2404C17.6111 17.5747 17.0915 17.7626 16.5497 17.7626L15.6326 17.7626C14.8259 17.7626 14.0585 17.2026 13.5825 16.2638Z"
      fill="url(#paint0_linear_4195_59989)" />
    <path opacity="0.8"
      d="M20 8.02011C20.0007 8.81974 19.6378 9.58694 18.9909 10.1533C18.344 10.7197 17.466 11.0389 16.5497 11.041L12.7241 11.041C12.7 11.3521 12.6848 11.6702 12.6848 12C12.6848 12.3298 12.6697 12.6463 12.6483 12.959L16.5497 12.959C17.4581 12.9717 18.3244 13.2955 18.9616 13.8606C19.5989 14.4257 19.956 15.1867 19.956 15.9795C19.956 16.7723 19.5989 17.5333 18.9616 18.0984C18.3244 18.6635 17.4581 18.9873 16.5497 19L7.40638 19C6.49796 18.9873 5.63167 18.6635 4.99441 18.0984C4.35715 17.5333 4 16.7723 4 15.9795C4 15.1867 4.35715 14.4257 4.99441 13.8606C5.63167 13.2955 6.49796 12.9717 7.40638 12.959L10.9998 12.875C11.2498 12.875 11.2712 12.3298 11.2712 12C11.2712 11.6702 11.2863 11.3537 11.3077 11.041L7.40638 11.041C6.49796 11.0283 5.63167 10.7045 4.99441 10.1394C4.35715 9.57432 4 8.8133 4 8.0205C4 7.22771 4.35715 6.46669 4.99441 5.90162C5.63167 5.33655 6.49796 5.01272 7.40638 5L16.5497 5C17.4659 5.00206 18.3437 5.32121 18.9906 5.88741C19.6375 6.45361 20.0005 7.22062 20 8.02011ZM18.5863 15.9799C18.5866 15.508 18.3723 15.0553 17.9905 14.721C17.6086 14.3868 17.0905 14.1985 16.5497 14.1972L12.4986 14.1972C12.3518 15.0809 12.0722 15.9439 11.6669 16.7639C11.4883 17.1192 11.2595 17.4536 10.986 17.7594L16.5497 17.7594C17.0898 17.7582 17.6075 17.5703 17.9892 17.2367C18.3709 16.9032 18.5856 16.4513 18.5863 15.9799ZM7.40638 14.1972C6.86456 14.1972 6.34494 14.385 5.96181 14.7194C5.57869 15.0537 5.36345 15.5071 5.36345 15.9799C5.36345 16.4527 5.57869 16.9061 5.96181 17.2404C6.34494 17.5747 6.86456 17.7626 7.40638 17.7626L8.32356 17.7626C9.13378 17.7626 9.90122 17.2026 10.379 16.2638C10.706 15.6023 10.9386 14.9082 11.0715 14.1972L7.40638 14.1972ZM5.36969 8.02011C5.36945 8.49203 5.58376 8.94475 5.96558 9.27895C6.34741 9.61316 6.86557 9.80154 7.40638 9.80278L11.4575 9.80278C11.6042 8.91905 11.8838 8.05606 12.2891 7.23611C12.4678 6.88085 12.6965 6.54642 12.9701 6.24056L7.40638 6.24056C6.86619 6.24179 6.34857 6.42975 5.96684 6.76328C5.58512 7.09681 5.3704 7.54874 5.36969 8.02011ZM13.5824 7.73622C13.2554 8.3977 13.0228 9.09176 12.8899 9.80278L16.5497 9.80278C17.0915 9.80278 17.6111 9.61496 17.9942 9.28065C18.3774 8.94633 18.5926 8.4929 18.5926 8.02011C18.5926 7.54732 18.3774 7.09389 17.9942 6.75958C17.6111 6.42526 17.0915 6.23745 16.5497 6.23745L15.6325 6.23745C14.8258 6.23745 14.0584 6.79744 13.5824 7.73622Z"
      fill="url(#paint1_linear_4195_59989)" />
  </g>
  <defs>
    <linearGradient id="paint0_linear_4195_59989" x1="5.19231" y1="5.88667" x2="17.2645"
      y2="19.6835" gradientUnits="userSpaceOnUse">
      <stop stop-color="#8E59FF" />
      <stop offset="1" stop-color="#6888F9" />
    </linearGradient>
    <linearGradient id="paint1_linear_4195_59989" x1="5.19205" y1="18.1133" x2="17.2642"
      y2="4.31631" gradientUnits="userSpaceOnUse">
      <stop stop-color="#8E59FF" />
      <stop offset="1" stop-color="#6888F9" />
    </linearGradient>
    <clipPath id="clip0_4195_59989">
      <rect width="14" height="16" fill="white" transform="translate(20 5) rotate(90)" />
    </clipPath>
  </defs>
</svg>