<svg viewBox="0 0 40 40" fill="none" xmlns="http://www.w3.org/2000/svg">
  <path fill-rule="evenodd" clip-rule="evenodd" d="M19.9999 15.9988C17.7912 15.9988 15.9991 17.7891 15.9991 19.9996C15.9991 22.2084 17.7912 23.9986 19.9999 23.9986C22.2086 23.9986 24.0007 22.2084 24.0007 19.9996C24.0007 17.7891 22.2086 15.9988 19.9999 15.9988" fill="#DD4800" />
  <mask id="mask0_225_2193" style="mask-type:alpha" maskUnits="userSpaceOnUse" x="23" y="15" width="17" height="18">
    <path fill-rule="evenodd" clip-rule="evenodd" d="M23.9998 15.9988H40V32.0003H23.9998V15.9988Z" fill="white" />
  </mask>
  <g mask="url(#mask0_225_2193)">
    <path fill-rule="evenodd" clip-rule="evenodd" d="M36.0005 15.9988C33.7917 15.9988 31.9996 17.7891 31.9996 19.9996C31.9996 22.2084 30.2094 23.9986 28.0006 23.9986H26.8362C25.2752 23.9986 23.9998 25.2777 23.9998 26.8351V29.1639C23.9998 30.7249 25.2752 32.0003 26.8362 32.0003H29.165C30.7242 32.0003 31.9996 30.7249 31.9996 29.1639V28.0013C31.9996 25.7907 33.7917 23.9986 36.0005 23.9986C38.2092 23.9986 40.0013 22.2084 40.0013 19.9996C40.0013 17.7891 38.2092 15.9988 36.0005 15.9988" fill="#9F90EA" />
  </g>
  <path fill-rule="evenodd" clip-rule="evenodd" d="M15.9996 20C15.9996 22.2087 14.2094 23.999 12.0006 23.999C14.2094 23.999 15.9996 25.7911 15.9996 27.9999C15.9996 25.7911 17.7899 23.999 20.0005 23.999C17.7899 23.999 15.9996 22.2087 15.9996 20" fill="#EAB612" />
  <path fill-rule="evenodd" clip-rule="evenodd" d="M10.8355 15.9988H11.9999C14.2086 15.9988 15.9989 17.7891 15.9989 19.9997C15.9989 17.7891 17.791 15.9988 19.9997 15.9988C17.791 15.9988 15.9989 14.2085 15.9989 11.9998V12.0016V10.8354C15.9989 9.27619 14.7235 8.00079 13.1643 8.00079H10.8355C9.27629 8.00079 7.99908 9.27619 7.99908 10.8354V13.1624C7.99908 14.7234 9.27629 15.9988 10.8355 15.9988" fill="#DD4800" />
  <path fill-rule="evenodd" clip-rule="evenodd" d="M5.1634 15.9988H2.8346C1.27539 15.9988 0 17.276 0 18.837V21.164C0 22.7232 1.27539 23.9986 2.8346 23.9986H5.1634C6.72261 23.9986 7.99982 22.7232 7.99982 21.164V18.837C7.99982 17.276 6.72261 15.9988 5.1634 15.9988" fill="#4E8CDF" />
  <path fill-rule="evenodd" clip-rule="evenodd" d="M21.1638 32.0002H19.9994C17.7906 32.0002 16.0004 30.2099 16.0004 28.0011C16.0004 25.7906 14.2083 24.0003 11.9995 24.0003C9.79082 24.0003 8.00055 25.7906 8.00055 28.0011C8.00055 30.2099 9.79082 32.0002 11.9995 32.0002C14.2083 32.0002 16.0004 33.7904 16.0004 35.9992V37.1654C16.0004 38.7228 17.2758 40 18.835 40H21.1638C22.723 40 24.0002 38.7228 24.0002 37.1654V34.8366C24.0002 33.2756 22.723 32.0002 21.1638 32.0002" fill="#EAB612" />
  <path fill-rule="evenodd" clip-rule="evenodd" d="M18.8353 7.99985H19.9997C22.2084 7.99985 23.9987 9.78831 24.0005 11.9971V11.9989C24.0005 14.2076 25.7908 15.9979 28.0014 15.9979C30.2083 15.9979 32.0004 14.2076 32.0004 11.9989C32.0004 9.79013 30.2083 7.99985 28.0014 7.99985C25.7908 7.99985 24.0005 6.20958 24.0005 3.99902V4.00266V2.83461C24.0005 1.27539 22.7233 0 21.1641 0H18.8353C17.2761 0 15.9989 1.27539 15.9989 2.83461V5.16161C15.9989 6.72264 17.2761 7.99985 18.8353 7.99985" fill="#038311" />
</svg>
  