<svg viewBox="0 0 180 180" fill="none" xmlns="http://www.w3.org/2000/svg">
  <mask id="mask0_4196_60098" style="mask-type:alpha" maskUnits="userSpaceOnUse" x="0" y="0"
    width="180" height="180">
    <circle cx="90" cy="90" r="90" fill="#D9D9D9" />
  </mask>
  <g mask="url(#mask0_4196_60098)">
    <circle cx="90" cy="90" r="89.5" fill="#ECF4FF" stroke="#ECF4FF" />
    <mask id="mask1_4196_60098" style="mask-type:alpha" maskUnits="userSpaceOnUse" x="18" y="72"
      width="90" height="60">
      <path d="M108 131.419L18.0001 131.419L18.0001 72L108 72L108 131.419Z" fill="white" />
    </mask>
    <g mask="url(#mask1_4196_60098)">
      <path fill-rule="evenodd" clip-rule="evenodd"
        d="M17.9927 120.893L17.9927 112.211C17.9927 106.446 22.7951 101.689 28.6248 101.689L33.0226 101.689C41.2934 101.689 48.0079 95.0384 48.0079 86.8461C48.008 78.6538 54.7225 71.9987 62.9933 71.9987C71.2642 71.9987 77.9787 78.6538 77.9787 86.8461C77.9787 95.0384 84.6932 101.689 93.0086 101.689L97.3708 101.689C103.192 101.689 107.5 106.735 107.5 112.5L106.5 122C103.5 128 101.871 127.5 97.3708 131L90.5001 131.5C84.5001 130.5 79.0001 127 77.9787 120.893L77.9787 116.532C77.9787 108.336 71.2642 101.689 62.9933 101.689C54.7225 101.689 48.0079 108.336 48.0079 116.532L48.0079 120.893C48.0079 126.662 43.2055 131.419 37.3803 131.419L28.6248 131.419C22.7951 131.419 17.9927 126.662 17.9927 120.893Z"
        fill="#F4C328" />
    </g>
    <mask id="mask2_4196_60098" style="mask-type:alpha" maskUnits="userSpaceOnUse" x="77" y="-19"
      width="61" height="90">
      <path d="M138 71L77 71L77 -19L138 -19L138 71Z" fill="white" />
    </mask>
    <g mask="url(#mask2_4196_60098)">
      <path fill-rule="evenodd" clip-rule="evenodd"
        d="M76.9999 -4.01852C76.9999 -12.2852 83.8204 -19 92.2668 -19C100.668 -19 107.489 -12.2852 107.489 -4.01852C107.489 4.29711 114.309 11.0163 122.71 11.0163L127.141 11.0163C133.099 11.0163 137.932 15.77 137.932 21.6443L137.932 30.3557C137.932 36.23 133.099 40.9837 127.141 40.9837L122.71 40.9837C114.309 40.9837 107.489 47.7029 107.489 55.9696C107.489 64.2853 100.668 71 92.2669 71C83.8204 71 76.9999 64.2853 76.9999 55.9696C76.9999 47.7029 83.8204 40.9837 92.2669 40.9837C100.668 40.9837 107.489 34.2689 107.489 25.9978C107.489 17.7311 100.668 11.0163 92.2669 11.0163C83.8204 11.0163 76.9999 4.29711 76.9999 -4.01852Z"
        fill="#EAB700" />
    </g>
    <path fill-rule="evenodd" clip-rule="evenodd"
      d="M135.5 123.5C138.5 119 132.5 105 145.5 102L157.141 102C163.099 102 167.932 105.307 167.932 111.246L167.932 120.054C167.932 125.994 162.958 131.5 157 131.5L151.5 131.5C143.099 131.5 137.489 137.594 137.489 145.953C137.489 154.361 130.668 161.15 122.267 161.15C113.82 161.15 107 154.361 107 145.953C107 137.594 113.82 130.8 122.267 130.8C130.668 130.8 132.5 128 135.5 123.5Z"
      fill="#028300" />
    <path fill-rule="evenodd" clip-rule="evenodd"
      d="M69.1724 162.001C64.5316 158.948 50.0938 165.053 47 151.825L47 139.98C47 133.918 50.4099 129 56.5353 129L65.6189 129C71.7442 129 77.4225 134.062 77.4225 140.124L77.4225 145.72C77.4225 154.269 83.7074 159.977 92.3273 159.977C100.998 159.977 108 166.917 108 175.466C108 184.06 100.998 191 92.3273 191C83.7074 191 76.7011 184.06 76.7011 175.466C76.7011 166.917 73.8131 165.053 69.1724 162.001Z"
      fill="#9F8FED" />
    <path fill-rule="evenodd" clip-rule="evenodd"
      d="M46.5 32.5C49.5 28 43.5 14 56.5 11L68.1415 11C74.0992 11 78.9323 14.3065 78.9323 20.2461L78.9323 29.0543C78.9323 34.9939 73.9577 40.5 68 40.5L62.5 40.5C54.0987 40.5 48.4887 46.5943 48.4887 54.9528C48.4887 63.3608 41.6683 70.1502 33.267 70.1502C24.8205 70.1502 18.0001 63.3608 18.0001 54.9528C18.0001 46.5943 24.8205 39.8004 33.267 39.8004C41.6683 39.8004 43.5 37 46.5 32.5Z"
      fill="#9F8FED" />
    <path
      d="M137 51C137 45.4772 141.477 41 147 41H156C161.523 41 166 45.4772 166 51V60C166 65.5229 161.523 70 156 70H147C141.477 70 137 65.5229 137 60V51Z"
      fill="#4F8AE2" />
    <rect x="-11" y="73" width="30" height="30" rx="10" fill="#028300" />
    <mask id="mask3_4196_60098" style="mask-type:alpha" maskUnits="userSpaceOnUse" x="77" y="41"
      width="61" height="91">
      <path d="M138 132L77 132L77 41L138 41L138 132Z" fill="white" />
    </mask>
    <g mask="url(#mask3_4196_60098)">
      <path fill-rule="evenodd" clip-rule="evenodd"
        d="M76.9999 56.1479C76.9999 47.7894 83.8204 41 92.2668 41C100.668 41 107.489 47.7894 107.489 56.1479C107.489 64.556 114.309 71.3498 122.71 71.3498L127.141 71.3498C133.099 71.3498 137.932 76.1563 137.932 82.0959L137.932 90.9041C137.932 96.8437 133.099 101.65 127.141 101.65L122.71 101.65C114.309 101.65 107.489 108.444 107.489 116.803C107.489 125.211 100.668 132 92.2669 132C83.8204 132 76.9999 125.211 76.9999 116.803C76.9999 108.444 83.8204 101.65 92.2669 101.65C100.668 101.65 107.489 94.8608 107.489 86.4978C107.489 78.1392 100.668 71.3498 92.2669 71.3498C83.8204 71.3498 76.9999 64.556 76.9999 56.1479Z"
        fill="#DD4800" />
    </g>
    <circle cx="90" cy="90" r="87" stroke="#ECF4FF" stroke-width="6" />
  </g>
</svg>