<svg viewBox="0 0 16 16" fill="none" xmlns="http://www.w3.org/2000/svg">
  <circle cx="8" cy="8" r="8" fill="#F2F3FF" />
  <g clip-path="url(#clip0_4195_59991)">
    <path
      d="M13 10.5585C13.0004 10.0445 12.7736 9.55125 12.3693 9.18715C11.965 8.82306 11.4163 8.61782 10.8436 8.6165L8.45262 8.6165C8.43758 8.4165 8.42811 8.212 8.42811 8C8.42811 7.788 8.41864 7.5845 8.40527 7.3835L10.8436 7.3835C11.4113 7.37532 11.9527 7.16715 12.351 6.80389C12.7493 6.44063 12.9725 5.9514 12.9725 5.44175C12.9725 4.9321 12.7493 4.44287 12.351 4.07961C11.9527 3.71635 11.4113 3.50818 10.8436 3.5L5.12913 3.5C4.56137 3.50818 4.01995 3.71635 3.62167 4.07961C3.22339 4.44287 3.00018 4.9321 3.00018 5.44175C3.00018 5.9514 3.22339 6.44063 3.62167 6.80389C4.01995 7.16715 4.56137 7.37532 5.12913 7.3835L7.375 7.4375C7.53125 7.4375 7.54459 7.788 7.54459 8C7.54459 8.212 7.55406 8.4155 7.56743 8.6165L5.12913 8.6165C4.56137 8.62468 4.01995 8.83285 3.62167 9.19611C3.22339 9.55937 3.00018 10.0486 3.00018 10.5582C3.00018 11.0679 3.22339 11.5571 3.62167 11.9204C4.01995 12.2836 4.56137 12.4918 5.12913 12.5L10.8436 12.5C11.4162 12.4987 11.9648 12.2935 12.3691 11.9295C12.7734 11.5655 13.0003 11.0725 13 10.5585ZM12.1165 5.4415C12.1166 5.74487 11.9827 6.03591 11.7441 6.25075C11.5054 6.4656 11.1816 6.58671 10.8436 6.5875L8.31168 6.5875C8.21996 6.01939 8.04521 5.46461 7.79193 4.9375C7.68026 4.70912 7.53729 4.49412 7.36633 4.2975L10.8436 4.2975C11.1812 4.29829 11.5047 4.41912 11.7433 4.63354C11.9818 4.84795 12.116 5.13847 12.1165 5.4415ZM5.12913 6.5875C4.7905 6.5875 4.46574 6.46676 4.22629 6.25184C3.98684 6.03693 3.85232 5.74544 3.85232 5.4415C3.85232 5.13756 3.98684 4.84607 4.22629 4.63116C4.46574 4.41624 4.7905 4.2955 5.12913 4.2955L5.70236 4.2955C6.20873 4.2955 6.68837 4.6555 6.98696 5.259C7.19136 5.68424 7.33673 6.13042 7.41981 6.5875L5.12913 6.5875ZM3.85622 10.5585C3.85607 10.2551 3.99001 9.96409 4.22864 9.74924C4.46728 9.5344 4.79113 9.41329 5.12913 9.4125L7.66102 9.4125C7.75274 9.98061 7.92749 10.5354 8.18077 11.0625C8.29244 11.2909 8.43542 11.5059 8.60637 11.7025L5.12913 11.7025C4.79151 11.7017 4.468 11.5809 4.22943 11.3665C3.99086 11.1521 3.85666 10.8615 3.85622 10.5585ZM8.98908 10.741C8.78468 10.3158 8.63931 9.86958 8.55623 9.4125L10.8436 9.4125C11.1822 9.4125 11.507 9.53324 11.7464 9.74816C11.9859 9.96307 12.1204 10.2546 12.1204 10.5585C12.1204 10.8624 11.9859 11.1539 11.7464 11.3688C11.507 11.5838 11.1822 11.7045 10.8436 11.7045L10.2703 11.7045C9.7662 11.7045 9.28656 11.3445 8.98908 10.741Z"
      fill="url(#paint0_linear_4195_59991)" />
    <path opacity="0.8"
      d="M13 5.4415C13.0004 5.95555 12.7736 6.44875 12.3693 6.81285C11.965 7.17694 11.4163 7.38218 10.8435 7.3835L8.45254 7.3835C8.4375 7.5835 8.42803 7.788 8.42803 8C8.42803 8.212 8.41856 8.4155 8.40519 8.6165L10.8435 8.6165C11.4113 8.62468 11.9527 8.83285 12.351 9.19611C12.7493 9.55937 12.9725 10.0486 12.9725 10.5583C12.9725 11.0679 12.7493 11.5571 12.351 11.9204C11.9527 12.2836 11.4113 12.4918 10.8435 12.5L5.12899 12.5C4.56122 12.4918 4.0198 12.2836 3.62151 11.9204C3.22322 11.5571 3 11.0679 3 10.5582C3 10.0486 3.22322 9.55937 3.62151 9.19611C4.0198 8.83285 4.56122 8.62468 5.12899 8.6165L7.3749 8.5625C7.53115 8.5625 7.5445 8.212 7.5445 8C7.5445 7.788 7.55397 7.5845 7.56734 7.3835L5.12899 7.3835C4.56122 7.37532 4.0198 7.16715 3.62151 6.80389C3.22322 6.44063 3 5.9514 3 5.44175C3 4.9321 3.22322 4.44287 3.62151 4.07961C4.0198 3.71635 4.56122 3.50818 5.12899 3.5L10.8435 3.5C11.4162 3.50132 11.9648 3.70649 12.3691 4.07048C12.7734 4.43447 13.0003 4.92754 13 5.4415ZM12.1165 10.5585C12.1166 10.2551 11.9827 9.96409 11.744 9.74925C11.5054 9.5344 11.1815 9.41329 10.8435 9.4125L8.3116 9.4125C8.21988 9.98061 8.04512 10.5354 7.79184 11.0625C7.68016 11.2909 7.53719 11.5059 7.36623 11.7025L10.8435 11.7025C11.1812 11.7017 11.5047 11.5809 11.7432 11.3665C11.9818 11.1521 12.116 10.8615 12.1165 10.5585ZM5.12899 9.4125C4.79035 9.4125 4.46558 9.53324 4.22613 9.74816C3.98668 9.96307 3.85216 10.2546 3.85216 10.5585C3.85216 10.8624 3.98668 11.1539 4.22613 11.3688C4.46558 11.5838 4.79035 11.7045 5.12899 11.7045L5.70223 11.7045C6.20861 11.7045 6.68826 11.3445 6.98686 10.741C7.19126 10.3158 7.33663 9.86958 7.41971 9.4125L5.12899 9.4125ZM3.85606 5.4415C3.85591 5.74487 3.98985 6.03591 4.22849 6.25076C4.46713 6.4656 4.79098 6.58671 5.12899 6.5875L7.66093 6.5875C7.75265 6.01939 7.9274 5.46461 8.18068 4.9375C8.29236 4.70912 8.43533 4.49413 8.60629 4.2975L5.12899 4.2975C4.79137 4.29829 4.46785 4.41912 4.22927 4.63354C3.9907 4.84795 3.8565 5.13847 3.85606 5.4415ZM8.98901 5.259C8.78461 5.68424 8.63923 6.13042 8.55616 6.5875L10.8435 6.5875C11.1822 6.5875 11.5069 6.46676 11.7464 6.25184C11.9858 6.03693 12.1204 5.74544 12.1204 5.4415C12.1204 5.13756 11.9858 4.84607 11.7464 4.63116C11.5069 4.41624 11.1822 4.2955 10.8435 4.2955L10.2703 4.2955C9.76614 4.2955 9.28649 4.6555 8.98901 5.259Z"
      fill="url(#paint1_linear_4195_59991)" />
  </g>
  <defs>
    <linearGradient id="paint0_linear_4195_59991" x1="3.74519" y1="4.07" x2="11.5319"
      y2="12.7219" gradientUnits="userSpaceOnUse">
      <stop stop-color="#8E59FF" />
      <stop offset="1" stop-color="#6888F9" />
    </linearGradient>
    <linearGradient id="paint1_linear_4195_59991" x1="3.74503" y1="11.93" x2="11.5318"
      y2="3.27793" gradientUnits="userSpaceOnUse">
      <stop stop-color="#8E59FF" />
      <stop offset="1" stop-color="#6888F9" />
    </linearGradient>
    <clipPath id="clip0_4195_59991">
      <rect width="9" height="10" fill="white" transform="translate(13 3.5) rotate(90)" />
    </clipPath>
  </defs>
</svg>