<svg width="48" height="48" viewBox="0 0 48 48" fill="none" xmlns="http://www.w3.org/2000/svg">
    <circle cx="24" cy="24" r="24" fill="#00A3FF" />
    <path fill-rule="evenodd" clip-rule="evenodd"
        d="M24.1869 27.7571L15.0197 22.5198C13.6251 24.3245 12.8003 26.5585 12.8003 28.9772C12.8003 34.9741 17.8708 39.8356 24.1256 39.8356C24.146 39.8356 24.1665 39.8355 24.1869 39.8354V27.7571Z"
        fill="white" />
    <path fill-rule="evenodd" clip-rule="evenodd"
        d="M24.1865 27.7571L33.3537 22.5198C34.7483 24.3245 35.5731 26.5585 35.5731 28.9771C35.5731 34.9741 30.5026 39.8356 24.2477 39.8356C24.2273 39.8356 24.2069 39.8356 24.1865 39.8354V27.7571Z"
        fill="#7EC6F9" />
    <path d="M24.1865 8.3999L16.2588 20.5517L24.1865 16.0522V8.3999Z" fill="white" />
    <path d="M24.1865 8.3999L32.1143 20.5517L24.1865 16.0522V8.3999Z" fill="#7EC6F9" />
    <path d="M24.1865 25.1431L16.2588 20.5518L24.1865 16.0522V25.1431Z" fill="#7EC6F9" />
    <path d="M24.1865 25.1431L32.1143 20.5518L24.1865 16.0522V25.1431Z" fill="#D2ECFD" />
    <path d="M24.1865 27.7753L33.3692 22.5105L24.1865 39.8352V27.7753Z" fill="#D2ECFD" />
    <path d="M24.1866 27.7753L15.0039 22.5105L24.1866 39.8352V27.7753Z" fill="#7EC6F9" />
</svg>