<?xml version="1.0" encoding="UTF-8"?>
<svg width="56px" height="56px" viewBox="0 0 56 56" version="1.1" xmlns="http://www.w3.org/2000/svg" xmlns:xlink="http://www.w3.org/1999/xlink">
    <title>Deposit-success</title>
    <g id="renBTC" stroke="none" stroke-width="1" fill="none" fill-rule="evenodd">
        <g id="Balance06" transform="translate(-826.000000, -184.000000)" fill-rule="nonzero">
            <g id="Group-4" transform="translate(826.000000, 184.000000)">
                <g id="BTC_Logo-Copy-7" fill="#CBDCFD">
                    <path d="M55.16,34.776 C51.42256,49.77448 36.22696,58.90304 21.224,55.16 C6.22104,51.41696 -2.90332,36.22892 0.84,21.22904 C4.58332,6.22916 19.77136,-2.9036 34.77096,0.84 C49.77056,4.5836 58.90332,19.77248 55.16,34.776 L55.16,34.776 Z" id="Path"></path>
                </g>
                <g id="勾-copy" transform="translate(13.000000, 16.000000)" fill="#173DC9">
                    <path d="M11.6551695,23.6362616 C11.1828873,23.6362616 10.7271443,23.4542886 10.3840176,23.1256649 L0.597822473,13.753366 C-0.135222739,13.0513215 -0.160364029,11.8878823 0.541722074,11.1549618 C1.24376662,10.4219166 2.40720578,10.3967753 3.14029255,11.0988198 L11.4953042,19.100482 L26.6503906,0.684133976 C27.2952959,-0.099609375 28.453499,-0.212101064 29.237367,0.432762633 C30.0211519,1.07766789 30.1336436,2.23587101 29.4886968,3.01965592 L13.0744681,22.9661735 C12.7494598,23.3611203 12.2746011,23.6027676 11.7640459,23.6330203 C11.7277261,23.6351812 11.6914063,23.6362616 11.655128,23.6362616 L11.6551695,23.6362616 Z" id="Path"></path>
                </g>
            </g>
        </g>
    </g>
</svg>